%TF.GenerationSoftware,KiCad,Pcbnew,7.0.2*%
%TF.CreationDate,2024-04-17T14:17:48+02:00*%
%TF.ProjectId,Lights_Array_Board,4c696768-7473-45f4-9172-7261795f426f,rev?*%
%TF.SameCoordinates,Original*%
%TF.FileFunction,Paste,Top*%
%TF.FilePolarity,Positive*%
%FSLAX46Y46*%
G04 Gerber Fmt 4.6, Leading zero omitted, Abs format (unit mm)*
G04 Created by KiCad (PCBNEW 7.0.2) date 2024-04-17 14:17:48*
%MOMM*%
%LPD*%
G01*
G04 APERTURE LIST*
G04 Aperture macros list*
%AMRoundRect*
0 Rectangle with rounded corners*
0 $1 Rounding radius*
0 $2 $3 $4 $5 $6 $7 $8 $9 X,Y pos of 4 corners*
0 Add a 4 corners polygon primitive as box body*
4,1,4,$2,$3,$4,$5,$6,$7,$8,$9,$2,$3,0*
0 Add four circle primitives for the rounded corners*
1,1,$1+$1,$2,$3*
1,1,$1+$1,$4,$5*
1,1,$1+$1,$6,$7*
1,1,$1+$1,$8,$9*
0 Add four rect primitives between the rounded corners*
20,1,$1+$1,$2,$3,$4,$5,0*
20,1,$1+$1,$4,$5,$6,$7,0*
20,1,$1+$1,$6,$7,$8,$9,0*
20,1,$1+$1,$8,$9,$2,$3,0*%
G04 Aperture macros list end*
%ADD10RoundRect,0.250000X-0.625000X0.400000X-0.625000X-0.400000X0.625000X-0.400000X0.625000X0.400000X0*%
%ADD11RoundRect,0.250000X0.400000X0.625000X-0.400000X0.625000X-0.400000X-0.625000X0.400000X-0.625000X0*%
%ADD12RoundRect,0.250000X-0.400000X-0.625000X0.400000X-0.625000X0.400000X0.625000X-0.400000X0.625000X0*%
%ADD13RoundRect,0.250000X0.625000X-0.400000X0.625000X0.400000X-0.625000X0.400000X-0.625000X-0.400000X0*%
%ADD14RoundRect,0.150000X0.825000X0.150000X-0.825000X0.150000X-0.825000X-0.150000X0.825000X-0.150000X0*%
G04 APERTURE END LIST*
D10*
%TO.C,R39*%
X127500000Y-95355000D03*
X127500000Y-98455000D03*
%TD*%
D11*
%TO.C,R13*%
X94650000Y-81655000D03*
X97750000Y-81655000D03*
%TD*%
%TO.C,R28*%
X94625000Y-76247323D03*
X97725000Y-76247323D03*
%TD*%
%TO.C,R8*%
X94650000Y-87155000D03*
X97750000Y-87155000D03*
%TD*%
D10*
%TO.C,R11*%
X162000000Y-67450000D03*
X162000000Y-70550000D03*
%TD*%
%TO.C,R1*%
X162000000Y-57450000D03*
X162000000Y-60550000D03*
%TD*%
D12*
%TO.C,R16*%
X76800000Y-92655000D03*
X73700000Y-92655000D03*
%TD*%
D11*
%TO.C,R4*%
X100650000Y-87155000D03*
X103750000Y-87155000D03*
%TD*%
D12*
%TO.C,R37*%
X79625000Y-76247323D03*
X82725000Y-76247323D03*
%TD*%
D11*
%TO.C,R12*%
X100650000Y-81655000D03*
X103750000Y-81655000D03*
%TD*%
D12*
%TO.C,R20*%
X82750000Y-92655000D03*
X79650000Y-92655000D03*
%TD*%
D13*
%TO.C,R10*%
X156750000Y-98455000D03*
X156750000Y-95355000D03*
%TD*%
D11*
%TO.C,R3*%
X94650000Y-92655000D03*
X97750000Y-92655000D03*
%TD*%
D10*
%TO.C,R2*%
X162000000Y-77000000D03*
X162000000Y-80100000D03*
%TD*%
D14*
%TO.C,U1*%
X86300000Y-94372677D03*
X86300000Y-93102677D03*
X86300000Y-91832677D03*
X86300000Y-90562677D03*
X86300000Y-89292677D03*
X86300000Y-88022677D03*
X86300000Y-86752677D03*
X91250000Y-86752677D03*
X91250000Y-88022677D03*
X91250000Y-89292677D03*
X91250000Y-90562677D03*
X91250000Y-91832677D03*
X91250000Y-93102677D03*
X91250000Y-94372677D03*
%TD*%
D12*
%TO.C,R29*%
X82725000Y-59747323D03*
X79625000Y-59747323D03*
%TD*%
D11*
%TO.C,R6*%
X94650000Y-98155000D03*
X97750000Y-98155000D03*
%TD*%
%TO.C,R7*%
X100650000Y-98155000D03*
X103750000Y-98155000D03*
%TD*%
%TO.C,R33*%
X100625000Y-59747323D03*
X103725000Y-59747323D03*
%TD*%
%TO.C,R22*%
X94625000Y-70747323D03*
X97725000Y-70747323D03*
%TD*%
D12*
%TO.C,R18*%
X76800000Y-81655000D03*
X73700000Y-81655000D03*
%TD*%
D13*
%TO.C,R9*%
X161750000Y-98455000D03*
X161750000Y-95355000D03*
%TD*%
D11*
%TO.C,R32*%
X94625000Y-65247323D03*
X97725000Y-65247323D03*
%TD*%
D12*
%TO.C,R27*%
X76775000Y-70747323D03*
X73675000Y-70747323D03*
%TD*%
%TO.C,R23*%
X82725000Y-65247323D03*
X79625000Y-65247323D03*
%TD*%
%TO.C,R21*%
X82750000Y-98155000D03*
X79650000Y-98155000D03*
%TD*%
D11*
%TO.C,R24*%
X100625000Y-70747323D03*
X103725000Y-70747323D03*
%TD*%
D14*
%TO.C,U2*%
X91225000Y-72465000D03*
X91225000Y-71195000D03*
X91225000Y-69925000D03*
X91225000Y-68655000D03*
X91225000Y-67385000D03*
X91225000Y-66115000D03*
X91225000Y-64845000D03*
X86275000Y-64845000D03*
X86275000Y-66115000D03*
X86275000Y-67385000D03*
X86275000Y-68655000D03*
X86275000Y-69925000D03*
X86275000Y-71195000D03*
X86275000Y-72465000D03*
%TD*%
D12*
%TO.C,R26*%
X76775000Y-65247323D03*
X73675000Y-65247323D03*
%TD*%
D11*
%TO.C,R34*%
X76775000Y-76247323D03*
X73675000Y-76247323D03*
%TD*%
%TO.C,R5*%
X100650000Y-92655000D03*
X103750000Y-92655000D03*
%TD*%
%TO.C,R19*%
X76800000Y-98155000D03*
X73700000Y-98155000D03*
%TD*%
%TO.C,R36*%
X94625000Y-59747323D03*
X97725000Y-59747323D03*
%TD*%
D12*
%TO.C,R15*%
X76800000Y-87155000D03*
X73700000Y-87155000D03*
%TD*%
%TO.C,R14*%
X82750000Y-87155000D03*
X79650000Y-87155000D03*
%TD*%
%TO.C,R17*%
X82750000Y-81655000D03*
X79650000Y-81655000D03*
%TD*%
%TO.C,R31*%
X73650000Y-59747323D03*
X76750000Y-59747323D03*
%TD*%
%TO.C,R35*%
X82725000Y-70747323D03*
X79625000Y-70747323D03*
%TD*%
D11*
%TO.C,R25*%
X100625000Y-65247323D03*
X103725000Y-65247323D03*
%TD*%
%TO.C,R30*%
X100625000Y-76247323D03*
X103725000Y-76247323D03*
%TD*%
M02*
