%TF.GenerationSoftware,KiCad,Pcbnew,7.0.2*%
%TF.CreationDate,2024-04-17T14:17:48+02:00*%
%TF.ProjectId,Lights_Array_Board,4c696768-7473-45f4-9172-7261795f426f,rev?*%
%TF.SameCoordinates,Original*%
%TF.FileFunction,Soldermask,Top*%
%TF.FilePolarity,Negative*%
%FSLAX46Y46*%
G04 Gerber Fmt 4.6, Leading zero omitted, Abs format (unit mm)*
G04 Created by KiCad (PCBNEW 7.0.2) date 2024-04-17 14:17:48*
%MOMM*%
%LPD*%
G01*
G04 APERTURE LIST*
G04 Aperture macros list*
%AMRoundRect*
0 Rectangle with rounded corners*
0 $1 Rounding radius*
0 $2 $3 $4 $5 $6 $7 $8 $9 X,Y pos of 4 corners*
0 Add a 4 corners polygon primitive as box body*
4,1,4,$2,$3,$4,$5,$6,$7,$8,$9,$2,$3,0*
0 Add four circle primitives for the rounded corners*
1,1,$1+$1,$2,$3*
1,1,$1+$1,$4,$5*
1,1,$1+$1,$6,$7*
1,1,$1+$1,$8,$9*
0 Add four rect primitives between the rounded corners*
20,1,$1+$1,$2,$3,$4,$5,0*
20,1,$1+$1,$4,$5,$6,$7,0*
20,1,$1+$1,$6,$7,$8,$9,0*
20,1,$1+$1,$8,$9,$2,$3,0*%
G04 Aperture macros list end*
%ADD10O,1.727200X1.727200*%
%ADD11R,1.727200X1.727200*%
%ADD12C,1.440000*%
%ADD13RoundRect,0.250000X-0.625000X0.400000X-0.625000X-0.400000X0.625000X-0.400000X0.625000X0.400000X0*%
%ADD14RoundRect,0.250000X-0.600000X-0.750000X0.600000X-0.750000X0.600000X0.750000X-0.600000X0.750000X0*%
%ADD15O,1.700000X2.000000*%
%ADD16RoundRect,0.250000X0.400000X0.625000X-0.400000X0.625000X-0.400000X-0.625000X0.400000X-0.625000X0*%
%ADD17RoundRect,0.250000X-0.600000X-0.725000X0.600000X-0.725000X0.600000X0.725000X-0.600000X0.725000X0*%
%ADD18O,1.700000X1.950000*%
%ADD19RoundRect,0.250000X-0.400000X-0.625000X0.400000X-0.625000X0.400000X0.625000X-0.400000X0.625000X0*%
%ADD20C,2.000000*%
%ADD21R,2.000000X2.000000*%
%ADD22RoundRect,0.250000X0.625000X-0.400000X0.625000X0.400000X-0.625000X0.400000X-0.625000X-0.400000X0*%
%ADD23RoundRect,0.150000X0.825000X0.150000X-0.825000X0.150000X-0.825000X-0.150000X0.825000X-0.150000X0*%
%ADD24R,1.500000X1.500000*%
%ADD25C,1.500000*%
G04 APERTURE END LIST*
D10*
%TO.C,A1*%
X120240000Y-81220000D03*
X168500000Y-56836000D03*
X168500000Y-54296000D03*
X120240000Y-68520000D03*
X120240000Y-65980000D03*
D11*
X120240000Y-78680000D03*
X120240000Y-76140000D03*
X168500000Y-61916000D03*
D10*
X168500000Y-64456000D03*
X168500000Y-66996000D03*
X168500000Y-69536000D03*
X168500000Y-72076000D03*
X168500000Y-74616000D03*
X168500000Y-77156000D03*
X168500000Y-81220000D03*
X168500000Y-83760000D03*
X168500000Y-86300000D03*
X168500000Y-88840000D03*
X168500000Y-91380000D03*
X168500000Y-93920000D03*
X168500000Y-96460000D03*
X168500000Y-99000000D03*
X168500000Y-59376000D03*
X120240000Y-99000000D03*
X120240000Y-96460000D03*
X120240000Y-93920000D03*
X120240000Y-91380000D03*
X120240000Y-88840000D03*
X120240000Y-86300000D03*
X120240000Y-73600000D03*
X120240000Y-71060000D03*
X120240000Y-63440000D03*
%TD*%
D12*
%TO.C,RV1*%
X133460000Y-96905000D03*
X136000000Y-96905000D03*
X138540000Y-96905000D03*
%TD*%
D13*
%TO.C,R39*%
X127500000Y-95355000D03*
X127500000Y-98455000D03*
%TD*%
D14*
%TO.C,J10*%
X155750000Y-87905000D03*
D15*
X158250000Y-87905000D03*
%TD*%
D16*
%TO.C,R13*%
X94650000Y-81655000D03*
X97750000Y-81655000D03*
%TD*%
%TO.C,R28*%
X94625000Y-76247323D03*
X97725000Y-76247323D03*
%TD*%
%TO.C,R8*%
X94650000Y-87155000D03*
X97750000Y-87155000D03*
%TD*%
D14*
%TO.C,J9*%
X129500000Y-87905000D03*
D15*
X132000000Y-87905000D03*
%TD*%
D14*
%TO.C,J4*%
X141750000Y-67905000D03*
D15*
X144250000Y-67905000D03*
%TD*%
D13*
%TO.C,R11*%
X162000000Y-67450000D03*
X162000000Y-70550000D03*
%TD*%
D17*
%TO.C,J6*%
X141750000Y-87905000D03*
D18*
X144250000Y-87905000D03*
X146750000Y-87905000D03*
%TD*%
D13*
%TO.C,R1*%
X162000000Y-57450000D03*
X162000000Y-60550000D03*
%TD*%
D19*
%TO.C,R16*%
X76800000Y-92655000D03*
X73700000Y-92655000D03*
%TD*%
D20*
%TO.C,C8*%
X66750000Y-86905000D03*
D21*
X66750000Y-81905000D03*
%TD*%
D14*
%TO.C,J14*%
X141750000Y-77905000D03*
D15*
X144250000Y-77905000D03*
%TD*%
D14*
%TO.C,J8*%
X129500000Y-77905000D03*
D15*
X132000000Y-77905000D03*
%TD*%
D16*
%TO.C,R4*%
X100650000Y-87155000D03*
X103750000Y-87155000D03*
%TD*%
D19*
%TO.C,R37*%
X79625000Y-76247323D03*
X82725000Y-76247323D03*
%TD*%
D16*
%TO.C,R12*%
X100650000Y-81655000D03*
X103750000Y-81655000D03*
%TD*%
D19*
%TO.C,R20*%
X82750000Y-92655000D03*
X79650000Y-92655000D03*
%TD*%
D22*
%TO.C,R10*%
X156750000Y-98455000D03*
X156750000Y-95355000D03*
%TD*%
D20*
%TO.C,C10*%
X66750000Y-97905000D03*
D21*
X66750000Y-92905000D03*
%TD*%
D16*
%TO.C,R3*%
X94650000Y-92655000D03*
X97750000Y-92655000D03*
%TD*%
D13*
%TO.C,R2*%
X162000000Y-77000000D03*
X162000000Y-80100000D03*
%TD*%
D20*
%TO.C,C15*%
X110750000Y-59655000D03*
D21*
X110750000Y-64655000D03*
%TD*%
D23*
%TO.C,U1*%
X86300000Y-94372677D03*
X86300000Y-93102677D03*
X86300000Y-91832677D03*
X86300000Y-90562677D03*
X86300000Y-89292677D03*
X86300000Y-88022677D03*
X86300000Y-86752677D03*
X91250000Y-86752677D03*
X91250000Y-88022677D03*
X91250000Y-89292677D03*
X91250000Y-90562677D03*
X91250000Y-91832677D03*
X91250000Y-93102677D03*
X91250000Y-94372677D03*
%TD*%
D20*
%TO.C,C6*%
X110750000Y-81655000D03*
D21*
X110750000Y-86655000D03*
%TD*%
D19*
%TO.C,R29*%
X82725000Y-59747323D03*
X79625000Y-59747323D03*
%TD*%
D16*
%TO.C,R6*%
X94650000Y-98155000D03*
X97750000Y-98155000D03*
%TD*%
%TO.C,R7*%
X100650000Y-98155000D03*
X103750000Y-98155000D03*
%TD*%
D24*
%TO.C,Q3*%
X146460000Y-97000000D03*
D25*
X149000000Y-97000000D03*
X151540000Y-97000000D03*
%TD*%
D15*
%TO.C,J1*%
X132000000Y-58405000D03*
D14*
X129500000Y-58405000D03*
%TD*%
D16*
%TO.C,R33*%
X100625000Y-59747323D03*
X103725000Y-59747323D03*
%TD*%
D20*
%TO.C,C5*%
X110750000Y-92655000D03*
D21*
X110750000Y-97655000D03*
%TD*%
D16*
%TO.C,R22*%
X94625000Y-70747323D03*
X97725000Y-70747323D03*
%TD*%
D19*
%TO.C,R18*%
X76800000Y-81655000D03*
X73700000Y-81655000D03*
%TD*%
D22*
%TO.C,R9*%
X161750000Y-98455000D03*
X161750000Y-95355000D03*
%TD*%
D16*
%TO.C,R32*%
X94625000Y-65247323D03*
X97725000Y-65247323D03*
%TD*%
D14*
%TO.C,J7*%
X129500000Y-67905000D03*
D15*
X132000000Y-67905000D03*
%TD*%
D20*
%TO.C,C12*%
X110750000Y-70655000D03*
D21*
X110750000Y-75655000D03*
%TD*%
D19*
%TO.C,R27*%
X76775000Y-70747323D03*
X73675000Y-70747323D03*
%TD*%
%TO.C,R23*%
X82725000Y-65247323D03*
X79625000Y-65247323D03*
%TD*%
%TO.C,R21*%
X82750000Y-98155000D03*
X79650000Y-98155000D03*
%TD*%
D14*
%TO.C,J5*%
X153750000Y-77905000D03*
D15*
X156250000Y-77905000D03*
%TD*%
D14*
%TO.C,J15*%
X153750000Y-68405000D03*
D15*
X156250000Y-68405000D03*
%TD*%
D16*
%TO.C,R24*%
X100625000Y-70747323D03*
X103725000Y-70747323D03*
%TD*%
D23*
%TO.C,U2*%
X91225000Y-72465000D03*
X91225000Y-71195000D03*
X91225000Y-69925000D03*
X91225000Y-68655000D03*
X91225000Y-67385000D03*
X91225000Y-66115000D03*
X91225000Y-64845000D03*
X86275000Y-64845000D03*
X86275000Y-66115000D03*
X86275000Y-67385000D03*
X86275000Y-68655000D03*
X86275000Y-69925000D03*
X86275000Y-71195000D03*
X86275000Y-72465000D03*
%TD*%
D19*
%TO.C,R26*%
X76775000Y-65247323D03*
X73675000Y-65247323D03*
%TD*%
D16*
%TO.C,R34*%
X76775000Y-76247323D03*
X73675000Y-76247323D03*
%TD*%
%TO.C,R5*%
X100650000Y-92655000D03*
X103750000Y-92655000D03*
%TD*%
%TO.C,R19*%
X76800000Y-98155000D03*
X73700000Y-98155000D03*
%TD*%
%TO.C,R36*%
X94625000Y-59747323D03*
X97725000Y-59747323D03*
%TD*%
D14*
%TO.C,J3*%
X141750000Y-58405000D03*
D15*
X144250000Y-58405000D03*
%TD*%
D19*
%TO.C,R15*%
X76800000Y-87155000D03*
X73700000Y-87155000D03*
%TD*%
%TO.C,R14*%
X82750000Y-87155000D03*
X79650000Y-87155000D03*
%TD*%
D20*
%TO.C,C11*%
X66750000Y-64905000D03*
D21*
X66750000Y-59905000D03*
%TD*%
D19*
%TO.C,R17*%
X82750000Y-81655000D03*
X79650000Y-81655000D03*
%TD*%
%TO.C,R31*%
X73650000Y-59747323D03*
X76750000Y-59747323D03*
%TD*%
D20*
%TO.C,C16*%
X66750000Y-75905000D03*
D21*
X66750000Y-70905000D03*
%TD*%
D19*
%TO.C,R35*%
X82725000Y-70747323D03*
X79625000Y-70747323D03*
%TD*%
D14*
%TO.C,J2*%
X153750000Y-58405000D03*
D15*
X156250000Y-58405000D03*
%TD*%
D16*
%TO.C,R25*%
X100625000Y-65247323D03*
X103725000Y-65247323D03*
%TD*%
%TO.C,R30*%
X100625000Y-76247323D03*
X103725000Y-76247323D03*
%TD*%
M02*
