%TF.GenerationSoftware,KiCad,Pcbnew,7.0.2*%
%TF.CreationDate,2024-04-17T14:17:51+02:00*%
%TF.ProjectId,Lights_Array_Board,4c696768-7473-45f4-9172-7261795f426f,rev?*%
%TF.SameCoordinates,Original*%
%TF.FileFunction,Drillmap*%
%TF.FilePolarity,Positive*%
%FSLAX45Y45*%
G04 Gerber Fmt 4.5, Leading zero omitted, Abs format (unit mm)*
G04 Created by KiCad (PCBNEW 7.0.2) date 2024-04-17 14:17:51*
%MOMM*%
%LPD*%
G01*
G04 APERTURE LIST*
%ADD10C,0.100000*%
%ADD11C,0.200000*%
G04 APERTURE END LIST*
D10*
X6100000Y-10200000D02*
X16900000Y-10200000D01*
X5850000Y-5350000D02*
X5850000Y-9950000D01*
X16900000Y-5100000D02*
X6100000Y-5100000D01*
X17150000Y-9950000D02*
X17150000Y-5350000D01*
X16900000Y-10200000D02*
G75*
G03*
X17150000Y-9950000I0J250000D01*
G01*
X17150000Y-5350000D02*
G75*
G03*
X16900000Y-5100000I-250000J0D01*
G01*
X6100000Y-5100000D02*
G75*
G03*
X5850000Y-5350000I0J-250000D01*
G01*
X5850000Y-9950000D02*
G75*
G03*
X6100000Y-10200000I250000J0D01*
G01*
D11*
X6092619Y-10517524D02*
X6092619Y-10317524D01*
X6092619Y-10317524D02*
X6140238Y-10317524D01*
X6140238Y-10317524D02*
X6168809Y-10327048D01*
X6168809Y-10327048D02*
X6187857Y-10346095D01*
X6187857Y-10346095D02*
X6197381Y-10365143D01*
X6197381Y-10365143D02*
X6206905Y-10403238D01*
X6206905Y-10403238D02*
X6206905Y-10431810D01*
X6206905Y-10431810D02*
X6197381Y-10469905D01*
X6197381Y-10469905D02*
X6187857Y-10488952D01*
X6187857Y-10488952D02*
X6168809Y-10508000D01*
X6168809Y-10508000D02*
X6140238Y-10517524D01*
X6140238Y-10517524D02*
X6092619Y-10517524D01*
X6292619Y-10517524D02*
X6292619Y-10384190D01*
X6292619Y-10422286D02*
X6302143Y-10403238D01*
X6302143Y-10403238D02*
X6311667Y-10393714D01*
X6311667Y-10393714D02*
X6330714Y-10384190D01*
X6330714Y-10384190D02*
X6349762Y-10384190D01*
X6416428Y-10517524D02*
X6416428Y-10384190D01*
X6416428Y-10317524D02*
X6406905Y-10327048D01*
X6406905Y-10327048D02*
X6416428Y-10336571D01*
X6416428Y-10336571D02*
X6425952Y-10327048D01*
X6425952Y-10327048D02*
X6416428Y-10317524D01*
X6416428Y-10317524D02*
X6416428Y-10336571D01*
X6540238Y-10517524D02*
X6521190Y-10508000D01*
X6521190Y-10508000D02*
X6511667Y-10488952D01*
X6511667Y-10488952D02*
X6511667Y-10317524D01*
X6645000Y-10517524D02*
X6625952Y-10508000D01*
X6625952Y-10508000D02*
X6616428Y-10488952D01*
X6616428Y-10488952D02*
X6616428Y-10317524D01*
X6873571Y-10517524D02*
X6873571Y-10317524D01*
X6873571Y-10317524D02*
X6940238Y-10460381D01*
X6940238Y-10460381D02*
X7006905Y-10317524D01*
X7006905Y-10317524D02*
X7006905Y-10517524D01*
X7187857Y-10517524D02*
X7187857Y-10412762D01*
X7187857Y-10412762D02*
X7178333Y-10393714D01*
X7178333Y-10393714D02*
X7159286Y-10384190D01*
X7159286Y-10384190D02*
X7121190Y-10384190D01*
X7121190Y-10384190D02*
X7102143Y-10393714D01*
X7187857Y-10508000D02*
X7168809Y-10517524D01*
X7168809Y-10517524D02*
X7121190Y-10517524D01*
X7121190Y-10517524D02*
X7102143Y-10508000D01*
X7102143Y-10508000D02*
X7092619Y-10488952D01*
X7092619Y-10488952D02*
X7092619Y-10469905D01*
X7092619Y-10469905D02*
X7102143Y-10450857D01*
X7102143Y-10450857D02*
X7121190Y-10441333D01*
X7121190Y-10441333D02*
X7168809Y-10441333D01*
X7168809Y-10441333D02*
X7187857Y-10431810D01*
X7283095Y-10384190D02*
X7283095Y-10584190D01*
X7283095Y-10393714D02*
X7302143Y-10384190D01*
X7302143Y-10384190D02*
X7340238Y-10384190D01*
X7340238Y-10384190D02*
X7359286Y-10393714D01*
X7359286Y-10393714D02*
X7368809Y-10403238D01*
X7368809Y-10403238D02*
X7378333Y-10422286D01*
X7378333Y-10422286D02*
X7378333Y-10479429D01*
X7378333Y-10479429D02*
X7368809Y-10498476D01*
X7368809Y-10498476D02*
X7359286Y-10508000D01*
X7359286Y-10508000D02*
X7340238Y-10517524D01*
X7340238Y-10517524D02*
X7302143Y-10517524D01*
X7302143Y-10517524D02*
X7283095Y-10508000D01*
X7464048Y-10498476D02*
X7473571Y-10508000D01*
X7473571Y-10508000D02*
X7464048Y-10517524D01*
X7464048Y-10517524D02*
X7454524Y-10508000D01*
X7454524Y-10508000D02*
X7464048Y-10498476D01*
X7464048Y-10498476D02*
X7464048Y-10517524D01*
X7464048Y-10393714D02*
X7473571Y-10403238D01*
X7473571Y-10403238D02*
X7464048Y-10412762D01*
X7464048Y-10412762D02*
X7454524Y-10403238D01*
X7454524Y-10403238D02*
X7464048Y-10393714D01*
X7464048Y-10393714D02*
X7464048Y-10412762D01*
M02*
