M48
; DRILL file {KiCad 7.0.2} date Wed Apr 17 14:17:50 2024
; FORMAT={-:-/ absolute / metric / decimal}
; #@! TF.CreationDate,2024-04-17T14:17:50+02:00
; #@! TF.GenerationSoftware,Kicad,Pcbnew,7.0.2
; #@! TF.FileFunction,Plated,1,2,PTH
FMAT,2
METRIC
; #@! TA.AperFunction,Plated,PTH,ViaDrill
T1C0.400
; #@! TA.AperFunction,Plated,PTH,ComponentDrill
T2C0.800
; #@! TA.AperFunction,Plated,PTH,ComponentDrill
T3C0.950
; #@! TA.AperFunction,Plated,PTH,ComponentDrill
T4C1.000
; #@! TA.AperFunction,Plated,PTH,ComponentDrill
T5C1.016
%
G90
G05
T1
X75.5Y-54.5
X77.25Y-67.75
X77.25Y-85.0
X79.0Y-74.5
X81.25Y-56.25
X81.25Y-63.5
X81.278Y-95.127
X82.0Y-85.0
X82.75Y-53.25
X83.75Y-84.75
X85.2Y-98.2
X86.25Y-74.5
X90.0Y-98.25
X90.25Y-79.0
X91.25Y-61.5
X92.7Y-81.6
X95.0Y-57.25
X95.0Y-68.5
X99.25Y-62.5
X99.25Y-84.25
X102.25Y-68.25
X102.25Y-89.25
X102.5Y-84.0
X104.75Y-67.5
X137.75Y-52.0
X140.5Y-53.25
X143.25Y-54.5
X147.5Y-74.0
X148.75Y-55.75
T2
X133.46Y-96.905
X136.0Y-96.905
X138.54Y-96.905
X146.46Y-97.0
X149.0Y-97.0
X151.54Y-97.0
T3
X141.75Y-87.905
X144.25Y-87.905
X146.75Y-87.905
T4
X66.75Y-59.905
X66.75Y-64.905
X66.75Y-70.905
X66.75Y-75.905
X66.75Y-81.905
X66.75Y-86.905
X66.75Y-92.905
X66.75Y-97.905
X110.75Y-59.655
X110.75Y-64.655
X110.75Y-70.655
X110.75Y-75.655
X110.75Y-81.655
X110.75Y-86.655
X110.75Y-92.655
X110.75Y-97.655
X129.5Y-58.405
X129.5Y-67.905
X129.5Y-77.905
X129.5Y-87.905
X132.0Y-58.405
X132.0Y-67.905
X132.0Y-77.905
X132.0Y-87.905
X141.75Y-58.405
X141.75Y-67.905
X141.75Y-77.905
X144.25Y-58.405
X144.25Y-67.905
X144.25Y-77.905
X153.75Y-58.405
X153.75Y-68.405
X153.75Y-77.905
X155.75Y-87.905
X156.25Y-58.405
X156.25Y-68.405
X156.25Y-77.905
X158.25Y-87.905
T5
X120.24Y-63.44
X120.24Y-65.98
X120.24Y-68.52
X120.24Y-71.06
X120.24Y-73.6
X120.24Y-76.14
X120.24Y-78.68
X120.24Y-81.22
X120.24Y-86.3
X120.24Y-88.84
X120.24Y-91.38
X120.24Y-93.92
X120.24Y-96.46
X120.24Y-99.0
X168.5Y-54.296
X168.5Y-56.836
X168.5Y-59.376
X168.5Y-61.916
X168.5Y-64.456
X168.5Y-66.996
X168.5Y-69.536
X168.5Y-72.076
X168.5Y-74.616
X168.5Y-77.156
X168.5Y-81.22
X168.5Y-83.76
X168.5Y-86.3
X168.5Y-88.84
X168.5Y-91.38
X168.5Y-93.92
X168.5Y-96.46
X168.5Y-99.0
T0
M30
