%TF.GenerationSoftware,KiCad,Pcbnew,7.0.2*%
%TF.CreationDate,2024-04-17T14:17:48+02:00*%
%TF.ProjectId,Lights_Array_Board,4c696768-7473-45f4-9172-7261795f426f,rev?*%
%TF.SameCoordinates,Original*%
%TF.FileFunction,Legend,Bot*%
%TF.FilePolarity,Positive*%
%FSLAX46Y46*%
G04 Gerber Fmt 4.6, Leading zero omitted, Abs format (unit mm)*
G04 Created by KiCad (PCBNEW 7.0.2) date 2024-04-17 14:17:48*
%MOMM*%
%LPD*%
G01*
G04 APERTURE LIST*
G04 Aperture macros list*
%AMRoundRect*
0 Rectangle with rounded corners*
0 $1 Rounding radius*
0 $2 $3 $4 $5 $6 $7 $8 $9 X,Y pos of 4 corners*
0 Add a 4 corners polygon primitive as box body*
4,1,4,$2,$3,$4,$5,$6,$7,$8,$9,$2,$3,0*
0 Add four circle primitives for the rounded corners*
1,1,$1+$1,$2,$3*
1,1,$1+$1,$4,$5*
1,1,$1+$1,$6,$7*
1,1,$1+$1,$8,$9*
0 Add four rect primitives between the rounded corners*
20,1,$1+$1,$2,$3,$4,$5,0*
20,1,$1+$1,$4,$5,$6,$7,0*
20,1,$1+$1,$6,$7,$8,$9,0*
20,1,$1+$1,$8,$9,$2,$3,0*%
G04 Aperture macros list end*
%ADD10C,0.150000*%
%ADD11O,1.727200X1.727200*%
%ADD12R,1.727200X1.727200*%
%ADD13C,1.440000*%
%ADD14RoundRect,0.250000X-0.600000X-0.750000X0.600000X-0.750000X0.600000X0.750000X-0.600000X0.750000X0*%
%ADD15O,1.700000X2.000000*%
%ADD16RoundRect,0.250000X-0.600000X-0.725000X0.600000X-0.725000X0.600000X0.725000X-0.600000X0.725000X0*%
%ADD17O,1.700000X1.950000*%
%ADD18C,2.000000*%
%ADD19R,2.000000X2.000000*%
%ADD20R,1.500000X1.500000*%
%ADD21C,1.500000*%
G04 APERTURE END LIST*
D10*
X101809523Y-84731904D02*
X101333333Y-84731904D01*
X101904761Y-85017619D02*
X101571428Y-84017619D01*
X101571428Y-84017619D02*
X101238095Y-85017619D01*
X100904761Y-85017619D02*
X100904761Y-84350952D01*
X100904761Y-84541428D02*
X100857142Y-84446190D01*
X100857142Y-84446190D02*
X100809523Y-84398571D01*
X100809523Y-84398571D02*
X100714285Y-84350952D01*
X100714285Y-84350952D02*
X100619047Y-84350952D01*
X99857142Y-85017619D02*
X99857142Y-84017619D01*
X99857142Y-84970000D02*
X99952380Y-85017619D01*
X99952380Y-85017619D02*
X100142856Y-85017619D01*
X100142856Y-85017619D02*
X100238094Y-84970000D01*
X100238094Y-84970000D02*
X100285713Y-84922380D01*
X100285713Y-84922380D02*
X100333332Y-84827142D01*
X100333332Y-84827142D02*
X100333332Y-84541428D01*
X100333332Y-84541428D02*
X100285713Y-84446190D01*
X100285713Y-84446190D02*
X100238094Y-84398571D01*
X100238094Y-84398571D02*
X100142856Y-84350952D01*
X100142856Y-84350952D02*
X99952380Y-84350952D01*
X99952380Y-84350952D02*
X99857142Y-84398571D01*
X98952380Y-84350952D02*
X98952380Y-85017619D01*
X99380951Y-84350952D02*
X99380951Y-84874761D01*
X99380951Y-84874761D02*
X99333332Y-84970000D01*
X99333332Y-84970000D02*
X99238094Y-85017619D01*
X99238094Y-85017619D02*
X99095237Y-85017619D01*
X99095237Y-85017619D02*
X98999999Y-84970000D01*
X98999999Y-84970000D02*
X98952380Y-84922380D01*
X98476189Y-85017619D02*
X98476189Y-84350952D01*
X98476189Y-84017619D02*
X98523808Y-84065238D01*
X98523808Y-84065238D02*
X98476189Y-84112857D01*
X98476189Y-84112857D02*
X98428570Y-84065238D01*
X98428570Y-84065238D02*
X98476189Y-84017619D01*
X98476189Y-84017619D02*
X98476189Y-84112857D01*
X97999999Y-84350952D02*
X97999999Y-85017619D01*
X97999999Y-84446190D02*
X97952380Y-84398571D01*
X97952380Y-84398571D02*
X97857142Y-84350952D01*
X97857142Y-84350952D02*
X97714285Y-84350952D01*
X97714285Y-84350952D02*
X97619047Y-84398571D01*
X97619047Y-84398571D02*
X97571428Y-84493809D01*
X97571428Y-84493809D02*
X97571428Y-85017619D01*
X96952380Y-85017619D02*
X97047618Y-84970000D01*
X97047618Y-84970000D02*
X97095237Y-84922380D01*
X97095237Y-84922380D02*
X97142856Y-84827142D01*
X97142856Y-84827142D02*
X97142856Y-84541428D01*
X97142856Y-84541428D02*
X97095237Y-84446190D01*
X97095237Y-84446190D02*
X97047618Y-84398571D01*
X97047618Y-84398571D02*
X96952380Y-84350952D01*
X96952380Y-84350952D02*
X96809523Y-84350952D01*
X96809523Y-84350952D02*
X96714285Y-84398571D01*
X96714285Y-84398571D02*
X96666666Y-84446190D01*
X96666666Y-84446190D02*
X96619047Y-84541428D01*
X96619047Y-84541428D02*
X96619047Y-84827142D01*
X96619047Y-84827142D02*
X96666666Y-84922380D01*
X96666666Y-84922380D02*
X96714285Y-84970000D01*
X96714285Y-84970000D02*
X96809523Y-85017619D01*
X96809523Y-85017619D02*
X96952380Y-85017619D01*
X94952380Y-85017619D02*
X95428570Y-85017619D01*
X95428570Y-85017619D02*
X95428570Y-84017619D01*
X94619046Y-85017619D02*
X94619046Y-84350952D01*
X94619046Y-84017619D02*
X94666665Y-84065238D01*
X94666665Y-84065238D02*
X94619046Y-84112857D01*
X94619046Y-84112857D02*
X94571427Y-84065238D01*
X94571427Y-84065238D02*
X94619046Y-84017619D01*
X94619046Y-84017619D02*
X94619046Y-84112857D01*
X93714285Y-84350952D02*
X93714285Y-85160476D01*
X93714285Y-85160476D02*
X93761904Y-85255714D01*
X93761904Y-85255714D02*
X93809523Y-85303333D01*
X93809523Y-85303333D02*
X93904761Y-85350952D01*
X93904761Y-85350952D02*
X94047618Y-85350952D01*
X94047618Y-85350952D02*
X94142856Y-85303333D01*
X93714285Y-84970000D02*
X93809523Y-85017619D01*
X93809523Y-85017619D02*
X93999999Y-85017619D01*
X93999999Y-85017619D02*
X94095237Y-84970000D01*
X94095237Y-84970000D02*
X94142856Y-84922380D01*
X94142856Y-84922380D02*
X94190475Y-84827142D01*
X94190475Y-84827142D02*
X94190475Y-84541428D01*
X94190475Y-84541428D02*
X94142856Y-84446190D01*
X94142856Y-84446190D02*
X94095237Y-84398571D01*
X94095237Y-84398571D02*
X93999999Y-84350952D01*
X93999999Y-84350952D02*
X93809523Y-84350952D01*
X93809523Y-84350952D02*
X93714285Y-84398571D01*
X93238094Y-85017619D02*
X93238094Y-84017619D01*
X92809523Y-85017619D02*
X92809523Y-84493809D01*
X92809523Y-84493809D02*
X92857142Y-84398571D01*
X92857142Y-84398571D02*
X92952380Y-84350952D01*
X92952380Y-84350952D02*
X93095237Y-84350952D01*
X93095237Y-84350952D02*
X93190475Y-84398571D01*
X93190475Y-84398571D02*
X93238094Y-84446190D01*
X92476189Y-84350952D02*
X92095237Y-84350952D01*
X92333332Y-84017619D02*
X92333332Y-84874761D01*
X92333332Y-84874761D02*
X92285713Y-84970000D01*
X92285713Y-84970000D02*
X92190475Y-85017619D01*
X92190475Y-85017619D02*
X92095237Y-85017619D01*
X90428570Y-84922380D02*
X90476189Y-84970000D01*
X90476189Y-84970000D02*
X90619046Y-85017619D01*
X90619046Y-85017619D02*
X90714284Y-85017619D01*
X90714284Y-85017619D02*
X90857141Y-84970000D01*
X90857141Y-84970000D02*
X90952379Y-84874761D01*
X90952379Y-84874761D02*
X90999998Y-84779523D01*
X90999998Y-84779523D02*
X91047617Y-84589047D01*
X91047617Y-84589047D02*
X91047617Y-84446190D01*
X91047617Y-84446190D02*
X90999998Y-84255714D01*
X90999998Y-84255714D02*
X90952379Y-84160476D01*
X90952379Y-84160476D02*
X90857141Y-84065238D01*
X90857141Y-84065238D02*
X90714284Y-84017619D01*
X90714284Y-84017619D02*
X90619046Y-84017619D01*
X90619046Y-84017619D02*
X90476189Y-84065238D01*
X90476189Y-84065238D02*
X90428570Y-84112857D01*
X89857141Y-85017619D02*
X89952379Y-84970000D01*
X89952379Y-84970000D02*
X89999998Y-84922380D01*
X89999998Y-84922380D02*
X90047617Y-84827142D01*
X90047617Y-84827142D02*
X90047617Y-84541428D01*
X90047617Y-84541428D02*
X89999998Y-84446190D01*
X89999998Y-84446190D02*
X89952379Y-84398571D01*
X89952379Y-84398571D02*
X89857141Y-84350952D01*
X89857141Y-84350952D02*
X89714284Y-84350952D01*
X89714284Y-84350952D02*
X89619046Y-84398571D01*
X89619046Y-84398571D02*
X89571427Y-84446190D01*
X89571427Y-84446190D02*
X89523808Y-84541428D01*
X89523808Y-84541428D02*
X89523808Y-84827142D01*
X89523808Y-84827142D02*
X89571427Y-84922380D01*
X89571427Y-84922380D02*
X89619046Y-84970000D01*
X89619046Y-84970000D02*
X89714284Y-85017619D01*
X89714284Y-85017619D02*
X89857141Y-85017619D01*
X89095236Y-84350952D02*
X89095236Y-85017619D01*
X89095236Y-84446190D02*
X89047617Y-84398571D01*
X89047617Y-84398571D02*
X88952379Y-84350952D01*
X88952379Y-84350952D02*
X88809522Y-84350952D01*
X88809522Y-84350952D02*
X88714284Y-84398571D01*
X88714284Y-84398571D02*
X88666665Y-84493809D01*
X88666665Y-84493809D02*
X88666665Y-85017619D01*
X88333331Y-84350952D02*
X87952379Y-84350952D01*
X88190474Y-84017619D02*
X88190474Y-84874761D01*
X88190474Y-84874761D02*
X88142855Y-84970000D01*
X88142855Y-84970000D02*
X88047617Y-85017619D01*
X88047617Y-85017619D02*
X87952379Y-85017619D01*
X87619045Y-85017619D02*
X87619045Y-84350952D01*
X87619045Y-84541428D02*
X87571426Y-84446190D01*
X87571426Y-84446190D02*
X87523807Y-84398571D01*
X87523807Y-84398571D02*
X87428569Y-84350952D01*
X87428569Y-84350952D02*
X87333331Y-84350952D01*
X86857140Y-85017619D02*
X86952378Y-84970000D01*
X86952378Y-84970000D02*
X86999997Y-84922380D01*
X86999997Y-84922380D02*
X87047616Y-84827142D01*
X87047616Y-84827142D02*
X87047616Y-84541428D01*
X87047616Y-84541428D02*
X86999997Y-84446190D01*
X86999997Y-84446190D02*
X86952378Y-84398571D01*
X86952378Y-84398571D02*
X86857140Y-84350952D01*
X86857140Y-84350952D02*
X86714283Y-84350952D01*
X86714283Y-84350952D02*
X86619045Y-84398571D01*
X86619045Y-84398571D02*
X86571426Y-84446190D01*
X86571426Y-84446190D02*
X86523807Y-84541428D01*
X86523807Y-84541428D02*
X86523807Y-84827142D01*
X86523807Y-84827142D02*
X86571426Y-84922380D01*
X86571426Y-84922380D02*
X86619045Y-84970000D01*
X86619045Y-84970000D02*
X86714283Y-85017619D01*
X86714283Y-85017619D02*
X86857140Y-85017619D01*
X85952378Y-85017619D02*
X86047616Y-84970000D01*
X86047616Y-84970000D02*
X86095235Y-84874761D01*
X86095235Y-84874761D02*
X86095235Y-84017619D01*
X84857139Y-84970000D02*
X84714282Y-85017619D01*
X84714282Y-85017619D02*
X84476187Y-85017619D01*
X84476187Y-85017619D02*
X84380949Y-84970000D01*
X84380949Y-84970000D02*
X84333330Y-84922380D01*
X84333330Y-84922380D02*
X84285711Y-84827142D01*
X84285711Y-84827142D02*
X84285711Y-84731904D01*
X84285711Y-84731904D02*
X84333330Y-84636666D01*
X84333330Y-84636666D02*
X84380949Y-84589047D01*
X84380949Y-84589047D02*
X84476187Y-84541428D01*
X84476187Y-84541428D02*
X84666663Y-84493809D01*
X84666663Y-84493809D02*
X84761901Y-84446190D01*
X84761901Y-84446190D02*
X84809520Y-84398571D01*
X84809520Y-84398571D02*
X84857139Y-84303333D01*
X84857139Y-84303333D02*
X84857139Y-84208095D01*
X84857139Y-84208095D02*
X84809520Y-84112857D01*
X84809520Y-84112857D02*
X84761901Y-84065238D01*
X84761901Y-84065238D02*
X84666663Y-84017619D01*
X84666663Y-84017619D02*
X84428568Y-84017619D01*
X84428568Y-84017619D02*
X84285711Y-84065238D01*
X83857139Y-85017619D02*
X83857139Y-84017619D01*
X83428568Y-85017619D02*
X83428568Y-84493809D01*
X83428568Y-84493809D02*
X83476187Y-84398571D01*
X83476187Y-84398571D02*
X83571425Y-84350952D01*
X83571425Y-84350952D02*
X83714282Y-84350952D01*
X83714282Y-84350952D02*
X83809520Y-84398571D01*
X83809520Y-84398571D02*
X83857139Y-84446190D01*
X82952377Y-85017619D02*
X82952377Y-84350952D01*
X82952377Y-84017619D02*
X82999996Y-84065238D01*
X82999996Y-84065238D02*
X82952377Y-84112857D01*
X82952377Y-84112857D02*
X82904758Y-84065238D01*
X82904758Y-84065238D02*
X82952377Y-84017619D01*
X82952377Y-84017619D02*
X82952377Y-84112857D01*
X82095235Y-84970000D02*
X82190473Y-85017619D01*
X82190473Y-85017619D02*
X82380949Y-85017619D01*
X82380949Y-85017619D02*
X82476187Y-84970000D01*
X82476187Y-84970000D02*
X82523806Y-84874761D01*
X82523806Y-84874761D02*
X82523806Y-84493809D01*
X82523806Y-84493809D02*
X82476187Y-84398571D01*
X82476187Y-84398571D02*
X82380949Y-84350952D01*
X82380949Y-84350952D02*
X82190473Y-84350952D01*
X82190473Y-84350952D02*
X82095235Y-84398571D01*
X82095235Y-84398571D02*
X82047616Y-84493809D01*
X82047616Y-84493809D02*
X82047616Y-84589047D01*
X82047616Y-84589047D02*
X82523806Y-84684285D01*
X81476187Y-85017619D02*
X81571425Y-84970000D01*
X81571425Y-84970000D02*
X81619044Y-84874761D01*
X81619044Y-84874761D02*
X81619044Y-84017619D01*
X80666663Y-85017619D02*
X80666663Y-84017619D01*
X80666663Y-84970000D02*
X80761901Y-85017619D01*
X80761901Y-85017619D02*
X80952377Y-85017619D01*
X80952377Y-85017619D02*
X81047615Y-84970000D01*
X81047615Y-84970000D02*
X81095234Y-84922380D01*
X81095234Y-84922380D02*
X81142853Y-84827142D01*
X81142853Y-84827142D02*
X81142853Y-84541428D01*
X81142853Y-84541428D02*
X81095234Y-84446190D01*
X81095234Y-84446190D02*
X81047615Y-84398571D01*
X81047615Y-84398571D02*
X80952377Y-84350952D01*
X80952377Y-84350952D02*
X80761901Y-84350952D01*
X80761901Y-84350952D02*
X80666663Y-84398571D01*
X101761904Y-88257619D02*
X101761904Y-87257619D01*
X101761904Y-87257619D02*
X101523809Y-87257619D01*
X101523809Y-87257619D02*
X101380952Y-87305238D01*
X101380952Y-87305238D02*
X101285714Y-87400476D01*
X101285714Y-87400476D02*
X101238095Y-87495714D01*
X101238095Y-87495714D02*
X101190476Y-87686190D01*
X101190476Y-87686190D02*
X101190476Y-87829047D01*
X101190476Y-87829047D02*
X101238095Y-88019523D01*
X101238095Y-88019523D02*
X101285714Y-88114761D01*
X101285714Y-88114761D02*
X101380952Y-88210000D01*
X101380952Y-88210000D02*
X101523809Y-88257619D01*
X101523809Y-88257619D02*
X101761904Y-88257619D01*
X100380952Y-88210000D02*
X100476190Y-88257619D01*
X100476190Y-88257619D02*
X100666666Y-88257619D01*
X100666666Y-88257619D02*
X100761904Y-88210000D01*
X100761904Y-88210000D02*
X100809523Y-88114761D01*
X100809523Y-88114761D02*
X100809523Y-87733809D01*
X100809523Y-87733809D02*
X100761904Y-87638571D01*
X100761904Y-87638571D02*
X100666666Y-87590952D01*
X100666666Y-87590952D02*
X100476190Y-87590952D01*
X100476190Y-87590952D02*
X100380952Y-87638571D01*
X100380952Y-87638571D02*
X100333333Y-87733809D01*
X100333333Y-87733809D02*
X100333333Y-87829047D01*
X100333333Y-87829047D02*
X100809523Y-87924285D01*
X99952380Y-88210000D02*
X99857142Y-88257619D01*
X99857142Y-88257619D02*
X99666666Y-88257619D01*
X99666666Y-88257619D02*
X99571428Y-88210000D01*
X99571428Y-88210000D02*
X99523809Y-88114761D01*
X99523809Y-88114761D02*
X99523809Y-88067142D01*
X99523809Y-88067142D02*
X99571428Y-87971904D01*
X99571428Y-87971904D02*
X99666666Y-87924285D01*
X99666666Y-87924285D02*
X99809523Y-87924285D01*
X99809523Y-87924285D02*
X99904761Y-87876666D01*
X99904761Y-87876666D02*
X99952380Y-87781428D01*
X99952380Y-87781428D02*
X99952380Y-87733809D01*
X99952380Y-87733809D02*
X99904761Y-87638571D01*
X99904761Y-87638571D02*
X99809523Y-87590952D01*
X99809523Y-87590952D02*
X99666666Y-87590952D01*
X99666666Y-87590952D02*
X99571428Y-87638571D01*
X99095237Y-88257619D02*
X99095237Y-87590952D01*
X99095237Y-87257619D02*
X99142856Y-87305238D01*
X99142856Y-87305238D02*
X99095237Y-87352857D01*
X99095237Y-87352857D02*
X99047618Y-87305238D01*
X99047618Y-87305238D02*
X99095237Y-87257619D01*
X99095237Y-87257619D02*
X99095237Y-87352857D01*
X98190476Y-87590952D02*
X98190476Y-88400476D01*
X98190476Y-88400476D02*
X98238095Y-88495714D01*
X98238095Y-88495714D02*
X98285714Y-88543333D01*
X98285714Y-88543333D02*
X98380952Y-88590952D01*
X98380952Y-88590952D02*
X98523809Y-88590952D01*
X98523809Y-88590952D02*
X98619047Y-88543333D01*
X98190476Y-88210000D02*
X98285714Y-88257619D01*
X98285714Y-88257619D02*
X98476190Y-88257619D01*
X98476190Y-88257619D02*
X98571428Y-88210000D01*
X98571428Y-88210000D02*
X98619047Y-88162380D01*
X98619047Y-88162380D02*
X98666666Y-88067142D01*
X98666666Y-88067142D02*
X98666666Y-87781428D01*
X98666666Y-87781428D02*
X98619047Y-87686190D01*
X98619047Y-87686190D02*
X98571428Y-87638571D01*
X98571428Y-87638571D02*
X98476190Y-87590952D01*
X98476190Y-87590952D02*
X98285714Y-87590952D01*
X98285714Y-87590952D02*
X98190476Y-87638571D01*
X97714285Y-87590952D02*
X97714285Y-88257619D01*
X97714285Y-87686190D02*
X97666666Y-87638571D01*
X97666666Y-87638571D02*
X97571428Y-87590952D01*
X97571428Y-87590952D02*
X97428571Y-87590952D01*
X97428571Y-87590952D02*
X97333333Y-87638571D01*
X97333333Y-87638571D02*
X97285714Y-87733809D01*
X97285714Y-87733809D02*
X97285714Y-88257619D01*
X96047618Y-88257619D02*
X96047618Y-87257619D01*
X96047618Y-87638571D02*
X95952380Y-87590952D01*
X95952380Y-87590952D02*
X95761904Y-87590952D01*
X95761904Y-87590952D02*
X95666666Y-87638571D01*
X95666666Y-87638571D02*
X95619047Y-87686190D01*
X95619047Y-87686190D02*
X95571428Y-87781428D01*
X95571428Y-87781428D02*
X95571428Y-88067142D01*
X95571428Y-88067142D02*
X95619047Y-88162380D01*
X95619047Y-88162380D02*
X95666666Y-88210000D01*
X95666666Y-88210000D02*
X95761904Y-88257619D01*
X95761904Y-88257619D02*
X95952380Y-88257619D01*
X95952380Y-88257619D02*
X96047618Y-88210000D01*
X95238094Y-87590952D02*
X94999999Y-88257619D01*
X94761904Y-87590952D02*
X94999999Y-88257619D01*
X94999999Y-88257619D02*
X95095237Y-88495714D01*
X95095237Y-88495714D02*
X95142856Y-88543333D01*
X95142856Y-88543333D02*
X95238094Y-88590952D01*
X93666665Y-88210000D02*
X93523808Y-88257619D01*
X93523808Y-88257619D02*
X93285713Y-88257619D01*
X93285713Y-88257619D02*
X93190475Y-88210000D01*
X93190475Y-88210000D02*
X93142856Y-88162380D01*
X93142856Y-88162380D02*
X93095237Y-88067142D01*
X93095237Y-88067142D02*
X93095237Y-87971904D01*
X93095237Y-87971904D02*
X93142856Y-87876666D01*
X93142856Y-87876666D02*
X93190475Y-87829047D01*
X93190475Y-87829047D02*
X93285713Y-87781428D01*
X93285713Y-87781428D02*
X93476189Y-87733809D01*
X93476189Y-87733809D02*
X93571427Y-87686190D01*
X93571427Y-87686190D02*
X93619046Y-87638571D01*
X93619046Y-87638571D02*
X93666665Y-87543333D01*
X93666665Y-87543333D02*
X93666665Y-87448095D01*
X93666665Y-87448095D02*
X93619046Y-87352857D01*
X93619046Y-87352857D02*
X93571427Y-87305238D01*
X93571427Y-87305238D02*
X93476189Y-87257619D01*
X93476189Y-87257619D02*
X93238094Y-87257619D01*
X93238094Y-87257619D02*
X93095237Y-87305238D01*
X92666665Y-88257619D02*
X92666665Y-87590952D01*
X92666665Y-87257619D02*
X92714284Y-87305238D01*
X92714284Y-87305238D02*
X92666665Y-87352857D01*
X92666665Y-87352857D02*
X92619046Y-87305238D01*
X92619046Y-87305238D02*
X92666665Y-87257619D01*
X92666665Y-87257619D02*
X92666665Y-87352857D01*
X92190475Y-88257619D02*
X92190475Y-87590952D01*
X92190475Y-87686190D02*
X92142856Y-87638571D01*
X92142856Y-87638571D02*
X92047618Y-87590952D01*
X92047618Y-87590952D02*
X91904761Y-87590952D01*
X91904761Y-87590952D02*
X91809523Y-87638571D01*
X91809523Y-87638571D02*
X91761904Y-87733809D01*
X91761904Y-87733809D02*
X91761904Y-88257619D01*
X91761904Y-87733809D02*
X91714285Y-87638571D01*
X91714285Y-87638571D02*
X91619047Y-87590952D01*
X91619047Y-87590952D02*
X91476190Y-87590952D01*
X91476190Y-87590952D02*
X91380951Y-87638571D01*
X91380951Y-87638571D02*
X91333332Y-87733809D01*
X91333332Y-87733809D02*
X91333332Y-88257619D01*
X90714285Y-88257619D02*
X90809523Y-88210000D01*
X90809523Y-88210000D02*
X90857142Y-88162380D01*
X90857142Y-88162380D02*
X90904761Y-88067142D01*
X90904761Y-88067142D02*
X90904761Y-87781428D01*
X90904761Y-87781428D02*
X90857142Y-87686190D01*
X90857142Y-87686190D02*
X90809523Y-87638571D01*
X90809523Y-87638571D02*
X90714285Y-87590952D01*
X90714285Y-87590952D02*
X90571428Y-87590952D01*
X90571428Y-87590952D02*
X90476190Y-87638571D01*
X90476190Y-87638571D02*
X90428571Y-87686190D01*
X90428571Y-87686190D02*
X90380952Y-87781428D01*
X90380952Y-87781428D02*
X90380952Y-88067142D01*
X90380952Y-88067142D02*
X90428571Y-88162380D01*
X90428571Y-88162380D02*
X90476190Y-88210000D01*
X90476190Y-88210000D02*
X90571428Y-88257619D01*
X90571428Y-88257619D02*
X90714285Y-88257619D01*
X89952380Y-87590952D02*
X89952380Y-88257619D01*
X89952380Y-87686190D02*
X89904761Y-87638571D01*
X89904761Y-87638571D02*
X89809523Y-87590952D01*
X89809523Y-87590952D02*
X89666666Y-87590952D01*
X89666666Y-87590952D02*
X89571428Y-87638571D01*
X89571428Y-87638571D02*
X89523809Y-87733809D01*
X89523809Y-87733809D02*
X89523809Y-88257619D01*
X88666666Y-88210000D02*
X88761904Y-88257619D01*
X88761904Y-88257619D02*
X88952380Y-88257619D01*
X88952380Y-88257619D02*
X89047618Y-88210000D01*
X89047618Y-88210000D02*
X89095237Y-88114761D01*
X89095237Y-88114761D02*
X89095237Y-87733809D01*
X89095237Y-87733809D02*
X89047618Y-87638571D01*
X89047618Y-87638571D02*
X88952380Y-87590952D01*
X88952380Y-87590952D02*
X88761904Y-87590952D01*
X88761904Y-87590952D02*
X88666666Y-87638571D01*
X88666666Y-87638571D02*
X88619047Y-87733809D01*
X88619047Y-87733809D02*
X88619047Y-87829047D01*
X88619047Y-87829047D02*
X89095237Y-87924285D01*
X87428570Y-88257619D02*
X87428570Y-87257619D01*
X87428570Y-87257619D02*
X87047618Y-87257619D01*
X87047618Y-87257619D02*
X86952380Y-87305238D01*
X86952380Y-87305238D02*
X86904761Y-87352857D01*
X86904761Y-87352857D02*
X86857142Y-87448095D01*
X86857142Y-87448095D02*
X86857142Y-87590952D01*
X86857142Y-87590952D02*
X86904761Y-87686190D01*
X86904761Y-87686190D02*
X86952380Y-87733809D01*
X86952380Y-87733809D02*
X87047618Y-87781428D01*
X87047618Y-87781428D02*
X87428570Y-87781428D01*
X86428570Y-88257619D02*
X86428570Y-87590952D01*
X86428570Y-87257619D02*
X86476189Y-87305238D01*
X86476189Y-87305238D02*
X86428570Y-87352857D01*
X86428570Y-87352857D02*
X86380951Y-87305238D01*
X86380951Y-87305238D02*
X86428570Y-87257619D01*
X86428570Y-87257619D02*
X86428570Y-87352857D01*
X85809523Y-88257619D02*
X85904761Y-88210000D01*
X85904761Y-88210000D02*
X85952380Y-88114761D01*
X85952380Y-88114761D02*
X85952380Y-87257619D01*
X85285713Y-88257619D02*
X85380951Y-88210000D01*
X85380951Y-88210000D02*
X85428570Y-88162380D01*
X85428570Y-88162380D02*
X85476189Y-88067142D01*
X85476189Y-88067142D02*
X85476189Y-87781428D01*
X85476189Y-87781428D02*
X85428570Y-87686190D01*
X85428570Y-87686190D02*
X85380951Y-87638571D01*
X85380951Y-87638571D02*
X85285713Y-87590952D01*
X85285713Y-87590952D02*
X85142856Y-87590952D01*
X85142856Y-87590952D02*
X85047618Y-87638571D01*
X85047618Y-87638571D02*
X84999999Y-87686190D01*
X84999999Y-87686190D02*
X84952380Y-87781428D01*
X84952380Y-87781428D02*
X84952380Y-88067142D01*
X84952380Y-88067142D02*
X84999999Y-88162380D01*
X84999999Y-88162380D02*
X85047618Y-88210000D01*
X85047618Y-88210000D02*
X85142856Y-88257619D01*
X85142856Y-88257619D02*
X85285713Y-88257619D01*
X84523808Y-87590952D02*
X84523808Y-88257619D01*
X84523808Y-87686190D02*
X84476189Y-87638571D01*
X84476189Y-87638571D02*
X84380951Y-87590952D01*
X84380951Y-87590952D02*
X84238094Y-87590952D01*
X84238094Y-87590952D02*
X84142856Y-87638571D01*
X84142856Y-87638571D02*
X84095237Y-87733809D01*
X84095237Y-87733809D02*
X84095237Y-88257619D01*
X101761904Y-89877619D02*
X101761904Y-88877619D01*
X101761904Y-88877619D02*
X101190476Y-89877619D01*
X101190476Y-89877619D02*
X101190476Y-88877619D01*
X100571428Y-89877619D02*
X100666666Y-89830000D01*
X100666666Y-89830000D02*
X100714285Y-89782380D01*
X100714285Y-89782380D02*
X100761904Y-89687142D01*
X100761904Y-89687142D02*
X100761904Y-89401428D01*
X100761904Y-89401428D02*
X100714285Y-89306190D01*
X100714285Y-89306190D02*
X100666666Y-89258571D01*
X100666666Y-89258571D02*
X100571428Y-89210952D01*
X100571428Y-89210952D02*
X100428571Y-89210952D01*
X100428571Y-89210952D02*
X100333333Y-89258571D01*
X100333333Y-89258571D02*
X100285714Y-89306190D01*
X100285714Y-89306190D02*
X100238095Y-89401428D01*
X100238095Y-89401428D02*
X100238095Y-89687142D01*
X100238095Y-89687142D02*
X100285714Y-89782380D01*
X100285714Y-89782380D02*
X100333333Y-89830000D01*
X100333333Y-89830000D02*
X100428571Y-89877619D01*
X100428571Y-89877619D02*
X100571428Y-89877619D01*
X99428571Y-89830000D02*
X99523809Y-89877619D01*
X99523809Y-89877619D02*
X99714285Y-89877619D01*
X99714285Y-89877619D02*
X99809523Y-89830000D01*
X99809523Y-89830000D02*
X99857142Y-89734761D01*
X99857142Y-89734761D02*
X99857142Y-89353809D01*
X99857142Y-89353809D02*
X99809523Y-89258571D01*
X99809523Y-89258571D02*
X99714285Y-89210952D01*
X99714285Y-89210952D02*
X99523809Y-89210952D01*
X99523809Y-89210952D02*
X99428571Y-89258571D01*
X99428571Y-89258571D02*
X99380952Y-89353809D01*
X99380952Y-89353809D02*
X99380952Y-89449047D01*
X99380952Y-89449047D02*
X99857142Y-89544285D01*
X99809523Y-88877619D02*
X99761904Y-88925238D01*
X99761904Y-88925238D02*
X99809523Y-88972857D01*
X99809523Y-88972857D02*
X99857142Y-88925238D01*
X99857142Y-88925238D02*
X99809523Y-88877619D01*
X99809523Y-88877619D02*
X99809523Y-88972857D01*
X99428571Y-88877619D02*
X99380952Y-88925238D01*
X99380952Y-88925238D02*
X99428571Y-88972857D01*
X99428571Y-88972857D02*
X99476190Y-88925238D01*
X99476190Y-88925238D02*
X99428571Y-88877619D01*
X99428571Y-88877619D02*
X99428571Y-88972857D01*
X98809523Y-89877619D02*
X98904761Y-89830000D01*
X98904761Y-89830000D02*
X98952380Y-89734761D01*
X98952380Y-89734761D02*
X98952380Y-88877619D01*
X97095237Y-89877619D02*
X97428570Y-89401428D01*
X97666665Y-89877619D02*
X97666665Y-88877619D01*
X97666665Y-88877619D02*
X97285713Y-88877619D01*
X97285713Y-88877619D02*
X97190475Y-88925238D01*
X97190475Y-88925238D02*
X97142856Y-88972857D01*
X97142856Y-88972857D02*
X97095237Y-89068095D01*
X97095237Y-89068095D02*
X97095237Y-89210952D01*
X97095237Y-89210952D02*
X97142856Y-89306190D01*
X97142856Y-89306190D02*
X97190475Y-89353809D01*
X97190475Y-89353809D02*
X97285713Y-89401428D01*
X97285713Y-89401428D02*
X97666665Y-89401428D01*
X96285713Y-89830000D02*
X96380951Y-89877619D01*
X96380951Y-89877619D02*
X96571427Y-89877619D01*
X96571427Y-89877619D02*
X96666665Y-89830000D01*
X96666665Y-89830000D02*
X96714284Y-89734761D01*
X96714284Y-89734761D02*
X96714284Y-89353809D01*
X96714284Y-89353809D02*
X96666665Y-89258571D01*
X96666665Y-89258571D02*
X96571427Y-89210952D01*
X96571427Y-89210952D02*
X96380951Y-89210952D01*
X96380951Y-89210952D02*
X96285713Y-89258571D01*
X96285713Y-89258571D02*
X96238094Y-89353809D01*
X96238094Y-89353809D02*
X96238094Y-89449047D01*
X96238094Y-89449047D02*
X96714284Y-89544285D01*
X95857141Y-89830000D02*
X95761903Y-89877619D01*
X95761903Y-89877619D02*
X95571427Y-89877619D01*
X95571427Y-89877619D02*
X95476189Y-89830000D01*
X95476189Y-89830000D02*
X95428570Y-89734761D01*
X95428570Y-89734761D02*
X95428570Y-89687142D01*
X95428570Y-89687142D02*
X95476189Y-89591904D01*
X95476189Y-89591904D02*
X95571427Y-89544285D01*
X95571427Y-89544285D02*
X95714284Y-89544285D01*
X95714284Y-89544285D02*
X95809522Y-89496666D01*
X95809522Y-89496666D02*
X95857141Y-89401428D01*
X95857141Y-89401428D02*
X95857141Y-89353809D01*
X95857141Y-89353809D02*
X95809522Y-89258571D01*
X95809522Y-89258571D02*
X95714284Y-89210952D01*
X95714284Y-89210952D02*
X95571427Y-89210952D01*
X95571427Y-89210952D02*
X95476189Y-89258571D01*
X94619046Y-89830000D02*
X94714284Y-89877619D01*
X94714284Y-89877619D02*
X94904760Y-89877619D01*
X94904760Y-89877619D02*
X94999998Y-89830000D01*
X94999998Y-89830000D02*
X95047617Y-89734761D01*
X95047617Y-89734761D02*
X95047617Y-89353809D01*
X95047617Y-89353809D02*
X94999998Y-89258571D01*
X94999998Y-89258571D02*
X94904760Y-89210952D01*
X94904760Y-89210952D02*
X94714284Y-89210952D01*
X94714284Y-89210952D02*
X94619046Y-89258571D01*
X94619046Y-89258571D02*
X94571427Y-89353809D01*
X94571427Y-89353809D02*
X94571427Y-89449047D01*
X94571427Y-89449047D02*
X95047617Y-89544285D01*
X93714284Y-89877619D02*
X93714284Y-89353809D01*
X93714284Y-89353809D02*
X93761903Y-89258571D01*
X93761903Y-89258571D02*
X93857141Y-89210952D01*
X93857141Y-89210952D02*
X94047617Y-89210952D01*
X94047617Y-89210952D02*
X94142855Y-89258571D01*
X93714284Y-89830000D02*
X93809522Y-89877619D01*
X93809522Y-89877619D02*
X94047617Y-89877619D01*
X94047617Y-89877619D02*
X94142855Y-89830000D01*
X94142855Y-89830000D02*
X94190474Y-89734761D01*
X94190474Y-89734761D02*
X94190474Y-89639523D01*
X94190474Y-89639523D02*
X94142855Y-89544285D01*
X94142855Y-89544285D02*
X94047617Y-89496666D01*
X94047617Y-89496666D02*
X93809522Y-89496666D01*
X93809522Y-89496666D02*
X93714284Y-89449047D01*
X93238093Y-89877619D02*
X93238093Y-89210952D01*
X93238093Y-89401428D02*
X93190474Y-89306190D01*
X93190474Y-89306190D02*
X93142855Y-89258571D01*
X93142855Y-89258571D02*
X93047617Y-89210952D01*
X93047617Y-89210952D02*
X92952379Y-89210952D01*
X92190474Y-89830000D02*
X92285712Y-89877619D01*
X92285712Y-89877619D02*
X92476188Y-89877619D01*
X92476188Y-89877619D02*
X92571426Y-89830000D01*
X92571426Y-89830000D02*
X92619045Y-89782380D01*
X92619045Y-89782380D02*
X92666664Y-89687142D01*
X92666664Y-89687142D02*
X92666664Y-89401428D01*
X92666664Y-89401428D02*
X92619045Y-89306190D01*
X92619045Y-89306190D02*
X92571426Y-89258571D01*
X92571426Y-89258571D02*
X92476188Y-89210952D01*
X92476188Y-89210952D02*
X92285712Y-89210952D01*
X92285712Y-89210952D02*
X92190474Y-89258571D01*
X91761902Y-89877619D02*
X91761902Y-88877619D01*
X91333331Y-89877619D02*
X91333331Y-89353809D01*
X91333331Y-89353809D02*
X91380950Y-89258571D01*
X91380950Y-89258571D02*
X91476188Y-89210952D01*
X91476188Y-89210952D02*
X91619045Y-89210952D01*
X91619045Y-89210952D02*
X91714283Y-89258571D01*
X91714283Y-89258571D02*
X91761902Y-89306190D01*
X89571426Y-88925238D02*
X89666664Y-88877619D01*
X89666664Y-88877619D02*
X89809521Y-88877619D01*
X89809521Y-88877619D02*
X89952378Y-88925238D01*
X89952378Y-88925238D02*
X90047616Y-89020476D01*
X90047616Y-89020476D02*
X90095235Y-89115714D01*
X90095235Y-89115714D02*
X90142854Y-89306190D01*
X90142854Y-89306190D02*
X90142854Y-89449047D01*
X90142854Y-89449047D02*
X90095235Y-89639523D01*
X90095235Y-89639523D02*
X90047616Y-89734761D01*
X90047616Y-89734761D02*
X89952378Y-89830000D01*
X89952378Y-89830000D02*
X89809521Y-89877619D01*
X89809521Y-89877619D02*
X89714283Y-89877619D01*
X89714283Y-89877619D02*
X89571426Y-89830000D01*
X89571426Y-89830000D02*
X89523807Y-89782380D01*
X89523807Y-89782380D02*
X89523807Y-89449047D01*
X89523807Y-89449047D02*
X89714283Y-89449047D01*
X89095235Y-89877619D02*
X89095235Y-89210952D01*
X89095235Y-89401428D02*
X89047616Y-89306190D01*
X89047616Y-89306190D02*
X88999997Y-89258571D01*
X88999997Y-89258571D02*
X88904759Y-89210952D01*
X88904759Y-89210952D02*
X88809521Y-89210952D01*
X88333330Y-89877619D02*
X88428568Y-89830000D01*
X88428568Y-89830000D02*
X88476187Y-89782380D01*
X88476187Y-89782380D02*
X88523806Y-89687142D01*
X88523806Y-89687142D02*
X88523806Y-89401428D01*
X88523806Y-89401428D02*
X88476187Y-89306190D01*
X88476187Y-89306190D02*
X88428568Y-89258571D01*
X88428568Y-89258571D02*
X88333330Y-89210952D01*
X88333330Y-89210952D02*
X88190473Y-89210952D01*
X88190473Y-89210952D02*
X88095235Y-89258571D01*
X88095235Y-89258571D02*
X88047616Y-89306190D01*
X88047616Y-89306190D02*
X87999997Y-89401428D01*
X87999997Y-89401428D02*
X87999997Y-89687142D01*
X87999997Y-89687142D02*
X88047616Y-89782380D01*
X88047616Y-89782380D02*
X88095235Y-89830000D01*
X88095235Y-89830000D02*
X88190473Y-89877619D01*
X88190473Y-89877619D02*
X88333330Y-89877619D01*
X87142854Y-89210952D02*
X87142854Y-89877619D01*
X87571425Y-89210952D02*
X87571425Y-89734761D01*
X87571425Y-89734761D02*
X87523806Y-89830000D01*
X87523806Y-89830000D02*
X87428568Y-89877619D01*
X87428568Y-89877619D02*
X87285711Y-89877619D01*
X87285711Y-89877619D02*
X87190473Y-89830000D01*
X87190473Y-89830000D02*
X87142854Y-89782380D01*
X86666663Y-89210952D02*
X86666663Y-90210952D01*
X86666663Y-89258571D02*
X86571425Y-89210952D01*
X86571425Y-89210952D02*
X86380949Y-89210952D01*
X86380949Y-89210952D02*
X86285711Y-89258571D01*
X86285711Y-89258571D02*
X86238092Y-89306190D01*
X86238092Y-89306190D02*
X86190473Y-89401428D01*
X86190473Y-89401428D02*
X86190473Y-89687142D01*
X86190473Y-89687142D02*
X86238092Y-89782380D01*
X86238092Y-89782380D02*
X86285711Y-89830000D01*
X86285711Y-89830000D02*
X86380949Y-89877619D01*
X86380949Y-89877619D02*
X86571425Y-89877619D01*
X86571425Y-89877619D02*
X86666663Y-89830000D01*
X84999996Y-89496666D02*
X84238092Y-89496666D01*
X83047615Y-88972857D02*
X82999996Y-88925238D01*
X82999996Y-88925238D02*
X82904758Y-88877619D01*
X82904758Y-88877619D02*
X82666663Y-88877619D01*
X82666663Y-88877619D02*
X82571425Y-88925238D01*
X82571425Y-88925238D02*
X82523806Y-88972857D01*
X82523806Y-88972857D02*
X82476187Y-89068095D01*
X82476187Y-89068095D02*
X82476187Y-89163333D01*
X82476187Y-89163333D02*
X82523806Y-89306190D01*
X82523806Y-89306190D02*
X83095234Y-89877619D01*
X83095234Y-89877619D02*
X82476187Y-89877619D01*
X81857139Y-88877619D02*
X81761901Y-88877619D01*
X81761901Y-88877619D02*
X81666663Y-88925238D01*
X81666663Y-88925238D02*
X81619044Y-88972857D01*
X81619044Y-88972857D02*
X81571425Y-89068095D01*
X81571425Y-89068095D02*
X81523806Y-89258571D01*
X81523806Y-89258571D02*
X81523806Y-89496666D01*
X81523806Y-89496666D02*
X81571425Y-89687142D01*
X81571425Y-89687142D02*
X81619044Y-89782380D01*
X81619044Y-89782380D02*
X81666663Y-89830000D01*
X81666663Y-89830000D02*
X81761901Y-89877619D01*
X81761901Y-89877619D02*
X81857139Y-89877619D01*
X81857139Y-89877619D02*
X81952377Y-89830000D01*
X81952377Y-89830000D02*
X81999996Y-89782380D01*
X81999996Y-89782380D02*
X82047615Y-89687142D01*
X82047615Y-89687142D02*
X82095234Y-89496666D01*
X82095234Y-89496666D02*
X82095234Y-89258571D01*
X82095234Y-89258571D02*
X82047615Y-89068095D01*
X82047615Y-89068095D02*
X81999996Y-88972857D01*
X81999996Y-88972857D02*
X81952377Y-88925238D01*
X81952377Y-88925238D02*
X81857139Y-88877619D01*
X81142853Y-88972857D02*
X81095234Y-88925238D01*
X81095234Y-88925238D02*
X80999996Y-88877619D01*
X80999996Y-88877619D02*
X80761901Y-88877619D01*
X80761901Y-88877619D02*
X80666663Y-88925238D01*
X80666663Y-88925238D02*
X80619044Y-88972857D01*
X80619044Y-88972857D02*
X80571425Y-89068095D01*
X80571425Y-89068095D02*
X80571425Y-89163333D01*
X80571425Y-89163333D02*
X80619044Y-89306190D01*
X80619044Y-89306190D02*
X81190472Y-89877619D01*
X81190472Y-89877619D02*
X80571425Y-89877619D01*
X79714282Y-89210952D02*
X79714282Y-89877619D01*
X79952377Y-88830000D02*
X80190472Y-89544285D01*
X80190472Y-89544285D02*
X79571425Y-89544285D01*
X123377619Y-72023809D02*
X124091904Y-72023809D01*
X124091904Y-72023809D02*
X124234761Y-71976190D01*
X124234761Y-71976190D02*
X124330000Y-71880952D01*
X124330000Y-71880952D02*
X124377619Y-71738095D01*
X124377619Y-71738095D02*
X124377619Y-71642857D01*
X124377619Y-72976190D02*
X124377619Y-72500000D01*
X124377619Y-72500000D02*
X123377619Y-72500000D01*
X124282380Y-73880952D02*
X124330000Y-73833333D01*
X124330000Y-73833333D02*
X124377619Y-73690476D01*
X124377619Y-73690476D02*
X124377619Y-73595238D01*
X124377619Y-73595238D02*
X124330000Y-73452381D01*
X124330000Y-73452381D02*
X124234761Y-73357143D01*
X124234761Y-73357143D02*
X124139523Y-73309524D01*
X124139523Y-73309524D02*
X123949047Y-73261905D01*
X123949047Y-73261905D02*
X123806190Y-73261905D01*
X123806190Y-73261905D02*
X123615714Y-73309524D01*
X123615714Y-73309524D02*
X123520476Y-73357143D01*
X123520476Y-73357143D02*
X123425238Y-73452381D01*
X123425238Y-73452381D02*
X123377619Y-73595238D01*
X123377619Y-73595238D02*
X123377619Y-73690476D01*
X123377619Y-73690476D02*
X123425238Y-73833333D01*
X123425238Y-73833333D02*
X123472857Y-73880952D01*
X123377619Y-74595238D02*
X124091904Y-74595238D01*
X124091904Y-74595238D02*
X124234761Y-74547619D01*
X124234761Y-74547619D02*
X124330000Y-74452381D01*
X124330000Y-74452381D02*
X124377619Y-74309524D01*
X124377619Y-74309524D02*
X124377619Y-74214286D01*
X124377619Y-75547619D02*
X124377619Y-75071429D01*
X124377619Y-75071429D02*
X123377619Y-75071429D01*
X124282380Y-76452381D02*
X124330000Y-76404762D01*
X124330000Y-76404762D02*
X124377619Y-76261905D01*
X124377619Y-76261905D02*
X124377619Y-76166667D01*
X124377619Y-76166667D02*
X124330000Y-76023810D01*
X124330000Y-76023810D02*
X124234761Y-75928572D01*
X124234761Y-75928572D02*
X124139523Y-75880953D01*
X124139523Y-75880953D02*
X123949047Y-75833334D01*
X123949047Y-75833334D02*
X123806190Y-75833334D01*
X123806190Y-75833334D02*
X123615714Y-75880953D01*
X123615714Y-75880953D02*
X123520476Y-75928572D01*
X123520476Y-75928572D02*
X123425238Y-76023810D01*
X123425238Y-76023810D02*
X123377619Y-76166667D01*
X123377619Y-76166667D02*
X123377619Y-76261905D01*
X123377619Y-76261905D02*
X123425238Y-76404762D01*
X123425238Y-76404762D02*
X123472857Y-76452381D01*
X123377619Y-77166667D02*
X124091904Y-77166667D01*
X124091904Y-77166667D02*
X124234761Y-77119048D01*
X124234761Y-77119048D02*
X124330000Y-77023810D01*
X124330000Y-77023810D02*
X124377619Y-76880953D01*
X124377619Y-76880953D02*
X124377619Y-76785715D01*
X124377619Y-78119048D02*
X124377619Y-77642858D01*
X124377619Y-77642858D02*
X123377619Y-77642858D01*
X124282380Y-79023810D02*
X124330000Y-78976191D01*
X124330000Y-78976191D02*
X124377619Y-78833334D01*
X124377619Y-78833334D02*
X124377619Y-78738096D01*
X124377619Y-78738096D02*
X124330000Y-78595239D01*
X124330000Y-78595239D02*
X124234761Y-78500001D01*
X124234761Y-78500001D02*
X124139523Y-78452382D01*
X124139523Y-78452382D02*
X123949047Y-78404763D01*
X123949047Y-78404763D02*
X123806190Y-78404763D01*
X123806190Y-78404763D02*
X123615714Y-78452382D01*
X123615714Y-78452382D02*
X123520476Y-78500001D01*
X123520476Y-78500001D02*
X123425238Y-78595239D01*
X123425238Y-78595239D02*
X123377619Y-78738096D01*
X123377619Y-78738096D02*
X123377619Y-78833334D01*
X123377619Y-78833334D02*
X123425238Y-78976191D01*
X123425238Y-78976191D02*
X123472857Y-79023810D01*
X123377619Y-79738096D02*
X124091904Y-79738096D01*
X124091904Y-79738096D02*
X124234761Y-79690477D01*
X124234761Y-79690477D02*
X124330000Y-79595239D01*
X124330000Y-79595239D02*
X124377619Y-79452382D01*
X124377619Y-79452382D02*
X124377619Y-79357144D01*
X124377619Y-80690477D02*
X124377619Y-80214287D01*
X124377619Y-80214287D02*
X123377619Y-80214287D01*
X124282380Y-81595239D02*
X124330000Y-81547620D01*
X124330000Y-81547620D02*
X124377619Y-81404763D01*
X124377619Y-81404763D02*
X124377619Y-81309525D01*
X124377619Y-81309525D02*
X124330000Y-81166668D01*
X124330000Y-81166668D02*
X124234761Y-81071430D01*
X124234761Y-81071430D02*
X124139523Y-81023811D01*
X124139523Y-81023811D02*
X123949047Y-80976192D01*
X123949047Y-80976192D02*
X123806190Y-80976192D01*
X123806190Y-80976192D02*
X123615714Y-81023811D01*
X123615714Y-81023811D02*
X123520476Y-81071430D01*
X123520476Y-81071430D02*
X123425238Y-81166668D01*
X123425238Y-81166668D02*
X123377619Y-81309525D01*
X123377619Y-81309525D02*
X123377619Y-81404763D01*
X123377619Y-81404763D02*
X123425238Y-81547620D01*
X123425238Y-81547620D02*
X123472857Y-81595239D01*
%TO.C,A1*%
X172232904Y-37325714D02*
X172232904Y-37801904D01*
X172518619Y-37230476D02*
X171518619Y-37563809D01*
X171518619Y-37563809D02*
X172518619Y-37897142D01*
X172518619Y-38754285D02*
X172518619Y-38182857D01*
X172518619Y-38468571D02*
X171518619Y-38468571D01*
X171518619Y-38468571D02*
X171661476Y-38373333D01*
X171661476Y-38373333D02*
X171756714Y-38278095D01*
X171756714Y-38278095D02*
X171804333Y-38182857D01*
X166132380Y-99738094D02*
X167132380Y-99738094D01*
X167132380Y-99738094D02*
X167132380Y-99499999D01*
X167132380Y-99499999D02*
X167084761Y-99357142D01*
X167084761Y-99357142D02*
X166989523Y-99261904D01*
X166989523Y-99261904D02*
X166894285Y-99214285D01*
X166894285Y-99214285D02*
X166703809Y-99166666D01*
X166703809Y-99166666D02*
X166560952Y-99166666D01*
X166560952Y-99166666D02*
X166370476Y-99214285D01*
X166370476Y-99214285D02*
X166275238Y-99261904D01*
X166275238Y-99261904D02*
X166180000Y-99357142D01*
X166180000Y-99357142D02*
X166132380Y-99499999D01*
X166132380Y-99499999D02*
X166132380Y-99738094D01*
X167132380Y-98547618D02*
X167132380Y-98452380D01*
X167132380Y-98452380D02*
X167084761Y-98357142D01*
X167084761Y-98357142D02*
X167037142Y-98309523D01*
X167037142Y-98309523D02*
X166941904Y-98261904D01*
X166941904Y-98261904D02*
X166751428Y-98214285D01*
X166751428Y-98214285D02*
X166513333Y-98214285D01*
X166513333Y-98214285D02*
X166322857Y-98261904D01*
X166322857Y-98261904D02*
X166227619Y-98309523D01*
X166227619Y-98309523D02*
X166180000Y-98357142D01*
X166180000Y-98357142D02*
X166132380Y-98452380D01*
X166132380Y-98452380D02*
X166132380Y-98547618D01*
X166132380Y-98547618D02*
X166180000Y-98642856D01*
X166180000Y-98642856D02*
X166227619Y-98690475D01*
X166227619Y-98690475D02*
X166322857Y-98738094D01*
X166322857Y-98738094D02*
X166513333Y-98785713D01*
X166513333Y-98785713D02*
X166751428Y-98785713D01*
X166751428Y-98785713D02*
X166941904Y-98738094D01*
X166941904Y-98738094D02*
X167037142Y-98690475D01*
X167037142Y-98690475D02*
X167084761Y-98642856D01*
X167084761Y-98642856D02*
X167132380Y-98547618D01*
%TO.C,G\u002A\u002A\u002A*%
G36*
X99638124Y-77780837D02*
G01*
X99660951Y-77861149D01*
X99654719Y-77928918D01*
X99631303Y-77991419D01*
X99582736Y-78013082D01*
X99528103Y-77974403D01*
X99496371Y-77875792D01*
X99493656Y-77846148D01*
X99507711Y-77777983D01*
X99571838Y-77760527D01*
X99638124Y-77780837D01*
G37*
G36*
X99293133Y-77780837D02*
G01*
X99315959Y-77861149D01*
X99309727Y-77928918D01*
X99286311Y-77991419D01*
X99237744Y-78013082D01*
X99183112Y-77974403D01*
X99151380Y-77875792D01*
X99148665Y-77846148D01*
X99162719Y-77777983D01*
X99226847Y-77760527D01*
X99293133Y-77780837D01*
G37*
G36*
X98823107Y-78107415D02*
G01*
X98848107Y-78122126D01*
X98865239Y-78161964D01*
X98875984Y-78239152D01*
X98881825Y-78365916D01*
X98884243Y-78554478D01*
X98884720Y-78817063D01*
X98884720Y-79528608D01*
X98561290Y-79528608D01*
X98503071Y-79528473D01*
X98360231Y-79524748D01*
X98280332Y-79512332D01*
X98245500Y-79486458D01*
X98237861Y-79442360D01*
X98240390Y-79412102D01*
X98266571Y-79376042D01*
X98337975Y-79359856D01*
X98475042Y-79356112D01*
X98712224Y-79356112D01*
X98712224Y-78730815D01*
X98712255Y-78653120D01*
X98713357Y-78431515D01*
X98717369Y-78279415D01*
X98726090Y-78183794D01*
X98741316Y-78131622D01*
X98764844Y-78109873D01*
X98798472Y-78105518D01*
X98823107Y-78107415D01*
G37*
G36*
X101774024Y-72499406D02*
G01*
X101774024Y-77027420D01*
X101472389Y-77027420D01*
X101170754Y-77027420D01*
X101159740Y-73217637D01*
X101148726Y-69407854D01*
X99123989Y-73240477D01*
X98974688Y-73522947D01*
X98628356Y-74176882D01*
X98319836Y-74757350D01*
X98047887Y-75266623D01*
X97811265Y-75706972D01*
X97608728Y-76080666D01*
X97439034Y-76389977D01*
X97300941Y-76637176D01*
X97193207Y-76824532D01*
X97114589Y-76954318D01*
X97063845Y-77028804D01*
X97039732Y-77050260D01*
X97000721Y-77041762D01*
X96889129Y-77031446D01*
X96746558Y-77027420D01*
X96512903Y-77027420D01*
X96512903Y-72520968D01*
X96512903Y-68014516D01*
X96836097Y-68014516D01*
X97159291Y-68014516D01*
X97170308Y-71792114D01*
X97181324Y-75569711D01*
X99186587Y-71771287D01*
X101191850Y-67972863D01*
X101482937Y-67972128D01*
X101774024Y-67971393D01*
X101774024Y-72499406D01*
G37*
G36*
X86206282Y-78817063D02*
G01*
X86206282Y-79528608D01*
X86098472Y-79528608D01*
X86080864Y-79528446D01*
X86030159Y-79519569D01*
X86003220Y-79482910D01*
X85992552Y-79398983D01*
X85990662Y-79248303D01*
X85990662Y-78967997D01*
X85803288Y-78967997D01*
X85692017Y-78958627D01*
X85560908Y-78900376D01*
X85480783Y-78780907D01*
X85442924Y-78591099D01*
X85441015Y-78561283D01*
X85605261Y-78561283D01*
X85647016Y-78655348D01*
X85721675Y-78743738D01*
X85851854Y-78787452D01*
X85990662Y-78800966D01*
X85990662Y-78536758D01*
X85990662Y-78272549D01*
X85851854Y-78286063D01*
X85738665Y-78318820D01*
X85647016Y-78418167D01*
X85613928Y-78484505D01*
X85605261Y-78561283D01*
X85441015Y-78561283D01*
X85439426Y-78536455D01*
X85452879Y-78380147D01*
X85513264Y-78245671D01*
X85537141Y-78208484D01*
X85585328Y-78150226D01*
X85646138Y-78119517D01*
X85744108Y-78107550D01*
X85903780Y-78105518D01*
X86206282Y-78105518D01*
X86206282Y-78272549D01*
X86206282Y-78817063D01*
G37*
G36*
X99747198Y-78817063D02*
G01*
X99747198Y-79528608D01*
X99402207Y-79528608D01*
X99311247Y-79528291D01*
X99174085Y-79523961D01*
X99097591Y-79511087D01*
X99064418Y-79485333D01*
X99057215Y-79442360D01*
X99061972Y-79404159D01*
X99093358Y-79373083D01*
X99171445Y-79359259D01*
X99315959Y-79356112D01*
X99574703Y-79356112D01*
X99574703Y-79118931D01*
X99574703Y-78881749D01*
X99359083Y-78881749D01*
X99309210Y-78881380D01*
X99203000Y-78873034D01*
X99154815Y-78847233D01*
X99143463Y-78795501D01*
X99144386Y-78775552D01*
X99165252Y-78733068D01*
X99229753Y-78713794D01*
X99359083Y-78709253D01*
X99574703Y-78709253D01*
X99574703Y-78493634D01*
X99574703Y-78278014D01*
X99337521Y-78278014D01*
X99254311Y-78277094D01*
X99155145Y-78267574D01*
X99110634Y-78241609D01*
X99100339Y-78191766D01*
X99100847Y-78176241D01*
X99114816Y-78138150D01*
X99161377Y-78116844D01*
X99258403Y-78107555D01*
X99423769Y-78105518D01*
X99747198Y-78105518D01*
X99747198Y-78817063D01*
G37*
G36*
X96814771Y-78817063D02*
G01*
X96814771Y-79528608D01*
X96491341Y-79528608D01*
X96433122Y-79528473D01*
X96290282Y-79524748D01*
X96210383Y-79512332D01*
X96175550Y-79486458D01*
X96167911Y-79442360D01*
X96170441Y-79412102D01*
X96196622Y-79376042D01*
X96268026Y-79359856D01*
X96405093Y-79356112D01*
X96642275Y-79356112D01*
X96642275Y-79118931D01*
X96642275Y-78881749D01*
X96426655Y-78881749D01*
X96376783Y-78881380D01*
X96270572Y-78873034D01*
X96222388Y-78847233D01*
X96211035Y-78795501D01*
X96211958Y-78775552D01*
X96232824Y-78733068D01*
X96297326Y-78713794D01*
X96426655Y-78709253D01*
X96642275Y-78709253D01*
X96642275Y-78493634D01*
X96642275Y-78278014D01*
X96405093Y-78278014D01*
X96321883Y-78277094D01*
X96222717Y-78267574D01*
X96178206Y-78241609D01*
X96167911Y-78191766D01*
X96168419Y-78176241D01*
X96182388Y-78138150D01*
X96228949Y-78116844D01*
X96325976Y-78107555D01*
X96491341Y-78105518D01*
X96814771Y-78105518D01*
X96814771Y-78817063D01*
G37*
G36*
X95089813Y-78817063D02*
G01*
X95089813Y-79528608D01*
X94766383Y-79528608D01*
X94708164Y-79528473D01*
X94565325Y-79524748D01*
X94485425Y-79512332D01*
X94450593Y-79486458D01*
X94442954Y-79442360D01*
X94445484Y-79412102D01*
X94471665Y-79376042D01*
X94543069Y-79359856D01*
X94680136Y-79356112D01*
X94917317Y-79356112D01*
X94917317Y-79118931D01*
X94917317Y-78881749D01*
X94701698Y-78881749D01*
X94651825Y-78881380D01*
X94545615Y-78873034D01*
X94497430Y-78847233D01*
X94486078Y-78795501D01*
X94487000Y-78775552D01*
X94507866Y-78733068D01*
X94572368Y-78713794D01*
X94701698Y-78709253D01*
X94917317Y-78709253D01*
X94917317Y-78493634D01*
X94917317Y-78278014D01*
X94680136Y-78278014D01*
X94596926Y-78277094D01*
X94497759Y-78267574D01*
X94453249Y-78241609D01*
X94442954Y-78191766D01*
X94443461Y-78176241D01*
X94457430Y-78138150D01*
X94503991Y-78116844D01*
X94601018Y-78107555D01*
X94766383Y-78105518D01*
X95089813Y-78105518D01*
X95089813Y-78817063D01*
G37*
G36*
X101092208Y-78106229D02*
G01*
X101128966Y-78117039D01*
X101152153Y-78153095D01*
X101165701Y-78229641D01*
X101173542Y-78361919D01*
X101179610Y-78565174D01*
X101191850Y-79024829D01*
X101383267Y-78565174D01*
X101467144Y-78368607D01*
X101531413Y-78233785D01*
X101581821Y-78153761D01*
X101626693Y-78115388D01*
X101674353Y-78105518D01*
X101774024Y-78105518D01*
X101774024Y-78817063D01*
X101773809Y-79010702D01*
X101772064Y-79219840D01*
X101767315Y-79363565D01*
X101758105Y-79454091D01*
X101742978Y-79503632D01*
X101720477Y-79524400D01*
X101689144Y-79528608D01*
X101670341Y-79527567D01*
X101639667Y-79513233D01*
X101619307Y-79470501D01*
X101606461Y-79384911D01*
X101598330Y-79242001D01*
X101592115Y-79027310D01*
X101579966Y-78526011D01*
X101369203Y-79027310D01*
X101339537Y-79097559D01*
X101257009Y-79286500D01*
X101195343Y-79411414D01*
X101146643Y-79484963D01*
X101103013Y-79519807D01*
X101056555Y-79528608D01*
X100954669Y-79528608D01*
X100954669Y-78817063D01*
X100954669Y-78105518D01*
X101061020Y-78105518D01*
X101092208Y-78106229D01*
G37*
G36*
X92202898Y-78106797D02*
G01*
X92298158Y-78184745D01*
X92374877Y-78327710D01*
X92418909Y-78535677D01*
X92432980Y-78817063D01*
X92419795Y-79088934D01*
X92375959Y-79302227D01*
X92299247Y-79446503D01*
X92187470Y-79528100D01*
X92116074Y-79551061D01*
X91944655Y-79554541D01*
X91802592Y-79481260D01*
X91702498Y-79336210D01*
X91684329Y-79290988D01*
X91645168Y-79154482D01*
X91657813Y-79078059D01*
X91722801Y-79054245D01*
X91796416Y-79089780D01*
X91855518Y-79205179D01*
X91883367Y-79276960D01*
X91937298Y-79340286D01*
X92024436Y-79356112D01*
X92121399Y-79334687D01*
X92193587Y-79246273D01*
X92210048Y-79193959D01*
X92231152Y-79050638D01*
X92241444Y-78868836D01*
X92240559Y-78678751D01*
X92228136Y-78510577D01*
X92203813Y-78394513D01*
X92170633Y-78331203D01*
X92083073Y-78261584D01*
X91983991Y-78260244D01*
X91895755Y-78323827D01*
X91840731Y-78448978D01*
X91837753Y-78462963D01*
X91797029Y-78553708D01*
X91722425Y-78579881D01*
X91719347Y-78579873D01*
X91662545Y-78569632D01*
X91645466Y-78523740D01*
X91658631Y-78418167D01*
X91677002Y-78345707D01*
X91763165Y-78194444D01*
X91891690Y-78097251D01*
X92044345Y-78064558D01*
X92202898Y-78106797D01*
G37*
G36*
X91467402Y-78817063D02*
G01*
X91467402Y-79528608D01*
X91359592Y-79528608D01*
X91321726Y-79527419D01*
X91282042Y-79512641D01*
X91261194Y-79466120D01*
X91253126Y-79369688D01*
X91251782Y-79205179D01*
X91251782Y-78881749D01*
X91036163Y-78881749D01*
X90820543Y-78881749D01*
X90820543Y-79205179D01*
X90820408Y-79263398D01*
X90816683Y-79406237D01*
X90804266Y-79486137D01*
X90778393Y-79520969D01*
X90734295Y-79528608D01*
X90709660Y-79526711D01*
X90684660Y-79512000D01*
X90667528Y-79472162D01*
X90656783Y-79394974D01*
X90650942Y-79268210D01*
X90648524Y-79079648D01*
X90648047Y-78817063D01*
X90648277Y-78613819D01*
X90650060Y-78407572D01*
X90654889Y-78266235D01*
X90664245Y-78177586D01*
X90679611Y-78129399D01*
X90702467Y-78109451D01*
X90734295Y-78105518D01*
X90741160Y-78105602D01*
X90783794Y-78116295D01*
X90807723Y-78157862D01*
X90818216Y-78248745D01*
X90820543Y-78407386D01*
X90820543Y-78709253D01*
X91036163Y-78709253D01*
X91251782Y-78709253D01*
X91251782Y-78407386D01*
X91251979Y-78326892D01*
X91256173Y-78201850D01*
X91271032Y-78135803D01*
X91303268Y-78109957D01*
X91359592Y-78105518D01*
X91467402Y-78105518D01*
X91467402Y-78817063D01*
G37*
G36*
X100770395Y-78850152D02*
G01*
X100749020Y-79086702D01*
X100695992Y-79289734D01*
X100615165Y-79442461D01*
X100510390Y-79528100D01*
X100392043Y-79559840D01*
X100234370Y-79543129D01*
X100105490Y-79455155D01*
X100009457Y-79303205D01*
X99950322Y-79094566D01*
X99932137Y-78836527D01*
X99935549Y-78798336D01*
X100135314Y-78798336D01*
X100136176Y-78876369D01*
X100144549Y-79053011D01*
X100159927Y-79193458D01*
X100179955Y-79272700D01*
X100205876Y-79307771D01*
X100298942Y-79352022D01*
X100407347Y-79335777D01*
X100499422Y-79260269D01*
X100505634Y-79250781D01*
X100540887Y-79156431D01*
X100560489Y-79006448D01*
X100566553Y-78785906D01*
X100566479Y-78746486D01*
X100562384Y-78568554D01*
X100549233Y-78452239D01*
X100523163Y-78376711D01*
X100480305Y-78321138D01*
X100410426Y-78262725D01*
X100350934Y-78234890D01*
X100298794Y-78257823D01*
X100221562Y-78321138D01*
X100207804Y-78335707D01*
X100170565Y-78393460D01*
X100148526Y-78476232D01*
X100138003Y-78604398D01*
X100135314Y-78798336D01*
X99935549Y-78798336D01*
X99958956Y-78536376D01*
X99987756Y-78401419D01*
X100070007Y-78212441D01*
X100190806Y-78099748D01*
X100350934Y-78062394D01*
X100425578Y-78070083D01*
X100569470Y-78143468D01*
X100676210Y-78292189D01*
X100743319Y-78513399D01*
X100756263Y-78596869D01*
X100766810Y-78785906D01*
X100770395Y-78850152D01*
G37*
G36*
X88178204Y-78850152D02*
G01*
X88156830Y-79086702D01*
X88103802Y-79289734D01*
X88022975Y-79442461D01*
X87918200Y-79528100D01*
X87799853Y-79559840D01*
X87642180Y-79543129D01*
X87513300Y-79455155D01*
X87417266Y-79303205D01*
X87358131Y-79094566D01*
X87339947Y-78836527D01*
X87343359Y-78798336D01*
X87543124Y-78798336D01*
X87543986Y-78876369D01*
X87552359Y-79053011D01*
X87567737Y-79193458D01*
X87587765Y-79272700D01*
X87613686Y-79307771D01*
X87706752Y-79352022D01*
X87815156Y-79335777D01*
X87907232Y-79260269D01*
X87913444Y-79250781D01*
X87948696Y-79156431D01*
X87968299Y-79006448D01*
X87974363Y-78785906D01*
X87974289Y-78746486D01*
X87970194Y-78568554D01*
X87957043Y-78452239D01*
X87930972Y-78376711D01*
X87888115Y-78321138D01*
X87818236Y-78262725D01*
X87758743Y-78234890D01*
X87706604Y-78257823D01*
X87629372Y-78321138D01*
X87615613Y-78335707D01*
X87578375Y-78393460D01*
X87556336Y-78476232D01*
X87545813Y-78604398D01*
X87543124Y-78798336D01*
X87343359Y-78798336D01*
X87366766Y-78536376D01*
X87395566Y-78401419D01*
X87477817Y-78212441D01*
X87598615Y-78099748D01*
X87758743Y-78062394D01*
X87833387Y-78070083D01*
X87977280Y-78143468D01*
X88084020Y-78292189D01*
X88151128Y-78513399D01*
X88164073Y-78596869D01*
X88174620Y-78785906D01*
X88178204Y-78850152D01*
G37*
G36*
X95749811Y-78078955D02*
G01*
X95873316Y-78144038D01*
X95961655Y-78260559D01*
X95995416Y-78424958D01*
X95993648Y-78482565D01*
X95955404Y-78652852D01*
X95857278Y-78786286D01*
X95686130Y-78903186D01*
X95579017Y-78964262D01*
X95509322Y-79020891D01*
X95484304Y-79083698D01*
X95486343Y-79176815D01*
X95499603Y-79268601D01*
X95537319Y-79326597D01*
X95618424Y-79348229D01*
X95662414Y-79350523D01*
X95743130Y-79322184D01*
X95812482Y-79229911D01*
X95876308Y-79148517D01*
X95952551Y-79102323D01*
X96013279Y-79108609D01*
X96037012Y-79172836D01*
X96014532Y-79274762D01*
X95933761Y-79411521D01*
X95818173Y-79513307D01*
X95784987Y-79529897D01*
X95628642Y-79556738D01*
X95477012Y-79514295D01*
X95353853Y-79413564D01*
X95282921Y-79265542D01*
X95273358Y-79207924D01*
X95291793Y-79018205D01*
X95389923Y-78857160D01*
X95564716Y-78730542D01*
X95593527Y-78715473D01*
X95742370Y-78610570D01*
X95810468Y-78497265D01*
X95802622Y-78368246D01*
X95789330Y-78335220D01*
X95717763Y-78261241D01*
X95627430Y-78251943D01*
X95543698Y-78303687D01*
X95491933Y-78412831D01*
X95487781Y-78431768D01*
X95446353Y-78514168D01*
X95364728Y-78536758D01*
X95313873Y-78533086D01*
X95270953Y-78504202D01*
X95275078Y-78432559D01*
X95323344Y-78301662D01*
X95362427Y-78227955D01*
X95474953Y-78117352D01*
X95610552Y-78068873D01*
X95749811Y-78078955D01*
G37*
G36*
X94250530Y-79085710D02*
G01*
X94347980Y-79456929D01*
X94351430Y-79471838D01*
X94340619Y-79519469D01*
X94267145Y-79521615D01*
X94233619Y-79513837D01*
X94169352Y-79461459D01*
X94127469Y-79345331D01*
X94114176Y-79291849D01*
X94081622Y-79217640D01*
X94021264Y-79188603D01*
X93903905Y-79183617D01*
X93842416Y-79184227D01*
X93754201Y-79197376D01*
X93709908Y-79244038D01*
X93680341Y-79345331D01*
X93666117Y-79397817D01*
X93617910Y-79487392D01*
X93540665Y-79521615D01*
X93521562Y-79523999D01*
X93461000Y-79514514D01*
X93459830Y-79456929D01*
X93516763Y-79239814D01*
X93598922Y-78928163D01*
X93796095Y-78928163D01*
X93822844Y-78954354D01*
X93903905Y-78967997D01*
X93934128Y-78967176D01*
X93986248Y-78952255D01*
X94005322Y-78905437D01*
X93994060Y-78809830D01*
X93955174Y-78648543D01*
X93900297Y-78436899D01*
X93848196Y-78662614D01*
X93828483Y-78750994D01*
X93805180Y-78866396D01*
X93796095Y-78928163D01*
X93598922Y-78928163D01*
X93603303Y-78911543D01*
X93672477Y-78653564D01*
X93727066Y-78457422D01*
X93769846Y-78314658D01*
X93803599Y-78216815D01*
X93831102Y-78155437D01*
X93855134Y-78122066D01*
X93878476Y-78108246D01*
X93903905Y-78105518D01*
X93918532Y-78106175D01*
X93942452Y-78114057D01*
X93965837Y-78137756D01*
X93991465Y-78185729D01*
X94022117Y-78266434D01*
X94060570Y-78388327D01*
X94109604Y-78559866D01*
X94171997Y-78789508D01*
X94202734Y-78905437D01*
X94250530Y-79085710D01*
G37*
G36*
X87069975Y-78105520D02*
G01*
X87104330Y-78110495D01*
X87127933Y-78134135D01*
X87142792Y-78189956D01*
X87150919Y-78291473D01*
X87154321Y-78452203D01*
X87155008Y-78685662D01*
X87153438Y-78884401D01*
X87143976Y-79115909D01*
X87123443Y-79282651D01*
X87088978Y-79397329D01*
X87037721Y-79472643D01*
X86966812Y-79521295D01*
X86876766Y-79552912D01*
X86711768Y-79555592D01*
X86568097Y-79492494D01*
X86469781Y-79370890D01*
X86469555Y-79370390D01*
X86450552Y-79284216D01*
X86435455Y-79129632D01*
X86425495Y-78924246D01*
X86421901Y-78685662D01*
X86421902Y-78677490D01*
X86422641Y-78446404D01*
X86426156Y-78287642D01*
X86434454Y-78187689D01*
X86449547Y-78133028D01*
X86473442Y-78110143D01*
X86508149Y-78105518D01*
X86542784Y-78110091D01*
X86566815Y-78132948D01*
X86581948Y-78187683D01*
X86590227Y-78287886D01*
X86593695Y-78447150D01*
X86594397Y-78679067D01*
X86594403Y-78695806D01*
X86597050Y-78948402D01*
X86606912Y-79127712D01*
X86627487Y-79245938D01*
X86662271Y-79315280D01*
X86714761Y-79347938D01*
X86788455Y-79356112D01*
X86793253Y-79356092D01*
X86865653Y-79346857D01*
X86917047Y-79312449D01*
X86950934Y-79240666D01*
X86970809Y-79119308D01*
X86980169Y-78936175D01*
X86982513Y-78679067D01*
X86983200Y-78448744D01*
X86986637Y-78288937D01*
X86994868Y-78188303D01*
X87009936Y-78133250D01*
X87033886Y-78110186D01*
X87068760Y-78105518D01*
X87069975Y-78105520D01*
G37*
G36*
X89661404Y-78062478D02*
G01*
X89782996Y-78094049D01*
X89901755Y-78166391D01*
X89929090Y-78190493D01*
X89973737Y-78239609D01*
X90002473Y-78300156D01*
X90019751Y-78390832D01*
X90030028Y-78530337D01*
X90037755Y-78737370D01*
X90038898Y-78996265D01*
X90018993Y-79209336D01*
X89973405Y-79360682D01*
X89898447Y-79462048D01*
X89790432Y-79525183D01*
X89652910Y-79551621D01*
X89483441Y-79530015D01*
X89346378Y-79456726D01*
X89333407Y-79443863D01*
X89293974Y-79375110D01*
X89273769Y-79264727D01*
X89268081Y-79090685D01*
X89268081Y-78795501D01*
X89462139Y-78795501D01*
X89476080Y-78795534D01*
X89590776Y-78802364D01*
X89643500Y-78827851D01*
X89656197Y-78881749D01*
X89632927Y-78947783D01*
X89548387Y-78967997D01*
X89544201Y-78968009D01*
X89476146Y-78978850D01*
X89446848Y-79026642D01*
X89440577Y-79135879D01*
X89440591Y-79140986D01*
X89460040Y-79271199D01*
X89527005Y-79337559D01*
X89657278Y-79356112D01*
X89750720Y-79326774D01*
X89819256Y-79229383D01*
X89858991Y-79059058D01*
X89871816Y-78810995D01*
X89870111Y-78645692D01*
X89860268Y-78486881D01*
X89837772Y-78383802D01*
X89798261Y-78319070D01*
X89737371Y-78275299D01*
X89735444Y-78274281D01*
X89624989Y-78257995D01*
X89527357Y-78313621D01*
X89466278Y-78427810D01*
X89432145Y-78500511D01*
X89348117Y-78536758D01*
X89298193Y-78530953D01*
X89273034Y-78492634D01*
X89284207Y-78396605D01*
X89297739Y-78346441D01*
X89381989Y-78203858D01*
X89509946Y-78101566D01*
X89656197Y-78062394D01*
X89661404Y-78062478D01*
G37*
G36*
X97677249Y-78817063D02*
G01*
X97677019Y-79020307D01*
X97675236Y-79226554D01*
X97670407Y-79367891D01*
X97661051Y-79456541D01*
X97645686Y-79504727D01*
X97622830Y-79524675D01*
X97591001Y-79528608D01*
X97546538Y-79521084D01*
X97519415Y-79484574D01*
X97507442Y-79399999D01*
X97504754Y-79248303D01*
X97502714Y-79112945D01*
X97492019Y-79019844D01*
X97467092Y-78977815D01*
X97422391Y-78967997D01*
X97410888Y-78968818D01*
X97357184Y-79000785D01*
X97303063Y-79089336D01*
X97239500Y-79248303D01*
X97199137Y-79355703D01*
X97147919Y-79463050D01*
X97099378Y-79515041D01*
X97041557Y-79528608D01*
X96980827Y-79524090D01*
X96944142Y-79508031D01*
X96944259Y-79506767D01*
X96960689Y-79453193D01*
X96999490Y-79343078D01*
X97052899Y-79198512D01*
X97058523Y-79183404D01*
X97104927Y-79041082D01*
X97128441Y-78934194D01*
X97124041Y-78884879D01*
X97063670Y-78822156D01*
X97007710Y-78685092D01*
X96989814Y-78519178D01*
X96997084Y-78465270D01*
X97162808Y-78465270D01*
X97172654Y-78590569D01*
X97246010Y-78709253D01*
X97324628Y-78766233D01*
X97418506Y-78795501D01*
X97456706Y-78790744D01*
X97487782Y-78759359D01*
X97501607Y-78681271D01*
X97504754Y-78536758D01*
X97504730Y-78496681D01*
X97501542Y-78370521D01*
X97485870Y-78305576D01*
X97447671Y-78281516D01*
X97376899Y-78278014D01*
X97304965Y-78289338D01*
X97209303Y-78356984D01*
X97162808Y-78465270D01*
X96997084Y-78465270D01*
X97012090Y-78354000D01*
X97076644Y-78219144D01*
X97112594Y-78177340D01*
X97177798Y-78131089D01*
X97271173Y-78110324D01*
X97421636Y-78105518D01*
X97677249Y-78105518D01*
X97677249Y-78536758D01*
X97677249Y-78817063D01*
G37*
G36*
X93278608Y-78817063D02*
G01*
X93278378Y-79020307D01*
X93276594Y-79226554D01*
X93271766Y-79367891D01*
X93262409Y-79456541D01*
X93247044Y-79504727D01*
X93224188Y-79524675D01*
X93192360Y-79528608D01*
X93147896Y-79521084D01*
X93120773Y-79484574D01*
X93108800Y-79399999D01*
X93106112Y-79248303D01*
X93104072Y-79112945D01*
X93093377Y-79019844D01*
X93068450Y-78977815D01*
X93023749Y-78967997D01*
X93012246Y-78968818D01*
X92958542Y-79000785D01*
X92904421Y-79089336D01*
X92840858Y-79248303D01*
X92800496Y-79355703D01*
X92749277Y-79463050D01*
X92700736Y-79515041D01*
X92642915Y-79528608D01*
X92582185Y-79524090D01*
X92545501Y-79508031D01*
X92545617Y-79506767D01*
X92562048Y-79453193D01*
X92600848Y-79343078D01*
X92654258Y-79198512D01*
X92659881Y-79183404D01*
X92706286Y-79041082D01*
X92729799Y-78934194D01*
X92725399Y-78884879D01*
X92665028Y-78822156D01*
X92609068Y-78685092D01*
X92591172Y-78519178D01*
X92598442Y-78465270D01*
X92764167Y-78465270D01*
X92774012Y-78590569D01*
X92847368Y-78709253D01*
X92925986Y-78766233D01*
X93019864Y-78795501D01*
X93058065Y-78790744D01*
X93089141Y-78759359D01*
X93102965Y-78681271D01*
X93106112Y-78536758D01*
X93106088Y-78496681D01*
X93102900Y-78370521D01*
X93087229Y-78305576D01*
X93049029Y-78281516D01*
X92978257Y-78278014D01*
X92906323Y-78289338D01*
X92810661Y-78356984D01*
X92764167Y-78465270D01*
X92598442Y-78465270D01*
X92613448Y-78354000D01*
X92678002Y-78219144D01*
X92713953Y-78177340D01*
X92779157Y-78131089D01*
X92872531Y-78110324D01*
X93022994Y-78105518D01*
X93278608Y-78105518D01*
X93278608Y-78536758D01*
X93278608Y-78817063D01*
G37*
G36*
X78868972Y-68040083D02*
G01*
X78962760Y-68063057D01*
X79086796Y-68130952D01*
X79219720Y-68256169D01*
X79294998Y-68341920D01*
X79365486Y-68433175D01*
X79392699Y-68484561D01*
X79369115Y-68523693D01*
X79294977Y-68602999D01*
X79187861Y-68700866D01*
X79146390Y-68735771D01*
X79025027Y-68823606D01*
X78920152Y-68865752D01*
X78799745Y-68876717D01*
X78698070Y-68873798D01*
X78630728Y-68853786D01*
X78638018Y-68804096D01*
X78713497Y-68712456D01*
X78810526Y-68607043D01*
X78336163Y-68637492D01*
X77774361Y-68695771D01*
X77093359Y-68833428D01*
X76461107Y-69041241D01*
X75878423Y-69318869D01*
X75346123Y-69665974D01*
X74865023Y-70082214D01*
X74588862Y-70379103D01*
X74211670Y-70878478D01*
X73898149Y-71417656D01*
X73650939Y-71987194D01*
X73472679Y-72577650D01*
X73366007Y-73179583D01*
X73333562Y-73783551D01*
X73377982Y-74380110D01*
X73501906Y-74959821D01*
X73600095Y-75298820D01*
X73445378Y-75360905D01*
X73388040Y-75383345D01*
X73323590Y-75398598D01*
X73277170Y-75380236D01*
X73238418Y-75315912D01*
X73196968Y-75193277D01*
X73142458Y-74999984D01*
X73043213Y-74537459D01*
X72988294Y-73951136D01*
X73001709Y-73343573D01*
X73082147Y-72730073D01*
X73228293Y-72125941D01*
X73438834Y-71546481D01*
X73484769Y-71442625D01*
X73804552Y-70835835D01*
X74184890Y-70289448D01*
X74623419Y-69805037D01*
X75117775Y-69384171D01*
X75665593Y-69028421D01*
X76264510Y-68739356D01*
X76912162Y-68518548D01*
X77606186Y-68367565D01*
X78344216Y-68287980D01*
X78834637Y-68259970D01*
X78739757Y-68158975D01*
X78685255Y-68093404D01*
X78672706Y-68041812D01*
X78732260Y-68025590D01*
X78868972Y-68040083D01*
G37*
G36*
X89052462Y-78817063D02*
G01*
X89052232Y-79020307D01*
X89050448Y-79226554D01*
X89045620Y-79367891D01*
X89036263Y-79456541D01*
X89020898Y-79504727D01*
X88998042Y-79524675D01*
X88966214Y-79528608D01*
X88921750Y-79521084D01*
X88894627Y-79484574D01*
X88882654Y-79399999D01*
X88879966Y-79248303D01*
X88879937Y-79219550D01*
X88876860Y-79080386D01*
X88863807Y-79005010D01*
X88833868Y-78974016D01*
X88780131Y-78967997D01*
X88736844Y-78973952D01*
X88687161Y-79010816D01*
X88639394Y-79096531D01*
X88581340Y-79248303D01*
X88530782Y-79383347D01*
X88483772Y-79475810D01*
X88436078Y-79518349D01*
X88374693Y-79528608D01*
X88351524Y-79528124D01*
X88291898Y-79509679D01*
X88296893Y-79453141D01*
X88317935Y-79399991D01*
X88395728Y-79200991D01*
X88445251Y-79063762D01*
X88469498Y-78973242D01*
X88471463Y-78914366D01*
X88454143Y-78872071D01*
X88420531Y-78831295D01*
X88389367Y-78784922D01*
X88346963Y-78643428D01*
X88340729Y-78518436D01*
X88521615Y-78518436D01*
X88540276Y-78646267D01*
X88600715Y-78736919D01*
X88663220Y-78769902D01*
X88780398Y-78795501D01*
X88833628Y-78789619D01*
X88864539Y-78757968D01*
X88877401Y-78680396D01*
X88879966Y-78536758D01*
X88879944Y-78501471D01*
X88876854Y-78373220D01*
X88861644Y-78306777D01*
X88824567Y-78281817D01*
X88755874Y-78278014D01*
X88658279Y-78295394D01*
X88576191Y-78344998D01*
X88547208Y-78393018D01*
X88521615Y-78518436D01*
X88340729Y-78518436D01*
X88338540Y-78474550D01*
X88363955Y-78313702D01*
X88423067Y-78196294D01*
X88442870Y-78176135D01*
X88512556Y-78132467D01*
X88615852Y-78111146D01*
X88778840Y-78105518D01*
X89052462Y-78105518D01*
X89052462Y-78536758D01*
X89052462Y-78817063D01*
G37*
G36*
X80066470Y-68508990D02*
G01*
X80149421Y-68523942D01*
X80395656Y-68586981D01*
X80676278Y-68678990D01*
X80962483Y-68790001D01*
X81225467Y-68910047D01*
X81479368Y-69046847D01*
X82020394Y-69405939D01*
X82518429Y-69831148D01*
X82965233Y-70312999D01*
X83352568Y-70842018D01*
X83672195Y-71408733D01*
X83915875Y-72003670D01*
X84008719Y-72312081D01*
X84138494Y-72961253D01*
X84184121Y-73620721D01*
X84145962Y-74286422D01*
X84024384Y-74954290D01*
X83819750Y-75620262D01*
X83532424Y-76280273D01*
X83286967Y-76770124D01*
X83435886Y-76742187D01*
X83438340Y-76741727D01*
X83533304Y-76728101D01*
X83561626Y-76743096D01*
X83540299Y-76795368D01*
X83516672Y-76837100D01*
X83419978Y-76969382D01*
X83304348Y-77048231D01*
X83137299Y-77098047D01*
X83001320Y-77126418D01*
X82887673Y-77144833D01*
X82825157Y-77141187D01*
X82795167Y-77113493D01*
X82779099Y-77059763D01*
X82744814Y-76907350D01*
X82712021Y-76747791D01*
X82697885Y-76639883D01*
X82701896Y-76564583D01*
X82723541Y-76502847D01*
X82762308Y-76435633D01*
X82793766Y-76387858D01*
X82864823Y-76309666D01*
X82911853Y-76305694D01*
X82928862Y-76378016D01*
X82934893Y-76446189D01*
X82966555Y-76480237D01*
X83025358Y-76432428D01*
X83111305Y-76302760D01*
X83224398Y-76091231D01*
X83294204Y-75947795D01*
X83553572Y-75307791D01*
X83728800Y-74667803D01*
X83819816Y-74030650D01*
X83826548Y-73399146D01*
X83748924Y-72776109D01*
X83586872Y-72164355D01*
X83340318Y-71566699D01*
X83256331Y-71404011D01*
X83119103Y-71161625D01*
X82976455Y-70931121D01*
X82848476Y-70746025D01*
X82713501Y-70576730D01*
X82458962Y-70292682D01*
X82179352Y-70014966D01*
X81897840Y-69766110D01*
X81637596Y-69568643D01*
X81636232Y-69567718D01*
X81314714Y-69369392D01*
X80965656Y-69188273D01*
X80612064Y-69034380D01*
X80276943Y-68917729D01*
X79983299Y-68848337D01*
X79932388Y-68838776D01*
X79852584Y-68806915D01*
X79843146Y-68759770D01*
X79857880Y-68698041D01*
X79867063Y-68588266D01*
X79868563Y-68542846D01*
X79887207Y-68502089D01*
X79945637Y-68493801D01*
X80066470Y-68508990D01*
G37*
G36*
X95822920Y-72499406D02*
G01*
X95822920Y-77027420D01*
X95521052Y-77027420D01*
X95219185Y-77027420D01*
X95219185Y-75043718D01*
X95219185Y-73060017D01*
X94750522Y-73060017D01*
X94281859Y-73060017D01*
X92998533Y-75065280D01*
X91715207Y-77070544D01*
X91354123Y-77070544D01*
X91291317Y-77070039D01*
X91138904Y-77063975D01*
X91032829Y-77052496D01*
X90993039Y-77037430D01*
X90999135Y-77017902D01*
X91040942Y-76940196D01*
X91109332Y-76833176D01*
X91159158Y-76758146D01*
X91249845Y-76619130D01*
X91372811Y-76429223D01*
X91522795Y-76196655D01*
X91694536Y-75929654D01*
X91882772Y-75636450D01*
X92082242Y-75325272D01*
X92287686Y-75004350D01*
X92493841Y-74681914D01*
X92695447Y-74366192D01*
X92887242Y-74065414D01*
X93063964Y-73787809D01*
X93220353Y-73541606D01*
X93351148Y-73335036D01*
X93451087Y-73176327D01*
X93514908Y-73073709D01*
X93537351Y-73035411D01*
X93513171Y-73023523D01*
X93434366Y-73016893D01*
X93421650Y-73016575D01*
X93289510Y-72996551D01*
X93104867Y-72950715D01*
X92891143Y-72886531D01*
X92671762Y-72811461D01*
X92470146Y-72732970D01*
X92309717Y-72658521D01*
X92181719Y-72582292D01*
X91934144Y-72394389D01*
X91696200Y-72167527D01*
X91491415Y-71925257D01*
X91343315Y-71691130D01*
X91323922Y-71651778D01*
X91165449Y-71229249D01*
X91086988Y-70796128D01*
X91085627Y-70454919D01*
X91693825Y-70454919D01*
X91710858Y-70837304D01*
X91811345Y-71217960D01*
X91838271Y-71283057D01*
X92006709Y-71563788D01*
X92244455Y-71821561D01*
X92538148Y-72045779D01*
X92874427Y-72225843D01*
X93239930Y-72351154D01*
X93359244Y-72374829D01*
X93609756Y-72404676D01*
X93945906Y-72427699D01*
X94367487Y-72443883D01*
X95219185Y-72467291D01*
X95219185Y-70521209D01*
X95219185Y-68575128D01*
X94432173Y-68575876D01*
X94271468Y-68576832D01*
X93850469Y-68590004D01*
X93497630Y-68621463D01*
X93200235Y-68674829D01*
X92945569Y-68753720D01*
X92720915Y-68861758D01*
X92513557Y-69002562D01*
X92310779Y-69179752D01*
X92121942Y-69385177D01*
X91901518Y-69720077D01*
X91758096Y-70079584D01*
X91693825Y-70454919D01*
X91085627Y-70454919D01*
X91085257Y-70362077D01*
X91156974Y-69936757D01*
X91298855Y-69529833D01*
X91507618Y-69150965D01*
X91779982Y-68809817D01*
X92112662Y-68516052D01*
X92502377Y-68279331D01*
X92658649Y-68205340D01*
X92824884Y-68136284D01*
X92989597Y-68082219D01*
X93165321Y-68041351D01*
X93364591Y-68011884D01*
X93599939Y-67992024D01*
X93883899Y-67979977D01*
X94229006Y-67973948D01*
X94647793Y-67972141D01*
X95822920Y-67971393D01*
X95822920Y-68575128D01*
X95822920Y-72499406D01*
G37*
G36*
X87850198Y-67979398D02*
G01*
X87969154Y-67983921D01*
X88157650Y-67994620D01*
X88297622Y-68011916D01*
X88414295Y-68041236D01*
X88532899Y-68088010D01*
X88678661Y-68157666D01*
X89010084Y-68362081D01*
X89334299Y-68658329D01*
X89620473Y-69030944D01*
X89868206Y-69479192D01*
X90077096Y-70002336D01*
X90246743Y-70599642D01*
X90376744Y-71270374D01*
X90385779Y-71332383D01*
X90418581Y-71649477D01*
X90439786Y-72019614D01*
X90449425Y-72419703D01*
X90447534Y-72826656D01*
X90434144Y-73217384D01*
X90409289Y-73568798D01*
X90373003Y-73857810D01*
X90368916Y-73881966D01*
X90232564Y-74533571D01*
X90058099Y-75115124D01*
X89846494Y-75625151D01*
X89598721Y-76062178D01*
X89315752Y-76424734D01*
X88998561Y-76711343D01*
X88648119Y-76920534D01*
X88265400Y-77050831D01*
X88194252Y-77065286D01*
X87824502Y-77096388D01*
X87428027Y-77067018D01*
X87028520Y-76981884D01*
X86649674Y-76845696D01*
X86315182Y-76663164D01*
X86033786Y-76474467D01*
X86033786Y-76750943D01*
X86033786Y-77027420D01*
X85710356Y-77027420D01*
X85386927Y-77027420D01*
X85386927Y-74741851D01*
X85386927Y-72456282D01*
X86572835Y-72456282D01*
X87758743Y-72456282D01*
X87758743Y-72758150D01*
X87758743Y-73060017D01*
X86896265Y-73060017D01*
X86033786Y-73060017D01*
X86033786Y-74237483D01*
X86033786Y-75414948D01*
X86156560Y-75606668D01*
X86363999Y-75874544D01*
X86657344Y-76128431D01*
X86998355Y-76314126D01*
X87380095Y-76427990D01*
X87795629Y-76466387D01*
X87815214Y-76466316D01*
X88023876Y-76456203D01*
X88188463Y-76424065D01*
X88346935Y-76362768D01*
X88568945Y-76234562D01*
X88848549Y-75991616D01*
X89097434Y-75675823D01*
X89313577Y-75292384D01*
X89494957Y-74846500D01*
X89639550Y-74343372D01*
X89745334Y-73788200D01*
X89810288Y-73186186D01*
X89832389Y-72542530D01*
X89822755Y-72122891D01*
X89774745Y-71532648D01*
X89688615Y-70979497D01*
X89566796Y-70469326D01*
X89411717Y-70008024D01*
X89225808Y-69601480D01*
X89011498Y-69255581D01*
X88771218Y-68976217D01*
X88507396Y-68769277D01*
X88222462Y-68640648D01*
X87889065Y-68576100D01*
X87507239Y-68579096D01*
X87131231Y-68658098D01*
X86774231Y-68808815D01*
X86449432Y-69026958D01*
X86170023Y-69308235D01*
X86164318Y-69315263D01*
X86065127Y-69433470D01*
X85985947Y-69520878D01*
X85943464Y-69559014D01*
X85894565Y-69545353D01*
X85795060Y-69494707D01*
X85667565Y-69418118D01*
X85426053Y-69263624D01*
X85503519Y-69128015D01*
X85626692Y-68954219D01*
X85814227Y-68751756D01*
X86037651Y-68551707D01*
X86274887Y-68373724D01*
X86503861Y-68237459D01*
X86748802Y-68125300D01*
X86988707Y-68043976D01*
X87234909Y-67995873D01*
X87513407Y-67976008D01*
X87850198Y-67979398D01*
G37*
G36*
X78433192Y-70257122D02*
G01*
X78902582Y-70257171D01*
X79449499Y-70257386D01*
X79920681Y-70257915D01*
X80322101Y-70258910D01*
X80659737Y-70260523D01*
X80939564Y-70262908D01*
X81167557Y-70266218D01*
X81349693Y-70270605D01*
X81491946Y-70276222D01*
X81600293Y-70283222D01*
X81680709Y-70291757D01*
X81739170Y-70301982D01*
X81781651Y-70314048D01*
X81814129Y-70328108D01*
X81842578Y-70344315D01*
X81878778Y-70368771D01*
X82009780Y-70514216D01*
X82085967Y-70700127D01*
X82107341Y-70905092D01*
X82073900Y-71107700D01*
X81985646Y-71286540D01*
X81842578Y-71420202D01*
X81838161Y-71422879D01*
X81808342Y-71439345D01*
X81773425Y-71453517D01*
X81727166Y-71465567D01*
X81663325Y-71475669D01*
X81575659Y-71483993D01*
X81457925Y-71490713D01*
X81303881Y-71496001D01*
X81107285Y-71500029D01*
X80861895Y-71502970D01*
X80561468Y-71504996D01*
X80199762Y-71506278D01*
X79770536Y-71506991D01*
X79267546Y-71507305D01*
X78684550Y-71507394D01*
X78620460Y-71507399D01*
X78042575Y-71507596D01*
X77544284Y-71508165D01*
X77119552Y-71509247D01*
X76762344Y-71510980D01*
X76466627Y-71513504D01*
X76226366Y-71516960D01*
X76035525Y-71521485D01*
X75888072Y-71527220D01*
X75777972Y-71534305D01*
X75699190Y-71542878D01*
X75645691Y-71553079D01*
X75611442Y-71565049D01*
X75590407Y-71578925D01*
X75528474Y-71671885D01*
X75518910Y-71799846D01*
X75579311Y-71914153D01*
X75594299Y-71924798D01*
X75626957Y-71936545D01*
X75680535Y-71946591D01*
X75760971Y-71955063D01*
X75874205Y-71962094D01*
X76026175Y-71967814D01*
X76222821Y-71972352D01*
X76470081Y-71975840D01*
X76773894Y-71978407D01*
X77140199Y-71980184D01*
X77574934Y-71981302D01*
X78084040Y-71981890D01*
X78673454Y-71982080D01*
X79147737Y-71982157D01*
X79668354Y-71982480D01*
X80113884Y-71983205D01*
X80490526Y-71984491D01*
X80804484Y-71986497D01*
X81061961Y-71989382D01*
X81269156Y-71993305D01*
X81432274Y-71998427D01*
X81557515Y-72004906D01*
X81651083Y-72012901D01*
X81719178Y-72022573D01*
X81768004Y-72034080D01*
X81803761Y-72047581D01*
X81832653Y-72063237D01*
X81975766Y-72192656D01*
X82070713Y-72373116D01*
X82108006Y-72578840D01*
X82086987Y-72789315D01*
X82006996Y-72984025D01*
X81867372Y-73142458D01*
X81858159Y-73149616D01*
X81834084Y-73166023D01*
X81804007Y-73180109D01*
X81761755Y-73192050D01*
X81701157Y-73202024D01*
X81616038Y-73210207D01*
X81500226Y-73216777D01*
X81347549Y-73221912D01*
X81151833Y-73225787D01*
X80906907Y-73228580D01*
X80606596Y-73230468D01*
X80244729Y-73231628D01*
X79815132Y-73232238D01*
X79311632Y-73232474D01*
X78728058Y-73232513D01*
X78335600Y-73232581D01*
X77797674Y-73233013D01*
X77336142Y-73233953D01*
X76945025Y-73235531D01*
X76618348Y-73237875D01*
X76350130Y-73241114D01*
X76134396Y-73245377D01*
X75965168Y-73250791D01*
X75836467Y-73257486D01*
X75742316Y-73265591D01*
X75676738Y-73275233D01*
X75633754Y-73286541D01*
X75607388Y-73299644D01*
X75549888Y-73356029D01*
X75513776Y-73477915D01*
X75556186Y-73623464D01*
X75557411Y-73625709D01*
X75568780Y-73641498D01*
X75588052Y-73655095D01*
X75621255Y-73666664D01*
X75674414Y-73676369D01*
X75753556Y-73684374D01*
X75864708Y-73690841D01*
X76013895Y-73695935D01*
X76207145Y-73699819D01*
X76450484Y-73702657D01*
X76749938Y-73704612D01*
X77111534Y-73705848D01*
X77541299Y-73706528D01*
X78045259Y-73706817D01*
X78629439Y-73706876D01*
X78999427Y-73706911D01*
X79535612Y-73707180D01*
X79995594Y-73707848D01*
X80385591Y-73709069D01*
X80711825Y-73710999D01*
X80980516Y-73713790D01*
X81197885Y-73717597D01*
X81370153Y-73722576D01*
X81503540Y-73728879D01*
X81604266Y-73736662D01*
X81678553Y-73746079D01*
X81732621Y-73757283D01*
X81772690Y-73770431D01*
X81804981Y-73785675D01*
X81816301Y-73791925D01*
X81971391Y-73924979D01*
X82069366Y-74102791D01*
X82109088Y-74305649D01*
X82089421Y-74513846D01*
X82009228Y-74707671D01*
X81867372Y-74867415D01*
X81858159Y-74874573D01*
X81834084Y-74890981D01*
X81804007Y-74905066D01*
X81761755Y-74917007D01*
X81701157Y-74926981D01*
X81616038Y-74935165D01*
X81500226Y-74941735D01*
X81347549Y-74946869D01*
X81151833Y-74950744D01*
X80906907Y-74953537D01*
X80606596Y-74955425D01*
X80244729Y-74956586D01*
X79815132Y-74957195D01*
X79311632Y-74957431D01*
X78728058Y-74957471D01*
X78235840Y-74957575D01*
X77713033Y-74958054D01*
X77265487Y-74959045D01*
X76887182Y-74960681D01*
X76572098Y-74963094D01*
X76314214Y-74966417D01*
X76107511Y-74970783D01*
X75945969Y-74976323D01*
X75823567Y-74983172D01*
X75734286Y-74991461D01*
X75672105Y-75001324D01*
X75631005Y-75012892D01*
X75604965Y-75026299D01*
X75542614Y-75095585D01*
X75514595Y-75213974D01*
X75548319Y-75332377D01*
X75640917Y-75419434D01*
X75662393Y-75426574D01*
X75726390Y-75436719D01*
X75831392Y-75445434D01*
X75982426Y-75452807D01*
X76184518Y-75458929D01*
X76442697Y-75463886D01*
X76761987Y-75467768D01*
X77147417Y-75470665D01*
X77604012Y-75472663D01*
X78136799Y-75473853D01*
X78750806Y-75474322D01*
X78955356Y-75474368D01*
X79509003Y-75474572D01*
X79984682Y-75475020D01*
X80388591Y-75475891D01*
X80726928Y-75477366D01*
X81005891Y-75479626D01*
X81231677Y-75482850D01*
X81410485Y-75487219D01*
X81548512Y-75492914D01*
X81651957Y-75500114D01*
X81727018Y-75509000D01*
X81779891Y-75519753D01*
X81816776Y-75532552D01*
X81843870Y-75547579D01*
X81867372Y-75565013D01*
X81982452Y-75686482D01*
X82075034Y-75875751D01*
X82108675Y-76085331D01*
X82083561Y-76294227D01*
X81999883Y-76481447D01*
X81857830Y-76625998D01*
X81841785Y-76635868D01*
X81810569Y-76649588D01*
X81766444Y-76661411D01*
X81703298Y-76671508D01*
X81615020Y-76680051D01*
X81495498Y-76687213D01*
X81338620Y-76693164D01*
X81138275Y-76698079D01*
X80888352Y-76702127D01*
X80582739Y-76705481D01*
X80215324Y-76708314D01*
X79779996Y-76710797D01*
X79270643Y-76713103D01*
X78681154Y-76715403D01*
X78488664Y-76716131D01*
X77923848Y-76718452D01*
X77437487Y-76720864D01*
X77023637Y-76723528D01*
X76676353Y-76726603D01*
X76389692Y-76730248D01*
X76157708Y-76734623D01*
X75974456Y-76739888D01*
X75833994Y-76746203D01*
X75730375Y-76753727D01*
X75657656Y-76762620D01*
X75609891Y-76773042D01*
X75581138Y-76785153D01*
X75565450Y-76799112D01*
X75518537Y-76902970D01*
X75528157Y-77030890D01*
X75607388Y-77132784D01*
X75620766Y-77138746D01*
X75647718Y-77144866D01*
X75690268Y-77150569D01*
X75751243Y-77155869D01*
X75833468Y-77160781D01*
X75939771Y-77165320D01*
X76072976Y-77169500D01*
X76235910Y-77173334D01*
X76431399Y-77176839D01*
X76662268Y-77180028D01*
X76931343Y-77182915D01*
X77241452Y-77185515D01*
X77595418Y-77187843D01*
X77996069Y-77189913D01*
X78446231Y-77191740D01*
X78948729Y-77193337D01*
X79506389Y-77194719D01*
X80122037Y-77195902D01*
X80798500Y-77196898D01*
X81538602Y-77197723D01*
X82345171Y-77198392D01*
X83221032Y-77198917D01*
X84169011Y-77199315D01*
X85191934Y-77199599D01*
X86292627Y-77199785D01*
X87473916Y-77199885D01*
X88738627Y-77199915D01*
X101774024Y-77199915D01*
X101774024Y-77372411D01*
X101774024Y-77544907D01*
X92195229Y-77544907D01*
X91960477Y-77544909D01*
X90901730Y-77544966D01*
X89925289Y-77545124D01*
X89027903Y-77545403D01*
X88206317Y-77545828D01*
X87457281Y-77546421D01*
X86777539Y-77547204D01*
X86163840Y-77548202D01*
X85612931Y-77549437D01*
X85121558Y-77550931D01*
X84686469Y-77552708D01*
X84304411Y-77554791D01*
X83972131Y-77557202D01*
X83686377Y-77559964D01*
X83443894Y-77563100D01*
X83241431Y-77566634D01*
X83075734Y-77570587D01*
X82943551Y-77574984D01*
X82841628Y-77579846D01*
X82766713Y-77585197D01*
X82715553Y-77591060D01*
X82684894Y-77597457D01*
X82671485Y-77604412D01*
X82672072Y-77611946D01*
X82688298Y-77644908D01*
X82677897Y-77692323D01*
X82629202Y-77762335D01*
X82533759Y-77866810D01*
X82383118Y-78017616D01*
X81986461Y-78366008D01*
X81456618Y-78728862D01*
X80875654Y-79026988D01*
X80250168Y-79257087D01*
X79586757Y-79415860D01*
X79450093Y-79437502D01*
X78999136Y-79477249D01*
X78510445Y-79480299D01*
X78013511Y-79448214D01*
X77537820Y-79382554D01*
X77112863Y-79284882D01*
X76779834Y-79174240D01*
X76202423Y-78915024D01*
X75649890Y-78581510D01*
X75131089Y-78180889D01*
X74654876Y-77720351D01*
X74230107Y-77207085D01*
X73865635Y-76648282D01*
X73725018Y-76402510D01*
X73684879Y-76542469D01*
X73680958Y-76555690D01*
X73645876Y-76645624D01*
X73615840Y-76682428D01*
X73607899Y-76678783D01*
X73565879Y-76624638D01*
X73512485Y-76526290D01*
X73499223Y-76498132D01*
X73467942Y-76417042D01*
X73461801Y-76342329D01*
X73481959Y-76244748D01*
X73529575Y-76095051D01*
X73529661Y-76094795D01*
X73580024Y-75956343D01*
X73624101Y-75857608D01*
X73652358Y-75819949D01*
X73697905Y-75830362D01*
X73803804Y-75862092D01*
X73943440Y-75907701D01*
X74012689Y-75932033D01*
X74140277Y-75989183D01*
X74219234Y-76054464D01*
X74275243Y-76146346D01*
X74306970Y-76214356D01*
X74340764Y-76301356D01*
X74335726Y-76333929D01*
X74293293Y-76326406D01*
X74219828Y-76299025D01*
X74116770Y-76266874D01*
X74081003Y-76278753D01*
X74105040Y-76344546D01*
X74181397Y-76474135D01*
X74278418Y-76629344D01*
X74691595Y-77201571D01*
X75148183Y-77704023D01*
X75644825Y-78134680D01*
X76178163Y-78491521D01*
X76744840Y-78772526D01*
X77341500Y-78975675D01*
X77964784Y-79098946D01*
X78611336Y-79140319D01*
X78637026Y-79140249D01*
X79283227Y-79098215D01*
X79910589Y-78981084D01*
X80510103Y-78792284D01*
X81072760Y-78535249D01*
X81589551Y-78213407D01*
X82051467Y-77830192D01*
X82346689Y-77547775D01*
X78961460Y-77545705D01*
X78856016Y-77545634D01*
X78212090Y-77544833D01*
X77649144Y-77543406D01*
X77162607Y-77541278D01*
X76747908Y-77538378D01*
X76400478Y-77534634D01*
X76115745Y-77529972D01*
X75889140Y-77524320D01*
X75716091Y-77517606D01*
X75592028Y-77509758D01*
X75512380Y-77500702D01*
X75472578Y-77490366D01*
X75343502Y-77390772D01*
X75243313Y-77231442D01*
X75193526Y-77042940D01*
X75193795Y-76845342D01*
X75243772Y-76658723D01*
X75343110Y-76503159D01*
X75491462Y-76398725D01*
X75516386Y-76390451D01*
X75572792Y-76379335D01*
X75656884Y-76369813D01*
X75774519Y-76361771D01*
X75931553Y-76355091D01*
X76133842Y-76349659D01*
X76387242Y-76345358D01*
X76697609Y-76342073D01*
X77070798Y-76339688D01*
X77512667Y-76338087D01*
X78029070Y-76337155D01*
X78625864Y-76336776D01*
X78955705Y-76336511D01*
X79440719Y-76335397D01*
X79896157Y-76333494D01*
X80314935Y-76330879D01*
X80689968Y-76327625D01*
X81014173Y-76323809D01*
X81280465Y-76319507D01*
X81481762Y-76314793D01*
X81610978Y-76309743D01*
X81661031Y-76304433D01*
X81704672Y-76259406D01*
X81762459Y-76170337D01*
X81785223Y-76119866D01*
X81786560Y-76045465D01*
X81731931Y-75954717D01*
X81647423Y-75841511D01*
X78590265Y-75819949D01*
X78083577Y-75816164D01*
X77531717Y-75811377D01*
X77057032Y-75806354D01*
X76654506Y-75800971D01*
X76319125Y-75795108D01*
X76045875Y-75788641D01*
X75829741Y-75781447D01*
X75665709Y-75773405D01*
X75548764Y-75764393D01*
X75473892Y-75754287D01*
X75436078Y-75742965D01*
X75434353Y-75741975D01*
X75299671Y-75618275D01*
X75215141Y-75446391D01*
X75181640Y-75248694D01*
X75200046Y-75047551D01*
X75271238Y-74865333D01*
X75396094Y-74724408D01*
X75406396Y-74716882D01*
X75432112Y-74700536D01*
X75464198Y-74686421D01*
X75508798Y-74674321D01*
X75572057Y-74664019D01*
X75660119Y-74655301D01*
X75779129Y-74647951D01*
X75935230Y-74641752D01*
X76134567Y-74636489D01*
X76383284Y-74631946D01*
X76687526Y-74627908D01*
X77053437Y-74624158D01*
X77487161Y-74620480D01*
X77994842Y-74616659D01*
X78582624Y-74612479D01*
X81647423Y-74590917D01*
X81731931Y-74477712D01*
X81769653Y-74422527D01*
X81792323Y-74346256D01*
X81762459Y-74262092D01*
X81716155Y-74188204D01*
X81661031Y-74127995D01*
X81638828Y-74124580D01*
X81537732Y-74119340D01*
X81361991Y-74114348D01*
X81118702Y-74109687D01*
X80814966Y-74105437D01*
X80457881Y-74101680D01*
X80054546Y-74098498D01*
X79612060Y-74095972D01*
X79137522Y-74094185D01*
X78638030Y-74093218D01*
X78174563Y-74092508D01*
X77601588Y-74090805D01*
X77107681Y-74088201D01*
X76688668Y-74084624D01*
X76340377Y-74080002D01*
X76058635Y-74074261D01*
X75839266Y-74067329D01*
X75678099Y-74059132D01*
X75570960Y-74049597D01*
X75513674Y-74038653D01*
X75502959Y-74034780D01*
X75353156Y-73936992D01*
X75250623Y-73787261D01*
X75196089Y-73605089D01*
X75190287Y-73409980D01*
X75233948Y-73221438D01*
X75327801Y-73058964D01*
X75472578Y-72942062D01*
X75488043Y-72936541D01*
X75548633Y-72926354D01*
X75652129Y-72917576D01*
X75803345Y-72910126D01*
X76007099Y-72903919D01*
X76268204Y-72898873D01*
X76591477Y-72894906D01*
X76981734Y-72891933D01*
X77443789Y-72889873D01*
X77982458Y-72888642D01*
X78602557Y-72888157D01*
X81628884Y-72887522D01*
X81718262Y-72773896D01*
X81736123Y-72750552D01*
X81797568Y-72637022D01*
X81786568Y-72540284D01*
X81701790Y-72432760D01*
X81595941Y-72326910D01*
X78573163Y-72326910D01*
X78354445Y-72326917D01*
X77780187Y-72326879D01*
X77284190Y-72326412D01*
X76860526Y-72325074D01*
X76503264Y-72322427D01*
X76206478Y-72318030D01*
X75964236Y-72311443D01*
X75770612Y-72302226D01*
X75619675Y-72289938D01*
X75505498Y-72274140D01*
X75422150Y-72254391D01*
X75363705Y-72230251D01*
X75324232Y-72201280D01*
X75297802Y-72167038D01*
X75278488Y-72127086D01*
X75260360Y-72080981D01*
X75201735Y-71886996D01*
X75188116Y-71647284D01*
X75249939Y-71440853D01*
X75386296Y-71273522D01*
X75518162Y-71162564D01*
X78557051Y-71162564D01*
X81595941Y-71162564D01*
X81701790Y-71056714D01*
X81709130Y-71049210D01*
X81778946Y-70957800D01*
X81807640Y-70882258D01*
X81807386Y-70877247D01*
X81774069Y-70798679D01*
X81701790Y-70707802D01*
X81595941Y-70601953D01*
X78381247Y-70601953D01*
X75166553Y-70601953D01*
X75166553Y-70429457D01*
X75166553Y-70256961D01*
X78433192Y-70257122D01*
G37*
%TO.C,A1*%
X121510000Y-104080000D02*
X155800000Y-104080000D01*
X155800000Y-104080000D02*
X158340000Y-101540000D01*
X117700000Y-101540000D02*
X118970000Y-101540000D01*
X118970000Y-101540000D02*
X121510000Y-104080000D01*
X158340000Y-101540000D02*
X169516000Y-101540000D01*
X171040000Y-100016000D02*
X169516000Y-101540000D01*
X117700000Y-35500000D02*
X117700000Y-101540000D01*
X171040000Y-35500000D02*
X171040000Y-100016000D01*
X171040000Y-35500000D02*
X117700000Y-35500000D01*
%TD*%
%LPC*%
D11*
%TO.C,A1*%
X120240000Y-81220000D03*
X168500000Y-56836000D03*
X168500000Y-54296000D03*
X120240000Y-68520000D03*
X120240000Y-65980000D03*
D12*
X120240000Y-78680000D03*
X120240000Y-76140000D03*
X168500000Y-61916000D03*
D11*
X168500000Y-64456000D03*
X168500000Y-66996000D03*
X168500000Y-69536000D03*
X168500000Y-72076000D03*
X168500000Y-74616000D03*
X168500000Y-77156000D03*
X168500000Y-81220000D03*
X168500000Y-83760000D03*
X168500000Y-86300000D03*
X168500000Y-88840000D03*
X168500000Y-91380000D03*
X168500000Y-93920000D03*
X168500000Y-96460000D03*
X168500000Y-99000000D03*
X168500000Y-59376000D03*
X120240000Y-99000000D03*
X120240000Y-96460000D03*
X120240000Y-93920000D03*
X120240000Y-91380000D03*
X120240000Y-88840000D03*
X120240000Y-86300000D03*
X120240000Y-73600000D03*
X120240000Y-71060000D03*
X120240000Y-63440000D03*
%TD*%
D13*
%TO.C,RV1*%
X133460000Y-96905000D03*
X136000000Y-96905000D03*
X138540000Y-96905000D03*
%TD*%
D14*
%TO.C,J10*%
X155750000Y-87905000D03*
D15*
X158250000Y-87905000D03*
%TD*%
D14*
%TO.C,J9*%
X129500000Y-87905000D03*
D15*
X132000000Y-87905000D03*
%TD*%
D14*
%TO.C,J4*%
X141750000Y-67905000D03*
D15*
X144250000Y-67905000D03*
%TD*%
D16*
%TO.C,J6*%
X141750000Y-87905000D03*
D17*
X144250000Y-87905000D03*
X146750000Y-87905000D03*
%TD*%
D18*
%TO.C,C8*%
X66750000Y-86905000D03*
D19*
X66750000Y-81905000D03*
%TD*%
D14*
%TO.C,J14*%
X141750000Y-77905000D03*
D15*
X144250000Y-77905000D03*
%TD*%
D14*
%TO.C,J8*%
X129500000Y-77905000D03*
D15*
X132000000Y-77905000D03*
%TD*%
D18*
%TO.C,C10*%
X66750000Y-97905000D03*
D19*
X66750000Y-92905000D03*
%TD*%
D18*
%TO.C,C15*%
X110750000Y-59655000D03*
D19*
X110750000Y-64655000D03*
%TD*%
D18*
%TO.C,C6*%
X110750000Y-81655000D03*
D19*
X110750000Y-86655000D03*
%TD*%
D20*
%TO.C,Q3*%
X146460000Y-97000000D03*
D21*
X149000000Y-97000000D03*
X151540000Y-97000000D03*
%TD*%
D15*
%TO.C,J1*%
X132000000Y-58405000D03*
D14*
X129500000Y-58405000D03*
%TD*%
D18*
%TO.C,C5*%
X110750000Y-92655000D03*
D19*
X110750000Y-97655000D03*
%TD*%
D14*
%TO.C,J7*%
X129500000Y-67905000D03*
D15*
X132000000Y-67905000D03*
%TD*%
D18*
%TO.C,C12*%
X110750000Y-70655000D03*
D19*
X110750000Y-75655000D03*
%TD*%
D14*
%TO.C,J5*%
X153750000Y-77905000D03*
D15*
X156250000Y-77905000D03*
%TD*%
D14*
%TO.C,J15*%
X153750000Y-68405000D03*
D15*
X156250000Y-68405000D03*
%TD*%
D14*
%TO.C,J3*%
X141750000Y-58405000D03*
D15*
X144250000Y-58405000D03*
%TD*%
D18*
%TO.C,C11*%
X66750000Y-64905000D03*
D19*
X66750000Y-59905000D03*
%TD*%
D18*
%TO.C,C16*%
X66750000Y-75905000D03*
D19*
X66750000Y-70905000D03*
%TD*%
D14*
%TO.C,J2*%
X153750000Y-58405000D03*
D15*
X156250000Y-58405000D03*
%TD*%
%LPD*%
M02*
