%TF.GenerationSoftware,KiCad,Pcbnew,7.0.2*%
%TF.CreationDate,2024-04-17T14:17:51+02:00*%
%TF.ProjectId,Lights_Array_Board,4c696768-7473-45f4-9172-7261795f426f,rev?*%
%TF.SameCoordinates,Original*%
%TF.FileFunction,Drillmap*%
%TF.FilePolarity,Positive*%
%FSLAX45Y45*%
G04 Gerber Fmt 4.5, Leading zero omitted, Abs format (unit mm)*
G04 Created by KiCad (PCBNEW 7.0.2) date 2024-04-17 14:17:51*
%MOMM*%
%LPD*%
G01*
G04 APERTURE LIST*
%ADD10C,0.100000*%
%ADD11C,0.200000*%
%ADD12C,0.040000*%
%ADD13C,0.080000*%
%ADD14C,0.095000*%
%ADD15C,0.101600*%
G04 APERTURE END LIST*
D10*
X6100000Y-10200000D02*
X16900000Y-10200000D01*
X5850000Y-5350000D02*
X5850000Y-9950000D01*
X16900000Y-5100000D02*
X6100000Y-5100000D01*
X17150000Y-9950000D02*
X17150000Y-5350000D01*
X16900000Y-10200000D02*
G75*
G03*
X17150000Y-9950000I0J250000D01*
G01*
X17150000Y-5350000D02*
G75*
G03*
X16900000Y-5100000I-250000J0D01*
G01*
X6100000Y-5100000D02*
G75*
G03*
X5850000Y-5350000I0J-250000D01*
G01*
X5850000Y-9950000D02*
G75*
G03*
X6100000Y-10200000I250000J0D01*
G01*
D11*
D12*
X7530000Y-5430000D02*
X7570000Y-5470000D01*
X7570000Y-5430000D02*
X7530000Y-5470000D01*
X7705000Y-6755000D02*
X7745000Y-6795000D01*
X7745000Y-6755000D02*
X7705000Y-6795000D01*
X7705000Y-8480000D02*
X7745000Y-8520000D01*
X7745000Y-8480000D02*
X7705000Y-8520000D01*
X7880000Y-7430000D02*
X7920000Y-7470000D01*
X7920000Y-7430000D02*
X7880000Y-7470000D01*
X8105000Y-5605000D02*
X8145000Y-5645000D01*
X8145000Y-5605000D02*
X8105000Y-5645000D01*
X8105000Y-6330000D02*
X8145000Y-6370000D01*
X8145000Y-6330000D02*
X8105000Y-6370000D01*
X8107750Y-9492750D02*
X8147750Y-9532750D01*
X8147750Y-9492750D02*
X8107750Y-9532750D01*
X8180000Y-8480000D02*
X8220000Y-8520000D01*
X8220000Y-8480000D02*
X8180000Y-8520000D01*
X8255000Y-5305000D02*
X8295000Y-5345000D01*
X8295000Y-5305000D02*
X8255000Y-5345000D01*
X8355000Y-8455000D02*
X8395000Y-8495000D01*
X8395000Y-8455000D02*
X8355000Y-8495000D01*
X8500000Y-9800000D02*
X8540000Y-9840000D01*
X8540000Y-9800000D02*
X8500000Y-9840000D01*
X8605000Y-7430000D02*
X8645000Y-7470000D01*
X8645000Y-7430000D02*
X8605000Y-7470000D01*
X8980000Y-9805000D02*
X9020000Y-9845000D01*
X9020000Y-9805000D02*
X8980000Y-9845000D01*
X9005000Y-7880000D02*
X9045000Y-7920000D01*
X9045000Y-7880000D02*
X9005000Y-7920000D01*
X9105000Y-6130000D02*
X9145000Y-6170000D01*
X9145000Y-6130000D02*
X9105000Y-6170000D01*
X9250000Y-8140000D02*
X9290000Y-8180000D01*
X9290000Y-8140000D02*
X9250000Y-8180000D01*
X9480000Y-5705000D02*
X9520000Y-5745000D01*
X9520000Y-5705000D02*
X9480000Y-5745000D01*
X9480000Y-6830000D02*
X9520000Y-6870000D01*
X9520000Y-6830000D02*
X9480000Y-6870000D01*
X9905000Y-6230000D02*
X9945000Y-6270000D01*
X9945000Y-6230000D02*
X9905000Y-6270000D01*
X9905000Y-8405000D02*
X9945000Y-8445000D01*
X9945000Y-8405000D02*
X9905000Y-8445000D01*
X10205000Y-6805000D02*
X10245000Y-6845000D01*
X10245000Y-6805000D02*
X10205000Y-6845000D01*
X10205000Y-8905000D02*
X10245000Y-8945000D01*
X10245000Y-8905000D02*
X10205000Y-8945000D01*
X10230000Y-8380000D02*
X10270000Y-8420000D01*
X10270000Y-8380000D02*
X10230000Y-8420000D01*
X10455000Y-6730000D02*
X10495000Y-6770000D01*
X10495000Y-6730000D02*
X10455000Y-6770000D01*
X13755000Y-5180000D02*
X13795000Y-5220000D01*
X13795000Y-5180000D02*
X13755000Y-5220000D01*
X14030000Y-5305000D02*
X14070000Y-5345000D01*
X14070000Y-5305000D02*
X14030000Y-5345000D01*
X14305000Y-5430000D02*
X14345000Y-5470000D01*
X14345000Y-5430000D02*
X14305000Y-5470000D01*
X14730000Y-7380000D02*
X14770000Y-7420000D01*
X14770000Y-7380000D02*
X14730000Y-7420000D01*
X14855000Y-5555000D02*
X14895000Y-5595000D01*
X14895000Y-5555000D02*
X14855000Y-5595000D01*
D13*
X13386000Y-9690500D02*
G75*
G03*
X13386000Y-9690500I-40000J0D01*
G01*
X13640000Y-9690500D02*
G75*
G03*
X13640000Y-9690500I-40000J0D01*
G01*
X13894000Y-9690500D02*
G75*
G03*
X13894000Y-9690500I-40000J0D01*
G01*
X14686000Y-9700000D02*
G75*
G03*
X14686000Y-9700000I-40000J0D01*
G01*
X14940000Y-9700000D02*
G75*
G03*
X14940000Y-9700000I-40000J0D01*
G01*
X15194000Y-9700000D02*
G75*
G03*
X15194000Y-9700000I-40000J0D01*
G01*
D14*
X14175000Y-8743000D02*
X14175000Y-8838000D01*
X14127500Y-8790500D02*
X14222500Y-8790500D01*
X14425000Y-8743000D02*
X14425000Y-8838000D01*
X14377500Y-8790500D02*
X14472500Y-8790500D01*
X14675000Y-8743000D02*
X14675000Y-8838000D01*
X14627500Y-8790500D02*
X14722500Y-8790500D01*
D10*
X6710356Y-6025856D02*
X6710356Y-5955144D01*
X6639644Y-5955144D01*
X6639644Y-6025856D01*
X6710356Y-6025856D01*
X6710356Y-6525856D02*
X6710356Y-6455144D01*
X6639644Y-6455144D01*
X6639644Y-6525856D01*
X6710356Y-6525856D01*
X6710356Y-7125856D02*
X6710356Y-7055144D01*
X6639644Y-7055144D01*
X6639644Y-7125856D01*
X6710356Y-7125856D01*
X6710356Y-7625856D02*
X6710356Y-7555144D01*
X6639644Y-7555144D01*
X6639644Y-7625856D01*
X6710356Y-7625856D01*
X6710356Y-8225856D02*
X6710356Y-8155144D01*
X6639644Y-8155144D01*
X6639644Y-8225856D01*
X6710356Y-8225856D01*
X6710356Y-8725856D02*
X6710356Y-8655144D01*
X6639644Y-8655144D01*
X6639644Y-8725856D01*
X6710356Y-8725856D01*
X6710356Y-9325856D02*
X6710356Y-9255144D01*
X6639644Y-9255144D01*
X6639644Y-9325856D01*
X6710356Y-9325856D01*
X6710356Y-9825856D02*
X6710356Y-9755144D01*
X6639644Y-9755144D01*
X6639644Y-9825856D01*
X6710356Y-9825856D01*
X11110356Y-6000856D02*
X11110356Y-5930144D01*
X11039644Y-5930144D01*
X11039644Y-6000856D01*
X11110356Y-6000856D01*
X11110356Y-6500856D02*
X11110356Y-6430144D01*
X11039644Y-6430144D01*
X11039644Y-6500856D01*
X11110356Y-6500856D01*
X11110356Y-7100856D02*
X11110356Y-7030144D01*
X11039644Y-7030144D01*
X11039644Y-7100856D01*
X11110356Y-7100856D01*
X11110356Y-7600856D02*
X11110356Y-7530144D01*
X11039644Y-7530144D01*
X11039644Y-7600856D01*
X11110356Y-7600856D01*
X11110356Y-8200856D02*
X11110356Y-8130144D01*
X11039644Y-8130144D01*
X11039644Y-8200856D01*
X11110356Y-8200856D01*
X11110356Y-8700856D02*
X11110356Y-8630144D01*
X11039644Y-8630144D01*
X11039644Y-8700856D01*
X11110356Y-8700856D01*
X11110356Y-9300856D02*
X11110356Y-9230144D01*
X11039644Y-9230144D01*
X11039644Y-9300856D01*
X11110356Y-9300856D01*
X11110356Y-9800856D02*
X11110356Y-9730144D01*
X11039644Y-9730144D01*
X11039644Y-9800856D01*
X11110356Y-9800856D01*
X12985356Y-5875856D02*
X12985356Y-5805144D01*
X12914644Y-5805144D01*
X12914644Y-5875856D01*
X12985356Y-5875856D01*
X12985356Y-6825856D02*
X12985356Y-6755144D01*
X12914644Y-6755144D01*
X12914644Y-6825856D01*
X12985356Y-6825856D01*
X12985356Y-7825856D02*
X12985356Y-7755144D01*
X12914644Y-7755144D01*
X12914644Y-7825856D01*
X12985356Y-7825856D01*
X12985356Y-8825856D02*
X12985356Y-8755144D01*
X12914644Y-8755144D01*
X12914644Y-8825856D01*
X12985356Y-8825856D01*
X13235356Y-5875856D02*
X13235356Y-5805144D01*
X13164644Y-5805144D01*
X13164644Y-5875856D01*
X13235356Y-5875856D01*
X13235356Y-6825856D02*
X13235356Y-6755144D01*
X13164644Y-6755144D01*
X13164644Y-6825856D01*
X13235356Y-6825856D01*
X13235356Y-7825856D02*
X13235356Y-7755144D01*
X13164644Y-7755144D01*
X13164644Y-7825856D01*
X13235356Y-7825856D01*
X13235356Y-8825856D02*
X13235356Y-8755144D01*
X13164644Y-8755144D01*
X13164644Y-8825856D01*
X13235356Y-8825856D01*
X14210356Y-5875856D02*
X14210356Y-5805144D01*
X14139644Y-5805144D01*
X14139644Y-5875856D01*
X14210356Y-5875856D01*
X14210356Y-6825856D02*
X14210356Y-6755144D01*
X14139644Y-6755144D01*
X14139644Y-6825856D01*
X14210356Y-6825856D01*
X14210356Y-7825856D02*
X14210356Y-7755144D01*
X14139644Y-7755144D01*
X14139644Y-7825856D01*
X14210356Y-7825856D01*
X14460356Y-5875856D02*
X14460356Y-5805144D01*
X14389644Y-5805144D01*
X14389644Y-5875856D01*
X14460356Y-5875856D01*
X14460356Y-6825856D02*
X14460356Y-6755144D01*
X14389644Y-6755144D01*
X14389644Y-6825856D01*
X14460356Y-6825856D01*
X14460356Y-7825856D02*
X14460356Y-7755144D01*
X14389644Y-7755144D01*
X14389644Y-7825856D01*
X14460356Y-7825856D01*
X15410356Y-5875856D02*
X15410356Y-5805144D01*
X15339644Y-5805144D01*
X15339644Y-5875856D01*
X15410356Y-5875856D01*
X15410356Y-6875856D02*
X15410356Y-6805144D01*
X15339644Y-6805144D01*
X15339644Y-6875856D01*
X15410356Y-6875856D01*
X15410356Y-7825856D02*
X15410356Y-7755144D01*
X15339644Y-7755144D01*
X15339644Y-7825856D01*
X15410356Y-7825856D01*
X15610356Y-8825856D02*
X15610356Y-8755144D01*
X15539644Y-8755144D01*
X15539644Y-8825856D01*
X15610356Y-8825856D01*
X15660356Y-5875856D02*
X15660356Y-5805144D01*
X15589644Y-5805144D01*
X15589644Y-5875856D01*
X15660356Y-5875856D01*
X15660356Y-6875856D02*
X15660356Y-6805144D01*
X15589644Y-6805144D01*
X15589644Y-6875856D01*
X15660356Y-6875856D01*
X15660356Y-7825856D02*
X15660356Y-7755144D01*
X15589644Y-7755144D01*
X15589644Y-7825856D01*
X15660356Y-7825856D01*
X15860356Y-8825856D02*
X15860356Y-8755144D01*
X15789644Y-8755144D01*
X15789644Y-8825856D01*
X15860356Y-8825856D01*
D15*
X12024000Y-6394800D02*
X12074800Y-6344000D01*
X12024000Y-6293200D01*
X11973200Y-6344000D01*
X12024000Y-6394800D01*
X12024000Y-6648800D02*
X12074800Y-6598000D01*
X12024000Y-6547200D01*
X11973200Y-6598000D01*
X12024000Y-6648800D01*
X12024000Y-6902800D02*
X12074800Y-6852000D01*
X12024000Y-6801200D01*
X11973200Y-6852000D01*
X12024000Y-6902800D01*
X12024000Y-7156800D02*
X12074800Y-7106000D01*
X12024000Y-7055200D01*
X11973200Y-7106000D01*
X12024000Y-7156800D01*
X12024000Y-7410800D02*
X12074800Y-7360000D01*
X12024000Y-7309200D01*
X11973200Y-7360000D01*
X12024000Y-7410800D01*
X12024000Y-7664800D02*
X12074800Y-7614000D01*
X12024000Y-7563200D01*
X11973200Y-7614000D01*
X12024000Y-7664800D01*
X12024000Y-7918800D02*
X12074800Y-7868000D01*
X12024000Y-7817200D01*
X11973200Y-7868000D01*
X12024000Y-7918800D01*
X12024000Y-8172800D02*
X12074800Y-8122000D01*
X12024000Y-8071200D01*
X11973200Y-8122000D01*
X12024000Y-8172800D01*
X12024000Y-8680800D02*
X12074800Y-8630000D01*
X12024000Y-8579200D01*
X11973200Y-8630000D01*
X12024000Y-8680800D01*
X12024000Y-8934800D02*
X12074800Y-8884000D01*
X12024000Y-8833200D01*
X11973200Y-8884000D01*
X12024000Y-8934800D01*
X12024000Y-9188800D02*
X12074800Y-9138000D01*
X12024000Y-9087200D01*
X11973200Y-9138000D01*
X12024000Y-9188800D01*
X12024000Y-9442800D02*
X12074800Y-9392000D01*
X12024000Y-9341200D01*
X11973200Y-9392000D01*
X12024000Y-9442800D01*
X12024000Y-9696800D02*
X12074800Y-9646000D01*
X12024000Y-9595200D01*
X11973200Y-9646000D01*
X12024000Y-9696800D01*
X12024000Y-9950800D02*
X12074800Y-9900000D01*
X12024000Y-9849200D01*
X11973200Y-9900000D01*
X12024000Y-9950800D01*
X16850000Y-5480400D02*
X16900800Y-5429600D01*
X16850000Y-5378800D01*
X16799200Y-5429600D01*
X16850000Y-5480400D01*
X16850000Y-5734400D02*
X16900800Y-5683600D01*
X16850000Y-5632800D01*
X16799200Y-5683600D01*
X16850000Y-5734400D01*
X16850000Y-5988400D02*
X16900800Y-5937600D01*
X16850000Y-5886800D01*
X16799200Y-5937600D01*
X16850000Y-5988400D01*
X16850000Y-6242400D02*
X16900800Y-6191600D01*
X16850000Y-6140800D01*
X16799200Y-6191600D01*
X16850000Y-6242400D01*
X16850000Y-6496400D02*
X16900800Y-6445600D01*
X16850000Y-6394800D01*
X16799200Y-6445600D01*
X16850000Y-6496400D01*
X16850000Y-6750400D02*
X16900800Y-6699600D01*
X16850000Y-6648800D01*
X16799200Y-6699600D01*
X16850000Y-6750400D01*
X16850000Y-7004400D02*
X16900800Y-6953600D01*
X16850000Y-6902800D01*
X16799200Y-6953600D01*
X16850000Y-7004400D01*
X16850000Y-7258400D02*
X16900800Y-7207600D01*
X16850000Y-7156800D01*
X16799200Y-7207600D01*
X16850000Y-7258400D01*
X16850000Y-7512400D02*
X16900800Y-7461600D01*
X16850000Y-7410800D01*
X16799200Y-7461600D01*
X16850000Y-7512400D01*
X16850000Y-7766400D02*
X16900800Y-7715600D01*
X16850000Y-7664800D01*
X16799200Y-7715600D01*
X16850000Y-7766400D01*
X16850000Y-8172800D02*
X16900800Y-8122000D01*
X16850000Y-8071200D01*
X16799200Y-8122000D01*
X16850000Y-8172800D01*
X16850000Y-8426800D02*
X16900800Y-8376000D01*
X16850000Y-8325200D01*
X16799200Y-8376000D01*
X16850000Y-8426800D01*
X16850000Y-8680800D02*
X16900800Y-8630000D01*
X16850000Y-8579200D01*
X16799200Y-8630000D01*
X16850000Y-8680800D01*
X16850000Y-8934800D02*
X16900800Y-8884000D01*
X16850000Y-8833200D01*
X16799200Y-8884000D01*
X16850000Y-8934800D01*
X16850000Y-9188800D02*
X16900800Y-9138000D01*
X16850000Y-9087200D01*
X16799200Y-9138000D01*
X16850000Y-9188800D01*
X16850000Y-9442800D02*
X16900800Y-9392000D01*
X16850000Y-9341200D01*
X16799200Y-9392000D01*
X16850000Y-9442800D01*
X16850000Y-9696800D02*
X16900800Y-9646000D01*
X16850000Y-9595200D01*
X16799200Y-9646000D01*
X16850000Y-9696800D01*
X16850000Y-9950800D02*
X16900800Y-9900000D01*
X16850000Y-9849200D01*
X16799200Y-9900000D01*
X16850000Y-9950800D01*
D11*
X6092619Y-10517524D02*
X6092619Y-10317524D01*
X6092619Y-10317524D02*
X6140238Y-10317524D01*
X6140238Y-10317524D02*
X6168809Y-10327048D01*
X6168809Y-10327048D02*
X6187857Y-10346095D01*
X6187857Y-10346095D02*
X6197381Y-10365143D01*
X6197381Y-10365143D02*
X6206905Y-10403238D01*
X6206905Y-10403238D02*
X6206905Y-10431810D01*
X6206905Y-10431810D02*
X6197381Y-10469905D01*
X6197381Y-10469905D02*
X6187857Y-10488952D01*
X6187857Y-10488952D02*
X6168809Y-10508000D01*
X6168809Y-10508000D02*
X6140238Y-10517524D01*
X6140238Y-10517524D02*
X6092619Y-10517524D01*
X6292619Y-10517524D02*
X6292619Y-10384190D01*
X6292619Y-10422286D02*
X6302143Y-10403238D01*
X6302143Y-10403238D02*
X6311667Y-10393714D01*
X6311667Y-10393714D02*
X6330714Y-10384190D01*
X6330714Y-10384190D02*
X6349762Y-10384190D01*
X6416428Y-10517524D02*
X6416428Y-10384190D01*
X6416428Y-10317524D02*
X6406905Y-10327048D01*
X6406905Y-10327048D02*
X6416428Y-10336571D01*
X6416428Y-10336571D02*
X6425952Y-10327048D01*
X6425952Y-10327048D02*
X6416428Y-10317524D01*
X6416428Y-10317524D02*
X6416428Y-10336571D01*
X6540238Y-10517524D02*
X6521190Y-10508000D01*
X6521190Y-10508000D02*
X6511667Y-10488952D01*
X6511667Y-10488952D02*
X6511667Y-10317524D01*
X6645000Y-10517524D02*
X6625952Y-10508000D01*
X6625952Y-10508000D02*
X6616428Y-10488952D01*
X6616428Y-10488952D02*
X6616428Y-10317524D01*
X6873571Y-10517524D02*
X6873571Y-10317524D01*
X6873571Y-10317524D02*
X6940238Y-10460381D01*
X6940238Y-10460381D02*
X7006905Y-10317524D01*
X7006905Y-10317524D02*
X7006905Y-10517524D01*
X7187857Y-10517524D02*
X7187857Y-10412762D01*
X7187857Y-10412762D02*
X7178333Y-10393714D01*
X7178333Y-10393714D02*
X7159286Y-10384190D01*
X7159286Y-10384190D02*
X7121190Y-10384190D01*
X7121190Y-10384190D02*
X7102143Y-10393714D01*
X7187857Y-10508000D02*
X7168809Y-10517524D01*
X7168809Y-10517524D02*
X7121190Y-10517524D01*
X7121190Y-10517524D02*
X7102143Y-10508000D01*
X7102143Y-10508000D02*
X7092619Y-10488952D01*
X7092619Y-10488952D02*
X7092619Y-10469905D01*
X7092619Y-10469905D02*
X7102143Y-10450857D01*
X7102143Y-10450857D02*
X7121190Y-10441333D01*
X7121190Y-10441333D02*
X7168809Y-10441333D01*
X7168809Y-10441333D02*
X7187857Y-10431810D01*
X7283095Y-10384190D02*
X7283095Y-10584190D01*
X7283095Y-10393714D02*
X7302143Y-10384190D01*
X7302143Y-10384190D02*
X7340238Y-10384190D01*
X7340238Y-10384190D02*
X7359286Y-10393714D01*
X7359286Y-10393714D02*
X7368809Y-10403238D01*
X7368809Y-10403238D02*
X7378333Y-10422286D01*
X7378333Y-10422286D02*
X7378333Y-10479429D01*
X7378333Y-10479429D02*
X7368809Y-10498476D01*
X7368809Y-10498476D02*
X7359286Y-10508000D01*
X7359286Y-10508000D02*
X7340238Y-10517524D01*
X7340238Y-10517524D02*
X7302143Y-10517524D01*
X7302143Y-10517524D02*
X7283095Y-10508000D01*
X7464048Y-10498476D02*
X7473571Y-10508000D01*
X7473571Y-10508000D02*
X7464048Y-10517524D01*
X7464048Y-10517524D02*
X7454524Y-10508000D01*
X7454524Y-10508000D02*
X7464048Y-10498476D01*
X7464048Y-10498476D02*
X7464048Y-10517524D01*
X7464048Y-10393714D02*
X7473571Y-10403238D01*
X7473571Y-10403238D02*
X7464048Y-10412762D01*
X7464048Y-10412762D02*
X7454524Y-10403238D01*
X7454524Y-10403238D02*
X7464048Y-10393714D01*
X7464048Y-10393714D02*
X7464048Y-10412762D01*
D12*
X5805000Y-10825000D02*
X5845000Y-10865000D01*
X5845000Y-10825000D02*
X5805000Y-10865000D01*
D11*
X6130714Y-10737524D02*
X6149762Y-10737524D01*
X6149762Y-10737524D02*
X6168809Y-10747048D01*
X6168809Y-10747048D02*
X6178333Y-10756571D01*
X6178333Y-10756571D02*
X6187857Y-10775619D01*
X6187857Y-10775619D02*
X6197381Y-10813714D01*
X6197381Y-10813714D02*
X6197381Y-10861333D01*
X6197381Y-10861333D02*
X6187857Y-10899429D01*
X6187857Y-10899429D02*
X6178333Y-10918476D01*
X6178333Y-10918476D02*
X6168809Y-10928000D01*
X6168809Y-10928000D02*
X6149762Y-10937524D01*
X6149762Y-10937524D02*
X6130714Y-10937524D01*
X6130714Y-10937524D02*
X6111667Y-10928000D01*
X6111667Y-10928000D02*
X6102143Y-10918476D01*
X6102143Y-10918476D02*
X6092619Y-10899429D01*
X6092619Y-10899429D02*
X6083095Y-10861333D01*
X6083095Y-10861333D02*
X6083095Y-10813714D01*
X6083095Y-10813714D02*
X6092619Y-10775619D01*
X6092619Y-10775619D02*
X6102143Y-10756571D01*
X6102143Y-10756571D02*
X6111667Y-10747048D01*
X6111667Y-10747048D02*
X6130714Y-10737524D01*
X6283095Y-10918476D02*
X6292619Y-10928000D01*
X6292619Y-10928000D02*
X6283095Y-10937524D01*
X6283095Y-10937524D02*
X6273571Y-10928000D01*
X6273571Y-10928000D02*
X6283095Y-10918476D01*
X6283095Y-10918476D02*
X6283095Y-10937524D01*
X6464048Y-10804190D02*
X6464048Y-10937524D01*
X6416428Y-10728000D02*
X6368809Y-10870857D01*
X6368809Y-10870857D02*
X6492619Y-10870857D01*
X6606905Y-10737524D02*
X6625952Y-10737524D01*
X6625952Y-10737524D02*
X6645000Y-10747048D01*
X6645000Y-10747048D02*
X6654524Y-10756571D01*
X6654524Y-10756571D02*
X6664048Y-10775619D01*
X6664048Y-10775619D02*
X6673571Y-10813714D01*
X6673571Y-10813714D02*
X6673571Y-10861333D01*
X6673571Y-10861333D02*
X6664048Y-10899429D01*
X6664048Y-10899429D02*
X6654524Y-10918476D01*
X6654524Y-10918476D02*
X6645000Y-10928000D01*
X6645000Y-10928000D02*
X6625952Y-10937524D01*
X6625952Y-10937524D02*
X6606905Y-10937524D01*
X6606905Y-10937524D02*
X6587857Y-10928000D01*
X6587857Y-10928000D02*
X6578333Y-10918476D01*
X6578333Y-10918476D02*
X6568809Y-10899429D01*
X6568809Y-10899429D02*
X6559286Y-10861333D01*
X6559286Y-10861333D02*
X6559286Y-10813714D01*
X6559286Y-10813714D02*
X6568809Y-10775619D01*
X6568809Y-10775619D02*
X6578333Y-10756571D01*
X6578333Y-10756571D02*
X6587857Y-10747048D01*
X6587857Y-10747048D02*
X6606905Y-10737524D01*
X6797381Y-10737524D02*
X6816429Y-10737524D01*
X6816429Y-10737524D02*
X6835476Y-10747048D01*
X6835476Y-10747048D02*
X6845000Y-10756571D01*
X6845000Y-10756571D02*
X6854524Y-10775619D01*
X6854524Y-10775619D02*
X6864048Y-10813714D01*
X6864048Y-10813714D02*
X6864048Y-10861333D01*
X6864048Y-10861333D02*
X6854524Y-10899429D01*
X6854524Y-10899429D02*
X6845000Y-10918476D01*
X6845000Y-10918476D02*
X6835476Y-10928000D01*
X6835476Y-10928000D02*
X6816429Y-10937524D01*
X6816429Y-10937524D02*
X6797381Y-10937524D01*
X6797381Y-10937524D02*
X6778333Y-10928000D01*
X6778333Y-10928000D02*
X6768809Y-10918476D01*
X6768809Y-10918476D02*
X6759286Y-10899429D01*
X6759286Y-10899429D02*
X6749762Y-10861333D01*
X6749762Y-10861333D02*
X6749762Y-10813714D01*
X6749762Y-10813714D02*
X6759286Y-10775619D01*
X6759286Y-10775619D02*
X6768809Y-10756571D01*
X6768809Y-10756571D02*
X6778333Y-10747048D01*
X6778333Y-10747048D02*
X6797381Y-10737524D01*
X6949762Y-10937524D02*
X6949762Y-10804190D01*
X6949762Y-10823238D02*
X6959286Y-10813714D01*
X6959286Y-10813714D02*
X6978333Y-10804190D01*
X6978333Y-10804190D02*
X7006905Y-10804190D01*
X7006905Y-10804190D02*
X7025952Y-10813714D01*
X7025952Y-10813714D02*
X7035476Y-10832762D01*
X7035476Y-10832762D02*
X7035476Y-10937524D01*
X7035476Y-10832762D02*
X7045000Y-10813714D01*
X7045000Y-10813714D02*
X7064048Y-10804190D01*
X7064048Y-10804190D02*
X7092619Y-10804190D01*
X7092619Y-10804190D02*
X7111667Y-10813714D01*
X7111667Y-10813714D02*
X7121190Y-10832762D01*
X7121190Y-10832762D02*
X7121190Y-10937524D01*
X7216429Y-10937524D02*
X7216429Y-10804190D01*
X7216429Y-10823238D02*
X7225952Y-10813714D01*
X7225952Y-10813714D02*
X7245000Y-10804190D01*
X7245000Y-10804190D02*
X7273571Y-10804190D01*
X7273571Y-10804190D02*
X7292619Y-10813714D01*
X7292619Y-10813714D02*
X7302143Y-10832762D01*
X7302143Y-10832762D02*
X7302143Y-10937524D01*
X7302143Y-10832762D02*
X7311667Y-10813714D01*
X7311667Y-10813714D02*
X7330714Y-10804190D01*
X7330714Y-10804190D02*
X7359286Y-10804190D01*
X7359286Y-10804190D02*
X7378333Y-10813714D01*
X7378333Y-10813714D02*
X7387857Y-10832762D01*
X7387857Y-10832762D02*
X7387857Y-10937524D01*
X7778333Y-10728000D02*
X7606905Y-10985143D01*
X8035476Y-10737524D02*
X8054524Y-10737524D01*
X8054524Y-10737524D02*
X8073572Y-10747048D01*
X8073572Y-10747048D02*
X8083095Y-10756571D01*
X8083095Y-10756571D02*
X8092619Y-10775619D01*
X8092619Y-10775619D02*
X8102143Y-10813714D01*
X8102143Y-10813714D02*
X8102143Y-10861333D01*
X8102143Y-10861333D02*
X8092619Y-10899429D01*
X8092619Y-10899429D02*
X8083095Y-10918476D01*
X8083095Y-10918476D02*
X8073572Y-10928000D01*
X8073572Y-10928000D02*
X8054524Y-10937524D01*
X8054524Y-10937524D02*
X8035476Y-10937524D01*
X8035476Y-10937524D02*
X8016429Y-10928000D01*
X8016429Y-10928000D02*
X8006905Y-10918476D01*
X8006905Y-10918476D02*
X7997381Y-10899429D01*
X7997381Y-10899429D02*
X7987857Y-10861333D01*
X7987857Y-10861333D02*
X7987857Y-10813714D01*
X7987857Y-10813714D02*
X7997381Y-10775619D01*
X7997381Y-10775619D02*
X8006905Y-10756571D01*
X8006905Y-10756571D02*
X8016429Y-10747048D01*
X8016429Y-10747048D02*
X8035476Y-10737524D01*
X8187857Y-10918476D02*
X8197381Y-10928000D01*
X8197381Y-10928000D02*
X8187857Y-10937524D01*
X8187857Y-10937524D02*
X8178333Y-10928000D01*
X8178333Y-10928000D02*
X8187857Y-10918476D01*
X8187857Y-10918476D02*
X8187857Y-10937524D01*
X8321191Y-10737524D02*
X8340238Y-10737524D01*
X8340238Y-10737524D02*
X8359286Y-10747048D01*
X8359286Y-10747048D02*
X8368810Y-10756571D01*
X8368810Y-10756571D02*
X8378333Y-10775619D01*
X8378333Y-10775619D02*
X8387857Y-10813714D01*
X8387857Y-10813714D02*
X8387857Y-10861333D01*
X8387857Y-10861333D02*
X8378333Y-10899429D01*
X8378333Y-10899429D02*
X8368810Y-10918476D01*
X8368810Y-10918476D02*
X8359286Y-10928000D01*
X8359286Y-10928000D02*
X8340238Y-10937524D01*
X8340238Y-10937524D02*
X8321191Y-10937524D01*
X8321191Y-10937524D02*
X8302143Y-10928000D01*
X8302143Y-10928000D02*
X8292619Y-10918476D01*
X8292619Y-10918476D02*
X8283095Y-10899429D01*
X8283095Y-10899429D02*
X8273572Y-10861333D01*
X8273572Y-10861333D02*
X8273572Y-10813714D01*
X8273572Y-10813714D02*
X8283095Y-10775619D01*
X8283095Y-10775619D02*
X8292619Y-10756571D01*
X8292619Y-10756571D02*
X8302143Y-10747048D01*
X8302143Y-10747048D02*
X8321191Y-10737524D01*
X8578334Y-10937524D02*
X8464048Y-10937524D01*
X8521191Y-10937524D02*
X8521191Y-10737524D01*
X8521191Y-10737524D02*
X8502143Y-10766095D01*
X8502143Y-10766095D02*
X8483095Y-10785143D01*
X8483095Y-10785143D02*
X8464048Y-10794667D01*
X8759286Y-10737524D02*
X8664048Y-10737524D01*
X8664048Y-10737524D02*
X8654524Y-10832762D01*
X8654524Y-10832762D02*
X8664048Y-10823238D01*
X8664048Y-10823238D02*
X8683095Y-10813714D01*
X8683095Y-10813714D02*
X8730715Y-10813714D01*
X8730715Y-10813714D02*
X8749762Y-10823238D01*
X8749762Y-10823238D02*
X8759286Y-10832762D01*
X8759286Y-10832762D02*
X8768810Y-10851810D01*
X8768810Y-10851810D02*
X8768810Y-10899429D01*
X8768810Y-10899429D02*
X8759286Y-10918476D01*
X8759286Y-10918476D02*
X8749762Y-10928000D01*
X8749762Y-10928000D02*
X8730715Y-10937524D01*
X8730715Y-10937524D02*
X8683095Y-10937524D01*
X8683095Y-10937524D02*
X8664048Y-10928000D01*
X8664048Y-10928000D02*
X8654524Y-10918476D01*
X8835476Y-10737524D02*
X8968810Y-10737524D01*
X8968810Y-10737524D02*
X8883095Y-10937524D01*
X9035476Y-10737524D02*
X9035476Y-10775619D01*
X9111667Y-10737524D02*
X9111667Y-10775619D01*
X9406905Y-11013714D02*
X9397381Y-11004190D01*
X9397381Y-11004190D02*
X9378334Y-10975619D01*
X9378334Y-10975619D02*
X9368810Y-10956571D01*
X9368810Y-10956571D02*
X9359286Y-10928000D01*
X9359286Y-10928000D02*
X9349762Y-10880381D01*
X9349762Y-10880381D02*
X9349762Y-10842286D01*
X9349762Y-10842286D02*
X9359286Y-10794667D01*
X9359286Y-10794667D02*
X9368810Y-10766095D01*
X9368810Y-10766095D02*
X9378334Y-10747048D01*
X9378334Y-10747048D02*
X9397381Y-10718476D01*
X9397381Y-10718476D02*
X9406905Y-10708952D01*
X9473572Y-10756571D02*
X9483096Y-10747048D01*
X9483096Y-10747048D02*
X9502143Y-10737524D01*
X9502143Y-10737524D02*
X9549762Y-10737524D01*
X9549762Y-10737524D02*
X9568810Y-10747048D01*
X9568810Y-10747048D02*
X9578334Y-10756571D01*
X9578334Y-10756571D02*
X9587857Y-10775619D01*
X9587857Y-10775619D02*
X9587857Y-10794667D01*
X9587857Y-10794667D02*
X9578334Y-10823238D01*
X9578334Y-10823238D02*
X9464048Y-10937524D01*
X9464048Y-10937524D02*
X9587857Y-10937524D01*
X9683096Y-10937524D02*
X9721191Y-10937524D01*
X9721191Y-10937524D02*
X9740238Y-10928000D01*
X9740238Y-10928000D02*
X9749762Y-10918476D01*
X9749762Y-10918476D02*
X9768810Y-10889905D01*
X9768810Y-10889905D02*
X9778334Y-10851810D01*
X9778334Y-10851810D02*
X9778334Y-10775619D01*
X9778334Y-10775619D02*
X9768810Y-10756571D01*
X9768810Y-10756571D02*
X9759286Y-10747048D01*
X9759286Y-10747048D02*
X9740238Y-10737524D01*
X9740238Y-10737524D02*
X9702143Y-10737524D01*
X9702143Y-10737524D02*
X9683096Y-10747048D01*
X9683096Y-10747048D02*
X9673572Y-10756571D01*
X9673572Y-10756571D02*
X9664048Y-10775619D01*
X9664048Y-10775619D02*
X9664048Y-10823238D01*
X9664048Y-10823238D02*
X9673572Y-10842286D01*
X9673572Y-10842286D02*
X9683096Y-10851810D01*
X9683096Y-10851810D02*
X9702143Y-10861333D01*
X9702143Y-10861333D02*
X9740238Y-10861333D01*
X9740238Y-10861333D02*
X9759286Y-10851810D01*
X9759286Y-10851810D02*
X9768810Y-10842286D01*
X9768810Y-10842286D02*
X9778334Y-10823238D01*
X10016429Y-10937524D02*
X10016429Y-10737524D01*
X10102143Y-10937524D02*
X10102143Y-10832762D01*
X10102143Y-10832762D02*
X10092619Y-10813714D01*
X10092619Y-10813714D02*
X10073572Y-10804190D01*
X10073572Y-10804190D02*
X10045000Y-10804190D01*
X10045000Y-10804190D02*
X10025953Y-10813714D01*
X10025953Y-10813714D02*
X10016429Y-10823238D01*
X10225953Y-10937524D02*
X10206905Y-10928000D01*
X10206905Y-10928000D02*
X10197381Y-10918476D01*
X10197381Y-10918476D02*
X10187858Y-10899429D01*
X10187858Y-10899429D02*
X10187858Y-10842286D01*
X10187858Y-10842286D02*
X10197381Y-10823238D01*
X10197381Y-10823238D02*
X10206905Y-10813714D01*
X10206905Y-10813714D02*
X10225953Y-10804190D01*
X10225953Y-10804190D02*
X10254524Y-10804190D01*
X10254524Y-10804190D02*
X10273572Y-10813714D01*
X10273572Y-10813714D02*
X10283096Y-10823238D01*
X10283096Y-10823238D02*
X10292619Y-10842286D01*
X10292619Y-10842286D02*
X10292619Y-10899429D01*
X10292619Y-10899429D02*
X10283096Y-10918476D01*
X10283096Y-10918476D02*
X10273572Y-10928000D01*
X10273572Y-10928000D02*
X10254524Y-10937524D01*
X10254524Y-10937524D02*
X10225953Y-10937524D01*
X10406905Y-10937524D02*
X10387858Y-10928000D01*
X10387858Y-10928000D02*
X10378334Y-10908952D01*
X10378334Y-10908952D02*
X10378334Y-10737524D01*
X10559286Y-10928000D02*
X10540239Y-10937524D01*
X10540239Y-10937524D02*
X10502143Y-10937524D01*
X10502143Y-10937524D02*
X10483096Y-10928000D01*
X10483096Y-10928000D02*
X10473572Y-10908952D01*
X10473572Y-10908952D02*
X10473572Y-10832762D01*
X10473572Y-10832762D02*
X10483096Y-10813714D01*
X10483096Y-10813714D02*
X10502143Y-10804190D01*
X10502143Y-10804190D02*
X10540239Y-10804190D01*
X10540239Y-10804190D02*
X10559286Y-10813714D01*
X10559286Y-10813714D02*
X10568810Y-10832762D01*
X10568810Y-10832762D02*
X10568810Y-10851810D01*
X10568810Y-10851810D02*
X10473572Y-10870857D01*
X10645000Y-10928000D02*
X10664048Y-10937524D01*
X10664048Y-10937524D02*
X10702143Y-10937524D01*
X10702143Y-10937524D02*
X10721191Y-10928000D01*
X10721191Y-10928000D02*
X10730715Y-10908952D01*
X10730715Y-10908952D02*
X10730715Y-10899429D01*
X10730715Y-10899429D02*
X10721191Y-10880381D01*
X10721191Y-10880381D02*
X10702143Y-10870857D01*
X10702143Y-10870857D02*
X10673572Y-10870857D01*
X10673572Y-10870857D02*
X10654524Y-10861333D01*
X10654524Y-10861333D02*
X10645000Y-10842286D01*
X10645000Y-10842286D02*
X10645000Y-10832762D01*
X10645000Y-10832762D02*
X10654524Y-10813714D01*
X10654524Y-10813714D02*
X10673572Y-10804190D01*
X10673572Y-10804190D02*
X10702143Y-10804190D01*
X10702143Y-10804190D02*
X10721191Y-10813714D01*
X10797381Y-11013714D02*
X10806905Y-11004190D01*
X10806905Y-11004190D02*
X10825953Y-10975619D01*
X10825953Y-10975619D02*
X10835477Y-10956571D01*
X10835477Y-10956571D02*
X10845000Y-10928000D01*
X10845000Y-10928000D02*
X10854524Y-10880381D01*
X10854524Y-10880381D02*
X10854524Y-10842286D01*
X10854524Y-10842286D02*
X10845000Y-10794667D01*
X10845000Y-10794667D02*
X10835477Y-10766095D01*
X10835477Y-10766095D02*
X10825953Y-10747048D01*
X10825953Y-10747048D02*
X10806905Y-10718476D01*
X10806905Y-10718476D02*
X10797381Y-10708952D01*
D13*
X5845000Y-11109000D02*
G75*
G03*
X5845000Y-11109000I-40000J0D01*
G01*
D11*
X6130714Y-11001524D02*
X6149762Y-11001524D01*
X6149762Y-11001524D02*
X6168809Y-11011048D01*
X6168809Y-11011048D02*
X6178333Y-11020571D01*
X6178333Y-11020571D02*
X6187857Y-11039619D01*
X6187857Y-11039619D02*
X6197381Y-11077714D01*
X6197381Y-11077714D02*
X6197381Y-11125333D01*
X6197381Y-11125333D02*
X6187857Y-11163429D01*
X6187857Y-11163429D02*
X6178333Y-11182476D01*
X6178333Y-11182476D02*
X6168809Y-11192000D01*
X6168809Y-11192000D02*
X6149762Y-11201524D01*
X6149762Y-11201524D02*
X6130714Y-11201524D01*
X6130714Y-11201524D02*
X6111667Y-11192000D01*
X6111667Y-11192000D02*
X6102143Y-11182476D01*
X6102143Y-11182476D02*
X6092619Y-11163429D01*
X6092619Y-11163429D02*
X6083095Y-11125333D01*
X6083095Y-11125333D02*
X6083095Y-11077714D01*
X6083095Y-11077714D02*
X6092619Y-11039619D01*
X6092619Y-11039619D02*
X6102143Y-11020571D01*
X6102143Y-11020571D02*
X6111667Y-11011048D01*
X6111667Y-11011048D02*
X6130714Y-11001524D01*
X6283095Y-11182476D02*
X6292619Y-11192000D01*
X6292619Y-11192000D02*
X6283095Y-11201524D01*
X6283095Y-11201524D02*
X6273571Y-11192000D01*
X6273571Y-11192000D02*
X6283095Y-11182476D01*
X6283095Y-11182476D02*
X6283095Y-11201524D01*
X6406905Y-11087238D02*
X6387857Y-11077714D01*
X6387857Y-11077714D02*
X6378333Y-11068190D01*
X6378333Y-11068190D02*
X6368809Y-11049143D01*
X6368809Y-11049143D02*
X6368809Y-11039619D01*
X6368809Y-11039619D02*
X6378333Y-11020571D01*
X6378333Y-11020571D02*
X6387857Y-11011048D01*
X6387857Y-11011048D02*
X6406905Y-11001524D01*
X6406905Y-11001524D02*
X6445000Y-11001524D01*
X6445000Y-11001524D02*
X6464048Y-11011048D01*
X6464048Y-11011048D02*
X6473571Y-11020571D01*
X6473571Y-11020571D02*
X6483095Y-11039619D01*
X6483095Y-11039619D02*
X6483095Y-11049143D01*
X6483095Y-11049143D02*
X6473571Y-11068190D01*
X6473571Y-11068190D02*
X6464048Y-11077714D01*
X6464048Y-11077714D02*
X6445000Y-11087238D01*
X6445000Y-11087238D02*
X6406905Y-11087238D01*
X6406905Y-11087238D02*
X6387857Y-11096762D01*
X6387857Y-11096762D02*
X6378333Y-11106286D01*
X6378333Y-11106286D02*
X6368809Y-11125333D01*
X6368809Y-11125333D02*
X6368809Y-11163429D01*
X6368809Y-11163429D02*
X6378333Y-11182476D01*
X6378333Y-11182476D02*
X6387857Y-11192000D01*
X6387857Y-11192000D02*
X6406905Y-11201524D01*
X6406905Y-11201524D02*
X6445000Y-11201524D01*
X6445000Y-11201524D02*
X6464048Y-11192000D01*
X6464048Y-11192000D02*
X6473571Y-11182476D01*
X6473571Y-11182476D02*
X6483095Y-11163429D01*
X6483095Y-11163429D02*
X6483095Y-11125333D01*
X6483095Y-11125333D02*
X6473571Y-11106286D01*
X6473571Y-11106286D02*
X6464048Y-11096762D01*
X6464048Y-11096762D02*
X6445000Y-11087238D01*
X6606905Y-11001524D02*
X6625952Y-11001524D01*
X6625952Y-11001524D02*
X6645000Y-11011048D01*
X6645000Y-11011048D02*
X6654524Y-11020571D01*
X6654524Y-11020571D02*
X6664048Y-11039619D01*
X6664048Y-11039619D02*
X6673571Y-11077714D01*
X6673571Y-11077714D02*
X6673571Y-11125333D01*
X6673571Y-11125333D02*
X6664048Y-11163429D01*
X6664048Y-11163429D02*
X6654524Y-11182476D01*
X6654524Y-11182476D02*
X6645000Y-11192000D01*
X6645000Y-11192000D02*
X6625952Y-11201524D01*
X6625952Y-11201524D02*
X6606905Y-11201524D01*
X6606905Y-11201524D02*
X6587857Y-11192000D01*
X6587857Y-11192000D02*
X6578333Y-11182476D01*
X6578333Y-11182476D02*
X6568809Y-11163429D01*
X6568809Y-11163429D02*
X6559286Y-11125333D01*
X6559286Y-11125333D02*
X6559286Y-11077714D01*
X6559286Y-11077714D02*
X6568809Y-11039619D01*
X6568809Y-11039619D02*
X6578333Y-11020571D01*
X6578333Y-11020571D02*
X6587857Y-11011048D01*
X6587857Y-11011048D02*
X6606905Y-11001524D01*
X6797381Y-11001524D02*
X6816429Y-11001524D01*
X6816429Y-11001524D02*
X6835476Y-11011048D01*
X6835476Y-11011048D02*
X6845000Y-11020571D01*
X6845000Y-11020571D02*
X6854524Y-11039619D01*
X6854524Y-11039619D02*
X6864048Y-11077714D01*
X6864048Y-11077714D02*
X6864048Y-11125333D01*
X6864048Y-11125333D02*
X6854524Y-11163429D01*
X6854524Y-11163429D02*
X6845000Y-11182476D01*
X6845000Y-11182476D02*
X6835476Y-11192000D01*
X6835476Y-11192000D02*
X6816429Y-11201524D01*
X6816429Y-11201524D02*
X6797381Y-11201524D01*
X6797381Y-11201524D02*
X6778333Y-11192000D01*
X6778333Y-11192000D02*
X6768809Y-11182476D01*
X6768809Y-11182476D02*
X6759286Y-11163429D01*
X6759286Y-11163429D02*
X6749762Y-11125333D01*
X6749762Y-11125333D02*
X6749762Y-11077714D01*
X6749762Y-11077714D02*
X6759286Y-11039619D01*
X6759286Y-11039619D02*
X6768809Y-11020571D01*
X6768809Y-11020571D02*
X6778333Y-11011048D01*
X6778333Y-11011048D02*
X6797381Y-11001524D01*
X6949762Y-11201524D02*
X6949762Y-11068190D01*
X6949762Y-11087238D02*
X6959286Y-11077714D01*
X6959286Y-11077714D02*
X6978333Y-11068190D01*
X6978333Y-11068190D02*
X7006905Y-11068190D01*
X7006905Y-11068190D02*
X7025952Y-11077714D01*
X7025952Y-11077714D02*
X7035476Y-11096762D01*
X7035476Y-11096762D02*
X7035476Y-11201524D01*
X7035476Y-11096762D02*
X7045000Y-11077714D01*
X7045000Y-11077714D02*
X7064048Y-11068190D01*
X7064048Y-11068190D02*
X7092619Y-11068190D01*
X7092619Y-11068190D02*
X7111667Y-11077714D01*
X7111667Y-11077714D02*
X7121190Y-11096762D01*
X7121190Y-11096762D02*
X7121190Y-11201524D01*
X7216429Y-11201524D02*
X7216429Y-11068190D01*
X7216429Y-11087238D02*
X7225952Y-11077714D01*
X7225952Y-11077714D02*
X7245000Y-11068190D01*
X7245000Y-11068190D02*
X7273571Y-11068190D01*
X7273571Y-11068190D02*
X7292619Y-11077714D01*
X7292619Y-11077714D02*
X7302143Y-11096762D01*
X7302143Y-11096762D02*
X7302143Y-11201524D01*
X7302143Y-11096762D02*
X7311667Y-11077714D01*
X7311667Y-11077714D02*
X7330714Y-11068190D01*
X7330714Y-11068190D02*
X7359286Y-11068190D01*
X7359286Y-11068190D02*
X7378333Y-11077714D01*
X7378333Y-11077714D02*
X7387857Y-11096762D01*
X7387857Y-11096762D02*
X7387857Y-11201524D01*
X7778333Y-10992000D02*
X7606905Y-11249143D01*
X8035476Y-11001524D02*
X8054524Y-11001524D01*
X8054524Y-11001524D02*
X8073572Y-11011048D01*
X8073572Y-11011048D02*
X8083095Y-11020571D01*
X8083095Y-11020571D02*
X8092619Y-11039619D01*
X8092619Y-11039619D02*
X8102143Y-11077714D01*
X8102143Y-11077714D02*
X8102143Y-11125333D01*
X8102143Y-11125333D02*
X8092619Y-11163429D01*
X8092619Y-11163429D02*
X8083095Y-11182476D01*
X8083095Y-11182476D02*
X8073572Y-11192000D01*
X8073572Y-11192000D02*
X8054524Y-11201524D01*
X8054524Y-11201524D02*
X8035476Y-11201524D01*
X8035476Y-11201524D02*
X8016429Y-11192000D01*
X8016429Y-11192000D02*
X8006905Y-11182476D01*
X8006905Y-11182476D02*
X7997381Y-11163429D01*
X7997381Y-11163429D02*
X7987857Y-11125333D01*
X7987857Y-11125333D02*
X7987857Y-11077714D01*
X7987857Y-11077714D02*
X7997381Y-11039619D01*
X7997381Y-11039619D02*
X8006905Y-11020571D01*
X8006905Y-11020571D02*
X8016429Y-11011048D01*
X8016429Y-11011048D02*
X8035476Y-11001524D01*
X8187857Y-11182476D02*
X8197381Y-11192000D01*
X8197381Y-11192000D02*
X8187857Y-11201524D01*
X8187857Y-11201524D02*
X8178333Y-11192000D01*
X8178333Y-11192000D02*
X8187857Y-11182476D01*
X8187857Y-11182476D02*
X8187857Y-11201524D01*
X8321191Y-11001524D02*
X8340238Y-11001524D01*
X8340238Y-11001524D02*
X8359286Y-11011048D01*
X8359286Y-11011048D02*
X8368810Y-11020571D01*
X8368810Y-11020571D02*
X8378333Y-11039619D01*
X8378333Y-11039619D02*
X8387857Y-11077714D01*
X8387857Y-11077714D02*
X8387857Y-11125333D01*
X8387857Y-11125333D02*
X8378333Y-11163429D01*
X8378333Y-11163429D02*
X8368810Y-11182476D01*
X8368810Y-11182476D02*
X8359286Y-11192000D01*
X8359286Y-11192000D02*
X8340238Y-11201524D01*
X8340238Y-11201524D02*
X8321191Y-11201524D01*
X8321191Y-11201524D02*
X8302143Y-11192000D01*
X8302143Y-11192000D02*
X8292619Y-11182476D01*
X8292619Y-11182476D02*
X8283095Y-11163429D01*
X8283095Y-11163429D02*
X8273572Y-11125333D01*
X8273572Y-11125333D02*
X8273572Y-11077714D01*
X8273572Y-11077714D02*
X8283095Y-11039619D01*
X8283095Y-11039619D02*
X8292619Y-11020571D01*
X8292619Y-11020571D02*
X8302143Y-11011048D01*
X8302143Y-11011048D02*
X8321191Y-11001524D01*
X8454524Y-11001524D02*
X8578334Y-11001524D01*
X8578334Y-11001524D02*
X8511667Y-11077714D01*
X8511667Y-11077714D02*
X8540238Y-11077714D01*
X8540238Y-11077714D02*
X8559286Y-11087238D01*
X8559286Y-11087238D02*
X8568810Y-11096762D01*
X8568810Y-11096762D02*
X8578334Y-11115810D01*
X8578334Y-11115810D02*
X8578334Y-11163429D01*
X8578334Y-11163429D02*
X8568810Y-11182476D01*
X8568810Y-11182476D02*
X8559286Y-11192000D01*
X8559286Y-11192000D02*
X8540238Y-11201524D01*
X8540238Y-11201524D02*
X8483095Y-11201524D01*
X8483095Y-11201524D02*
X8464048Y-11192000D01*
X8464048Y-11192000D02*
X8454524Y-11182476D01*
X8768810Y-11201524D02*
X8654524Y-11201524D01*
X8711667Y-11201524D02*
X8711667Y-11001524D01*
X8711667Y-11001524D02*
X8692619Y-11030095D01*
X8692619Y-11030095D02*
X8673572Y-11049143D01*
X8673572Y-11049143D02*
X8654524Y-11058667D01*
X8949762Y-11001524D02*
X8854524Y-11001524D01*
X8854524Y-11001524D02*
X8845000Y-11096762D01*
X8845000Y-11096762D02*
X8854524Y-11087238D01*
X8854524Y-11087238D02*
X8873572Y-11077714D01*
X8873572Y-11077714D02*
X8921191Y-11077714D01*
X8921191Y-11077714D02*
X8940238Y-11087238D01*
X8940238Y-11087238D02*
X8949762Y-11096762D01*
X8949762Y-11096762D02*
X8959286Y-11115810D01*
X8959286Y-11115810D02*
X8959286Y-11163429D01*
X8959286Y-11163429D02*
X8949762Y-11182476D01*
X8949762Y-11182476D02*
X8940238Y-11192000D01*
X8940238Y-11192000D02*
X8921191Y-11201524D01*
X8921191Y-11201524D02*
X8873572Y-11201524D01*
X8873572Y-11201524D02*
X8854524Y-11192000D01*
X8854524Y-11192000D02*
X8845000Y-11182476D01*
X9035476Y-11001524D02*
X9035476Y-11039619D01*
X9111667Y-11001524D02*
X9111667Y-11039619D01*
X9406905Y-11277714D02*
X9397381Y-11268190D01*
X9397381Y-11268190D02*
X9378334Y-11239619D01*
X9378334Y-11239619D02*
X9368810Y-11220571D01*
X9368810Y-11220571D02*
X9359286Y-11192000D01*
X9359286Y-11192000D02*
X9349762Y-11144381D01*
X9349762Y-11144381D02*
X9349762Y-11106286D01*
X9349762Y-11106286D02*
X9359286Y-11058667D01*
X9359286Y-11058667D02*
X9368810Y-11030095D01*
X9368810Y-11030095D02*
X9378334Y-11011048D01*
X9378334Y-11011048D02*
X9397381Y-10982476D01*
X9397381Y-10982476D02*
X9406905Y-10972952D01*
X9568810Y-11001524D02*
X9530715Y-11001524D01*
X9530715Y-11001524D02*
X9511667Y-11011048D01*
X9511667Y-11011048D02*
X9502143Y-11020571D01*
X9502143Y-11020571D02*
X9483096Y-11049143D01*
X9483096Y-11049143D02*
X9473572Y-11087238D01*
X9473572Y-11087238D02*
X9473572Y-11163429D01*
X9473572Y-11163429D02*
X9483096Y-11182476D01*
X9483096Y-11182476D02*
X9492619Y-11192000D01*
X9492619Y-11192000D02*
X9511667Y-11201524D01*
X9511667Y-11201524D02*
X9549762Y-11201524D01*
X9549762Y-11201524D02*
X9568810Y-11192000D01*
X9568810Y-11192000D02*
X9578334Y-11182476D01*
X9578334Y-11182476D02*
X9587857Y-11163429D01*
X9587857Y-11163429D02*
X9587857Y-11115810D01*
X9587857Y-11115810D02*
X9578334Y-11096762D01*
X9578334Y-11096762D02*
X9568810Y-11087238D01*
X9568810Y-11087238D02*
X9549762Y-11077714D01*
X9549762Y-11077714D02*
X9511667Y-11077714D01*
X9511667Y-11077714D02*
X9492619Y-11087238D01*
X9492619Y-11087238D02*
X9483096Y-11096762D01*
X9483096Y-11096762D02*
X9473572Y-11115810D01*
X9825953Y-11201524D02*
X9825953Y-11001524D01*
X9911667Y-11201524D02*
X9911667Y-11096762D01*
X9911667Y-11096762D02*
X9902143Y-11077714D01*
X9902143Y-11077714D02*
X9883096Y-11068190D01*
X9883096Y-11068190D02*
X9854524Y-11068190D01*
X9854524Y-11068190D02*
X9835477Y-11077714D01*
X9835477Y-11077714D02*
X9825953Y-11087238D01*
X10035477Y-11201524D02*
X10016429Y-11192000D01*
X10016429Y-11192000D02*
X10006905Y-11182476D01*
X10006905Y-11182476D02*
X9997381Y-11163429D01*
X9997381Y-11163429D02*
X9997381Y-11106286D01*
X9997381Y-11106286D02*
X10006905Y-11087238D01*
X10006905Y-11087238D02*
X10016429Y-11077714D01*
X10016429Y-11077714D02*
X10035477Y-11068190D01*
X10035477Y-11068190D02*
X10064048Y-11068190D01*
X10064048Y-11068190D02*
X10083096Y-11077714D01*
X10083096Y-11077714D02*
X10092619Y-11087238D01*
X10092619Y-11087238D02*
X10102143Y-11106286D01*
X10102143Y-11106286D02*
X10102143Y-11163429D01*
X10102143Y-11163429D02*
X10092619Y-11182476D01*
X10092619Y-11182476D02*
X10083096Y-11192000D01*
X10083096Y-11192000D02*
X10064048Y-11201524D01*
X10064048Y-11201524D02*
X10035477Y-11201524D01*
X10216429Y-11201524D02*
X10197381Y-11192000D01*
X10197381Y-11192000D02*
X10187858Y-11172952D01*
X10187858Y-11172952D02*
X10187858Y-11001524D01*
X10368810Y-11192000D02*
X10349762Y-11201524D01*
X10349762Y-11201524D02*
X10311667Y-11201524D01*
X10311667Y-11201524D02*
X10292619Y-11192000D01*
X10292619Y-11192000D02*
X10283096Y-11172952D01*
X10283096Y-11172952D02*
X10283096Y-11096762D01*
X10283096Y-11096762D02*
X10292619Y-11077714D01*
X10292619Y-11077714D02*
X10311667Y-11068190D01*
X10311667Y-11068190D02*
X10349762Y-11068190D01*
X10349762Y-11068190D02*
X10368810Y-11077714D01*
X10368810Y-11077714D02*
X10378334Y-11096762D01*
X10378334Y-11096762D02*
X10378334Y-11115810D01*
X10378334Y-11115810D02*
X10283096Y-11134857D01*
X10454524Y-11192000D02*
X10473572Y-11201524D01*
X10473572Y-11201524D02*
X10511667Y-11201524D01*
X10511667Y-11201524D02*
X10530715Y-11192000D01*
X10530715Y-11192000D02*
X10540239Y-11172952D01*
X10540239Y-11172952D02*
X10540239Y-11163429D01*
X10540239Y-11163429D02*
X10530715Y-11144381D01*
X10530715Y-11144381D02*
X10511667Y-11134857D01*
X10511667Y-11134857D02*
X10483096Y-11134857D01*
X10483096Y-11134857D02*
X10464048Y-11125333D01*
X10464048Y-11125333D02*
X10454524Y-11106286D01*
X10454524Y-11106286D02*
X10454524Y-11096762D01*
X10454524Y-11096762D02*
X10464048Y-11077714D01*
X10464048Y-11077714D02*
X10483096Y-11068190D01*
X10483096Y-11068190D02*
X10511667Y-11068190D01*
X10511667Y-11068190D02*
X10530715Y-11077714D01*
X10606905Y-11277714D02*
X10616429Y-11268190D01*
X10616429Y-11268190D02*
X10635477Y-11239619D01*
X10635477Y-11239619D02*
X10645000Y-11220571D01*
X10645000Y-11220571D02*
X10654524Y-11192000D01*
X10654524Y-11192000D02*
X10664048Y-11144381D01*
X10664048Y-11144381D02*
X10664048Y-11106286D01*
X10664048Y-11106286D02*
X10654524Y-11058667D01*
X10654524Y-11058667D02*
X10645000Y-11030095D01*
X10645000Y-11030095D02*
X10635477Y-11011048D01*
X10635477Y-11011048D02*
X10616429Y-10982476D01*
X10616429Y-10982476D02*
X10606905Y-10972952D01*
D14*
X5797500Y-11325500D02*
X5797500Y-11420500D01*
X5750000Y-11373000D02*
X5845000Y-11373000D01*
D11*
X6130714Y-11265524D02*
X6149762Y-11265524D01*
X6149762Y-11265524D02*
X6168809Y-11275048D01*
X6168809Y-11275048D02*
X6178333Y-11284571D01*
X6178333Y-11284571D02*
X6187857Y-11303619D01*
X6187857Y-11303619D02*
X6197381Y-11341714D01*
X6197381Y-11341714D02*
X6197381Y-11389333D01*
X6197381Y-11389333D02*
X6187857Y-11427428D01*
X6187857Y-11427428D02*
X6178333Y-11446476D01*
X6178333Y-11446476D02*
X6168809Y-11456000D01*
X6168809Y-11456000D02*
X6149762Y-11465524D01*
X6149762Y-11465524D02*
X6130714Y-11465524D01*
X6130714Y-11465524D02*
X6111667Y-11456000D01*
X6111667Y-11456000D02*
X6102143Y-11446476D01*
X6102143Y-11446476D02*
X6092619Y-11427428D01*
X6092619Y-11427428D02*
X6083095Y-11389333D01*
X6083095Y-11389333D02*
X6083095Y-11341714D01*
X6083095Y-11341714D02*
X6092619Y-11303619D01*
X6092619Y-11303619D02*
X6102143Y-11284571D01*
X6102143Y-11284571D02*
X6111667Y-11275048D01*
X6111667Y-11275048D02*
X6130714Y-11265524D01*
X6283095Y-11446476D02*
X6292619Y-11456000D01*
X6292619Y-11456000D02*
X6283095Y-11465524D01*
X6283095Y-11465524D02*
X6273571Y-11456000D01*
X6273571Y-11456000D02*
X6283095Y-11446476D01*
X6283095Y-11446476D02*
X6283095Y-11465524D01*
X6387857Y-11465524D02*
X6425952Y-11465524D01*
X6425952Y-11465524D02*
X6445000Y-11456000D01*
X6445000Y-11456000D02*
X6454524Y-11446476D01*
X6454524Y-11446476D02*
X6473571Y-11417905D01*
X6473571Y-11417905D02*
X6483095Y-11379809D01*
X6483095Y-11379809D02*
X6483095Y-11303619D01*
X6483095Y-11303619D02*
X6473571Y-11284571D01*
X6473571Y-11284571D02*
X6464048Y-11275048D01*
X6464048Y-11275048D02*
X6445000Y-11265524D01*
X6445000Y-11265524D02*
X6406905Y-11265524D01*
X6406905Y-11265524D02*
X6387857Y-11275048D01*
X6387857Y-11275048D02*
X6378333Y-11284571D01*
X6378333Y-11284571D02*
X6368809Y-11303619D01*
X6368809Y-11303619D02*
X6368809Y-11351238D01*
X6368809Y-11351238D02*
X6378333Y-11370286D01*
X6378333Y-11370286D02*
X6387857Y-11379809D01*
X6387857Y-11379809D02*
X6406905Y-11389333D01*
X6406905Y-11389333D02*
X6445000Y-11389333D01*
X6445000Y-11389333D02*
X6464048Y-11379809D01*
X6464048Y-11379809D02*
X6473571Y-11370286D01*
X6473571Y-11370286D02*
X6483095Y-11351238D01*
X6664048Y-11265524D02*
X6568809Y-11265524D01*
X6568809Y-11265524D02*
X6559286Y-11360762D01*
X6559286Y-11360762D02*
X6568809Y-11351238D01*
X6568809Y-11351238D02*
X6587857Y-11341714D01*
X6587857Y-11341714D02*
X6635476Y-11341714D01*
X6635476Y-11341714D02*
X6654524Y-11351238D01*
X6654524Y-11351238D02*
X6664048Y-11360762D01*
X6664048Y-11360762D02*
X6673571Y-11379809D01*
X6673571Y-11379809D02*
X6673571Y-11427428D01*
X6673571Y-11427428D02*
X6664048Y-11446476D01*
X6664048Y-11446476D02*
X6654524Y-11456000D01*
X6654524Y-11456000D02*
X6635476Y-11465524D01*
X6635476Y-11465524D02*
X6587857Y-11465524D01*
X6587857Y-11465524D02*
X6568809Y-11456000D01*
X6568809Y-11456000D02*
X6559286Y-11446476D01*
X6797381Y-11265524D02*
X6816429Y-11265524D01*
X6816429Y-11265524D02*
X6835476Y-11275048D01*
X6835476Y-11275048D02*
X6845000Y-11284571D01*
X6845000Y-11284571D02*
X6854524Y-11303619D01*
X6854524Y-11303619D02*
X6864048Y-11341714D01*
X6864048Y-11341714D02*
X6864048Y-11389333D01*
X6864048Y-11389333D02*
X6854524Y-11427428D01*
X6854524Y-11427428D02*
X6845000Y-11446476D01*
X6845000Y-11446476D02*
X6835476Y-11456000D01*
X6835476Y-11456000D02*
X6816429Y-11465524D01*
X6816429Y-11465524D02*
X6797381Y-11465524D01*
X6797381Y-11465524D02*
X6778333Y-11456000D01*
X6778333Y-11456000D02*
X6768809Y-11446476D01*
X6768809Y-11446476D02*
X6759286Y-11427428D01*
X6759286Y-11427428D02*
X6749762Y-11389333D01*
X6749762Y-11389333D02*
X6749762Y-11341714D01*
X6749762Y-11341714D02*
X6759286Y-11303619D01*
X6759286Y-11303619D02*
X6768809Y-11284571D01*
X6768809Y-11284571D02*
X6778333Y-11275048D01*
X6778333Y-11275048D02*
X6797381Y-11265524D01*
X6949762Y-11465524D02*
X6949762Y-11332190D01*
X6949762Y-11351238D02*
X6959286Y-11341714D01*
X6959286Y-11341714D02*
X6978333Y-11332190D01*
X6978333Y-11332190D02*
X7006905Y-11332190D01*
X7006905Y-11332190D02*
X7025952Y-11341714D01*
X7025952Y-11341714D02*
X7035476Y-11360762D01*
X7035476Y-11360762D02*
X7035476Y-11465524D01*
X7035476Y-11360762D02*
X7045000Y-11341714D01*
X7045000Y-11341714D02*
X7064048Y-11332190D01*
X7064048Y-11332190D02*
X7092619Y-11332190D01*
X7092619Y-11332190D02*
X7111667Y-11341714D01*
X7111667Y-11341714D02*
X7121190Y-11360762D01*
X7121190Y-11360762D02*
X7121190Y-11465524D01*
X7216429Y-11465524D02*
X7216429Y-11332190D01*
X7216429Y-11351238D02*
X7225952Y-11341714D01*
X7225952Y-11341714D02*
X7245000Y-11332190D01*
X7245000Y-11332190D02*
X7273571Y-11332190D01*
X7273571Y-11332190D02*
X7292619Y-11341714D01*
X7292619Y-11341714D02*
X7302143Y-11360762D01*
X7302143Y-11360762D02*
X7302143Y-11465524D01*
X7302143Y-11360762D02*
X7311667Y-11341714D01*
X7311667Y-11341714D02*
X7330714Y-11332190D01*
X7330714Y-11332190D02*
X7359286Y-11332190D01*
X7359286Y-11332190D02*
X7378333Y-11341714D01*
X7378333Y-11341714D02*
X7387857Y-11360762D01*
X7387857Y-11360762D02*
X7387857Y-11465524D01*
X7778333Y-11256000D02*
X7606905Y-11513143D01*
X8035476Y-11265524D02*
X8054524Y-11265524D01*
X8054524Y-11265524D02*
X8073572Y-11275048D01*
X8073572Y-11275048D02*
X8083095Y-11284571D01*
X8083095Y-11284571D02*
X8092619Y-11303619D01*
X8092619Y-11303619D02*
X8102143Y-11341714D01*
X8102143Y-11341714D02*
X8102143Y-11389333D01*
X8102143Y-11389333D02*
X8092619Y-11427428D01*
X8092619Y-11427428D02*
X8083095Y-11446476D01*
X8083095Y-11446476D02*
X8073572Y-11456000D01*
X8073572Y-11456000D02*
X8054524Y-11465524D01*
X8054524Y-11465524D02*
X8035476Y-11465524D01*
X8035476Y-11465524D02*
X8016429Y-11456000D01*
X8016429Y-11456000D02*
X8006905Y-11446476D01*
X8006905Y-11446476D02*
X7997381Y-11427428D01*
X7997381Y-11427428D02*
X7987857Y-11389333D01*
X7987857Y-11389333D02*
X7987857Y-11341714D01*
X7987857Y-11341714D02*
X7997381Y-11303619D01*
X7997381Y-11303619D02*
X8006905Y-11284571D01*
X8006905Y-11284571D02*
X8016429Y-11275048D01*
X8016429Y-11275048D02*
X8035476Y-11265524D01*
X8187857Y-11446476D02*
X8197381Y-11456000D01*
X8197381Y-11456000D02*
X8187857Y-11465524D01*
X8187857Y-11465524D02*
X8178333Y-11456000D01*
X8178333Y-11456000D02*
X8187857Y-11446476D01*
X8187857Y-11446476D02*
X8187857Y-11465524D01*
X8321191Y-11265524D02*
X8340238Y-11265524D01*
X8340238Y-11265524D02*
X8359286Y-11275048D01*
X8359286Y-11275048D02*
X8368810Y-11284571D01*
X8368810Y-11284571D02*
X8378333Y-11303619D01*
X8378333Y-11303619D02*
X8387857Y-11341714D01*
X8387857Y-11341714D02*
X8387857Y-11389333D01*
X8387857Y-11389333D02*
X8378333Y-11427428D01*
X8378333Y-11427428D02*
X8368810Y-11446476D01*
X8368810Y-11446476D02*
X8359286Y-11456000D01*
X8359286Y-11456000D02*
X8340238Y-11465524D01*
X8340238Y-11465524D02*
X8321191Y-11465524D01*
X8321191Y-11465524D02*
X8302143Y-11456000D01*
X8302143Y-11456000D02*
X8292619Y-11446476D01*
X8292619Y-11446476D02*
X8283095Y-11427428D01*
X8283095Y-11427428D02*
X8273572Y-11389333D01*
X8273572Y-11389333D02*
X8273572Y-11341714D01*
X8273572Y-11341714D02*
X8283095Y-11303619D01*
X8283095Y-11303619D02*
X8292619Y-11284571D01*
X8292619Y-11284571D02*
X8302143Y-11275048D01*
X8302143Y-11275048D02*
X8321191Y-11265524D01*
X8454524Y-11265524D02*
X8578334Y-11265524D01*
X8578334Y-11265524D02*
X8511667Y-11341714D01*
X8511667Y-11341714D02*
X8540238Y-11341714D01*
X8540238Y-11341714D02*
X8559286Y-11351238D01*
X8559286Y-11351238D02*
X8568810Y-11360762D01*
X8568810Y-11360762D02*
X8578334Y-11379809D01*
X8578334Y-11379809D02*
X8578334Y-11427428D01*
X8578334Y-11427428D02*
X8568810Y-11446476D01*
X8568810Y-11446476D02*
X8559286Y-11456000D01*
X8559286Y-11456000D02*
X8540238Y-11465524D01*
X8540238Y-11465524D02*
X8483095Y-11465524D01*
X8483095Y-11465524D02*
X8464048Y-11456000D01*
X8464048Y-11456000D02*
X8454524Y-11446476D01*
X8645000Y-11265524D02*
X8778334Y-11265524D01*
X8778334Y-11265524D02*
X8692619Y-11465524D01*
X8940238Y-11332190D02*
X8940238Y-11465524D01*
X8892619Y-11256000D02*
X8845000Y-11398857D01*
X8845000Y-11398857D02*
X8968810Y-11398857D01*
X9035476Y-11265524D02*
X9035476Y-11303619D01*
X9111667Y-11265524D02*
X9111667Y-11303619D01*
X9406905Y-11541714D02*
X9397381Y-11532190D01*
X9397381Y-11532190D02*
X9378334Y-11503619D01*
X9378334Y-11503619D02*
X9368810Y-11484571D01*
X9368810Y-11484571D02*
X9359286Y-11456000D01*
X9359286Y-11456000D02*
X9349762Y-11408381D01*
X9349762Y-11408381D02*
X9349762Y-11370286D01*
X9349762Y-11370286D02*
X9359286Y-11322667D01*
X9359286Y-11322667D02*
X9368810Y-11294095D01*
X9368810Y-11294095D02*
X9378334Y-11275048D01*
X9378334Y-11275048D02*
X9397381Y-11246476D01*
X9397381Y-11246476D02*
X9406905Y-11236952D01*
X9464048Y-11265524D02*
X9587857Y-11265524D01*
X9587857Y-11265524D02*
X9521191Y-11341714D01*
X9521191Y-11341714D02*
X9549762Y-11341714D01*
X9549762Y-11341714D02*
X9568810Y-11351238D01*
X9568810Y-11351238D02*
X9578334Y-11360762D01*
X9578334Y-11360762D02*
X9587857Y-11379809D01*
X9587857Y-11379809D02*
X9587857Y-11427428D01*
X9587857Y-11427428D02*
X9578334Y-11446476D01*
X9578334Y-11446476D02*
X9568810Y-11456000D01*
X9568810Y-11456000D02*
X9549762Y-11465524D01*
X9549762Y-11465524D02*
X9492619Y-11465524D01*
X9492619Y-11465524D02*
X9473572Y-11456000D01*
X9473572Y-11456000D02*
X9464048Y-11446476D01*
X9825953Y-11465524D02*
X9825953Y-11265524D01*
X9911667Y-11465524D02*
X9911667Y-11360762D01*
X9911667Y-11360762D02*
X9902143Y-11341714D01*
X9902143Y-11341714D02*
X9883096Y-11332190D01*
X9883096Y-11332190D02*
X9854524Y-11332190D01*
X9854524Y-11332190D02*
X9835477Y-11341714D01*
X9835477Y-11341714D02*
X9825953Y-11351238D01*
X10035477Y-11465524D02*
X10016429Y-11456000D01*
X10016429Y-11456000D02*
X10006905Y-11446476D01*
X10006905Y-11446476D02*
X9997381Y-11427428D01*
X9997381Y-11427428D02*
X9997381Y-11370286D01*
X9997381Y-11370286D02*
X10006905Y-11351238D01*
X10006905Y-11351238D02*
X10016429Y-11341714D01*
X10016429Y-11341714D02*
X10035477Y-11332190D01*
X10035477Y-11332190D02*
X10064048Y-11332190D01*
X10064048Y-11332190D02*
X10083096Y-11341714D01*
X10083096Y-11341714D02*
X10092619Y-11351238D01*
X10092619Y-11351238D02*
X10102143Y-11370286D01*
X10102143Y-11370286D02*
X10102143Y-11427428D01*
X10102143Y-11427428D02*
X10092619Y-11446476D01*
X10092619Y-11446476D02*
X10083096Y-11456000D01*
X10083096Y-11456000D02*
X10064048Y-11465524D01*
X10064048Y-11465524D02*
X10035477Y-11465524D01*
X10216429Y-11465524D02*
X10197381Y-11456000D01*
X10197381Y-11456000D02*
X10187858Y-11436952D01*
X10187858Y-11436952D02*
X10187858Y-11265524D01*
X10368810Y-11456000D02*
X10349762Y-11465524D01*
X10349762Y-11465524D02*
X10311667Y-11465524D01*
X10311667Y-11465524D02*
X10292619Y-11456000D01*
X10292619Y-11456000D02*
X10283096Y-11436952D01*
X10283096Y-11436952D02*
X10283096Y-11360762D01*
X10283096Y-11360762D02*
X10292619Y-11341714D01*
X10292619Y-11341714D02*
X10311667Y-11332190D01*
X10311667Y-11332190D02*
X10349762Y-11332190D01*
X10349762Y-11332190D02*
X10368810Y-11341714D01*
X10368810Y-11341714D02*
X10378334Y-11360762D01*
X10378334Y-11360762D02*
X10378334Y-11379809D01*
X10378334Y-11379809D02*
X10283096Y-11398857D01*
X10454524Y-11456000D02*
X10473572Y-11465524D01*
X10473572Y-11465524D02*
X10511667Y-11465524D01*
X10511667Y-11465524D02*
X10530715Y-11456000D01*
X10530715Y-11456000D02*
X10540239Y-11436952D01*
X10540239Y-11436952D02*
X10540239Y-11427428D01*
X10540239Y-11427428D02*
X10530715Y-11408381D01*
X10530715Y-11408381D02*
X10511667Y-11398857D01*
X10511667Y-11398857D02*
X10483096Y-11398857D01*
X10483096Y-11398857D02*
X10464048Y-11389333D01*
X10464048Y-11389333D02*
X10454524Y-11370286D01*
X10454524Y-11370286D02*
X10454524Y-11360762D01*
X10454524Y-11360762D02*
X10464048Y-11341714D01*
X10464048Y-11341714D02*
X10483096Y-11332190D01*
X10483096Y-11332190D02*
X10511667Y-11332190D01*
X10511667Y-11332190D02*
X10530715Y-11341714D01*
X10606905Y-11541714D02*
X10616429Y-11532190D01*
X10616429Y-11532190D02*
X10635477Y-11503619D01*
X10635477Y-11503619D02*
X10645000Y-11484571D01*
X10645000Y-11484571D02*
X10654524Y-11456000D01*
X10654524Y-11456000D02*
X10664048Y-11408381D01*
X10664048Y-11408381D02*
X10664048Y-11370286D01*
X10664048Y-11370286D02*
X10654524Y-11322667D01*
X10654524Y-11322667D02*
X10645000Y-11294095D01*
X10645000Y-11294095D02*
X10635477Y-11275048D01*
X10635477Y-11275048D02*
X10616429Y-11246476D01*
X10616429Y-11246476D02*
X10606905Y-11236952D01*
D10*
X5830356Y-11672356D02*
X5830356Y-11601644D01*
X5759644Y-11601644D01*
X5759644Y-11672356D01*
X5830356Y-11672356D01*
D11*
X6197381Y-11729524D02*
X6083095Y-11729524D01*
X6140238Y-11729524D02*
X6140238Y-11529524D01*
X6140238Y-11529524D02*
X6121190Y-11558095D01*
X6121190Y-11558095D02*
X6102143Y-11577143D01*
X6102143Y-11577143D02*
X6083095Y-11586667D01*
X6283095Y-11710476D02*
X6292619Y-11720000D01*
X6292619Y-11720000D02*
X6283095Y-11729524D01*
X6283095Y-11729524D02*
X6273571Y-11720000D01*
X6273571Y-11720000D02*
X6283095Y-11710476D01*
X6283095Y-11710476D02*
X6283095Y-11729524D01*
X6416428Y-11529524D02*
X6435476Y-11529524D01*
X6435476Y-11529524D02*
X6454524Y-11539048D01*
X6454524Y-11539048D02*
X6464048Y-11548571D01*
X6464048Y-11548571D02*
X6473571Y-11567619D01*
X6473571Y-11567619D02*
X6483095Y-11605714D01*
X6483095Y-11605714D02*
X6483095Y-11653333D01*
X6483095Y-11653333D02*
X6473571Y-11691428D01*
X6473571Y-11691428D02*
X6464048Y-11710476D01*
X6464048Y-11710476D02*
X6454524Y-11720000D01*
X6454524Y-11720000D02*
X6435476Y-11729524D01*
X6435476Y-11729524D02*
X6416428Y-11729524D01*
X6416428Y-11729524D02*
X6397381Y-11720000D01*
X6397381Y-11720000D02*
X6387857Y-11710476D01*
X6387857Y-11710476D02*
X6378333Y-11691428D01*
X6378333Y-11691428D02*
X6368809Y-11653333D01*
X6368809Y-11653333D02*
X6368809Y-11605714D01*
X6368809Y-11605714D02*
X6378333Y-11567619D01*
X6378333Y-11567619D02*
X6387857Y-11548571D01*
X6387857Y-11548571D02*
X6397381Y-11539048D01*
X6397381Y-11539048D02*
X6416428Y-11529524D01*
X6606905Y-11529524D02*
X6625952Y-11529524D01*
X6625952Y-11529524D02*
X6645000Y-11539048D01*
X6645000Y-11539048D02*
X6654524Y-11548571D01*
X6654524Y-11548571D02*
X6664048Y-11567619D01*
X6664048Y-11567619D02*
X6673571Y-11605714D01*
X6673571Y-11605714D02*
X6673571Y-11653333D01*
X6673571Y-11653333D02*
X6664048Y-11691428D01*
X6664048Y-11691428D02*
X6654524Y-11710476D01*
X6654524Y-11710476D02*
X6645000Y-11720000D01*
X6645000Y-11720000D02*
X6625952Y-11729524D01*
X6625952Y-11729524D02*
X6606905Y-11729524D01*
X6606905Y-11729524D02*
X6587857Y-11720000D01*
X6587857Y-11720000D02*
X6578333Y-11710476D01*
X6578333Y-11710476D02*
X6568809Y-11691428D01*
X6568809Y-11691428D02*
X6559286Y-11653333D01*
X6559286Y-11653333D02*
X6559286Y-11605714D01*
X6559286Y-11605714D02*
X6568809Y-11567619D01*
X6568809Y-11567619D02*
X6578333Y-11548571D01*
X6578333Y-11548571D02*
X6587857Y-11539048D01*
X6587857Y-11539048D02*
X6606905Y-11529524D01*
X6797381Y-11529524D02*
X6816429Y-11529524D01*
X6816429Y-11529524D02*
X6835476Y-11539048D01*
X6835476Y-11539048D02*
X6845000Y-11548571D01*
X6845000Y-11548571D02*
X6854524Y-11567619D01*
X6854524Y-11567619D02*
X6864048Y-11605714D01*
X6864048Y-11605714D02*
X6864048Y-11653333D01*
X6864048Y-11653333D02*
X6854524Y-11691428D01*
X6854524Y-11691428D02*
X6845000Y-11710476D01*
X6845000Y-11710476D02*
X6835476Y-11720000D01*
X6835476Y-11720000D02*
X6816429Y-11729524D01*
X6816429Y-11729524D02*
X6797381Y-11729524D01*
X6797381Y-11729524D02*
X6778333Y-11720000D01*
X6778333Y-11720000D02*
X6768809Y-11710476D01*
X6768809Y-11710476D02*
X6759286Y-11691428D01*
X6759286Y-11691428D02*
X6749762Y-11653333D01*
X6749762Y-11653333D02*
X6749762Y-11605714D01*
X6749762Y-11605714D02*
X6759286Y-11567619D01*
X6759286Y-11567619D02*
X6768809Y-11548571D01*
X6768809Y-11548571D02*
X6778333Y-11539048D01*
X6778333Y-11539048D02*
X6797381Y-11529524D01*
X6949762Y-11729524D02*
X6949762Y-11596190D01*
X6949762Y-11615238D02*
X6959286Y-11605714D01*
X6959286Y-11605714D02*
X6978333Y-11596190D01*
X6978333Y-11596190D02*
X7006905Y-11596190D01*
X7006905Y-11596190D02*
X7025952Y-11605714D01*
X7025952Y-11605714D02*
X7035476Y-11624762D01*
X7035476Y-11624762D02*
X7035476Y-11729524D01*
X7035476Y-11624762D02*
X7045000Y-11605714D01*
X7045000Y-11605714D02*
X7064048Y-11596190D01*
X7064048Y-11596190D02*
X7092619Y-11596190D01*
X7092619Y-11596190D02*
X7111667Y-11605714D01*
X7111667Y-11605714D02*
X7121190Y-11624762D01*
X7121190Y-11624762D02*
X7121190Y-11729524D01*
X7216429Y-11729524D02*
X7216429Y-11596190D01*
X7216429Y-11615238D02*
X7225952Y-11605714D01*
X7225952Y-11605714D02*
X7245000Y-11596190D01*
X7245000Y-11596190D02*
X7273571Y-11596190D01*
X7273571Y-11596190D02*
X7292619Y-11605714D01*
X7292619Y-11605714D02*
X7302143Y-11624762D01*
X7302143Y-11624762D02*
X7302143Y-11729524D01*
X7302143Y-11624762D02*
X7311667Y-11605714D01*
X7311667Y-11605714D02*
X7330714Y-11596190D01*
X7330714Y-11596190D02*
X7359286Y-11596190D01*
X7359286Y-11596190D02*
X7378333Y-11605714D01*
X7378333Y-11605714D02*
X7387857Y-11624762D01*
X7387857Y-11624762D02*
X7387857Y-11729524D01*
X7778333Y-11520000D02*
X7606905Y-11777143D01*
X8035476Y-11529524D02*
X8054524Y-11529524D01*
X8054524Y-11529524D02*
X8073572Y-11539048D01*
X8073572Y-11539048D02*
X8083095Y-11548571D01*
X8083095Y-11548571D02*
X8092619Y-11567619D01*
X8092619Y-11567619D02*
X8102143Y-11605714D01*
X8102143Y-11605714D02*
X8102143Y-11653333D01*
X8102143Y-11653333D02*
X8092619Y-11691428D01*
X8092619Y-11691428D02*
X8083095Y-11710476D01*
X8083095Y-11710476D02*
X8073572Y-11720000D01*
X8073572Y-11720000D02*
X8054524Y-11729524D01*
X8054524Y-11729524D02*
X8035476Y-11729524D01*
X8035476Y-11729524D02*
X8016429Y-11720000D01*
X8016429Y-11720000D02*
X8006905Y-11710476D01*
X8006905Y-11710476D02*
X7997381Y-11691428D01*
X7997381Y-11691428D02*
X7987857Y-11653333D01*
X7987857Y-11653333D02*
X7987857Y-11605714D01*
X7987857Y-11605714D02*
X7997381Y-11567619D01*
X7997381Y-11567619D02*
X8006905Y-11548571D01*
X8006905Y-11548571D02*
X8016429Y-11539048D01*
X8016429Y-11539048D02*
X8035476Y-11529524D01*
X8187857Y-11710476D02*
X8197381Y-11720000D01*
X8197381Y-11720000D02*
X8187857Y-11729524D01*
X8187857Y-11729524D02*
X8178333Y-11720000D01*
X8178333Y-11720000D02*
X8187857Y-11710476D01*
X8187857Y-11710476D02*
X8187857Y-11729524D01*
X8321191Y-11529524D02*
X8340238Y-11529524D01*
X8340238Y-11529524D02*
X8359286Y-11539048D01*
X8359286Y-11539048D02*
X8368810Y-11548571D01*
X8368810Y-11548571D02*
X8378333Y-11567619D01*
X8378333Y-11567619D02*
X8387857Y-11605714D01*
X8387857Y-11605714D02*
X8387857Y-11653333D01*
X8387857Y-11653333D02*
X8378333Y-11691428D01*
X8378333Y-11691428D02*
X8368810Y-11710476D01*
X8368810Y-11710476D02*
X8359286Y-11720000D01*
X8359286Y-11720000D02*
X8340238Y-11729524D01*
X8340238Y-11729524D02*
X8321191Y-11729524D01*
X8321191Y-11729524D02*
X8302143Y-11720000D01*
X8302143Y-11720000D02*
X8292619Y-11710476D01*
X8292619Y-11710476D02*
X8283095Y-11691428D01*
X8283095Y-11691428D02*
X8273572Y-11653333D01*
X8273572Y-11653333D02*
X8273572Y-11605714D01*
X8273572Y-11605714D02*
X8283095Y-11567619D01*
X8283095Y-11567619D02*
X8292619Y-11548571D01*
X8292619Y-11548571D02*
X8302143Y-11539048D01*
X8302143Y-11539048D02*
X8321191Y-11529524D01*
X8454524Y-11529524D02*
X8578334Y-11529524D01*
X8578334Y-11529524D02*
X8511667Y-11605714D01*
X8511667Y-11605714D02*
X8540238Y-11605714D01*
X8540238Y-11605714D02*
X8559286Y-11615238D01*
X8559286Y-11615238D02*
X8568810Y-11624762D01*
X8568810Y-11624762D02*
X8578334Y-11643809D01*
X8578334Y-11643809D02*
X8578334Y-11691428D01*
X8578334Y-11691428D02*
X8568810Y-11710476D01*
X8568810Y-11710476D02*
X8559286Y-11720000D01*
X8559286Y-11720000D02*
X8540238Y-11729524D01*
X8540238Y-11729524D02*
X8483095Y-11729524D01*
X8483095Y-11729524D02*
X8464048Y-11720000D01*
X8464048Y-11720000D02*
X8454524Y-11710476D01*
X8673572Y-11729524D02*
X8711667Y-11729524D01*
X8711667Y-11729524D02*
X8730715Y-11720000D01*
X8730715Y-11720000D02*
X8740238Y-11710476D01*
X8740238Y-11710476D02*
X8759286Y-11681905D01*
X8759286Y-11681905D02*
X8768810Y-11643809D01*
X8768810Y-11643809D02*
X8768810Y-11567619D01*
X8768810Y-11567619D02*
X8759286Y-11548571D01*
X8759286Y-11548571D02*
X8749762Y-11539048D01*
X8749762Y-11539048D02*
X8730715Y-11529524D01*
X8730715Y-11529524D02*
X8692619Y-11529524D01*
X8692619Y-11529524D02*
X8673572Y-11539048D01*
X8673572Y-11539048D02*
X8664048Y-11548571D01*
X8664048Y-11548571D02*
X8654524Y-11567619D01*
X8654524Y-11567619D02*
X8654524Y-11615238D01*
X8654524Y-11615238D02*
X8664048Y-11634286D01*
X8664048Y-11634286D02*
X8673572Y-11643809D01*
X8673572Y-11643809D02*
X8692619Y-11653333D01*
X8692619Y-11653333D02*
X8730715Y-11653333D01*
X8730715Y-11653333D02*
X8749762Y-11643809D01*
X8749762Y-11643809D02*
X8759286Y-11634286D01*
X8759286Y-11634286D02*
X8768810Y-11615238D01*
X8940238Y-11596190D02*
X8940238Y-11729524D01*
X8892619Y-11520000D02*
X8845000Y-11662857D01*
X8845000Y-11662857D02*
X8968810Y-11662857D01*
X9035476Y-11529524D02*
X9035476Y-11567619D01*
X9111667Y-11529524D02*
X9111667Y-11567619D01*
X9406905Y-11805714D02*
X9397381Y-11796190D01*
X9397381Y-11796190D02*
X9378334Y-11767619D01*
X9378334Y-11767619D02*
X9368810Y-11748571D01*
X9368810Y-11748571D02*
X9359286Y-11720000D01*
X9359286Y-11720000D02*
X9349762Y-11672381D01*
X9349762Y-11672381D02*
X9349762Y-11634286D01*
X9349762Y-11634286D02*
X9359286Y-11586667D01*
X9359286Y-11586667D02*
X9368810Y-11558095D01*
X9368810Y-11558095D02*
X9378334Y-11539048D01*
X9378334Y-11539048D02*
X9397381Y-11510476D01*
X9397381Y-11510476D02*
X9406905Y-11500952D01*
X9464048Y-11529524D02*
X9587857Y-11529524D01*
X9587857Y-11529524D02*
X9521191Y-11605714D01*
X9521191Y-11605714D02*
X9549762Y-11605714D01*
X9549762Y-11605714D02*
X9568810Y-11615238D01*
X9568810Y-11615238D02*
X9578334Y-11624762D01*
X9578334Y-11624762D02*
X9587857Y-11643809D01*
X9587857Y-11643809D02*
X9587857Y-11691428D01*
X9587857Y-11691428D02*
X9578334Y-11710476D01*
X9578334Y-11710476D02*
X9568810Y-11720000D01*
X9568810Y-11720000D02*
X9549762Y-11729524D01*
X9549762Y-11729524D02*
X9492619Y-11729524D01*
X9492619Y-11729524D02*
X9473572Y-11720000D01*
X9473572Y-11720000D02*
X9464048Y-11710476D01*
X9702143Y-11615238D02*
X9683096Y-11605714D01*
X9683096Y-11605714D02*
X9673572Y-11596190D01*
X9673572Y-11596190D02*
X9664048Y-11577143D01*
X9664048Y-11577143D02*
X9664048Y-11567619D01*
X9664048Y-11567619D02*
X9673572Y-11548571D01*
X9673572Y-11548571D02*
X9683096Y-11539048D01*
X9683096Y-11539048D02*
X9702143Y-11529524D01*
X9702143Y-11529524D02*
X9740238Y-11529524D01*
X9740238Y-11529524D02*
X9759286Y-11539048D01*
X9759286Y-11539048D02*
X9768810Y-11548571D01*
X9768810Y-11548571D02*
X9778334Y-11567619D01*
X9778334Y-11567619D02*
X9778334Y-11577143D01*
X9778334Y-11577143D02*
X9768810Y-11596190D01*
X9768810Y-11596190D02*
X9759286Y-11605714D01*
X9759286Y-11605714D02*
X9740238Y-11615238D01*
X9740238Y-11615238D02*
X9702143Y-11615238D01*
X9702143Y-11615238D02*
X9683096Y-11624762D01*
X9683096Y-11624762D02*
X9673572Y-11634286D01*
X9673572Y-11634286D02*
X9664048Y-11653333D01*
X9664048Y-11653333D02*
X9664048Y-11691428D01*
X9664048Y-11691428D02*
X9673572Y-11710476D01*
X9673572Y-11710476D02*
X9683096Y-11720000D01*
X9683096Y-11720000D02*
X9702143Y-11729524D01*
X9702143Y-11729524D02*
X9740238Y-11729524D01*
X9740238Y-11729524D02*
X9759286Y-11720000D01*
X9759286Y-11720000D02*
X9768810Y-11710476D01*
X9768810Y-11710476D02*
X9778334Y-11691428D01*
X9778334Y-11691428D02*
X9778334Y-11653333D01*
X9778334Y-11653333D02*
X9768810Y-11634286D01*
X9768810Y-11634286D02*
X9759286Y-11624762D01*
X9759286Y-11624762D02*
X9740238Y-11615238D01*
X10016429Y-11729524D02*
X10016429Y-11529524D01*
X10102143Y-11729524D02*
X10102143Y-11624762D01*
X10102143Y-11624762D02*
X10092619Y-11605714D01*
X10092619Y-11605714D02*
X10073572Y-11596190D01*
X10073572Y-11596190D02*
X10045000Y-11596190D01*
X10045000Y-11596190D02*
X10025953Y-11605714D01*
X10025953Y-11605714D02*
X10016429Y-11615238D01*
X10225953Y-11729524D02*
X10206905Y-11720000D01*
X10206905Y-11720000D02*
X10197381Y-11710476D01*
X10197381Y-11710476D02*
X10187858Y-11691428D01*
X10187858Y-11691428D02*
X10187858Y-11634286D01*
X10187858Y-11634286D02*
X10197381Y-11615238D01*
X10197381Y-11615238D02*
X10206905Y-11605714D01*
X10206905Y-11605714D02*
X10225953Y-11596190D01*
X10225953Y-11596190D02*
X10254524Y-11596190D01*
X10254524Y-11596190D02*
X10273572Y-11605714D01*
X10273572Y-11605714D02*
X10283096Y-11615238D01*
X10283096Y-11615238D02*
X10292619Y-11634286D01*
X10292619Y-11634286D02*
X10292619Y-11691428D01*
X10292619Y-11691428D02*
X10283096Y-11710476D01*
X10283096Y-11710476D02*
X10273572Y-11720000D01*
X10273572Y-11720000D02*
X10254524Y-11729524D01*
X10254524Y-11729524D02*
X10225953Y-11729524D01*
X10406905Y-11729524D02*
X10387858Y-11720000D01*
X10387858Y-11720000D02*
X10378334Y-11700952D01*
X10378334Y-11700952D02*
X10378334Y-11529524D01*
X10559286Y-11720000D02*
X10540239Y-11729524D01*
X10540239Y-11729524D02*
X10502143Y-11729524D01*
X10502143Y-11729524D02*
X10483096Y-11720000D01*
X10483096Y-11720000D02*
X10473572Y-11700952D01*
X10473572Y-11700952D02*
X10473572Y-11624762D01*
X10473572Y-11624762D02*
X10483096Y-11605714D01*
X10483096Y-11605714D02*
X10502143Y-11596190D01*
X10502143Y-11596190D02*
X10540239Y-11596190D01*
X10540239Y-11596190D02*
X10559286Y-11605714D01*
X10559286Y-11605714D02*
X10568810Y-11624762D01*
X10568810Y-11624762D02*
X10568810Y-11643809D01*
X10568810Y-11643809D02*
X10473572Y-11662857D01*
X10645000Y-11720000D02*
X10664048Y-11729524D01*
X10664048Y-11729524D02*
X10702143Y-11729524D01*
X10702143Y-11729524D02*
X10721191Y-11720000D01*
X10721191Y-11720000D02*
X10730715Y-11700952D01*
X10730715Y-11700952D02*
X10730715Y-11691428D01*
X10730715Y-11691428D02*
X10721191Y-11672381D01*
X10721191Y-11672381D02*
X10702143Y-11662857D01*
X10702143Y-11662857D02*
X10673572Y-11662857D01*
X10673572Y-11662857D02*
X10654524Y-11653333D01*
X10654524Y-11653333D02*
X10645000Y-11634286D01*
X10645000Y-11634286D02*
X10645000Y-11624762D01*
X10645000Y-11624762D02*
X10654524Y-11605714D01*
X10654524Y-11605714D02*
X10673572Y-11596190D01*
X10673572Y-11596190D02*
X10702143Y-11596190D01*
X10702143Y-11596190D02*
X10721191Y-11605714D01*
X10797381Y-11805714D02*
X10806905Y-11796190D01*
X10806905Y-11796190D02*
X10825953Y-11767619D01*
X10825953Y-11767619D02*
X10835477Y-11748571D01*
X10835477Y-11748571D02*
X10845000Y-11720000D01*
X10845000Y-11720000D02*
X10854524Y-11672381D01*
X10854524Y-11672381D02*
X10854524Y-11634286D01*
X10854524Y-11634286D02*
X10845000Y-11586667D01*
X10845000Y-11586667D02*
X10835477Y-11558095D01*
X10835477Y-11558095D02*
X10825953Y-11539048D01*
X10825953Y-11539048D02*
X10806905Y-11510476D01*
X10806905Y-11510476D02*
X10797381Y-11500952D01*
D15*
X5794200Y-11951800D02*
X5845000Y-11901000D01*
X5794200Y-11850200D01*
X5743400Y-11901000D01*
X5794200Y-11951800D01*
D11*
X6197381Y-11993524D02*
X6083095Y-11993524D01*
X6140238Y-11993524D02*
X6140238Y-11793524D01*
X6140238Y-11793524D02*
X6121190Y-11822095D01*
X6121190Y-11822095D02*
X6102143Y-11841143D01*
X6102143Y-11841143D02*
X6083095Y-11850667D01*
X6283095Y-11974476D02*
X6292619Y-11984000D01*
X6292619Y-11984000D02*
X6283095Y-11993524D01*
X6283095Y-11993524D02*
X6273571Y-11984000D01*
X6273571Y-11984000D02*
X6283095Y-11974476D01*
X6283095Y-11974476D02*
X6283095Y-11993524D01*
X6416428Y-11793524D02*
X6435476Y-11793524D01*
X6435476Y-11793524D02*
X6454524Y-11803048D01*
X6454524Y-11803048D02*
X6464048Y-11812571D01*
X6464048Y-11812571D02*
X6473571Y-11831619D01*
X6473571Y-11831619D02*
X6483095Y-11869714D01*
X6483095Y-11869714D02*
X6483095Y-11917333D01*
X6483095Y-11917333D02*
X6473571Y-11955428D01*
X6473571Y-11955428D02*
X6464048Y-11974476D01*
X6464048Y-11974476D02*
X6454524Y-11984000D01*
X6454524Y-11984000D02*
X6435476Y-11993524D01*
X6435476Y-11993524D02*
X6416428Y-11993524D01*
X6416428Y-11993524D02*
X6397381Y-11984000D01*
X6397381Y-11984000D02*
X6387857Y-11974476D01*
X6387857Y-11974476D02*
X6378333Y-11955428D01*
X6378333Y-11955428D02*
X6368809Y-11917333D01*
X6368809Y-11917333D02*
X6368809Y-11869714D01*
X6368809Y-11869714D02*
X6378333Y-11831619D01*
X6378333Y-11831619D02*
X6387857Y-11812571D01*
X6387857Y-11812571D02*
X6397381Y-11803048D01*
X6397381Y-11803048D02*
X6416428Y-11793524D01*
X6673571Y-11993524D02*
X6559286Y-11993524D01*
X6616428Y-11993524D02*
X6616428Y-11793524D01*
X6616428Y-11793524D02*
X6597381Y-11822095D01*
X6597381Y-11822095D02*
X6578333Y-11841143D01*
X6578333Y-11841143D02*
X6559286Y-11850667D01*
X6845000Y-11793524D02*
X6806905Y-11793524D01*
X6806905Y-11793524D02*
X6787857Y-11803048D01*
X6787857Y-11803048D02*
X6778333Y-11812571D01*
X6778333Y-11812571D02*
X6759286Y-11841143D01*
X6759286Y-11841143D02*
X6749762Y-11879238D01*
X6749762Y-11879238D02*
X6749762Y-11955428D01*
X6749762Y-11955428D02*
X6759286Y-11974476D01*
X6759286Y-11974476D02*
X6768809Y-11984000D01*
X6768809Y-11984000D02*
X6787857Y-11993524D01*
X6787857Y-11993524D02*
X6825952Y-11993524D01*
X6825952Y-11993524D02*
X6845000Y-11984000D01*
X6845000Y-11984000D02*
X6854524Y-11974476D01*
X6854524Y-11974476D02*
X6864048Y-11955428D01*
X6864048Y-11955428D02*
X6864048Y-11907809D01*
X6864048Y-11907809D02*
X6854524Y-11888762D01*
X6854524Y-11888762D02*
X6845000Y-11879238D01*
X6845000Y-11879238D02*
X6825952Y-11869714D01*
X6825952Y-11869714D02*
X6787857Y-11869714D01*
X6787857Y-11869714D02*
X6768809Y-11879238D01*
X6768809Y-11879238D02*
X6759286Y-11888762D01*
X6759286Y-11888762D02*
X6749762Y-11907809D01*
X6949762Y-11993524D02*
X6949762Y-11860190D01*
X6949762Y-11879238D02*
X6959286Y-11869714D01*
X6959286Y-11869714D02*
X6978333Y-11860190D01*
X6978333Y-11860190D02*
X7006905Y-11860190D01*
X7006905Y-11860190D02*
X7025952Y-11869714D01*
X7025952Y-11869714D02*
X7035476Y-11888762D01*
X7035476Y-11888762D02*
X7035476Y-11993524D01*
X7035476Y-11888762D02*
X7045000Y-11869714D01*
X7045000Y-11869714D02*
X7064048Y-11860190D01*
X7064048Y-11860190D02*
X7092619Y-11860190D01*
X7092619Y-11860190D02*
X7111667Y-11869714D01*
X7111667Y-11869714D02*
X7121190Y-11888762D01*
X7121190Y-11888762D02*
X7121190Y-11993524D01*
X7216429Y-11993524D02*
X7216429Y-11860190D01*
X7216429Y-11879238D02*
X7225952Y-11869714D01*
X7225952Y-11869714D02*
X7245000Y-11860190D01*
X7245000Y-11860190D02*
X7273571Y-11860190D01*
X7273571Y-11860190D02*
X7292619Y-11869714D01*
X7292619Y-11869714D02*
X7302143Y-11888762D01*
X7302143Y-11888762D02*
X7302143Y-11993524D01*
X7302143Y-11888762D02*
X7311667Y-11869714D01*
X7311667Y-11869714D02*
X7330714Y-11860190D01*
X7330714Y-11860190D02*
X7359286Y-11860190D01*
X7359286Y-11860190D02*
X7378333Y-11869714D01*
X7378333Y-11869714D02*
X7387857Y-11888762D01*
X7387857Y-11888762D02*
X7387857Y-11993524D01*
X7778333Y-11784000D02*
X7606905Y-12041143D01*
X8035476Y-11793524D02*
X8054524Y-11793524D01*
X8054524Y-11793524D02*
X8073572Y-11803048D01*
X8073572Y-11803048D02*
X8083095Y-11812571D01*
X8083095Y-11812571D02*
X8092619Y-11831619D01*
X8092619Y-11831619D02*
X8102143Y-11869714D01*
X8102143Y-11869714D02*
X8102143Y-11917333D01*
X8102143Y-11917333D02*
X8092619Y-11955428D01*
X8092619Y-11955428D02*
X8083095Y-11974476D01*
X8083095Y-11974476D02*
X8073572Y-11984000D01*
X8073572Y-11984000D02*
X8054524Y-11993524D01*
X8054524Y-11993524D02*
X8035476Y-11993524D01*
X8035476Y-11993524D02*
X8016429Y-11984000D01*
X8016429Y-11984000D02*
X8006905Y-11974476D01*
X8006905Y-11974476D02*
X7997381Y-11955428D01*
X7997381Y-11955428D02*
X7987857Y-11917333D01*
X7987857Y-11917333D02*
X7987857Y-11869714D01*
X7987857Y-11869714D02*
X7997381Y-11831619D01*
X7997381Y-11831619D02*
X8006905Y-11812571D01*
X8006905Y-11812571D02*
X8016429Y-11803048D01*
X8016429Y-11803048D02*
X8035476Y-11793524D01*
X8187857Y-11974476D02*
X8197381Y-11984000D01*
X8197381Y-11984000D02*
X8187857Y-11993524D01*
X8187857Y-11993524D02*
X8178333Y-11984000D01*
X8178333Y-11984000D02*
X8187857Y-11974476D01*
X8187857Y-11974476D02*
X8187857Y-11993524D01*
X8321191Y-11793524D02*
X8340238Y-11793524D01*
X8340238Y-11793524D02*
X8359286Y-11803048D01*
X8359286Y-11803048D02*
X8368810Y-11812571D01*
X8368810Y-11812571D02*
X8378333Y-11831619D01*
X8378333Y-11831619D02*
X8387857Y-11869714D01*
X8387857Y-11869714D02*
X8387857Y-11917333D01*
X8387857Y-11917333D02*
X8378333Y-11955428D01*
X8378333Y-11955428D02*
X8368810Y-11974476D01*
X8368810Y-11974476D02*
X8359286Y-11984000D01*
X8359286Y-11984000D02*
X8340238Y-11993524D01*
X8340238Y-11993524D02*
X8321191Y-11993524D01*
X8321191Y-11993524D02*
X8302143Y-11984000D01*
X8302143Y-11984000D02*
X8292619Y-11974476D01*
X8292619Y-11974476D02*
X8283095Y-11955428D01*
X8283095Y-11955428D02*
X8273572Y-11917333D01*
X8273572Y-11917333D02*
X8273572Y-11869714D01*
X8273572Y-11869714D02*
X8283095Y-11831619D01*
X8283095Y-11831619D02*
X8292619Y-11812571D01*
X8292619Y-11812571D02*
X8302143Y-11803048D01*
X8302143Y-11803048D02*
X8321191Y-11793524D01*
X8559286Y-11860190D02*
X8559286Y-11993524D01*
X8511667Y-11784000D02*
X8464048Y-11926857D01*
X8464048Y-11926857D02*
X8587857Y-11926857D01*
X8702143Y-11793524D02*
X8721191Y-11793524D01*
X8721191Y-11793524D02*
X8740238Y-11803048D01*
X8740238Y-11803048D02*
X8749762Y-11812571D01*
X8749762Y-11812571D02*
X8759286Y-11831619D01*
X8759286Y-11831619D02*
X8768810Y-11869714D01*
X8768810Y-11869714D02*
X8768810Y-11917333D01*
X8768810Y-11917333D02*
X8759286Y-11955428D01*
X8759286Y-11955428D02*
X8749762Y-11974476D01*
X8749762Y-11974476D02*
X8740238Y-11984000D01*
X8740238Y-11984000D02*
X8721191Y-11993524D01*
X8721191Y-11993524D02*
X8702143Y-11993524D01*
X8702143Y-11993524D02*
X8683095Y-11984000D01*
X8683095Y-11984000D02*
X8673572Y-11974476D01*
X8673572Y-11974476D02*
X8664048Y-11955428D01*
X8664048Y-11955428D02*
X8654524Y-11917333D01*
X8654524Y-11917333D02*
X8654524Y-11869714D01*
X8654524Y-11869714D02*
X8664048Y-11831619D01*
X8664048Y-11831619D02*
X8673572Y-11812571D01*
X8673572Y-11812571D02*
X8683095Y-11803048D01*
X8683095Y-11803048D02*
X8702143Y-11793524D01*
X8892619Y-11793524D02*
X8911667Y-11793524D01*
X8911667Y-11793524D02*
X8930715Y-11803048D01*
X8930715Y-11803048D02*
X8940238Y-11812571D01*
X8940238Y-11812571D02*
X8949762Y-11831619D01*
X8949762Y-11831619D02*
X8959286Y-11869714D01*
X8959286Y-11869714D02*
X8959286Y-11917333D01*
X8959286Y-11917333D02*
X8949762Y-11955428D01*
X8949762Y-11955428D02*
X8940238Y-11974476D01*
X8940238Y-11974476D02*
X8930715Y-11984000D01*
X8930715Y-11984000D02*
X8911667Y-11993524D01*
X8911667Y-11993524D02*
X8892619Y-11993524D01*
X8892619Y-11993524D02*
X8873572Y-11984000D01*
X8873572Y-11984000D02*
X8864048Y-11974476D01*
X8864048Y-11974476D02*
X8854524Y-11955428D01*
X8854524Y-11955428D02*
X8845000Y-11917333D01*
X8845000Y-11917333D02*
X8845000Y-11869714D01*
X8845000Y-11869714D02*
X8854524Y-11831619D01*
X8854524Y-11831619D02*
X8864048Y-11812571D01*
X8864048Y-11812571D02*
X8873572Y-11803048D01*
X8873572Y-11803048D02*
X8892619Y-11793524D01*
X9035476Y-11793524D02*
X9035476Y-11831619D01*
X9111667Y-11793524D02*
X9111667Y-11831619D01*
X9406905Y-12069714D02*
X9397381Y-12060190D01*
X9397381Y-12060190D02*
X9378334Y-12031619D01*
X9378334Y-12031619D02*
X9368810Y-12012571D01*
X9368810Y-12012571D02*
X9359286Y-11984000D01*
X9359286Y-11984000D02*
X9349762Y-11936381D01*
X9349762Y-11936381D02*
X9349762Y-11898286D01*
X9349762Y-11898286D02*
X9359286Y-11850667D01*
X9359286Y-11850667D02*
X9368810Y-11822095D01*
X9368810Y-11822095D02*
X9378334Y-11803048D01*
X9378334Y-11803048D02*
X9397381Y-11774476D01*
X9397381Y-11774476D02*
X9406905Y-11764952D01*
X9464048Y-11793524D02*
X9587857Y-11793524D01*
X9587857Y-11793524D02*
X9521191Y-11869714D01*
X9521191Y-11869714D02*
X9549762Y-11869714D01*
X9549762Y-11869714D02*
X9568810Y-11879238D01*
X9568810Y-11879238D02*
X9578334Y-11888762D01*
X9578334Y-11888762D02*
X9587857Y-11907809D01*
X9587857Y-11907809D02*
X9587857Y-11955428D01*
X9587857Y-11955428D02*
X9578334Y-11974476D01*
X9578334Y-11974476D02*
X9568810Y-11984000D01*
X9568810Y-11984000D02*
X9549762Y-11993524D01*
X9549762Y-11993524D02*
X9492619Y-11993524D01*
X9492619Y-11993524D02*
X9473572Y-11984000D01*
X9473572Y-11984000D02*
X9464048Y-11974476D01*
X9664048Y-11812571D02*
X9673572Y-11803048D01*
X9673572Y-11803048D02*
X9692619Y-11793524D01*
X9692619Y-11793524D02*
X9740238Y-11793524D01*
X9740238Y-11793524D02*
X9759286Y-11803048D01*
X9759286Y-11803048D02*
X9768810Y-11812571D01*
X9768810Y-11812571D02*
X9778334Y-11831619D01*
X9778334Y-11831619D02*
X9778334Y-11850667D01*
X9778334Y-11850667D02*
X9768810Y-11879238D01*
X9768810Y-11879238D02*
X9654524Y-11993524D01*
X9654524Y-11993524D02*
X9778334Y-11993524D01*
X10016429Y-11993524D02*
X10016429Y-11793524D01*
X10102143Y-11993524D02*
X10102143Y-11888762D01*
X10102143Y-11888762D02*
X10092619Y-11869714D01*
X10092619Y-11869714D02*
X10073572Y-11860190D01*
X10073572Y-11860190D02*
X10045000Y-11860190D01*
X10045000Y-11860190D02*
X10025953Y-11869714D01*
X10025953Y-11869714D02*
X10016429Y-11879238D01*
X10225953Y-11993524D02*
X10206905Y-11984000D01*
X10206905Y-11984000D02*
X10197381Y-11974476D01*
X10197381Y-11974476D02*
X10187858Y-11955428D01*
X10187858Y-11955428D02*
X10187858Y-11898286D01*
X10187858Y-11898286D02*
X10197381Y-11879238D01*
X10197381Y-11879238D02*
X10206905Y-11869714D01*
X10206905Y-11869714D02*
X10225953Y-11860190D01*
X10225953Y-11860190D02*
X10254524Y-11860190D01*
X10254524Y-11860190D02*
X10273572Y-11869714D01*
X10273572Y-11869714D02*
X10283096Y-11879238D01*
X10283096Y-11879238D02*
X10292619Y-11898286D01*
X10292619Y-11898286D02*
X10292619Y-11955428D01*
X10292619Y-11955428D02*
X10283096Y-11974476D01*
X10283096Y-11974476D02*
X10273572Y-11984000D01*
X10273572Y-11984000D02*
X10254524Y-11993524D01*
X10254524Y-11993524D02*
X10225953Y-11993524D01*
X10406905Y-11993524D02*
X10387858Y-11984000D01*
X10387858Y-11984000D02*
X10378334Y-11964952D01*
X10378334Y-11964952D02*
X10378334Y-11793524D01*
X10559286Y-11984000D02*
X10540239Y-11993524D01*
X10540239Y-11993524D02*
X10502143Y-11993524D01*
X10502143Y-11993524D02*
X10483096Y-11984000D01*
X10483096Y-11984000D02*
X10473572Y-11964952D01*
X10473572Y-11964952D02*
X10473572Y-11888762D01*
X10473572Y-11888762D02*
X10483096Y-11869714D01*
X10483096Y-11869714D02*
X10502143Y-11860190D01*
X10502143Y-11860190D02*
X10540239Y-11860190D01*
X10540239Y-11860190D02*
X10559286Y-11869714D01*
X10559286Y-11869714D02*
X10568810Y-11888762D01*
X10568810Y-11888762D02*
X10568810Y-11907809D01*
X10568810Y-11907809D02*
X10473572Y-11926857D01*
X10645000Y-11984000D02*
X10664048Y-11993524D01*
X10664048Y-11993524D02*
X10702143Y-11993524D01*
X10702143Y-11993524D02*
X10721191Y-11984000D01*
X10721191Y-11984000D02*
X10730715Y-11964952D01*
X10730715Y-11964952D02*
X10730715Y-11955428D01*
X10730715Y-11955428D02*
X10721191Y-11936381D01*
X10721191Y-11936381D02*
X10702143Y-11926857D01*
X10702143Y-11926857D02*
X10673572Y-11926857D01*
X10673572Y-11926857D02*
X10654524Y-11917333D01*
X10654524Y-11917333D02*
X10645000Y-11898286D01*
X10645000Y-11898286D02*
X10645000Y-11888762D01*
X10645000Y-11888762D02*
X10654524Y-11869714D01*
X10654524Y-11869714D02*
X10673572Y-11860190D01*
X10673572Y-11860190D02*
X10702143Y-11860190D01*
X10702143Y-11860190D02*
X10721191Y-11869714D01*
X10797381Y-12069714D02*
X10806905Y-12060190D01*
X10806905Y-12060190D02*
X10825953Y-12031619D01*
X10825953Y-12031619D02*
X10835477Y-12012571D01*
X10835477Y-12012571D02*
X10845000Y-11984000D01*
X10845000Y-11984000D02*
X10854524Y-11936381D01*
X10854524Y-11936381D02*
X10854524Y-11898286D01*
X10854524Y-11898286D02*
X10845000Y-11850667D01*
X10845000Y-11850667D02*
X10835477Y-11822095D01*
X10835477Y-11822095D02*
X10825953Y-11803048D01*
X10825953Y-11803048D02*
X10806905Y-11774476D01*
X10806905Y-11774476D02*
X10797381Y-11764952D01*
M02*
