%TF.GenerationSoftware,KiCad,Pcbnew,7.0.2*%
%TF.CreationDate,2023-09-16T19:57:56+02:00*%
%TF.ProjectId,PowerBoard,506f7765-7242-46f6-9172-642e6b696361,rev?*%
%TF.SameCoordinates,Original*%
%TF.FileFunction,Drillmap*%
%TF.FilePolarity,Positive*%
%FSLAX45Y45*%
G04 Gerber Fmt 4.5, Leading zero omitted, Abs format (unit mm)*
G04 Created by KiCad (PCBNEW 7.0.2) date 2023-09-16 19:57:56*
%MOMM*%
%LPD*%
G01*
G04 APERTURE LIST*
%ADD10C,0.100000*%
%ADD11C,0.200000*%
%ADD12C,0.070000*%
%ADD13C,0.110000*%
%ADD14C,0.152000*%
G04 APERTURE END LIST*
D10*
X12800000Y-9000000D02*
X12800000Y-5400000D01*
X15500000Y-9400000D02*
X13200000Y-9400000D01*
X15900000Y-5400000D02*
X15900000Y-9000000D01*
X13200000Y-5000000D02*
X15500000Y-5000000D01*
X13200000Y-5000000D02*
G75*
G03*
X12800000Y-5400000I0J-400000D01*
G01*
X12800000Y-9000000D02*
G75*
G03*
X13200000Y-9400000I400000J0D01*
G01*
X15500000Y-9400000D02*
G75*
G03*
X15900000Y-9000000I0J400000D01*
G01*
X15900000Y-5400000D02*
G75*
G03*
X15500000Y-5000000I-400000J0D01*
G01*
D11*
D12*
X14125500Y-6823000D02*
X14195500Y-6893000D01*
X14195500Y-6823000D02*
X14125500Y-6893000D01*
X14125500Y-7206500D02*
X14195500Y-7276500D01*
X14195500Y-7206500D02*
X14125500Y-7276500D01*
X14125500Y-7585000D02*
X14195500Y-7655000D01*
X14195500Y-7585000D02*
X14125500Y-7655000D01*
X14887500Y-6823000D02*
X14957500Y-6893000D01*
X14957500Y-6823000D02*
X14887500Y-6893000D01*
X14887500Y-7206500D02*
X14957500Y-7276500D01*
X14957500Y-7206500D02*
X14887500Y-7276500D01*
X14887500Y-7585000D02*
X14957500Y-7655000D01*
X14957500Y-7585000D02*
X14887500Y-7655000D01*
D10*
X14337500Y-5334000D02*
G75*
G03*
X14337500Y-5334000I-50000J0D01*
G01*
X14591500Y-5334000D02*
G75*
G03*
X14591500Y-5334000I-50000J0D01*
G01*
D13*
X15430500Y-6930000D02*
X15430500Y-7040000D01*
X15375500Y-6985000D02*
X15485500Y-6985000D01*
X15430500Y-7184000D02*
X15430500Y-7294000D01*
X15375500Y-7239000D02*
X15485500Y-7239000D01*
X15430500Y-7438000D02*
X15430500Y-7548000D01*
X15375500Y-7493000D02*
X15485500Y-7493000D01*
D14*
X13261741Y-6276741D02*
X13261741Y-6169259D01*
X13154259Y-6169259D01*
X13154259Y-6276741D01*
X13261741Y-6276741D01*
X13261741Y-6784741D02*
X13261741Y-6677259D01*
X13154259Y-6677259D01*
X13154259Y-6784741D01*
X13261741Y-6784741D01*
X13261741Y-7737241D02*
X13261741Y-7629759D01*
X13154259Y-7629759D01*
X13154259Y-7737241D01*
X13261741Y-7737241D01*
X13261741Y-8245241D02*
X13261741Y-8137759D01*
X13154259Y-8137759D01*
X13154259Y-8245241D01*
X13261741Y-8245241D01*
D11*
X13042619Y-9717524D02*
X13042619Y-9517524D01*
X13042619Y-9517524D02*
X13090238Y-9517524D01*
X13090238Y-9517524D02*
X13118809Y-9527048D01*
X13118809Y-9527048D02*
X13137857Y-9546095D01*
X13137857Y-9546095D02*
X13147381Y-9565143D01*
X13147381Y-9565143D02*
X13156905Y-9603238D01*
X13156905Y-9603238D02*
X13156905Y-9631810D01*
X13156905Y-9631810D02*
X13147381Y-9669905D01*
X13147381Y-9669905D02*
X13137857Y-9688952D01*
X13137857Y-9688952D02*
X13118809Y-9708000D01*
X13118809Y-9708000D02*
X13090238Y-9717524D01*
X13090238Y-9717524D02*
X13042619Y-9717524D01*
X13242619Y-9717524D02*
X13242619Y-9584190D01*
X13242619Y-9622286D02*
X13252143Y-9603238D01*
X13252143Y-9603238D02*
X13261667Y-9593714D01*
X13261667Y-9593714D02*
X13280714Y-9584190D01*
X13280714Y-9584190D02*
X13299762Y-9584190D01*
X13366428Y-9717524D02*
X13366428Y-9584190D01*
X13366428Y-9517524D02*
X13356905Y-9527048D01*
X13356905Y-9527048D02*
X13366428Y-9536571D01*
X13366428Y-9536571D02*
X13375952Y-9527048D01*
X13375952Y-9527048D02*
X13366428Y-9517524D01*
X13366428Y-9517524D02*
X13366428Y-9536571D01*
X13490238Y-9717524D02*
X13471190Y-9708000D01*
X13471190Y-9708000D02*
X13461667Y-9688952D01*
X13461667Y-9688952D02*
X13461667Y-9517524D01*
X13595000Y-9717524D02*
X13575952Y-9708000D01*
X13575952Y-9708000D02*
X13566428Y-9688952D01*
X13566428Y-9688952D02*
X13566428Y-9517524D01*
X13823571Y-9717524D02*
X13823571Y-9517524D01*
X13823571Y-9517524D02*
X13890238Y-9660381D01*
X13890238Y-9660381D02*
X13956905Y-9517524D01*
X13956905Y-9517524D02*
X13956905Y-9717524D01*
X14137857Y-9717524D02*
X14137857Y-9612762D01*
X14137857Y-9612762D02*
X14128333Y-9593714D01*
X14128333Y-9593714D02*
X14109286Y-9584190D01*
X14109286Y-9584190D02*
X14071190Y-9584190D01*
X14071190Y-9584190D02*
X14052143Y-9593714D01*
X14137857Y-9708000D02*
X14118809Y-9717524D01*
X14118809Y-9717524D02*
X14071190Y-9717524D01*
X14071190Y-9717524D02*
X14052143Y-9708000D01*
X14052143Y-9708000D02*
X14042619Y-9688952D01*
X14042619Y-9688952D02*
X14042619Y-9669905D01*
X14042619Y-9669905D02*
X14052143Y-9650857D01*
X14052143Y-9650857D02*
X14071190Y-9641333D01*
X14071190Y-9641333D02*
X14118809Y-9641333D01*
X14118809Y-9641333D02*
X14137857Y-9631810D01*
X14233095Y-9584190D02*
X14233095Y-9784190D01*
X14233095Y-9593714D02*
X14252143Y-9584190D01*
X14252143Y-9584190D02*
X14290238Y-9584190D01*
X14290238Y-9584190D02*
X14309286Y-9593714D01*
X14309286Y-9593714D02*
X14318809Y-9603238D01*
X14318809Y-9603238D02*
X14328333Y-9622286D01*
X14328333Y-9622286D02*
X14328333Y-9679429D01*
X14328333Y-9679429D02*
X14318809Y-9698476D01*
X14318809Y-9698476D02*
X14309286Y-9708000D01*
X14309286Y-9708000D02*
X14290238Y-9717524D01*
X14290238Y-9717524D02*
X14252143Y-9717524D01*
X14252143Y-9717524D02*
X14233095Y-9708000D01*
X14414048Y-9698476D02*
X14423571Y-9708000D01*
X14423571Y-9708000D02*
X14414048Y-9717524D01*
X14414048Y-9717524D02*
X14404524Y-9708000D01*
X14404524Y-9708000D02*
X14414048Y-9698476D01*
X14414048Y-9698476D02*
X14414048Y-9717524D01*
X14414048Y-9593714D02*
X14423571Y-9603238D01*
X14423571Y-9603238D02*
X14414048Y-9612762D01*
X14414048Y-9612762D02*
X14404524Y-9603238D01*
X14404524Y-9603238D02*
X14414048Y-9593714D01*
X14414048Y-9593714D02*
X14414048Y-9612762D01*
D12*
X12725000Y-10010000D02*
X12795000Y-10080000D01*
X12795000Y-10010000D02*
X12725000Y-10080000D01*
D11*
X13080714Y-9937524D02*
X13099762Y-9937524D01*
X13099762Y-9937524D02*
X13118809Y-9947048D01*
X13118809Y-9947048D02*
X13128333Y-9956571D01*
X13128333Y-9956571D02*
X13137857Y-9975619D01*
X13137857Y-9975619D02*
X13147381Y-10013714D01*
X13147381Y-10013714D02*
X13147381Y-10061333D01*
X13147381Y-10061333D02*
X13137857Y-10099429D01*
X13137857Y-10099429D02*
X13128333Y-10118476D01*
X13128333Y-10118476D02*
X13118809Y-10128000D01*
X13118809Y-10128000D02*
X13099762Y-10137524D01*
X13099762Y-10137524D02*
X13080714Y-10137524D01*
X13080714Y-10137524D02*
X13061667Y-10128000D01*
X13061667Y-10128000D02*
X13052143Y-10118476D01*
X13052143Y-10118476D02*
X13042619Y-10099429D01*
X13042619Y-10099429D02*
X13033095Y-10061333D01*
X13033095Y-10061333D02*
X13033095Y-10013714D01*
X13033095Y-10013714D02*
X13042619Y-9975619D01*
X13042619Y-9975619D02*
X13052143Y-9956571D01*
X13052143Y-9956571D02*
X13061667Y-9947048D01*
X13061667Y-9947048D02*
X13080714Y-9937524D01*
X13233095Y-10118476D02*
X13242619Y-10128000D01*
X13242619Y-10128000D02*
X13233095Y-10137524D01*
X13233095Y-10137524D02*
X13223571Y-10128000D01*
X13223571Y-10128000D02*
X13233095Y-10118476D01*
X13233095Y-10118476D02*
X13233095Y-10137524D01*
X13309286Y-9937524D02*
X13442619Y-9937524D01*
X13442619Y-9937524D02*
X13356905Y-10137524D01*
X13556905Y-9937524D02*
X13575952Y-9937524D01*
X13575952Y-9937524D02*
X13595000Y-9947048D01*
X13595000Y-9947048D02*
X13604524Y-9956571D01*
X13604524Y-9956571D02*
X13614048Y-9975619D01*
X13614048Y-9975619D02*
X13623571Y-10013714D01*
X13623571Y-10013714D02*
X13623571Y-10061333D01*
X13623571Y-10061333D02*
X13614048Y-10099429D01*
X13614048Y-10099429D02*
X13604524Y-10118476D01*
X13604524Y-10118476D02*
X13595000Y-10128000D01*
X13595000Y-10128000D02*
X13575952Y-10137524D01*
X13575952Y-10137524D02*
X13556905Y-10137524D01*
X13556905Y-10137524D02*
X13537857Y-10128000D01*
X13537857Y-10128000D02*
X13528333Y-10118476D01*
X13528333Y-10118476D02*
X13518809Y-10099429D01*
X13518809Y-10099429D02*
X13509286Y-10061333D01*
X13509286Y-10061333D02*
X13509286Y-10013714D01*
X13509286Y-10013714D02*
X13518809Y-9975619D01*
X13518809Y-9975619D02*
X13528333Y-9956571D01*
X13528333Y-9956571D02*
X13537857Y-9947048D01*
X13537857Y-9947048D02*
X13556905Y-9937524D01*
X13747381Y-9937524D02*
X13766429Y-9937524D01*
X13766429Y-9937524D02*
X13785476Y-9947048D01*
X13785476Y-9947048D02*
X13795000Y-9956571D01*
X13795000Y-9956571D02*
X13804524Y-9975619D01*
X13804524Y-9975619D02*
X13814048Y-10013714D01*
X13814048Y-10013714D02*
X13814048Y-10061333D01*
X13814048Y-10061333D02*
X13804524Y-10099429D01*
X13804524Y-10099429D02*
X13795000Y-10118476D01*
X13795000Y-10118476D02*
X13785476Y-10128000D01*
X13785476Y-10128000D02*
X13766429Y-10137524D01*
X13766429Y-10137524D02*
X13747381Y-10137524D01*
X13747381Y-10137524D02*
X13728333Y-10128000D01*
X13728333Y-10128000D02*
X13718809Y-10118476D01*
X13718809Y-10118476D02*
X13709286Y-10099429D01*
X13709286Y-10099429D02*
X13699762Y-10061333D01*
X13699762Y-10061333D02*
X13699762Y-10013714D01*
X13699762Y-10013714D02*
X13709286Y-9975619D01*
X13709286Y-9975619D02*
X13718809Y-9956571D01*
X13718809Y-9956571D02*
X13728333Y-9947048D01*
X13728333Y-9947048D02*
X13747381Y-9937524D01*
X13899762Y-10137524D02*
X13899762Y-10004190D01*
X13899762Y-10023238D02*
X13909286Y-10013714D01*
X13909286Y-10013714D02*
X13928333Y-10004190D01*
X13928333Y-10004190D02*
X13956905Y-10004190D01*
X13956905Y-10004190D02*
X13975952Y-10013714D01*
X13975952Y-10013714D02*
X13985476Y-10032762D01*
X13985476Y-10032762D02*
X13985476Y-10137524D01*
X13985476Y-10032762D02*
X13995000Y-10013714D01*
X13995000Y-10013714D02*
X14014048Y-10004190D01*
X14014048Y-10004190D02*
X14042619Y-10004190D01*
X14042619Y-10004190D02*
X14061667Y-10013714D01*
X14061667Y-10013714D02*
X14071190Y-10032762D01*
X14071190Y-10032762D02*
X14071190Y-10137524D01*
X14166429Y-10137524D02*
X14166429Y-10004190D01*
X14166429Y-10023238D02*
X14175952Y-10013714D01*
X14175952Y-10013714D02*
X14195000Y-10004190D01*
X14195000Y-10004190D02*
X14223571Y-10004190D01*
X14223571Y-10004190D02*
X14242619Y-10013714D01*
X14242619Y-10013714D02*
X14252143Y-10032762D01*
X14252143Y-10032762D02*
X14252143Y-10137524D01*
X14252143Y-10032762D02*
X14261667Y-10013714D01*
X14261667Y-10013714D02*
X14280714Y-10004190D01*
X14280714Y-10004190D02*
X14309286Y-10004190D01*
X14309286Y-10004190D02*
X14328333Y-10013714D01*
X14328333Y-10013714D02*
X14337857Y-10032762D01*
X14337857Y-10032762D02*
X14337857Y-10137524D01*
X14728333Y-9928000D02*
X14556905Y-10185143D01*
X14985476Y-9937524D02*
X15004524Y-9937524D01*
X15004524Y-9937524D02*
X15023572Y-9947048D01*
X15023572Y-9947048D02*
X15033095Y-9956571D01*
X15033095Y-9956571D02*
X15042619Y-9975619D01*
X15042619Y-9975619D02*
X15052143Y-10013714D01*
X15052143Y-10013714D02*
X15052143Y-10061333D01*
X15052143Y-10061333D02*
X15042619Y-10099429D01*
X15042619Y-10099429D02*
X15033095Y-10118476D01*
X15033095Y-10118476D02*
X15023572Y-10128000D01*
X15023572Y-10128000D02*
X15004524Y-10137524D01*
X15004524Y-10137524D02*
X14985476Y-10137524D01*
X14985476Y-10137524D02*
X14966429Y-10128000D01*
X14966429Y-10128000D02*
X14956905Y-10118476D01*
X14956905Y-10118476D02*
X14947381Y-10099429D01*
X14947381Y-10099429D02*
X14937857Y-10061333D01*
X14937857Y-10061333D02*
X14937857Y-10013714D01*
X14937857Y-10013714D02*
X14947381Y-9975619D01*
X14947381Y-9975619D02*
X14956905Y-9956571D01*
X14956905Y-9956571D02*
X14966429Y-9947048D01*
X14966429Y-9947048D02*
X14985476Y-9937524D01*
X15137857Y-10118476D02*
X15147381Y-10128000D01*
X15147381Y-10128000D02*
X15137857Y-10137524D01*
X15137857Y-10137524D02*
X15128333Y-10128000D01*
X15128333Y-10128000D02*
X15137857Y-10118476D01*
X15137857Y-10118476D02*
X15137857Y-10137524D01*
X15271191Y-9937524D02*
X15290238Y-9937524D01*
X15290238Y-9937524D02*
X15309286Y-9947048D01*
X15309286Y-9947048D02*
X15318810Y-9956571D01*
X15318810Y-9956571D02*
X15328333Y-9975619D01*
X15328333Y-9975619D02*
X15337857Y-10013714D01*
X15337857Y-10013714D02*
X15337857Y-10061333D01*
X15337857Y-10061333D02*
X15328333Y-10099429D01*
X15328333Y-10099429D02*
X15318810Y-10118476D01*
X15318810Y-10118476D02*
X15309286Y-10128000D01*
X15309286Y-10128000D02*
X15290238Y-10137524D01*
X15290238Y-10137524D02*
X15271191Y-10137524D01*
X15271191Y-10137524D02*
X15252143Y-10128000D01*
X15252143Y-10128000D02*
X15242619Y-10118476D01*
X15242619Y-10118476D02*
X15233095Y-10099429D01*
X15233095Y-10099429D02*
X15223572Y-10061333D01*
X15223572Y-10061333D02*
X15223572Y-10013714D01*
X15223572Y-10013714D02*
X15233095Y-9975619D01*
X15233095Y-9975619D02*
X15242619Y-9956571D01*
X15242619Y-9956571D02*
X15252143Y-9947048D01*
X15252143Y-9947048D02*
X15271191Y-9937524D01*
X15414048Y-9956571D02*
X15423572Y-9947048D01*
X15423572Y-9947048D02*
X15442619Y-9937524D01*
X15442619Y-9937524D02*
X15490238Y-9937524D01*
X15490238Y-9937524D02*
X15509286Y-9947048D01*
X15509286Y-9947048D02*
X15518810Y-9956571D01*
X15518810Y-9956571D02*
X15528333Y-9975619D01*
X15528333Y-9975619D02*
X15528333Y-9994667D01*
X15528333Y-9994667D02*
X15518810Y-10023238D01*
X15518810Y-10023238D02*
X15404524Y-10137524D01*
X15404524Y-10137524D02*
X15528333Y-10137524D01*
X15595000Y-9937524D02*
X15728333Y-9937524D01*
X15728333Y-9937524D02*
X15642619Y-10137524D01*
X15890238Y-9937524D02*
X15852143Y-9937524D01*
X15852143Y-9937524D02*
X15833095Y-9947048D01*
X15833095Y-9947048D02*
X15823572Y-9956571D01*
X15823572Y-9956571D02*
X15804524Y-9985143D01*
X15804524Y-9985143D02*
X15795000Y-10023238D01*
X15795000Y-10023238D02*
X15795000Y-10099429D01*
X15795000Y-10099429D02*
X15804524Y-10118476D01*
X15804524Y-10118476D02*
X15814048Y-10128000D01*
X15814048Y-10128000D02*
X15833095Y-10137524D01*
X15833095Y-10137524D02*
X15871191Y-10137524D01*
X15871191Y-10137524D02*
X15890238Y-10128000D01*
X15890238Y-10128000D02*
X15899762Y-10118476D01*
X15899762Y-10118476D02*
X15909286Y-10099429D01*
X15909286Y-10099429D02*
X15909286Y-10051810D01*
X15909286Y-10051810D02*
X15899762Y-10032762D01*
X15899762Y-10032762D02*
X15890238Y-10023238D01*
X15890238Y-10023238D02*
X15871191Y-10013714D01*
X15871191Y-10013714D02*
X15833095Y-10013714D01*
X15833095Y-10013714D02*
X15814048Y-10023238D01*
X15814048Y-10023238D02*
X15804524Y-10032762D01*
X15804524Y-10032762D02*
X15795000Y-10051810D01*
X15985476Y-9937524D02*
X15985476Y-9975619D01*
X16061667Y-9937524D02*
X16061667Y-9975619D01*
X16356905Y-10213714D02*
X16347381Y-10204190D01*
X16347381Y-10204190D02*
X16328334Y-10175619D01*
X16328334Y-10175619D02*
X16318810Y-10156571D01*
X16318810Y-10156571D02*
X16309286Y-10128000D01*
X16309286Y-10128000D02*
X16299762Y-10080381D01*
X16299762Y-10080381D02*
X16299762Y-10042286D01*
X16299762Y-10042286D02*
X16309286Y-9994667D01*
X16309286Y-9994667D02*
X16318810Y-9966095D01*
X16318810Y-9966095D02*
X16328334Y-9947048D01*
X16328334Y-9947048D02*
X16347381Y-9918476D01*
X16347381Y-9918476D02*
X16356905Y-9908952D01*
X16518810Y-9937524D02*
X16480714Y-9937524D01*
X16480714Y-9937524D02*
X16461667Y-9947048D01*
X16461667Y-9947048D02*
X16452143Y-9956571D01*
X16452143Y-9956571D02*
X16433095Y-9985143D01*
X16433095Y-9985143D02*
X16423572Y-10023238D01*
X16423572Y-10023238D02*
X16423572Y-10099429D01*
X16423572Y-10099429D02*
X16433095Y-10118476D01*
X16433095Y-10118476D02*
X16442619Y-10128000D01*
X16442619Y-10128000D02*
X16461667Y-10137524D01*
X16461667Y-10137524D02*
X16499762Y-10137524D01*
X16499762Y-10137524D02*
X16518810Y-10128000D01*
X16518810Y-10128000D02*
X16528334Y-10118476D01*
X16528334Y-10118476D02*
X16537857Y-10099429D01*
X16537857Y-10099429D02*
X16537857Y-10051810D01*
X16537857Y-10051810D02*
X16528334Y-10032762D01*
X16528334Y-10032762D02*
X16518810Y-10023238D01*
X16518810Y-10023238D02*
X16499762Y-10013714D01*
X16499762Y-10013714D02*
X16461667Y-10013714D01*
X16461667Y-10013714D02*
X16442619Y-10023238D01*
X16442619Y-10023238D02*
X16433095Y-10032762D01*
X16433095Y-10032762D02*
X16423572Y-10051810D01*
X16775953Y-10137524D02*
X16775953Y-9937524D01*
X16861667Y-10137524D02*
X16861667Y-10032762D01*
X16861667Y-10032762D02*
X16852143Y-10013714D01*
X16852143Y-10013714D02*
X16833096Y-10004190D01*
X16833096Y-10004190D02*
X16804524Y-10004190D01*
X16804524Y-10004190D02*
X16785477Y-10013714D01*
X16785477Y-10013714D02*
X16775953Y-10023238D01*
X16985477Y-10137524D02*
X16966429Y-10128000D01*
X16966429Y-10128000D02*
X16956905Y-10118476D01*
X16956905Y-10118476D02*
X16947381Y-10099429D01*
X16947381Y-10099429D02*
X16947381Y-10042286D01*
X16947381Y-10042286D02*
X16956905Y-10023238D01*
X16956905Y-10023238D02*
X16966429Y-10013714D01*
X16966429Y-10013714D02*
X16985477Y-10004190D01*
X16985477Y-10004190D02*
X17014048Y-10004190D01*
X17014048Y-10004190D02*
X17033096Y-10013714D01*
X17033096Y-10013714D02*
X17042619Y-10023238D01*
X17042619Y-10023238D02*
X17052143Y-10042286D01*
X17052143Y-10042286D02*
X17052143Y-10099429D01*
X17052143Y-10099429D02*
X17042619Y-10118476D01*
X17042619Y-10118476D02*
X17033096Y-10128000D01*
X17033096Y-10128000D02*
X17014048Y-10137524D01*
X17014048Y-10137524D02*
X16985477Y-10137524D01*
X17166429Y-10137524D02*
X17147381Y-10128000D01*
X17147381Y-10128000D02*
X17137858Y-10108952D01*
X17137858Y-10108952D02*
X17137858Y-9937524D01*
X17318810Y-10128000D02*
X17299762Y-10137524D01*
X17299762Y-10137524D02*
X17261667Y-10137524D01*
X17261667Y-10137524D02*
X17242619Y-10128000D01*
X17242619Y-10128000D02*
X17233096Y-10108952D01*
X17233096Y-10108952D02*
X17233096Y-10032762D01*
X17233096Y-10032762D02*
X17242619Y-10013714D01*
X17242619Y-10013714D02*
X17261667Y-10004190D01*
X17261667Y-10004190D02*
X17299762Y-10004190D01*
X17299762Y-10004190D02*
X17318810Y-10013714D01*
X17318810Y-10013714D02*
X17328334Y-10032762D01*
X17328334Y-10032762D02*
X17328334Y-10051810D01*
X17328334Y-10051810D02*
X17233096Y-10070857D01*
X17404524Y-10128000D02*
X17423572Y-10137524D01*
X17423572Y-10137524D02*
X17461667Y-10137524D01*
X17461667Y-10137524D02*
X17480715Y-10128000D01*
X17480715Y-10128000D02*
X17490239Y-10108952D01*
X17490239Y-10108952D02*
X17490239Y-10099429D01*
X17490239Y-10099429D02*
X17480715Y-10080381D01*
X17480715Y-10080381D02*
X17461667Y-10070857D01*
X17461667Y-10070857D02*
X17433096Y-10070857D01*
X17433096Y-10070857D02*
X17414048Y-10061333D01*
X17414048Y-10061333D02*
X17404524Y-10042286D01*
X17404524Y-10042286D02*
X17404524Y-10032762D01*
X17404524Y-10032762D02*
X17414048Y-10013714D01*
X17414048Y-10013714D02*
X17433096Y-10004190D01*
X17433096Y-10004190D02*
X17461667Y-10004190D01*
X17461667Y-10004190D02*
X17480715Y-10013714D01*
X17556905Y-10213714D02*
X17566429Y-10204190D01*
X17566429Y-10204190D02*
X17585477Y-10175619D01*
X17585477Y-10175619D02*
X17595000Y-10156571D01*
X17595000Y-10156571D02*
X17604524Y-10128000D01*
X17604524Y-10128000D02*
X17614048Y-10080381D01*
X17614048Y-10080381D02*
X17614048Y-10042286D01*
X17614048Y-10042286D02*
X17604524Y-9994667D01*
X17604524Y-9994667D02*
X17595000Y-9966095D01*
X17595000Y-9966095D02*
X17585477Y-9947048D01*
X17585477Y-9947048D02*
X17566429Y-9918476D01*
X17566429Y-9918476D02*
X17556905Y-9908952D01*
D10*
X12795000Y-10309000D02*
G75*
G03*
X12795000Y-10309000I-50000J0D01*
G01*
D11*
X13147381Y-10401524D02*
X13033095Y-10401524D01*
X13090238Y-10401524D02*
X13090238Y-10201524D01*
X13090238Y-10201524D02*
X13071190Y-10230095D01*
X13071190Y-10230095D02*
X13052143Y-10249143D01*
X13052143Y-10249143D02*
X13033095Y-10258667D01*
X13233095Y-10382476D02*
X13242619Y-10392000D01*
X13242619Y-10392000D02*
X13233095Y-10401524D01*
X13233095Y-10401524D02*
X13223571Y-10392000D01*
X13223571Y-10392000D02*
X13233095Y-10382476D01*
X13233095Y-10382476D02*
X13233095Y-10401524D01*
X13366428Y-10201524D02*
X13385476Y-10201524D01*
X13385476Y-10201524D02*
X13404524Y-10211048D01*
X13404524Y-10211048D02*
X13414048Y-10220571D01*
X13414048Y-10220571D02*
X13423571Y-10239619D01*
X13423571Y-10239619D02*
X13433095Y-10277714D01*
X13433095Y-10277714D02*
X13433095Y-10325333D01*
X13433095Y-10325333D02*
X13423571Y-10363429D01*
X13423571Y-10363429D02*
X13414048Y-10382476D01*
X13414048Y-10382476D02*
X13404524Y-10392000D01*
X13404524Y-10392000D02*
X13385476Y-10401524D01*
X13385476Y-10401524D02*
X13366428Y-10401524D01*
X13366428Y-10401524D02*
X13347381Y-10392000D01*
X13347381Y-10392000D02*
X13337857Y-10382476D01*
X13337857Y-10382476D02*
X13328333Y-10363429D01*
X13328333Y-10363429D02*
X13318809Y-10325333D01*
X13318809Y-10325333D02*
X13318809Y-10277714D01*
X13318809Y-10277714D02*
X13328333Y-10239619D01*
X13328333Y-10239619D02*
X13337857Y-10220571D01*
X13337857Y-10220571D02*
X13347381Y-10211048D01*
X13347381Y-10211048D02*
X13366428Y-10201524D01*
X13556905Y-10201524D02*
X13575952Y-10201524D01*
X13575952Y-10201524D02*
X13595000Y-10211048D01*
X13595000Y-10211048D02*
X13604524Y-10220571D01*
X13604524Y-10220571D02*
X13614048Y-10239619D01*
X13614048Y-10239619D02*
X13623571Y-10277714D01*
X13623571Y-10277714D02*
X13623571Y-10325333D01*
X13623571Y-10325333D02*
X13614048Y-10363429D01*
X13614048Y-10363429D02*
X13604524Y-10382476D01*
X13604524Y-10382476D02*
X13595000Y-10392000D01*
X13595000Y-10392000D02*
X13575952Y-10401524D01*
X13575952Y-10401524D02*
X13556905Y-10401524D01*
X13556905Y-10401524D02*
X13537857Y-10392000D01*
X13537857Y-10392000D02*
X13528333Y-10382476D01*
X13528333Y-10382476D02*
X13518809Y-10363429D01*
X13518809Y-10363429D02*
X13509286Y-10325333D01*
X13509286Y-10325333D02*
X13509286Y-10277714D01*
X13509286Y-10277714D02*
X13518809Y-10239619D01*
X13518809Y-10239619D02*
X13528333Y-10220571D01*
X13528333Y-10220571D02*
X13537857Y-10211048D01*
X13537857Y-10211048D02*
X13556905Y-10201524D01*
X13747381Y-10201524D02*
X13766429Y-10201524D01*
X13766429Y-10201524D02*
X13785476Y-10211048D01*
X13785476Y-10211048D02*
X13795000Y-10220571D01*
X13795000Y-10220571D02*
X13804524Y-10239619D01*
X13804524Y-10239619D02*
X13814048Y-10277714D01*
X13814048Y-10277714D02*
X13814048Y-10325333D01*
X13814048Y-10325333D02*
X13804524Y-10363429D01*
X13804524Y-10363429D02*
X13795000Y-10382476D01*
X13795000Y-10382476D02*
X13785476Y-10392000D01*
X13785476Y-10392000D02*
X13766429Y-10401524D01*
X13766429Y-10401524D02*
X13747381Y-10401524D01*
X13747381Y-10401524D02*
X13728333Y-10392000D01*
X13728333Y-10392000D02*
X13718809Y-10382476D01*
X13718809Y-10382476D02*
X13709286Y-10363429D01*
X13709286Y-10363429D02*
X13699762Y-10325333D01*
X13699762Y-10325333D02*
X13699762Y-10277714D01*
X13699762Y-10277714D02*
X13709286Y-10239619D01*
X13709286Y-10239619D02*
X13718809Y-10220571D01*
X13718809Y-10220571D02*
X13728333Y-10211048D01*
X13728333Y-10211048D02*
X13747381Y-10201524D01*
X13899762Y-10401524D02*
X13899762Y-10268190D01*
X13899762Y-10287238D02*
X13909286Y-10277714D01*
X13909286Y-10277714D02*
X13928333Y-10268190D01*
X13928333Y-10268190D02*
X13956905Y-10268190D01*
X13956905Y-10268190D02*
X13975952Y-10277714D01*
X13975952Y-10277714D02*
X13985476Y-10296762D01*
X13985476Y-10296762D02*
X13985476Y-10401524D01*
X13985476Y-10296762D02*
X13995000Y-10277714D01*
X13995000Y-10277714D02*
X14014048Y-10268190D01*
X14014048Y-10268190D02*
X14042619Y-10268190D01*
X14042619Y-10268190D02*
X14061667Y-10277714D01*
X14061667Y-10277714D02*
X14071190Y-10296762D01*
X14071190Y-10296762D02*
X14071190Y-10401524D01*
X14166429Y-10401524D02*
X14166429Y-10268190D01*
X14166429Y-10287238D02*
X14175952Y-10277714D01*
X14175952Y-10277714D02*
X14195000Y-10268190D01*
X14195000Y-10268190D02*
X14223571Y-10268190D01*
X14223571Y-10268190D02*
X14242619Y-10277714D01*
X14242619Y-10277714D02*
X14252143Y-10296762D01*
X14252143Y-10296762D02*
X14252143Y-10401524D01*
X14252143Y-10296762D02*
X14261667Y-10277714D01*
X14261667Y-10277714D02*
X14280714Y-10268190D01*
X14280714Y-10268190D02*
X14309286Y-10268190D01*
X14309286Y-10268190D02*
X14328333Y-10277714D01*
X14328333Y-10277714D02*
X14337857Y-10296762D01*
X14337857Y-10296762D02*
X14337857Y-10401524D01*
X14728333Y-10192000D02*
X14556905Y-10449143D01*
X14985476Y-10201524D02*
X15004524Y-10201524D01*
X15004524Y-10201524D02*
X15023572Y-10211048D01*
X15023572Y-10211048D02*
X15033095Y-10220571D01*
X15033095Y-10220571D02*
X15042619Y-10239619D01*
X15042619Y-10239619D02*
X15052143Y-10277714D01*
X15052143Y-10277714D02*
X15052143Y-10325333D01*
X15052143Y-10325333D02*
X15042619Y-10363429D01*
X15042619Y-10363429D02*
X15033095Y-10382476D01*
X15033095Y-10382476D02*
X15023572Y-10392000D01*
X15023572Y-10392000D02*
X15004524Y-10401524D01*
X15004524Y-10401524D02*
X14985476Y-10401524D01*
X14985476Y-10401524D02*
X14966429Y-10392000D01*
X14966429Y-10392000D02*
X14956905Y-10382476D01*
X14956905Y-10382476D02*
X14947381Y-10363429D01*
X14947381Y-10363429D02*
X14937857Y-10325333D01*
X14937857Y-10325333D02*
X14937857Y-10277714D01*
X14937857Y-10277714D02*
X14947381Y-10239619D01*
X14947381Y-10239619D02*
X14956905Y-10220571D01*
X14956905Y-10220571D02*
X14966429Y-10211048D01*
X14966429Y-10211048D02*
X14985476Y-10201524D01*
X15137857Y-10382476D02*
X15147381Y-10392000D01*
X15147381Y-10392000D02*
X15137857Y-10401524D01*
X15137857Y-10401524D02*
X15128333Y-10392000D01*
X15128333Y-10392000D02*
X15137857Y-10382476D01*
X15137857Y-10382476D02*
X15137857Y-10401524D01*
X15271191Y-10201524D02*
X15290238Y-10201524D01*
X15290238Y-10201524D02*
X15309286Y-10211048D01*
X15309286Y-10211048D02*
X15318810Y-10220571D01*
X15318810Y-10220571D02*
X15328333Y-10239619D01*
X15328333Y-10239619D02*
X15337857Y-10277714D01*
X15337857Y-10277714D02*
X15337857Y-10325333D01*
X15337857Y-10325333D02*
X15328333Y-10363429D01*
X15328333Y-10363429D02*
X15318810Y-10382476D01*
X15318810Y-10382476D02*
X15309286Y-10392000D01*
X15309286Y-10392000D02*
X15290238Y-10401524D01*
X15290238Y-10401524D02*
X15271191Y-10401524D01*
X15271191Y-10401524D02*
X15252143Y-10392000D01*
X15252143Y-10392000D02*
X15242619Y-10382476D01*
X15242619Y-10382476D02*
X15233095Y-10363429D01*
X15233095Y-10363429D02*
X15223572Y-10325333D01*
X15223572Y-10325333D02*
X15223572Y-10277714D01*
X15223572Y-10277714D02*
X15233095Y-10239619D01*
X15233095Y-10239619D02*
X15242619Y-10220571D01*
X15242619Y-10220571D02*
X15252143Y-10211048D01*
X15252143Y-10211048D02*
X15271191Y-10201524D01*
X15404524Y-10201524D02*
X15528333Y-10201524D01*
X15528333Y-10201524D02*
X15461667Y-10277714D01*
X15461667Y-10277714D02*
X15490238Y-10277714D01*
X15490238Y-10277714D02*
X15509286Y-10287238D01*
X15509286Y-10287238D02*
X15518810Y-10296762D01*
X15518810Y-10296762D02*
X15528333Y-10315810D01*
X15528333Y-10315810D02*
X15528333Y-10363429D01*
X15528333Y-10363429D02*
X15518810Y-10382476D01*
X15518810Y-10382476D02*
X15509286Y-10392000D01*
X15509286Y-10392000D02*
X15490238Y-10401524D01*
X15490238Y-10401524D02*
X15433095Y-10401524D01*
X15433095Y-10401524D02*
X15414048Y-10392000D01*
X15414048Y-10392000D02*
X15404524Y-10382476D01*
X15623572Y-10401524D02*
X15661667Y-10401524D01*
X15661667Y-10401524D02*
X15680714Y-10392000D01*
X15680714Y-10392000D02*
X15690238Y-10382476D01*
X15690238Y-10382476D02*
X15709286Y-10353905D01*
X15709286Y-10353905D02*
X15718810Y-10315810D01*
X15718810Y-10315810D02*
X15718810Y-10239619D01*
X15718810Y-10239619D02*
X15709286Y-10220571D01*
X15709286Y-10220571D02*
X15699762Y-10211048D01*
X15699762Y-10211048D02*
X15680714Y-10201524D01*
X15680714Y-10201524D02*
X15642619Y-10201524D01*
X15642619Y-10201524D02*
X15623572Y-10211048D01*
X15623572Y-10211048D02*
X15614048Y-10220571D01*
X15614048Y-10220571D02*
X15604524Y-10239619D01*
X15604524Y-10239619D02*
X15604524Y-10287238D01*
X15604524Y-10287238D02*
X15614048Y-10306286D01*
X15614048Y-10306286D02*
X15623572Y-10315810D01*
X15623572Y-10315810D02*
X15642619Y-10325333D01*
X15642619Y-10325333D02*
X15680714Y-10325333D01*
X15680714Y-10325333D02*
X15699762Y-10315810D01*
X15699762Y-10315810D02*
X15709286Y-10306286D01*
X15709286Y-10306286D02*
X15718810Y-10287238D01*
X15890238Y-10268190D02*
X15890238Y-10401524D01*
X15842619Y-10192000D02*
X15795000Y-10334857D01*
X15795000Y-10334857D02*
X15918810Y-10334857D01*
X15985476Y-10201524D02*
X15985476Y-10239619D01*
X16061667Y-10201524D02*
X16061667Y-10239619D01*
X16356905Y-10477714D02*
X16347381Y-10468190D01*
X16347381Y-10468190D02*
X16328334Y-10439619D01*
X16328334Y-10439619D02*
X16318810Y-10420571D01*
X16318810Y-10420571D02*
X16309286Y-10392000D01*
X16309286Y-10392000D02*
X16299762Y-10344381D01*
X16299762Y-10344381D02*
X16299762Y-10306286D01*
X16299762Y-10306286D02*
X16309286Y-10258667D01*
X16309286Y-10258667D02*
X16318810Y-10230095D01*
X16318810Y-10230095D02*
X16328334Y-10211048D01*
X16328334Y-10211048D02*
X16347381Y-10182476D01*
X16347381Y-10182476D02*
X16356905Y-10172952D01*
X16423572Y-10220571D02*
X16433095Y-10211048D01*
X16433095Y-10211048D02*
X16452143Y-10201524D01*
X16452143Y-10201524D02*
X16499762Y-10201524D01*
X16499762Y-10201524D02*
X16518810Y-10211048D01*
X16518810Y-10211048D02*
X16528334Y-10220571D01*
X16528334Y-10220571D02*
X16537857Y-10239619D01*
X16537857Y-10239619D02*
X16537857Y-10258667D01*
X16537857Y-10258667D02*
X16528334Y-10287238D01*
X16528334Y-10287238D02*
X16414048Y-10401524D01*
X16414048Y-10401524D02*
X16537857Y-10401524D01*
X16775953Y-10401524D02*
X16775953Y-10201524D01*
X16861667Y-10401524D02*
X16861667Y-10296762D01*
X16861667Y-10296762D02*
X16852143Y-10277714D01*
X16852143Y-10277714D02*
X16833096Y-10268190D01*
X16833096Y-10268190D02*
X16804524Y-10268190D01*
X16804524Y-10268190D02*
X16785477Y-10277714D01*
X16785477Y-10277714D02*
X16775953Y-10287238D01*
X16985477Y-10401524D02*
X16966429Y-10392000D01*
X16966429Y-10392000D02*
X16956905Y-10382476D01*
X16956905Y-10382476D02*
X16947381Y-10363429D01*
X16947381Y-10363429D02*
X16947381Y-10306286D01*
X16947381Y-10306286D02*
X16956905Y-10287238D01*
X16956905Y-10287238D02*
X16966429Y-10277714D01*
X16966429Y-10277714D02*
X16985477Y-10268190D01*
X16985477Y-10268190D02*
X17014048Y-10268190D01*
X17014048Y-10268190D02*
X17033096Y-10277714D01*
X17033096Y-10277714D02*
X17042619Y-10287238D01*
X17042619Y-10287238D02*
X17052143Y-10306286D01*
X17052143Y-10306286D02*
X17052143Y-10363429D01*
X17052143Y-10363429D02*
X17042619Y-10382476D01*
X17042619Y-10382476D02*
X17033096Y-10392000D01*
X17033096Y-10392000D02*
X17014048Y-10401524D01*
X17014048Y-10401524D02*
X16985477Y-10401524D01*
X17166429Y-10401524D02*
X17147381Y-10392000D01*
X17147381Y-10392000D02*
X17137858Y-10372952D01*
X17137858Y-10372952D02*
X17137858Y-10201524D01*
X17318810Y-10392000D02*
X17299762Y-10401524D01*
X17299762Y-10401524D02*
X17261667Y-10401524D01*
X17261667Y-10401524D02*
X17242619Y-10392000D01*
X17242619Y-10392000D02*
X17233096Y-10372952D01*
X17233096Y-10372952D02*
X17233096Y-10296762D01*
X17233096Y-10296762D02*
X17242619Y-10277714D01*
X17242619Y-10277714D02*
X17261667Y-10268190D01*
X17261667Y-10268190D02*
X17299762Y-10268190D01*
X17299762Y-10268190D02*
X17318810Y-10277714D01*
X17318810Y-10277714D02*
X17328334Y-10296762D01*
X17328334Y-10296762D02*
X17328334Y-10315810D01*
X17328334Y-10315810D02*
X17233096Y-10334857D01*
X17404524Y-10392000D02*
X17423572Y-10401524D01*
X17423572Y-10401524D02*
X17461667Y-10401524D01*
X17461667Y-10401524D02*
X17480715Y-10392000D01*
X17480715Y-10392000D02*
X17490239Y-10372952D01*
X17490239Y-10372952D02*
X17490239Y-10363429D01*
X17490239Y-10363429D02*
X17480715Y-10344381D01*
X17480715Y-10344381D02*
X17461667Y-10334857D01*
X17461667Y-10334857D02*
X17433096Y-10334857D01*
X17433096Y-10334857D02*
X17414048Y-10325333D01*
X17414048Y-10325333D02*
X17404524Y-10306286D01*
X17404524Y-10306286D02*
X17404524Y-10296762D01*
X17404524Y-10296762D02*
X17414048Y-10277714D01*
X17414048Y-10277714D02*
X17433096Y-10268190D01*
X17433096Y-10268190D02*
X17461667Y-10268190D01*
X17461667Y-10268190D02*
X17480715Y-10277714D01*
X17556905Y-10477714D02*
X17566429Y-10468190D01*
X17566429Y-10468190D02*
X17585477Y-10439619D01*
X17585477Y-10439619D02*
X17595000Y-10420571D01*
X17595000Y-10420571D02*
X17604524Y-10392000D01*
X17604524Y-10392000D02*
X17614048Y-10344381D01*
X17614048Y-10344381D02*
X17614048Y-10306286D01*
X17614048Y-10306286D02*
X17604524Y-10258667D01*
X17604524Y-10258667D02*
X17595000Y-10230095D01*
X17595000Y-10230095D02*
X17585477Y-10211048D01*
X17585477Y-10211048D02*
X17566429Y-10182476D01*
X17566429Y-10182476D02*
X17556905Y-10172952D01*
D13*
X12740000Y-10518000D02*
X12740000Y-10628000D01*
X12685000Y-10573000D02*
X12795000Y-10573000D01*
D11*
X13147381Y-10665524D02*
X13033095Y-10665524D01*
X13090238Y-10665524D02*
X13090238Y-10465524D01*
X13090238Y-10465524D02*
X13071190Y-10494095D01*
X13071190Y-10494095D02*
X13052143Y-10513143D01*
X13052143Y-10513143D02*
X13033095Y-10522667D01*
X13233095Y-10646476D02*
X13242619Y-10656000D01*
X13242619Y-10656000D02*
X13233095Y-10665524D01*
X13233095Y-10665524D02*
X13223571Y-10656000D01*
X13223571Y-10656000D02*
X13233095Y-10646476D01*
X13233095Y-10646476D02*
X13233095Y-10665524D01*
X13433095Y-10665524D02*
X13318809Y-10665524D01*
X13375952Y-10665524D02*
X13375952Y-10465524D01*
X13375952Y-10465524D02*
X13356905Y-10494095D01*
X13356905Y-10494095D02*
X13337857Y-10513143D01*
X13337857Y-10513143D02*
X13318809Y-10522667D01*
X13556905Y-10465524D02*
X13575952Y-10465524D01*
X13575952Y-10465524D02*
X13595000Y-10475048D01*
X13595000Y-10475048D02*
X13604524Y-10484571D01*
X13604524Y-10484571D02*
X13614048Y-10503619D01*
X13614048Y-10503619D02*
X13623571Y-10541714D01*
X13623571Y-10541714D02*
X13623571Y-10589333D01*
X13623571Y-10589333D02*
X13614048Y-10627429D01*
X13614048Y-10627429D02*
X13604524Y-10646476D01*
X13604524Y-10646476D02*
X13595000Y-10656000D01*
X13595000Y-10656000D02*
X13575952Y-10665524D01*
X13575952Y-10665524D02*
X13556905Y-10665524D01*
X13556905Y-10665524D02*
X13537857Y-10656000D01*
X13537857Y-10656000D02*
X13528333Y-10646476D01*
X13528333Y-10646476D02*
X13518809Y-10627429D01*
X13518809Y-10627429D02*
X13509286Y-10589333D01*
X13509286Y-10589333D02*
X13509286Y-10541714D01*
X13509286Y-10541714D02*
X13518809Y-10503619D01*
X13518809Y-10503619D02*
X13528333Y-10484571D01*
X13528333Y-10484571D02*
X13537857Y-10475048D01*
X13537857Y-10475048D02*
X13556905Y-10465524D01*
X13747381Y-10465524D02*
X13766429Y-10465524D01*
X13766429Y-10465524D02*
X13785476Y-10475048D01*
X13785476Y-10475048D02*
X13795000Y-10484571D01*
X13795000Y-10484571D02*
X13804524Y-10503619D01*
X13804524Y-10503619D02*
X13814048Y-10541714D01*
X13814048Y-10541714D02*
X13814048Y-10589333D01*
X13814048Y-10589333D02*
X13804524Y-10627429D01*
X13804524Y-10627429D02*
X13795000Y-10646476D01*
X13795000Y-10646476D02*
X13785476Y-10656000D01*
X13785476Y-10656000D02*
X13766429Y-10665524D01*
X13766429Y-10665524D02*
X13747381Y-10665524D01*
X13747381Y-10665524D02*
X13728333Y-10656000D01*
X13728333Y-10656000D02*
X13718809Y-10646476D01*
X13718809Y-10646476D02*
X13709286Y-10627429D01*
X13709286Y-10627429D02*
X13699762Y-10589333D01*
X13699762Y-10589333D02*
X13699762Y-10541714D01*
X13699762Y-10541714D02*
X13709286Y-10503619D01*
X13709286Y-10503619D02*
X13718809Y-10484571D01*
X13718809Y-10484571D02*
X13728333Y-10475048D01*
X13728333Y-10475048D02*
X13747381Y-10465524D01*
X13899762Y-10665524D02*
X13899762Y-10532190D01*
X13899762Y-10551238D02*
X13909286Y-10541714D01*
X13909286Y-10541714D02*
X13928333Y-10532190D01*
X13928333Y-10532190D02*
X13956905Y-10532190D01*
X13956905Y-10532190D02*
X13975952Y-10541714D01*
X13975952Y-10541714D02*
X13985476Y-10560762D01*
X13985476Y-10560762D02*
X13985476Y-10665524D01*
X13985476Y-10560762D02*
X13995000Y-10541714D01*
X13995000Y-10541714D02*
X14014048Y-10532190D01*
X14014048Y-10532190D02*
X14042619Y-10532190D01*
X14042619Y-10532190D02*
X14061667Y-10541714D01*
X14061667Y-10541714D02*
X14071190Y-10560762D01*
X14071190Y-10560762D02*
X14071190Y-10665524D01*
X14166429Y-10665524D02*
X14166429Y-10532190D01*
X14166429Y-10551238D02*
X14175952Y-10541714D01*
X14175952Y-10541714D02*
X14195000Y-10532190D01*
X14195000Y-10532190D02*
X14223571Y-10532190D01*
X14223571Y-10532190D02*
X14242619Y-10541714D01*
X14242619Y-10541714D02*
X14252143Y-10560762D01*
X14252143Y-10560762D02*
X14252143Y-10665524D01*
X14252143Y-10560762D02*
X14261667Y-10541714D01*
X14261667Y-10541714D02*
X14280714Y-10532190D01*
X14280714Y-10532190D02*
X14309286Y-10532190D01*
X14309286Y-10532190D02*
X14328333Y-10541714D01*
X14328333Y-10541714D02*
X14337857Y-10560762D01*
X14337857Y-10560762D02*
X14337857Y-10665524D01*
X14728333Y-10456000D02*
X14556905Y-10713143D01*
X14985476Y-10465524D02*
X15004524Y-10465524D01*
X15004524Y-10465524D02*
X15023572Y-10475048D01*
X15023572Y-10475048D02*
X15033095Y-10484571D01*
X15033095Y-10484571D02*
X15042619Y-10503619D01*
X15042619Y-10503619D02*
X15052143Y-10541714D01*
X15052143Y-10541714D02*
X15052143Y-10589333D01*
X15052143Y-10589333D02*
X15042619Y-10627429D01*
X15042619Y-10627429D02*
X15033095Y-10646476D01*
X15033095Y-10646476D02*
X15023572Y-10656000D01*
X15023572Y-10656000D02*
X15004524Y-10665524D01*
X15004524Y-10665524D02*
X14985476Y-10665524D01*
X14985476Y-10665524D02*
X14966429Y-10656000D01*
X14966429Y-10656000D02*
X14956905Y-10646476D01*
X14956905Y-10646476D02*
X14947381Y-10627429D01*
X14947381Y-10627429D02*
X14937857Y-10589333D01*
X14937857Y-10589333D02*
X14937857Y-10541714D01*
X14937857Y-10541714D02*
X14947381Y-10503619D01*
X14947381Y-10503619D02*
X14956905Y-10484571D01*
X14956905Y-10484571D02*
X14966429Y-10475048D01*
X14966429Y-10475048D02*
X14985476Y-10465524D01*
X15137857Y-10646476D02*
X15147381Y-10656000D01*
X15147381Y-10656000D02*
X15137857Y-10665524D01*
X15137857Y-10665524D02*
X15128333Y-10656000D01*
X15128333Y-10656000D02*
X15137857Y-10646476D01*
X15137857Y-10646476D02*
X15137857Y-10665524D01*
X15271191Y-10465524D02*
X15290238Y-10465524D01*
X15290238Y-10465524D02*
X15309286Y-10475048D01*
X15309286Y-10475048D02*
X15318810Y-10484571D01*
X15318810Y-10484571D02*
X15328333Y-10503619D01*
X15328333Y-10503619D02*
X15337857Y-10541714D01*
X15337857Y-10541714D02*
X15337857Y-10589333D01*
X15337857Y-10589333D02*
X15328333Y-10627429D01*
X15328333Y-10627429D02*
X15318810Y-10646476D01*
X15318810Y-10646476D02*
X15309286Y-10656000D01*
X15309286Y-10656000D02*
X15290238Y-10665524D01*
X15290238Y-10665524D02*
X15271191Y-10665524D01*
X15271191Y-10665524D02*
X15252143Y-10656000D01*
X15252143Y-10656000D02*
X15242619Y-10646476D01*
X15242619Y-10646476D02*
X15233095Y-10627429D01*
X15233095Y-10627429D02*
X15223572Y-10589333D01*
X15223572Y-10589333D02*
X15223572Y-10541714D01*
X15223572Y-10541714D02*
X15233095Y-10503619D01*
X15233095Y-10503619D02*
X15242619Y-10484571D01*
X15242619Y-10484571D02*
X15252143Y-10475048D01*
X15252143Y-10475048D02*
X15271191Y-10465524D01*
X15509286Y-10532190D02*
X15509286Y-10665524D01*
X15461667Y-10456000D02*
X15414048Y-10598857D01*
X15414048Y-10598857D02*
X15537857Y-10598857D01*
X15595000Y-10465524D02*
X15718810Y-10465524D01*
X15718810Y-10465524D02*
X15652143Y-10541714D01*
X15652143Y-10541714D02*
X15680714Y-10541714D01*
X15680714Y-10541714D02*
X15699762Y-10551238D01*
X15699762Y-10551238D02*
X15709286Y-10560762D01*
X15709286Y-10560762D02*
X15718810Y-10579810D01*
X15718810Y-10579810D02*
X15718810Y-10627429D01*
X15718810Y-10627429D02*
X15709286Y-10646476D01*
X15709286Y-10646476D02*
X15699762Y-10656000D01*
X15699762Y-10656000D02*
X15680714Y-10665524D01*
X15680714Y-10665524D02*
X15623572Y-10665524D01*
X15623572Y-10665524D02*
X15604524Y-10656000D01*
X15604524Y-10656000D02*
X15595000Y-10646476D01*
X15785476Y-10465524D02*
X15909286Y-10465524D01*
X15909286Y-10465524D02*
X15842619Y-10541714D01*
X15842619Y-10541714D02*
X15871191Y-10541714D01*
X15871191Y-10541714D02*
X15890238Y-10551238D01*
X15890238Y-10551238D02*
X15899762Y-10560762D01*
X15899762Y-10560762D02*
X15909286Y-10579810D01*
X15909286Y-10579810D02*
X15909286Y-10627429D01*
X15909286Y-10627429D02*
X15899762Y-10646476D01*
X15899762Y-10646476D02*
X15890238Y-10656000D01*
X15890238Y-10656000D02*
X15871191Y-10665524D01*
X15871191Y-10665524D02*
X15814048Y-10665524D01*
X15814048Y-10665524D02*
X15795000Y-10656000D01*
X15795000Y-10656000D02*
X15785476Y-10646476D01*
X15985476Y-10465524D02*
X15985476Y-10503619D01*
X16061667Y-10465524D02*
X16061667Y-10503619D01*
X16356905Y-10741714D02*
X16347381Y-10732190D01*
X16347381Y-10732190D02*
X16328334Y-10703619D01*
X16328334Y-10703619D02*
X16318810Y-10684571D01*
X16318810Y-10684571D02*
X16309286Y-10656000D01*
X16309286Y-10656000D02*
X16299762Y-10608381D01*
X16299762Y-10608381D02*
X16299762Y-10570286D01*
X16299762Y-10570286D02*
X16309286Y-10522667D01*
X16309286Y-10522667D02*
X16318810Y-10494095D01*
X16318810Y-10494095D02*
X16328334Y-10475048D01*
X16328334Y-10475048D02*
X16347381Y-10446476D01*
X16347381Y-10446476D02*
X16356905Y-10436952D01*
X16414048Y-10465524D02*
X16537857Y-10465524D01*
X16537857Y-10465524D02*
X16471191Y-10541714D01*
X16471191Y-10541714D02*
X16499762Y-10541714D01*
X16499762Y-10541714D02*
X16518810Y-10551238D01*
X16518810Y-10551238D02*
X16528334Y-10560762D01*
X16528334Y-10560762D02*
X16537857Y-10579810D01*
X16537857Y-10579810D02*
X16537857Y-10627429D01*
X16537857Y-10627429D02*
X16528334Y-10646476D01*
X16528334Y-10646476D02*
X16518810Y-10656000D01*
X16518810Y-10656000D02*
X16499762Y-10665524D01*
X16499762Y-10665524D02*
X16442619Y-10665524D01*
X16442619Y-10665524D02*
X16423572Y-10656000D01*
X16423572Y-10656000D02*
X16414048Y-10646476D01*
X16775953Y-10665524D02*
X16775953Y-10465524D01*
X16861667Y-10665524D02*
X16861667Y-10560762D01*
X16861667Y-10560762D02*
X16852143Y-10541714D01*
X16852143Y-10541714D02*
X16833096Y-10532190D01*
X16833096Y-10532190D02*
X16804524Y-10532190D01*
X16804524Y-10532190D02*
X16785477Y-10541714D01*
X16785477Y-10541714D02*
X16775953Y-10551238D01*
X16985477Y-10665524D02*
X16966429Y-10656000D01*
X16966429Y-10656000D02*
X16956905Y-10646476D01*
X16956905Y-10646476D02*
X16947381Y-10627429D01*
X16947381Y-10627429D02*
X16947381Y-10570286D01*
X16947381Y-10570286D02*
X16956905Y-10551238D01*
X16956905Y-10551238D02*
X16966429Y-10541714D01*
X16966429Y-10541714D02*
X16985477Y-10532190D01*
X16985477Y-10532190D02*
X17014048Y-10532190D01*
X17014048Y-10532190D02*
X17033096Y-10541714D01*
X17033096Y-10541714D02*
X17042619Y-10551238D01*
X17042619Y-10551238D02*
X17052143Y-10570286D01*
X17052143Y-10570286D02*
X17052143Y-10627429D01*
X17052143Y-10627429D02*
X17042619Y-10646476D01*
X17042619Y-10646476D02*
X17033096Y-10656000D01*
X17033096Y-10656000D02*
X17014048Y-10665524D01*
X17014048Y-10665524D02*
X16985477Y-10665524D01*
X17166429Y-10665524D02*
X17147381Y-10656000D01*
X17147381Y-10656000D02*
X17137858Y-10636952D01*
X17137858Y-10636952D02*
X17137858Y-10465524D01*
X17318810Y-10656000D02*
X17299762Y-10665524D01*
X17299762Y-10665524D02*
X17261667Y-10665524D01*
X17261667Y-10665524D02*
X17242619Y-10656000D01*
X17242619Y-10656000D02*
X17233096Y-10636952D01*
X17233096Y-10636952D02*
X17233096Y-10560762D01*
X17233096Y-10560762D02*
X17242619Y-10541714D01*
X17242619Y-10541714D02*
X17261667Y-10532190D01*
X17261667Y-10532190D02*
X17299762Y-10532190D01*
X17299762Y-10532190D02*
X17318810Y-10541714D01*
X17318810Y-10541714D02*
X17328334Y-10560762D01*
X17328334Y-10560762D02*
X17328334Y-10579810D01*
X17328334Y-10579810D02*
X17233096Y-10598857D01*
X17404524Y-10656000D02*
X17423572Y-10665524D01*
X17423572Y-10665524D02*
X17461667Y-10665524D01*
X17461667Y-10665524D02*
X17480715Y-10656000D01*
X17480715Y-10656000D02*
X17490239Y-10636952D01*
X17490239Y-10636952D02*
X17490239Y-10627429D01*
X17490239Y-10627429D02*
X17480715Y-10608381D01*
X17480715Y-10608381D02*
X17461667Y-10598857D01*
X17461667Y-10598857D02*
X17433096Y-10598857D01*
X17433096Y-10598857D02*
X17414048Y-10589333D01*
X17414048Y-10589333D02*
X17404524Y-10570286D01*
X17404524Y-10570286D02*
X17404524Y-10560762D01*
X17404524Y-10560762D02*
X17414048Y-10541714D01*
X17414048Y-10541714D02*
X17433096Y-10532190D01*
X17433096Y-10532190D02*
X17461667Y-10532190D01*
X17461667Y-10532190D02*
X17480715Y-10541714D01*
X17556905Y-10741714D02*
X17566429Y-10732190D01*
X17566429Y-10732190D02*
X17585477Y-10703619D01*
X17585477Y-10703619D02*
X17595000Y-10684571D01*
X17595000Y-10684571D02*
X17604524Y-10656000D01*
X17604524Y-10656000D02*
X17614048Y-10608381D01*
X17614048Y-10608381D02*
X17614048Y-10570286D01*
X17614048Y-10570286D02*
X17604524Y-10522667D01*
X17604524Y-10522667D02*
X17595000Y-10494095D01*
X17595000Y-10494095D02*
X17585477Y-10475048D01*
X17585477Y-10475048D02*
X17566429Y-10446476D01*
X17566429Y-10446476D02*
X17556905Y-10436952D01*
D14*
X12772741Y-10890741D02*
X12772741Y-10783259D01*
X12665259Y-10783259D01*
X12665259Y-10890741D01*
X12772741Y-10890741D01*
D11*
X13147381Y-10929524D02*
X13033095Y-10929524D01*
X13090238Y-10929524D02*
X13090238Y-10729524D01*
X13090238Y-10729524D02*
X13071190Y-10758095D01*
X13071190Y-10758095D02*
X13052143Y-10777143D01*
X13052143Y-10777143D02*
X13033095Y-10786667D01*
X13233095Y-10910476D02*
X13242619Y-10920000D01*
X13242619Y-10920000D02*
X13233095Y-10929524D01*
X13233095Y-10929524D02*
X13223571Y-10920000D01*
X13223571Y-10920000D02*
X13233095Y-10910476D01*
X13233095Y-10910476D02*
X13233095Y-10929524D01*
X13423571Y-10729524D02*
X13328333Y-10729524D01*
X13328333Y-10729524D02*
X13318809Y-10824762D01*
X13318809Y-10824762D02*
X13328333Y-10815238D01*
X13328333Y-10815238D02*
X13347381Y-10805714D01*
X13347381Y-10805714D02*
X13395000Y-10805714D01*
X13395000Y-10805714D02*
X13414048Y-10815238D01*
X13414048Y-10815238D02*
X13423571Y-10824762D01*
X13423571Y-10824762D02*
X13433095Y-10843810D01*
X13433095Y-10843810D02*
X13433095Y-10891429D01*
X13433095Y-10891429D02*
X13423571Y-10910476D01*
X13423571Y-10910476D02*
X13414048Y-10920000D01*
X13414048Y-10920000D02*
X13395000Y-10929524D01*
X13395000Y-10929524D02*
X13347381Y-10929524D01*
X13347381Y-10929524D02*
X13328333Y-10920000D01*
X13328333Y-10920000D02*
X13318809Y-10910476D01*
X13509286Y-10748571D02*
X13518809Y-10739048D01*
X13518809Y-10739048D02*
X13537857Y-10729524D01*
X13537857Y-10729524D02*
X13585476Y-10729524D01*
X13585476Y-10729524D02*
X13604524Y-10739048D01*
X13604524Y-10739048D02*
X13614048Y-10748571D01*
X13614048Y-10748571D02*
X13623571Y-10767619D01*
X13623571Y-10767619D02*
X13623571Y-10786667D01*
X13623571Y-10786667D02*
X13614048Y-10815238D01*
X13614048Y-10815238D02*
X13499762Y-10929524D01*
X13499762Y-10929524D02*
X13623571Y-10929524D01*
X13747381Y-10729524D02*
X13766429Y-10729524D01*
X13766429Y-10729524D02*
X13785476Y-10739048D01*
X13785476Y-10739048D02*
X13795000Y-10748571D01*
X13795000Y-10748571D02*
X13804524Y-10767619D01*
X13804524Y-10767619D02*
X13814048Y-10805714D01*
X13814048Y-10805714D02*
X13814048Y-10853333D01*
X13814048Y-10853333D02*
X13804524Y-10891429D01*
X13804524Y-10891429D02*
X13795000Y-10910476D01*
X13795000Y-10910476D02*
X13785476Y-10920000D01*
X13785476Y-10920000D02*
X13766429Y-10929524D01*
X13766429Y-10929524D02*
X13747381Y-10929524D01*
X13747381Y-10929524D02*
X13728333Y-10920000D01*
X13728333Y-10920000D02*
X13718809Y-10910476D01*
X13718809Y-10910476D02*
X13709286Y-10891429D01*
X13709286Y-10891429D02*
X13699762Y-10853333D01*
X13699762Y-10853333D02*
X13699762Y-10805714D01*
X13699762Y-10805714D02*
X13709286Y-10767619D01*
X13709286Y-10767619D02*
X13718809Y-10748571D01*
X13718809Y-10748571D02*
X13728333Y-10739048D01*
X13728333Y-10739048D02*
X13747381Y-10729524D01*
X13899762Y-10929524D02*
X13899762Y-10796190D01*
X13899762Y-10815238D02*
X13909286Y-10805714D01*
X13909286Y-10805714D02*
X13928333Y-10796190D01*
X13928333Y-10796190D02*
X13956905Y-10796190D01*
X13956905Y-10796190D02*
X13975952Y-10805714D01*
X13975952Y-10805714D02*
X13985476Y-10824762D01*
X13985476Y-10824762D02*
X13985476Y-10929524D01*
X13985476Y-10824762D02*
X13995000Y-10805714D01*
X13995000Y-10805714D02*
X14014048Y-10796190D01*
X14014048Y-10796190D02*
X14042619Y-10796190D01*
X14042619Y-10796190D02*
X14061667Y-10805714D01*
X14061667Y-10805714D02*
X14071190Y-10824762D01*
X14071190Y-10824762D02*
X14071190Y-10929524D01*
X14166429Y-10929524D02*
X14166429Y-10796190D01*
X14166429Y-10815238D02*
X14175952Y-10805714D01*
X14175952Y-10805714D02*
X14195000Y-10796190D01*
X14195000Y-10796190D02*
X14223571Y-10796190D01*
X14223571Y-10796190D02*
X14242619Y-10805714D01*
X14242619Y-10805714D02*
X14252143Y-10824762D01*
X14252143Y-10824762D02*
X14252143Y-10929524D01*
X14252143Y-10824762D02*
X14261667Y-10805714D01*
X14261667Y-10805714D02*
X14280714Y-10796190D01*
X14280714Y-10796190D02*
X14309286Y-10796190D01*
X14309286Y-10796190D02*
X14328333Y-10805714D01*
X14328333Y-10805714D02*
X14337857Y-10824762D01*
X14337857Y-10824762D02*
X14337857Y-10929524D01*
X14728333Y-10720000D02*
X14556905Y-10977143D01*
X14985476Y-10729524D02*
X15004524Y-10729524D01*
X15004524Y-10729524D02*
X15023572Y-10739048D01*
X15023572Y-10739048D02*
X15033095Y-10748571D01*
X15033095Y-10748571D02*
X15042619Y-10767619D01*
X15042619Y-10767619D02*
X15052143Y-10805714D01*
X15052143Y-10805714D02*
X15052143Y-10853333D01*
X15052143Y-10853333D02*
X15042619Y-10891429D01*
X15042619Y-10891429D02*
X15033095Y-10910476D01*
X15033095Y-10910476D02*
X15023572Y-10920000D01*
X15023572Y-10920000D02*
X15004524Y-10929524D01*
X15004524Y-10929524D02*
X14985476Y-10929524D01*
X14985476Y-10929524D02*
X14966429Y-10920000D01*
X14966429Y-10920000D02*
X14956905Y-10910476D01*
X14956905Y-10910476D02*
X14947381Y-10891429D01*
X14947381Y-10891429D02*
X14937857Y-10853333D01*
X14937857Y-10853333D02*
X14937857Y-10805714D01*
X14937857Y-10805714D02*
X14947381Y-10767619D01*
X14947381Y-10767619D02*
X14956905Y-10748571D01*
X14956905Y-10748571D02*
X14966429Y-10739048D01*
X14966429Y-10739048D02*
X14985476Y-10729524D01*
X15137857Y-10910476D02*
X15147381Y-10920000D01*
X15147381Y-10920000D02*
X15137857Y-10929524D01*
X15137857Y-10929524D02*
X15128333Y-10920000D01*
X15128333Y-10920000D02*
X15137857Y-10910476D01*
X15137857Y-10910476D02*
X15137857Y-10929524D01*
X15271191Y-10729524D02*
X15290238Y-10729524D01*
X15290238Y-10729524D02*
X15309286Y-10739048D01*
X15309286Y-10739048D02*
X15318810Y-10748571D01*
X15318810Y-10748571D02*
X15328333Y-10767619D01*
X15328333Y-10767619D02*
X15337857Y-10805714D01*
X15337857Y-10805714D02*
X15337857Y-10853333D01*
X15337857Y-10853333D02*
X15328333Y-10891429D01*
X15328333Y-10891429D02*
X15318810Y-10910476D01*
X15318810Y-10910476D02*
X15309286Y-10920000D01*
X15309286Y-10920000D02*
X15290238Y-10929524D01*
X15290238Y-10929524D02*
X15271191Y-10929524D01*
X15271191Y-10929524D02*
X15252143Y-10920000D01*
X15252143Y-10920000D02*
X15242619Y-10910476D01*
X15242619Y-10910476D02*
X15233095Y-10891429D01*
X15233095Y-10891429D02*
X15223572Y-10853333D01*
X15223572Y-10853333D02*
X15223572Y-10805714D01*
X15223572Y-10805714D02*
X15233095Y-10767619D01*
X15233095Y-10767619D02*
X15242619Y-10748571D01*
X15242619Y-10748571D02*
X15252143Y-10739048D01*
X15252143Y-10739048D02*
X15271191Y-10729524D01*
X15518810Y-10729524D02*
X15423572Y-10729524D01*
X15423572Y-10729524D02*
X15414048Y-10824762D01*
X15414048Y-10824762D02*
X15423572Y-10815238D01*
X15423572Y-10815238D02*
X15442619Y-10805714D01*
X15442619Y-10805714D02*
X15490238Y-10805714D01*
X15490238Y-10805714D02*
X15509286Y-10815238D01*
X15509286Y-10815238D02*
X15518810Y-10824762D01*
X15518810Y-10824762D02*
X15528333Y-10843810D01*
X15528333Y-10843810D02*
X15528333Y-10891429D01*
X15528333Y-10891429D02*
X15518810Y-10910476D01*
X15518810Y-10910476D02*
X15509286Y-10920000D01*
X15509286Y-10920000D02*
X15490238Y-10929524D01*
X15490238Y-10929524D02*
X15442619Y-10929524D01*
X15442619Y-10929524D02*
X15423572Y-10920000D01*
X15423572Y-10920000D02*
X15414048Y-10910476D01*
X15623572Y-10929524D02*
X15661667Y-10929524D01*
X15661667Y-10929524D02*
X15680714Y-10920000D01*
X15680714Y-10920000D02*
X15690238Y-10910476D01*
X15690238Y-10910476D02*
X15709286Y-10881905D01*
X15709286Y-10881905D02*
X15718810Y-10843810D01*
X15718810Y-10843810D02*
X15718810Y-10767619D01*
X15718810Y-10767619D02*
X15709286Y-10748571D01*
X15709286Y-10748571D02*
X15699762Y-10739048D01*
X15699762Y-10739048D02*
X15680714Y-10729524D01*
X15680714Y-10729524D02*
X15642619Y-10729524D01*
X15642619Y-10729524D02*
X15623572Y-10739048D01*
X15623572Y-10739048D02*
X15614048Y-10748571D01*
X15614048Y-10748571D02*
X15604524Y-10767619D01*
X15604524Y-10767619D02*
X15604524Y-10815238D01*
X15604524Y-10815238D02*
X15614048Y-10834286D01*
X15614048Y-10834286D02*
X15623572Y-10843810D01*
X15623572Y-10843810D02*
X15642619Y-10853333D01*
X15642619Y-10853333D02*
X15680714Y-10853333D01*
X15680714Y-10853333D02*
X15699762Y-10843810D01*
X15699762Y-10843810D02*
X15709286Y-10834286D01*
X15709286Y-10834286D02*
X15718810Y-10815238D01*
X15833095Y-10815238D02*
X15814048Y-10805714D01*
X15814048Y-10805714D02*
X15804524Y-10796190D01*
X15804524Y-10796190D02*
X15795000Y-10777143D01*
X15795000Y-10777143D02*
X15795000Y-10767619D01*
X15795000Y-10767619D02*
X15804524Y-10748571D01*
X15804524Y-10748571D02*
X15814048Y-10739048D01*
X15814048Y-10739048D02*
X15833095Y-10729524D01*
X15833095Y-10729524D02*
X15871191Y-10729524D01*
X15871191Y-10729524D02*
X15890238Y-10739048D01*
X15890238Y-10739048D02*
X15899762Y-10748571D01*
X15899762Y-10748571D02*
X15909286Y-10767619D01*
X15909286Y-10767619D02*
X15909286Y-10777143D01*
X15909286Y-10777143D02*
X15899762Y-10796190D01*
X15899762Y-10796190D02*
X15890238Y-10805714D01*
X15890238Y-10805714D02*
X15871191Y-10815238D01*
X15871191Y-10815238D02*
X15833095Y-10815238D01*
X15833095Y-10815238D02*
X15814048Y-10824762D01*
X15814048Y-10824762D02*
X15804524Y-10834286D01*
X15804524Y-10834286D02*
X15795000Y-10853333D01*
X15795000Y-10853333D02*
X15795000Y-10891429D01*
X15795000Y-10891429D02*
X15804524Y-10910476D01*
X15804524Y-10910476D02*
X15814048Y-10920000D01*
X15814048Y-10920000D02*
X15833095Y-10929524D01*
X15833095Y-10929524D02*
X15871191Y-10929524D01*
X15871191Y-10929524D02*
X15890238Y-10920000D01*
X15890238Y-10920000D02*
X15899762Y-10910476D01*
X15899762Y-10910476D02*
X15909286Y-10891429D01*
X15909286Y-10891429D02*
X15909286Y-10853333D01*
X15909286Y-10853333D02*
X15899762Y-10834286D01*
X15899762Y-10834286D02*
X15890238Y-10824762D01*
X15890238Y-10824762D02*
X15871191Y-10815238D01*
X15985476Y-10729524D02*
X15985476Y-10767619D01*
X16061667Y-10729524D02*
X16061667Y-10767619D01*
X16356905Y-11005714D02*
X16347381Y-10996190D01*
X16347381Y-10996190D02*
X16328334Y-10967619D01*
X16328334Y-10967619D02*
X16318810Y-10948571D01*
X16318810Y-10948571D02*
X16309286Y-10920000D01*
X16309286Y-10920000D02*
X16299762Y-10872381D01*
X16299762Y-10872381D02*
X16299762Y-10834286D01*
X16299762Y-10834286D02*
X16309286Y-10786667D01*
X16309286Y-10786667D02*
X16318810Y-10758095D01*
X16318810Y-10758095D02*
X16328334Y-10739048D01*
X16328334Y-10739048D02*
X16347381Y-10710476D01*
X16347381Y-10710476D02*
X16356905Y-10700952D01*
X16518810Y-10796190D02*
X16518810Y-10929524D01*
X16471191Y-10720000D02*
X16423572Y-10862857D01*
X16423572Y-10862857D02*
X16547381Y-10862857D01*
X16775953Y-10929524D02*
X16775953Y-10729524D01*
X16861667Y-10929524D02*
X16861667Y-10824762D01*
X16861667Y-10824762D02*
X16852143Y-10805714D01*
X16852143Y-10805714D02*
X16833096Y-10796190D01*
X16833096Y-10796190D02*
X16804524Y-10796190D01*
X16804524Y-10796190D02*
X16785477Y-10805714D01*
X16785477Y-10805714D02*
X16775953Y-10815238D01*
X16985477Y-10929524D02*
X16966429Y-10920000D01*
X16966429Y-10920000D02*
X16956905Y-10910476D01*
X16956905Y-10910476D02*
X16947381Y-10891429D01*
X16947381Y-10891429D02*
X16947381Y-10834286D01*
X16947381Y-10834286D02*
X16956905Y-10815238D01*
X16956905Y-10815238D02*
X16966429Y-10805714D01*
X16966429Y-10805714D02*
X16985477Y-10796190D01*
X16985477Y-10796190D02*
X17014048Y-10796190D01*
X17014048Y-10796190D02*
X17033096Y-10805714D01*
X17033096Y-10805714D02*
X17042619Y-10815238D01*
X17042619Y-10815238D02*
X17052143Y-10834286D01*
X17052143Y-10834286D02*
X17052143Y-10891429D01*
X17052143Y-10891429D02*
X17042619Y-10910476D01*
X17042619Y-10910476D02*
X17033096Y-10920000D01*
X17033096Y-10920000D02*
X17014048Y-10929524D01*
X17014048Y-10929524D02*
X16985477Y-10929524D01*
X17166429Y-10929524D02*
X17147381Y-10920000D01*
X17147381Y-10920000D02*
X17137858Y-10900952D01*
X17137858Y-10900952D02*
X17137858Y-10729524D01*
X17318810Y-10920000D02*
X17299762Y-10929524D01*
X17299762Y-10929524D02*
X17261667Y-10929524D01*
X17261667Y-10929524D02*
X17242619Y-10920000D01*
X17242619Y-10920000D02*
X17233096Y-10900952D01*
X17233096Y-10900952D02*
X17233096Y-10824762D01*
X17233096Y-10824762D02*
X17242619Y-10805714D01*
X17242619Y-10805714D02*
X17261667Y-10796190D01*
X17261667Y-10796190D02*
X17299762Y-10796190D01*
X17299762Y-10796190D02*
X17318810Y-10805714D01*
X17318810Y-10805714D02*
X17328334Y-10824762D01*
X17328334Y-10824762D02*
X17328334Y-10843810D01*
X17328334Y-10843810D02*
X17233096Y-10862857D01*
X17404524Y-10920000D02*
X17423572Y-10929524D01*
X17423572Y-10929524D02*
X17461667Y-10929524D01*
X17461667Y-10929524D02*
X17480715Y-10920000D01*
X17480715Y-10920000D02*
X17490239Y-10900952D01*
X17490239Y-10900952D02*
X17490239Y-10891429D01*
X17490239Y-10891429D02*
X17480715Y-10872381D01*
X17480715Y-10872381D02*
X17461667Y-10862857D01*
X17461667Y-10862857D02*
X17433096Y-10862857D01*
X17433096Y-10862857D02*
X17414048Y-10853333D01*
X17414048Y-10853333D02*
X17404524Y-10834286D01*
X17404524Y-10834286D02*
X17404524Y-10824762D01*
X17404524Y-10824762D02*
X17414048Y-10805714D01*
X17414048Y-10805714D02*
X17433096Y-10796190D01*
X17433096Y-10796190D02*
X17461667Y-10796190D01*
X17461667Y-10796190D02*
X17480715Y-10805714D01*
X17556905Y-11005714D02*
X17566429Y-10996190D01*
X17566429Y-10996190D02*
X17585477Y-10967619D01*
X17585477Y-10967619D02*
X17595000Y-10948571D01*
X17595000Y-10948571D02*
X17604524Y-10920000D01*
X17604524Y-10920000D02*
X17614048Y-10872381D01*
X17614048Y-10872381D02*
X17614048Y-10834286D01*
X17614048Y-10834286D02*
X17604524Y-10786667D01*
X17604524Y-10786667D02*
X17595000Y-10758095D01*
X17595000Y-10758095D02*
X17585477Y-10739048D01*
X17585477Y-10739048D02*
X17566429Y-10710476D01*
X17566429Y-10710476D02*
X17556905Y-10700952D01*
M02*
