%TF.GenerationSoftware,KiCad,Pcbnew,7.0.2*%
%TF.CreationDate,2023-09-16T19:57:56+02:00*%
%TF.ProjectId,PowerBoard,506f7765-7242-46f6-9172-642e6b696361,rev?*%
%TF.SameCoordinates,Original*%
%TF.FileFunction,Drillmap*%
%TF.FilePolarity,Positive*%
%FSLAX45Y45*%
G04 Gerber Fmt 4.5, Leading zero omitted, Abs format (unit mm)*
G04 Created by KiCad (PCBNEW 7.0.2) date 2023-09-16 19:57:56*
%MOMM*%
%LPD*%
G01*
G04 APERTURE LIST*
%ADD10C,0.100000*%
%ADD11C,0.200000*%
%ADD12C,0.320000*%
G04 APERTURE END LIST*
D10*
X12800000Y-9000000D02*
X12800000Y-5400000D01*
X15500000Y-9400000D02*
X13200000Y-9400000D01*
X15900000Y-5400000D02*
X15900000Y-9000000D01*
X13200000Y-5000000D02*
X15500000Y-5000000D01*
X13200000Y-5000000D02*
G75*
G03*
X12800000Y-5400000I0J-400000D01*
G01*
X12800000Y-9000000D02*
G75*
G03*
X13200000Y-9400000I400000J0D01*
G01*
X15500000Y-9400000D02*
G75*
G03*
X15900000Y-9000000I0J400000D01*
G01*
X15900000Y-5400000D02*
G75*
G03*
X15500000Y-5000000I-400000J0D01*
G01*
D11*
D12*
X13040000Y-5240000D02*
X13360000Y-5560000D01*
X13360000Y-5240000D02*
X13040000Y-5560000D01*
X13040000Y-8840000D02*
X13360000Y-9160000D01*
X13360000Y-8840000D02*
X13040000Y-9160000D01*
X15340000Y-5240000D02*
X15660000Y-5560000D01*
X15660000Y-5240000D02*
X15340000Y-5560000D01*
X15340000Y-8840000D02*
X15660000Y-9160000D01*
X15660000Y-8840000D02*
X15340000Y-9160000D01*
D11*
X13042619Y-9717524D02*
X13042619Y-9517524D01*
X13042619Y-9517524D02*
X13090238Y-9517524D01*
X13090238Y-9517524D02*
X13118809Y-9527048D01*
X13118809Y-9527048D02*
X13137857Y-9546095D01*
X13137857Y-9546095D02*
X13147381Y-9565143D01*
X13147381Y-9565143D02*
X13156905Y-9603238D01*
X13156905Y-9603238D02*
X13156905Y-9631810D01*
X13156905Y-9631810D02*
X13147381Y-9669905D01*
X13147381Y-9669905D02*
X13137857Y-9688952D01*
X13137857Y-9688952D02*
X13118809Y-9708000D01*
X13118809Y-9708000D02*
X13090238Y-9717524D01*
X13090238Y-9717524D02*
X13042619Y-9717524D01*
X13242619Y-9717524D02*
X13242619Y-9584190D01*
X13242619Y-9622286D02*
X13252143Y-9603238D01*
X13252143Y-9603238D02*
X13261667Y-9593714D01*
X13261667Y-9593714D02*
X13280714Y-9584190D01*
X13280714Y-9584190D02*
X13299762Y-9584190D01*
X13366428Y-9717524D02*
X13366428Y-9584190D01*
X13366428Y-9517524D02*
X13356905Y-9527048D01*
X13356905Y-9527048D02*
X13366428Y-9536571D01*
X13366428Y-9536571D02*
X13375952Y-9527048D01*
X13375952Y-9527048D02*
X13366428Y-9517524D01*
X13366428Y-9517524D02*
X13366428Y-9536571D01*
X13490238Y-9717524D02*
X13471190Y-9708000D01*
X13471190Y-9708000D02*
X13461667Y-9688952D01*
X13461667Y-9688952D02*
X13461667Y-9517524D01*
X13595000Y-9717524D02*
X13575952Y-9708000D01*
X13575952Y-9708000D02*
X13566428Y-9688952D01*
X13566428Y-9688952D02*
X13566428Y-9517524D01*
X13823571Y-9717524D02*
X13823571Y-9517524D01*
X13823571Y-9517524D02*
X13890238Y-9660381D01*
X13890238Y-9660381D02*
X13956905Y-9517524D01*
X13956905Y-9517524D02*
X13956905Y-9717524D01*
X14137857Y-9717524D02*
X14137857Y-9612762D01*
X14137857Y-9612762D02*
X14128333Y-9593714D01*
X14128333Y-9593714D02*
X14109286Y-9584190D01*
X14109286Y-9584190D02*
X14071190Y-9584190D01*
X14071190Y-9584190D02*
X14052143Y-9593714D01*
X14137857Y-9708000D02*
X14118809Y-9717524D01*
X14118809Y-9717524D02*
X14071190Y-9717524D01*
X14071190Y-9717524D02*
X14052143Y-9708000D01*
X14052143Y-9708000D02*
X14042619Y-9688952D01*
X14042619Y-9688952D02*
X14042619Y-9669905D01*
X14042619Y-9669905D02*
X14052143Y-9650857D01*
X14052143Y-9650857D02*
X14071190Y-9641333D01*
X14071190Y-9641333D02*
X14118809Y-9641333D01*
X14118809Y-9641333D02*
X14137857Y-9631810D01*
X14233095Y-9584190D02*
X14233095Y-9784190D01*
X14233095Y-9593714D02*
X14252143Y-9584190D01*
X14252143Y-9584190D02*
X14290238Y-9584190D01*
X14290238Y-9584190D02*
X14309286Y-9593714D01*
X14309286Y-9593714D02*
X14318809Y-9603238D01*
X14318809Y-9603238D02*
X14328333Y-9622286D01*
X14328333Y-9622286D02*
X14328333Y-9679429D01*
X14328333Y-9679429D02*
X14318809Y-9698476D01*
X14318809Y-9698476D02*
X14309286Y-9708000D01*
X14309286Y-9708000D02*
X14290238Y-9717524D01*
X14290238Y-9717524D02*
X14252143Y-9717524D01*
X14252143Y-9717524D02*
X14233095Y-9708000D01*
X14414048Y-9698476D02*
X14423571Y-9708000D01*
X14423571Y-9708000D02*
X14414048Y-9717524D01*
X14414048Y-9717524D02*
X14404524Y-9708000D01*
X14404524Y-9708000D02*
X14414048Y-9698476D01*
X14414048Y-9698476D02*
X14414048Y-9717524D01*
X14414048Y-9593714D02*
X14423571Y-9603238D01*
X14423571Y-9603238D02*
X14414048Y-9612762D01*
X14414048Y-9612762D02*
X14404524Y-9603238D01*
X14404524Y-9603238D02*
X14414048Y-9593714D01*
X14414048Y-9593714D02*
X14414048Y-9612762D01*
X12595000Y-9945000D02*
X12795000Y-10145000D01*
X12795000Y-9945000D02*
X12595000Y-10145000D01*
X13023571Y-9937524D02*
X13147381Y-9937524D01*
X13147381Y-9937524D02*
X13080714Y-10013714D01*
X13080714Y-10013714D02*
X13109286Y-10013714D01*
X13109286Y-10013714D02*
X13128333Y-10023238D01*
X13128333Y-10023238D02*
X13137857Y-10032762D01*
X13137857Y-10032762D02*
X13147381Y-10051810D01*
X13147381Y-10051810D02*
X13147381Y-10099429D01*
X13147381Y-10099429D02*
X13137857Y-10118476D01*
X13137857Y-10118476D02*
X13128333Y-10128000D01*
X13128333Y-10128000D02*
X13109286Y-10137524D01*
X13109286Y-10137524D02*
X13052143Y-10137524D01*
X13052143Y-10137524D02*
X13033095Y-10128000D01*
X13033095Y-10128000D02*
X13023571Y-10118476D01*
X13233095Y-10118476D02*
X13242619Y-10128000D01*
X13242619Y-10128000D02*
X13233095Y-10137524D01*
X13233095Y-10137524D02*
X13223571Y-10128000D01*
X13223571Y-10128000D02*
X13233095Y-10118476D01*
X13233095Y-10118476D02*
X13233095Y-10137524D01*
X13318809Y-9956571D02*
X13328333Y-9947048D01*
X13328333Y-9947048D02*
X13347381Y-9937524D01*
X13347381Y-9937524D02*
X13395000Y-9937524D01*
X13395000Y-9937524D02*
X13414048Y-9947048D01*
X13414048Y-9947048D02*
X13423571Y-9956571D01*
X13423571Y-9956571D02*
X13433095Y-9975619D01*
X13433095Y-9975619D02*
X13433095Y-9994667D01*
X13433095Y-9994667D02*
X13423571Y-10023238D01*
X13423571Y-10023238D02*
X13309286Y-10137524D01*
X13309286Y-10137524D02*
X13433095Y-10137524D01*
X13556905Y-9937524D02*
X13575952Y-9937524D01*
X13575952Y-9937524D02*
X13595000Y-9947048D01*
X13595000Y-9947048D02*
X13604524Y-9956571D01*
X13604524Y-9956571D02*
X13614048Y-9975619D01*
X13614048Y-9975619D02*
X13623571Y-10013714D01*
X13623571Y-10013714D02*
X13623571Y-10061333D01*
X13623571Y-10061333D02*
X13614048Y-10099429D01*
X13614048Y-10099429D02*
X13604524Y-10118476D01*
X13604524Y-10118476D02*
X13595000Y-10128000D01*
X13595000Y-10128000D02*
X13575952Y-10137524D01*
X13575952Y-10137524D02*
X13556905Y-10137524D01*
X13556905Y-10137524D02*
X13537857Y-10128000D01*
X13537857Y-10128000D02*
X13528333Y-10118476D01*
X13528333Y-10118476D02*
X13518809Y-10099429D01*
X13518809Y-10099429D02*
X13509286Y-10061333D01*
X13509286Y-10061333D02*
X13509286Y-10013714D01*
X13509286Y-10013714D02*
X13518809Y-9975619D01*
X13518809Y-9975619D02*
X13528333Y-9956571D01*
X13528333Y-9956571D02*
X13537857Y-9947048D01*
X13537857Y-9947048D02*
X13556905Y-9937524D01*
X13747381Y-9937524D02*
X13766429Y-9937524D01*
X13766429Y-9937524D02*
X13785476Y-9947048D01*
X13785476Y-9947048D02*
X13795000Y-9956571D01*
X13795000Y-9956571D02*
X13804524Y-9975619D01*
X13804524Y-9975619D02*
X13814048Y-10013714D01*
X13814048Y-10013714D02*
X13814048Y-10061333D01*
X13814048Y-10061333D02*
X13804524Y-10099429D01*
X13804524Y-10099429D02*
X13795000Y-10118476D01*
X13795000Y-10118476D02*
X13785476Y-10128000D01*
X13785476Y-10128000D02*
X13766429Y-10137524D01*
X13766429Y-10137524D02*
X13747381Y-10137524D01*
X13747381Y-10137524D02*
X13728333Y-10128000D01*
X13728333Y-10128000D02*
X13718809Y-10118476D01*
X13718809Y-10118476D02*
X13709286Y-10099429D01*
X13709286Y-10099429D02*
X13699762Y-10061333D01*
X13699762Y-10061333D02*
X13699762Y-10013714D01*
X13699762Y-10013714D02*
X13709286Y-9975619D01*
X13709286Y-9975619D02*
X13718809Y-9956571D01*
X13718809Y-9956571D02*
X13728333Y-9947048D01*
X13728333Y-9947048D02*
X13747381Y-9937524D01*
X13899762Y-10137524D02*
X13899762Y-10004190D01*
X13899762Y-10023238D02*
X13909286Y-10013714D01*
X13909286Y-10013714D02*
X13928333Y-10004190D01*
X13928333Y-10004190D02*
X13956905Y-10004190D01*
X13956905Y-10004190D02*
X13975952Y-10013714D01*
X13975952Y-10013714D02*
X13985476Y-10032762D01*
X13985476Y-10032762D02*
X13985476Y-10137524D01*
X13985476Y-10032762D02*
X13995000Y-10013714D01*
X13995000Y-10013714D02*
X14014048Y-10004190D01*
X14014048Y-10004190D02*
X14042619Y-10004190D01*
X14042619Y-10004190D02*
X14061667Y-10013714D01*
X14061667Y-10013714D02*
X14071190Y-10032762D01*
X14071190Y-10032762D02*
X14071190Y-10137524D01*
X14166429Y-10137524D02*
X14166429Y-10004190D01*
X14166429Y-10023238D02*
X14175952Y-10013714D01*
X14175952Y-10013714D02*
X14195000Y-10004190D01*
X14195000Y-10004190D02*
X14223571Y-10004190D01*
X14223571Y-10004190D02*
X14242619Y-10013714D01*
X14242619Y-10013714D02*
X14252143Y-10032762D01*
X14252143Y-10032762D02*
X14252143Y-10137524D01*
X14252143Y-10032762D02*
X14261667Y-10013714D01*
X14261667Y-10013714D02*
X14280714Y-10004190D01*
X14280714Y-10004190D02*
X14309286Y-10004190D01*
X14309286Y-10004190D02*
X14328333Y-10013714D01*
X14328333Y-10013714D02*
X14337857Y-10032762D01*
X14337857Y-10032762D02*
X14337857Y-10137524D01*
X14728333Y-9928000D02*
X14556905Y-10185143D01*
X14985476Y-9937524D02*
X15004524Y-9937524D01*
X15004524Y-9937524D02*
X15023572Y-9947048D01*
X15023572Y-9947048D02*
X15033095Y-9956571D01*
X15033095Y-9956571D02*
X15042619Y-9975619D01*
X15042619Y-9975619D02*
X15052143Y-10013714D01*
X15052143Y-10013714D02*
X15052143Y-10061333D01*
X15052143Y-10061333D02*
X15042619Y-10099429D01*
X15042619Y-10099429D02*
X15033095Y-10118476D01*
X15033095Y-10118476D02*
X15023572Y-10128000D01*
X15023572Y-10128000D02*
X15004524Y-10137524D01*
X15004524Y-10137524D02*
X14985476Y-10137524D01*
X14985476Y-10137524D02*
X14966429Y-10128000D01*
X14966429Y-10128000D02*
X14956905Y-10118476D01*
X14956905Y-10118476D02*
X14947381Y-10099429D01*
X14947381Y-10099429D02*
X14937857Y-10061333D01*
X14937857Y-10061333D02*
X14937857Y-10013714D01*
X14937857Y-10013714D02*
X14947381Y-9975619D01*
X14947381Y-9975619D02*
X14956905Y-9956571D01*
X14956905Y-9956571D02*
X14966429Y-9947048D01*
X14966429Y-9947048D02*
X14985476Y-9937524D01*
X15137857Y-10118476D02*
X15147381Y-10128000D01*
X15147381Y-10128000D02*
X15137857Y-10137524D01*
X15137857Y-10137524D02*
X15128333Y-10128000D01*
X15128333Y-10128000D02*
X15137857Y-10118476D01*
X15137857Y-10118476D02*
X15137857Y-10137524D01*
X15337857Y-10137524D02*
X15223572Y-10137524D01*
X15280714Y-10137524D02*
X15280714Y-9937524D01*
X15280714Y-9937524D02*
X15261667Y-9966095D01*
X15261667Y-9966095D02*
X15242619Y-9985143D01*
X15242619Y-9985143D02*
X15223572Y-9994667D01*
X15414048Y-9956571D02*
X15423572Y-9947048D01*
X15423572Y-9947048D02*
X15442619Y-9937524D01*
X15442619Y-9937524D02*
X15490238Y-9937524D01*
X15490238Y-9937524D02*
X15509286Y-9947048D01*
X15509286Y-9947048D02*
X15518810Y-9956571D01*
X15518810Y-9956571D02*
X15528333Y-9975619D01*
X15528333Y-9975619D02*
X15528333Y-9994667D01*
X15528333Y-9994667D02*
X15518810Y-10023238D01*
X15518810Y-10023238D02*
X15404524Y-10137524D01*
X15404524Y-10137524D02*
X15528333Y-10137524D01*
X15699762Y-9937524D02*
X15661667Y-9937524D01*
X15661667Y-9937524D02*
X15642619Y-9947048D01*
X15642619Y-9947048D02*
X15633095Y-9956571D01*
X15633095Y-9956571D02*
X15614048Y-9985143D01*
X15614048Y-9985143D02*
X15604524Y-10023238D01*
X15604524Y-10023238D02*
X15604524Y-10099429D01*
X15604524Y-10099429D02*
X15614048Y-10118476D01*
X15614048Y-10118476D02*
X15623572Y-10128000D01*
X15623572Y-10128000D02*
X15642619Y-10137524D01*
X15642619Y-10137524D02*
X15680714Y-10137524D01*
X15680714Y-10137524D02*
X15699762Y-10128000D01*
X15699762Y-10128000D02*
X15709286Y-10118476D01*
X15709286Y-10118476D02*
X15718810Y-10099429D01*
X15718810Y-10099429D02*
X15718810Y-10051810D01*
X15718810Y-10051810D02*
X15709286Y-10032762D01*
X15709286Y-10032762D02*
X15699762Y-10023238D01*
X15699762Y-10023238D02*
X15680714Y-10013714D01*
X15680714Y-10013714D02*
X15642619Y-10013714D01*
X15642619Y-10013714D02*
X15623572Y-10023238D01*
X15623572Y-10023238D02*
X15614048Y-10032762D01*
X15614048Y-10032762D02*
X15604524Y-10051810D01*
X15842619Y-9937524D02*
X15861667Y-9937524D01*
X15861667Y-9937524D02*
X15880714Y-9947048D01*
X15880714Y-9947048D02*
X15890238Y-9956571D01*
X15890238Y-9956571D02*
X15899762Y-9975619D01*
X15899762Y-9975619D02*
X15909286Y-10013714D01*
X15909286Y-10013714D02*
X15909286Y-10061333D01*
X15909286Y-10061333D02*
X15899762Y-10099429D01*
X15899762Y-10099429D02*
X15890238Y-10118476D01*
X15890238Y-10118476D02*
X15880714Y-10128000D01*
X15880714Y-10128000D02*
X15861667Y-10137524D01*
X15861667Y-10137524D02*
X15842619Y-10137524D01*
X15842619Y-10137524D02*
X15823572Y-10128000D01*
X15823572Y-10128000D02*
X15814048Y-10118476D01*
X15814048Y-10118476D02*
X15804524Y-10099429D01*
X15804524Y-10099429D02*
X15795000Y-10061333D01*
X15795000Y-10061333D02*
X15795000Y-10013714D01*
X15795000Y-10013714D02*
X15804524Y-9975619D01*
X15804524Y-9975619D02*
X15814048Y-9956571D01*
X15814048Y-9956571D02*
X15823572Y-9947048D01*
X15823572Y-9947048D02*
X15842619Y-9937524D01*
X15985476Y-9937524D02*
X15985476Y-9975619D01*
X16061667Y-9937524D02*
X16061667Y-9975619D01*
X16356905Y-10213714D02*
X16347381Y-10204190D01*
X16347381Y-10204190D02*
X16328334Y-10175619D01*
X16328334Y-10175619D02*
X16318810Y-10156571D01*
X16318810Y-10156571D02*
X16309286Y-10128000D01*
X16309286Y-10128000D02*
X16299762Y-10080381D01*
X16299762Y-10080381D02*
X16299762Y-10042286D01*
X16299762Y-10042286D02*
X16309286Y-9994667D01*
X16309286Y-9994667D02*
X16318810Y-9966095D01*
X16318810Y-9966095D02*
X16328334Y-9947048D01*
X16328334Y-9947048D02*
X16347381Y-9918476D01*
X16347381Y-9918476D02*
X16356905Y-9908952D01*
X16518810Y-10004190D02*
X16518810Y-10137524D01*
X16471191Y-9928000D02*
X16423572Y-10070857D01*
X16423572Y-10070857D02*
X16547381Y-10070857D01*
X16775953Y-10137524D02*
X16775953Y-9937524D01*
X16861667Y-10137524D02*
X16861667Y-10032762D01*
X16861667Y-10032762D02*
X16852143Y-10013714D01*
X16852143Y-10013714D02*
X16833096Y-10004190D01*
X16833096Y-10004190D02*
X16804524Y-10004190D01*
X16804524Y-10004190D02*
X16785477Y-10013714D01*
X16785477Y-10013714D02*
X16775953Y-10023238D01*
X16985477Y-10137524D02*
X16966429Y-10128000D01*
X16966429Y-10128000D02*
X16956905Y-10118476D01*
X16956905Y-10118476D02*
X16947381Y-10099429D01*
X16947381Y-10099429D02*
X16947381Y-10042286D01*
X16947381Y-10042286D02*
X16956905Y-10023238D01*
X16956905Y-10023238D02*
X16966429Y-10013714D01*
X16966429Y-10013714D02*
X16985477Y-10004190D01*
X16985477Y-10004190D02*
X17014048Y-10004190D01*
X17014048Y-10004190D02*
X17033096Y-10013714D01*
X17033096Y-10013714D02*
X17042619Y-10023238D01*
X17042619Y-10023238D02*
X17052143Y-10042286D01*
X17052143Y-10042286D02*
X17052143Y-10099429D01*
X17052143Y-10099429D02*
X17042619Y-10118476D01*
X17042619Y-10118476D02*
X17033096Y-10128000D01*
X17033096Y-10128000D02*
X17014048Y-10137524D01*
X17014048Y-10137524D02*
X16985477Y-10137524D01*
X17166429Y-10137524D02*
X17147381Y-10128000D01*
X17147381Y-10128000D02*
X17137858Y-10108952D01*
X17137858Y-10108952D02*
X17137858Y-9937524D01*
X17318810Y-10128000D02*
X17299762Y-10137524D01*
X17299762Y-10137524D02*
X17261667Y-10137524D01*
X17261667Y-10137524D02*
X17242619Y-10128000D01*
X17242619Y-10128000D02*
X17233096Y-10108952D01*
X17233096Y-10108952D02*
X17233096Y-10032762D01*
X17233096Y-10032762D02*
X17242619Y-10013714D01*
X17242619Y-10013714D02*
X17261667Y-10004190D01*
X17261667Y-10004190D02*
X17299762Y-10004190D01*
X17299762Y-10004190D02*
X17318810Y-10013714D01*
X17318810Y-10013714D02*
X17328334Y-10032762D01*
X17328334Y-10032762D02*
X17328334Y-10051810D01*
X17328334Y-10051810D02*
X17233096Y-10070857D01*
X17404524Y-10128000D02*
X17423572Y-10137524D01*
X17423572Y-10137524D02*
X17461667Y-10137524D01*
X17461667Y-10137524D02*
X17480715Y-10128000D01*
X17480715Y-10128000D02*
X17490239Y-10108952D01*
X17490239Y-10108952D02*
X17490239Y-10099429D01*
X17490239Y-10099429D02*
X17480715Y-10080381D01*
X17480715Y-10080381D02*
X17461667Y-10070857D01*
X17461667Y-10070857D02*
X17433096Y-10070857D01*
X17433096Y-10070857D02*
X17414048Y-10061333D01*
X17414048Y-10061333D02*
X17404524Y-10042286D01*
X17404524Y-10042286D02*
X17404524Y-10032762D01*
X17404524Y-10032762D02*
X17414048Y-10013714D01*
X17414048Y-10013714D02*
X17433096Y-10004190D01*
X17433096Y-10004190D02*
X17461667Y-10004190D01*
X17461667Y-10004190D02*
X17480715Y-10013714D01*
X17556905Y-10213714D02*
X17566429Y-10204190D01*
X17566429Y-10204190D02*
X17585477Y-10175619D01*
X17585477Y-10175619D02*
X17595000Y-10156571D01*
X17595000Y-10156571D02*
X17604524Y-10128000D01*
X17604524Y-10128000D02*
X17614048Y-10080381D01*
X17614048Y-10080381D02*
X17614048Y-10042286D01*
X17614048Y-10042286D02*
X17604524Y-9994667D01*
X17604524Y-9994667D02*
X17595000Y-9966095D01*
X17595000Y-9966095D02*
X17585477Y-9947048D01*
X17585477Y-9947048D02*
X17566429Y-9918476D01*
X17566429Y-9918476D02*
X17556905Y-9908952D01*
X17918810Y-10213714D02*
X17909286Y-10204190D01*
X17909286Y-10204190D02*
X17890239Y-10175619D01*
X17890239Y-10175619D02*
X17880715Y-10156571D01*
X17880715Y-10156571D02*
X17871191Y-10128000D01*
X17871191Y-10128000D02*
X17861667Y-10080381D01*
X17861667Y-10080381D02*
X17861667Y-10042286D01*
X17861667Y-10042286D02*
X17871191Y-9994667D01*
X17871191Y-9994667D02*
X17880715Y-9966095D01*
X17880715Y-9966095D02*
X17890239Y-9947048D01*
X17890239Y-9947048D02*
X17909286Y-9918476D01*
X17909286Y-9918476D02*
X17918810Y-9908952D01*
X17995000Y-10004190D02*
X17995000Y-10137524D01*
X17995000Y-10023238D02*
X18004524Y-10013714D01*
X18004524Y-10013714D02*
X18023572Y-10004190D01*
X18023572Y-10004190D02*
X18052143Y-10004190D01*
X18052143Y-10004190D02*
X18071191Y-10013714D01*
X18071191Y-10013714D02*
X18080715Y-10032762D01*
X18080715Y-10032762D02*
X18080715Y-10137524D01*
X18204524Y-10137524D02*
X18185477Y-10128000D01*
X18185477Y-10128000D02*
X18175953Y-10118476D01*
X18175953Y-10118476D02*
X18166429Y-10099429D01*
X18166429Y-10099429D02*
X18166429Y-10042286D01*
X18166429Y-10042286D02*
X18175953Y-10023238D01*
X18175953Y-10023238D02*
X18185477Y-10013714D01*
X18185477Y-10013714D02*
X18204524Y-10004190D01*
X18204524Y-10004190D02*
X18233096Y-10004190D01*
X18233096Y-10004190D02*
X18252143Y-10013714D01*
X18252143Y-10013714D02*
X18261667Y-10023238D01*
X18261667Y-10023238D02*
X18271191Y-10042286D01*
X18271191Y-10042286D02*
X18271191Y-10099429D01*
X18271191Y-10099429D02*
X18261667Y-10118476D01*
X18261667Y-10118476D02*
X18252143Y-10128000D01*
X18252143Y-10128000D02*
X18233096Y-10137524D01*
X18233096Y-10137524D02*
X18204524Y-10137524D01*
X18328334Y-10004190D02*
X18404524Y-10004190D01*
X18356905Y-9937524D02*
X18356905Y-10108952D01*
X18356905Y-10108952D02*
X18366429Y-10128000D01*
X18366429Y-10128000D02*
X18385477Y-10137524D01*
X18385477Y-10137524D02*
X18404524Y-10137524D01*
X18623572Y-10004190D02*
X18623572Y-10204190D01*
X18623572Y-10013714D02*
X18642620Y-10004190D01*
X18642620Y-10004190D02*
X18680715Y-10004190D01*
X18680715Y-10004190D02*
X18699762Y-10013714D01*
X18699762Y-10013714D02*
X18709286Y-10023238D01*
X18709286Y-10023238D02*
X18718810Y-10042286D01*
X18718810Y-10042286D02*
X18718810Y-10099429D01*
X18718810Y-10099429D02*
X18709286Y-10118476D01*
X18709286Y-10118476D02*
X18699762Y-10128000D01*
X18699762Y-10128000D02*
X18680715Y-10137524D01*
X18680715Y-10137524D02*
X18642620Y-10137524D01*
X18642620Y-10137524D02*
X18623572Y-10128000D01*
X18833096Y-10137524D02*
X18814048Y-10128000D01*
X18814048Y-10128000D02*
X18804524Y-10108952D01*
X18804524Y-10108952D02*
X18804524Y-9937524D01*
X18995001Y-10137524D02*
X18995001Y-10032762D01*
X18995001Y-10032762D02*
X18985477Y-10013714D01*
X18985477Y-10013714D02*
X18966429Y-10004190D01*
X18966429Y-10004190D02*
X18928334Y-10004190D01*
X18928334Y-10004190D02*
X18909286Y-10013714D01*
X18995001Y-10128000D02*
X18975953Y-10137524D01*
X18975953Y-10137524D02*
X18928334Y-10137524D01*
X18928334Y-10137524D02*
X18909286Y-10128000D01*
X18909286Y-10128000D02*
X18899762Y-10108952D01*
X18899762Y-10108952D02*
X18899762Y-10089905D01*
X18899762Y-10089905D02*
X18909286Y-10070857D01*
X18909286Y-10070857D02*
X18928334Y-10061333D01*
X18928334Y-10061333D02*
X18975953Y-10061333D01*
X18975953Y-10061333D02*
X18995001Y-10051810D01*
X19061667Y-10004190D02*
X19137858Y-10004190D01*
X19090239Y-9937524D02*
X19090239Y-10108952D01*
X19090239Y-10108952D02*
X19099762Y-10128000D01*
X19099762Y-10128000D02*
X19118810Y-10137524D01*
X19118810Y-10137524D02*
X19137858Y-10137524D01*
X19280715Y-10128000D02*
X19261667Y-10137524D01*
X19261667Y-10137524D02*
X19223572Y-10137524D01*
X19223572Y-10137524D02*
X19204524Y-10128000D01*
X19204524Y-10128000D02*
X19195001Y-10108952D01*
X19195001Y-10108952D02*
X19195001Y-10032762D01*
X19195001Y-10032762D02*
X19204524Y-10013714D01*
X19204524Y-10013714D02*
X19223572Y-10004190D01*
X19223572Y-10004190D02*
X19261667Y-10004190D01*
X19261667Y-10004190D02*
X19280715Y-10013714D01*
X19280715Y-10013714D02*
X19290239Y-10032762D01*
X19290239Y-10032762D02*
X19290239Y-10051810D01*
X19290239Y-10051810D02*
X19195001Y-10070857D01*
X19461667Y-10137524D02*
X19461667Y-9937524D01*
X19461667Y-10128000D02*
X19442620Y-10137524D01*
X19442620Y-10137524D02*
X19404524Y-10137524D01*
X19404524Y-10137524D02*
X19385477Y-10128000D01*
X19385477Y-10128000D02*
X19375953Y-10118476D01*
X19375953Y-10118476D02*
X19366429Y-10099429D01*
X19366429Y-10099429D02*
X19366429Y-10042286D01*
X19366429Y-10042286D02*
X19375953Y-10023238D01*
X19375953Y-10023238D02*
X19385477Y-10013714D01*
X19385477Y-10013714D02*
X19404524Y-10004190D01*
X19404524Y-10004190D02*
X19442620Y-10004190D01*
X19442620Y-10004190D02*
X19461667Y-10013714D01*
X19537858Y-10213714D02*
X19547382Y-10204190D01*
X19547382Y-10204190D02*
X19566429Y-10175619D01*
X19566429Y-10175619D02*
X19575953Y-10156571D01*
X19575953Y-10156571D02*
X19585477Y-10128000D01*
X19585477Y-10128000D02*
X19595001Y-10080381D01*
X19595001Y-10080381D02*
X19595001Y-10042286D01*
X19595001Y-10042286D02*
X19585477Y-9994667D01*
X19585477Y-9994667D02*
X19575953Y-9966095D01*
X19575953Y-9966095D02*
X19566429Y-9947048D01*
X19566429Y-9947048D02*
X19547382Y-9918476D01*
X19547382Y-9918476D02*
X19537858Y-9908952D01*
M02*
