%TF.GenerationSoftware,KiCad,Pcbnew,7.0.2*%
%TF.CreationDate,2023-09-16T19:57:20+02:00*%
%TF.ProjectId,PowerBoard,506f7765-7242-46f6-9172-642e6b696361,rev?*%
%TF.SameCoordinates,Original*%
%TF.FileFunction,Legend,Top*%
%TF.FilePolarity,Positive*%
%FSLAX46Y46*%
G04 Gerber Fmt 4.6, Leading zero omitted, Abs format (unit mm)*
G04 Created by KiCad (PCBNEW 7.0.2) date 2023-09-16 19:57:20*
%MOMM*%
%LPD*%
G01*
G04 APERTURE LIST*
%ADD10C,0.150000*%
%ADD11C,0.120000*%
%ADD12C,1.400000*%
%ADD13O,1.400000X1.400000*%
%ADD14O,2.000000X1.905000*%
%ADD15R,2.000000X1.905000*%
%ADD16R,3.000000X3.000000*%
%ADD17C,3.000000*%
%ADD18R,1.700000X1.700000*%
%ADD19O,1.700000X1.700000*%
%ADD20C,3.200000*%
G04 APERTURE END LIST*
D10*
X138238095Y-84877619D02*
X138238095Y-83877619D01*
X138238095Y-83877619D02*
X138571428Y-84591904D01*
X138571428Y-84591904D02*
X138904761Y-83877619D01*
X138904761Y-83877619D02*
X138904761Y-84877619D01*
X139571428Y-83877619D02*
X139761904Y-83877619D01*
X139761904Y-83877619D02*
X139857142Y-83925238D01*
X139857142Y-83925238D02*
X139952380Y-84020476D01*
X139952380Y-84020476D02*
X139999999Y-84210952D01*
X139999999Y-84210952D02*
X139999999Y-84544285D01*
X139999999Y-84544285D02*
X139952380Y-84734761D01*
X139952380Y-84734761D02*
X139857142Y-84830000D01*
X139857142Y-84830000D02*
X139761904Y-84877619D01*
X139761904Y-84877619D02*
X139571428Y-84877619D01*
X139571428Y-84877619D02*
X139476190Y-84830000D01*
X139476190Y-84830000D02*
X139380952Y-84734761D01*
X139380952Y-84734761D02*
X139333333Y-84544285D01*
X139333333Y-84544285D02*
X139333333Y-84210952D01*
X139333333Y-84210952D02*
X139380952Y-84020476D01*
X139380952Y-84020476D02*
X139476190Y-83925238D01*
X139476190Y-83925238D02*
X139571428Y-83877619D01*
X140380952Y-84830000D02*
X140523809Y-84877619D01*
X140523809Y-84877619D02*
X140761904Y-84877619D01*
X140761904Y-84877619D02*
X140857142Y-84830000D01*
X140857142Y-84830000D02*
X140904761Y-84782380D01*
X140904761Y-84782380D02*
X140952380Y-84687142D01*
X140952380Y-84687142D02*
X140952380Y-84591904D01*
X140952380Y-84591904D02*
X140904761Y-84496666D01*
X140904761Y-84496666D02*
X140857142Y-84449047D01*
X140857142Y-84449047D02*
X140761904Y-84401428D01*
X140761904Y-84401428D02*
X140571428Y-84353809D01*
X140571428Y-84353809D02*
X140476190Y-84306190D01*
X140476190Y-84306190D02*
X140428571Y-84258571D01*
X140428571Y-84258571D02*
X140380952Y-84163333D01*
X140380952Y-84163333D02*
X140380952Y-84068095D01*
X140380952Y-84068095D02*
X140428571Y-83972857D01*
X140428571Y-83972857D02*
X140476190Y-83925238D01*
X140476190Y-83925238D02*
X140571428Y-83877619D01*
X140571428Y-83877619D02*
X140809523Y-83877619D01*
X140809523Y-83877619D02*
X140952380Y-83925238D01*
X141714285Y-84353809D02*
X141380952Y-84353809D01*
X141380952Y-84877619D02*
X141380952Y-83877619D01*
X141380952Y-83877619D02*
X141857142Y-83877619D01*
X142238095Y-84353809D02*
X142571428Y-84353809D01*
X142714285Y-84877619D02*
X142238095Y-84877619D01*
X142238095Y-84877619D02*
X142238095Y-83877619D01*
X142238095Y-83877619D02*
X142714285Y-83877619D01*
X143000000Y-83877619D02*
X143571428Y-83877619D01*
X143285714Y-84877619D02*
X143285714Y-83877619D01*
X144666667Y-84877619D02*
X144666667Y-83877619D01*
X144666667Y-84258571D02*
X144761905Y-84210952D01*
X144761905Y-84210952D02*
X144952381Y-84210952D01*
X144952381Y-84210952D02*
X145047619Y-84258571D01*
X145047619Y-84258571D02*
X145095238Y-84306190D01*
X145095238Y-84306190D02*
X145142857Y-84401428D01*
X145142857Y-84401428D02*
X145142857Y-84687142D01*
X145142857Y-84687142D02*
X145095238Y-84782380D01*
X145095238Y-84782380D02*
X145047619Y-84830000D01*
X145047619Y-84830000D02*
X144952381Y-84877619D01*
X144952381Y-84877619D02*
X144761905Y-84877619D01*
X144761905Y-84877619D02*
X144666667Y-84830000D01*
X145571429Y-84877619D02*
X145571429Y-84210952D01*
X145571429Y-84401428D02*
X145619048Y-84306190D01*
X145619048Y-84306190D02*
X145666667Y-84258571D01*
X145666667Y-84258571D02*
X145761905Y-84210952D01*
X145761905Y-84210952D02*
X145857143Y-84210952D01*
X146571429Y-84830000D02*
X146476191Y-84877619D01*
X146476191Y-84877619D02*
X146285715Y-84877619D01*
X146285715Y-84877619D02*
X146190477Y-84830000D01*
X146190477Y-84830000D02*
X146142858Y-84734761D01*
X146142858Y-84734761D02*
X146142858Y-84353809D01*
X146142858Y-84353809D02*
X146190477Y-84258571D01*
X146190477Y-84258571D02*
X146285715Y-84210952D01*
X146285715Y-84210952D02*
X146476191Y-84210952D01*
X146476191Y-84210952D02*
X146571429Y-84258571D01*
X146571429Y-84258571D02*
X146619048Y-84353809D01*
X146619048Y-84353809D02*
X146619048Y-84449047D01*
X146619048Y-84449047D02*
X146142858Y-84544285D01*
X147476191Y-84877619D02*
X147476191Y-84353809D01*
X147476191Y-84353809D02*
X147428572Y-84258571D01*
X147428572Y-84258571D02*
X147333334Y-84210952D01*
X147333334Y-84210952D02*
X147142858Y-84210952D01*
X147142858Y-84210952D02*
X147047620Y-84258571D01*
X147476191Y-84830000D02*
X147380953Y-84877619D01*
X147380953Y-84877619D02*
X147142858Y-84877619D01*
X147142858Y-84877619D02*
X147047620Y-84830000D01*
X147047620Y-84830000D02*
X147000001Y-84734761D01*
X147000001Y-84734761D02*
X147000001Y-84639523D01*
X147000001Y-84639523D02*
X147047620Y-84544285D01*
X147047620Y-84544285D02*
X147142858Y-84496666D01*
X147142858Y-84496666D02*
X147380953Y-84496666D01*
X147380953Y-84496666D02*
X147476191Y-84449047D01*
X147952382Y-84877619D02*
X147952382Y-83877619D01*
X148047620Y-84496666D02*
X148333334Y-84877619D01*
X148333334Y-84210952D02*
X147952382Y-84591904D01*
X148904763Y-84877619D02*
X148809525Y-84830000D01*
X148809525Y-84830000D02*
X148761906Y-84782380D01*
X148761906Y-84782380D02*
X148714287Y-84687142D01*
X148714287Y-84687142D02*
X148714287Y-84401428D01*
X148714287Y-84401428D02*
X148761906Y-84306190D01*
X148761906Y-84306190D02*
X148809525Y-84258571D01*
X148809525Y-84258571D02*
X148904763Y-84210952D01*
X148904763Y-84210952D02*
X149047620Y-84210952D01*
X149047620Y-84210952D02*
X149142858Y-84258571D01*
X149142858Y-84258571D02*
X149190477Y-84306190D01*
X149190477Y-84306190D02*
X149238096Y-84401428D01*
X149238096Y-84401428D02*
X149238096Y-84687142D01*
X149238096Y-84687142D02*
X149190477Y-84782380D01*
X149190477Y-84782380D02*
X149142858Y-84830000D01*
X149142858Y-84830000D02*
X149047620Y-84877619D01*
X149047620Y-84877619D02*
X148904763Y-84877619D01*
X150095239Y-84210952D02*
X150095239Y-84877619D01*
X149666668Y-84210952D02*
X149666668Y-84734761D01*
X149666668Y-84734761D02*
X149714287Y-84830000D01*
X149714287Y-84830000D02*
X149809525Y-84877619D01*
X149809525Y-84877619D02*
X149952382Y-84877619D01*
X149952382Y-84877619D02*
X150047620Y-84830000D01*
X150047620Y-84830000D02*
X150095239Y-84782380D01*
X150428573Y-84210952D02*
X150809525Y-84210952D01*
X150571430Y-83877619D02*
X150571430Y-84734761D01*
X150571430Y-84734761D02*
X150619049Y-84830000D01*
X150619049Y-84830000D02*
X150714287Y-84877619D01*
X150714287Y-84877619D02*
X150809525Y-84877619D01*
X151904764Y-84877619D02*
X151904764Y-83877619D01*
X151904764Y-84258571D02*
X152000002Y-84210952D01*
X152000002Y-84210952D02*
X152190478Y-84210952D01*
X152190478Y-84210952D02*
X152285716Y-84258571D01*
X152285716Y-84258571D02*
X152333335Y-84306190D01*
X152333335Y-84306190D02*
X152380954Y-84401428D01*
X152380954Y-84401428D02*
X152380954Y-84687142D01*
X152380954Y-84687142D02*
X152333335Y-84782380D01*
X152333335Y-84782380D02*
X152285716Y-84830000D01*
X152285716Y-84830000D02*
X152190478Y-84877619D01*
X152190478Y-84877619D02*
X152000002Y-84877619D01*
X152000002Y-84877619D02*
X151904764Y-84830000D01*
X152952383Y-84877619D02*
X152857145Y-84830000D01*
X152857145Y-84830000D02*
X152809526Y-84782380D01*
X152809526Y-84782380D02*
X152761907Y-84687142D01*
X152761907Y-84687142D02*
X152761907Y-84401428D01*
X152761907Y-84401428D02*
X152809526Y-84306190D01*
X152809526Y-84306190D02*
X152857145Y-84258571D01*
X152857145Y-84258571D02*
X152952383Y-84210952D01*
X152952383Y-84210952D02*
X153095240Y-84210952D01*
X153095240Y-84210952D02*
X153190478Y-84258571D01*
X153190478Y-84258571D02*
X153238097Y-84306190D01*
X153238097Y-84306190D02*
X153285716Y-84401428D01*
X153285716Y-84401428D02*
X153285716Y-84687142D01*
X153285716Y-84687142D02*
X153238097Y-84782380D01*
X153238097Y-84782380D02*
X153190478Y-84830000D01*
X153190478Y-84830000D02*
X153095240Y-84877619D01*
X153095240Y-84877619D02*
X152952383Y-84877619D01*
X154142859Y-84877619D02*
X154142859Y-84353809D01*
X154142859Y-84353809D02*
X154095240Y-84258571D01*
X154095240Y-84258571D02*
X154000002Y-84210952D01*
X154000002Y-84210952D02*
X153809526Y-84210952D01*
X153809526Y-84210952D02*
X153714288Y-84258571D01*
X154142859Y-84830000D02*
X154047621Y-84877619D01*
X154047621Y-84877619D02*
X153809526Y-84877619D01*
X153809526Y-84877619D02*
X153714288Y-84830000D01*
X153714288Y-84830000D02*
X153666669Y-84734761D01*
X153666669Y-84734761D02*
X153666669Y-84639523D01*
X153666669Y-84639523D02*
X153714288Y-84544285D01*
X153714288Y-84544285D02*
X153809526Y-84496666D01*
X153809526Y-84496666D02*
X154047621Y-84496666D01*
X154047621Y-84496666D02*
X154142859Y-84449047D01*
X154619050Y-84877619D02*
X154619050Y-84210952D01*
X154619050Y-84401428D02*
X154666669Y-84306190D01*
X154666669Y-84306190D02*
X154714288Y-84258571D01*
X154714288Y-84258571D02*
X154809526Y-84210952D01*
X154809526Y-84210952D02*
X154904764Y-84210952D01*
X155666669Y-84877619D02*
X155666669Y-83877619D01*
X155666669Y-84830000D02*
X155571431Y-84877619D01*
X155571431Y-84877619D02*
X155380955Y-84877619D01*
X155380955Y-84877619D02*
X155285717Y-84830000D01*
X155285717Y-84830000D02*
X155238098Y-84782380D01*
X155238098Y-84782380D02*
X155190479Y-84687142D01*
X155190479Y-84687142D02*
X155190479Y-84401428D01*
X155190479Y-84401428D02*
X155238098Y-84306190D01*
X155238098Y-84306190D02*
X155285717Y-84258571D01*
X155285717Y-84258571D02*
X155380955Y-84210952D01*
X155380955Y-84210952D02*
X155571431Y-84210952D01*
X155571431Y-84210952D02*
X155666669Y-84258571D01*
X142622380Y-56238095D02*
X143289047Y-56238095D01*
X143622380Y-56238095D02*
X143574761Y-56190476D01*
X143574761Y-56190476D02*
X143527142Y-56238095D01*
X143527142Y-56238095D02*
X143574761Y-56285714D01*
X143574761Y-56285714D02*
X143622380Y-56238095D01*
X143622380Y-56238095D02*
X143527142Y-56238095D01*
X143289047Y-56714285D02*
X142622380Y-56714285D01*
X143193809Y-56714285D02*
X143241428Y-56761904D01*
X143241428Y-56761904D02*
X143289047Y-56857142D01*
X143289047Y-56857142D02*
X143289047Y-56999999D01*
X143289047Y-56999999D02*
X143241428Y-57095237D01*
X143241428Y-57095237D02*
X143146190Y-57142856D01*
X143146190Y-57142856D02*
X142622380Y-57142856D01*
X143289047Y-57619047D02*
X142289047Y-57619047D01*
X143241428Y-57619047D02*
X143289047Y-57714285D01*
X143289047Y-57714285D02*
X143289047Y-57904761D01*
X143289047Y-57904761D02*
X143241428Y-57999999D01*
X143241428Y-57999999D02*
X143193809Y-58047618D01*
X143193809Y-58047618D02*
X143098571Y-58095237D01*
X143098571Y-58095237D02*
X142812857Y-58095237D01*
X142812857Y-58095237D02*
X142717619Y-58047618D01*
X142717619Y-58047618D02*
X142670000Y-57999999D01*
X142670000Y-57999999D02*
X142622380Y-57904761D01*
X142622380Y-57904761D02*
X142622380Y-57714285D01*
X142622380Y-57714285D02*
X142670000Y-57619047D01*
X143289047Y-58952380D02*
X142622380Y-58952380D01*
X143289047Y-58523809D02*
X142765238Y-58523809D01*
X142765238Y-58523809D02*
X142670000Y-58571428D01*
X142670000Y-58571428D02*
X142622380Y-58666666D01*
X142622380Y-58666666D02*
X142622380Y-58809523D01*
X142622380Y-58809523D02*
X142670000Y-58904761D01*
X142670000Y-58904761D02*
X142717619Y-58952380D01*
X143289047Y-59285714D02*
X143289047Y-59666666D01*
X143622380Y-59428571D02*
X142765238Y-59428571D01*
X142765238Y-59428571D02*
X142670000Y-59476190D01*
X142670000Y-59476190D02*
X142622380Y-59571428D01*
X142622380Y-59571428D02*
X142622380Y-59666666D01*
X146074761Y-56761904D02*
X146122380Y-56666666D01*
X146122380Y-56666666D02*
X146122380Y-56523809D01*
X146122380Y-56523809D02*
X146074761Y-56380952D01*
X146074761Y-56380952D02*
X145979523Y-56285714D01*
X145979523Y-56285714D02*
X145884285Y-56238095D01*
X145884285Y-56238095D02*
X145693809Y-56190476D01*
X145693809Y-56190476D02*
X145550952Y-56190476D01*
X145550952Y-56190476D02*
X145360476Y-56238095D01*
X145360476Y-56238095D02*
X145265238Y-56285714D01*
X145265238Y-56285714D02*
X145170000Y-56380952D01*
X145170000Y-56380952D02*
X145122380Y-56523809D01*
X145122380Y-56523809D02*
X145122380Y-56619047D01*
X145122380Y-56619047D02*
X145170000Y-56761904D01*
X145170000Y-56761904D02*
X145217619Y-56809523D01*
X145217619Y-56809523D02*
X145550952Y-56809523D01*
X145550952Y-56809523D02*
X145550952Y-56619047D01*
X145122380Y-57238095D02*
X146122380Y-57238095D01*
X146122380Y-57238095D02*
X145122380Y-57809523D01*
X145122380Y-57809523D02*
X146122380Y-57809523D01*
X145122380Y-58285714D02*
X146122380Y-58285714D01*
X146122380Y-58285714D02*
X146122380Y-58523809D01*
X146122380Y-58523809D02*
X146074761Y-58666666D01*
X146074761Y-58666666D02*
X145979523Y-58761904D01*
X145979523Y-58761904D02*
X145884285Y-58809523D01*
X145884285Y-58809523D02*
X145693809Y-58857142D01*
X145693809Y-58857142D02*
X145550952Y-58857142D01*
X145550952Y-58857142D02*
X145360476Y-58809523D01*
X145360476Y-58809523D02*
X145265238Y-58761904D01*
X145265238Y-58761904D02*
X145170000Y-58666666D01*
X145170000Y-58666666D02*
X145122380Y-58523809D01*
X145122380Y-58523809D02*
X145122380Y-58285714D01*
X137238095Y-81996666D02*
X138000000Y-81996666D01*
X137238095Y-76996666D02*
X138000000Y-76996666D01*
X137619047Y-77377619D02*
X137619047Y-76615714D01*
X137428571Y-78877619D02*
X137619047Y-78877619D01*
X137619047Y-78877619D02*
X137714285Y-78925238D01*
X137714285Y-78925238D02*
X137809523Y-79020476D01*
X137809523Y-79020476D02*
X137857142Y-79210952D01*
X137857142Y-79210952D02*
X137857142Y-79544285D01*
X137857142Y-79544285D02*
X137809523Y-79734761D01*
X137809523Y-79734761D02*
X137714285Y-79830000D01*
X137714285Y-79830000D02*
X137619047Y-79877619D01*
X137619047Y-79877619D02*
X137428571Y-79877619D01*
X137428571Y-79877619D02*
X137333333Y-79830000D01*
X137333333Y-79830000D02*
X137238095Y-79734761D01*
X137238095Y-79734761D02*
X137190476Y-79544285D01*
X137190476Y-79544285D02*
X137190476Y-79210952D01*
X137190476Y-79210952D02*
X137238095Y-79020476D01*
X137238095Y-79020476D02*
X137333333Y-78925238D01*
X137333333Y-78925238D02*
X137428571Y-78877619D01*
X138285714Y-78877619D02*
X138285714Y-79687142D01*
X138285714Y-79687142D02*
X138333333Y-79782380D01*
X138333333Y-79782380D02*
X138380952Y-79830000D01*
X138380952Y-79830000D02*
X138476190Y-79877619D01*
X138476190Y-79877619D02*
X138666666Y-79877619D01*
X138666666Y-79877619D02*
X138761904Y-79830000D01*
X138761904Y-79830000D02*
X138809523Y-79782380D01*
X138809523Y-79782380D02*
X138857142Y-79687142D01*
X138857142Y-79687142D02*
X138857142Y-78877619D01*
X139190476Y-78877619D02*
X139761904Y-78877619D01*
X139476190Y-79877619D02*
X139476190Y-78877619D01*
X137261904Y-62877619D02*
X136690476Y-62877619D01*
X136976190Y-62877619D02*
X136976190Y-61877619D01*
X136976190Y-61877619D02*
X136880952Y-62020476D01*
X136880952Y-62020476D02*
X136785714Y-62115714D01*
X136785714Y-62115714D02*
X136690476Y-62163333D01*
X137642857Y-61972857D02*
X137690476Y-61925238D01*
X137690476Y-61925238D02*
X137785714Y-61877619D01*
X137785714Y-61877619D02*
X138023809Y-61877619D01*
X138023809Y-61877619D02*
X138119047Y-61925238D01*
X138119047Y-61925238D02*
X138166666Y-61972857D01*
X138166666Y-61972857D02*
X138214285Y-62068095D01*
X138214285Y-62068095D02*
X138214285Y-62163333D01*
X138214285Y-62163333D02*
X138166666Y-62306190D01*
X138166666Y-62306190D02*
X137595238Y-62877619D01*
X137595238Y-62877619D02*
X138214285Y-62877619D01*
X138500000Y-61877619D02*
X138833333Y-62877619D01*
X138833333Y-62877619D02*
X139166666Y-61877619D01*
X139500000Y-62496666D02*
X140261905Y-62496666D01*
X140642857Y-61877619D02*
X141261904Y-61877619D01*
X141261904Y-61877619D02*
X140928571Y-62258571D01*
X140928571Y-62258571D02*
X141071428Y-62258571D01*
X141071428Y-62258571D02*
X141166666Y-62306190D01*
X141166666Y-62306190D02*
X141214285Y-62353809D01*
X141214285Y-62353809D02*
X141261904Y-62449047D01*
X141261904Y-62449047D02*
X141261904Y-62687142D01*
X141261904Y-62687142D02*
X141214285Y-62782380D01*
X141214285Y-62782380D02*
X141166666Y-62830000D01*
X141166666Y-62830000D02*
X141071428Y-62877619D01*
X141071428Y-62877619D02*
X140785714Y-62877619D01*
X140785714Y-62877619D02*
X140690476Y-62830000D01*
X140690476Y-62830000D02*
X140642857Y-62782380D01*
X142119047Y-61877619D02*
X141928571Y-61877619D01*
X141928571Y-61877619D02*
X141833333Y-61925238D01*
X141833333Y-61925238D02*
X141785714Y-61972857D01*
X141785714Y-61972857D02*
X141690476Y-62115714D01*
X141690476Y-62115714D02*
X141642857Y-62306190D01*
X141642857Y-62306190D02*
X141642857Y-62687142D01*
X141642857Y-62687142D02*
X141690476Y-62782380D01*
X141690476Y-62782380D02*
X141738095Y-62830000D01*
X141738095Y-62830000D02*
X141833333Y-62877619D01*
X141833333Y-62877619D02*
X142023809Y-62877619D01*
X142023809Y-62877619D02*
X142119047Y-62830000D01*
X142119047Y-62830000D02*
X142166666Y-62782380D01*
X142166666Y-62782380D02*
X142214285Y-62687142D01*
X142214285Y-62687142D02*
X142214285Y-62449047D01*
X142214285Y-62449047D02*
X142166666Y-62353809D01*
X142166666Y-62353809D02*
X142119047Y-62306190D01*
X142119047Y-62306190D02*
X142023809Y-62258571D01*
X142023809Y-62258571D02*
X141833333Y-62258571D01*
X141833333Y-62258571D02*
X141738095Y-62306190D01*
X141738095Y-62306190D02*
X141690476Y-62353809D01*
X141690476Y-62353809D02*
X141642857Y-62449047D01*
X142500000Y-61877619D02*
X142833333Y-62877619D01*
X142833333Y-62877619D02*
X143166666Y-61877619D01*
X137261904Y-66925238D02*
X137166666Y-66877619D01*
X137166666Y-66877619D02*
X137023809Y-66877619D01*
X137023809Y-66877619D02*
X136880952Y-66925238D01*
X136880952Y-66925238D02*
X136785714Y-67020476D01*
X136785714Y-67020476D02*
X136738095Y-67115714D01*
X136738095Y-67115714D02*
X136690476Y-67306190D01*
X136690476Y-67306190D02*
X136690476Y-67449047D01*
X136690476Y-67449047D02*
X136738095Y-67639523D01*
X136738095Y-67639523D02*
X136785714Y-67734761D01*
X136785714Y-67734761D02*
X136880952Y-67830000D01*
X136880952Y-67830000D02*
X137023809Y-67877619D01*
X137023809Y-67877619D02*
X137119047Y-67877619D01*
X137119047Y-67877619D02*
X137261904Y-67830000D01*
X137261904Y-67830000D02*
X137309523Y-67782380D01*
X137309523Y-67782380D02*
X137309523Y-67449047D01*
X137309523Y-67449047D02*
X137119047Y-67449047D01*
X137738095Y-67877619D02*
X137738095Y-66877619D01*
X137738095Y-66877619D02*
X138309523Y-67877619D01*
X138309523Y-67877619D02*
X138309523Y-66877619D01*
X138785714Y-67877619D02*
X138785714Y-66877619D01*
X138785714Y-66877619D02*
X139023809Y-66877619D01*
X139023809Y-66877619D02*
X139166666Y-66925238D01*
X139166666Y-66925238D02*
X139261904Y-67020476D01*
X139261904Y-67020476D02*
X139309523Y-67115714D01*
X139309523Y-67115714D02*
X139357142Y-67306190D01*
X139357142Y-67306190D02*
X139357142Y-67449047D01*
X139357142Y-67449047D02*
X139309523Y-67639523D01*
X139309523Y-67639523D02*
X139261904Y-67734761D01*
X139261904Y-67734761D02*
X139166666Y-67830000D01*
X139166666Y-67830000D02*
X139023809Y-67877619D01*
X139023809Y-67877619D02*
X138785714Y-67877619D01*
%TO.C,R6*%
X143343333Y-74757619D02*
X143010000Y-74281428D01*
X142771905Y-74757619D02*
X142771905Y-73757619D01*
X142771905Y-73757619D02*
X143152857Y-73757619D01*
X143152857Y-73757619D02*
X143248095Y-73805238D01*
X143248095Y-73805238D02*
X143295714Y-73852857D01*
X143295714Y-73852857D02*
X143343333Y-73948095D01*
X143343333Y-73948095D02*
X143343333Y-74090952D01*
X143343333Y-74090952D02*
X143295714Y-74186190D01*
X143295714Y-74186190D02*
X143248095Y-74233809D01*
X143248095Y-74233809D02*
X143152857Y-74281428D01*
X143152857Y-74281428D02*
X142771905Y-74281428D01*
X144200476Y-73757619D02*
X144010000Y-73757619D01*
X144010000Y-73757619D02*
X143914762Y-73805238D01*
X143914762Y-73805238D02*
X143867143Y-73852857D01*
X143867143Y-73852857D02*
X143771905Y-73995714D01*
X143771905Y-73995714D02*
X143724286Y-74186190D01*
X143724286Y-74186190D02*
X143724286Y-74567142D01*
X143724286Y-74567142D02*
X143771905Y-74662380D01*
X143771905Y-74662380D02*
X143819524Y-74710000D01*
X143819524Y-74710000D02*
X143914762Y-74757619D01*
X143914762Y-74757619D02*
X144105238Y-74757619D01*
X144105238Y-74757619D02*
X144200476Y-74710000D01*
X144200476Y-74710000D02*
X144248095Y-74662380D01*
X144248095Y-74662380D02*
X144295714Y-74567142D01*
X144295714Y-74567142D02*
X144295714Y-74329047D01*
X144295714Y-74329047D02*
X144248095Y-74233809D01*
X144248095Y-74233809D02*
X144200476Y-74186190D01*
X144200476Y-74186190D02*
X144105238Y-74138571D01*
X144105238Y-74138571D02*
X143914762Y-74138571D01*
X143914762Y-74138571D02*
X143819524Y-74186190D01*
X143819524Y-74186190D02*
X143771905Y-74233809D01*
X143771905Y-74233809D02*
X143724286Y-74329047D01*
X146248571Y-74742619D02*
X145677143Y-74742619D01*
X145962857Y-74742619D02*
X145962857Y-73742619D01*
X145962857Y-73742619D02*
X145867619Y-73885476D01*
X145867619Y-73885476D02*
X145772381Y-73980714D01*
X145772381Y-73980714D02*
X145677143Y-74028333D01*
X146867619Y-73742619D02*
X146962857Y-73742619D01*
X146962857Y-73742619D02*
X147058095Y-73790238D01*
X147058095Y-73790238D02*
X147105714Y-73837857D01*
X147105714Y-73837857D02*
X147153333Y-73933095D01*
X147153333Y-73933095D02*
X147200952Y-74123571D01*
X147200952Y-74123571D02*
X147200952Y-74361666D01*
X147200952Y-74361666D02*
X147153333Y-74552142D01*
X147153333Y-74552142D02*
X147105714Y-74647380D01*
X147105714Y-74647380D02*
X147058095Y-74695000D01*
X147058095Y-74695000D02*
X146962857Y-74742619D01*
X146962857Y-74742619D02*
X146867619Y-74742619D01*
X146867619Y-74742619D02*
X146772381Y-74695000D01*
X146772381Y-74695000D02*
X146724762Y-74647380D01*
X146724762Y-74647380D02*
X146677143Y-74552142D01*
X146677143Y-74552142D02*
X146629524Y-74361666D01*
X146629524Y-74361666D02*
X146629524Y-74123571D01*
X146629524Y-74123571D02*
X146677143Y-73933095D01*
X146677143Y-73933095D02*
X146724762Y-73837857D01*
X146724762Y-73837857D02*
X146772381Y-73790238D01*
X146772381Y-73790238D02*
X146867619Y-73742619D01*
X147820000Y-73742619D02*
X147915238Y-73742619D01*
X147915238Y-73742619D02*
X148010476Y-73790238D01*
X148010476Y-73790238D02*
X148058095Y-73837857D01*
X148058095Y-73837857D02*
X148105714Y-73933095D01*
X148105714Y-73933095D02*
X148153333Y-74123571D01*
X148153333Y-74123571D02*
X148153333Y-74361666D01*
X148153333Y-74361666D02*
X148105714Y-74552142D01*
X148105714Y-74552142D02*
X148058095Y-74647380D01*
X148058095Y-74647380D02*
X148010476Y-74695000D01*
X148010476Y-74695000D02*
X147915238Y-74742619D01*
X147915238Y-74742619D02*
X147820000Y-74742619D01*
X147820000Y-74742619D02*
X147724762Y-74695000D01*
X147724762Y-74695000D02*
X147677143Y-74647380D01*
X147677143Y-74647380D02*
X147629524Y-74552142D01*
X147629524Y-74552142D02*
X147581905Y-74361666D01*
X147581905Y-74361666D02*
X147581905Y-74123571D01*
X147581905Y-74123571D02*
X147629524Y-73933095D01*
X147629524Y-73933095D02*
X147677143Y-73837857D01*
X147677143Y-73837857D02*
X147724762Y-73790238D01*
X147724762Y-73790238D02*
X147820000Y-73742619D01*
X148581905Y-74742619D02*
X148581905Y-73742619D01*
X148677143Y-74361666D02*
X148962857Y-74742619D01*
X148962857Y-74075952D02*
X148581905Y-74456904D01*
%TO.C,R4*%
X143343333Y-70947619D02*
X143010000Y-70471428D01*
X142771905Y-70947619D02*
X142771905Y-69947619D01*
X142771905Y-69947619D02*
X143152857Y-69947619D01*
X143152857Y-69947619D02*
X143248095Y-69995238D01*
X143248095Y-69995238D02*
X143295714Y-70042857D01*
X143295714Y-70042857D02*
X143343333Y-70138095D01*
X143343333Y-70138095D02*
X143343333Y-70280952D01*
X143343333Y-70280952D02*
X143295714Y-70376190D01*
X143295714Y-70376190D02*
X143248095Y-70423809D01*
X143248095Y-70423809D02*
X143152857Y-70471428D01*
X143152857Y-70471428D02*
X142771905Y-70471428D01*
X144200476Y-70280952D02*
X144200476Y-70947619D01*
X143962381Y-69900000D02*
X143724286Y-70614285D01*
X143724286Y-70614285D02*
X144343333Y-70614285D01*
X146248571Y-70957619D02*
X145677143Y-70957619D01*
X145962857Y-70957619D02*
X145962857Y-69957619D01*
X145962857Y-69957619D02*
X145867619Y-70100476D01*
X145867619Y-70100476D02*
X145772381Y-70195714D01*
X145772381Y-70195714D02*
X145677143Y-70243333D01*
X146867619Y-69957619D02*
X146962857Y-69957619D01*
X146962857Y-69957619D02*
X147058095Y-70005238D01*
X147058095Y-70005238D02*
X147105714Y-70052857D01*
X147105714Y-70052857D02*
X147153333Y-70148095D01*
X147153333Y-70148095D02*
X147200952Y-70338571D01*
X147200952Y-70338571D02*
X147200952Y-70576666D01*
X147200952Y-70576666D02*
X147153333Y-70767142D01*
X147153333Y-70767142D02*
X147105714Y-70862380D01*
X147105714Y-70862380D02*
X147058095Y-70910000D01*
X147058095Y-70910000D02*
X146962857Y-70957619D01*
X146962857Y-70957619D02*
X146867619Y-70957619D01*
X146867619Y-70957619D02*
X146772381Y-70910000D01*
X146772381Y-70910000D02*
X146724762Y-70862380D01*
X146724762Y-70862380D02*
X146677143Y-70767142D01*
X146677143Y-70767142D02*
X146629524Y-70576666D01*
X146629524Y-70576666D02*
X146629524Y-70338571D01*
X146629524Y-70338571D02*
X146677143Y-70148095D01*
X146677143Y-70148095D02*
X146724762Y-70052857D01*
X146724762Y-70052857D02*
X146772381Y-70005238D01*
X146772381Y-70005238D02*
X146867619Y-69957619D01*
X147820000Y-69957619D02*
X147915238Y-69957619D01*
X147915238Y-69957619D02*
X148010476Y-70005238D01*
X148010476Y-70005238D02*
X148058095Y-70052857D01*
X148058095Y-70052857D02*
X148105714Y-70148095D01*
X148105714Y-70148095D02*
X148153333Y-70338571D01*
X148153333Y-70338571D02*
X148153333Y-70576666D01*
X148153333Y-70576666D02*
X148105714Y-70767142D01*
X148105714Y-70767142D02*
X148058095Y-70862380D01*
X148058095Y-70862380D02*
X148010476Y-70910000D01*
X148010476Y-70910000D02*
X147915238Y-70957619D01*
X147915238Y-70957619D02*
X147820000Y-70957619D01*
X147820000Y-70957619D02*
X147724762Y-70910000D01*
X147724762Y-70910000D02*
X147677143Y-70862380D01*
X147677143Y-70862380D02*
X147629524Y-70767142D01*
X147629524Y-70767142D02*
X147581905Y-70576666D01*
X147581905Y-70576666D02*
X147581905Y-70338571D01*
X147581905Y-70338571D02*
X147629524Y-70148095D01*
X147629524Y-70148095D02*
X147677143Y-70052857D01*
X147677143Y-70052857D02*
X147724762Y-70005238D01*
X147724762Y-70005238D02*
X147820000Y-69957619D01*
X148581905Y-70957619D02*
X148581905Y-69957619D01*
X148677143Y-70576666D02*
X148962857Y-70957619D01*
X148962857Y-70290952D02*
X148581905Y-70671904D01*
%TO.C,R2*%
X143343333Y-67122619D02*
X143010000Y-66646428D01*
X142771905Y-67122619D02*
X142771905Y-66122619D01*
X142771905Y-66122619D02*
X143152857Y-66122619D01*
X143152857Y-66122619D02*
X143248095Y-66170238D01*
X143248095Y-66170238D02*
X143295714Y-66217857D01*
X143295714Y-66217857D02*
X143343333Y-66313095D01*
X143343333Y-66313095D02*
X143343333Y-66455952D01*
X143343333Y-66455952D02*
X143295714Y-66551190D01*
X143295714Y-66551190D02*
X143248095Y-66598809D01*
X143248095Y-66598809D02*
X143152857Y-66646428D01*
X143152857Y-66646428D02*
X142771905Y-66646428D01*
X143724286Y-66217857D02*
X143771905Y-66170238D01*
X143771905Y-66170238D02*
X143867143Y-66122619D01*
X143867143Y-66122619D02*
X144105238Y-66122619D01*
X144105238Y-66122619D02*
X144200476Y-66170238D01*
X144200476Y-66170238D02*
X144248095Y-66217857D01*
X144248095Y-66217857D02*
X144295714Y-66313095D01*
X144295714Y-66313095D02*
X144295714Y-66408333D01*
X144295714Y-66408333D02*
X144248095Y-66551190D01*
X144248095Y-66551190D02*
X143676667Y-67122619D01*
X143676667Y-67122619D02*
X144295714Y-67122619D01*
X147200952Y-67137619D02*
X146629524Y-67137619D01*
X146915238Y-67137619D02*
X146915238Y-66137619D01*
X146915238Y-66137619D02*
X146820000Y-66280476D01*
X146820000Y-66280476D02*
X146724762Y-66375714D01*
X146724762Y-66375714D02*
X146629524Y-66423333D01*
X147629524Y-67137619D02*
X147629524Y-66137619D01*
X147724762Y-66756666D02*
X148010476Y-67137619D01*
X148010476Y-66470952D02*
X147629524Y-66851904D01*
%TO.C,Q1*%
X152267619Y-75223332D02*
X151267619Y-75223332D01*
X152267619Y-74175714D02*
X151791428Y-74509047D01*
X152267619Y-74747142D02*
X151267619Y-74747142D01*
X151267619Y-74747142D02*
X151267619Y-74366190D01*
X151267619Y-74366190D02*
X151315238Y-74270952D01*
X151315238Y-74270952D02*
X151362857Y-74223333D01*
X151362857Y-74223333D02*
X151458095Y-74175714D01*
X151458095Y-74175714D02*
X151600952Y-74175714D01*
X151600952Y-74175714D02*
X151696190Y-74223333D01*
X151696190Y-74223333D02*
X151743809Y-74270952D01*
X151743809Y-74270952D02*
X151791428Y-74366190D01*
X151791428Y-74366190D02*
X151791428Y-74747142D01*
X151743809Y-73413809D02*
X151743809Y-73747142D01*
X152267619Y-73747142D02*
X151267619Y-73747142D01*
X151267619Y-73747142D02*
X151267619Y-73270952D01*
X151267619Y-72985237D02*
X151267619Y-72366190D01*
X151267619Y-72366190D02*
X151648571Y-72699523D01*
X151648571Y-72699523D02*
X151648571Y-72556666D01*
X151648571Y-72556666D02*
X151696190Y-72461428D01*
X151696190Y-72461428D02*
X151743809Y-72413809D01*
X151743809Y-72413809D02*
X151839047Y-72366190D01*
X151839047Y-72366190D02*
X152077142Y-72366190D01*
X152077142Y-72366190D02*
X152172380Y-72413809D01*
X152172380Y-72413809D02*
X152220000Y-72461428D01*
X152220000Y-72461428D02*
X152267619Y-72556666D01*
X152267619Y-72556666D02*
X152267619Y-72842380D01*
X152267619Y-72842380D02*
X152220000Y-72937618D01*
X152220000Y-72937618D02*
X152172380Y-72985237D01*
X151362857Y-71985237D02*
X151315238Y-71937618D01*
X151315238Y-71937618D02*
X151267619Y-71842380D01*
X151267619Y-71842380D02*
X151267619Y-71604285D01*
X151267619Y-71604285D02*
X151315238Y-71509047D01*
X151315238Y-71509047D02*
X151362857Y-71461428D01*
X151362857Y-71461428D02*
X151458095Y-71413809D01*
X151458095Y-71413809D02*
X151553333Y-71413809D01*
X151553333Y-71413809D02*
X151696190Y-71461428D01*
X151696190Y-71461428D02*
X152267619Y-72032856D01*
X152267619Y-72032856D02*
X152267619Y-71413809D01*
X151267619Y-70794761D02*
X151267619Y-70699523D01*
X151267619Y-70699523D02*
X151315238Y-70604285D01*
X151315238Y-70604285D02*
X151362857Y-70556666D01*
X151362857Y-70556666D02*
X151458095Y-70509047D01*
X151458095Y-70509047D02*
X151648571Y-70461428D01*
X151648571Y-70461428D02*
X151886666Y-70461428D01*
X151886666Y-70461428D02*
X152077142Y-70509047D01*
X152077142Y-70509047D02*
X152172380Y-70556666D01*
X152172380Y-70556666D02*
X152220000Y-70604285D01*
X152220000Y-70604285D02*
X152267619Y-70699523D01*
X152267619Y-70699523D02*
X152267619Y-70794761D01*
X152267619Y-70794761D02*
X152220000Y-70889999D01*
X152220000Y-70889999D02*
X152172380Y-70937618D01*
X152172380Y-70937618D02*
X152077142Y-70985237D01*
X152077142Y-70985237D02*
X151886666Y-71032856D01*
X151886666Y-71032856D02*
X151648571Y-71032856D01*
X151648571Y-71032856D02*
X151458095Y-70985237D01*
X151458095Y-70985237D02*
X151362857Y-70937618D01*
X151362857Y-70937618D02*
X151315238Y-70889999D01*
X151315238Y-70889999D02*
X151267619Y-70794761D01*
X151267619Y-69556666D02*
X151267619Y-70032856D01*
X151267619Y-70032856D02*
X151743809Y-70080475D01*
X151743809Y-70080475D02*
X151696190Y-70032856D01*
X151696190Y-70032856D02*
X151648571Y-69937618D01*
X151648571Y-69937618D02*
X151648571Y-69699523D01*
X151648571Y-69699523D02*
X151696190Y-69604285D01*
X151696190Y-69604285D02*
X151743809Y-69556666D01*
X151743809Y-69556666D02*
X151839047Y-69509047D01*
X151839047Y-69509047D02*
X152077142Y-69509047D01*
X152077142Y-69509047D02*
X152172380Y-69556666D01*
X152172380Y-69556666D02*
X152220000Y-69604285D01*
X152220000Y-69604285D02*
X152267619Y-69699523D01*
X152267619Y-69699523D02*
X152267619Y-69937618D01*
X152267619Y-69937618D02*
X152220000Y-70032856D01*
X152220000Y-70032856D02*
X152172380Y-70080475D01*
%TO.C,G\u002A\u002A\u002A*%
G36*
X136629702Y-92354780D02*
G01*
X136695097Y-92415788D01*
X136739625Y-92518093D01*
X136755216Y-92591153D01*
X136769735Y-92753643D01*
X136759890Y-92893335D01*
X136727877Y-93006284D01*
X136675888Y-93088544D01*
X136606118Y-93136170D01*
X136520760Y-93145216D01*
X136456691Y-93128033D01*
X136399971Y-93081672D01*
X136356214Y-92998991D01*
X136327507Y-92889078D01*
X136315935Y-92761019D01*
X136317876Y-92726239D01*
X136426287Y-92726239D01*
X136429570Y-92845632D01*
X136440182Y-92926826D01*
X136459266Y-92977904D01*
X136462629Y-92983040D01*
X136512475Y-93023917D01*
X136571161Y-93032712D01*
X136621543Y-93008756D01*
X136635576Y-92989770D01*
X136646418Y-92946872D01*
X136654743Y-92870839D01*
X136659276Y-92775212D01*
X136659743Y-92732968D01*
X136658287Y-92627978D01*
X136652590Y-92558594D01*
X136640659Y-92513785D01*
X136620500Y-92482519D01*
X136613052Y-92474632D01*
X136571241Y-92440356D01*
X136543015Y-92427941D01*
X136510808Y-92443010D01*
X136472978Y-92474632D01*
X136449777Y-92504717D01*
X136435663Y-92545605D01*
X136428544Y-92608573D01*
X136426327Y-92704899D01*
X136426287Y-92726239D01*
X136317876Y-92726239D01*
X136323586Y-92623902D01*
X136330593Y-92578714D01*
X136366923Y-92458960D01*
X136424708Y-92378449D01*
X136502606Y-92338721D01*
X136543015Y-92334559D01*
X136629702Y-92354780D01*
G37*
G36*
X139182677Y-92364311D02*
G01*
X139243594Y-92424187D01*
X139264752Y-92464089D01*
X139290882Y-92534951D01*
X139293115Y-92573736D01*
X139269879Y-92589373D01*
X139242349Y-92591360D01*
X139198160Y-92579131D01*
X139175733Y-92534523D01*
X139173485Y-92524271D01*
X139145461Y-92465185D01*
X139100132Y-92437173D01*
X139051229Y-92442206D01*
X139012486Y-92482255D01*
X139005290Y-92500134D01*
X139001043Y-92569980D01*
X139037908Y-92631319D01*
X139118486Y-92688109D01*
X139134083Y-92696267D01*
X139228709Y-92764813D01*
X139281832Y-92851996D01*
X139291813Y-92954703D01*
X139286635Y-92985895D01*
X139248236Y-93066028D01*
X139181563Y-93120560D01*
X139099476Y-93143537D01*
X139014837Y-93129006D01*
X138996871Y-93120025D01*
X138934297Y-93064922D01*
X138890571Y-92990886D01*
X138878401Y-92935707D01*
X138891249Y-92900938D01*
X138924125Y-92897535D01*
X138965400Y-92922542D01*
X138999953Y-92966606D01*
X139037497Y-93016559D01*
X139081193Y-93031900D01*
X139105008Y-93030658D01*
X139148915Y-93018948D01*
X139169333Y-92987551D01*
X139176511Y-92937862D01*
X139177615Y-92887452D01*
X139164071Y-92853451D01*
X139126341Y-92822794D01*
X139068354Y-92789730D01*
X138975701Y-92726445D01*
X138922580Y-92654209D01*
X138901876Y-92562022D01*
X138900919Y-92530836D01*
X138919196Y-92441837D01*
X138967019Y-92378757D01*
X139033880Y-92343524D01*
X139109269Y-92338066D01*
X139182677Y-92364311D01*
G37*
G36*
X141122513Y-92353429D02*
G01*
X141192092Y-92406045D01*
X141238737Y-92487933D01*
X141248683Y-92527160D01*
X141255809Y-92584313D01*
X141246564Y-92609157D01*
X141215813Y-92614701D01*
X141214147Y-92614706D01*
X141173759Y-92600536D01*
X141151713Y-92551410D01*
X141150101Y-92543840D01*
X141120313Y-92476088D01*
X141072545Y-92441667D01*
X141018906Y-92442392D01*
X140971505Y-92480081D01*
X140953543Y-92514354D01*
X140940375Y-92577187D01*
X140933649Y-92668230D01*
X140933171Y-92771134D01*
X140938742Y-92869554D01*
X140950167Y-92947143D01*
X140959078Y-92975464D01*
X140998158Y-93023327D01*
X141050650Y-93034926D01*
X141097823Y-93026358D01*
X141127019Y-92992076D01*
X141142096Y-92953217D01*
X141174091Y-92890744D01*
X141213943Y-92871507D01*
X141249125Y-92884399D01*
X141255971Y-92925772D01*
X141234770Y-92999671D01*
X141224935Y-93024152D01*
X141170748Y-93102676D01*
X141093841Y-93142348D01*
X141001041Y-93140464D01*
X140962390Y-93128033D01*
X140901878Y-93083860D01*
X140860349Y-93005755D01*
X140836618Y-92890286D01*
X140829481Y-92743106D01*
X140837098Y-92590775D01*
X140860935Y-92478190D01*
X140902468Y-92400794D01*
X140954038Y-92358596D01*
X141039872Y-92335730D01*
X141122513Y-92353429D01*
G37*
G36*
X142411895Y-92355764D02*
G01*
X142481166Y-92411142D01*
X142526776Y-92488330D01*
X142534101Y-92515487D01*
X142540150Y-92567473D01*
X142526530Y-92588218D01*
X142499503Y-92591360D01*
X142454014Y-92571738D01*
X142435535Y-92532380D01*
X142402470Y-92470563D01*
X142349615Y-92440449D01*
X142289820Y-92449266D01*
X142288776Y-92449817D01*
X142255813Y-92473513D01*
X142234423Y-92508556D01*
X142222245Y-92564359D01*
X142216916Y-92650333D01*
X142215993Y-92739821D01*
X142222936Y-92874113D01*
X142244447Y-92966320D01*
X142281550Y-93019044D01*
X142332135Y-93034926D01*
X142402660Y-93024882D01*
X142438912Y-92988958D01*
X142449441Y-92918465D01*
X142449449Y-92915701D01*
X142446054Y-92856564D01*
X142430193Y-92830691D01*
X142393351Y-92824822D01*
X142391085Y-92824816D01*
X142345318Y-92813873D01*
X142332721Y-92778125D01*
X142339595Y-92748946D01*
X142368137Y-92735149D01*
X142430229Y-92731451D01*
X142437776Y-92731434D01*
X142542831Y-92731434D01*
X142542831Y-92891234D01*
X142539752Y-92985454D01*
X142528814Y-93045211D01*
X142507466Y-93082431D01*
X142500444Y-93089395D01*
X142426244Y-93129070D01*
X142334500Y-93140767D01*
X142260051Y-93126454D01*
X142201576Y-93092276D01*
X142160997Y-93037400D01*
X142136317Y-92955467D01*
X142125541Y-92840119D01*
X142126161Y-92699964D01*
X142130344Y-92587884D01*
X142135907Y-92512362D01*
X142145261Y-92463273D01*
X142160817Y-92430496D01*
X142184987Y-92403906D01*
X142199785Y-92390858D01*
X142264077Y-92351695D01*
X142329902Y-92334604D01*
X142332721Y-92334559D01*
X142411895Y-92355764D01*
G37*
G36*
X143446614Y-92354780D02*
G01*
X143512009Y-92415788D01*
X143556537Y-92518093D01*
X143572128Y-92591153D01*
X143586646Y-92753643D01*
X143576802Y-92893335D01*
X143544789Y-93006284D01*
X143492800Y-93088544D01*
X143423030Y-93136170D01*
X143337671Y-93145216D01*
X143273603Y-93128033D01*
X143216882Y-93081672D01*
X143173126Y-92998991D01*
X143144418Y-92889078D01*
X143132847Y-92761019D01*
X143134787Y-92726239D01*
X143243199Y-92726239D01*
X143246482Y-92845632D01*
X143257094Y-92926826D01*
X143276178Y-92977904D01*
X143279541Y-92983040D01*
X143329387Y-93023917D01*
X143388073Y-93032712D01*
X143438455Y-93008756D01*
X143452488Y-92989770D01*
X143463330Y-92946872D01*
X143471655Y-92870839D01*
X143476188Y-92775212D01*
X143476655Y-92732968D01*
X143475199Y-92627978D01*
X143469502Y-92558594D01*
X143457571Y-92513785D01*
X143437412Y-92482519D01*
X143429963Y-92474632D01*
X143388153Y-92440356D01*
X143359927Y-92427941D01*
X143327720Y-92443010D01*
X143289890Y-92474632D01*
X143266689Y-92504717D01*
X143252575Y-92545605D01*
X143245456Y-92608573D01*
X143243239Y-92704899D01*
X143243199Y-92726239D01*
X143134787Y-92726239D01*
X143140497Y-92623902D01*
X143147505Y-92578714D01*
X143183835Y-92458960D01*
X143241620Y-92378449D01*
X143319517Y-92338721D01*
X143359927Y-92334559D01*
X143446614Y-92354780D01*
G37*
G36*
X144055738Y-92360408D02*
G01*
X144068674Y-92372797D01*
X144076844Y-92402388D01*
X144081337Y-92456499D01*
X144083239Y-92542446D01*
X144083640Y-92667547D01*
X144083640Y-92671971D01*
X144081695Y-92801131D01*
X144076302Y-92912319D01*
X144068130Y-92996004D01*
X144057842Y-93042656D01*
X144057720Y-93042926D01*
X144004495Y-93108758D01*
X143926718Y-93142916D01*
X143837394Y-93141465D01*
X143788647Y-93124349D01*
X143750259Y-93098011D01*
X143722511Y-93057239D01*
X143703853Y-92995157D01*
X143692737Y-92904890D01*
X143687615Y-92779561D01*
X143686765Y-92671971D01*
X143687137Y-92545586D01*
X143688979Y-92458573D01*
X143693378Y-92403615D01*
X143701423Y-92373396D01*
X143714200Y-92360599D01*
X143732798Y-92357905D01*
X143733456Y-92357904D01*
X143752336Y-92360431D01*
X143765301Y-92372917D01*
X143773458Y-92402721D01*
X143777914Y-92457200D01*
X143779775Y-92543713D01*
X143780147Y-92668400D01*
X143781416Y-92807589D01*
X143786483Y-92906730D01*
X143797243Y-92972428D01*
X143815587Y-93011288D01*
X143843410Y-93029916D01*
X143882605Y-93034915D01*
X143885202Y-93034926D01*
X143925097Y-93030501D01*
X143953513Y-93012821D01*
X143972344Y-92975282D01*
X143983482Y-92911279D01*
X143988821Y-92814208D01*
X143990254Y-92677463D01*
X143990258Y-92668400D01*
X143990638Y-92542850D01*
X143992515Y-92456631D01*
X143996997Y-92402385D01*
X144005189Y-92372754D01*
X144018199Y-92360380D01*
X144036949Y-92357904D01*
X144055738Y-92360408D01*
G37*
G36*
X135852370Y-92363247D02*
G01*
X135876661Y-92384021D01*
X135903950Y-92427343D01*
X135938743Y-92500330D01*
X135984151Y-92606743D01*
X136087776Y-92855583D01*
X136094402Y-92606743D01*
X136097687Y-92496709D01*
X136101932Y-92425099D01*
X136109266Y-92383661D01*
X136121819Y-92364141D01*
X136141718Y-92358289D01*
X136158603Y-92357904D01*
X136216177Y-92357904D01*
X136216177Y-92743106D01*
X136216177Y-93128309D01*
X136161020Y-93128309D01*
X136135869Y-93123544D01*
X136112249Y-93104681D01*
X136085885Y-93064864D01*
X136052502Y-92997241D01*
X136007824Y-92894956D01*
X135991764Y-92856925D01*
X135877666Y-92585542D01*
X135871088Y-92856925D01*
X135867724Y-92973151D01*
X135863322Y-93050517D01*
X135856368Y-93096852D01*
X135845346Y-93119985D01*
X135828740Y-93127745D01*
X135818561Y-93128309D01*
X135801598Y-93126030D01*
X135789417Y-93114787D01*
X135781228Y-93087968D01*
X135776242Y-93038961D01*
X135773671Y-92961154D01*
X135772727Y-92847935D01*
X135772611Y-92743106D01*
X135772611Y-92357904D01*
X135826568Y-92357904D01*
X135852370Y-92363247D01*
G37*
G36*
X137134467Y-92359007D02*
G01*
X137186994Y-92364035D01*
X137212200Y-92375570D01*
X137219762Y-92396191D01*
X137220037Y-92404595D01*
X137214464Y-92431578D01*
X137190367Y-92445635D01*
X137136683Y-92450789D01*
X137091636Y-92451287D01*
X136963236Y-92451287D01*
X136963236Y-92568014D01*
X136963236Y-92684742D01*
X137079963Y-92684742D01*
X137149977Y-92687201D01*
X137184896Y-92697635D01*
X137196192Y-92720634D01*
X137196691Y-92731434D01*
X137190546Y-92759439D01*
X137164460Y-92773407D01*
X137106962Y-92777925D01*
X137079963Y-92778125D01*
X136963236Y-92778125D01*
X136963236Y-92906525D01*
X136963236Y-93034926D01*
X137103309Y-93034926D01*
X137181543Y-93036630D01*
X137223816Y-93044114D01*
X137240807Y-93060937D01*
X137243383Y-93081617D01*
X137239483Y-93104881D01*
X137221525Y-93118823D01*
X137180114Y-93125793D01*
X137105860Y-93128137D01*
X137056618Y-93128309D01*
X136869853Y-93128309D01*
X136869853Y-92743106D01*
X136869853Y-92357904D01*
X137044945Y-92357904D01*
X137134467Y-92359007D01*
G37*
G36*
X137401661Y-92360262D02*
G01*
X137414398Y-92372036D01*
X137422641Y-92400279D01*
X137427362Y-92452045D01*
X137429534Y-92534386D01*
X137430130Y-92654354D01*
X137430147Y-92696415D01*
X137430147Y-93034926D01*
X137558548Y-93034926D01*
X137632751Y-93036953D01*
X137671406Y-93045715D01*
X137685579Y-93065237D01*
X137686949Y-93081617D01*
X137682813Y-93105490D01*
X137663956Y-93119497D01*
X137620702Y-93126219D01*
X137543375Y-93128235D01*
X137511857Y-93128309D01*
X137336765Y-93128309D01*
X137336765Y-92743106D01*
X137337023Y-92600953D01*
X137338332Y-92498873D01*
X137341494Y-92430248D01*
X137347311Y-92388462D01*
X137356586Y-92366895D01*
X137370119Y-92358931D01*
X137383456Y-92357904D01*
X137401661Y-92360262D01*
G37*
G36*
X138210275Y-92360506D02*
G01*
X138260824Y-92371747D01*
X138296123Y-92396786D01*
X138315585Y-92419416D01*
X138350532Y-92492422D01*
X138362592Y-92581843D01*
X138352904Y-92671663D01*
X138322609Y-92745863D01*
X138289926Y-92779819D01*
X138287545Y-92806517D01*
X138300274Y-92864381D01*
X138325395Y-92941429D01*
X138328440Y-92949608D01*
X138357353Y-93027870D01*
X138378359Y-93087482D01*
X138387253Y-93116485D01*
X138387316Y-93117169D01*
X138367457Y-93125863D01*
X138334580Y-93128309D01*
X138303278Y-93120964D01*
X138277000Y-93092818D01*
X138249272Y-93034705D01*
X138227422Y-92976562D01*
X138193011Y-92890504D01*
X138163712Y-92842566D01*
X138134639Y-92825260D01*
X138128412Y-92824816D01*
X138104212Y-92830131D01*
X138090718Y-92852884D01*
X138084928Y-92903285D01*
X138083824Y-92976562D01*
X138082369Y-93058685D01*
X138075887Y-93104470D01*
X138061203Y-93124236D01*
X138037133Y-93128309D01*
X138019902Y-93126179D01*
X138007529Y-93115380D01*
X137999210Y-93089294D01*
X137994145Y-93041303D01*
X137991531Y-92964789D01*
X137990566Y-92853135D01*
X137990441Y-92743106D01*
X137990441Y-92591360D01*
X138083824Y-92591360D01*
X138085527Y-92669594D01*
X138093011Y-92711867D01*
X138109835Y-92728858D01*
X138130515Y-92731434D01*
X138181337Y-92715589D01*
X138223897Y-92684742D01*
X138263609Y-92620491D01*
X138268939Y-92552659D01*
X138243769Y-92494038D01*
X138191981Y-92457417D01*
X138153039Y-92451287D01*
X138114726Y-92453183D01*
X138094046Y-92466208D01*
X138085563Y-92501366D01*
X138083837Y-92569664D01*
X138083824Y-92591360D01*
X137990441Y-92591360D01*
X137990441Y-92357904D01*
X138128820Y-92357904D01*
X138210275Y-92360506D01*
G37*
G36*
X138721967Y-92359007D02*
G01*
X138774494Y-92364035D01*
X138799700Y-92375570D01*
X138807262Y-92396191D01*
X138807537Y-92404595D01*
X138801964Y-92431578D01*
X138777867Y-92445635D01*
X138724183Y-92450789D01*
X138679136Y-92451287D01*
X138550736Y-92451287D01*
X138550736Y-92568014D01*
X138550736Y-92684742D01*
X138667463Y-92684742D01*
X138737477Y-92687201D01*
X138772396Y-92697635D01*
X138783692Y-92720634D01*
X138784191Y-92731434D01*
X138778046Y-92759439D01*
X138751960Y-92773407D01*
X138694462Y-92777925D01*
X138667463Y-92778125D01*
X138550736Y-92778125D01*
X138550736Y-92906525D01*
X138550736Y-93034926D01*
X138679136Y-93034926D01*
X138753339Y-93036953D01*
X138791994Y-93045715D01*
X138806168Y-93065237D01*
X138807537Y-93081617D01*
X138803402Y-93105490D01*
X138784545Y-93119497D01*
X138741290Y-93126219D01*
X138663963Y-93128235D01*
X138632445Y-93128309D01*
X138457353Y-93128309D01*
X138457353Y-92743106D01*
X138457353Y-92357904D01*
X138632445Y-92357904D01*
X138721967Y-92359007D01*
G37*
G36*
X139655791Y-92359007D02*
G01*
X139708317Y-92364035D01*
X139733524Y-92375570D01*
X139741086Y-92396191D01*
X139741361Y-92404595D01*
X139735787Y-92431578D01*
X139711691Y-92445635D01*
X139658006Y-92450789D01*
X139612960Y-92451287D01*
X139484559Y-92451287D01*
X139484559Y-92568014D01*
X139484559Y-92684742D01*
X139601287Y-92684742D01*
X139671301Y-92687201D01*
X139706219Y-92697635D01*
X139717515Y-92720634D01*
X139718015Y-92731434D01*
X139711869Y-92759439D01*
X139685784Y-92773407D01*
X139628286Y-92777925D01*
X139601287Y-92778125D01*
X139484559Y-92778125D01*
X139484559Y-92906525D01*
X139484559Y-93034926D01*
X139612960Y-93034926D01*
X139687162Y-93036953D01*
X139725818Y-93045715D01*
X139739991Y-93065237D01*
X139741361Y-93081617D01*
X139737225Y-93105490D01*
X139718368Y-93119497D01*
X139675114Y-93126219D01*
X139597786Y-93128235D01*
X139566269Y-93128309D01*
X139391177Y-93128309D01*
X139391177Y-92743106D01*
X139391177Y-92357904D01*
X139566269Y-92357904D01*
X139655791Y-92359007D01*
G37*
G36*
X140046947Y-92359381D02*
G01*
X140059583Y-92366863D01*
X140072593Y-92384928D01*
X140087482Y-92418156D01*
X140105754Y-92471124D01*
X140128914Y-92548411D01*
X140158466Y-92654595D01*
X140195914Y-92794254D01*
X140242764Y-92971967D01*
X140273585Y-93089505D01*
X140272952Y-93120679D01*
X140240166Y-93125813D01*
X140229824Y-93124523D01*
X140188007Y-93105996D01*
X140161909Y-93057503D01*
X140154209Y-93029090D01*
X140138202Y-92974254D01*
X140114224Y-92948993D01*
X140066468Y-92941874D01*
X140033180Y-92941544D01*
X139969647Y-92944243D01*
X139936971Y-92959963D01*
X139919348Y-93000137D01*
X139912152Y-93029090D01*
X139889478Y-93091957D01*
X139854686Y-93120312D01*
X139836537Y-93124523D01*
X139796761Y-93123361D01*
X139790908Y-93097576D01*
X139792776Y-93089505D01*
X139845531Y-92888541D01*
X139871406Y-92790948D01*
X139978277Y-92790948D01*
X139988603Y-92816294D01*
X140016819Y-92824371D01*
X140033180Y-92824816D01*
X140077063Y-92817430D01*
X140091544Y-92803251D01*
X140086626Y-92769813D01*
X140074011Y-92707339D01*
X140063339Y-92659494D01*
X140035133Y-92537301D01*
X140005425Y-92651876D01*
X139984374Y-92739191D01*
X139978277Y-92790948D01*
X139871406Y-92790948D01*
X139888046Y-92728189D01*
X139921823Y-92603870D01*
X139948368Y-92511006D01*
X139969185Y-92445017D01*
X139985778Y-92401327D01*
X139999653Y-92375356D01*
X140012312Y-92362527D01*
X140025262Y-92358260D01*
X140033180Y-92357904D01*
X140046947Y-92359381D01*
G37*
G36*
X140591525Y-92360506D02*
G01*
X140642074Y-92371747D01*
X140677373Y-92396786D01*
X140696835Y-92419416D01*
X140731782Y-92492422D01*
X140743842Y-92581843D01*
X140734154Y-92671663D01*
X140703859Y-92745863D01*
X140671176Y-92779819D01*
X140668795Y-92806517D01*
X140681524Y-92864381D01*
X140706645Y-92941429D01*
X140709690Y-92949608D01*
X140738603Y-93027870D01*
X140759609Y-93087482D01*
X140768503Y-93116485D01*
X140768566Y-93117169D01*
X140748707Y-93125863D01*
X140715830Y-93128309D01*
X140684528Y-93120964D01*
X140658250Y-93092818D01*
X140630522Y-93034705D01*
X140608672Y-92976562D01*
X140574261Y-92890504D01*
X140544962Y-92842566D01*
X140515889Y-92825260D01*
X140509662Y-92824816D01*
X140485462Y-92830131D01*
X140471968Y-92852884D01*
X140466178Y-92903285D01*
X140465074Y-92976562D01*
X140463619Y-93058685D01*
X140457137Y-93104470D01*
X140442453Y-93124236D01*
X140418383Y-93128309D01*
X140401152Y-93126179D01*
X140388779Y-93115380D01*
X140380460Y-93089294D01*
X140375395Y-93041303D01*
X140372781Y-92964789D01*
X140371816Y-92853135D01*
X140371691Y-92743106D01*
X140371691Y-92591360D01*
X140465074Y-92591360D01*
X140466777Y-92669594D01*
X140474261Y-92711867D01*
X140491085Y-92728858D01*
X140511765Y-92731434D01*
X140562587Y-92715589D01*
X140605147Y-92684742D01*
X140644859Y-92620491D01*
X140650189Y-92552659D01*
X140625019Y-92494038D01*
X140573231Y-92457417D01*
X140534289Y-92451287D01*
X140495976Y-92453183D01*
X140475296Y-92466208D01*
X140466813Y-92501366D01*
X140465087Y-92569664D01*
X140465074Y-92591360D01*
X140371691Y-92591360D01*
X140371691Y-92357904D01*
X140510070Y-92357904D01*
X140591525Y-92360506D01*
G37*
G36*
X141441062Y-92360307D02*
G01*
X141458513Y-92374299D01*
X141466557Y-92410055D01*
X141468828Y-92477747D01*
X141468934Y-92521323D01*
X141468934Y-92684742D01*
X141585662Y-92684742D01*
X141702390Y-92684742D01*
X141702390Y-92521323D01*
X141703650Y-92435442D01*
X141709330Y-92386241D01*
X141722284Y-92363738D01*
X141745364Y-92357950D01*
X141749081Y-92357904D01*
X141766312Y-92360033D01*
X141778685Y-92370832D01*
X141787003Y-92396919D01*
X141792068Y-92444910D01*
X141794682Y-92521424D01*
X141795648Y-92633078D01*
X141795772Y-92743106D01*
X141795514Y-92885259D01*
X141794205Y-92987340D01*
X141791043Y-93055964D01*
X141785226Y-93097751D01*
X141775952Y-93119318D01*
X141762418Y-93127282D01*
X141749081Y-93128309D01*
X141725208Y-93124173D01*
X141711201Y-93105316D01*
X141704480Y-93062062D01*
X141702463Y-92984734D01*
X141702390Y-92953217D01*
X141702390Y-92778125D01*
X141585662Y-92778125D01*
X141468934Y-92778125D01*
X141468934Y-92953217D01*
X141468207Y-93042276D01*
X141463839Y-93094480D01*
X141452553Y-93119665D01*
X141431069Y-93127665D01*
X141410570Y-93128309D01*
X141352206Y-93128309D01*
X141352206Y-92743106D01*
X141352206Y-92357904D01*
X141410570Y-92357904D01*
X141441062Y-92360307D01*
G37*
G36*
X142895922Y-92360951D02*
G01*
X142951842Y-92372493D01*
X142989567Y-92396133D01*
X143000288Y-92407046D01*
X143032289Y-92470606D01*
X143046048Y-92557684D01*
X143041488Y-92649107D01*
X143018532Y-92725706D01*
X143001661Y-92750811D01*
X142983465Y-92772886D01*
X142974088Y-92795782D01*
X142975153Y-92827655D01*
X142988279Y-92876660D01*
X143015088Y-92950950D01*
X143057203Y-93058680D01*
X143068594Y-93087454D01*
X143071298Y-93118061D01*
X143039019Y-93128046D01*
X143026476Y-93128309D01*
X142993245Y-93122755D01*
X142967425Y-93099726D01*
X142941975Y-93049670D01*
X142914606Y-92976562D01*
X142883178Y-92894399D01*
X142857318Y-92847996D01*
X142830422Y-92828040D01*
X142806988Y-92824816D01*
X142777897Y-92828074D01*
X142761689Y-92844853D01*
X142754623Y-92885659D01*
X142752957Y-92960997D01*
X142752941Y-92976562D01*
X142751486Y-93058685D01*
X142745004Y-93104470D01*
X142730321Y-93124236D01*
X142706250Y-93128309D01*
X142689020Y-93126179D01*
X142676646Y-93115380D01*
X142668328Y-93089294D01*
X142663263Y-93041303D01*
X142660649Y-92964789D01*
X142659684Y-92853135D01*
X142659559Y-92743106D01*
X142659559Y-92591360D01*
X142752941Y-92591360D01*
X142754330Y-92669120D01*
X142761293Y-92711115D01*
X142778027Y-92728249D01*
X142806843Y-92731434D01*
X142870279Y-92717575D01*
X142904117Y-92699720D01*
X142936836Y-92650644D01*
X142946938Y-92581441D01*
X142933083Y-92513545D01*
X142917393Y-92487549D01*
X142872954Y-92460695D01*
X142820120Y-92451287D01*
X142782932Y-92453345D01*
X142762860Y-92466858D01*
X142754626Y-92502827D01*
X142752953Y-92572257D01*
X142752941Y-92591360D01*
X142659559Y-92591360D01*
X142659559Y-92357904D01*
X142807687Y-92357904D01*
X142895922Y-92360951D01*
G37*
G36*
X144450570Y-92359004D02*
G01*
X144503608Y-92365483D01*
X144536527Y-92382107D01*
X144562614Y-92413646D01*
X144575540Y-92433777D01*
X144608230Y-92506577D01*
X144615513Y-92591196D01*
X144613619Y-92620779D01*
X144593124Y-92723533D01*
X144549748Y-92788209D01*
X144478770Y-92819743D01*
X144418533Y-92824816D01*
X144317096Y-92824816D01*
X144317096Y-92976562D01*
X144316072Y-93058134D01*
X144310297Y-93103569D01*
X144295714Y-93123415D01*
X144268264Y-93128221D01*
X144258732Y-93128309D01*
X144200368Y-93128309D01*
X144200368Y-92743106D01*
X144200368Y-92448328D01*
X144317096Y-92448328D01*
X144317096Y-92591360D01*
X144317096Y-92734392D01*
X144392241Y-92727076D01*
X144462715Y-92703411D01*
X144503132Y-92655560D01*
X144525737Y-92604637D01*
X144521045Y-92563073D01*
X144503132Y-92527160D01*
X144453517Y-92473378D01*
X144392241Y-92455644D01*
X144317096Y-92448328D01*
X144200368Y-92448328D01*
X144200368Y-92357904D01*
X144364130Y-92357904D01*
X144450570Y-92359004D01*
G37*
G36*
X150176838Y-88202389D02*
G01*
X150176838Y-88295772D01*
X148436531Y-88295772D01*
X146696223Y-88295772D01*
X146638921Y-88353075D01*
X146599792Y-88402272D01*
X146581755Y-88444805D01*
X146581618Y-88447518D01*
X146597152Y-88488413D01*
X146634947Y-88537899D01*
X146638921Y-88541962D01*
X146696223Y-88599264D01*
X148341357Y-88599264D01*
X149986491Y-88599264D01*
X150057878Y-88659333D01*
X150131697Y-88749919D01*
X150165165Y-88861672D01*
X150157792Y-88991443D01*
X150126055Y-89096459D01*
X150116241Y-89121418D01*
X150105785Y-89143047D01*
X150091478Y-89161584D01*
X150070108Y-89177268D01*
X150038468Y-89190336D01*
X149993347Y-89201027D01*
X149931536Y-89209580D01*
X149849825Y-89216232D01*
X149745005Y-89221222D01*
X149613865Y-89224788D01*
X149453196Y-89227168D01*
X149259789Y-89228601D01*
X149030434Y-89229325D01*
X148761921Y-89229578D01*
X148451041Y-89229599D01*
X148332635Y-89229595D01*
X146696223Y-89229595D01*
X146638921Y-89286898D01*
X146593026Y-89345107D01*
X146587070Y-89397478D01*
X146620334Y-89458938D01*
X146630003Y-89471576D01*
X146678389Y-89533088D01*
X148316722Y-89533432D01*
X148652419Y-89533695D01*
X148944034Y-89534361D01*
X149194172Y-89535476D01*
X149405441Y-89537085D01*
X149580448Y-89539233D01*
X149721801Y-89541965D01*
X149832105Y-89545325D01*
X149913967Y-89549358D01*
X149969996Y-89554110D01*
X150002797Y-89559625D01*
X150011169Y-89562614D01*
X150089545Y-89625900D01*
X150140354Y-89713857D01*
X150163990Y-89815926D01*
X150160849Y-89921551D01*
X150131327Y-90020171D01*
X150075819Y-90101230D01*
X149994722Y-90154168D01*
X149988921Y-90156265D01*
X149957909Y-90162190D01*
X149899908Y-90167351D01*
X149812658Y-90171789D01*
X149693901Y-90175542D01*
X149541377Y-90178650D01*
X149352826Y-90181152D01*
X149125989Y-90183088D01*
X148858607Y-90184498D01*
X148548421Y-90185420D01*
X148297519Y-90185804D01*
X148027114Y-90186328D01*
X147770218Y-90187295D01*
X147530673Y-90188662D01*
X147312324Y-90190385D01*
X147119012Y-90192419D01*
X146954581Y-90194720D01*
X146822875Y-90197243D01*
X146727735Y-90199946D01*
X146673006Y-90202782D01*
X146660986Y-90204631D01*
X146631144Y-90237226D01*
X146606077Y-90277226D01*
X146589910Y-90322789D01*
X146602182Y-90364079D01*
X146622604Y-90393954D01*
X146668353Y-90455239D01*
X148327513Y-90466912D01*
X148645715Y-90469174D01*
X148920554Y-90471243D01*
X149155355Y-90473234D01*
X149353444Y-90475264D01*
X149518149Y-90477450D01*
X149652794Y-90479910D01*
X149760707Y-90482759D01*
X149845214Y-90486115D01*
X149909641Y-90490094D01*
X149957315Y-90494813D01*
X149991561Y-90500390D01*
X150015706Y-90506941D01*
X150033076Y-90514582D01*
X150046997Y-90523431D01*
X150052574Y-90527505D01*
X150120166Y-90603797D01*
X150158707Y-90702442D01*
X150168671Y-90811333D01*
X150150535Y-90918358D01*
X150104774Y-91011409D01*
X150031862Y-91078375D01*
X150030929Y-91078912D01*
X150010457Y-91085041D01*
X149969925Y-91090512D01*
X149906615Y-91095391D01*
X149817815Y-91099744D01*
X149700808Y-91103639D01*
X149552882Y-91107140D01*
X149371320Y-91110314D01*
X149153408Y-91113228D01*
X148896433Y-91115947D01*
X148597678Y-91118539D01*
X148323377Y-91120588D01*
X146668353Y-91132261D01*
X146622604Y-91193546D01*
X146593030Y-91242673D01*
X146593754Y-91282951D01*
X146606077Y-91310274D01*
X146637361Y-91358492D01*
X146660986Y-91382868D01*
X146688083Y-91385743D01*
X146758035Y-91388477D01*
X146867009Y-91391029D01*
X147011170Y-91393358D01*
X147186681Y-91395423D01*
X147389709Y-91397185D01*
X147616419Y-91398601D01*
X147862975Y-91399631D01*
X148125542Y-91400234D01*
X148304105Y-91400378D01*
X148627185Y-91400583D01*
X148906746Y-91401087D01*
X149145956Y-91401954D01*
X149347986Y-91403245D01*
X149516006Y-91405023D01*
X149653187Y-91407351D01*
X149762698Y-91410292D01*
X149847710Y-91413908D01*
X149911393Y-91418262D01*
X149956917Y-91423417D01*
X149987453Y-91429435D01*
X150000946Y-91433914D01*
X150081257Y-91490450D01*
X150135035Y-91574667D01*
X150162091Y-91675695D01*
X150162236Y-91782666D01*
X150135284Y-91884714D01*
X150081046Y-91970969D01*
X150011169Y-92024885D01*
X149989621Y-92030481D01*
X149946503Y-92035383D01*
X149879341Y-92039632D01*
X149785659Y-92043267D01*
X149662984Y-92046326D01*
X149508841Y-92048850D01*
X149320756Y-92050877D01*
X149096254Y-92052447D01*
X148832862Y-92053599D01*
X148528106Y-92054372D01*
X148179510Y-92054805D01*
X148122427Y-92054844D01*
X146289798Y-92055964D01*
X146449620Y-92208853D01*
X146699682Y-92416311D01*
X146979452Y-92590543D01*
X147284053Y-92729692D01*
X147608606Y-92831901D01*
X147948235Y-92895311D01*
X148298062Y-92918066D01*
X148311970Y-92918104D01*
X148661987Y-92895706D01*
X148999409Y-92828972D01*
X149322416Y-92718996D01*
X149629193Y-92566871D01*
X149917921Y-92373691D01*
X150186783Y-92140551D01*
X150433962Y-91868543D01*
X150657640Y-91558762D01*
X150710163Y-91474738D01*
X150751500Y-91404584D01*
X150764513Y-91368966D01*
X150745150Y-91362535D01*
X150689358Y-91379941D01*
X150649587Y-91394764D01*
X150626615Y-91398836D01*
X150623888Y-91381202D01*
X150642183Y-91334104D01*
X150659359Y-91297286D01*
X150689679Y-91247545D01*
X150732424Y-91212204D01*
X150801495Y-91181265D01*
X150838984Y-91168093D01*
X150914577Y-91143403D01*
X150971906Y-91126225D01*
X150996564Y-91120588D01*
X151011861Y-91140975D01*
X151035722Y-91194426D01*
X151062987Y-91269378D01*
X151063033Y-91269517D01*
X151088811Y-91350557D01*
X151099724Y-91403384D01*
X151096399Y-91443830D01*
X151079465Y-91487729D01*
X151072286Y-91502973D01*
X151043380Y-91556215D01*
X151020632Y-91585526D01*
X151016333Y-91587500D01*
X151000073Y-91567575D01*
X150981081Y-91518889D01*
X150978958Y-91511731D01*
X150957228Y-91435963D01*
X150881104Y-91569014D01*
X150683793Y-91871528D01*
X150453840Y-92149390D01*
X150196037Y-92398707D01*
X149915179Y-92615587D01*
X149616059Y-92796138D01*
X149303472Y-92936468D01*
X149123184Y-92996365D01*
X148893129Y-93049241D01*
X148635609Y-93084786D01*
X148366588Y-93102156D01*
X148102030Y-93100505D01*
X147857900Y-93078988D01*
X147783916Y-93067271D01*
X147424772Y-92981318D01*
X147086158Y-92856751D01*
X146771647Y-92695358D01*
X146484811Y-92498923D01*
X146270077Y-92310317D01*
X146188526Y-92228677D01*
X146136857Y-92172119D01*
X146110495Y-92134217D01*
X146104865Y-92108548D01*
X146113649Y-92090704D01*
X146113966Y-92086625D01*
X146106707Y-92082860D01*
X146090110Y-92079397D01*
X146062414Y-92076223D01*
X146021858Y-92073326D01*
X145966681Y-92070694D01*
X145895122Y-92068314D01*
X145805420Y-92066174D01*
X145695815Y-92064261D01*
X145564544Y-92062563D01*
X145409848Y-92061067D01*
X145229965Y-92059762D01*
X145023134Y-92058635D01*
X144787594Y-92057673D01*
X144521584Y-92056864D01*
X144223344Y-92056195D01*
X143891112Y-92055655D01*
X143523127Y-92055231D01*
X143117628Y-92054910D01*
X142672854Y-92054680D01*
X142187045Y-92054529D01*
X141658439Y-92054444D01*
X141085275Y-92054412D01*
X140958190Y-92054412D01*
X135772611Y-92054412D01*
X135772611Y-91961029D01*
X135772611Y-91867647D01*
X142829456Y-91867647D01*
X143514121Y-91867630D01*
X144153624Y-91867576D01*
X144749495Y-91867476D01*
X145303265Y-91867322D01*
X145816463Y-91867106D01*
X146290620Y-91866822D01*
X146727264Y-91866460D01*
X147127926Y-91866013D01*
X147494136Y-91865474D01*
X147827424Y-91864834D01*
X148129319Y-91864085D01*
X148401351Y-91863221D01*
X148645051Y-91862232D01*
X148861947Y-91861111D01*
X149053571Y-91859851D01*
X149221451Y-91858443D01*
X149367118Y-91856880D01*
X149492101Y-91855154D01*
X149597931Y-91853257D01*
X149686137Y-91851181D01*
X149758249Y-91848918D01*
X149815797Y-91846461D01*
X149860311Y-91843802D01*
X149893320Y-91840933D01*
X149916355Y-91837845D01*
X149930946Y-91834532D01*
X149938188Y-91831305D01*
X149981081Y-91776143D01*
X149986288Y-91706892D01*
X149960892Y-91650668D01*
X149952399Y-91643111D01*
X149936833Y-91636555D01*
X149910975Y-91630913D01*
X149871608Y-91626098D01*
X149815513Y-91622025D01*
X149739472Y-91618606D01*
X149640267Y-91615756D01*
X149514680Y-91613387D01*
X149359493Y-91611414D01*
X149171487Y-91609750D01*
X148947445Y-91608308D01*
X148684149Y-91607001D01*
X148378380Y-91605745D01*
X148274173Y-91605351D01*
X147955047Y-91604106D01*
X147679304Y-91602858D01*
X147443634Y-91601513D01*
X147244731Y-91599980D01*
X147079284Y-91598164D01*
X146943985Y-91595972D01*
X146835527Y-91593312D01*
X146750599Y-91590090D01*
X146685895Y-91586213D01*
X146638104Y-91581588D01*
X146603920Y-91576122D01*
X146580032Y-91569721D01*
X146563133Y-91562294D01*
X146554447Y-91556951D01*
X146477545Y-91478697D01*
X146432245Y-91377343D01*
X146418650Y-91264255D01*
X146436861Y-91150797D01*
X146486982Y-91048334D01*
X146549281Y-90982576D01*
X146562004Y-90973138D01*
X146576672Y-90965003D01*
X146596640Y-90958073D01*
X146625264Y-90952252D01*
X146665898Y-90947442D01*
X146721899Y-90943544D01*
X146796622Y-90940461D01*
X146893421Y-90938096D01*
X147015653Y-90936350D01*
X147166672Y-90935127D01*
X147349834Y-90934328D01*
X147568495Y-90933857D01*
X147826008Y-90933614D01*
X148125731Y-90933504D01*
X148236467Y-90933479D01*
X148568865Y-90933225D01*
X148857295Y-90932581D01*
X149104477Y-90931499D01*
X149313134Y-90929931D01*
X149485985Y-90927829D01*
X149625753Y-90925146D01*
X149735158Y-90921832D01*
X149816921Y-90917840D01*
X149873765Y-90913122D01*
X149908410Y-90907630D01*
X149920037Y-90903765D01*
X149970166Y-90856636D01*
X149988422Y-90792537D01*
X149973254Y-90728446D01*
X149939500Y-90690937D01*
X149925403Y-90683679D01*
X149903153Y-90677417D01*
X149869490Y-90672077D01*
X149821157Y-90667590D01*
X149754894Y-90663882D01*
X149667441Y-90660883D01*
X149555540Y-90658520D01*
X149415933Y-90656721D01*
X149245358Y-90655414D01*
X149040559Y-90654529D01*
X148798275Y-90653992D01*
X148515248Y-90653733D01*
X148248781Y-90653676D01*
X147932857Y-90653655D01*
X147660283Y-90653527D01*
X147427716Y-90653197D01*
X147231815Y-90652569D01*
X147069239Y-90651547D01*
X146936645Y-90650035D01*
X146830693Y-90647937D01*
X146748039Y-90645158D01*
X146685344Y-90641601D01*
X146639264Y-90637170D01*
X146606458Y-90631771D01*
X146583585Y-90625307D01*
X146567302Y-90617681D01*
X146554269Y-90608799D01*
X146549281Y-90604924D01*
X146472486Y-90518445D01*
X146429073Y-90413515D01*
X146418426Y-90300806D01*
X146439930Y-90190986D01*
X146492969Y-90094726D01*
X146576929Y-90022696D01*
X146583057Y-90019313D01*
X146600539Y-90011060D01*
X146622230Y-90003943D01*
X146651500Y-89997877D01*
X146691716Y-89992779D01*
X146746246Y-89988565D01*
X146818456Y-89985153D01*
X146911715Y-89982458D01*
X147029390Y-89980397D01*
X147174849Y-89978886D01*
X147351459Y-89977841D01*
X147562588Y-89977180D01*
X147811603Y-89976818D01*
X148101873Y-89976673D01*
X148302169Y-89976654D01*
X148618422Y-89976622D01*
X148891245Y-89976466D01*
X149123903Y-89976098D01*
X149319657Y-89975428D01*
X149481769Y-89974370D01*
X149613503Y-89972834D01*
X149718121Y-89970731D01*
X149798885Y-89967973D01*
X149859058Y-89964472D01*
X149901903Y-89960139D01*
X149930681Y-89954885D01*
X149948656Y-89948622D01*
X149959089Y-89941261D01*
X149965244Y-89932714D01*
X149965907Y-89931498D01*
X149988866Y-89852703D01*
X149969316Y-89786719D01*
X149938188Y-89756195D01*
X149923914Y-89749101D01*
X149900645Y-89742979D01*
X149865143Y-89737760D01*
X149814174Y-89733372D01*
X149744500Y-89729748D01*
X149652887Y-89726817D01*
X149536097Y-89724509D01*
X149390895Y-89722756D01*
X149214044Y-89721487D01*
X149002309Y-89720632D01*
X148752454Y-89720123D01*
X148461242Y-89719890D01*
X148248781Y-89719853D01*
X147932857Y-89719831D01*
X147660283Y-89719704D01*
X147427716Y-89719374D01*
X147231815Y-89718746D01*
X147069239Y-89717723D01*
X146936645Y-89716211D01*
X146830693Y-89714113D01*
X146748039Y-89711334D01*
X146685344Y-89707777D01*
X146639264Y-89703347D01*
X146606458Y-89697947D01*
X146583585Y-89691483D01*
X146567302Y-89683858D01*
X146554269Y-89674975D01*
X146549281Y-89671100D01*
X146473694Y-89585331D01*
X146430390Y-89479923D01*
X146419011Y-89365980D01*
X146439201Y-89254609D01*
X146490601Y-89156916D01*
X146568077Y-89086853D01*
X146583717Y-89078378D01*
X146603075Y-89071069D01*
X146629507Y-89064839D01*
X146666372Y-89059603D01*
X146717025Y-89055275D01*
X146784826Y-89051767D01*
X146873131Y-89048995D01*
X146985299Y-89046871D01*
X147124686Y-89045309D01*
X147294651Y-89044223D01*
X147498550Y-89043527D01*
X147739742Y-89043135D01*
X148021584Y-89042960D01*
X148278342Y-89042918D01*
X148597427Y-89042815D01*
X148873037Y-89042497D01*
X149108385Y-89041892D01*
X149306688Y-89040929D01*
X149471160Y-89039540D01*
X149605017Y-89037652D01*
X149711473Y-89035195D01*
X149793744Y-89032098D01*
X149855044Y-89028292D01*
X149898589Y-89023705D01*
X149927594Y-89018267D01*
X149945274Y-89011908D01*
X149953388Y-89006145D01*
X149986086Y-88944264D01*
X149980909Y-88874991D01*
X149947381Y-88824666D01*
X149935994Y-88817154D01*
X149917452Y-88810674D01*
X149888490Y-88805151D01*
X149845841Y-88800510D01*
X149786237Y-88796675D01*
X149706411Y-88793570D01*
X149603098Y-88791120D01*
X149473030Y-88789250D01*
X149312941Y-88787883D01*
X149119563Y-88786945D01*
X148889629Y-88786359D01*
X148619874Y-88786051D01*
X148307031Y-88785944D01*
X148272335Y-88785942D01*
X147956724Y-88785894D01*
X147684425Y-88785724D01*
X147452059Y-88785338D01*
X147256246Y-88784643D01*
X147093607Y-88783547D01*
X146960762Y-88781955D01*
X146854333Y-88779774D01*
X146770940Y-88776911D01*
X146707203Y-88773273D01*
X146659744Y-88768767D01*
X146625183Y-88763298D01*
X146600141Y-88756775D01*
X146581238Y-88749103D01*
X146565095Y-88740189D01*
X146562704Y-88738740D01*
X146485252Y-88666380D01*
X146437475Y-88569563D01*
X146419372Y-88459879D01*
X146430942Y-88348919D01*
X146472187Y-88248275D01*
X146543106Y-88169536D01*
X146562704Y-88156297D01*
X146578105Y-88147523D01*
X146595687Y-88139911D01*
X146618685Y-88133379D01*
X146650333Y-88127844D01*
X146693867Y-88123223D01*
X146752522Y-88119434D01*
X146829532Y-88116393D01*
X146928133Y-88114018D01*
X147051560Y-88112226D01*
X147203047Y-88110935D01*
X147385829Y-88110062D01*
X147603143Y-88109523D01*
X147858222Y-88109237D01*
X148154301Y-88109120D01*
X148408410Y-88109094D01*
X150176838Y-88109007D01*
X150176838Y-88202389D01*
G37*
G36*
X136999502Y-92180590D02*
G01*
X137007111Y-92217491D01*
X137005641Y-92233539D01*
X136988463Y-92286923D01*
X136958887Y-92307863D01*
X136932594Y-92296136D01*
X136919918Y-92262300D01*
X136916544Y-92225612D01*
X136928902Y-92182135D01*
X136964786Y-92171139D01*
X136999502Y-92180590D01*
G37*
G36*
X137186267Y-92180590D02*
G01*
X137193875Y-92217491D01*
X137192406Y-92233539D01*
X137175227Y-92286923D01*
X137145651Y-92307863D01*
X137119359Y-92296136D01*
X137106683Y-92262300D01*
X137103309Y-92225612D01*
X137115666Y-92182135D01*
X137151551Y-92171139D01*
X137186267Y-92180590D01*
G37*
G36*
X147621264Y-87158989D02*
G01*
X147631357Y-87181053D01*
X147632169Y-87205642D01*
X147637140Y-87265070D01*
X147645117Y-87298487D01*
X147640008Y-87324010D01*
X147596805Y-87341258D01*
X147569243Y-87346434D01*
X147410276Y-87384000D01*
X147228855Y-87447150D01*
X147037434Y-87530462D01*
X146848468Y-87628512D01*
X146674411Y-87735878D01*
X146673673Y-87736379D01*
X146532787Y-87843279D01*
X146380388Y-87978000D01*
X146229018Y-88128345D01*
X146091221Y-88282117D01*
X146018150Y-88373767D01*
X145948868Y-88473970D01*
X145871644Y-88598756D01*
X145797354Y-88729974D01*
X145751887Y-88818047D01*
X145618412Y-89141594D01*
X145530684Y-89472774D01*
X145488661Y-89810061D01*
X145492305Y-90151932D01*
X145541578Y-90496862D01*
X145636440Y-90843326D01*
X145776851Y-91189799D01*
X145814641Y-91267449D01*
X145875865Y-91381963D01*
X145922394Y-91452160D01*
X145954227Y-91478041D01*
X145971368Y-91459609D01*
X145974633Y-91422703D01*
X145983841Y-91383551D01*
X146009301Y-91385701D01*
X146047769Y-91428031D01*
X146064799Y-91453895D01*
X146085785Y-91490282D01*
X146097503Y-91523703D01*
X146099674Y-91564468D01*
X146092022Y-91622885D01*
X146074269Y-91709264D01*
X146055708Y-91791774D01*
X146047010Y-91820861D01*
X146030775Y-91835854D01*
X145996931Y-91837827D01*
X145935407Y-91827858D01*
X145861793Y-91812499D01*
X145771359Y-91785531D01*
X145708762Y-91742845D01*
X145656416Y-91671233D01*
X145643625Y-91648641D01*
X145632079Y-91620343D01*
X145647412Y-91612225D01*
X145698821Y-91619602D01*
X145700150Y-91619851D01*
X145780769Y-91634975D01*
X145647888Y-91369789D01*
X145492341Y-91012485D01*
X145381561Y-90651955D01*
X145315743Y-90290397D01*
X145295085Y-89930013D01*
X145319786Y-89573003D01*
X145390041Y-89221567D01*
X145440303Y-89054606D01*
X145572222Y-88732531D01*
X145745255Y-88425734D01*
X145954943Y-88139344D01*
X146196825Y-87878489D01*
X146466441Y-87648298D01*
X146759331Y-87453899D01*
X146896783Y-87379841D01*
X147039152Y-87314853D01*
X147194092Y-87254756D01*
X147346010Y-87204946D01*
X147479312Y-87170819D01*
X147524218Y-87162725D01*
X147589632Y-87154502D01*
X147621264Y-87158989D01*
G37*
G36*
X143643510Y-86884944D02*
G01*
X143776794Y-86910985D01*
X143906669Y-86955010D01*
X144039270Y-87015729D01*
X144163227Y-87089497D01*
X144291658Y-87185850D01*
X144412610Y-87294149D01*
X144514135Y-87403754D01*
X144580816Y-87497840D01*
X144622753Y-87571254D01*
X144492008Y-87654891D01*
X144422987Y-87696353D01*
X144369119Y-87723771D01*
X144342647Y-87731166D01*
X144319648Y-87710521D01*
X144276783Y-87663202D01*
X144223085Y-87599209D01*
X144219997Y-87595404D01*
X144068736Y-87443132D01*
X143892902Y-87325038D01*
X143699637Y-87243446D01*
X143496081Y-87200677D01*
X143289376Y-87199056D01*
X143108888Y-87233999D01*
X142954636Y-87303634D01*
X142811813Y-87415663D01*
X142681735Y-87566900D01*
X142565716Y-87754155D01*
X142465072Y-87974242D01*
X142381119Y-88223973D01*
X142315171Y-88500159D01*
X142268544Y-88799613D01*
X142242553Y-89119147D01*
X142237337Y-89346323D01*
X142249302Y-89694773D01*
X142284465Y-90020680D01*
X142341733Y-90321228D01*
X142420010Y-90593601D01*
X142518201Y-90834985D01*
X142635213Y-91042564D01*
X142769949Y-91213521D01*
X142921316Y-91345043D01*
X143041503Y-91414448D01*
X143127294Y-91447632D01*
X143216394Y-91465030D01*
X143329356Y-91470505D01*
X143339958Y-91470544D01*
X143564912Y-91449757D01*
X143771571Y-91388115D01*
X143956180Y-91287588D01*
X144114986Y-91150143D01*
X144227285Y-91005126D01*
X144293750Y-90901336D01*
X144293750Y-90263903D01*
X144293750Y-89626470D01*
X143826838Y-89626470D01*
X143359927Y-89626470D01*
X143359927Y-89463051D01*
X143359927Y-89299632D01*
X144001930Y-89299632D01*
X144643934Y-89299632D01*
X144643934Y-90536948D01*
X144643934Y-91774264D01*
X144468842Y-91774264D01*
X144293750Y-91774264D01*
X144293750Y-91624591D01*
X144293750Y-91474918D01*
X144141413Y-91577071D01*
X143960333Y-91675886D01*
X143755240Y-91749613D01*
X143538963Y-91795701D01*
X143324327Y-91811601D01*
X143124160Y-91794764D01*
X143085643Y-91786939D01*
X142878454Y-91716401D01*
X142688739Y-91603153D01*
X142517024Y-91447994D01*
X142363836Y-91251721D01*
X142229701Y-91015132D01*
X142115147Y-90739023D01*
X142020698Y-90424194D01*
X141946883Y-90071441D01*
X141944670Y-90058364D01*
X141925027Y-89901904D01*
X141911571Y-89711662D01*
X141904322Y-89500138D01*
X141903298Y-89279830D01*
X141908517Y-89063237D01*
X141919996Y-88862860D01*
X141937754Y-88691197D01*
X141942645Y-88657628D01*
X142013023Y-88294521D01*
X142104862Y-87971163D01*
X142217947Y-87687954D01*
X142352060Y-87445290D01*
X142506983Y-87243571D01*
X142682500Y-87083194D01*
X142861920Y-86972532D01*
X142940829Y-86934823D01*
X143005037Y-86909501D01*
X143068199Y-86893628D01*
X143143974Y-86884265D01*
X143246019Y-86878473D01*
X143310417Y-86876025D01*
X143492742Y-86874190D01*
X143643510Y-86884944D01*
G37*
G36*
X135930193Y-86872089D02*
G01*
X136087776Y-86872487D01*
X137173346Y-88928803D01*
X138258916Y-90985119D01*
X138264880Y-88940078D01*
X138270843Y-86895037D01*
X138445808Y-86895037D01*
X138620772Y-86895037D01*
X138620772Y-89334650D01*
X138620772Y-91774264D01*
X138494281Y-91774264D01*
X138417099Y-91776444D01*
X138356687Y-91782029D01*
X138335568Y-91786629D01*
X138322514Y-91775014D01*
X138295043Y-91734690D01*
X138252483Y-91664429D01*
X138194160Y-91563002D01*
X138119402Y-91429178D01*
X138027536Y-91261730D01*
X137917891Y-91059426D01*
X137789793Y-90821039D01*
X137642570Y-90545339D01*
X137475550Y-90231096D01*
X137288060Y-89877082D01*
X137207234Y-89724164D01*
X136111122Y-87649334D01*
X136105159Y-89711799D01*
X136099196Y-91774264D01*
X135935903Y-91774264D01*
X135772611Y-91774264D01*
X135772611Y-89322978D01*
X135772611Y-86871691D01*
X135930193Y-86872089D01*
G37*
G36*
X139630469Y-86872096D02*
G01*
X139857183Y-86873074D01*
X140044011Y-86876338D01*
X140197736Y-86882860D01*
X140325144Y-86893611D01*
X140433020Y-86909564D01*
X140528150Y-86931688D01*
X140617319Y-86960957D01*
X140707312Y-86998341D01*
X140791912Y-87038397D01*
X141002888Y-87166548D01*
X141182988Y-87325581D01*
X141330435Y-87510265D01*
X141443451Y-87715368D01*
X141520260Y-87935661D01*
X141559084Y-88165912D01*
X141558147Y-88400891D01*
X141515672Y-88635365D01*
X141429881Y-88864105D01*
X141419382Y-88885409D01*
X141339207Y-89012156D01*
X141228344Y-89143311D01*
X141099530Y-89266126D01*
X140965503Y-89367849D01*
X140896210Y-89409116D01*
X140809360Y-89449420D01*
X140700213Y-89491912D01*
X140581449Y-89532552D01*
X140465748Y-89567299D01*
X140365790Y-89592112D01*
X140294254Y-89602952D01*
X140287370Y-89603125D01*
X140244708Y-89606714D01*
X140231618Y-89613150D01*
X140243768Y-89633883D01*
X140278318Y-89689436D01*
X140332421Y-89775355D01*
X140403228Y-89887184D01*
X140487891Y-90020468D01*
X140583561Y-90170752D01*
X140687392Y-90333581D01*
X140796533Y-90504501D01*
X140908137Y-90679055D01*
X141019356Y-90852789D01*
X141127341Y-91021249D01*
X141229245Y-91179978D01*
X141322219Y-91324521D01*
X141403414Y-91450425D01*
X141469983Y-91553233D01*
X141519077Y-91628490D01*
X141546051Y-91669109D01*
X141583075Y-91727045D01*
X141605707Y-91769112D01*
X141609008Y-91779684D01*
X141587466Y-91787840D01*
X141530042Y-91794054D01*
X141447532Y-91797337D01*
X141413531Y-91797610D01*
X141218054Y-91797610D01*
X140523313Y-90712040D01*
X139828571Y-89626470D01*
X139574855Y-89626470D01*
X139321140Y-89626470D01*
X139321140Y-90700367D01*
X139321140Y-91774264D01*
X139157721Y-91774264D01*
X138994302Y-91774264D01*
X138994302Y-89322978D01*
X138994302Y-87198529D01*
X139321140Y-87198529D01*
X139321140Y-88252060D01*
X139321140Y-89305592D01*
X139782215Y-89292920D01*
X140010443Y-89284159D01*
X140192421Y-89271694D01*
X140328038Y-89255537D01*
X140392630Y-89242720D01*
X140590499Y-89174882D01*
X140772547Y-89077402D01*
X140931540Y-88956019D01*
X141060247Y-88816471D01*
X141151433Y-88664494D01*
X141166009Y-88629254D01*
X141220409Y-88423182D01*
X141229630Y-88216174D01*
X141194836Y-88012982D01*
X141117193Y-87818359D01*
X140997864Y-87637058D01*
X140895635Y-87525849D01*
X140785859Y-87429925D01*
X140673604Y-87353700D01*
X140551985Y-87295212D01*
X140414119Y-87252503D01*
X140253121Y-87223613D01*
X140062109Y-87206583D01*
X139834196Y-87199452D01*
X139747197Y-87198935D01*
X139321140Y-87198529D01*
X138994302Y-87198529D01*
X138994302Y-86871691D01*
X139630469Y-86872096D01*
G37*
G36*
X148278746Y-86909813D02*
G01*
X148271953Y-86937743D01*
X148242448Y-86973241D01*
X148191084Y-87027915D01*
X148456578Y-87043079D01*
X148856118Y-87086163D01*
X149231835Y-87167899D01*
X149582448Y-87287436D01*
X149906678Y-87443924D01*
X150203245Y-87636513D01*
X150470870Y-87864353D01*
X150708272Y-88126594D01*
X150914172Y-88422386D01*
X151087290Y-88750878D01*
X151112157Y-88807102D01*
X151226136Y-89120799D01*
X151305253Y-89447852D01*
X151348799Y-89779976D01*
X151356062Y-90108887D01*
X151326330Y-90426299D01*
X151272603Y-90676691D01*
X151243094Y-90781332D01*
X151220655Y-90847722D01*
X151199675Y-90882545D01*
X151174546Y-90892485D01*
X151139655Y-90884228D01*
X151108614Y-90872080D01*
X151024857Y-90838469D01*
X151078012Y-90654948D01*
X151145100Y-90341116D01*
X151169147Y-90018162D01*
X151151583Y-89691199D01*
X151093835Y-89365336D01*
X150997332Y-89045686D01*
X150863502Y-88737361D01*
X150693774Y-88445472D01*
X150489577Y-88175130D01*
X150340075Y-88014406D01*
X150079627Y-87789070D01*
X149791460Y-87601161D01*
X149476018Y-87450864D01*
X149133742Y-87338363D01*
X148765075Y-87263841D01*
X148460938Y-87232291D01*
X148204136Y-87215807D01*
X148256664Y-87272873D01*
X148297525Y-87322484D01*
X148301472Y-87349384D01*
X148265016Y-87360218D01*
X148209973Y-87361798D01*
X148144789Y-87355861D01*
X148088014Y-87333045D01*
X148022313Y-87285495D01*
X147999862Y-87266599D01*
X147941874Y-87213618D01*
X147901738Y-87170684D01*
X147888971Y-87149500D01*
X147903703Y-87121682D01*
X147941862Y-87072280D01*
X147982615Y-87025858D01*
X148054575Y-86958070D01*
X148121723Y-86921315D01*
X148172496Y-86908877D01*
X148246507Y-86901031D01*
X148278746Y-86909813D01*
G37*
D11*
%TO.C,R6*%
X143495000Y-75280000D02*
X143495000Y-77120000D01*
X143495000Y-77120000D02*
X147335000Y-77120000D01*
X147335000Y-75280000D02*
X143495000Y-75280000D01*
X142545000Y-76200000D02*
X143495000Y-76200000D01*
X147335000Y-77120000D02*
X147335000Y-75280000D01*
X148285000Y-76200000D02*
X147335000Y-76200000D01*
%TO.C,R4*%
X143495000Y-71495000D02*
X143495000Y-73335000D01*
X143495000Y-73335000D02*
X147335000Y-73335000D01*
X147335000Y-71495000D02*
X143495000Y-71495000D01*
X142545000Y-72415000D02*
X143495000Y-72415000D01*
X147335000Y-73335000D02*
X147335000Y-71495000D01*
X148285000Y-72415000D02*
X147335000Y-72415000D01*
%TO.C,R2*%
X147335000Y-69500000D02*
X147335000Y-67660000D01*
X147335000Y-67660000D02*
X143495000Y-67660000D01*
X143495000Y-69500000D02*
X147335000Y-69500000D01*
X148285000Y-68580000D02*
X147335000Y-68580000D01*
X143495000Y-67660000D02*
X143495000Y-69500000D01*
X142545000Y-68580000D02*
X143495000Y-68580000D01*
%TO.C,Q1*%
X156065000Y-67270000D02*
X156065000Y-77510000D01*
X157575000Y-77510000D02*
X152934000Y-77510000D01*
X152934000Y-67270000D02*
X152934000Y-77510000D01*
X157575000Y-67270000D02*
X152934000Y-67270000D01*
X157575000Y-74241000D02*
X156065000Y-74241000D01*
X157575000Y-70540000D02*
X156065000Y-70540000D01*
X157575000Y-67270000D02*
X157575000Y-77510000D01*
%TO.C,J4*%
X135890000Y-74295000D02*
X128270000Y-74295000D01*
X128270000Y-84455000D02*
X135890000Y-84455000D01*
X129540000Y-84455000D02*
X129540000Y-74295000D01*
X128270000Y-74295000D02*
X128270000Y-84455000D01*
X135890000Y-84455000D02*
X135890000Y-74295000D01*
%TO.C,J2*%
X144145000Y-54670000D02*
X146745000Y-54670000D01*
X144145000Y-52010000D02*
X146745000Y-52010000D01*
X144145000Y-54670000D02*
X144145000Y-52010000D01*
X141545000Y-53340000D02*
X141545000Y-52010000D01*
X141545000Y-52010000D02*
X142875000Y-52010000D01*
X146745000Y-54670000D02*
X146745000Y-52010000D01*
%TO.C,J1*%
X135890000Y-59690000D02*
X128270000Y-59690000D01*
X128270000Y-69850000D02*
X135890000Y-69850000D01*
X129540000Y-69850000D02*
X129540000Y-59690000D01*
X128270000Y-59690000D02*
X128270000Y-69850000D01*
X135890000Y-69850000D02*
X135890000Y-59690000D01*
%TD*%
%LPC*%
D12*
%TO.C,R6*%
X149225000Y-76200000D03*
D13*
X141605000Y-76200000D03*
%TD*%
D12*
%TO.C,R4*%
X149225000Y-72415000D03*
D13*
X141605000Y-72415000D03*
%TD*%
D12*
%TO.C,R2*%
X141605000Y-68580000D03*
D13*
X149225000Y-68580000D03*
%TD*%
D14*
%TO.C,Q1*%
X154305000Y-74930000D03*
X154305000Y-72390000D03*
D15*
X154305000Y-69850000D03*
%TD*%
D16*
%TO.C,J4*%
X132080000Y-76835000D03*
D17*
X132080000Y-81915000D03*
%TD*%
D18*
%TO.C,J2*%
X142875000Y-53340000D03*
D19*
X145415000Y-53340000D03*
%TD*%
D16*
%TO.C,J1*%
X132080000Y-62230000D03*
D17*
X132080000Y-67310000D03*
%TD*%
D20*
%TO.C,H4*%
X155000000Y-54000000D03*
%TD*%
%TO.C,H3*%
X132000000Y-90000000D03*
%TD*%
%TO.C,H2*%
X155000000Y-90000000D03*
%TD*%
%TO.C,H1*%
X132000000Y-54000000D03*
%TD*%
%LPD*%
M02*
