ISO-10303-21;
HEADER;
FILE_DESCRIPTION(('FreeCAD Model'),'2;1');
FILE_NAME('Open CASCADE Shape Model','2024-01-18T16:26:31',(''),(''),
  'Open CASCADE STEP processor 7.6','FreeCAD','Unknown');
FILE_SCHEMA(('AUTOMOTIVE_DESIGN { 1 0 10303 214 1 1 1 1 }'));
ENDSEC;
DATA;
#1 = APPLICATION_PROTOCOL_DEFINITION('international standard',
  'automotive_design',2000,#2);
#2 = APPLICATION_CONTEXT(
  'core data for automotive mechanical design processes');
#3 = SHAPE_DEFINITION_REPRESENTATION(#4,#10);
#4 = PRODUCT_DEFINITION_SHAPE('','',#5);
#5 = PRODUCT_DEFINITION('design','',#6,#9);
#6 = PRODUCT_DEFINITION_FORMATION('','',#7);
#7 = PRODUCT('needle_port_guide','needle_port_guide','',(#8));
#8 = PRODUCT_CONTEXT('',#2,'mechanical');
#9 = PRODUCT_DEFINITION_CONTEXT('part definition',#2,'design');
#10 = ADVANCED_BREP_SHAPE_REPRESENTATION('',(#11,#15),#232);
#11 = AXIS2_PLACEMENT_3D('',#12,#13,#14);
#12 = CARTESIAN_POINT('',(0.,0.,0.));
#13 = DIRECTION('',(0.,0.,1.));
#14 = DIRECTION('',(1.,0.,-0.));
#15 = MANIFOLD_SOLID_BREP('',#16);
#16 = CLOSED_SHELL('',(#17,#45,#70,#104,#124,#150,#175,#195,#215));
#17 = ADVANCED_FACE('',(#18,#29),#40,.F.);
#18 = FACE_BOUND('',#19,.T.);
#19 = EDGE_LOOP('',(#20));
#20 = ORIENTED_EDGE('',*,*,#21,.F.);
#21 = EDGE_CURVE('',#22,#22,#24,.T.);
#22 = VERTEX_POINT('',#23);
#23 = CARTESIAN_POINT('',(1.33226762955E-15,6.,-1.132427485118E-14));
#24 = CIRCLE('',#25,6.);
#25 = AXIS2_PLACEMENT_3D('',#26,#27,#28);
#26 = CARTESIAN_POINT('',(2.773339119918E-30,5.546678239835E-32,
    -9.992007221626E-16));
#27 = DIRECTION('',(1.110223024625E-16,-2.609024107869E-15,-1.));
#28 = DIRECTION('',(-6.661338147751E-16,1.,-2.609024107869E-15));
#29 = FACE_BOUND('',#30,.T.);
#30 = EDGE_LOOP('',(#31));
#31 = ORIENTED_EDGE('',*,*,#32,.F.);
#32 = EDGE_CURVE('',#33,#33,#35,.T.);
#33 = VERTEX_POINT('',#34);
#34 = CARTESIAN_POINT('',(3.330669073875E-16,1.5,-1.33226762955E-15));
#35 = CIRCLE('',#36,1.5);
#36 = AXIS2_PLACEMENT_3D('',#37,#38,#39);
#37 = CARTESIAN_POINT('',(2.773339119918E-31,-6.933347799794E-32,
    -2.498001805407E-16));
#38 = DIRECTION('',(-4.440892098501E-16,9.436895709314E-16,1.));
#39 = DIRECTION('',(3.574525976783E-31,1.,-9.436895709314E-16));
#40 = PLANE('',#41);
#41 = AXIS2_PLACEMENT_3D('',#42,#43,#44);
#42 = CARTESIAN_POINT('',(0.,0.,0.));
#43 = DIRECTION('',(2.775557561563E-15,5.551115123125E-17,-1.));
#44 = DIRECTION('',(-6.661338147751E-16,1.,-2.609024107869E-15));
#45 = ADVANCED_FACE('',(#46),#65,.T.);
#46 = FACE_BOUND('',#47,.T.);
#47 = EDGE_LOOP('',(#48,#56,#57,#58));
#48 = ORIENTED_EDGE('',*,*,#49,.F.);
#49 = EDGE_CURVE('',#22,#50,#52,.T.);
#50 = VERTEX_POINT('',#51);
#51 = CARTESIAN_POINT('',(3.552713678801E-15,6.,-4.));
#52 = LINE('',#53,#54);
#53 = CARTESIAN_POINT('',(-5.329070518201E-15,6.,-1.798561299893E-14));
#54 = VECTOR('',#55,1.);
#55 = DIRECTION('',(2.997602166488E-15,3.330669073875E-16,-1.));
#56 = ORIENTED_EDGE('',*,*,#21,.T.);
#57 = ORIENTED_EDGE('',*,*,#49,.T.);
#58 = ORIENTED_EDGE('',*,*,#59,.T.);
#59 = EDGE_CURVE('',#50,#50,#60,.T.);
#60 = CIRCLE('',#61,6.);
#61 = AXIS2_PLACEMENT_3D('',#62,#63,#64);
#62 = CARTESIAN_POINT('',(2.22044604925E-15,-1.554312234475E-15,-4.));
#63 = DIRECTION('',(-5.551115123126E-16,3.885780586188E-16,1.));
#64 = DIRECTION('',(2.22044604925E-16,1.,-3.885780586188E-16));
#65 = CYLINDRICAL_SURFACE('',#66,6.);
#66 = AXIS2_PLACEMENT_3D('',#67,#68,#69);
#67 = CARTESIAN_POINT('',(2.773339119918E-30,5.546678239835E-32,
    -9.992007221626E-16));
#68 = DIRECTION('',(2.775557561563E-15,5.551115123125E-17,-1.));
#69 = DIRECTION('',(-6.661338147751E-16,1.,-2.609024107869E-15));
#70 = ADVANCED_FACE('',(#71),#99,.F.);
#71 = FACE_BOUND('',#72,.F.);
#72 = EDGE_LOOP('',(#73,#84,#90,#91,#92));
#73 = ORIENTED_EDGE('',*,*,#74,.T.);
#74 = EDGE_CURVE('',#75,#77,#79,.T.);
#75 = VERTEX_POINT('',#76);
#76 = CARTESIAN_POINT('',(0.4,-1.201374949886E-15,-1.90525588832));
#77 = VERTEX_POINT('',#78);
#78 = CARTESIAN_POINT('',(1.781025005983E-15,0.4,-1.90525588832));
#79 = CIRCLE('',#80,0.4);
#80 = AXIS2_PLACEMENT_3D('',#81,#82,#83);
#81 = CARTESIAN_POINT('',(1.961421940106E-15,-4.134369775713E-16,
    -1.90525588832));
#82 = DIRECTION('',(-6.661338147751E-16,1.110223024625E-15,1.));
#83 = DIRECTION('',(1.,-4.440892098501E-16,6.661338147751E-16));
#84 = ORIENTED_EDGE('',*,*,#85,.T.);
#85 = EDGE_CURVE('',#77,#33,#86,.T.);
#86 = LINE('',#87,#88);
#87 = CARTESIAN_POINT('',(3.461332835481E-15,-1.479114197289E-30,
    -2.598076211346));
#88 = VECTOR('',#89,1.);
#89 = DIRECTION('',(-1.264799914292E-15,0.500000000001,0.866025403784));
#90 = ORIENTED_EDGE('',*,*,#32,.F.);
#91 = ORIENTED_EDGE('',*,*,#85,.F.);
#92 = ORIENTED_EDGE('',*,*,#93,.T.);
#93 = EDGE_CURVE('',#77,#75,#94,.T.);
#94 = CIRCLE('',#95,0.4);
#95 = AXIS2_PLACEMENT_3D('',#96,#97,#98);
#96 = CARTESIAN_POINT('',(1.961421940106E-15,-4.134369775713E-16,
    -1.90525588832));
#97 = DIRECTION('',(-6.661338147751E-16,1.110223024625E-15,1.));
#98 = DIRECTION('',(1.,-4.440892098501E-16,6.661338147751E-16));
#99 = CONICAL_SURFACE('',#100,1.442222014784E-16,0.5235987756);
#100 = AXIS2_PLACEMENT_3D('',#101,#102,#103);
#101 = CARTESIAN_POINT('',(2.884444029567E-15,-7.211110073918E-16,
    -2.598076211346));
#102 = DIRECTION('',(-1.110223024625E-15,2.775557561563E-16,1.));
#103 = DIRECTION('',(3.574525976783E-31,1.,-9.436895709314E-16));
#104 = ADVANCED_FACE('',(#105,#108),#119,.F.);
#105 = FACE_BOUND('',#106,.F.);
#106 = EDGE_LOOP('',(#107));
#107 = ORIENTED_EDGE('',*,*,#59,.T.);
#108 = FACE_BOUND('',#109,.F.);
#109 = EDGE_LOOP('',(#110));
#110 = ORIENTED_EDGE('',*,*,#111,.F.);
#111 = EDGE_CURVE('',#112,#112,#114,.T.);
#112 = VERTEX_POINT('',#113);
#113 = CARTESIAN_POINT('',(2.775557561563E-15,2.5,-4.));
#114 = CIRCLE('',#115,2.5);
#115 = AXIS2_PLACEMENT_3D('',#116,#117,#118);
#116 = CARTESIAN_POINT('',(2.22044604925E-15,-1.554312234475E-15,-4.));
#117 = DIRECTION('',(-5.551115123126E-16,3.885780586188E-16,1.));
#118 = DIRECTION('',(2.22044604925E-16,1.,-3.885780586188E-16));
#119 = PLANE('',#120);
#120 = AXIS2_PLACEMENT_3D('',#121,#122,#123);
#121 = CARTESIAN_POINT('',(2.22044604925E-15,-1.554312234475E-15,-4.));
#122 = DIRECTION('',(-5.551115123126E-16,3.885780586188E-16,1.));
#123 = DIRECTION('',(2.22044604925E-16,1.,-3.885780586188E-16));
#124 = ADVANCED_FACE('',(#125),#145,.F.);
#125 = FACE_BOUND('',#126,.F.);
#126 = EDGE_LOOP('',(#127,#128,#136,#143,#144));
#127 = ORIENTED_EDGE('',*,*,#74,.F.);
#128 = ORIENTED_EDGE('',*,*,#129,.T.);
#129 = EDGE_CURVE('',#75,#130,#132,.T.);
#130 = VERTEX_POINT('',#131);
#131 = CARTESIAN_POINT('',(0.4,-2.13162820728E-15,-4.));
#132 = LINE('',#133,#134);
#133 = CARTESIAN_POINT('',(0.4,-6.217248937901E-16,-8.881784197001E-17)
  );
#134 = VECTOR('',#135,1.);
#135 = DIRECTION('',(1.998401444325E-15,2.22044604925E-16,-1.));
#136 = ORIENTED_EDGE('',*,*,#137,.T.);
#137 = EDGE_CURVE('',#130,#130,#138,.T.);
#138 = CIRCLE('',#139,0.4);
#139 = AXIS2_PLACEMENT_3D('',#140,#141,#142);
#140 = CARTESIAN_POINT('',(6.217248937901E-15,-8.881784197001E-16,-4.));
#141 = DIRECTION('',(-2.22044604925E-16,1.554312234475E-15,1.));
#142 = DIRECTION('',(1.,-1.33226762955E-15,2.22044604925E-16));
#143 = ORIENTED_EDGE('',*,*,#129,.F.);
#144 = ORIENTED_EDGE('',*,*,#93,.F.);
#145 = CYLINDRICAL_SURFACE('',#146,0.4);
#146 = AXIS2_PLACEMENT_3D('',#147,#148,#149);
#147 = CARTESIAN_POINT('',(0.,0.,0.));
#148 = DIRECTION('',(-1.7763568394E-15,1.627025617018E-30,1.));
#149 = DIRECTION('',(1.,-1.554312234475E-15,-2.22044604925E-16));
#150 = ADVANCED_FACE('',(#151),#170,.T.);
#151 = FACE_BOUND('',#152,.F.);
#152 = EDGE_LOOP('',(#153,#154,#162,#169));
#153 = ORIENTED_EDGE('',*,*,#111,.T.);
#154 = ORIENTED_EDGE('',*,*,#155,.T.);
#155 = EDGE_CURVE('',#112,#156,#158,.T.);
#156 = VERTEX_POINT('',#157);
#157 = CARTESIAN_POINT('',(6.106226635438E-15,2.5,-10.));
#158 = LINE('',#159,#160);
#159 = CARTESIAN_POINT('',(3.10862446895E-15,2.5,-4.));
#160 = VECTOR('',#161,1.);
#161 = DIRECTION('',(7.771561172376E-16,-1.110223024625E-16,-1.));
#162 = ORIENTED_EDGE('',*,*,#163,.F.);
#163 = EDGE_CURVE('',#156,#156,#164,.T.);
#164 = CIRCLE('',#165,2.5);
#165 = AXIS2_PLACEMENT_3D('',#166,#167,#168);
#166 = CARTESIAN_POINT('',(5.551115123126E-15,-3.885780586188E-15,-10.)
  );
#167 = DIRECTION('',(-5.551115123126E-16,3.885780586188E-16,1.));
#168 = DIRECTION('',(2.22044604925E-16,1.,-3.885780586188E-16));
#169 = ORIENTED_EDGE('',*,*,#155,.F.);
#170 = CYLINDRICAL_SURFACE('',#171,2.5);
#171 = AXIS2_PLACEMENT_3D('',#172,#173,#174);
#172 = CARTESIAN_POINT('',(2.22044604925E-15,-1.554312234475E-15,-4.));
#173 = DIRECTION('',(5.551115123126E-16,-3.885780586188E-16,-1.));
#174 = DIRECTION('',(2.22044604925E-16,1.,-3.885780586188E-16));
#175 = ADVANCED_FACE('',(#176,#187),#190,.F.);
#176 = FACE_BOUND('',#177,.F.);
#177 = EDGE_LOOP('',(#178));
#178 = ORIENTED_EDGE('',*,*,#179,.T.);
#179 = EDGE_CURVE('',#180,#180,#182,.T.);
#180 = VERTEX_POINT('',#181);
#181 = CARTESIAN_POINT('',(5.062616992291E-15,0.8,-4.));
#182 = CIRCLE('',#183,0.8);
#183 = AXIS2_PLACEMENT_3D('',#184,#185,#186);
#184 = CARTESIAN_POINT('',(6.661338147751E-15,-6.661338147751E-16,-4.));
#185 = DIRECTION('',(-3.330669073875E-16,1.498801083244E-15,1.));
#186 = DIRECTION('',(-2.22044604925E-16,1.,-1.498801083244E-15));
#187 = FACE_BOUND('',#188,.F.);
#188 = EDGE_LOOP('',(#189));
#189 = ORIENTED_EDGE('',*,*,#137,.F.);
#190 = PLANE('',#191);
#191 = AXIS2_PLACEMENT_3D('',#192,#193,#194);
#192 = CARTESIAN_POINT('',(6.661338147751E-15,-6.661338147751E-16,-4.));
#193 = DIRECTION('',(-1.665334536938E-15,1.665334536938E-16,1.));
#194 = DIRECTION('',(-2.22044604925E-16,1.,-1.498801083244E-15));
#195 = ADVANCED_FACE('',(#196,#199),#210,.F.);
#196 = FACE_BOUND('',#197,.T.);
#197 = EDGE_LOOP('',(#198));
#198 = ORIENTED_EDGE('',*,*,#163,.F.);
#199 = FACE_BOUND('',#200,.T.);
#200 = EDGE_LOOP('',(#201));
#201 = ORIENTED_EDGE('',*,*,#202,.T.);
#202 = EDGE_CURVE('',#203,#203,#205,.T.);
#203 = VERTEX_POINT('',#204);
#204 = CARTESIAN_POINT('',(1.239008895482E-14,0.8,-10.));
#205 = CIRCLE('',#206,0.8);
#206 = AXIS2_PLACEMENT_3D('',#207,#208,#209);
#207 = CARTESIAN_POINT('',(1.665334536938E-14,-1.665334536938E-15,-10.)
  );
#208 = DIRECTION('',(-3.330669073875E-16,1.498801083244E-15,1.));
#209 = DIRECTION('',(-2.22044604925E-16,1.,-1.498801083244E-15));
#210 = PLANE('',#211);
#211 = AXIS2_PLACEMENT_3D('',#212,#213,#214);
#212 = CARTESIAN_POINT('',(2.775557561563E-14,5.551115123125E-16,-10.));
#213 = DIRECTION('',(-2.775557561563E-15,-5.551115123125E-17,1.));
#214 = DIRECTION('',(6.661338147751E-16,-1.,2.609024107869E-15));
#215 = ADVANCED_FACE('',(#216),#227,.F.);
#216 = FACE_BOUND('',#217,.F.);
#217 = EDGE_LOOP('',(#218,#219,#225,#226));
#218 = ORIENTED_EDGE('',*,*,#202,.T.);
#219 = ORIENTED_EDGE('',*,*,#220,.T.);
#220 = EDGE_CURVE('',#203,#180,#221,.T.);
#221 = LINE('',#222,#223);
#222 = CARTESIAN_POINT('',(1.851852005075E-14,0.8,-10.));
#223 = VECTOR('',#224,1.);
#224 = DIRECTION('',(-1.887379141863E-15,-1.110223024625E-16,1.));
#225 = ORIENTED_EDGE('',*,*,#179,.F.);
#226 = ORIENTED_EDGE('',*,*,#220,.F.);
#227 = CYLINDRICAL_SURFACE('',#228,0.8);
#228 = AXIS2_PLACEMENT_3D('',#229,#230,#231);
#229 = CARTESIAN_POINT('',(1.665334536938E-14,-1.665334536938E-15,-10.)
  );
#230 = DIRECTION('',(-1.665334536938E-15,1.665334536938E-16,1.));
#231 = DIRECTION('',(-2.22044604925E-16,1.,-1.498801083244E-15));
#232 = ( GEOMETRIC_REPRESENTATION_CONTEXT(3) 
GLOBAL_UNCERTAINTY_ASSIGNED_CONTEXT((#236)) GLOBAL_UNIT_ASSIGNED_CONTEXT
((#233,#234,#235)) REPRESENTATION_CONTEXT('Context #1',
  '3D Context with UNIT and UNCERTAINTY') );
#233 = ( LENGTH_UNIT() NAMED_UNIT(*) SI_UNIT(.MILLI.,.METRE.) );
#234 = ( NAMED_UNIT(*) PLANE_ANGLE_UNIT() SI_UNIT($,.RADIAN.) );
#235 = ( NAMED_UNIT(*) SI_UNIT($,.STERADIAN.) SOLID_ANGLE_UNIT() );
#236 = UNCERTAINTY_MEASURE_WITH_UNIT(LENGTH_MEASURE(1.E-07),#233,
  'distance_accuracy_value','confusion accuracy');
#237 = PRODUCT_RELATED_PRODUCT_CATEGORY('part',$,(#7));
#238 = MECHANICAL_DESIGN_GEOMETRIC_PRESENTATION_REPRESENTATION('',(#239)
  ,#232);
#239 = STYLED_ITEM('color',(#240),#15);
#240 = PRESENTATION_STYLE_ASSIGNMENT((#241,#247));
#241 = SURFACE_STYLE_USAGE(.BOTH.,#242);
#242 = SURFACE_SIDE_STYLE('',(#243));
#243 = SURFACE_STYLE_FILL_AREA(#244);
#244 = FILL_AREA_STYLE('',(#245));
#245 = FILL_AREA_STYLE_COLOUR('',#246);
#246 = COLOUR_RGB('',0.917599985683,0.917599985683,0.917599985683);
#247 = CURVE_STYLE('',#248,POSITIVE_LENGTH_MEASURE(0.1),#249);
#248 = DRAUGHTING_PRE_DEFINED_CURVE_FONT('continuous');
#249 = COLOUR_RGB('',9.803921802644E-02,9.803921802644E-02,
  9.803921802644E-02);
ENDSEC;
END-ISO-10303-21;
