ISO-10303-21;
HEADER;
/* Generated by software containing ST-Developer
 * from STEP Tools, Inc. (www.steptools.com) 
 */

FILE_DESCRIPTION(
/* description */ (''),
/* implementation_level */ '2;1');

FILE_NAME(
/* name */ '104499 Needle cap V2 Simone.stp',
/* time_stamp */ '2025-06-18T13:37:49+02:00',
/* author */ ('skoot2'),
/* organization */ ('Universiteit van Amsterdam'),
/* preprocessor_version */ 'ST-DEVELOPER v20',
/* originating_system */ 'Autodesk Inventor 2025',
/* authorisation */ '');

FILE_SCHEMA (('AUTOMOTIVE_DESIGN { 1 0 10303 214 3 1 1 }'));
ENDSEC;

DATA;
#10=MECHANICAL_DESIGN_GEOMETRIC_PRESENTATION_REPRESENTATION('',(#13),#528);
#11=SHAPE_REPRESENTATION_RELATIONSHIP('SRR','None',#535,#12);
#12=ADVANCED_BREP_SHAPE_REPRESENTATION('',(#14),#527);
#13=STYLED_ITEM('',(#544),#14);
#14=MANIFOLD_SOLID_BREP('Solid3',#287);
#15=CYLINDRICAL_SURFACE('',#331,2.75);
#16=CYLINDRICAL_SURFACE('',#335,5.);
#17=CYLINDRICAL_SURFACE('',#341,1.6);
#18=CYLINDRICAL_SURFACE('',#345,0.4);
#19=CONICAL_SURFACE('',#315,4.9,0.785398163397448);
#20=CONICAL_SURFACE('',#325,3.25,0.785398163397449);
#21=CONICAL_SURFACE('',#333,4.9,0.785398163397448);
#22=CONICAL_SURFACE('',#338,4.9,0.78539816339745);
#23=FACE_BOUND('',#65,.T.);
#24=FACE_BOUND('',#74,.T.);
#25=FACE_BOUND('',#80,.T.);
#26=FACE_BOUND('',#83,.T.);
#27=CIRCLE('',#312,4.8);
#28=CIRCLE('',#313,4.8);
#29=CIRCLE('',#314,0.4);
#30=CIRCLE('',#316,5.);
#31=CIRCLE('',#320,5.);
#32=CIRCLE('',#323,5.);
#33=CIRCLE('',#324,5.);
#34=CIRCLE('',#326,2.75);
#35=CIRCLE('',#327,2.75);
#36=CIRCLE('',#328,3.75);
#37=CIRCLE('',#330,4.8);
#38=CIRCLE('',#332,2.75);
#39=CIRCLE('',#334,5.);
#40=CIRCLE('',#336,5.);
#41=CIRCLE('',#337,5.);
#42=CIRCLE('',#340,1.6);
#43=CIRCLE('',#342,1.6);
#44=CIRCLE('',#344,0.4);
#45=FACE_OUTER_BOUND('',#63,.T.);
#46=FACE_OUTER_BOUND('',#64,.T.);
#47=FACE_OUTER_BOUND('',#66,.T.);
#48=FACE_OUTER_BOUND('',#67,.T.);
#49=FACE_OUTER_BOUND('',#68,.T.);
#50=FACE_OUTER_BOUND('',#69,.T.);
#51=FACE_OUTER_BOUND('',#70,.T.);
#52=FACE_OUTER_BOUND('',#71,.T.);
#53=FACE_OUTER_BOUND('',#72,.T.);
#54=FACE_OUTER_BOUND('',#73,.T.);
#55=FACE_OUTER_BOUND('',#75,.T.);
#56=FACE_OUTER_BOUND('',#76,.T.);
#57=FACE_OUTER_BOUND('',#77,.T.);
#58=FACE_OUTER_BOUND('',#78,.T.);
#59=FACE_OUTER_BOUND('',#79,.T.);
#60=FACE_OUTER_BOUND('',#81,.T.);
#61=FACE_OUTER_BOUND('',#82,.T.);
#62=FACE_OUTER_BOUND('',#84,.T.);
#63=EDGE_LOOP('',(#183,#184,#185,#186));
#64=EDGE_LOOP('',(#187,#188,#189,#190));
#65=EDGE_LOOP('',(#191));
#66=EDGE_LOOP('',(#192,#193,#194,#195));
#67=EDGE_LOOP('',(#196,#197,#198,#199));
#68=EDGE_LOOP('',(#200,#201,#202,#203));
#69=EDGE_LOOP('',(#204,#205));
#70=EDGE_LOOP('',(#206,#207,#208,#209));
#71=EDGE_LOOP('',(#210,#211,#212));
#72=EDGE_LOOP('',(#213,#214,#215,#216,#217));
#73=EDGE_LOOP('',(#218));
#74=EDGE_LOOP('',(#219));
#75=EDGE_LOOP('',(#220,#221,#222,#223,#224));
#76=EDGE_LOOP('',(#225,#226,#227,#228));
#77=EDGE_LOOP('',(#229,#230,#231,#232,#233,#234,#235,#236,#237,#238,#239,
#240,#241));
#78=EDGE_LOOP('',(#242,#243,#244,#245,#246));
#79=EDGE_LOOP('',(#247));
#80=EDGE_LOOP('',(#248));
#81=EDGE_LOOP('',(#249,#250,#251,#252));
#82=EDGE_LOOP('',(#253));
#83=EDGE_LOOP('',(#254));
#84=EDGE_LOOP('',(#255,#256,#257,#258));
#85=LINE('',#444,#101);
#86=LINE('',#449,#102);
#87=LINE('',#454,#103);
#88=LINE('',#469,#104);
#89=LINE('',#472,#105);
#90=LINE('',#474,#106);
#91=LINE('',#475,#107);
#92=LINE('',#480,#108);
#93=LINE('',#482,#109);
#94=LINE('',#483,#110);
#95=LINE('',#494,#111);
#96=LINE('',#501,#112);
#97=LINE('',#510,#113);
#98=LINE('',#512,#114);
#99=LINE('',#518,#115);
#100=LINE('',#524,#116);
#101=VECTOR('',#350,10.);
#102=VECTOR('',#351,10.);
#103=VECTOR('',#356,10.);
#104=VECTOR('',#367,10.);
#105=VECTOR('',#370,10.);
#106=VECTOR('',#371,10.);
#107=VECTOR('',#372,10.);
#108=VECTOR('',#379,10.);
#109=VECTOR('',#380,10.);
#110=VECTOR('',#381,10.);
#111=VECTOR('',#394,3.25);
#112=VECTOR('',#403,2.75);
#113=VECTOR('',#416,5.);
#114=VECTOR('',#419,4.90000000000001);
#115=VECTOR('',#426,1.6);
#116=VECTOR('',#435,0.4);
#117=(
BOUNDED_CURVE()
B_SPLINE_CURVE(2,(#440,#441,#442),.UNSPECIFIED.,.F.,.F.)
B_SPLINE_CURVE_WITH_KNOTS((3,3),(0.,0.0290768259221173),.UNSPECIFIED.)
CURVE()
GEOMETRIC_REPRESENTATION_ITEM()
RATIONAL_B_SPLINE_CURVE((1.,1.,1.))
REPRESENTATION_ITEM('')
);
#118=(
BOUNDED_CURVE()
B_SPLINE_CURVE(2,(#446,#447,#448),.UNSPECIFIED.,.F.,.F.)
B_SPLINE_CURVE_WITH_KNOTS((3,3),(0.,0.0290768259221173),.UNSPECIFIED.)
CURVE()
GEOMETRIC_REPRESENTATION_ITEM()
RATIONAL_B_SPLINE_CURVE((1.,1.,1.))
REPRESENTATION_ITEM('')
);
#119=(
BOUNDED_CURVE()
B_SPLINE_CURVE(2,(#461,#462,#463),.UNSPECIFIED.,.F.,.F.)
B_SPLINE_CURVE_WITH_KNOTS((3,3),(0.,0.0290768259221171),.UNSPECIFIED.)
CURVE()
GEOMETRIC_REPRESENTATION_ITEM()
RATIONAL_B_SPLINE_CURVE((1.,1.,1.))
REPRESENTATION_ITEM('')
);
#120=(
BOUNDED_CURVE()
B_SPLINE_CURVE(2,(#466,#467,#468),.UNSPECIFIED.,.F.,.F.)
B_SPLINE_CURVE_WITH_KNOTS((3,3),(0.,0.0290768259221172),.UNSPECIFIED.)
CURVE()
GEOMETRIC_REPRESENTATION_ITEM()
RATIONAL_B_SPLINE_CURVE((1.,1.,1.))
REPRESENTATION_ITEM('')
);
#121=VERTEX_POINT('',#438);
#122=VERTEX_POINT('',#439);
#123=VERTEX_POINT('',#443);
#124=VERTEX_POINT('',#445);
#125=VERTEX_POINT('',#451);
#126=VERTEX_POINT('',#453);
#127=VERTEX_POINT('',#456);
#128=VERTEX_POINT('',#459);
#129=VERTEX_POINT('',#465);
#130=VERTEX_POINT('',#471);
#131=VERTEX_POINT('',#473);
#132=VERTEX_POINT('',#479);
#133=VERTEX_POINT('',#481);
#134=VERTEX_POINT('',#485);
#135=VERTEX_POINT('',#489);
#136=VERTEX_POINT('',#490);
#137=VERTEX_POINT('',#493);
#138=VERTEX_POINT('',#497);
#139=VERTEX_POINT('',#500);
#140=VERTEX_POINT('',#506);
#141=VERTEX_POINT('',#507);
#142=VERTEX_POINT('',#514);
#143=VERTEX_POINT('',#517);
#144=VERTEX_POINT('',#521);
#145=EDGE_CURVE('',#121,#122,#117,.T.);
#146=EDGE_CURVE('',#122,#123,#85,.T.);
#147=EDGE_CURVE('',#123,#124,#118,.T.);
#148=EDGE_CURVE('',#124,#121,#86,.T.);
#149=EDGE_CURVE('',#125,#122,#27,.T.);
#150=EDGE_CURVE('',#126,#125,#87,.T.);
#151=EDGE_CURVE('',#123,#126,#28,.T.);
#152=EDGE_CURVE('',#127,#127,#29,.T.);
#153=EDGE_CURVE('',#121,#128,#30,.T.);
#154=EDGE_CURVE('',#125,#128,#119,.T.);
#155=EDGE_CURVE('',#129,#126,#120,.T.);
#156=EDGE_CURVE('',#128,#129,#88,.T.);
#157=EDGE_CURVE('',#130,#124,#89,.T.);
#158=EDGE_CURVE('',#130,#131,#90,.T.);
#159=EDGE_CURVE('',#121,#131,#91,.T.);
#160=EDGE_CURVE('',#131,#130,#31,.T.);
#161=EDGE_CURVE('',#132,#128,#92,.T.);
#162=EDGE_CURVE('',#132,#133,#93,.T.);
#163=EDGE_CURVE('',#129,#133,#94,.T.);
#164=EDGE_CURVE('',#134,#132,#32,.T.);
#165=EDGE_CURVE('',#133,#134,#33,.T.);
#166=EDGE_CURVE('',#135,#136,#34,.T.);
#167=EDGE_CURVE('',#136,#135,#35,.T.);
#168=EDGE_CURVE('',#135,#137,#95,.T.);
#169=EDGE_CURVE('',#137,#137,#36,.T.);
#170=EDGE_CURVE('',#138,#138,#37,.T.);
#171=EDGE_CURVE('',#136,#139,#96,.T.);
#172=EDGE_CURVE('',#139,#139,#38,.T.);
#173=EDGE_CURVE('',#129,#124,#39,.T.);
#174=EDGE_CURVE('',#140,#141,#40,.T.);
#175=EDGE_CURVE('',#141,#140,#41,.T.);
#176=EDGE_CURVE('',#141,#134,#97,.T.);
#177=EDGE_CURVE('',#138,#140,#98,.T.);
#178=EDGE_CURVE('',#142,#142,#42,.T.);
#179=EDGE_CURVE('',#142,#143,#99,.T.);
#180=EDGE_CURVE('',#143,#143,#43,.T.);
#181=EDGE_CURVE('',#144,#144,#44,.T.);
#182=EDGE_CURVE('',#144,#127,#100,.T.);
#183=ORIENTED_EDGE('',*,*,#145,.T.);
#184=ORIENTED_EDGE('',*,*,#146,.T.);
#185=ORIENTED_EDGE('',*,*,#147,.T.);
#186=ORIENTED_EDGE('',*,*,#148,.T.);
#187=ORIENTED_EDGE('',*,*,#146,.F.);
#188=ORIENTED_EDGE('',*,*,#149,.F.);
#189=ORIENTED_EDGE('',*,*,#150,.F.);
#190=ORIENTED_EDGE('',*,*,#151,.F.);
#191=ORIENTED_EDGE('',*,*,#152,.T.);
#192=ORIENTED_EDGE('',*,*,#145,.F.);
#193=ORIENTED_EDGE('',*,*,#153,.T.);
#194=ORIENTED_EDGE('',*,*,#154,.F.);
#195=ORIENTED_EDGE('',*,*,#149,.T.);
#196=ORIENTED_EDGE('',*,*,#155,.T.);
#197=ORIENTED_EDGE('',*,*,#150,.T.);
#198=ORIENTED_EDGE('',*,*,#154,.T.);
#199=ORIENTED_EDGE('',*,*,#156,.T.);
#200=ORIENTED_EDGE('',*,*,#148,.F.);
#201=ORIENTED_EDGE('',*,*,#157,.F.);
#202=ORIENTED_EDGE('',*,*,#158,.T.);
#203=ORIENTED_EDGE('',*,*,#159,.F.);
#204=ORIENTED_EDGE('',*,*,#158,.F.);
#205=ORIENTED_EDGE('',*,*,#160,.F.);
#206=ORIENTED_EDGE('',*,*,#156,.F.);
#207=ORIENTED_EDGE('',*,*,#161,.F.);
#208=ORIENTED_EDGE('',*,*,#162,.T.);
#209=ORIENTED_EDGE('',*,*,#163,.F.);
#210=ORIENTED_EDGE('',*,*,#162,.F.);
#211=ORIENTED_EDGE('',*,*,#164,.F.);
#212=ORIENTED_EDGE('',*,*,#165,.F.);
#213=ORIENTED_EDGE('',*,*,#166,.T.);
#214=ORIENTED_EDGE('',*,*,#167,.T.);
#215=ORIENTED_EDGE('',*,*,#168,.T.);
#216=ORIENTED_EDGE('',*,*,#169,.T.);
#217=ORIENTED_EDGE('',*,*,#168,.F.);
#218=ORIENTED_EDGE('',*,*,#170,.F.);
#219=ORIENTED_EDGE('',*,*,#169,.F.);
#220=ORIENTED_EDGE('',*,*,#166,.F.);
#221=ORIENTED_EDGE('',*,*,#167,.F.);
#222=ORIENTED_EDGE('',*,*,#171,.T.);
#223=ORIENTED_EDGE('',*,*,#172,.F.);
#224=ORIENTED_EDGE('',*,*,#171,.F.);
#225=ORIENTED_EDGE('',*,*,#147,.F.);
#226=ORIENTED_EDGE('',*,*,#151,.T.);
#227=ORIENTED_EDGE('',*,*,#155,.F.);
#228=ORIENTED_EDGE('',*,*,#173,.T.);
#229=ORIENTED_EDGE('',*,*,#174,.F.);
#230=ORIENTED_EDGE('',*,*,#175,.F.);
#231=ORIENTED_EDGE('',*,*,#176,.T.);
#232=ORIENTED_EDGE('',*,*,#164,.T.);
#233=ORIENTED_EDGE('',*,*,#161,.T.);
#234=ORIENTED_EDGE('',*,*,#153,.F.);
#235=ORIENTED_EDGE('',*,*,#159,.T.);
#236=ORIENTED_EDGE('',*,*,#160,.T.);
#237=ORIENTED_EDGE('',*,*,#157,.T.);
#238=ORIENTED_EDGE('',*,*,#173,.F.);
#239=ORIENTED_EDGE('',*,*,#163,.T.);
#240=ORIENTED_EDGE('',*,*,#165,.T.);
#241=ORIENTED_EDGE('',*,*,#176,.F.);
#242=ORIENTED_EDGE('',*,*,#170,.T.);
#243=ORIENTED_EDGE('',*,*,#177,.T.);
#244=ORIENTED_EDGE('',*,*,#174,.T.);
#245=ORIENTED_EDGE('',*,*,#175,.T.);
#246=ORIENTED_EDGE('',*,*,#177,.F.);
#247=ORIENTED_EDGE('',*,*,#172,.T.);
#248=ORIENTED_EDGE('',*,*,#178,.F.);
#249=ORIENTED_EDGE('',*,*,#178,.T.);
#250=ORIENTED_EDGE('',*,*,#179,.T.);
#251=ORIENTED_EDGE('',*,*,#180,.F.);
#252=ORIENTED_EDGE('',*,*,#179,.F.);
#253=ORIENTED_EDGE('',*,*,#180,.T.);
#254=ORIENTED_EDGE('',*,*,#181,.F.);
#255=ORIENTED_EDGE('',*,*,#181,.T.);
#256=ORIENTED_EDGE('',*,*,#182,.T.);
#257=ORIENTED_EDGE('',*,*,#152,.F.);
#258=ORIENTED_EDGE('',*,*,#182,.F.);
#259=PLANE('',#310);
#260=PLANE('',#311);
#261=PLANE('',#317);
#262=PLANE('',#318);
#263=PLANE('',#319);
#264=PLANE('',#321);
#265=PLANE('',#322);
#266=PLANE('',#329);
#267=PLANE('',#339);
#268=PLANE('',#343);
#269=ADVANCED_FACE('',(#45),#259,.T.);
#270=ADVANCED_FACE('',(#46,#23),#260,.T.);
#271=ADVANCED_FACE('',(#47),#19,.T.);
#272=ADVANCED_FACE('',(#48),#261,.T.);
#273=ADVANCED_FACE('',(#49),#262,.F.);
#274=ADVANCED_FACE('',(#50),#263,.T.);
#275=ADVANCED_FACE('',(#51),#264,.F.);
#276=ADVANCED_FACE('',(#52),#265,.T.);
#277=ADVANCED_FACE('',(#53),#20,.F.);
#278=ADVANCED_FACE('',(#54,#24),#266,.T.);
#279=ADVANCED_FACE('',(#55),#15,.F.);
#280=ADVANCED_FACE('',(#56),#21,.T.);
#281=ADVANCED_FACE('',(#57),#16,.T.);
#282=ADVANCED_FACE('',(#58),#22,.T.);
#283=ADVANCED_FACE('',(#59,#25),#267,.T.);
#284=ADVANCED_FACE('',(#60),#17,.F.);
#285=ADVANCED_FACE('',(#61,#26),#268,.T.);
#286=ADVANCED_FACE('',(#62),#18,.F.);
#287=CLOSED_SHELL('',(#269,#270,#271,#272,#273,#274,#275,#276,#277,#278,
#279,#280,#281,#282,#283,#284,#285,#286));
#288=DERIVED_UNIT_ELEMENT(#291,1.);
#289=DERIVED_UNIT_ELEMENT(#530,-3.);
#290=DIMENSIONAL_EXPONENTS(0.,1.,0.,0.,0.,0.,0.);
#291=(
CONVERSION_BASED_UNIT('gram',#293)
MASS_UNIT()
NAMED_UNIT(#290)
);
#292=(
MASS_UNIT()
NAMED_UNIT(*)
SI_UNIT(.KILO.,.GRAM.)
);
#293=MASS_MEASURE_WITH_UNIT(MASS_MEASURE(0.001),#292);
#294=DERIVED_UNIT((#288,#289));
#295=MEASURE_REPRESENTATION_ITEM('density measure',
POSITIVE_RATIO_MEASURE(1.),#294);
#296=PROPERTY_DEFINITION_REPRESENTATION(#301,#298);
#297=PROPERTY_DEFINITION_REPRESENTATION(#302,#299);
#298=REPRESENTATION('material name',(#300),#527);
#299=REPRESENTATION('density',(#295),#527);
#300=DESCRIPTIVE_REPRESENTATION_ITEM('Generic','Generic');
#301=PROPERTY_DEFINITION('material property','material name',#537);
#302=PROPERTY_DEFINITION('material property','density of part',#537);
#303=DATE_TIME_ROLE('creation_date');
#304=APPLIED_DATE_AND_TIME_ASSIGNMENT(#305,#303,(#537));
#305=DATE_AND_TIME(#306,#307);
#306=CALENDAR_DATE(2024,11,7);
#307=LOCAL_TIME(0,0,0.,#308);
#308=COORDINATED_UNIVERSAL_TIME_OFFSET(0,0,.BEHIND.);
#309=AXIS2_PLACEMENT_3D('',#436,#346,#347);
#310=AXIS2_PLACEMENT_3D('',#437,#348,#349);
#311=AXIS2_PLACEMENT_3D('',#450,#352,#353);
#312=AXIS2_PLACEMENT_3D('',#452,#354,#355);
#313=AXIS2_PLACEMENT_3D('',#455,#357,#358);
#314=AXIS2_PLACEMENT_3D('',#457,#359,#360);
#315=AXIS2_PLACEMENT_3D('',#458,#361,#362);
#316=AXIS2_PLACEMENT_3D('',#460,#363,#364);
#317=AXIS2_PLACEMENT_3D('',#464,#365,#366);
#318=AXIS2_PLACEMENT_3D('',#470,#368,#369);
#319=AXIS2_PLACEMENT_3D('',#476,#373,#374);
#320=AXIS2_PLACEMENT_3D('',#477,#375,#376);
#321=AXIS2_PLACEMENT_3D('',#478,#377,#378);
#322=AXIS2_PLACEMENT_3D('',#484,#382,#383);
#323=AXIS2_PLACEMENT_3D('',#486,#384,#385);
#324=AXIS2_PLACEMENT_3D('',#487,#386,#387);
#325=AXIS2_PLACEMENT_3D('',#488,#388,#389);
#326=AXIS2_PLACEMENT_3D('',#491,#390,#391);
#327=AXIS2_PLACEMENT_3D('',#492,#392,#393);
#328=AXIS2_PLACEMENT_3D('',#495,#395,#396);
#329=AXIS2_PLACEMENT_3D('',#496,#397,#398);
#330=AXIS2_PLACEMENT_3D('',#498,#399,#400);
#331=AXIS2_PLACEMENT_3D('',#499,#401,#402);
#332=AXIS2_PLACEMENT_3D('',#502,#404,#405);
#333=AXIS2_PLACEMENT_3D('',#503,#406,#407);
#334=AXIS2_PLACEMENT_3D('',#504,#408,#409);
#335=AXIS2_PLACEMENT_3D('',#505,#410,#411);
#336=AXIS2_PLACEMENT_3D('',#508,#412,#413);
#337=AXIS2_PLACEMENT_3D('',#509,#414,#415);
#338=AXIS2_PLACEMENT_3D('',#511,#417,#418);
#339=AXIS2_PLACEMENT_3D('',#513,#420,#421);
#340=AXIS2_PLACEMENT_3D('',#515,#422,#423);
#341=AXIS2_PLACEMENT_3D('',#516,#424,#425);
#342=AXIS2_PLACEMENT_3D('',#519,#427,#428);
#343=AXIS2_PLACEMENT_3D('',#520,#429,#430);
#344=AXIS2_PLACEMENT_3D('',#522,#431,#432);
#345=AXIS2_PLACEMENT_3D('',#523,#433,#434);
#346=DIRECTION('axis',(0.,0.,1.));
#347=DIRECTION('refdir',(1.,0.,0.));
#348=DIRECTION('center_axis',(0.707106781186547,-0.707106781186548,-7.85046229341888E-17));
#349=DIRECTION('ref_axis',(-1.11022302462516E-16,0.,-1.));
#350=DIRECTION('',(1.35963107344689E-32,-1.11022302462516E-16,1.));
#351=DIRECTION('',(-1.35963107344689E-32,1.11022302462516E-16,-1.));
#352=DIRECTION('center_axis',(1.,1.22464679914735E-16,0.));
#353=DIRECTION('ref_axis',(0.,0.,-1.));
#354=DIRECTION('center_axis',(-1.,-1.22464679914735E-16,0.));
#355=DIRECTION('ref_axis',(-1.22464679914735E-16,1.,0.));
#356=DIRECTION('',(0.,0.,-1.));
#357=DIRECTION('center_axis',(-1.,-1.22464679914735E-16,0.));
#358=DIRECTION('ref_axis',(-1.22464679914735E-16,1.,0.));
#359=DIRECTION('center_axis',(-1.,-1.22464679914735E-16,0.));
#360=DIRECTION('ref_axis',(0.,0.,1.));
#361=DIRECTION('center_axis',(-1.,-1.22464679914735E-16,0.));
#362=DIRECTION('ref_axis',(-5.9982700366401E-17,1.,0.));
#363=DIRECTION('center_axis',(1.,1.22464679914735E-16,0.));
#364=DIRECTION('ref_axis',(0.,1.,0.));
#365=DIRECTION('center_axis',(0.707106781186548,0.707106781186547,0.));
#366=DIRECTION('ref_axis',(0.,0.,-1.));
#367=DIRECTION('',(0.,0.,1.));
#368=DIRECTION('center_axis',(-1.2335811384724E-16,1.,1.11022302462516E-16));
#369=DIRECTION('ref_axis',(-1.35963107344689E-32,1.11022302462516E-16,-1.));
#370=DIRECTION('',(1.,1.22464679914735E-16,0.));
#371=DIRECTION('',(-1.35963107344689E-32,1.11022302462516E-16,-1.));
#372=DIRECTION('',(-1.,-1.22464679914735E-16,0.));
#373=DIRECTION('center_axis',(1.,1.22464679914735E-16,0.));
#374=DIRECTION('ref_axis',(0.,0.,-1.));
#375=DIRECTION('center_axis',(-1.,-1.22464679914735E-16,0.));
#376=DIRECTION('ref_axis',(0.,-1.,0.));
#377=DIRECTION('center_axis',(1.2335811384724E-16,-1.,0.));
#378=DIRECTION('ref_axis',(0.,0.,1.));
#379=DIRECTION('',(1.,1.22464679914735E-16,0.));
#380=DIRECTION('',(0.,0.,1.));
#381=DIRECTION('',(-1.,-1.22464679914735E-16,0.));
#382=DIRECTION('center_axis',(1.,1.22464679914735E-16,0.));
#383=DIRECTION('ref_axis',(0.,0.,-1.));
#384=DIRECTION('center_axis',(-1.,-1.22464679914735E-16,0.));
#385=DIRECTION('ref_axis',(0.,-1.,0.));
#386=DIRECTION('center_axis',(-1.,-1.22464679914735E-16,0.));
#387=DIRECTION('ref_axis',(0.,-1.,0.));
#388=DIRECTION('center_axis',(-1.,-1.22464679914735E-16,0.));
#389=DIRECTION('ref_axis',(-7.06526999508089E-17,1.,0.));
#390=DIRECTION('center_axis',(1.,1.22464679914735E-16,0.));
#391=DIRECTION('ref_axis',(0.,1.,0.));
#392=DIRECTION('center_axis',(1.,1.22464679914735E-16,0.));
#393=DIRECTION('ref_axis',(0.,1.,0.));
#394=DIRECTION('',(-0.707106781186547,-0.707106781186548,-8.65956056235494E-17));
#395=DIRECTION('center_axis',(-1.,-1.22464679914735E-16,0.));
#396=DIRECTION('ref_axis',(-1.22464679914735E-16,1.,0.));
#397=DIRECTION('center_axis',(-1.,-1.22464679914735E-16,0.));
#398=DIRECTION('ref_axis',(0.,0.,1.));
#399=DIRECTION('center_axis',(1.,1.22464679914735E-16,0.));
#400=DIRECTION('ref_axis',(-1.22464679914735E-16,1.,0.));
#401=DIRECTION('center_axis',(-1.,-1.22464679914735E-16,0.));
#402=DIRECTION('ref_axis',(0.,-1.,0.));
#403=DIRECTION('',(1.,1.22464679914735E-16,0.));
#404=DIRECTION('center_axis',(-1.,-1.22464679914735E-16,0.));
#405=DIRECTION('ref_axis',(0.,0.,1.));
#406=DIRECTION('center_axis',(-1.,-1.22464679914735E-16,0.));
#407=DIRECTION('ref_axis',(-5.9982700366401E-17,1.,0.));
#408=DIRECTION('center_axis',(1.,1.22464679914735E-16,0.));
#409=DIRECTION('ref_axis',(0.,1.,0.));
#410=DIRECTION('center_axis',(-1.,-1.22464679914735E-16,0.));
#411=DIRECTION('ref_axis',(0.,-1.,0.));
#412=DIRECTION('center_axis',(-1.,-1.22464679914735E-16,0.));
#413=DIRECTION('ref_axis',(0.,1.,0.));
#414=DIRECTION('center_axis',(-1.,-1.22464679914735E-16,0.));
#415=DIRECTION('ref_axis',(0.,1.,0.));
#416=DIRECTION('',(1.,1.22464679914735E-16,0.));
#417=DIRECTION('center_axis',(1.,1.22464679914735E-16,0.));
#418=DIRECTION('ref_axis',(-5.9982700366401E-17,1.,0.));
#419=DIRECTION('',(0.707106781186548,-0.707106781186547,8.65956056235493E-17));
#420=DIRECTION('center_axis',(-1.,-1.22464679914735E-16,0.));
#421=DIRECTION('ref_axis',(0.,0.,1.));
#422=DIRECTION('center_axis',(-1.,-1.22464679914735E-16,0.));
#423=DIRECTION('ref_axis',(0.,0.,1.));
#424=DIRECTION('center_axis',(-1.,-1.22464679914735E-16,0.));
#425=DIRECTION('ref_axis',(0.,-1.,0.));
#426=DIRECTION('',(1.,1.22464679914735E-16,0.));
#427=DIRECTION('center_axis',(-1.,-1.22464679914735E-16,0.));
#428=DIRECTION('ref_axis',(0.,0.,1.));
#429=DIRECTION('center_axis',(-1.,-1.22464679914735E-16,0.));
#430=DIRECTION('ref_axis',(0.,0.,1.));
#431=DIRECTION('center_axis',(-1.,-1.22464679914735E-16,0.));
#432=DIRECTION('ref_axis',(0.,0.,1.));
#433=DIRECTION('center_axis',(-1.,-1.22464679914735E-16,0.));
#434=DIRECTION('ref_axis',(0.,-1.,0.));
#435=DIRECTION('',(1.,1.22464679914735E-16,0.));
#436=CARTESIAN_POINT('',(0.,0.,0.));
#437=CARTESIAN_POINT('Origin',(-0.1,-3.9,1.5));
#438=CARTESIAN_POINT('',(-0.2,-4.,-3.));
#439=CARTESIAN_POINT('',(-1.59134667675656E-16,-3.8,-2.93257565972304));
#440=CARTESIAN_POINT('Ctrl Pts',(-0.200000000000002,-4.,-3.));
#441=CARTESIAN_POINT('Ctrl Pts',(-0.0988634895845327,-3.89886348958453,
-2.96628782986151));
#442=CARTESIAN_POINT('Ctrl Pts',(1.21430643318376E-15,-3.8,-2.93257565972303));
#443=CARTESIAN_POINT('',(-1.59134667675656E-16,-3.8,2.93257565972303));
#444=CARTESIAN_POINT('',(-1.38777878078145E-16,-3.8,1.5));
#445=CARTESIAN_POINT('',(-0.2,-4.,3.));
#446=CARTESIAN_POINT('Ctrl Pts',(1.33573707650214E-15,-3.8,2.93257565972303));
#447=CARTESIAN_POINT('Ctrl Pts',(-0.0988634895859242,-3.89886348958593,
2.96628782986198));
#448=CARTESIAN_POINT('Ctrl Pts',(-0.200000000000002,-4.,3.));
#449=CARTESIAN_POINT('',(-0.2,-4.,1.5));
#450=CARTESIAN_POINT('Origin',(0.,-5.,0.));
#451=CARTESIAN_POINT('',(-1.08986623502764E-15,3.8,-2.93257565972304));
#452=CARTESIAN_POINT('Origin',(-6.24500451351651E-16,-1.19407656552009E-31,
0.));
#453=CARTESIAN_POINT('',(-1.08986623502764E-15,3.8,2.93257565972304));
#454=CARTESIAN_POINT('',(-1.07552855510562E-15,3.8,-1.5));
#455=CARTESIAN_POINT('Origin',(-6.24500451351651E-16,-1.19407656552009E-31,
0.));
#456=CARTESIAN_POINT('',(-2.77555756156289E-16,0.4,-4.89858719658942E-17));
#457=CARTESIAN_POINT('Origin',(-2.77555756156289E-16,-3.08148791101958E-32,
0.));
#458=CARTESIAN_POINT('Origin',(-0.1,-1.22464679914736E-17,0.));
#459=CARTESIAN_POINT('',(-0.200000000000001,4.,-3.));
#460=CARTESIAN_POINT('Origin',(-0.2,-2.44929359829471E-17,0.));
#461=CARTESIAN_POINT('Ctrl Pts',(0.,3.8,-2.93257565972304));
#462=CARTESIAN_POINT('Ctrl Pts',(-0.0988634895850014,3.898863489585,-2.96628782986167));
#463=CARTESIAN_POINT('Ctrl Pts',(-0.200000000000002,4.,-3.));
#464=CARTESIAN_POINT('Origin',(-0.100000000000001,3.9,-1.5));
#465=CARTESIAN_POINT('',(-0.200000000000001,4.,3.));
#466=CARTESIAN_POINT('Ctrl Pts',(-0.200000000000002,4.,3.));
#467=CARTESIAN_POINT('Ctrl Pts',(-0.0988634895841063,3.89886348958411,2.96628782986137));
#468=CARTESIAN_POINT('Ctrl Pts',(8.67361737988404E-17,3.8,2.93257565972304));
#469=CARTESIAN_POINT('',(-0.200000000000001,4.,-1.5));
#470=CARTESIAN_POINT('Origin',(-1.22464679914735E-16,-4.,3.));
#471=CARTESIAN_POINT('',(-4.5,-4.,3.));
#472=CARTESIAN_POINT('',(-7.5,-4.,3.));
#473=CARTESIAN_POINT('',(-4.5,-4.,-3.));
#474=CARTESIAN_POINT('',(-4.5,-4.,-5.));
#475=CARTESIAN_POINT('',(-7.5,-4.,-3.));
#476=CARTESIAN_POINT('Origin',(-4.5,-4.5,-5.55111512312578E-16));
#477=CARTESIAN_POINT('Origin',(-4.5,-5.51091059616309E-16,0.));
#478=CARTESIAN_POINT('Origin',(-1.10218211923262E-15,4.,-3.));
#479=CARTESIAN_POINT('',(-4.5,4.,-3.));
#480=CARTESIAN_POINT('',(-7.5,4.,-3.));
#481=CARTESIAN_POINT('',(-4.5,4.,3.));
#482=CARTESIAN_POINT('',(-4.5,4.,5.));
#483=CARTESIAN_POINT('',(-7.5,4.,3.));
#484=CARTESIAN_POINT('Origin',(-4.5,4.5,-5.55111512312578E-16));
#485=CARTESIAN_POINT('',(-4.5,5.,-6.12323399573677E-16));
#486=CARTESIAN_POINT('Origin',(-4.5,-5.51091059616309E-16,0.));
#487=CARTESIAN_POINT('Origin',(-4.5,-5.51091059616309E-16,0.));
#488=CARTESIAN_POINT('Origin',(-14.5,-1.77573785876366E-15,0.));
#489=CARTESIAN_POINT('',(-14.,-2.75,-3.36777869765522E-16));
#490=CARTESIAN_POINT('',(-14.,2.75,-3.36777869765522E-16));
#491=CARTESIAN_POINT('Origin',(-14.,-1.71450551880629E-15,0.));
#492=CARTESIAN_POINT('Origin',(-14.,-1.71450551880629E-15,0.));
#493=CARTESIAN_POINT('',(-15.,-3.75,4.59242549680258E-16));
#494=CARTESIAN_POINT('',(-14.5,-3.25,-3.9801020972289E-16));
#495=CARTESIAN_POINT('Origin',(-15.,-1.83697019872103E-15,0.));
#496=CARTESIAN_POINT('Origin',(-15.,-2.75,0.));
#497=CARTESIAN_POINT('',(-15.,-4.8,-5.87830463590729E-16));
#498=CARTESIAN_POINT('Origin',(-15.,-1.83697019872103E-15,0.));
#499=CARTESIAN_POINT('Origin',(-11.,-1.34711147906209E-15,0.));
#500=CARTESIAN_POINT('',(-7.,2.75,-3.36777869765522E-16));
#501=CARTESIAN_POINT('',(-11.,2.75,-3.36777869765522E-16));
#502=CARTESIAN_POINT('Origin',(-7.,-8.57252759403147E-16,0.));
#503=CARTESIAN_POINT('Origin',(-0.1,-1.22464679914736E-17,0.));
#504=CARTESIAN_POINT('Origin',(-0.2,-2.44929359829471E-17,0.));
#505=CARTESIAN_POINT('Origin',(-7.5,-9.18485099360515E-16,0.));
#506=CARTESIAN_POINT('',(-14.8,-5.,6.12323399573677E-16));
#507=CARTESIAN_POINT('',(-14.8,5.,-6.12323399573677E-16));
#508=CARTESIAN_POINT('Origin',(-14.8,-1.81247726273808E-15,0.));
#509=CARTESIAN_POINT('Origin',(-14.8,-1.81247726273808E-15,0.));
#510=CARTESIAN_POINT('',(-7.5,5.,-6.12323399573677E-16));
#511=CARTESIAN_POINT('Origin',(-14.9,-1.82472373072956E-15,0.));
#512=CARTESIAN_POINT('',(-14.9,-4.9,6.00076931582203E-16));
#513=CARTESIAN_POINT('Origin',(-7.,-1.6,0.));
#514=CARTESIAN_POINT('',(-7.,1.6,-1.95943487863576E-16));
#515=CARTESIAN_POINT('Origin',(-7.,-8.57252759403147E-16,0.));
#516=CARTESIAN_POINT('Origin',(-4.5,-5.51091059616309E-16,0.));
#517=CARTESIAN_POINT('',(-2.,1.6,-1.95943487863576E-16));
#518=CARTESIAN_POINT('',(-4.5,1.6,-1.95943487863576E-16));
#519=CARTESIAN_POINT('Origin',(-2.,-2.44929359829471E-16,0.));
#520=CARTESIAN_POINT('Origin',(-2.,-0.400000000000001,0.));
#521=CARTESIAN_POINT('',(-2.,0.4,-4.89858719658942E-17));
#522=CARTESIAN_POINT('Origin',(-2.,-2.44929359829471E-16,0.));
#523=CARTESIAN_POINT('Origin',(-1.,-1.22464679914735E-16,0.));
#524=CARTESIAN_POINT('',(-1.,0.4,-4.89858719658942E-17));
#525=UNCERTAINTY_MEASURE_WITH_UNIT(LENGTH_MEASURE(0.01),#529,
'DISTANCE_ACCURACY_VALUE',
'Maximum model space distance between geometric entities at asserted c
onnectivities');
#526=UNCERTAINTY_MEASURE_WITH_UNIT(LENGTH_MEASURE(0.01),#529,
'DISTANCE_ACCURACY_VALUE',
'Maximum model space distance between geometric entities at asserted c
onnectivities');
#527=(
GEOMETRIC_REPRESENTATION_CONTEXT(3)
GLOBAL_UNCERTAINTY_ASSIGNED_CONTEXT((#525))
GLOBAL_UNIT_ASSIGNED_CONTEXT((#529,#531,#532))
REPRESENTATION_CONTEXT('','3D')
);
#528=(
GEOMETRIC_REPRESENTATION_CONTEXT(3)
GLOBAL_UNCERTAINTY_ASSIGNED_CONTEXT((#526))
GLOBAL_UNIT_ASSIGNED_CONTEXT((#529,#531,#532))
REPRESENTATION_CONTEXT('','3D')
);
#529=(
LENGTH_UNIT()
NAMED_UNIT(*)
SI_UNIT(.MILLI.,.METRE.)
);
#530=(
LENGTH_UNIT()
NAMED_UNIT(*)
SI_UNIT(.CENTI.,.METRE.)
);
#531=(
NAMED_UNIT(*)
PLANE_ANGLE_UNIT()
SI_UNIT($,.RADIAN.)
);
#532=(
NAMED_UNIT(*)
SI_UNIT($,.STERADIAN.)
SOLID_ANGLE_UNIT()
);
#533=SHAPE_DEFINITION_REPRESENTATION(#534,#535);
#534=PRODUCT_DEFINITION_SHAPE('',$,#537);
#535=SHAPE_REPRESENTATION('',(#309),#527);
#536=PRODUCT_DEFINITION_CONTEXT('part definition',#541,'design');
#537=PRODUCT_DEFINITION('104499 Needle cap V2 Simone',
'104499 Needle cap V2 Simone',#538,#536);
#538=PRODUCT_DEFINITION_FORMATION('A',$,#543);
#539=PRODUCT_RELATED_PRODUCT_CATEGORY('104499 Needle cap V2 Simone',
'104499 Needle cap V2 Simone',(#543));
#540=APPLICATION_PROTOCOL_DEFINITION('international standard',
'automotive_design',2009,#541);
#541=APPLICATION_CONTEXT(
'Core Data for Automotive Mechanical Design Process');
#542=PRODUCT_CONTEXT('part definition',#541,'mechanical');
#543=PRODUCT('104499 Needle cap V2 Simone',
'104499 Needle cap V2 Simone',$,(#542));
#544=PRESENTATION_STYLE_ASSIGNMENT((#545));
#545=SURFACE_STYLE_USAGE(.BOTH.,#548);
#546=SURFACE_STYLE_RENDERING_WITH_PROPERTIES($,#552,(#547));
#547=SURFACE_STYLE_TRANSPARENT(0.);
#548=SURFACE_SIDE_STYLE('',(#549,#546));
#549=SURFACE_STYLE_FILL_AREA(#550);
#550=FILL_AREA_STYLE('',(#551));
#551=FILL_AREA_STYLE_COLOUR('',#552);
#552=COLOUR_RGB('',0.749019607843137,0.749019607843137,0.749019607843137);
ENDSEC;
END-ISO-10303-21;
