M48
; DRILL file {KiCad 7.0.2} date Wed Feb  7 15:16:55 2024
; FORMAT={-:-/ absolute / metric / decimal}
; #@! TF.CreationDate,2024-02-07T15:16:55+01:00
; #@! TF.GenerationSoftware,Kicad,Pcbnew,7.0.2
; #@! TF.FileFunction,Plated,1,2,PTH
FMAT,2
METRIC
; #@! TA.AperFunction,Plated,PTH,ComponentDrill
T1C0.950
; #@! TA.AperFunction,Plated,PTH,ComponentDrill
T2C1.016
%
G90
G05
T1
X115.0Y-80.5
X115.0Y-83.0
X115.0Y-85.5
X115.0Y-88.0
X115.0Y-90.5
X115.0Y-93.0
X126.5Y-80.5
X126.5Y-83.0
X126.5Y-85.5
X126.5Y-88.0
X126.5Y-90.5
X126.5Y-93.0
X138.0Y-80.5
X138.0Y-83.0
X138.0Y-85.5
X138.0Y-88.0
X138.0Y-90.5
X138.0Y-93.0
X149.5Y-80.5
X149.5Y-83.0
X149.5Y-85.5
X149.5Y-88.0
X149.5Y-90.5
X149.5Y-93.0
T2
X112.796Y-62.74
X115.336Y-62.74
X117.876Y-62.74
X120.416Y-62.74
X121.94Y-111.0
X122.956Y-62.74
X124.48Y-111.0
X125.496Y-62.74
X127.02Y-111.0
X128.036Y-62.74
X129.56Y-111.0
X130.576Y-62.74
X132.1Y-111.0
X133.116Y-62.74
X134.64Y-111.0
X135.656Y-62.74
X137.18Y-111.0
X139.72Y-62.74
X139.72Y-111.0
X142.26Y-62.74
X144.8Y-62.74
X144.8Y-111.0
X147.34Y-62.74
X147.34Y-111.0
X149.88Y-62.74
X149.88Y-111.0
X152.42Y-62.74
X152.42Y-111.0
X154.96Y-62.74
X154.96Y-111.0
X157.5Y-62.74
X157.5Y-111.0
X157.627Y-83.06
X157.627Y-85.6
X157.627Y-88.14
X160.167Y-83.06
X160.167Y-85.6
X160.167Y-88.14
T0
M30
