%TF.GenerationSoftware,KiCad,Pcbnew,7.0.2*%
%TF.CreationDate,2024-02-07T15:16:57+01:00*%
%TF.ProjectId,Phase_Sensor_Array_Board,50686173-655f-4536-956e-736f725f4172,rev?*%
%TF.SameCoordinates,Original*%
%TF.FileFunction,Drillmap*%
%TF.FilePolarity,Positive*%
%FSLAX45Y45*%
G04 Gerber Fmt 4.5, Leading zero omitted, Abs format (unit mm)*
G04 Created by KiCad (PCBNEW 7.0.2) date 2024-02-07 15:16:57*
%MOMM*%
%LPD*%
G01*
G04 APERTURE LIST*
%ADD10C,0.100000*%
%ADD11C,0.200000*%
%ADD12C,0.095000*%
%ADD13C,0.101600*%
G04 APERTURE END LIST*
D10*
X10500000Y-11150000D02*
G75*
G03*
X10700000Y-11350000I200000J0D01*
G01*
X16050000Y-11350000D02*
G75*
G03*
X16250000Y-11150000I0J200000D01*
G01*
X16250000Y-6200000D02*
G75*
G03*
X16050000Y-6000000I-200000J0D01*
G01*
X10700000Y-6000000D02*
G75*
G03*
X10500000Y-6200000I0J-200000D01*
G01*
X10500000Y-6200000D02*
X10500000Y-11150000D01*
X16050000Y-11350000D02*
X10700000Y-11350000D01*
X16250000Y-6200000D02*
X16250000Y-11150000D01*
X10700000Y-6000000D02*
X16050000Y-6000000D01*
D11*
D12*
X11452500Y-8002500D02*
X11547500Y-8097500D01*
X11547500Y-8002500D02*
X11452500Y-8097500D01*
X11452500Y-8252500D02*
X11547500Y-8347500D01*
X11547500Y-8252500D02*
X11452500Y-8347500D01*
X11452500Y-8502500D02*
X11547500Y-8597500D01*
X11547500Y-8502500D02*
X11452500Y-8597500D01*
X11452500Y-8752500D02*
X11547500Y-8847500D01*
X11547500Y-8752500D02*
X11452500Y-8847500D01*
X11452500Y-9002500D02*
X11547500Y-9097500D01*
X11547500Y-9002500D02*
X11452500Y-9097500D01*
X11452500Y-9252500D02*
X11547500Y-9347500D01*
X11547500Y-9252500D02*
X11452500Y-9347500D01*
X12602500Y-8002500D02*
X12697500Y-8097500D01*
X12697500Y-8002500D02*
X12602500Y-8097500D01*
X12602500Y-8252500D02*
X12697500Y-8347500D01*
X12697500Y-8252500D02*
X12602500Y-8347500D01*
X12602500Y-8502500D02*
X12697500Y-8597500D01*
X12697500Y-8502500D02*
X12602500Y-8597500D01*
X12602500Y-8752500D02*
X12697500Y-8847500D01*
X12697500Y-8752500D02*
X12602500Y-8847500D01*
X12602500Y-9002500D02*
X12697500Y-9097500D01*
X12697500Y-9002500D02*
X12602500Y-9097500D01*
X12602500Y-9252500D02*
X12697500Y-9347500D01*
X12697500Y-9252500D02*
X12602500Y-9347500D01*
X13752500Y-8002500D02*
X13847500Y-8097500D01*
X13847500Y-8002500D02*
X13752500Y-8097500D01*
X13752500Y-8252500D02*
X13847500Y-8347500D01*
X13847500Y-8252500D02*
X13752500Y-8347500D01*
X13752500Y-8502500D02*
X13847500Y-8597500D01*
X13847500Y-8502500D02*
X13752500Y-8597500D01*
X13752500Y-8752500D02*
X13847500Y-8847500D01*
X13847500Y-8752500D02*
X13752500Y-8847500D01*
X13752500Y-9002500D02*
X13847500Y-9097500D01*
X13847500Y-9002500D02*
X13752500Y-9097500D01*
X13752500Y-9252500D02*
X13847500Y-9347500D01*
X13847500Y-9252500D02*
X13752500Y-9347500D01*
X14902500Y-8002500D02*
X14997500Y-8097500D01*
X14997500Y-8002500D02*
X14902500Y-8097500D01*
X14902500Y-8252500D02*
X14997500Y-8347500D01*
X14997500Y-8252500D02*
X14902500Y-8347500D01*
X14902500Y-8502500D02*
X14997500Y-8597500D01*
X14997500Y-8502500D02*
X14902500Y-8597500D01*
X14902500Y-8752500D02*
X14997500Y-8847500D01*
X14997500Y-8752500D02*
X14902500Y-8847500D01*
X14902500Y-9002500D02*
X14997500Y-9097500D01*
X14997500Y-9002500D02*
X14902500Y-9097500D01*
X14902500Y-9252500D02*
X14997500Y-9347500D01*
X14997500Y-9252500D02*
X14902500Y-9347500D01*
D13*
X11330400Y-6274000D02*
G75*
G03*
X11330400Y-6274000I-50800J0D01*
G01*
X11584400Y-6274000D02*
G75*
G03*
X11584400Y-6274000I-50800J0D01*
G01*
X11838400Y-6274000D02*
G75*
G03*
X11838400Y-6274000I-50800J0D01*
G01*
X12092400Y-6274000D02*
G75*
G03*
X12092400Y-6274000I-50800J0D01*
G01*
X12244800Y-11100000D02*
G75*
G03*
X12244800Y-11100000I-50800J0D01*
G01*
X12346400Y-6274000D02*
G75*
G03*
X12346400Y-6274000I-50800J0D01*
G01*
X12498800Y-11100000D02*
G75*
G03*
X12498800Y-11100000I-50800J0D01*
G01*
X12600400Y-6274000D02*
G75*
G03*
X12600400Y-6274000I-50800J0D01*
G01*
X12752800Y-11100000D02*
G75*
G03*
X12752800Y-11100000I-50800J0D01*
G01*
X12854400Y-6274000D02*
G75*
G03*
X12854400Y-6274000I-50800J0D01*
G01*
X13006800Y-11100000D02*
G75*
G03*
X13006800Y-11100000I-50800J0D01*
G01*
X13108400Y-6274000D02*
G75*
G03*
X13108400Y-6274000I-50800J0D01*
G01*
X13260800Y-11100000D02*
G75*
G03*
X13260800Y-11100000I-50800J0D01*
G01*
X13362400Y-6274000D02*
G75*
G03*
X13362400Y-6274000I-50800J0D01*
G01*
X13514800Y-11100000D02*
G75*
G03*
X13514800Y-11100000I-50800J0D01*
G01*
X13616400Y-6274000D02*
G75*
G03*
X13616400Y-6274000I-50800J0D01*
G01*
X13768800Y-11100000D02*
G75*
G03*
X13768800Y-11100000I-50800J0D01*
G01*
X14022800Y-6274000D02*
G75*
G03*
X14022800Y-6274000I-50800J0D01*
G01*
X14022800Y-11100000D02*
G75*
G03*
X14022800Y-11100000I-50800J0D01*
G01*
X14276800Y-6274000D02*
G75*
G03*
X14276800Y-6274000I-50800J0D01*
G01*
X14530800Y-6274000D02*
G75*
G03*
X14530800Y-6274000I-50800J0D01*
G01*
X14530800Y-11100000D02*
G75*
G03*
X14530800Y-11100000I-50800J0D01*
G01*
X14784800Y-6274000D02*
G75*
G03*
X14784800Y-6274000I-50800J0D01*
G01*
X14784800Y-11100000D02*
G75*
G03*
X14784800Y-11100000I-50800J0D01*
G01*
X15038800Y-6274000D02*
G75*
G03*
X15038800Y-6274000I-50800J0D01*
G01*
X15038800Y-11100000D02*
G75*
G03*
X15038800Y-11100000I-50800J0D01*
G01*
X15292800Y-6274000D02*
G75*
G03*
X15292800Y-6274000I-50800J0D01*
G01*
X15292800Y-11100000D02*
G75*
G03*
X15292800Y-11100000I-50800J0D01*
G01*
X15546800Y-6274000D02*
G75*
G03*
X15546800Y-6274000I-50800J0D01*
G01*
X15546800Y-11100000D02*
G75*
G03*
X15546800Y-11100000I-50800J0D01*
G01*
X15800800Y-6274000D02*
G75*
G03*
X15800800Y-6274000I-50800J0D01*
G01*
X15800800Y-11100000D02*
G75*
G03*
X15800800Y-11100000I-50800J0D01*
G01*
X15813500Y-8306000D02*
G75*
G03*
X15813500Y-8306000I-50800J0D01*
G01*
X15813500Y-8560000D02*
G75*
G03*
X15813500Y-8560000I-50800J0D01*
G01*
X15813500Y-8814000D02*
G75*
G03*
X15813500Y-8814000I-50800J0D01*
G01*
X16067500Y-8306000D02*
G75*
G03*
X16067500Y-8306000I-50800J0D01*
G01*
X16067500Y-8560000D02*
G75*
G03*
X16067500Y-8560000I-50800J0D01*
G01*
X16067500Y-8814000D02*
G75*
G03*
X16067500Y-8814000I-50800J0D01*
G01*
D11*
X10742619Y-11667524D02*
X10742619Y-11467524D01*
X10742619Y-11467524D02*
X10790238Y-11467524D01*
X10790238Y-11467524D02*
X10818810Y-11477048D01*
X10818810Y-11477048D02*
X10837857Y-11496095D01*
X10837857Y-11496095D02*
X10847381Y-11515143D01*
X10847381Y-11515143D02*
X10856905Y-11553238D01*
X10856905Y-11553238D02*
X10856905Y-11581809D01*
X10856905Y-11581809D02*
X10847381Y-11619905D01*
X10847381Y-11619905D02*
X10837857Y-11638952D01*
X10837857Y-11638952D02*
X10818810Y-11658000D01*
X10818810Y-11658000D02*
X10790238Y-11667524D01*
X10790238Y-11667524D02*
X10742619Y-11667524D01*
X10942619Y-11667524D02*
X10942619Y-11534190D01*
X10942619Y-11572286D02*
X10952143Y-11553238D01*
X10952143Y-11553238D02*
X10961667Y-11543714D01*
X10961667Y-11543714D02*
X10980714Y-11534190D01*
X10980714Y-11534190D02*
X10999762Y-11534190D01*
X11066429Y-11667524D02*
X11066429Y-11534190D01*
X11066429Y-11467524D02*
X11056905Y-11477048D01*
X11056905Y-11477048D02*
X11066429Y-11486571D01*
X11066429Y-11486571D02*
X11075952Y-11477048D01*
X11075952Y-11477048D02*
X11066429Y-11467524D01*
X11066429Y-11467524D02*
X11066429Y-11486571D01*
X11190238Y-11667524D02*
X11171190Y-11658000D01*
X11171190Y-11658000D02*
X11161667Y-11638952D01*
X11161667Y-11638952D02*
X11161667Y-11467524D01*
X11295000Y-11667524D02*
X11275952Y-11658000D01*
X11275952Y-11658000D02*
X11266428Y-11638952D01*
X11266428Y-11638952D02*
X11266428Y-11467524D01*
X11523571Y-11667524D02*
X11523571Y-11467524D01*
X11523571Y-11467524D02*
X11590238Y-11610381D01*
X11590238Y-11610381D02*
X11656905Y-11467524D01*
X11656905Y-11467524D02*
X11656905Y-11667524D01*
X11837857Y-11667524D02*
X11837857Y-11562762D01*
X11837857Y-11562762D02*
X11828333Y-11543714D01*
X11828333Y-11543714D02*
X11809286Y-11534190D01*
X11809286Y-11534190D02*
X11771190Y-11534190D01*
X11771190Y-11534190D02*
X11752143Y-11543714D01*
X11837857Y-11658000D02*
X11818809Y-11667524D01*
X11818809Y-11667524D02*
X11771190Y-11667524D01*
X11771190Y-11667524D02*
X11752143Y-11658000D01*
X11752143Y-11658000D02*
X11742619Y-11638952D01*
X11742619Y-11638952D02*
X11742619Y-11619905D01*
X11742619Y-11619905D02*
X11752143Y-11600857D01*
X11752143Y-11600857D02*
X11771190Y-11591333D01*
X11771190Y-11591333D02*
X11818809Y-11591333D01*
X11818809Y-11591333D02*
X11837857Y-11581809D01*
X11933095Y-11534190D02*
X11933095Y-11734190D01*
X11933095Y-11543714D02*
X11952143Y-11534190D01*
X11952143Y-11534190D02*
X11990238Y-11534190D01*
X11990238Y-11534190D02*
X12009286Y-11543714D01*
X12009286Y-11543714D02*
X12018809Y-11553238D01*
X12018809Y-11553238D02*
X12028333Y-11572286D01*
X12028333Y-11572286D02*
X12028333Y-11629428D01*
X12028333Y-11629428D02*
X12018809Y-11648476D01*
X12018809Y-11648476D02*
X12009286Y-11658000D01*
X12009286Y-11658000D02*
X11990238Y-11667524D01*
X11990238Y-11667524D02*
X11952143Y-11667524D01*
X11952143Y-11667524D02*
X11933095Y-11658000D01*
X12114048Y-11648476D02*
X12123571Y-11658000D01*
X12123571Y-11658000D02*
X12114048Y-11667524D01*
X12114048Y-11667524D02*
X12104524Y-11658000D01*
X12104524Y-11658000D02*
X12114048Y-11648476D01*
X12114048Y-11648476D02*
X12114048Y-11667524D01*
X12114048Y-11543714D02*
X12123571Y-11553238D01*
X12123571Y-11553238D02*
X12114048Y-11562762D01*
X12114048Y-11562762D02*
X12104524Y-11553238D01*
X12104524Y-11553238D02*
X12114048Y-11543714D01*
X12114048Y-11543714D02*
X12114048Y-11562762D01*
D12*
X10400000Y-11947500D02*
X10495000Y-12042500D01*
X10495000Y-11947500D02*
X10400000Y-12042500D01*
D11*
X10780714Y-11887524D02*
X10799762Y-11887524D01*
X10799762Y-11887524D02*
X10818810Y-11897048D01*
X10818810Y-11897048D02*
X10828333Y-11906571D01*
X10828333Y-11906571D02*
X10837857Y-11925619D01*
X10837857Y-11925619D02*
X10847381Y-11963714D01*
X10847381Y-11963714D02*
X10847381Y-12011333D01*
X10847381Y-12011333D02*
X10837857Y-12049428D01*
X10837857Y-12049428D02*
X10828333Y-12068476D01*
X10828333Y-12068476D02*
X10818810Y-12078000D01*
X10818810Y-12078000D02*
X10799762Y-12087524D01*
X10799762Y-12087524D02*
X10780714Y-12087524D01*
X10780714Y-12087524D02*
X10761667Y-12078000D01*
X10761667Y-12078000D02*
X10752143Y-12068476D01*
X10752143Y-12068476D02*
X10742619Y-12049428D01*
X10742619Y-12049428D02*
X10733095Y-12011333D01*
X10733095Y-12011333D02*
X10733095Y-11963714D01*
X10733095Y-11963714D02*
X10742619Y-11925619D01*
X10742619Y-11925619D02*
X10752143Y-11906571D01*
X10752143Y-11906571D02*
X10761667Y-11897048D01*
X10761667Y-11897048D02*
X10780714Y-11887524D01*
X10933095Y-12068476D02*
X10942619Y-12078000D01*
X10942619Y-12078000D02*
X10933095Y-12087524D01*
X10933095Y-12087524D02*
X10923571Y-12078000D01*
X10923571Y-12078000D02*
X10933095Y-12068476D01*
X10933095Y-12068476D02*
X10933095Y-12087524D01*
X11037857Y-12087524D02*
X11075952Y-12087524D01*
X11075952Y-12087524D02*
X11095000Y-12078000D01*
X11095000Y-12078000D02*
X11104524Y-12068476D01*
X11104524Y-12068476D02*
X11123571Y-12039905D01*
X11123571Y-12039905D02*
X11133095Y-12001809D01*
X11133095Y-12001809D02*
X11133095Y-11925619D01*
X11133095Y-11925619D02*
X11123571Y-11906571D01*
X11123571Y-11906571D02*
X11114048Y-11897048D01*
X11114048Y-11897048D02*
X11095000Y-11887524D01*
X11095000Y-11887524D02*
X11056905Y-11887524D01*
X11056905Y-11887524D02*
X11037857Y-11897048D01*
X11037857Y-11897048D02*
X11028333Y-11906571D01*
X11028333Y-11906571D02*
X11018810Y-11925619D01*
X11018810Y-11925619D02*
X11018810Y-11973238D01*
X11018810Y-11973238D02*
X11028333Y-11992286D01*
X11028333Y-11992286D02*
X11037857Y-12001809D01*
X11037857Y-12001809D02*
X11056905Y-12011333D01*
X11056905Y-12011333D02*
X11095000Y-12011333D01*
X11095000Y-12011333D02*
X11114048Y-12001809D01*
X11114048Y-12001809D02*
X11123571Y-11992286D01*
X11123571Y-11992286D02*
X11133095Y-11973238D01*
X11314048Y-11887524D02*
X11218809Y-11887524D01*
X11218809Y-11887524D02*
X11209286Y-11982762D01*
X11209286Y-11982762D02*
X11218809Y-11973238D01*
X11218809Y-11973238D02*
X11237857Y-11963714D01*
X11237857Y-11963714D02*
X11285476Y-11963714D01*
X11285476Y-11963714D02*
X11304524Y-11973238D01*
X11304524Y-11973238D02*
X11314048Y-11982762D01*
X11314048Y-11982762D02*
X11323571Y-12001809D01*
X11323571Y-12001809D02*
X11323571Y-12049428D01*
X11323571Y-12049428D02*
X11314048Y-12068476D01*
X11314048Y-12068476D02*
X11304524Y-12078000D01*
X11304524Y-12078000D02*
X11285476Y-12087524D01*
X11285476Y-12087524D02*
X11237857Y-12087524D01*
X11237857Y-12087524D02*
X11218809Y-12078000D01*
X11218809Y-12078000D02*
X11209286Y-12068476D01*
X11447381Y-11887524D02*
X11466429Y-11887524D01*
X11466429Y-11887524D02*
X11485476Y-11897048D01*
X11485476Y-11897048D02*
X11495000Y-11906571D01*
X11495000Y-11906571D02*
X11504524Y-11925619D01*
X11504524Y-11925619D02*
X11514048Y-11963714D01*
X11514048Y-11963714D02*
X11514048Y-12011333D01*
X11514048Y-12011333D02*
X11504524Y-12049428D01*
X11504524Y-12049428D02*
X11495000Y-12068476D01*
X11495000Y-12068476D02*
X11485476Y-12078000D01*
X11485476Y-12078000D02*
X11466429Y-12087524D01*
X11466429Y-12087524D02*
X11447381Y-12087524D01*
X11447381Y-12087524D02*
X11428333Y-12078000D01*
X11428333Y-12078000D02*
X11418809Y-12068476D01*
X11418809Y-12068476D02*
X11409286Y-12049428D01*
X11409286Y-12049428D02*
X11399762Y-12011333D01*
X11399762Y-12011333D02*
X11399762Y-11963714D01*
X11399762Y-11963714D02*
X11409286Y-11925619D01*
X11409286Y-11925619D02*
X11418809Y-11906571D01*
X11418809Y-11906571D02*
X11428333Y-11897048D01*
X11428333Y-11897048D02*
X11447381Y-11887524D01*
X11599762Y-12087524D02*
X11599762Y-11954190D01*
X11599762Y-11973238D02*
X11609286Y-11963714D01*
X11609286Y-11963714D02*
X11628333Y-11954190D01*
X11628333Y-11954190D02*
X11656905Y-11954190D01*
X11656905Y-11954190D02*
X11675952Y-11963714D01*
X11675952Y-11963714D02*
X11685476Y-11982762D01*
X11685476Y-11982762D02*
X11685476Y-12087524D01*
X11685476Y-11982762D02*
X11695000Y-11963714D01*
X11695000Y-11963714D02*
X11714048Y-11954190D01*
X11714048Y-11954190D02*
X11742619Y-11954190D01*
X11742619Y-11954190D02*
X11761667Y-11963714D01*
X11761667Y-11963714D02*
X11771190Y-11982762D01*
X11771190Y-11982762D02*
X11771190Y-12087524D01*
X11866429Y-12087524D02*
X11866429Y-11954190D01*
X11866429Y-11973238D02*
X11875952Y-11963714D01*
X11875952Y-11963714D02*
X11895000Y-11954190D01*
X11895000Y-11954190D02*
X11923571Y-11954190D01*
X11923571Y-11954190D02*
X11942619Y-11963714D01*
X11942619Y-11963714D02*
X11952143Y-11982762D01*
X11952143Y-11982762D02*
X11952143Y-12087524D01*
X11952143Y-11982762D02*
X11961667Y-11963714D01*
X11961667Y-11963714D02*
X11980714Y-11954190D01*
X11980714Y-11954190D02*
X12009286Y-11954190D01*
X12009286Y-11954190D02*
X12028333Y-11963714D01*
X12028333Y-11963714D02*
X12037857Y-11982762D01*
X12037857Y-11982762D02*
X12037857Y-12087524D01*
X12428333Y-11878000D02*
X12256905Y-12135143D01*
X12685476Y-11887524D02*
X12704524Y-11887524D01*
X12704524Y-11887524D02*
X12723572Y-11897048D01*
X12723572Y-11897048D02*
X12733095Y-11906571D01*
X12733095Y-11906571D02*
X12742619Y-11925619D01*
X12742619Y-11925619D02*
X12752143Y-11963714D01*
X12752143Y-11963714D02*
X12752143Y-12011333D01*
X12752143Y-12011333D02*
X12742619Y-12049428D01*
X12742619Y-12049428D02*
X12733095Y-12068476D01*
X12733095Y-12068476D02*
X12723572Y-12078000D01*
X12723572Y-12078000D02*
X12704524Y-12087524D01*
X12704524Y-12087524D02*
X12685476Y-12087524D01*
X12685476Y-12087524D02*
X12666429Y-12078000D01*
X12666429Y-12078000D02*
X12656905Y-12068476D01*
X12656905Y-12068476D02*
X12647381Y-12049428D01*
X12647381Y-12049428D02*
X12637857Y-12011333D01*
X12637857Y-12011333D02*
X12637857Y-11963714D01*
X12637857Y-11963714D02*
X12647381Y-11925619D01*
X12647381Y-11925619D02*
X12656905Y-11906571D01*
X12656905Y-11906571D02*
X12666429Y-11897048D01*
X12666429Y-11897048D02*
X12685476Y-11887524D01*
X12837857Y-12068476D02*
X12847381Y-12078000D01*
X12847381Y-12078000D02*
X12837857Y-12087524D01*
X12837857Y-12087524D02*
X12828333Y-12078000D01*
X12828333Y-12078000D02*
X12837857Y-12068476D01*
X12837857Y-12068476D02*
X12837857Y-12087524D01*
X12971191Y-11887524D02*
X12990238Y-11887524D01*
X12990238Y-11887524D02*
X13009286Y-11897048D01*
X13009286Y-11897048D02*
X13018810Y-11906571D01*
X13018810Y-11906571D02*
X13028333Y-11925619D01*
X13028333Y-11925619D02*
X13037857Y-11963714D01*
X13037857Y-11963714D02*
X13037857Y-12011333D01*
X13037857Y-12011333D02*
X13028333Y-12049428D01*
X13028333Y-12049428D02*
X13018810Y-12068476D01*
X13018810Y-12068476D02*
X13009286Y-12078000D01*
X13009286Y-12078000D02*
X12990238Y-12087524D01*
X12990238Y-12087524D02*
X12971191Y-12087524D01*
X12971191Y-12087524D02*
X12952143Y-12078000D01*
X12952143Y-12078000D02*
X12942619Y-12068476D01*
X12942619Y-12068476D02*
X12933095Y-12049428D01*
X12933095Y-12049428D02*
X12923572Y-12011333D01*
X12923572Y-12011333D02*
X12923572Y-11963714D01*
X12923572Y-11963714D02*
X12933095Y-11925619D01*
X12933095Y-11925619D02*
X12942619Y-11906571D01*
X12942619Y-11906571D02*
X12952143Y-11897048D01*
X12952143Y-11897048D02*
X12971191Y-11887524D01*
X13104524Y-11887524D02*
X13228333Y-11887524D01*
X13228333Y-11887524D02*
X13161667Y-11963714D01*
X13161667Y-11963714D02*
X13190238Y-11963714D01*
X13190238Y-11963714D02*
X13209286Y-11973238D01*
X13209286Y-11973238D02*
X13218810Y-11982762D01*
X13218810Y-11982762D02*
X13228333Y-12001809D01*
X13228333Y-12001809D02*
X13228333Y-12049428D01*
X13228333Y-12049428D02*
X13218810Y-12068476D01*
X13218810Y-12068476D02*
X13209286Y-12078000D01*
X13209286Y-12078000D02*
X13190238Y-12087524D01*
X13190238Y-12087524D02*
X13133095Y-12087524D01*
X13133095Y-12087524D02*
X13114048Y-12078000D01*
X13114048Y-12078000D02*
X13104524Y-12068476D01*
X13295000Y-11887524D02*
X13428333Y-11887524D01*
X13428333Y-11887524D02*
X13342619Y-12087524D01*
X13590238Y-11954190D02*
X13590238Y-12087524D01*
X13542619Y-11878000D02*
X13495000Y-12020857D01*
X13495000Y-12020857D02*
X13618810Y-12020857D01*
X13685476Y-11887524D02*
X13685476Y-11925619D01*
X13761667Y-11887524D02*
X13761667Y-11925619D01*
X14056905Y-12163714D02*
X14047381Y-12154190D01*
X14047381Y-12154190D02*
X14028334Y-12125619D01*
X14028334Y-12125619D02*
X14018810Y-12106571D01*
X14018810Y-12106571D02*
X14009286Y-12078000D01*
X14009286Y-12078000D02*
X13999762Y-12030381D01*
X13999762Y-12030381D02*
X13999762Y-11992286D01*
X13999762Y-11992286D02*
X14009286Y-11944667D01*
X14009286Y-11944667D02*
X14018810Y-11916095D01*
X14018810Y-11916095D02*
X14028334Y-11897048D01*
X14028334Y-11897048D02*
X14047381Y-11868476D01*
X14047381Y-11868476D02*
X14056905Y-11858952D01*
X14123572Y-11906571D02*
X14133095Y-11897048D01*
X14133095Y-11897048D02*
X14152143Y-11887524D01*
X14152143Y-11887524D02*
X14199762Y-11887524D01*
X14199762Y-11887524D02*
X14218810Y-11897048D01*
X14218810Y-11897048D02*
X14228334Y-11906571D01*
X14228334Y-11906571D02*
X14237857Y-11925619D01*
X14237857Y-11925619D02*
X14237857Y-11944667D01*
X14237857Y-11944667D02*
X14228334Y-11973238D01*
X14228334Y-11973238D02*
X14114048Y-12087524D01*
X14114048Y-12087524D02*
X14237857Y-12087524D01*
X14409286Y-11954190D02*
X14409286Y-12087524D01*
X14361667Y-11878000D02*
X14314048Y-12020857D01*
X14314048Y-12020857D02*
X14437857Y-12020857D01*
X14666429Y-12087524D02*
X14666429Y-11887524D01*
X14752143Y-12087524D02*
X14752143Y-11982762D01*
X14752143Y-11982762D02*
X14742619Y-11963714D01*
X14742619Y-11963714D02*
X14723572Y-11954190D01*
X14723572Y-11954190D02*
X14695000Y-11954190D01*
X14695000Y-11954190D02*
X14675953Y-11963714D01*
X14675953Y-11963714D02*
X14666429Y-11973238D01*
X14875953Y-12087524D02*
X14856905Y-12078000D01*
X14856905Y-12078000D02*
X14847381Y-12068476D01*
X14847381Y-12068476D02*
X14837857Y-12049428D01*
X14837857Y-12049428D02*
X14837857Y-11992286D01*
X14837857Y-11992286D02*
X14847381Y-11973238D01*
X14847381Y-11973238D02*
X14856905Y-11963714D01*
X14856905Y-11963714D02*
X14875953Y-11954190D01*
X14875953Y-11954190D02*
X14904524Y-11954190D01*
X14904524Y-11954190D02*
X14923572Y-11963714D01*
X14923572Y-11963714D02*
X14933096Y-11973238D01*
X14933096Y-11973238D02*
X14942619Y-11992286D01*
X14942619Y-11992286D02*
X14942619Y-12049428D01*
X14942619Y-12049428D02*
X14933096Y-12068476D01*
X14933096Y-12068476D02*
X14923572Y-12078000D01*
X14923572Y-12078000D02*
X14904524Y-12087524D01*
X14904524Y-12087524D02*
X14875953Y-12087524D01*
X15056905Y-12087524D02*
X15037857Y-12078000D01*
X15037857Y-12078000D02*
X15028334Y-12058952D01*
X15028334Y-12058952D02*
X15028334Y-11887524D01*
X15209286Y-12078000D02*
X15190238Y-12087524D01*
X15190238Y-12087524D02*
X15152143Y-12087524D01*
X15152143Y-12087524D02*
X15133096Y-12078000D01*
X15133096Y-12078000D02*
X15123572Y-12058952D01*
X15123572Y-12058952D02*
X15123572Y-11982762D01*
X15123572Y-11982762D02*
X15133096Y-11963714D01*
X15133096Y-11963714D02*
X15152143Y-11954190D01*
X15152143Y-11954190D02*
X15190238Y-11954190D01*
X15190238Y-11954190D02*
X15209286Y-11963714D01*
X15209286Y-11963714D02*
X15218810Y-11982762D01*
X15218810Y-11982762D02*
X15218810Y-12001809D01*
X15218810Y-12001809D02*
X15123572Y-12020857D01*
X15295000Y-12078000D02*
X15314048Y-12087524D01*
X15314048Y-12087524D02*
X15352143Y-12087524D01*
X15352143Y-12087524D02*
X15371191Y-12078000D01*
X15371191Y-12078000D02*
X15380715Y-12058952D01*
X15380715Y-12058952D02*
X15380715Y-12049428D01*
X15380715Y-12049428D02*
X15371191Y-12030381D01*
X15371191Y-12030381D02*
X15352143Y-12020857D01*
X15352143Y-12020857D02*
X15323572Y-12020857D01*
X15323572Y-12020857D02*
X15304524Y-12011333D01*
X15304524Y-12011333D02*
X15295000Y-11992286D01*
X15295000Y-11992286D02*
X15295000Y-11982762D01*
X15295000Y-11982762D02*
X15304524Y-11963714D01*
X15304524Y-11963714D02*
X15323572Y-11954190D01*
X15323572Y-11954190D02*
X15352143Y-11954190D01*
X15352143Y-11954190D02*
X15371191Y-11963714D01*
X15447381Y-12163714D02*
X15456905Y-12154190D01*
X15456905Y-12154190D02*
X15475953Y-12125619D01*
X15475953Y-12125619D02*
X15485477Y-12106571D01*
X15485477Y-12106571D02*
X15495000Y-12078000D01*
X15495000Y-12078000D02*
X15504524Y-12030381D01*
X15504524Y-12030381D02*
X15504524Y-11992286D01*
X15504524Y-11992286D02*
X15495000Y-11944667D01*
X15495000Y-11944667D02*
X15485477Y-11916095D01*
X15485477Y-11916095D02*
X15475953Y-11897048D01*
X15475953Y-11897048D02*
X15456905Y-11868476D01*
X15456905Y-11868476D02*
X15447381Y-11858952D01*
D13*
X10495000Y-12259000D02*
G75*
G03*
X10495000Y-12259000I-50800J0D01*
G01*
D11*
X10847381Y-12351524D02*
X10733095Y-12351524D01*
X10790238Y-12351524D02*
X10790238Y-12151524D01*
X10790238Y-12151524D02*
X10771190Y-12180095D01*
X10771190Y-12180095D02*
X10752143Y-12199143D01*
X10752143Y-12199143D02*
X10733095Y-12208667D01*
X10933095Y-12332476D02*
X10942619Y-12342000D01*
X10942619Y-12342000D02*
X10933095Y-12351524D01*
X10933095Y-12351524D02*
X10923571Y-12342000D01*
X10923571Y-12342000D02*
X10933095Y-12332476D01*
X10933095Y-12332476D02*
X10933095Y-12351524D01*
X11066429Y-12151524D02*
X11085476Y-12151524D01*
X11085476Y-12151524D02*
X11104524Y-12161048D01*
X11104524Y-12161048D02*
X11114048Y-12170571D01*
X11114048Y-12170571D02*
X11123571Y-12189619D01*
X11123571Y-12189619D02*
X11133095Y-12227714D01*
X11133095Y-12227714D02*
X11133095Y-12275333D01*
X11133095Y-12275333D02*
X11123571Y-12313428D01*
X11123571Y-12313428D02*
X11114048Y-12332476D01*
X11114048Y-12332476D02*
X11104524Y-12342000D01*
X11104524Y-12342000D02*
X11085476Y-12351524D01*
X11085476Y-12351524D02*
X11066429Y-12351524D01*
X11066429Y-12351524D02*
X11047381Y-12342000D01*
X11047381Y-12342000D02*
X11037857Y-12332476D01*
X11037857Y-12332476D02*
X11028333Y-12313428D01*
X11028333Y-12313428D02*
X11018810Y-12275333D01*
X11018810Y-12275333D02*
X11018810Y-12227714D01*
X11018810Y-12227714D02*
X11028333Y-12189619D01*
X11028333Y-12189619D02*
X11037857Y-12170571D01*
X11037857Y-12170571D02*
X11047381Y-12161048D01*
X11047381Y-12161048D02*
X11066429Y-12151524D01*
X11323571Y-12351524D02*
X11209286Y-12351524D01*
X11266428Y-12351524D02*
X11266428Y-12151524D01*
X11266428Y-12151524D02*
X11247381Y-12180095D01*
X11247381Y-12180095D02*
X11228333Y-12199143D01*
X11228333Y-12199143D02*
X11209286Y-12208667D01*
X11495000Y-12151524D02*
X11456905Y-12151524D01*
X11456905Y-12151524D02*
X11437857Y-12161048D01*
X11437857Y-12161048D02*
X11428333Y-12170571D01*
X11428333Y-12170571D02*
X11409286Y-12199143D01*
X11409286Y-12199143D02*
X11399762Y-12237238D01*
X11399762Y-12237238D02*
X11399762Y-12313428D01*
X11399762Y-12313428D02*
X11409286Y-12332476D01*
X11409286Y-12332476D02*
X11418809Y-12342000D01*
X11418809Y-12342000D02*
X11437857Y-12351524D01*
X11437857Y-12351524D02*
X11475952Y-12351524D01*
X11475952Y-12351524D02*
X11495000Y-12342000D01*
X11495000Y-12342000D02*
X11504524Y-12332476D01*
X11504524Y-12332476D02*
X11514048Y-12313428D01*
X11514048Y-12313428D02*
X11514048Y-12265809D01*
X11514048Y-12265809D02*
X11504524Y-12246762D01*
X11504524Y-12246762D02*
X11495000Y-12237238D01*
X11495000Y-12237238D02*
X11475952Y-12227714D01*
X11475952Y-12227714D02*
X11437857Y-12227714D01*
X11437857Y-12227714D02*
X11418809Y-12237238D01*
X11418809Y-12237238D02*
X11409286Y-12246762D01*
X11409286Y-12246762D02*
X11399762Y-12265809D01*
X11599762Y-12351524D02*
X11599762Y-12218190D01*
X11599762Y-12237238D02*
X11609286Y-12227714D01*
X11609286Y-12227714D02*
X11628333Y-12218190D01*
X11628333Y-12218190D02*
X11656905Y-12218190D01*
X11656905Y-12218190D02*
X11675952Y-12227714D01*
X11675952Y-12227714D02*
X11685476Y-12246762D01*
X11685476Y-12246762D02*
X11685476Y-12351524D01*
X11685476Y-12246762D02*
X11695000Y-12227714D01*
X11695000Y-12227714D02*
X11714048Y-12218190D01*
X11714048Y-12218190D02*
X11742619Y-12218190D01*
X11742619Y-12218190D02*
X11761667Y-12227714D01*
X11761667Y-12227714D02*
X11771190Y-12246762D01*
X11771190Y-12246762D02*
X11771190Y-12351524D01*
X11866429Y-12351524D02*
X11866429Y-12218190D01*
X11866429Y-12237238D02*
X11875952Y-12227714D01*
X11875952Y-12227714D02*
X11895000Y-12218190D01*
X11895000Y-12218190D02*
X11923571Y-12218190D01*
X11923571Y-12218190D02*
X11942619Y-12227714D01*
X11942619Y-12227714D02*
X11952143Y-12246762D01*
X11952143Y-12246762D02*
X11952143Y-12351524D01*
X11952143Y-12246762D02*
X11961667Y-12227714D01*
X11961667Y-12227714D02*
X11980714Y-12218190D01*
X11980714Y-12218190D02*
X12009286Y-12218190D01*
X12009286Y-12218190D02*
X12028333Y-12227714D01*
X12028333Y-12227714D02*
X12037857Y-12246762D01*
X12037857Y-12246762D02*
X12037857Y-12351524D01*
X12428333Y-12142000D02*
X12256905Y-12399143D01*
X12685476Y-12151524D02*
X12704524Y-12151524D01*
X12704524Y-12151524D02*
X12723572Y-12161048D01*
X12723572Y-12161048D02*
X12733095Y-12170571D01*
X12733095Y-12170571D02*
X12742619Y-12189619D01*
X12742619Y-12189619D02*
X12752143Y-12227714D01*
X12752143Y-12227714D02*
X12752143Y-12275333D01*
X12752143Y-12275333D02*
X12742619Y-12313428D01*
X12742619Y-12313428D02*
X12733095Y-12332476D01*
X12733095Y-12332476D02*
X12723572Y-12342000D01*
X12723572Y-12342000D02*
X12704524Y-12351524D01*
X12704524Y-12351524D02*
X12685476Y-12351524D01*
X12685476Y-12351524D02*
X12666429Y-12342000D01*
X12666429Y-12342000D02*
X12656905Y-12332476D01*
X12656905Y-12332476D02*
X12647381Y-12313428D01*
X12647381Y-12313428D02*
X12637857Y-12275333D01*
X12637857Y-12275333D02*
X12637857Y-12227714D01*
X12637857Y-12227714D02*
X12647381Y-12189619D01*
X12647381Y-12189619D02*
X12656905Y-12170571D01*
X12656905Y-12170571D02*
X12666429Y-12161048D01*
X12666429Y-12161048D02*
X12685476Y-12151524D01*
X12837857Y-12332476D02*
X12847381Y-12342000D01*
X12847381Y-12342000D02*
X12837857Y-12351524D01*
X12837857Y-12351524D02*
X12828333Y-12342000D01*
X12828333Y-12342000D02*
X12837857Y-12332476D01*
X12837857Y-12332476D02*
X12837857Y-12351524D01*
X12971191Y-12151524D02*
X12990238Y-12151524D01*
X12990238Y-12151524D02*
X13009286Y-12161048D01*
X13009286Y-12161048D02*
X13018810Y-12170571D01*
X13018810Y-12170571D02*
X13028333Y-12189619D01*
X13028333Y-12189619D02*
X13037857Y-12227714D01*
X13037857Y-12227714D02*
X13037857Y-12275333D01*
X13037857Y-12275333D02*
X13028333Y-12313428D01*
X13028333Y-12313428D02*
X13018810Y-12332476D01*
X13018810Y-12332476D02*
X13009286Y-12342000D01*
X13009286Y-12342000D02*
X12990238Y-12351524D01*
X12990238Y-12351524D02*
X12971191Y-12351524D01*
X12971191Y-12351524D02*
X12952143Y-12342000D01*
X12952143Y-12342000D02*
X12942619Y-12332476D01*
X12942619Y-12332476D02*
X12933095Y-12313428D01*
X12933095Y-12313428D02*
X12923572Y-12275333D01*
X12923572Y-12275333D02*
X12923572Y-12227714D01*
X12923572Y-12227714D02*
X12933095Y-12189619D01*
X12933095Y-12189619D02*
X12942619Y-12170571D01*
X12942619Y-12170571D02*
X12952143Y-12161048D01*
X12952143Y-12161048D02*
X12971191Y-12151524D01*
X13209286Y-12218190D02*
X13209286Y-12351524D01*
X13161667Y-12142000D02*
X13114048Y-12284857D01*
X13114048Y-12284857D02*
X13237857Y-12284857D01*
X13352143Y-12151524D02*
X13371191Y-12151524D01*
X13371191Y-12151524D02*
X13390238Y-12161048D01*
X13390238Y-12161048D02*
X13399762Y-12170571D01*
X13399762Y-12170571D02*
X13409286Y-12189619D01*
X13409286Y-12189619D02*
X13418810Y-12227714D01*
X13418810Y-12227714D02*
X13418810Y-12275333D01*
X13418810Y-12275333D02*
X13409286Y-12313428D01*
X13409286Y-12313428D02*
X13399762Y-12332476D01*
X13399762Y-12332476D02*
X13390238Y-12342000D01*
X13390238Y-12342000D02*
X13371191Y-12351524D01*
X13371191Y-12351524D02*
X13352143Y-12351524D01*
X13352143Y-12351524D02*
X13333095Y-12342000D01*
X13333095Y-12342000D02*
X13323572Y-12332476D01*
X13323572Y-12332476D02*
X13314048Y-12313428D01*
X13314048Y-12313428D02*
X13304524Y-12275333D01*
X13304524Y-12275333D02*
X13304524Y-12227714D01*
X13304524Y-12227714D02*
X13314048Y-12189619D01*
X13314048Y-12189619D02*
X13323572Y-12170571D01*
X13323572Y-12170571D02*
X13333095Y-12161048D01*
X13333095Y-12161048D02*
X13352143Y-12151524D01*
X13542619Y-12151524D02*
X13561667Y-12151524D01*
X13561667Y-12151524D02*
X13580714Y-12161048D01*
X13580714Y-12161048D02*
X13590238Y-12170571D01*
X13590238Y-12170571D02*
X13599762Y-12189619D01*
X13599762Y-12189619D02*
X13609286Y-12227714D01*
X13609286Y-12227714D02*
X13609286Y-12275333D01*
X13609286Y-12275333D02*
X13599762Y-12313428D01*
X13599762Y-12313428D02*
X13590238Y-12332476D01*
X13590238Y-12332476D02*
X13580714Y-12342000D01*
X13580714Y-12342000D02*
X13561667Y-12351524D01*
X13561667Y-12351524D02*
X13542619Y-12351524D01*
X13542619Y-12351524D02*
X13523572Y-12342000D01*
X13523572Y-12342000D02*
X13514048Y-12332476D01*
X13514048Y-12332476D02*
X13504524Y-12313428D01*
X13504524Y-12313428D02*
X13495000Y-12275333D01*
X13495000Y-12275333D02*
X13495000Y-12227714D01*
X13495000Y-12227714D02*
X13504524Y-12189619D01*
X13504524Y-12189619D02*
X13514048Y-12170571D01*
X13514048Y-12170571D02*
X13523572Y-12161048D01*
X13523572Y-12161048D02*
X13542619Y-12151524D01*
X13685476Y-12151524D02*
X13685476Y-12189619D01*
X13761667Y-12151524D02*
X13761667Y-12189619D01*
X14056905Y-12427714D02*
X14047381Y-12418190D01*
X14047381Y-12418190D02*
X14028334Y-12389619D01*
X14028334Y-12389619D02*
X14018810Y-12370571D01*
X14018810Y-12370571D02*
X14009286Y-12342000D01*
X14009286Y-12342000D02*
X13999762Y-12294381D01*
X13999762Y-12294381D02*
X13999762Y-12256286D01*
X13999762Y-12256286D02*
X14009286Y-12208667D01*
X14009286Y-12208667D02*
X14018810Y-12180095D01*
X14018810Y-12180095D02*
X14028334Y-12161048D01*
X14028334Y-12161048D02*
X14047381Y-12132476D01*
X14047381Y-12132476D02*
X14056905Y-12122952D01*
X14114048Y-12151524D02*
X14237857Y-12151524D01*
X14237857Y-12151524D02*
X14171191Y-12227714D01*
X14171191Y-12227714D02*
X14199762Y-12227714D01*
X14199762Y-12227714D02*
X14218810Y-12237238D01*
X14218810Y-12237238D02*
X14228334Y-12246762D01*
X14228334Y-12246762D02*
X14237857Y-12265809D01*
X14237857Y-12265809D02*
X14237857Y-12313428D01*
X14237857Y-12313428D02*
X14228334Y-12332476D01*
X14228334Y-12332476D02*
X14218810Y-12342000D01*
X14218810Y-12342000D02*
X14199762Y-12351524D01*
X14199762Y-12351524D02*
X14142619Y-12351524D01*
X14142619Y-12351524D02*
X14123572Y-12342000D01*
X14123572Y-12342000D02*
X14114048Y-12332476D01*
X14352143Y-12237238D02*
X14333095Y-12227714D01*
X14333095Y-12227714D02*
X14323572Y-12218190D01*
X14323572Y-12218190D02*
X14314048Y-12199143D01*
X14314048Y-12199143D02*
X14314048Y-12189619D01*
X14314048Y-12189619D02*
X14323572Y-12170571D01*
X14323572Y-12170571D02*
X14333095Y-12161048D01*
X14333095Y-12161048D02*
X14352143Y-12151524D01*
X14352143Y-12151524D02*
X14390238Y-12151524D01*
X14390238Y-12151524D02*
X14409286Y-12161048D01*
X14409286Y-12161048D02*
X14418810Y-12170571D01*
X14418810Y-12170571D02*
X14428334Y-12189619D01*
X14428334Y-12189619D02*
X14428334Y-12199143D01*
X14428334Y-12199143D02*
X14418810Y-12218190D01*
X14418810Y-12218190D02*
X14409286Y-12227714D01*
X14409286Y-12227714D02*
X14390238Y-12237238D01*
X14390238Y-12237238D02*
X14352143Y-12237238D01*
X14352143Y-12237238D02*
X14333095Y-12246762D01*
X14333095Y-12246762D02*
X14323572Y-12256286D01*
X14323572Y-12256286D02*
X14314048Y-12275333D01*
X14314048Y-12275333D02*
X14314048Y-12313428D01*
X14314048Y-12313428D02*
X14323572Y-12332476D01*
X14323572Y-12332476D02*
X14333095Y-12342000D01*
X14333095Y-12342000D02*
X14352143Y-12351524D01*
X14352143Y-12351524D02*
X14390238Y-12351524D01*
X14390238Y-12351524D02*
X14409286Y-12342000D01*
X14409286Y-12342000D02*
X14418810Y-12332476D01*
X14418810Y-12332476D02*
X14428334Y-12313428D01*
X14428334Y-12313428D02*
X14428334Y-12275333D01*
X14428334Y-12275333D02*
X14418810Y-12256286D01*
X14418810Y-12256286D02*
X14409286Y-12246762D01*
X14409286Y-12246762D02*
X14390238Y-12237238D01*
X14666429Y-12351524D02*
X14666429Y-12151524D01*
X14752143Y-12351524D02*
X14752143Y-12246762D01*
X14752143Y-12246762D02*
X14742619Y-12227714D01*
X14742619Y-12227714D02*
X14723572Y-12218190D01*
X14723572Y-12218190D02*
X14695000Y-12218190D01*
X14695000Y-12218190D02*
X14675953Y-12227714D01*
X14675953Y-12227714D02*
X14666429Y-12237238D01*
X14875953Y-12351524D02*
X14856905Y-12342000D01*
X14856905Y-12342000D02*
X14847381Y-12332476D01*
X14847381Y-12332476D02*
X14837857Y-12313428D01*
X14837857Y-12313428D02*
X14837857Y-12256286D01*
X14837857Y-12256286D02*
X14847381Y-12237238D01*
X14847381Y-12237238D02*
X14856905Y-12227714D01*
X14856905Y-12227714D02*
X14875953Y-12218190D01*
X14875953Y-12218190D02*
X14904524Y-12218190D01*
X14904524Y-12218190D02*
X14923572Y-12227714D01*
X14923572Y-12227714D02*
X14933096Y-12237238D01*
X14933096Y-12237238D02*
X14942619Y-12256286D01*
X14942619Y-12256286D02*
X14942619Y-12313428D01*
X14942619Y-12313428D02*
X14933096Y-12332476D01*
X14933096Y-12332476D02*
X14923572Y-12342000D01*
X14923572Y-12342000D02*
X14904524Y-12351524D01*
X14904524Y-12351524D02*
X14875953Y-12351524D01*
X15056905Y-12351524D02*
X15037857Y-12342000D01*
X15037857Y-12342000D02*
X15028334Y-12322952D01*
X15028334Y-12322952D02*
X15028334Y-12151524D01*
X15209286Y-12342000D02*
X15190238Y-12351524D01*
X15190238Y-12351524D02*
X15152143Y-12351524D01*
X15152143Y-12351524D02*
X15133096Y-12342000D01*
X15133096Y-12342000D02*
X15123572Y-12322952D01*
X15123572Y-12322952D02*
X15123572Y-12246762D01*
X15123572Y-12246762D02*
X15133096Y-12227714D01*
X15133096Y-12227714D02*
X15152143Y-12218190D01*
X15152143Y-12218190D02*
X15190238Y-12218190D01*
X15190238Y-12218190D02*
X15209286Y-12227714D01*
X15209286Y-12227714D02*
X15218810Y-12246762D01*
X15218810Y-12246762D02*
X15218810Y-12265809D01*
X15218810Y-12265809D02*
X15123572Y-12284857D01*
X15295000Y-12342000D02*
X15314048Y-12351524D01*
X15314048Y-12351524D02*
X15352143Y-12351524D01*
X15352143Y-12351524D02*
X15371191Y-12342000D01*
X15371191Y-12342000D02*
X15380715Y-12322952D01*
X15380715Y-12322952D02*
X15380715Y-12313428D01*
X15380715Y-12313428D02*
X15371191Y-12294381D01*
X15371191Y-12294381D02*
X15352143Y-12284857D01*
X15352143Y-12284857D02*
X15323572Y-12284857D01*
X15323572Y-12284857D02*
X15304524Y-12275333D01*
X15304524Y-12275333D02*
X15295000Y-12256286D01*
X15295000Y-12256286D02*
X15295000Y-12246762D01*
X15295000Y-12246762D02*
X15304524Y-12227714D01*
X15304524Y-12227714D02*
X15323572Y-12218190D01*
X15323572Y-12218190D02*
X15352143Y-12218190D01*
X15352143Y-12218190D02*
X15371191Y-12227714D01*
X15447381Y-12427714D02*
X15456905Y-12418190D01*
X15456905Y-12418190D02*
X15475953Y-12389619D01*
X15475953Y-12389619D02*
X15485477Y-12370571D01*
X15485477Y-12370571D02*
X15495000Y-12342000D01*
X15495000Y-12342000D02*
X15504524Y-12294381D01*
X15504524Y-12294381D02*
X15504524Y-12256286D01*
X15504524Y-12256286D02*
X15495000Y-12208667D01*
X15495000Y-12208667D02*
X15485477Y-12180095D01*
X15485477Y-12180095D02*
X15475953Y-12161048D01*
X15475953Y-12161048D02*
X15456905Y-12132476D01*
X15456905Y-12132476D02*
X15447381Y-12122952D01*
M02*
