%TF.GenerationSoftware,KiCad,Pcbnew,7.0.2*%
%TF.CreationDate,2024-02-07T15:16:57+01:00*%
%TF.ProjectId,Phase_Sensor_Array_Board,50686173-655f-4536-956e-736f725f4172,rev?*%
%TF.SameCoordinates,Original*%
%TF.FileFunction,Drillmap*%
%TF.FilePolarity,Positive*%
%FSLAX45Y45*%
G04 Gerber Fmt 4.5, Leading zero omitted, Abs format (unit mm)*
G04 Created by KiCad (PCBNEW 7.0.2) date 2024-02-07 15:16:57*
%MOMM*%
%LPD*%
G01*
G04 APERTURE LIST*
%ADD10C,0.100000*%
%ADD11C,0.200000*%
%ADD12C,0.320000*%
G04 APERTURE END LIST*
D10*
X10500000Y-11150000D02*
G75*
G03*
X10700000Y-11350000I200000J0D01*
G01*
X16050000Y-11350000D02*
G75*
G03*
X16250000Y-11150000I0J200000D01*
G01*
X16250000Y-6200000D02*
G75*
G03*
X16050000Y-6000000I-200000J0D01*
G01*
X10700000Y-6000000D02*
G75*
G03*
X10500000Y-6200000I0J-200000D01*
G01*
X10500000Y-6200000D02*
X10500000Y-11150000D01*
X16050000Y-11350000D02*
X10700000Y-11350000D01*
X16250000Y-6200000D02*
X16250000Y-11150000D01*
X10700000Y-6000000D02*
X16050000Y-6000000D01*
D11*
D12*
X10637000Y-10940000D02*
X10957000Y-11260000D01*
X10957000Y-10940000D02*
X10637000Y-11260000D01*
X10764000Y-6114000D02*
X11084000Y-6434000D01*
X11084000Y-6114000D02*
X10764000Y-6434000D01*
X15844000Y-7638000D02*
X16164000Y-7958000D01*
X16164000Y-7638000D02*
X15844000Y-7958000D01*
X15844000Y-10432000D02*
X16164000Y-10752000D01*
X16164000Y-10432000D02*
X15844000Y-10752000D01*
D11*
X10742619Y-11667524D02*
X10742619Y-11467524D01*
X10742619Y-11467524D02*
X10790238Y-11467524D01*
X10790238Y-11467524D02*
X10818810Y-11477048D01*
X10818810Y-11477048D02*
X10837857Y-11496095D01*
X10837857Y-11496095D02*
X10847381Y-11515143D01*
X10847381Y-11515143D02*
X10856905Y-11553238D01*
X10856905Y-11553238D02*
X10856905Y-11581809D01*
X10856905Y-11581809D02*
X10847381Y-11619905D01*
X10847381Y-11619905D02*
X10837857Y-11638952D01*
X10837857Y-11638952D02*
X10818810Y-11658000D01*
X10818810Y-11658000D02*
X10790238Y-11667524D01*
X10790238Y-11667524D02*
X10742619Y-11667524D01*
X10942619Y-11667524D02*
X10942619Y-11534190D01*
X10942619Y-11572286D02*
X10952143Y-11553238D01*
X10952143Y-11553238D02*
X10961667Y-11543714D01*
X10961667Y-11543714D02*
X10980714Y-11534190D01*
X10980714Y-11534190D02*
X10999762Y-11534190D01*
X11066429Y-11667524D02*
X11066429Y-11534190D01*
X11066429Y-11467524D02*
X11056905Y-11477048D01*
X11056905Y-11477048D02*
X11066429Y-11486571D01*
X11066429Y-11486571D02*
X11075952Y-11477048D01*
X11075952Y-11477048D02*
X11066429Y-11467524D01*
X11066429Y-11467524D02*
X11066429Y-11486571D01*
X11190238Y-11667524D02*
X11171190Y-11658000D01*
X11171190Y-11658000D02*
X11161667Y-11638952D01*
X11161667Y-11638952D02*
X11161667Y-11467524D01*
X11295000Y-11667524D02*
X11275952Y-11658000D01*
X11275952Y-11658000D02*
X11266428Y-11638952D01*
X11266428Y-11638952D02*
X11266428Y-11467524D01*
X11523571Y-11667524D02*
X11523571Y-11467524D01*
X11523571Y-11467524D02*
X11590238Y-11610381D01*
X11590238Y-11610381D02*
X11656905Y-11467524D01*
X11656905Y-11467524D02*
X11656905Y-11667524D01*
X11837857Y-11667524D02*
X11837857Y-11562762D01*
X11837857Y-11562762D02*
X11828333Y-11543714D01*
X11828333Y-11543714D02*
X11809286Y-11534190D01*
X11809286Y-11534190D02*
X11771190Y-11534190D01*
X11771190Y-11534190D02*
X11752143Y-11543714D01*
X11837857Y-11658000D02*
X11818809Y-11667524D01*
X11818809Y-11667524D02*
X11771190Y-11667524D01*
X11771190Y-11667524D02*
X11752143Y-11658000D01*
X11752143Y-11658000D02*
X11742619Y-11638952D01*
X11742619Y-11638952D02*
X11742619Y-11619905D01*
X11742619Y-11619905D02*
X11752143Y-11600857D01*
X11752143Y-11600857D02*
X11771190Y-11591333D01*
X11771190Y-11591333D02*
X11818809Y-11591333D01*
X11818809Y-11591333D02*
X11837857Y-11581809D01*
X11933095Y-11534190D02*
X11933095Y-11734190D01*
X11933095Y-11543714D02*
X11952143Y-11534190D01*
X11952143Y-11534190D02*
X11990238Y-11534190D01*
X11990238Y-11534190D02*
X12009286Y-11543714D01*
X12009286Y-11543714D02*
X12018809Y-11553238D01*
X12018809Y-11553238D02*
X12028333Y-11572286D01*
X12028333Y-11572286D02*
X12028333Y-11629428D01*
X12028333Y-11629428D02*
X12018809Y-11648476D01*
X12018809Y-11648476D02*
X12009286Y-11658000D01*
X12009286Y-11658000D02*
X11990238Y-11667524D01*
X11990238Y-11667524D02*
X11952143Y-11667524D01*
X11952143Y-11667524D02*
X11933095Y-11658000D01*
X12114048Y-11648476D02*
X12123571Y-11658000D01*
X12123571Y-11658000D02*
X12114048Y-11667524D01*
X12114048Y-11667524D02*
X12104524Y-11658000D01*
X12104524Y-11658000D02*
X12114048Y-11648476D01*
X12114048Y-11648476D02*
X12114048Y-11667524D01*
X12114048Y-11543714D02*
X12123571Y-11553238D01*
X12123571Y-11553238D02*
X12114048Y-11562762D01*
X12114048Y-11562762D02*
X12104524Y-11553238D01*
X12104524Y-11553238D02*
X12114048Y-11543714D01*
X12114048Y-11543714D02*
X12114048Y-11562762D01*
X10295000Y-11895000D02*
X10495000Y-12095000D01*
X10495000Y-11895000D02*
X10295000Y-12095000D01*
X10723571Y-11887524D02*
X10847381Y-11887524D01*
X10847381Y-11887524D02*
X10780714Y-11963714D01*
X10780714Y-11963714D02*
X10809286Y-11963714D01*
X10809286Y-11963714D02*
X10828333Y-11973238D01*
X10828333Y-11973238D02*
X10837857Y-11982762D01*
X10837857Y-11982762D02*
X10847381Y-12001809D01*
X10847381Y-12001809D02*
X10847381Y-12049428D01*
X10847381Y-12049428D02*
X10837857Y-12068476D01*
X10837857Y-12068476D02*
X10828333Y-12078000D01*
X10828333Y-12078000D02*
X10809286Y-12087524D01*
X10809286Y-12087524D02*
X10752143Y-12087524D01*
X10752143Y-12087524D02*
X10733095Y-12078000D01*
X10733095Y-12078000D02*
X10723571Y-12068476D01*
X10933095Y-12068476D02*
X10942619Y-12078000D01*
X10942619Y-12078000D02*
X10933095Y-12087524D01*
X10933095Y-12087524D02*
X10923571Y-12078000D01*
X10923571Y-12078000D02*
X10933095Y-12068476D01*
X10933095Y-12068476D02*
X10933095Y-12087524D01*
X11018810Y-11906571D02*
X11028333Y-11897048D01*
X11028333Y-11897048D02*
X11047381Y-11887524D01*
X11047381Y-11887524D02*
X11095000Y-11887524D01*
X11095000Y-11887524D02*
X11114048Y-11897048D01*
X11114048Y-11897048D02*
X11123571Y-11906571D01*
X11123571Y-11906571D02*
X11133095Y-11925619D01*
X11133095Y-11925619D02*
X11133095Y-11944667D01*
X11133095Y-11944667D02*
X11123571Y-11973238D01*
X11123571Y-11973238D02*
X11009286Y-12087524D01*
X11009286Y-12087524D02*
X11133095Y-12087524D01*
X11256905Y-11887524D02*
X11275952Y-11887524D01*
X11275952Y-11887524D02*
X11295000Y-11897048D01*
X11295000Y-11897048D02*
X11304524Y-11906571D01*
X11304524Y-11906571D02*
X11314048Y-11925619D01*
X11314048Y-11925619D02*
X11323571Y-11963714D01*
X11323571Y-11963714D02*
X11323571Y-12011333D01*
X11323571Y-12011333D02*
X11314048Y-12049428D01*
X11314048Y-12049428D02*
X11304524Y-12068476D01*
X11304524Y-12068476D02*
X11295000Y-12078000D01*
X11295000Y-12078000D02*
X11275952Y-12087524D01*
X11275952Y-12087524D02*
X11256905Y-12087524D01*
X11256905Y-12087524D02*
X11237857Y-12078000D01*
X11237857Y-12078000D02*
X11228333Y-12068476D01*
X11228333Y-12068476D02*
X11218809Y-12049428D01*
X11218809Y-12049428D02*
X11209286Y-12011333D01*
X11209286Y-12011333D02*
X11209286Y-11963714D01*
X11209286Y-11963714D02*
X11218809Y-11925619D01*
X11218809Y-11925619D02*
X11228333Y-11906571D01*
X11228333Y-11906571D02*
X11237857Y-11897048D01*
X11237857Y-11897048D02*
X11256905Y-11887524D01*
X11447381Y-11887524D02*
X11466429Y-11887524D01*
X11466429Y-11887524D02*
X11485476Y-11897048D01*
X11485476Y-11897048D02*
X11495000Y-11906571D01*
X11495000Y-11906571D02*
X11504524Y-11925619D01*
X11504524Y-11925619D02*
X11514048Y-11963714D01*
X11514048Y-11963714D02*
X11514048Y-12011333D01*
X11514048Y-12011333D02*
X11504524Y-12049428D01*
X11504524Y-12049428D02*
X11495000Y-12068476D01*
X11495000Y-12068476D02*
X11485476Y-12078000D01*
X11485476Y-12078000D02*
X11466429Y-12087524D01*
X11466429Y-12087524D02*
X11447381Y-12087524D01*
X11447381Y-12087524D02*
X11428333Y-12078000D01*
X11428333Y-12078000D02*
X11418809Y-12068476D01*
X11418809Y-12068476D02*
X11409286Y-12049428D01*
X11409286Y-12049428D02*
X11399762Y-12011333D01*
X11399762Y-12011333D02*
X11399762Y-11963714D01*
X11399762Y-11963714D02*
X11409286Y-11925619D01*
X11409286Y-11925619D02*
X11418809Y-11906571D01*
X11418809Y-11906571D02*
X11428333Y-11897048D01*
X11428333Y-11897048D02*
X11447381Y-11887524D01*
X11599762Y-12087524D02*
X11599762Y-11954190D01*
X11599762Y-11973238D02*
X11609286Y-11963714D01*
X11609286Y-11963714D02*
X11628333Y-11954190D01*
X11628333Y-11954190D02*
X11656905Y-11954190D01*
X11656905Y-11954190D02*
X11675952Y-11963714D01*
X11675952Y-11963714D02*
X11685476Y-11982762D01*
X11685476Y-11982762D02*
X11685476Y-12087524D01*
X11685476Y-11982762D02*
X11695000Y-11963714D01*
X11695000Y-11963714D02*
X11714048Y-11954190D01*
X11714048Y-11954190D02*
X11742619Y-11954190D01*
X11742619Y-11954190D02*
X11761667Y-11963714D01*
X11761667Y-11963714D02*
X11771190Y-11982762D01*
X11771190Y-11982762D02*
X11771190Y-12087524D01*
X11866429Y-12087524D02*
X11866429Y-11954190D01*
X11866429Y-11973238D02*
X11875952Y-11963714D01*
X11875952Y-11963714D02*
X11895000Y-11954190D01*
X11895000Y-11954190D02*
X11923571Y-11954190D01*
X11923571Y-11954190D02*
X11942619Y-11963714D01*
X11942619Y-11963714D02*
X11952143Y-11982762D01*
X11952143Y-11982762D02*
X11952143Y-12087524D01*
X11952143Y-11982762D02*
X11961667Y-11963714D01*
X11961667Y-11963714D02*
X11980714Y-11954190D01*
X11980714Y-11954190D02*
X12009286Y-11954190D01*
X12009286Y-11954190D02*
X12028333Y-11963714D01*
X12028333Y-11963714D02*
X12037857Y-11982762D01*
X12037857Y-11982762D02*
X12037857Y-12087524D01*
X12428333Y-11878000D02*
X12256905Y-12135143D01*
X12685476Y-11887524D02*
X12704524Y-11887524D01*
X12704524Y-11887524D02*
X12723572Y-11897048D01*
X12723572Y-11897048D02*
X12733095Y-11906571D01*
X12733095Y-11906571D02*
X12742619Y-11925619D01*
X12742619Y-11925619D02*
X12752143Y-11963714D01*
X12752143Y-11963714D02*
X12752143Y-12011333D01*
X12752143Y-12011333D02*
X12742619Y-12049428D01*
X12742619Y-12049428D02*
X12733095Y-12068476D01*
X12733095Y-12068476D02*
X12723572Y-12078000D01*
X12723572Y-12078000D02*
X12704524Y-12087524D01*
X12704524Y-12087524D02*
X12685476Y-12087524D01*
X12685476Y-12087524D02*
X12666429Y-12078000D01*
X12666429Y-12078000D02*
X12656905Y-12068476D01*
X12656905Y-12068476D02*
X12647381Y-12049428D01*
X12647381Y-12049428D02*
X12637857Y-12011333D01*
X12637857Y-12011333D02*
X12637857Y-11963714D01*
X12637857Y-11963714D02*
X12647381Y-11925619D01*
X12647381Y-11925619D02*
X12656905Y-11906571D01*
X12656905Y-11906571D02*
X12666429Y-11897048D01*
X12666429Y-11897048D02*
X12685476Y-11887524D01*
X12837857Y-12068476D02*
X12847381Y-12078000D01*
X12847381Y-12078000D02*
X12837857Y-12087524D01*
X12837857Y-12087524D02*
X12828333Y-12078000D01*
X12828333Y-12078000D02*
X12837857Y-12068476D01*
X12837857Y-12068476D02*
X12837857Y-12087524D01*
X13037857Y-12087524D02*
X12923572Y-12087524D01*
X12980714Y-12087524D02*
X12980714Y-11887524D01*
X12980714Y-11887524D02*
X12961667Y-11916095D01*
X12961667Y-11916095D02*
X12942619Y-11935143D01*
X12942619Y-11935143D02*
X12923572Y-11944667D01*
X13114048Y-11906571D02*
X13123572Y-11897048D01*
X13123572Y-11897048D02*
X13142619Y-11887524D01*
X13142619Y-11887524D02*
X13190238Y-11887524D01*
X13190238Y-11887524D02*
X13209286Y-11897048D01*
X13209286Y-11897048D02*
X13218810Y-11906571D01*
X13218810Y-11906571D02*
X13228333Y-11925619D01*
X13228333Y-11925619D02*
X13228333Y-11944667D01*
X13228333Y-11944667D02*
X13218810Y-11973238D01*
X13218810Y-11973238D02*
X13104524Y-12087524D01*
X13104524Y-12087524D02*
X13228333Y-12087524D01*
X13399762Y-11887524D02*
X13361667Y-11887524D01*
X13361667Y-11887524D02*
X13342619Y-11897048D01*
X13342619Y-11897048D02*
X13333095Y-11906571D01*
X13333095Y-11906571D02*
X13314048Y-11935143D01*
X13314048Y-11935143D02*
X13304524Y-11973238D01*
X13304524Y-11973238D02*
X13304524Y-12049428D01*
X13304524Y-12049428D02*
X13314048Y-12068476D01*
X13314048Y-12068476D02*
X13323572Y-12078000D01*
X13323572Y-12078000D02*
X13342619Y-12087524D01*
X13342619Y-12087524D02*
X13380714Y-12087524D01*
X13380714Y-12087524D02*
X13399762Y-12078000D01*
X13399762Y-12078000D02*
X13409286Y-12068476D01*
X13409286Y-12068476D02*
X13418810Y-12049428D01*
X13418810Y-12049428D02*
X13418810Y-12001809D01*
X13418810Y-12001809D02*
X13409286Y-11982762D01*
X13409286Y-11982762D02*
X13399762Y-11973238D01*
X13399762Y-11973238D02*
X13380714Y-11963714D01*
X13380714Y-11963714D02*
X13342619Y-11963714D01*
X13342619Y-11963714D02*
X13323572Y-11973238D01*
X13323572Y-11973238D02*
X13314048Y-11982762D01*
X13314048Y-11982762D02*
X13304524Y-12001809D01*
X13542619Y-11887524D02*
X13561667Y-11887524D01*
X13561667Y-11887524D02*
X13580714Y-11897048D01*
X13580714Y-11897048D02*
X13590238Y-11906571D01*
X13590238Y-11906571D02*
X13599762Y-11925619D01*
X13599762Y-11925619D02*
X13609286Y-11963714D01*
X13609286Y-11963714D02*
X13609286Y-12011333D01*
X13609286Y-12011333D02*
X13599762Y-12049428D01*
X13599762Y-12049428D02*
X13590238Y-12068476D01*
X13590238Y-12068476D02*
X13580714Y-12078000D01*
X13580714Y-12078000D02*
X13561667Y-12087524D01*
X13561667Y-12087524D02*
X13542619Y-12087524D01*
X13542619Y-12087524D02*
X13523572Y-12078000D01*
X13523572Y-12078000D02*
X13514048Y-12068476D01*
X13514048Y-12068476D02*
X13504524Y-12049428D01*
X13504524Y-12049428D02*
X13495000Y-12011333D01*
X13495000Y-12011333D02*
X13495000Y-11963714D01*
X13495000Y-11963714D02*
X13504524Y-11925619D01*
X13504524Y-11925619D02*
X13514048Y-11906571D01*
X13514048Y-11906571D02*
X13523572Y-11897048D01*
X13523572Y-11897048D02*
X13542619Y-11887524D01*
X13685476Y-11887524D02*
X13685476Y-11925619D01*
X13761667Y-11887524D02*
X13761667Y-11925619D01*
X14056905Y-12163714D02*
X14047381Y-12154190D01*
X14047381Y-12154190D02*
X14028334Y-12125619D01*
X14028334Y-12125619D02*
X14018810Y-12106571D01*
X14018810Y-12106571D02*
X14009286Y-12078000D01*
X14009286Y-12078000D02*
X13999762Y-12030381D01*
X13999762Y-12030381D02*
X13999762Y-11992286D01*
X13999762Y-11992286D02*
X14009286Y-11944667D01*
X14009286Y-11944667D02*
X14018810Y-11916095D01*
X14018810Y-11916095D02*
X14028334Y-11897048D01*
X14028334Y-11897048D02*
X14047381Y-11868476D01*
X14047381Y-11868476D02*
X14056905Y-11858952D01*
X14218810Y-11954190D02*
X14218810Y-12087524D01*
X14171191Y-11878000D02*
X14123572Y-12020857D01*
X14123572Y-12020857D02*
X14247381Y-12020857D01*
X14475953Y-12087524D02*
X14475953Y-11887524D01*
X14561667Y-12087524D02*
X14561667Y-11982762D01*
X14561667Y-11982762D02*
X14552143Y-11963714D01*
X14552143Y-11963714D02*
X14533096Y-11954190D01*
X14533096Y-11954190D02*
X14504524Y-11954190D01*
X14504524Y-11954190D02*
X14485476Y-11963714D01*
X14485476Y-11963714D02*
X14475953Y-11973238D01*
X14685476Y-12087524D02*
X14666429Y-12078000D01*
X14666429Y-12078000D02*
X14656905Y-12068476D01*
X14656905Y-12068476D02*
X14647381Y-12049428D01*
X14647381Y-12049428D02*
X14647381Y-11992286D01*
X14647381Y-11992286D02*
X14656905Y-11973238D01*
X14656905Y-11973238D02*
X14666429Y-11963714D01*
X14666429Y-11963714D02*
X14685476Y-11954190D01*
X14685476Y-11954190D02*
X14714048Y-11954190D01*
X14714048Y-11954190D02*
X14733096Y-11963714D01*
X14733096Y-11963714D02*
X14742619Y-11973238D01*
X14742619Y-11973238D02*
X14752143Y-11992286D01*
X14752143Y-11992286D02*
X14752143Y-12049428D01*
X14752143Y-12049428D02*
X14742619Y-12068476D01*
X14742619Y-12068476D02*
X14733096Y-12078000D01*
X14733096Y-12078000D02*
X14714048Y-12087524D01*
X14714048Y-12087524D02*
X14685476Y-12087524D01*
X14866429Y-12087524D02*
X14847381Y-12078000D01*
X14847381Y-12078000D02*
X14837857Y-12058952D01*
X14837857Y-12058952D02*
X14837857Y-11887524D01*
X15018810Y-12078000D02*
X14999762Y-12087524D01*
X14999762Y-12087524D02*
X14961667Y-12087524D01*
X14961667Y-12087524D02*
X14942619Y-12078000D01*
X14942619Y-12078000D02*
X14933096Y-12058952D01*
X14933096Y-12058952D02*
X14933096Y-11982762D01*
X14933096Y-11982762D02*
X14942619Y-11963714D01*
X14942619Y-11963714D02*
X14961667Y-11954190D01*
X14961667Y-11954190D02*
X14999762Y-11954190D01*
X14999762Y-11954190D02*
X15018810Y-11963714D01*
X15018810Y-11963714D02*
X15028334Y-11982762D01*
X15028334Y-11982762D02*
X15028334Y-12001809D01*
X15028334Y-12001809D02*
X14933096Y-12020857D01*
X15104524Y-12078000D02*
X15123572Y-12087524D01*
X15123572Y-12087524D02*
X15161667Y-12087524D01*
X15161667Y-12087524D02*
X15180715Y-12078000D01*
X15180715Y-12078000D02*
X15190238Y-12058952D01*
X15190238Y-12058952D02*
X15190238Y-12049428D01*
X15190238Y-12049428D02*
X15180715Y-12030381D01*
X15180715Y-12030381D02*
X15161667Y-12020857D01*
X15161667Y-12020857D02*
X15133096Y-12020857D01*
X15133096Y-12020857D02*
X15114048Y-12011333D01*
X15114048Y-12011333D02*
X15104524Y-11992286D01*
X15104524Y-11992286D02*
X15104524Y-11982762D01*
X15104524Y-11982762D02*
X15114048Y-11963714D01*
X15114048Y-11963714D02*
X15133096Y-11954190D01*
X15133096Y-11954190D02*
X15161667Y-11954190D01*
X15161667Y-11954190D02*
X15180715Y-11963714D01*
X15256905Y-12163714D02*
X15266429Y-12154190D01*
X15266429Y-12154190D02*
X15285477Y-12125619D01*
X15285477Y-12125619D02*
X15295000Y-12106571D01*
X15295000Y-12106571D02*
X15304524Y-12078000D01*
X15304524Y-12078000D02*
X15314048Y-12030381D01*
X15314048Y-12030381D02*
X15314048Y-11992286D01*
X15314048Y-11992286D02*
X15304524Y-11944667D01*
X15304524Y-11944667D02*
X15295000Y-11916095D01*
X15295000Y-11916095D02*
X15285477Y-11897048D01*
X15285477Y-11897048D02*
X15266429Y-11868476D01*
X15266429Y-11868476D02*
X15256905Y-11858952D01*
X15618810Y-12163714D02*
X15609286Y-12154190D01*
X15609286Y-12154190D02*
X15590238Y-12125619D01*
X15590238Y-12125619D02*
X15580715Y-12106571D01*
X15580715Y-12106571D02*
X15571191Y-12078000D01*
X15571191Y-12078000D02*
X15561667Y-12030381D01*
X15561667Y-12030381D02*
X15561667Y-11992286D01*
X15561667Y-11992286D02*
X15571191Y-11944667D01*
X15571191Y-11944667D02*
X15580715Y-11916095D01*
X15580715Y-11916095D02*
X15590238Y-11897048D01*
X15590238Y-11897048D02*
X15609286Y-11868476D01*
X15609286Y-11868476D02*
X15618810Y-11858952D01*
X15695000Y-11954190D02*
X15695000Y-12087524D01*
X15695000Y-11973238D02*
X15704524Y-11963714D01*
X15704524Y-11963714D02*
X15723572Y-11954190D01*
X15723572Y-11954190D02*
X15752143Y-11954190D01*
X15752143Y-11954190D02*
X15771191Y-11963714D01*
X15771191Y-11963714D02*
X15780715Y-11982762D01*
X15780715Y-11982762D02*
X15780715Y-12087524D01*
X15904524Y-12087524D02*
X15885477Y-12078000D01*
X15885477Y-12078000D02*
X15875953Y-12068476D01*
X15875953Y-12068476D02*
X15866429Y-12049428D01*
X15866429Y-12049428D02*
X15866429Y-11992286D01*
X15866429Y-11992286D02*
X15875953Y-11973238D01*
X15875953Y-11973238D02*
X15885477Y-11963714D01*
X15885477Y-11963714D02*
X15904524Y-11954190D01*
X15904524Y-11954190D02*
X15933096Y-11954190D01*
X15933096Y-11954190D02*
X15952143Y-11963714D01*
X15952143Y-11963714D02*
X15961667Y-11973238D01*
X15961667Y-11973238D02*
X15971191Y-11992286D01*
X15971191Y-11992286D02*
X15971191Y-12049428D01*
X15971191Y-12049428D02*
X15961667Y-12068476D01*
X15961667Y-12068476D02*
X15952143Y-12078000D01*
X15952143Y-12078000D02*
X15933096Y-12087524D01*
X15933096Y-12087524D02*
X15904524Y-12087524D01*
X16028334Y-11954190D02*
X16104524Y-11954190D01*
X16056905Y-11887524D02*
X16056905Y-12058952D01*
X16056905Y-12058952D02*
X16066429Y-12078000D01*
X16066429Y-12078000D02*
X16085477Y-12087524D01*
X16085477Y-12087524D02*
X16104524Y-12087524D01*
X16323572Y-11954190D02*
X16323572Y-12154190D01*
X16323572Y-11963714D02*
X16342619Y-11954190D01*
X16342619Y-11954190D02*
X16380715Y-11954190D01*
X16380715Y-11954190D02*
X16399762Y-11963714D01*
X16399762Y-11963714D02*
X16409286Y-11973238D01*
X16409286Y-11973238D02*
X16418810Y-11992286D01*
X16418810Y-11992286D02*
X16418810Y-12049428D01*
X16418810Y-12049428D02*
X16409286Y-12068476D01*
X16409286Y-12068476D02*
X16399762Y-12078000D01*
X16399762Y-12078000D02*
X16380715Y-12087524D01*
X16380715Y-12087524D02*
X16342619Y-12087524D01*
X16342619Y-12087524D02*
X16323572Y-12078000D01*
X16533096Y-12087524D02*
X16514048Y-12078000D01*
X16514048Y-12078000D02*
X16504524Y-12058952D01*
X16504524Y-12058952D02*
X16504524Y-11887524D01*
X16695000Y-12087524D02*
X16695000Y-11982762D01*
X16695000Y-11982762D02*
X16685477Y-11963714D01*
X16685477Y-11963714D02*
X16666429Y-11954190D01*
X16666429Y-11954190D02*
X16628334Y-11954190D01*
X16628334Y-11954190D02*
X16609286Y-11963714D01*
X16695000Y-12078000D02*
X16675953Y-12087524D01*
X16675953Y-12087524D02*
X16628334Y-12087524D01*
X16628334Y-12087524D02*
X16609286Y-12078000D01*
X16609286Y-12078000D02*
X16599762Y-12058952D01*
X16599762Y-12058952D02*
X16599762Y-12039905D01*
X16599762Y-12039905D02*
X16609286Y-12020857D01*
X16609286Y-12020857D02*
X16628334Y-12011333D01*
X16628334Y-12011333D02*
X16675953Y-12011333D01*
X16675953Y-12011333D02*
X16695000Y-12001809D01*
X16761667Y-11954190D02*
X16837858Y-11954190D01*
X16790239Y-11887524D02*
X16790239Y-12058952D01*
X16790239Y-12058952D02*
X16799762Y-12078000D01*
X16799762Y-12078000D02*
X16818810Y-12087524D01*
X16818810Y-12087524D02*
X16837858Y-12087524D01*
X16980715Y-12078000D02*
X16961667Y-12087524D01*
X16961667Y-12087524D02*
X16923572Y-12087524D01*
X16923572Y-12087524D02*
X16904524Y-12078000D01*
X16904524Y-12078000D02*
X16895001Y-12058952D01*
X16895001Y-12058952D02*
X16895001Y-11982762D01*
X16895001Y-11982762D02*
X16904524Y-11963714D01*
X16904524Y-11963714D02*
X16923572Y-11954190D01*
X16923572Y-11954190D02*
X16961667Y-11954190D01*
X16961667Y-11954190D02*
X16980715Y-11963714D01*
X16980715Y-11963714D02*
X16990239Y-11982762D01*
X16990239Y-11982762D02*
X16990239Y-12001809D01*
X16990239Y-12001809D02*
X16895001Y-12020857D01*
X17161667Y-12087524D02*
X17161667Y-11887524D01*
X17161667Y-12078000D02*
X17142620Y-12087524D01*
X17142620Y-12087524D02*
X17104524Y-12087524D01*
X17104524Y-12087524D02*
X17085477Y-12078000D01*
X17085477Y-12078000D02*
X17075953Y-12068476D01*
X17075953Y-12068476D02*
X17066429Y-12049428D01*
X17066429Y-12049428D02*
X17066429Y-11992286D01*
X17066429Y-11992286D02*
X17075953Y-11973238D01*
X17075953Y-11973238D02*
X17085477Y-11963714D01*
X17085477Y-11963714D02*
X17104524Y-11954190D01*
X17104524Y-11954190D02*
X17142620Y-11954190D01*
X17142620Y-11954190D02*
X17161667Y-11963714D01*
X17237858Y-12163714D02*
X17247382Y-12154190D01*
X17247382Y-12154190D02*
X17266429Y-12125619D01*
X17266429Y-12125619D02*
X17275953Y-12106571D01*
X17275953Y-12106571D02*
X17285477Y-12078000D01*
X17285477Y-12078000D02*
X17295001Y-12030381D01*
X17295001Y-12030381D02*
X17295001Y-11992286D01*
X17295001Y-11992286D02*
X17285477Y-11944667D01*
X17285477Y-11944667D02*
X17275953Y-11916095D01*
X17275953Y-11916095D02*
X17266429Y-11897048D01*
X17266429Y-11897048D02*
X17247382Y-11868476D01*
X17247382Y-11868476D02*
X17237858Y-11858952D01*
M02*
