%TF.GenerationSoftware,KiCad,Pcbnew,7.0.2*%
%TF.CreationDate,2024-02-07T15:16:17+01:00*%
%TF.ProjectId,Phase_Sensor_Array_Board,50686173-655f-4536-956e-736f725f4172,rev?*%
%TF.SameCoordinates,Original*%
%TF.FileFunction,Copper,L2,Bot*%
%TF.FilePolarity,Positive*%
%FSLAX46Y46*%
G04 Gerber Fmt 4.6, Leading zero omitted, Abs format (unit mm)*
G04 Created by KiCad (PCBNEW 7.0.2) date 2024-02-07 15:16:17*
%MOMM*%
%LPD*%
G01*
G04 APERTURE LIST*
G04 Aperture macros list*
%AMRoundRect*
0 Rectangle with rounded corners*
0 $1 Rounding radius*
0 $2 $3 $4 $5 $6 $7 $8 $9 X,Y pos of 4 corners*
0 Add a 4 corners polygon primitive as box body*
4,1,4,$2,$3,$4,$5,$6,$7,$8,$9,$2,$3,0*
0 Add four circle primitives for the rounded corners*
1,1,$1+$1,$2,$3*
1,1,$1+$1,$4,$5*
1,1,$1+$1,$6,$7*
1,1,$1+$1,$8,$9*
0 Add four rect primitives between the rounded corners*
20,1,$1+$1,$2,$3,$4,$5,0*
20,1,$1+$1,$4,$5,$6,$7,0*
20,1,$1+$1,$6,$7,$8,$9,0*
20,1,$1+$1,$8,$9,$2,$3,0*%
G04 Aperture macros list end*
%TA.AperFunction,ComponentPad*%
%ADD10O,1.950000X1.700000*%
%TD*%
%TA.AperFunction,ComponentPad*%
%ADD11RoundRect,0.250000X0.725000X-0.600000X0.725000X0.600000X-0.725000X0.600000X-0.725000X-0.600000X0*%
%TD*%
%TA.AperFunction,ComponentPad*%
%ADD12O,1.727200X1.727200*%
%TD*%
%TA.AperFunction,ComponentPad*%
%ADD13R,1.727200X1.727200*%
%TD*%
%TA.AperFunction,Conductor*%
%ADD14C,0.800000*%
%TD*%
G04 APERTURE END LIST*
D10*
%TO.P,J4,6,Pin_6*%
%TO.N,GND*%
X115000000Y-80500000D03*
%TO.P,J4,5,Pin_5*%
%TO.N,/analog_3*%
X115000000Y-83000000D03*
%TO.P,J4,4,Pin_4*%
%TO.N,/cal_3*%
X115000000Y-85500000D03*
%TO.P,J4,3,Pin_3*%
%TO.N,/out_B_3*%
X115000000Y-88000000D03*
%TO.P,J4,2,Pin_2*%
%TO.N,/out_A_3*%
X115000000Y-90500000D03*
D11*
%TO.P,J4,1,Pin_1*%
%TO.N,+5V*%
X115000000Y-93000000D03*
%TD*%
D10*
%TO.P,J3,6,Pin_6*%
%TO.N,GND*%
X126500000Y-80500000D03*
%TO.P,J3,5,Pin_5*%
%TO.N,/analog_2*%
X126500000Y-83000000D03*
%TO.P,J3,4,Pin_4*%
%TO.N,/cal_2*%
X126500000Y-85500000D03*
%TO.P,J3,3,Pin_3*%
%TO.N,/out_B_2*%
X126500000Y-88000000D03*
%TO.P,J3,2,Pin_2*%
%TO.N,/out_A_2*%
X126500000Y-90500000D03*
D11*
%TO.P,J3,1,Pin_1*%
%TO.N,+5V*%
X126500000Y-93000000D03*
%TD*%
D10*
%TO.P,J2,6,Pin_6*%
%TO.N,GND*%
X138000000Y-80500000D03*
%TO.P,J2,5,Pin_5*%
%TO.N,/analog_1*%
X138000000Y-83000000D03*
%TO.P,J2,4,Pin_4*%
%TO.N,/cal_1*%
X138000000Y-85500000D03*
%TO.P,J2,3,Pin_3*%
%TO.N,/out_B_1*%
X138000000Y-88000000D03*
%TO.P,J2,2,Pin_2*%
%TO.N,/out_A_1*%
X138000000Y-90500000D03*
D11*
%TO.P,J2,1,Pin_1*%
%TO.N,+5V*%
X138000000Y-93000000D03*
%TD*%
D10*
%TO.P,J1,6,Pin_6*%
%TO.N,GND*%
X149500000Y-80500000D03*
%TO.P,J1,5,Pin_5*%
%TO.N,/analog_0*%
X149500000Y-83000000D03*
%TO.P,J1,4,Pin_4*%
%TO.N,/cal_0*%
X149500000Y-85500000D03*
%TO.P,J1,3,Pin_3*%
%TO.N,/out_B_0*%
X149500000Y-88000000D03*
%TO.P,J1,2,Pin_2*%
%TO.N,/out_A_0*%
X149500000Y-90500000D03*
D11*
%TO.P,J1,1,Pin_1*%
%TO.N,+5V*%
X149500000Y-93000000D03*
%TD*%
D12*
%TO.P,A1,*%
%TO.N,*%
X121940000Y-111000000D03*
%TO.P,A1,3V3,3.3V*%
%TO.N,unconnected-(A1-3.3V-Pad3V3)*%
X129560000Y-111000000D03*
%TO.P,A1,5V1,5V*%
%TO.N,+5V*%
X132100000Y-111000000D03*
%TO.P,A1,5V2,SPI_5V*%
%TO.N,unconnected-(A1-SPI_5V-Pad5V2)*%
X160167000Y-83060000D03*
%TO.P,A1,A0,A0*%
%TO.N,/analog_0*%
X144800000Y-111000000D03*
%TO.P,A1,A1,A1*%
%TO.N,/analog_1*%
X147340000Y-111000000D03*
%TO.P,A1,A2,A2*%
%TO.N,/analog_2*%
X149880000Y-111000000D03*
%TO.P,A1,A3,A3*%
%TO.N,/analog_3*%
X152420000Y-111000000D03*
%TO.P,A1,A4,A4*%
%TO.N,unconnected-(A1-PadA4)*%
X154960000Y-111000000D03*
%TO.P,A1,A5,A5*%
%TO.N,unconnected-(A1-PadA5)*%
X157500000Y-111000000D03*
%TO.P,A1,AREF,AREF*%
%TO.N,unconnected-(A1-PadAREF)*%
X117876000Y-62740000D03*
%TO.P,A1,D0,D0/RX*%
%TO.N,unconnected-(A1-D0{slash}RX-PadD0)*%
X157500000Y-62740000D03*
%TO.P,A1,D1,D1/TX*%
%TO.N,unconnected-(A1-D1{slash}TX-PadD1)*%
X154960000Y-62740000D03*
%TO.P,A1,D2,D2_INT0*%
%TO.N,/cal_0*%
X152420000Y-62740000D03*
%TO.P,A1,D3,D3_INT1*%
%TO.N,/out_B_0*%
X149880000Y-62740000D03*
%TO.P,A1,D4,D4*%
%TO.N,/out_A_0*%
X147340000Y-62740000D03*
%TO.P,A1,D5,D5*%
%TO.N,/cal_1*%
X144800000Y-62740000D03*
%TO.P,A1,D6,D6*%
%TO.N,/out_B_1*%
X142260000Y-62740000D03*
%TO.P,A1,D7,D7*%
%TO.N,/out_A_1*%
X139720000Y-62740000D03*
%TO.P,A1,D8,D8*%
%TO.N,/cal_2*%
X135656000Y-62740000D03*
%TO.P,A1,D9,D9*%
%TO.N,/out_B_2*%
X133116000Y-62740000D03*
%TO.P,A1,D10,D10_CS*%
%TO.N,/out_A_2*%
X130576000Y-62740000D03*
%TO.P,A1,D11,D11*%
%TO.N,/cal_3*%
X128036000Y-62740000D03*
%TO.P,A1,D12,D12*%
%TO.N,/out_B_3*%
X125496000Y-62740000D03*
%TO.P,A1,D13,D13*%
%TO.N,/out_A_3*%
X122956000Y-62740000D03*
D13*
%TO.P,A1,GND1,GND*%
%TO.N,GND*%
X120416000Y-62740000D03*
%TO.P,A1,GND2,GND*%
X134640000Y-111000000D03*
%TO.P,A1,GND3,GND*%
X137180000Y-111000000D03*
%TO.P,A1,GND4,SPI_GND*%
%TO.N,unconnected-(A1-SPI_GND-PadGND4)*%
X160167000Y-88140000D03*
D12*
%TO.P,A1,IORF,IOREF*%
%TO.N,unconnected-(A1-IOREF-PadIORF)*%
X124480000Y-111000000D03*
%TO.P,A1,MISO,SPI_MISO*%
%TO.N,unconnected-(A1-SPI_MISO-PadMISO)*%
X157627000Y-83060000D03*
%TO.P,A1,MOSI,SPI_MOSI*%
%TO.N,unconnected-(A1-SPI_MOSI-PadMOSI)*%
X160167000Y-85600000D03*
%TO.P,A1,RST1,RESET*%
%TO.N,unconnected-(A1-RESET-PadRST1)*%
X127020000Y-111000000D03*
%TO.P,A1,RST2,SPI_RESET*%
%TO.N,unconnected-(A1-SPI_RESET-PadRST2)*%
X157627000Y-88140000D03*
%TO.P,A1,SCK,SPI_SCK*%
%TO.N,unconnected-(A1-SPI_SCK-PadSCK)*%
X157627000Y-85600000D03*
%TO.P,A1,SCL,SCL*%
%TO.N,unconnected-(A1-PadSCL)*%
X112796000Y-62740000D03*
%TO.P,A1,SDA,SDA*%
%TO.N,unconnected-(A1-PadSDA)*%
X115336000Y-62740000D03*
%TO.P,A1,VIN,VIN*%
%TO.N,unconnected-(A1-PadVIN)*%
X139720000Y-111000000D03*
%TD*%
D14*
%TO.N,GND*%
X147000000Y-73500000D02*
X149500000Y-76000000D01*
X121500000Y-73500000D02*
X147000000Y-73500000D01*
X120416000Y-72416000D02*
X121500000Y-73500000D01*
X149500000Y-76000000D02*
X149500000Y-80500000D01*
X120416000Y-62740000D02*
X120416000Y-72416000D01*
%TO.N,+5V*%
X138000000Y-93000000D02*
X149500000Y-93000000D01*
X126500000Y-93000000D02*
X138000000Y-93000000D01*
X115000000Y-93000000D02*
X126500000Y-93000000D01*
%TO.N,/analog_0*%
X148250000Y-83000000D02*
X149500000Y-83000000D01*
X147000000Y-81750000D02*
X148250000Y-83000000D01*
X147000000Y-76000000D02*
X147000000Y-81750000D01*
X146000000Y-75000000D02*
X147000000Y-76000000D01*
X111000000Y-75000000D02*
X146000000Y-75000000D01*
X111500000Y-101500000D02*
X108500000Y-98500000D01*
X108500000Y-98500000D02*
X108500000Y-77500000D01*
X144000000Y-101500000D02*
X111500000Y-101500000D01*
X144800000Y-102300000D02*
X144000000Y-101500000D01*
X144800000Y-111000000D02*
X144800000Y-102300000D01*
X108500000Y-77500000D02*
X111000000Y-75000000D01*
%TO.N,/analog_1*%
X136500000Y-83000000D02*
X138000000Y-83000000D01*
X135500000Y-82000000D02*
X136500000Y-83000000D01*
X135500000Y-77500000D02*
X135500000Y-82000000D01*
X134500000Y-76500000D02*
X135500000Y-77500000D01*
X110000000Y-78000000D02*
X111500000Y-76500000D01*
X110000000Y-97500000D02*
X110000000Y-78000000D01*
X112500000Y-100000000D02*
X110000000Y-97500000D01*
X145500000Y-100000000D02*
X112500000Y-100000000D01*
X111500000Y-76500000D02*
X134500000Y-76500000D01*
X147340000Y-101840000D02*
X145500000Y-100000000D01*
X147340000Y-111000000D02*
X147340000Y-101840000D01*
%TO.N,/analog_2*%
X124000000Y-82000000D02*
X125000000Y-83000000D01*
X125000000Y-83000000D02*
X126500000Y-83000000D01*
X124000000Y-79000000D02*
X124000000Y-82000000D01*
X123000000Y-78000000D02*
X124000000Y-79000000D01*
X112500000Y-78000000D02*
X123000000Y-78000000D01*
X111500000Y-96500000D02*
X111500000Y-79000000D01*
X147000000Y-98500000D02*
X113500000Y-98500000D01*
X149880000Y-101380000D02*
X147000000Y-98500000D01*
X113500000Y-98500000D02*
X111500000Y-96500000D01*
X149880000Y-111000000D02*
X149880000Y-101380000D01*
X111500000Y-79000000D02*
X112500000Y-78000000D01*
%TO.N,/analog_3*%
X114000000Y-83000000D02*
X115000000Y-83000000D01*
X113000000Y-96000000D02*
X113000000Y-84000000D01*
X114000000Y-97000000D02*
X113000000Y-96000000D01*
X152420000Y-101420000D02*
X148000000Y-97000000D01*
X148000000Y-97000000D02*
X114000000Y-97000000D01*
X113000000Y-84000000D02*
X114000000Y-83000000D01*
X152420000Y-111000000D02*
X152420000Y-101420000D01*
%TD*%
%TA.AperFunction,Conductor*%
%TO.N,GND*%
G36*
X160334233Y-60000501D02*
G01*
X160486937Y-60000501D01*
X160513027Y-60001354D01*
X160583742Y-60005989D01*
X160744438Y-60017483D01*
X160793773Y-60024128D01*
X160889438Y-60043157D01*
X161015296Y-60070536D01*
X161058354Y-60082497D01*
X161153899Y-60114930D01*
X161164912Y-60118853D01*
X161275762Y-60160198D01*
X161312783Y-60176182D01*
X161405502Y-60221906D01*
X161420249Y-60229564D01*
X161521703Y-60284962D01*
X161552143Y-60303391D01*
X161639178Y-60361546D01*
X161656537Y-60373830D01*
X161748218Y-60442461D01*
X161772153Y-60461867D01*
X161807331Y-60492718D01*
X161851203Y-60531193D01*
X161870258Y-60549039D01*
X161950959Y-60629740D01*
X161968805Y-60648795D01*
X162038120Y-60727833D01*
X162057542Y-60751787D01*
X162126159Y-60843448D01*
X162138463Y-60860836D01*
X162183969Y-60928940D01*
X162196601Y-60947846D01*
X162215036Y-60978295D01*
X162270434Y-61079749D01*
X162278092Y-61094496D01*
X162323816Y-61187215D01*
X162339806Y-61224249D01*
X162381110Y-61334990D01*
X162381111Y-61334991D01*
X162385089Y-61346160D01*
X162394460Y-61373764D01*
X162417467Y-61441542D01*
X162429522Y-61484980D01*
X162456845Y-61610579D01*
X162458084Y-61616803D01*
X162475929Y-61706520D01*
X162482510Y-61755481D01*
X162494016Y-61916352D01*
X162494935Y-61930369D01*
X162498647Y-61987011D01*
X162499499Y-62013051D01*
X162499499Y-77077100D01*
X162479971Y-77200398D01*
X162423297Y-77311626D01*
X162335025Y-77399898D01*
X162223797Y-77456572D01*
X162100499Y-77476100D01*
X161977201Y-77456572D01*
X161865973Y-77399898D01*
X161777701Y-77311626D01*
X161733281Y-77233151D01*
X161690130Y-77131609D01*
X161549019Y-76900391D01*
X161375747Y-76692182D01*
X161357912Y-76676202D01*
X161174002Y-76511418D01*
X161173999Y-76511416D01*
X161173997Y-76511414D01*
X160948094Y-76361958D01*
X160702818Y-76246977D01*
X160443434Y-76168940D01*
X160175439Y-76129500D01*
X159972369Y-76129500D01*
X159965117Y-76130030D01*
X159965110Y-76130031D01*
X159769838Y-76144323D01*
X159505449Y-76203218D01*
X159252440Y-76299986D01*
X159016224Y-76432557D01*
X158801823Y-76598112D01*
X158613812Y-76793120D01*
X158456202Y-77013418D01*
X158332344Y-77254325D01*
X158244881Y-77510696D01*
X158195681Y-77777064D01*
X158195680Y-77777067D01*
X158195681Y-77777067D01*
X158186795Y-78020225D01*
X158185788Y-78047768D01*
X158215414Y-78317018D01*
X158283926Y-78579086D01*
X158389869Y-78828390D01*
X158530980Y-79059608D01*
X158704252Y-79267817D01*
X158704253Y-79267818D01*
X158704255Y-79267820D01*
X158905998Y-79448582D01*
X158906000Y-79448583D01*
X158906002Y-79448585D01*
X159131905Y-79598041D01*
X159131910Y-79598044D01*
X159377176Y-79713020D01*
X159377178Y-79713020D01*
X159377181Y-79713022D01*
X159636565Y-79791059D01*
X159636566Y-79791059D01*
X159636569Y-79791060D01*
X159904561Y-79830500D01*
X160100345Y-79830500D01*
X160107631Y-79830500D01*
X160310156Y-79815677D01*
X160310160Y-79815676D01*
X160310161Y-79815676D01*
X160574550Y-79756781D01*
X160574553Y-79756780D01*
X160827558Y-79660014D01*
X161063777Y-79527441D01*
X161278177Y-79361888D01*
X161466186Y-79166881D01*
X161623799Y-78946579D01*
X161745652Y-78709572D01*
X161819395Y-78608849D01*
X161920655Y-78535842D01*
X162039520Y-78497699D01*
X162164354Y-78498155D01*
X162282937Y-78537164D01*
X162383662Y-78610908D01*
X162456669Y-78712168D01*
X162494812Y-78831033D01*
X162499499Y-78892012D01*
X162499499Y-81878757D01*
X162479971Y-82002055D01*
X162423297Y-82113283D01*
X162335025Y-82201555D01*
X162223797Y-82258229D01*
X162100499Y-82277757D01*
X161977201Y-82258229D01*
X161865973Y-82201555D01*
X161777701Y-82113283D01*
X161750305Y-82069977D01*
X161739187Y-82049617D01*
X161706433Y-82005863D01*
X161579392Y-81836156D01*
X161390844Y-81647608D01*
X161351442Y-81618112D01*
X161177380Y-81487810D01*
X160943358Y-81360025D01*
X160693519Y-81266840D01*
X160432960Y-81210158D01*
X160167000Y-81191137D01*
X159901039Y-81210158D01*
X159640480Y-81266840D01*
X159390641Y-81360025D01*
X159156617Y-81487811D01*
X159136110Y-81503163D01*
X159025702Y-81561419D01*
X158902695Y-81582705D01*
X158779131Y-81564939D01*
X158667105Y-81509858D01*
X158657890Y-81503163D01*
X158637382Y-81487811D01*
X158403358Y-81360025D01*
X158153519Y-81266840D01*
X157892960Y-81210158D01*
X157626999Y-81191137D01*
X157361039Y-81210158D01*
X157100480Y-81266840D01*
X156850641Y-81360025D01*
X156616619Y-81487810D01*
X156403159Y-81647605D01*
X156214605Y-81836159D01*
X156054810Y-82049619D01*
X155927025Y-82283641D01*
X155833840Y-82533480D01*
X155777158Y-82794039D01*
X155758137Y-83059999D01*
X155777158Y-83325960D01*
X155833840Y-83586519D01*
X155927025Y-83836358D01*
X156054811Y-84070382D01*
X156070163Y-84090890D01*
X156128419Y-84201298D01*
X156149705Y-84324305D01*
X156131939Y-84447869D01*
X156076858Y-84559895D01*
X156070163Y-84569110D01*
X156054811Y-84589617D01*
X155927025Y-84823641D01*
X155833840Y-85073480D01*
X155777158Y-85334039D01*
X155758137Y-85600000D01*
X155777158Y-85865960D01*
X155833840Y-86126519D01*
X155927025Y-86376358D01*
X156054811Y-86610382D01*
X156070163Y-86630890D01*
X156128419Y-86741298D01*
X156149705Y-86864305D01*
X156131939Y-86987869D01*
X156076858Y-87099895D01*
X156070163Y-87109110D01*
X156054811Y-87129617D01*
X155927025Y-87363641D01*
X155833840Y-87613480D01*
X155777158Y-87874039D01*
X155758137Y-88140000D01*
X155777158Y-88405960D01*
X155833840Y-88666519D01*
X155927025Y-88916358D01*
X156054810Y-89150380D01*
X156130171Y-89251050D01*
X156214608Y-89363844D01*
X156403156Y-89552392D01*
X156462536Y-89596843D01*
X156616619Y-89712189D01*
X156850641Y-89839974D01*
X156850642Y-89839974D01*
X156850647Y-89839977D01*
X157100481Y-89933160D01*
X157361033Y-89989840D01*
X157361035Y-89989840D01*
X157361039Y-89989841D01*
X157627000Y-90008862D01*
X157892960Y-89989841D01*
X157892963Y-89989840D01*
X157892967Y-89989840D01*
X158153519Y-89933160D01*
X158403353Y-89839977D01*
X158403356Y-89839974D01*
X158430090Y-89830004D01*
X158431521Y-89833842D01*
X158500163Y-89809335D01*
X158624946Y-89805744D01*
X158744731Y-89840889D01*
X158758625Y-89847807D01*
X158930347Y-89937508D01*
X158930354Y-89937510D01*
X159125982Y-89993486D01*
X159245363Y-90004100D01*
X161088636Y-90004099D01*
X161208018Y-89993486D01*
X161403649Y-89937509D01*
X161584007Y-89843298D01*
X161741709Y-89714709D01*
X161791266Y-89653931D01*
X161884318Y-89570714D01*
X161998531Y-89520324D01*
X162122725Y-89507695D01*
X162244744Y-89534061D01*
X162352643Y-89596843D01*
X162435860Y-89689894D01*
X162486250Y-89804107D01*
X162499499Y-89906075D01*
X162499499Y-105017100D01*
X162479971Y-105140398D01*
X162423297Y-105251626D01*
X162335025Y-105339898D01*
X162223797Y-105396572D01*
X162100499Y-105416100D01*
X161977201Y-105396572D01*
X161865973Y-105339898D01*
X161777701Y-105251626D01*
X161733281Y-105173151D01*
X161690130Y-105071609D01*
X161549019Y-104840391D01*
X161375747Y-104632182D01*
X161375745Y-104632180D01*
X161174002Y-104451418D01*
X161173999Y-104451416D01*
X161173997Y-104451414D01*
X160948094Y-104301958D01*
X160702818Y-104186977D01*
X160443434Y-104108940D01*
X160175439Y-104069500D01*
X159972369Y-104069500D01*
X159965117Y-104070030D01*
X159965110Y-104070031D01*
X159769838Y-104084323D01*
X159505449Y-104143218D01*
X159252440Y-104239986D01*
X159016224Y-104372557D01*
X158801823Y-104538112D01*
X158613812Y-104733120D01*
X158456202Y-104953418D01*
X158332344Y-105194325D01*
X158244881Y-105450696D01*
X158195681Y-105717064D01*
X158185788Y-105987768D01*
X158215414Y-106257018D01*
X158283926Y-106519086D01*
X158389869Y-106768390D01*
X158530980Y-106999608D01*
X158704252Y-107207817D01*
X158704253Y-107207818D01*
X158704255Y-107207820D01*
X158905998Y-107388582D01*
X158906000Y-107388583D01*
X158906002Y-107388585D01*
X159131905Y-107538041D01*
X159131910Y-107538044D01*
X159377176Y-107653020D01*
X159377178Y-107653020D01*
X159377181Y-107653022D01*
X159636565Y-107731059D01*
X159636566Y-107731059D01*
X159636569Y-107731060D01*
X159904561Y-107770500D01*
X160100345Y-107770500D01*
X160107631Y-107770500D01*
X160310156Y-107755677D01*
X160310160Y-107755676D01*
X160310161Y-107755676D01*
X160574550Y-107696781D01*
X160574553Y-107696780D01*
X160827558Y-107600014D01*
X161063777Y-107467441D01*
X161278177Y-107301888D01*
X161466186Y-107106881D01*
X161623799Y-106886579D01*
X161745652Y-106649572D01*
X161819395Y-106548849D01*
X161920655Y-106475842D01*
X162039520Y-106437699D01*
X162164354Y-106438155D01*
X162282937Y-106477164D01*
X162383662Y-106550908D01*
X162456669Y-106652168D01*
X162494812Y-106771033D01*
X162499499Y-106832012D01*
X162499499Y-111486929D01*
X162498645Y-111513027D01*
X162494016Y-111583647D01*
X162482518Y-111744414D01*
X162475870Y-111793773D01*
X162456846Y-111889417D01*
X162456846Y-111889418D01*
X162429470Y-112015260D01*
X162417495Y-112058374D01*
X162385094Y-112153824D01*
X162381111Y-112165007D01*
X162339806Y-112275748D01*
X162323816Y-112312783D01*
X162278092Y-112405502D01*
X162270434Y-112420249D01*
X162215036Y-112521703D01*
X162196601Y-112552152D01*
X162138487Y-112639128D01*
X162126144Y-112656571D01*
X162057552Y-112748199D01*
X162038118Y-112772168D01*
X161968805Y-112851203D01*
X161950959Y-112870258D01*
X161870258Y-112950959D01*
X161851203Y-112968805D01*
X161772168Y-113038118D01*
X161748199Y-113057552D01*
X161656571Y-113126144D01*
X161639128Y-113138487D01*
X161552152Y-113196601D01*
X161521703Y-113215036D01*
X161420249Y-113270434D01*
X161405502Y-113278092D01*
X161312783Y-113323816D01*
X161275748Y-113339806D01*
X161165007Y-113381111D01*
X161153822Y-113385095D01*
X161058456Y-113417467D01*
X161015019Y-113429522D01*
X160889421Y-113456845D01*
X160883374Y-113458048D01*
X160793470Y-113475931D01*
X160744517Y-113482510D01*
X160583647Y-113494016D01*
X160557729Y-113495715D01*
X160512987Y-113498647D01*
X160486949Y-113499499D01*
X158344260Y-113499499D01*
X158220962Y-113479971D01*
X158109734Y-113423297D01*
X158021462Y-113335025D01*
X157964788Y-113223797D01*
X157945260Y-113100499D01*
X157964788Y-112977201D01*
X158021462Y-112865973D01*
X158109734Y-112777701D01*
X158204821Y-112726656D01*
X158276353Y-112699977D01*
X158426408Y-112618041D01*
X158510380Y-112572189D01*
X158522766Y-112562917D01*
X158723844Y-112412392D01*
X158912392Y-112223844D01*
X159072187Y-112010383D01*
X159199977Y-111776353D01*
X159293160Y-111526519D01*
X159349840Y-111265967D01*
X159354349Y-111202933D01*
X159368862Y-111000000D01*
X159349841Y-110734039D01*
X159349840Y-110734033D01*
X159293160Y-110473481D01*
X159199977Y-110223647D01*
X159160642Y-110151610D01*
X159072189Y-109989619D01*
X158912394Y-109776159D01*
X158912392Y-109776156D01*
X158723844Y-109587608D01*
X158637144Y-109522705D01*
X158510380Y-109427810D01*
X158276358Y-109300025D01*
X158026519Y-109206840D01*
X157765960Y-109150158D01*
X157500000Y-109131137D01*
X157234039Y-109150158D01*
X156973480Y-109206840D01*
X156723641Y-109300025D01*
X156489617Y-109427811D01*
X156469110Y-109443163D01*
X156358702Y-109501419D01*
X156235695Y-109522705D01*
X156112131Y-109504939D01*
X156000105Y-109449858D01*
X155990890Y-109443163D01*
X155970382Y-109427811D01*
X155736358Y-109300025D01*
X155486519Y-109206840D01*
X155225960Y-109150158D01*
X154960000Y-109131137D01*
X154694039Y-109150158D01*
X154433474Y-109206841D01*
X154358935Y-109234643D01*
X154236587Y-109259434D01*
X154112566Y-109245204D01*
X153999013Y-109193345D01*
X153907042Y-109108935D01*
X153845657Y-109000235D01*
X153820866Y-108877887D01*
X153820500Y-108860800D01*
X153820500Y-101477313D01*
X153821309Y-101451922D01*
X153825247Y-101390166D01*
X153814640Y-101290616D01*
X153813837Y-101282234D01*
X153805346Y-101182459D01*
X153805344Y-101182454D01*
X153804371Y-101171012D01*
X153803119Y-101164150D01*
X153772722Y-101056805D01*
X153770500Y-101048631D01*
X153745275Y-100951751D01*
X153745272Y-100951745D01*
X153742383Y-100940648D01*
X153739981Y-100934070D01*
X153691855Y-100833355D01*
X153688285Y-100825677D01*
X153647077Y-100734514D01*
X153647074Y-100734510D01*
X153642337Y-100724030D01*
X153638886Y-100718004D01*
X153574431Y-100626870D01*
X153569615Y-100619905D01*
X153513579Y-100536997D01*
X153513576Y-100536994D01*
X153507154Y-100527492D01*
X153502701Y-100522095D01*
X153423805Y-100443198D01*
X153417881Y-100437147D01*
X153340688Y-100356605D01*
X153315593Y-100334987D01*
X149030821Y-96050215D01*
X149013453Y-96031704D01*
X148972564Y-95985245D01*
X148894722Y-95922391D01*
X148888196Y-95917006D01*
X148802859Y-95845058D01*
X148797082Y-95841064D01*
X148699716Y-95786672D01*
X148692364Y-95782462D01*
X148596112Y-95725978D01*
X148589782Y-95723035D01*
X148518324Y-95697787D01*
X148484526Y-95685845D01*
X148476607Y-95682953D01*
X148372243Y-95643568D01*
X148365454Y-95641723D01*
X148255487Y-95622867D01*
X148247160Y-95621348D01*
X148137657Y-95600170D01*
X148130659Y-95599500D01*
X148119200Y-95599500D01*
X148019119Y-95599500D01*
X148010650Y-95599410D01*
X147899088Y-95597041D01*
X147866058Y-95599500D01*
X139124081Y-95599500D01*
X139000783Y-95579972D01*
X138889555Y-95523298D01*
X138801283Y-95435026D01*
X138744609Y-95323798D01*
X138725081Y-95200500D01*
X138744609Y-95077202D01*
X138801283Y-94965974D01*
X138889555Y-94877702D01*
X139000783Y-94821028D01*
X139026588Y-94813594D01*
X139139683Y-94785096D01*
X139344625Y-94692008D01*
X139378202Y-94668745D01*
X139529654Y-94563819D01*
X139576111Y-94517361D01*
X139677102Y-94443988D01*
X139795827Y-94405412D01*
X139858244Y-94400500D01*
X147641756Y-94400500D01*
X147765054Y-94420028D01*
X147876282Y-94476702D01*
X147923885Y-94517358D01*
X147970346Y-94563819D01*
X148046071Y-94616282D01*
X148155374Y-94692008D01*
X148360317Y-94785095D01*
X148360317Y-94785096D01*
X148578588Y-94840096D01*
X148710783Y-94850500D01*
X150289216Y-94850499D01*
X150421412Y-94840096D01*
X150639683Y-94785096D01*
X150639682Y-94785095D01*
X150844625Y-94692008D01*
X150878202Y-94668745D01*
X151029654Y-94563819D01*
X151188819Y-94404654D01*
X151317007Y-94219626D01*
X151317008Y-94219625D01*
X151410096Y-94014682D01*
X151465096Y-93796412D01*
X151475500Y-93664217D01*
X151475499Y-92335784D01*
X151465096Y-92203588D01*
X151410096Y-91985317D01*
X151410096Y-91985316D01*
X151317009Y-91780377D01*
X151317007Y-91780374D01*
X151298609Y-91753818D01*
X151244447Y-91641350D01*
X151227688Y-91517645D01*
X151249977Y-91394816D01*
X151271733Y-91344169D01*
X151332656Y-91225675D01*
X151420118Y-90969305D01*
X151469319Y-90702933D01*
X151479212Y-90432235D01*
X151449586Y-90162982D01*
X151390640Y-89937509D01*
X151381073Y-89900913D01*
X151275131Y-89651611D01*
X151156497Y-89457222D01*
X151108936Y-89341803D01*
X151099369Y-89217335D01*
X151128733Y-89096003D01*
X151172578Y-89017206D01*
X151208799Y-88966579D01*
X151332656Y-88725675D01*
X151420118Y-88469305D01*
X151469319Y-88202933D01*
X151479212Y-87932235D01*
X151449586Y-87662982D01*
X151415002Y-87530695D01*
X151381073Y-87400913D01*
X151275131Y-87151611D01*
X151156497Y-86957222D01*
X151108936Y-86841803D01*
X151099369Y-86717335D01*
X151128733Y-86596003D01*
X151172578Y-86517206D01*
X151208799Y-86466579D01*
X151332656Y-86225675D01*
X151420118Y-85969305D01*
X151469319Y-85702933D01*
X151479212Y-85432235D01*
X151449586Y-85162982D01*
X151415001Y-85030693D01*
X151381073Y-84900913D01*
X151275131Y-84651611D01*
X151156497Y-84457222D01*
X151108936Y-84341803D01*
X151099369Y-84217335D01*
X151128733Y-84096003D01*
X151172578Y-84017206D01*
X151208799Y-83966579D01*
X151332656Y-83725675D01*
X151420118Y-83469305D01*
X151469319Y-83202933D01*
X151479212Y-82932235D01*
X151449586Y-82662982D01*
X151401576Y-82479340D01*
X151381073Y-82400913D01*
X151275130Y-82151609D01*
X151134019Y-81920391D01*
X151103382Y-81883577D01*
X151061109Y-81832780D01*
X150997250Y-81725518D01*
X150969661Y-81603770D01*
X150981046Y-81479455D01*
X151027597Y-81369072D01*
X151099706Y-81251401D01*
X151199095Y-81011456D01*
X151225854Y-80900000D01*
X149763721Y-80900000D01*
X149862673Y-80814258D01*
X149936519Y-80699351D01*
X149975000Y-80568295D01*
X149975000Y-80431705D01*
X149936519Y-80300649D01*
X149862673Y-80185742D01*
X149759445Y-80096295D01*
X149635199Y-80039554D01*
X149533975Y-80025000D01*
X149466025Y-80025000D01*
X149364801Y-80039554D01*
X149240555Y-80096295D01*
X149137327Y-80185742D01*
X149100000Y-80243824D01*
X149100000Y-78869136D01*
X149900000Y-78869136D01*
X149900000Y-80099998D01*
X149900001Y-80100000D01*
X151225853Y-80100000D01*
X151199095Y-79988543D01*
X151099706Y-79748598D01*
X150964004Y-79527151D01*
X150795334Y-79329665D01*
X150597848Y-79160995D01*
X150376401Y-79025293D01*
X150136456Y-78925904D01*
X149900000Y-78869136D01*
X149100000Y-78869136D01*
X148892645Y-78918918D01*
X148768195Y-78928712D01*
X148646809Y-78899570D01*
X148540370Y-78834344D01*
X148459297Y-78739419D01*
X148411524Y-78624087D01*
X148400500Y-78530942D01*
X148400500Y-76057313D01*
X148401309Y-76031922D01*
X148405247Y-75970167D01*
X148394645Y-75870650D01*
X148393838Y-75862222D01*
X148384372Y-75751011D01*
X148383122Y-75744161D01*
X148352722Y-75636805D01*
X148350500Y-75628631D01*
X148325275Y-75531751D01*
X148325272Y-75531745D01*
X148322383Y-75520648D01*
X148319982Y-75514075D01*
X148315038Y-75503730D01*
X148315038Y-75503727D01*
X148271855Y-75413358D01*
X148268308Y-75405726D01*
X148227077Y-75314514D01*
X148227075Y-75314511D01*
X148222350Y-75304058D01*
X148218874Y-75297988D01*
X148212252Y-75288625D01*
X148212251Y-75288623D01*
X148154398Y-75206825D01*
X148149670Y-75199988D01*
X148093579Y-75116997D01*
X148093577Y-75116995D01*
X148087151Y-75107487D01*
X148082708Y-75102102D01*
X148003805Y-75023199D01*
X147997880Y-75017146D01*
X147920688Y-74936605D01*
X147895593Y-74914987D01*
X147030821Y-74050215D01*
X147013453Y-74031704D01*
X146972564Y-73985245D01*
X146941927Y-73960507D01*
X146894722Y-73922391D01*
X146888196Y-73917006D01*
X146802859Y-73845058D01*
X146797082Y-73841064D01*
X146699716Y-73786672D01*
X146692364Y-73782462D01*
X146596112Y-73725978D01*
X146589782Y-73723035D01*
X146518324Y-73697787D01*
X146484526Y-73685845D01*
X146476607Y-73682953D01*
X146468869Y-73680033D01*
X146454804Y-73674725D01*
X146372243Y-73643568D01*
X146365454Y-73641723D01*
X146255487Y-73622867D01*
X146247160Y-73621348D01*
X146137657Y-73600170D01*
X146130659Y-73599500D01*
X146119200Y-73599500D01*
X146019119Y-73599500D01*
X146010650Y-73599410D01*
X145899088Y-73597041D01*
X145866058Y-73599500D01*
X111057315Y-73599500D01*
X111031924Y-73598691D01*
X110970165Y-73594752D01*
X110870627Y-73605356D01*
X110862205Y-73606163D01*
X110751055Y-73615624D01*
X110744129Y-73616887D01*
X110636793Y-73647280D01*
X110628634Y-73649497D01*
X110520681Y-73677607D01*
X110514039Y-73680033D01*
X110413402Y-73728122D01*
X110405730Y-73731689D01*
X110304066Y-73777645D01*
X110297977Y-73781131D01*
X110206871Y-73845567D01*
X110199913Y-73850378D01*
X110107517Y-73912828D01*
X110102080Y-73917314D01*
X110023193Y-73996199D01*
X110017149Y-74002115D01*
X109936612Y-74079304D01*
X109914993Y-74104399D01*
X107550212Y-76469180D01*
X107531688Y-76486560D01*
X107485242Y-76527437D01*
X107422359Y-76605315D01*
X107416978Y-76611837D01*
X107345066Y-76697131D01*
X107341060Y-76702925D01*
X107286655Y-76800312D01*
X107282450Y-76807655D01*
X107225986Y-76903874D01*
X107223030Y-76910234D01*
X107185860Y-77015432D01*
X107182958Y-77023376D01*
X107143570Y-77127753D01*
X107141721Y-77134554D01*
X107122865Y-77244521D01*
X107121347Y-77252845D01*
X107100170Y-77362346D01*
X107099500Y-77369342D01*
X107099500Y-77480881D01*
X107099410Y-77489350D01*
X107097041Y-77600913D01*
X107099500Y-77633944D01*
X107099500Y-98442685D01*
X107098691Y-98468076D01*
X107094753Y-98529832D01*
X107105359Y-98629391D01*
X107106157Y-98637722D01*
X107114654Y-98737541D01*
X107115627Y-98748972D01*
X107116884Y-98755863D01*
X107147282Y-98863212D01*
X107149501Y-98871378D01*
X107177612Y-98979340D01*
X107180021Y-98985934D01*
X107228129Y-99086610D01*
X107231698Y-99094288D01*
X107277653Y-99195950D01*
X107281122Y-99202008D01*
X107345581Y-99293148D01*
X107350396Y-99300112D01*
X107412840Y-99392502D01*
X107417300Y-99397906D01*
X107496193Y-99476800D01*
X107502116Y-99482850D01*
X107579312Y-99563395D01*
X107604406Y-99585012D01*
X110469170Y-102449776D01*
X110486551Y-102468302D01*
X110527432Y-102514752D01*
X110605308Y-102577632D01*
X110611841Y-102583023D01*
X110697169Y-102654965D01*
X110702883Y-102658916D01*
X110800304Y-102713340D01*
X110807649Y-102717546D01*
X110903909Y-102774033D01*
X110910202Y-102776958D01*
X110921043Y-102780788D01*
X110921046Y-102780790D01*
X111015492Y-102814159D01*
X111023363Y-102817035D01*
X111117038Y-102852386D01*
X111117041Y-102852386D01*
X111127769Y-102856435D01*
X111134536Y-102858274D01*
X111145825Y-102860209D01*
X111145829Y-102860211D01*
X111197337Y-102869042D01*
X111244522Y-102877133D01*
X111252860Y-102878654D01*
X111362381Y-102899837D01*
X111369301Y-102900500D01*
X111380800Y-102900500D01*
X111480853Y-102900500D01*
X111489323Y-102900589D01*
X111589447Y-102902716D01*
X111589448Y-102902715D01*
X111600906Y-102902959D01*
X111633950Y-102900500D01*
X143000500Y-102900500D01*
X143123798Y-102920028D01*
X143235026Y-102976702D01*
X143323298Y-103064974D01*
X143379972Y-103176202D01*
X143399500Y-103299500D01*
X143399500Y-109627469D01*
X143379972Y-109750767D01*
X143323298Y-109861995D01*
X143319916Y-109866581D01*
X143227809Y-109989620D01*
X143100025Y-110223641D01*
X143006840Y-110473480D01*
X142950158Y-110734039D01*
X142931137Y-111000000D01*
X142950158Y-111265960D01*
X142994393Y-111469303D01*
X143006840Y-111526519D01*
X143094291Y-111760986D01*
X143100025Y-111776358D01*
X143227810Y-112010380D01*
X143343492Y-112164912D01*
X143387608Y-112223844D01*
X143576156Y-112412392D01*
X143576159Y-112412394D01*
X143789619Y-112572189D01*
X144023641Y-112699974D01*
X144023642Y-112699974D01*
X144023647Y-112699977D01*
X144095178Y-112726656D01*
X144203876Y-112788042D01*
X144288286Y-112880013D01*
X144340144Y-112993567D01*
X144354374Y-113117588D01*
X144329583Y-113239936D01*
X144268197Y-113348635D01*
X144176226Y-113433045D01*
X144062672Y-113484903D01*
X143955740Y-113499499D01*
X140564260Y-113499499D01*
X140440962Y-113479971D01*
X140329734Y-113423297D01*
X140241462Y-113335025D01*
X140184788Y-113223797D01*
X140165260Y-113100499D01*
X140184788Y-112977201D01*
X140241462Y-112865973D01*
X140329734Y-112777701D01*
X140424821Y-112726656D01*
X140496353Y-112699977D01*
X140646408Y-112618041D01*
X140730380Y-112572189D01*
X140742766Y-112562917D01*
X140943844Y-112412392D01*
X141132392Y-112223844D01*
X141292187Y-112010383D01*
X141419977Y-111776353D01*
X141513160Y-111526519D01*
X141569840Y-111265967D01*
X141574349Y-111202933D01*
X141588862Y-111000000D01*
X141569841Y-110734039D01*
X141569840Y-110734033D01*
X141513160Y-110473481D01*
X141419977Y-110223647D01*
X141380642Y-110151610D01*
X141292189Y-109989619D01*
X141132394Y-109776159D01*
X141132392Y-109776156D01*
X140943844Y-109587608D01*
X140857144Y-109522705D01*
X140730380Y-109427810D01*
X140496358Y-109300025D01*
X140246519Y-109206840D01*
X139985960Y-109150158D01*
X139720000Y-109131137D01*
X139454039Y-109150158D01*
X139193480Y-109206840D01*
X138943646Y-109300023D01*
X138759795Y-109400413D01*
X138642219Y-109442363D01*
X138517436Y-109445927D01*
X138436634Y-109422200D01*
X138435336Y-109425912D01*
X138222741Y-109351522D01*
X138099649Y-109337653D01*
X138077335Y-109336400D01*
X137580001Y-109336400D01*
X137580000Y-109336401D01*
X137580000Y-110682786D01*
X137567869Y-110663910D01*
X137457470Y-110568248D01*
X137324592Y-110507565D01*
X137216334Y-110492000D01*
X137143666Y-110492000D01*
X137035408Y-110507565D01*
X136902530Y-110568248D01*
X136792131Y-110663910D01*
X136713155Y-110786799D01*
X136672000Y-110926961D01*
X136672000Y-111073039D01*
X136713155Y-111213201D01*
X136792131Y-111336090D01*
X136902530Y-111431752D01*
X137035408Y-111492435D01*
X137143666Y-111508000D01*
X137216334Y-111508000D01*
X137324592Y-111492435D01*
X137457470Y-111431752D01*
X137567869Y-111336090D01*
X137580000Y-111317213D01*
X137580000Y-112663599D01*
X137580001Y-112663600D01*
X138077335Y-112663600D01*
X138099649Y-112662346D01*
X138222741Y-112648477D01*
X138435336Y-112574088D01*
X138436570Y-112577614D01*
X138470916Y-112562917D01*
X138595244Y-112551673D01*
X138716960Y-112579399D01*
X138759794Y-112599586D01*
X138793592Y-112618041D01*
X138943647Y-112699977D01*
X139015178Y-112726656D01*
X139123876Y-112788042D01*
X139208286Y-112880013D01*
X139260144Y-112993567D01*
X139274374Y-113117588D01*
X139249583Y-113239936D01*
X139188197Y-113348635D01*
X139096226Y-113433045D01*
X138982672Y-113484903D01*
X138875740Y-113499499D01*
X132944260Y-113499499D01*
X132820962Y-113479971D01*
X132709734Y-113423297D01*
X132621462Y-113335025D01*
X132564788Y-113223797D01*
X132545260Y-113100499D01*
X132564788Y-112977201D01*
X132621462Y-112865973D01*
X132709734Y-112777701D01*
X132804821Y-112726656D01*
X132876353Y-112699977D01*
X133060208Y-112599584D01*
X133177776Y-112557636D01*
X133302560Y-112554070D01*
X133383366Y-112577796D01*
X133384664Y-112574088D01*
X133597258Y-112648477D01*
X133720350Y-112662346D01*
X133742665Y-112663600D01*
X134239999Y-112663600D01*
X134240000Y-112663598D01*
X134240000Y-111317213D01*
X134252131Y-111336090D01*
X134362530Y-111431752D01*
X134495408Y-111492435D01*
X134603666Y-111508000D01*
X134676334Y-111508000D01*
X134784592Y-111492435D01*
X134917470Y-111431752D01*
X134954113Y-111400000D01*
X135040000Y-111400000D01*
X135040000Y-112663598D01*
X135040001Y-112663600D01*
X135537335Y-112663600D01*
X135559649Y-112662346D01*
X135682741Y-112648477D01*
X135778217Y-112615069D01*
X135901046Y-112592778D01*
X136024751Y-112609535D01*
X136041783Y-112615069D01*
X136137258Y-112648477D01*
X136260350Y-112662346D01*
X136282665Y-112663600D01*
X136779999Y-112663600D01*
X136780000Y-112663599D01*
X136780000Y-111400000D01*
X135040000Y-111400000D01*
X134954113Y-111400000D01*
X135027869Y-111336090D01*
X135106845Y-111213201D01*
X135148000Y-111073039D01*
X135148000Y-110926961D01*
X135106845Y-110786799D01*
X135027869Y-110663910D01*
X134954111Y-110599998D01*
X135040000Y-110599998D01*
X135040001Y-110600000D01*
X136779999Y-110600000D01*
X136780000Y-110599999D01*
X136780000Y-109336400D01*
X136282665Y-109336400D01*
X136260350Y-109337653D01*
X136137256Y-109351522D01*
X136041780Y-109384931D01*
X135918952Y-109407221D01*
X135795247Y-109390463D01*
X135778220Y-109384931D01*
X135682743Y-109351522D01*
X135559649Y-109337653D01*
X135537335Y-109336400D01*
X135040001Y-109336400D01*
X135040000Y-109336401D01*
X135040000Y-110599998D01*
X134954111Y-110599998D01*
X134917470Y-110568248D01*
X134784592Y-110507565D01*
X134676334Y-110492000D01*
X134603666Y-110492000D01*
X134495408Y-110507565D01*
X134362530Y-110568248D01*
X134252131Y-110663910D01*
X134240000Y-110682786D01*
X134240000Y-109336401D01*
X134239999Y-109336400D01*
X133742665Y-109336400D01*
X133720350Y-109337653D01*
X133597258Y-109351522D01*
X133384664Y-109425912D01*
X133383420Y-109422357D01*
X133348653Y-109437190D01*
X133224313Y-109448296D01*
X133102627Y-109420435D01*
X133060204Y-109400413D01*
X132876353Y-109300023D01*
X132626519Y-109206840D01*
X132365960Y-109150158D01*
X132099999Y-109131137D01*
X131834039Y-109150158D01*
X131573480Y-109206840D01*
X131323641Y-109300025D01*
X131089617Y-109427811D01*
X131069110Y-109443163D01*
X130958702Y-109501419D01*
X130835695Y-109522705D01*
X130712131Y-109504939D01*
X130600105Y-109449858D01*
X130590890Y-109443163D01*
X130570382Y-109427811D01*
X130336358Y-109300025D01*
X130086519Y-109206840D01*
X129825960Y-109150158D01*
X129560000Y-109131137D01*
X129294039Y-109150158D01*
X129033480Y-109206840D01*
X128783641Y-109300025D01*
X128549617Y-109427811D01*
X128529110Y-109443163D01*
X128418702Y-109501419D01*
X128295695Y-109522705D01*
X128172131Y-109504939D01*
X128060105Y-109449858D01*
X128050890Y-109443163D01*
X128030382Y-109427811D01*
X127796358Y-109300025D01*
X127546519Y-109206840D01*
X127285960Y-109150158D01*
X127020000Y-109131137D01*
X126754039Y-109150158D01*
X126493480Y-109206840D01*
X126243641Y-109300025D01*
X126009617Y-109427811D01*
X125989110Y-109443163D01*
X125878702Y-109501419D01*
X125755695Y-109522705D01*
X125632131Y-109504939D01*
X125520105Y-109449858D01*
X125510890Y-109443163D01*
X125490382Y-109427811D01*
X125256358Y-109300025D01*
X125006519Y-109206840D01*
X124745960Y-109150158D01*
X124480000Y-109131137D01*
X124214039Y-109150158D01*
X123953480Y-109206840D01*
X123703641Y-109300025D01*
X123469617Y-109427811D01*
X123449110Y-109443163D01*
X123338702Y-109501419D01*
X123215695Y-109522705D01*
X123092131Y-109504939D01*
X122980105Y-109449858D01*
X122970890Y-109443163D01*
X122950382Y-109427811D01*
X122716358Y-109300025D01*
X122466519Y-109206840D01*
X122205960Y-109150158D01*
X121939999Y-109131137D01*
X121674039Y-109150158D01*
X121413480Y-109206840D01*
X121163641Y-109300025D01*
X120929619Y-109427810D01*
X120716159Y-109587605D01*
X120527605Y-109776159D01*
X120367810Y-109989619D01*
X120240025Y-110223641D01*
X120146840Y-110473480D01*
X120090158Y-110734039D01*
X120071137Y-111000000D01*
X120090158Y-111265960D01*
X120134393Y-111469303D01*
X120146840Y-111526519D01*
X120234291Y-111760986D01*
X120240025Y-111776358D01*
X120367810Y-112010380D01*
X120483492Y-112164912D01*
X120527608Y-112223844D01*
X120716156Y-112412392D01*
X120716159Y-112412394D01*
X120929619Y-112572189D01*
X121163641Y-112699974D01*
X121163642Y-112699974D01*
X121163647Y-112699977D01*
X121235178Y-112726656D01*
X121343876Y-112788042D01*
X121428286Y-112880013D01*
X121480144Y-112993567D01*
X121494374Y-113117588D01*
X121469583Y-113239936D01*
X121408197Y-113348635D01*
X121316226Y-113433045D01*
X121202672Y-113484903D01*
X121095740Y-113499499D01*
X108775082Y-113499499D01*
X108651784Y-113479971D01*
X108540556Y-113423297D01*
X108452284Y-113335025D01*
X108395610Y-113223797D01*
X108376082Y-113100499D01*
X108395610Y-112977201D01*
X108452284Y-112865973D01*
X108540556Y-112777701D01*
X108632547Y-112727827D01*
X108705370Y-112699974D01*
X108757558Y-112680014D01*
X108993777Y-112547441D01*
X109208177Y-112381888D01*
X109396186Y-112186881D01*
X109553799Y-111966579D01*
X109677656Y-111725675D01*
X109765118Y-111469305D01*
X109814319Y-111202933D01*
X109824212Y-110932235D01*
X109794586Y-110662982D01*
X109753955Y-110507565D01*
X109726073Y-110400913D01*
X109620130Y-110151609D01*
X109479019Y-109920391D01*
X109305747Y-109712182D01*
X109218227Y-109633764D01*
X109104002Y-109531418D01*
X109103999Y-109531416D01*
X109103997Y-109531414D01*
X108878094Y-109381958D01*
X108632818Y-109266977D01*
X108373434Y-109188940D01*
X108105439Y-109149500D01*
X107902369Y-109149500D01*
X107895117Y-109150030D01*
X107895110Y-109150031D01*
X107699838Y-109164323D01*
X107435449Y-109223218D01*
X107182440Y-109319986D01*
X106946224Y-109452557D01*
X106731823Y-109618112D01*
X106543812Y-109813120D01*
X106386202Y-110033418D01*
X106262344Y-110274325D01*
X106174881Y-110530696D01*
X106125681Y-110797064D01*
X106115788Y-111067768D01*
X106145414Y-111337018D01*
X106213926Y-111599086D01*
X106319869Y-111848390D01*
X106460980Y-112079608D01*
X106634252Y-112287817D01*
X106634253Y-112287818D01*
X106634255Y-112287820D01*
X106835998Y-112468582D01*
X106836000Y-112468583D01*
X106836002Y-112468585D01*
X107055498Y-112613802D01*
X107061910Y-112618044D01*
X107307176Y-112733020D01*
X107307180Y-112733021D01*
X107320414Y-112739225D01*
X107423764Y-112809242D01*
X107500420Y-112907769D01*
X107542878Y-113025162D01*
X107546981Y-113149929D01*
X107512329Y-113269858D01*
X107442312Y-113373208D01*
X107343785Y-113449864D01*
X107226392Y-113492322D01*
X107151055Y-113499499D01*
X107013070Y-113499499D01*
X106986972Y-113498645D01*
X106916352Y-113494016D01*
X106755584Y-113482518D01*
X106706224Y-113475870D01*
X106610581Y-113456846D01*
X106607110Y-113456091D01*
X106484734Y-113429469D01*
X106441624Y-113417495D01*
X106346174Y-113385094D01*
X106335010Y-113381118D01*
X106285334Y-113362589D01*
X106224250Y-113339806D01*
X106187215Y-113323816D01*
X106094496Y-113278092D01*
X106079749Y-113270434D01*
X105978295Y-113215036D01*
X105947846Y-113196601D01*
X105903429Y-113166923D01*
X105860836Y-113138463D01*
X105843448Y-113126159D01*
X105751787Y-113057542D01*
X105727841Y-113038127D01*
X105648795Y-112968805D01*
X105629740Y-112950959D01*
X105549039Y-112870258D01*
X105531193Y-112851203D01*
X105494394Y-112809242D01*
X105461867Y-112772153D01*
X105442461Y-112748218D01*
X105373830Y-112656537D01*
X105361546Y-112639178D01*
X105303391Y-112552143D01*
X105284962Y-112521703D01*
X105229564Y-112420249D01*
X105221906Y-112405502D01*
X105176182Y-112312783D01*
X105160198Y-112275762D01*
X105118853Y-112164912D01*
X105114936Y-112153916D01*
X105082526Y-112058439D01*
X105070478Y-112015028D01*
X105043158Y-111889440D01*
X105024063Y-111793446D01*
X105017491Y-111744546D01*
X105005985Y-111583668D01*
X105001349Y-111512948D01*
X105000500Y-111486985D01*
X105000500Y-62807768D01*
X107385788Y-62807768D01*
X107415414Y-63077018D01*
X107483926Y-63339086D01*
X107589869Y-63588390D01*
X107730980Y-63819608D01*
X107904252Y-64027817D01*
X107904253Y-64027818D01*
X107904255Y-64027820D01*
X108105998Y-64208582D01*
X108106000Y-64208583D01*
X108106002Y-64208585D01*
X108304012Y-64339587D01*
X108331910Y-64358044D01*
X108577176Y-64473020D01*
X108577178Y-64473020D01*
X108577181Y-64473022D01*
X108836565Y-64551059D01*
X108836566Y-64551059D01*
X108836569Y-64551060D01*
X109104561Y-64590500D01*
X109300345Y-64590500D01*
X109307631Y-64590500D01*
X109510156Y-64575677D01*
X109510160Y-64575676D01*
X109510161Y-64575676D01*
X109774550Y-64516781D01*
X109774553Y-64516780D01*
X110027558Y-64420014D01*
X110263777Y-64287441D01*
X110478177Y-64121888D01*
X110666186Y-63926881D01*
X110686040Y-63899129D01*
X110773659Y-63810218D01*
X110884470Y-63752731D01*
X111007622Y-63732301D01*
X111131059Y-63750926D01*
X111242700Y-63806784D01*
X111329957Y-63892176D01*
X111383603Y-63963838D01*
X111383605Y-63963840D01*
X111383608Y-63963844D01*
X111572156Y-64152392D01*
X111572159Y-64152394D01*
X111785619Y-64312189D01*
X112019641Y-64439974D01*
X112019642Y-64439974D01*
X112019647Y-64439977D01*
X112269481Y-64533160D01*
X112530033Y-64589840D01*
X112530035Y-64589840D01*
X112530039Y-64589841D01*
X112796000Y-64608862D01*
X113061960Y-64589841D01*
X113061963Y-64589840D01*
X113061967Y-64589840D01*
X113322519Y-64533160D01*
X113572353Y-64439977D01*
X113756204Y-64339587D01*
X113806376Y-64312191D01*
X113806376Y-64312190D01*
X113806383Y-64312187D01*
X113826886Y-64296838D01*
X113937293Y-64238582D01*
X114060299Y-64217294D01*
X114183863Y-64235058D01*
X114295890Y-64290137D01*
X114305097Y-64296826D01*
X114325617Y-64312187D01*
X114325619Y-64312188D01*
X114325623Y-64312191D01*
X114559641Y-64439974D01*
X114559642Y-64439974D01*
X114559647Y-64439977D01*
X114809481Y-64533160D01*
X115070033Y-64589840D01*
X115070035Y-64589840D01*
X115070039Y-64589841D01*
X115336000Y-64608862D01*
X115601960Y-64589841D01*
X115601963Y-64589840D01*
X115601967Y-64589840D01*
X115862519Y-64533160D01*
X116112353Y-64439977D01*
X116296204Y-64339587D01*
X116346378Y-64312190D01*
X116346379Y-64312189D01*
X116346383Y-64312187D01*
X116366882Y-64296841D01*
X116477288Y-64238583D01*
X116600294Y-64217294D01*
X116723858Y-64235057D01*
X116835886Y-64290135D01*
X116845110Y-64296837D01*
X116865616Y-64312187D01*
X117099641Y-64439974D01*
X117099642Y-64439974D01*
X117099647Y-64439977D01*
X117349481Y-64533160D01*
X117610033Y-64589840D01*
X117610035Y-64589840D01*
X117610039Y-64589841D01*
X117876000Y-64608862D01*
X118141960Y-64589841D01*
X118141963Y-64589840D01*
X118141967Y-64589840D01*
X118402519Y-64533160D01*
X118652353Y-64439977D01*
X118836208Y-64339584D01*
X118953776Y-64297636D01*
X119078560Y-64294070D01*
X119159366Y-64317796D01*
X119160664Y-64314088D01*
X119373258Y-64388477D01*
X119496350Y-64402346D01*
X119518665Y-64403600D01*
X120015999Y-64403600D01*
X120016000Y-64403599D01*
X120016000Y-63057213D01*
X120028131Y-63076090D01*
X120138530Y-63171752D01*
X120271408Y-63232435D01*
X120379666Y-63248000D01*
X120452334Y-63248000D01*
X120560592Y-63232435D01*
X120693470Y-63171752D01*
X120803869Y-63076090D01*
X120816000Y-63057213D01*
X120816000Y-64403598D01*
X120816001Y-64403600D01*
X121313335Y-64403600D01*
X121335649Y-64402346D01*
X121458741Y-64388477D01*
X121671336Y-64314088D01*
X121672570Y-64317614D01*
X121706916Y-64302917D01*
X121831244Y-64291673D01*
X121952960Y-64319399D01*
X121995794Y-64339586D01*
X121995796Y-64339587D01*
X122179647Y-64439977D01*
X122429481Y-64533160D01*
X122690033Y-64589840D01*
X122690035Y-64589840D01*
X122690039Y-64589841D01*
X122956000Y-64608862D01*
X123221960Y-64589841D01*
X123221963Y-64589840D01*
X123221967Y-64589840D01*
X123482519Y-64533160D01*
X123732353Y-64439977D01*
X123916204Y-64339587D01*
X123966376Y-64312191D01*
X123966376Y-64312190D01*
X123966383Y-64312187D01*
X123986886Y-64296838D01*
X124097293Y-64238582D01*
X124220299Y-64217294D01*
X124343863Y-64235058D01*
X124455890Y-64290137D01*
X124465097Y-64296826D01*
X124485617Y-64312187D01*
X124485619Y-64312188D01*
X124485623Y-64312191D01*
X124719641Y-64439974D01*
X124719642Y-64439974D01*
X124719647Y-64439977D01*
X124969481Y-64533160D01*
X125230033Y-64589840D01*
X125230035Y-64589840D01*
X125230039Y-64589841D01*
X125496000Y-64608862D01*
X125761960Y-64589841D01*
X125761963Y-64589840D01*
X125761967Y-64589840D01*
X126022519Y-64533160D01*
X126272353Y-64439977D01*
X126456204Y-64339587D01*
X126506378Y-64312190D01*
X126506379Y-64312189D01*
X126506383Y-64312187D01*
X126526882Y-64296841D01*
X126637288Y-64238583D01*
X126760294Y-64217294D01*
X126883858Y-64235057D01*
X126995886Y-64290135D01*
X127005110Y-64296837D01*
X127025616Y-64312187D01*
X127259641Y-64439974D01*
X127259642Y-64439974D01*
X127259647Y-64439977D01*
X127509481Y-64533160D01*
X127770033Y-64589840D01*
X127770035Y-64589840D01*
X127770039Y-64589841D01*
X128036000Y-64608862D01*
X128301960Y-64589841D01*
X128301963Y-64589840D01*
X128301967Y-64589840D01*
X128562519Y-64533160D01*
X128812353Y-64439977D01*
X128996204Y-64339587D01*
X129046376Y-64312191D01*
X129046376Y-64312190D01*
X129046383Y-64312187D01*
X129066886Y-64296838D01*
X129177293Y-64238582D01*
X129300299Y-64217294D01*
X129423863Y-64235058D01*
X129535890Y-64290137D01*
X129545097Y-64296826D01*
X129565617Y-64312187D01*
X129565619Y-64312188D01*
X129565623Y-64312191D01*
X129799641Y-64439974D01*
X129799642Y-64439974D01*
X129799647Y-64439977D01*
X130049481Y-64533160D01*
X130310033Y-64589840D01*
X130310035Y-64589840D01*
X130310039Y-64589841D01*
X130576000Y-64608862D01*
X130841960Y-64589841D01*
X130841963Y-64589840D01*
X130841967Y-64589840D01*
X131102519Y-64533160D01*
X131352353Y-64439977D01*
X131536204Y-64339587D01*
X131586376Y-64312191D01*
X131586376Y-64312190D01*
X131586383Y-64312187D01*
X131606886Y-64296838D01*
X131717293Y-64238582D01*
X131840299Y-64217294D01*
X131963863Y-64235058D01*
X132075890Y-64290137D01*
X132085097Y-64296826D01*
X132105617Y-64312187D01*
X132105619Y-64312188D01*
X132105623Y-64312191D01*
X132339641Y-64439974D01*
X132339642Y-64439974D01*
X132339647Y-64439977D01*
X132589481Y-64533160D01*
X132850033Y-64589840D01*
X132850035Y-64589840D01*
X132850039Y-64589841D01*
X133116000Y-64608862D01*
X133381960Y-64589841D01*
X133381963Y-64589840D01*
X133381967Y-64589840D01*
X133642519Y-64533160D01*
X133892353Y-64439977D01*
X134076204Y-64339587D01*
X134126376Y-64312191D01*
X134126376Y-64312190D01*
X134126383Y-64312187D01*
X134146886Y-64296838D01*
X134257293Y-64238582D01*
X134380299Y-64217294D01*
X134503863Y-64235058D01*
X134615890Y-64290137D01*
X134625097Y-64296826D01*
X134645617Y-64312187D01*
X134645619Y-64312188D01*
X134645623Y-64312191D01*
X134879641Y-64439974D01*
X134879642Y-64439974D01*
X134879647Y-64439977D01*
X135129481Y-64533160D01*
X135390033Y-64589840D01*
X135390035Y-64589840D01*
X135390039Y-64589841D01*
X135656000Y-64608862D01*
X135921960Y-64589841D01*
X135921963Y-64589840D01*
X135921967Y-64589840D01*
X136182519Y-64533160D01*
X136432353Y-64439977D01*
X136616204Y-64339587D01*
X136666380Y-64312189D01*
X136678766Y-64302917D01*
X136879844Y-64152392D01*
X137068392Y-63963844D01*
X137228187Y-63750383D01*
X137337807Y-63549627D01*
X137414035Y-63450774D01*
X137517082Y-63380311D01*
X137636860Y-63345141D01*
X137761644Y-63348705D01*
X137879219Y-63390655D01*
X137978076Y-63466885D01*
X138038191Y-63549626D01*
X138123894Y-63706579D01*
X138147814Y-63750385D01*
X138253958Y-63892176D01*
X138307608Y-63963844D01*
X138496156Y-64152392D01*
X138496159Y-64152394D01*
X138709619Y-64312189D01*
X138943641Y-64439974D01*
X138943642Y-64439974D01*
X138943647Y-64439977D01*
X139193481Y-64533160D01*
X139454033Y-64589840D01*
X139454035Y-64589840D01*
X139454039Y-64589841D01*
X139720000Y-64608862D01*
X139985960Y-64589841D01*
X139985963Y-64589840D01*
X139985967Y-64589840D01*
X140246519Y-64533160D01*
X140496353Y-64439977D01*
X140680204Y-64339587D01*
X140730376Y-64312191D01*
X140730376Y-64312190D01*
X140730383Y-64312187D01*
X140750886Y-64296838D01*
X140861293Y-64238582D01*
X140984299Y-64217294D01*
X141107863Y-64235058D01*
X141219890Y-64290137D01*
X141229097Y-64296826D01*
X141249617Y-64312187D01*
X141249619Y-64312188D01*
X141249623Y-64312191D01*
X141483641Y-64439974D01*
X141483642Y-64439974D01*
X141483647Y-64439977D01*
X141733481Y-64533160D01*
X141994033Y-64589840D01*
X141994035Y-64589840D01*
X141994039Y-64589841D01*
X142260000Y-64608862D01*
X142525960Y-64589841D01*
X142525963Y-64589840D01*
X142525967Y-64589840D01*
X142786519Y-64533160D01*
X143036353Y-64439977D01*
X143220204Y-64339587D01*
X143270376Y-64312191D01*
X143270376Y-64312190D01*
X143270383Y-64312187D01*
X143290886Y-64296838D01*
X143401293Y-64238582D01*
X143524299Y-64217294D01*
X143647863Y-64235058D01*
X143759890Y-64290137D01*
X143769097Y-64296826D01*
X143789617Y-64312187D01*
X143789619Y-64312188D01*
X143789623Y-64312191D01*
X144023641Y-64439974D01*
X144023642Y-64439974D01*
X144023647Y-64439977D01*
X144273481Y-64533160D01*
X144534033Y-64589840D01*
X144534035Y-64589840D01*
X144534039Y-64589841D01*
X144800000Y-64608862D01*
X145065960Y-64589841D01*
X145065963Y-64589840D01*
X145065967Y-64589840D01*
X145326519Y-64533160D01*
X145576353Y-64439977D01*
X145760204Y-64339587D01*
X145810376Y-64312191D01*
X145810376Y-64312190D01*
X145810383Y-64312187D01*
X145830886Y-64296838D01*
X145941293Y-64238582D01*
X146064299Y-64217294D01*
X146187863Y-64235058D01*
X146299890Y-64290137D01*
X146309097Y-64296826D01*
X146329617Y-64312187D01*
X146329619Y-64312188D01*
X146329623Y-64312191D01*
X146563641Y-64439974D01*
X146563642Y-64439974D01*
X146563647Y-64439977D01*
X146813481Y-64533160D01*
X147074033Y-64589840D01*
X147074035Y-64589840D01*
X147074039Y-64589841D01*
X147340000Y-64608862D01*
X147605960Y-64589841D01*
X147605963Y-64589840D01*
X147605967Y-64589840D01*
X147866519Y-64533160D01*
X148116353Y-64439977D01*
X148300204Y-64339587D01*
X148350376Y-64312191D01*
X148350376Y-64312190D01*
X148350383Y-64312187D01*
X148370886Y-64296838D01*
X148481293Y-64238582D01*
X148604299Y-64217294D01*
X148727863Y-64235058D01*
X148839890Y-64290137D01*
X148849097Y-64296826D01*
X148869617Y-64312187D01*
X148869619Y-64312188D01*
X148869623Y-64312191D01*
X149103641Y-64439974D01*
X149103642Y-64439974D01*
X149103647Y-64439977D01*
X149353481Y-64533160D01*
X149614033Y-64589840D01*
X149614035Y-64589840D01*
X149614039Y-64589841D01*
X149880000Y-64608862D01*
X150145960Y-64589841D01*
X150145963Y-64589840D01*
X150145967Y-64589840D01*
X150406519Y-64533160D01*
X150656353Y-64439977D01*
X150840204Y-64339587D01*
X150890376Y-64312191D01*
X150890376Y-64312190D01*
X150890383Y-64312187D01*
X150910886Y-64296838D01*
X151021293Y-64238582D01*
X151144299Y-64217294D01*
X151267863Y-64235058D01*
X151379890Y-64290137D01*
X151389097Y-64296826D01*
X151409617Y-64312187D01*
X151409619Y-64312188D01*
X151409623Y-64312191D01*
X151643641Y-64439974D01*
X151643642Y-64439974D01*
X151643647Y-64439977D01*
X151893481Y-64533160D01*
X152154033Y-64589840D01*
X152154035Y-64589840D01*
X152154039Y-64589841D01*
X152420000Y-64608862D01*
X152685960Y-64589841D01*
X152685963Y-64589840D01*
X152685967Y-64589840D01*
X152946519Y-64533160D01*
X153196353Y-64439977D01*
X153380204Y-64339587D01*
X153430376Y-64312191D01*
X153430376Y-64312190D01*
X153430383Y-64312187D01*
X153450886Y-64296838D01*
X153561293Y-64238582D01*
X153684299Y-64217294D01*
X153807863Y-64235058D01*
X153919890Y-64290137D01*
X153929097Y-64296826D01*
X153949617Y-64312187D01*
X153949619Y-64312188D01*
X153949623Y-64312191D01*
X154183641Y-64439974D01*
X154183642Y-64439974D01*
X154183647Y-64439977D01*
X154433481Y-64533160D01*
X154694033Y-64589840D01*
X154694035Y-64589840D01*
X154694039Y-64589841D01*
X154960000Y-64608862D01*
X155225960Y-64589841D01*
X155225963Y-64589840D01*
X155225967Y-64589840D01*
X155486519Y-64533160D01*
X155736353Y-64439977D01*
X155920204Y-64339587D01*
X155970376Y-64312191D01*
X155970376Y-64312190D01*
X155970383Y-64312187D01*
X155990886Y-64296838D01*
X156101293Y-64238582D01*
X156224299Y-64217294D01*
X156347863Y-64235058D01*
X156459890Y-64290137D01*
X156469097Y-64296826D01*
X156489617Y-64312187D01*
X156489619Y-64312188D01*
X156489623Y-64312191D01*
X156723641Y-64439974D01*
X156723642Y-64439974D01*
X156723647Y-64439977D01*
X156973481Y-64533160D01*
X157234033Y-64589840D01*
X157234035Y-64589840D01*
X157234039Y-64589841D01*
X157500000Y-64608862D01*
X157765960Y-64589841D01*
X157765963Y-64589840D01*
X157765967Y-64589840D01*
X158026519Y-64533160D01*
X158276353Y-64439977D01*
X158460204Y-64339587D01*
X158510380Y-64312189D01*
X158522766Y-64302917D01*
X158723844Y-64152392D01*
X158912392Y-63963844D01*
X159072187Y-63750383D01*
X159199977Y-63516353D01*
X159293160Y-63266519D01*
X159349840Y-63005967D01*
X159364016Y-62807765D01*
X159368862Y-62739999D01*
X159349841Y-62474039D01*
X159349840Y-62474033D01*
X159293160Y-62213481D01*
X159199977Y-61963647D01*
X159148231Y-61868881D01*
X159072189Y-61729619D01*
X158912394Y-61516159D01*
X158912393Y-61516158D01*
X158912392Y-61516156D01*
X158723844Y-61327608D01*
X158637144Y-61262705D01*
X158510380Y-61167810D01*
X158276358Y-61040025D01*
X158026519Y-60946840D01*
X157765960Y-60890158D01*
X157500000Y-60871137D01*
X157234039Y-60890158D01*
X156973480Y-60946840D01*
X156723641Y-61040025D01*
X156489615Y-61167812D01*
X156469105Y-61183166D01*
X156358696Y-61241420D01*
X156235690Y-61262705D01*
X156112126Y-61244937D01*
X156000100Y-61189856D01*
X155990886Y-61183161D01*
X155970379Y-61167810D01*
X155736358Y-61040025D01*
X155486519Y-60946840D01*
X155225960Y-60890158D01*
X154960000Y-60871137D01*
X154694039Y-60890158D01*
X154433480Y-60946840D01*
X154183641Y-61040025D01*
X153949617Y-61167811D01*
X153929110Y-61183163D01*
X153818702Y-61241419D01*
X153695695Y-61262705D01*
X153572131Y-61244939D01*
X153460105Y-61189858D01*
X153450890Y-61183163D01*
X153430382Y-61167811D01*
X153196358Y-61040025D01*
X152946519Y-60946840D01*
X152685960Y-60890158D01*
X152420000Y-60871137D01*
X152154039Y-60890158D01*
X151893480Y-60946840D01*
X151643641Y-61040025D01*
X151409617Y-61167811D01*
X151389110Y-61183163D01*
X151278702Y-61241419D01*
X151155695Y-61262705D01*
X151032131Y-61244939D01*
X150920105Y-61189858D01*
X150910890Y-61183163D01*
X150890382Y-61167811D01*
X150656358Y-61040025D01*
X150406519Y-60946840D01*
X150145960Y-60890158D01*
X149880000Y-60871137D01*
X149614039Y-60890158D01*
X149353480Y-60946840D01*
X149103641Y-61040025D01*
X148869617Y-61167811D01*
X148849110Y-61183163D01*
X148738702Y-61241419D01*
X148615695Y-61262705D01*
X148492131Y-61244939D01*
X148380105Y-61189858D01*
X148370890Y-61183163D01*
X148350382Y-61167811D01*
X148116358Y-61040025D01*
X147866519Y-60946840D01*
X147605960Y-60890158D01*
X147340000Y-60871137D01*
X147074039Y-60890158D01*
X146813480Y-60946840D01*
X146563641Y-61040025D01*
X146329617Y-61167811D01*
X146309110Y-61183163D01*
X146198702Y-61241419D01*
X146075695Y-61262705D01*
X145952131Y-61244939D01*
X145840105Y-61189858D01*
X145830890Y-61183163D01*
X145810382Y-61167811D01*
X145576358Y-61040025D01*
X145326519Y-60946840D01*
X145065960Y-60890158D01*
X144800000Y-60871137D01*
X144534039Y-60890158D01*
X144273480Y-60946840D01*
X144023641Y-61040025D01*
X143789617Y-61167811D01*
X143769110Y-61183163D01*
X143658702Y-61241419D01*
X143535695Y-61262705D01*
X143412131Y-61244939D01*
X143300105Y-61189858D01*
X143290890Y-61183163D01*
X143270382Y-61167811D01*
X143036358Y-61040025D01*
X142786519Y-60946840D01*
X142525960Y-60890158D01*
X142260000Y-60871137D01*
X141994039Y-60890158D01*
X141733480Y-60946840D01*
X141483641Y-61040025D01*
X141249617Y-61167811D01*
X141229110Y-61183163D01*
X141118702Y-61241419D01*
X140995695Y-61262705D01*
X140872131Y-61244939D01*
X140760105Y-61189858D01*
X140750890Y-61183163D01*
X140730382Y-61167811D01*
X140496358Y-61040025D01*
X140246519Y-60946840D01*
X139985960Y-60890158D01*
X139720000Y-60871137D01*
X139454039Y-60890158D01*
X139193480Y-60946840D01*
X138943641Y-61040025D01*
X138709619Y-61167810D01*
X138496159Y-61327605D01*
X138307605Y-61516159D01*
X138147812Y-61729617D01*
X138038194Y-61930369D01*
X137961964Y-62029226D01*
X137858917Y-62099688D01*
X137739139Y-62134858D01*
X137614355Y-62131294D01*
X137496780Y-62089343D01*
X137397923Y-62013113D01*
X137337806Y-61930369D01*
X137228187Y-61729617D01*
X137188030Y-61675973D01*
X137068392Y-61516156D01*
X136879844Y-61327608D01*
X136793144Y-61262705D01*
X136666380Y-61167810D01*
X136432358Y-61040025D01*
X136182519Y-60946840D01*
X135921960Y-60890158D01*
X135656000Y-60871137D01*
X135390039Y-60890158D01*
X135129480Y-60946840D01*
X134879641Y-61040025D01*
X134645617Y-61167811D01*
X134625110Y-61183163D01*
X134514702Y-61241419D01*
X134391695Y-61262705D01*
X134268131Y-61244939D01*
X134156105Y-61189858D01*
X134146890Y-61183163D01*
X134126382Y-61167811D01*
X133892358Y-61040025D01*
X133642519Y-60946840D01*
X133381960Y-60890158D01*
X133116000Y-60871137D01*
X132850039Y-60890158D01*
X132589480Y-60946840D01*
X132339641Y-61040025D01*
X132105617Y-61167811D01*
X132085110Y-61183163D01*
X131974702Y-61241419D01*
X131851695Y-61262705D01*
X131728131Y-61244939D01*
X131616105Y-61189858D01*
X131606890Y-61183163D01*
X131586382Y-61167811D01*
X131352358Y-61040025D01*
X131102519Y-60946840D01*
X130841960Y-60890158D01*
X130576000Y-60871137D01*
X130310039Y-60890158D01*
X130049480Y-60946840D01*
X129799641Y-61040025D01*
X129565617Y-61167811D01*
X129545110Y-61183163D01*
X129434702Y-61241419D01*
X129311695Y-61262705D01*
X129188131Y-61244939D01*
X129076105Y-61189858D01*
X129066890Y-61183163D01*
X129046382Y-61167811D01*
X128812358Y-61040025D01*
X128562519Y-60946840D01*
X128301960Y-60890158D01*
X128036000Y-60871137D01*
X127770039Y-60890158D01*
X127509480Y-60946840D01*
X127259641Y-61040025D01*
X127025617Y-61167811D01*
X127005110Y-61183163D01*
X126894702Y-61241419D01*
X126771695Y-61262705D01*
X126648131Y-61244939D01*
X126536105Y-61189858D01*
X126526890Y-61183163D01*
X126506382Y-61167811D01*
X126272358Y-61040025D01*
X126022519Y-60946840D01*
X125761960Y-60890158D01*
X125496000Y-60871137D01*
X125230039Y-60890158D01*
X124969480Y-60946840D01*
X124719641Y-61040025D01*
X124485617Y-61167811D01*
X124465110Y-61183163D01*
X124354702Y-61241419D01*
X124231695Y-61262705D01*
X124108131Y-61244939D01*
X123996105Y-61189858D01*
X123986890Y-61183163D01*
X123966382Y-61167811D01*
X123732358Y-61040025D01*
X123482519Y-60946840D01*
X123221960Y-60890158D01*
X122956000Y-60871137D01*
X122690039Y-60890158D01*
X122429480Y-60946840D01*
X122179646Y-61040023D01*
X121995795Y-61140413D01*
X121878219Y-61182363D01*
X121753436Y-61185927D01*
X121672634Y-61162200D01*
X121671336Y-61165912D01*
X121458741Y-61091522D01*
X121335649Y-61077653D01*
X121313335Y-61076400D01*
X120816001Y-61076400D01*
X120816000Y-61076401D01*
X120816000Y-62422786D01*
X120803869Y-62403910D01*
X120693470Y-62308248D01*
X120560592Y-62247565D01*
X120452334Y-62232000D01*
X120379666Y-62232000D01*
X120271408Y-62247565D01*
X120138530Y-62308248D01*
X120028131Y-62403910D01*
X120016000Y-62422786D01*
X120016000Y-61076401D01*
X120015999Y-61076400D01*
X119518665Y-61076400D01*
X119496350Y-61077653D01*
X119373258Y-61091522D01*
X119160664Y-61165912D01*
X119159420Y-61162357D01*
X119124653Y-61177190D01*
X119000313Y-61188296D01*
X118878627Y-61160435D01*
X118836204Y-61140413D01*
X118652353Y-61040023D01*
X118402519Y-60946840D01*
X118141960Y-60890158D01*
X117876000Y-60871137D01*
X117610039Y-60890158D01*
X117349480Y-60946840D01*
X117099641Y-61040025D01*
X116865617Y-61167811D01*
X116845110Y-61183163D01*
X116734702Y-61241419D01*
X116611695Y-61262705D01*
X116488131Y-61244939D01*
X116376105Y-61189858D01*
X116366890Y-61183163D01*
X116346382Y-61167811D01*
X116112358Y-61040025D01*
X115862519Y-60946840D01*
X115601960Y-60890158D01*
X115336000Y-60871137D01*
X115070039Y-60890158D01*
X114809480Y-60946840D01*
X114559641Y-61040025D01*
X114325617Y-61167811D01*
X114305110Y-61183163D01*
X114194702Y-61241419D01*
X114071695Y-61262705D01*
X113948131Y-61244939D01*
X113836105Y-61189858D01*
X113826890Y-61183163D01*
X113806382Y-61167811D01*
X113572358Y-61040025D01*
X113322519Y-60946840D01*
X113061960Y-60890158D01*
X112796000Y-60871137D01*
X112530039Y-60890158D01*
X112269480Y-60946840D01*
X112019641Y-61040025D01*
X111785619Y-61167810D01*
X111572159Y-61327605D01*
X111383606Y-61516158D01*
X111329098Y-61588972D01*
X111239574Y-61675973D01*
X111127547Y-61731052D01*
X111003983Y-61748816D01*
X110880977Y-61727528D01*
X110770569Y-61669271D01*
X110702997Y-61605089D01*
X110575745Y-61452180D01*
X110374002Y-61271418D01*
X110373999Y-61271416D01*
X110373997Y-61271414D01*
X110148094Y-61121958D01*
X110129633Y-61113304D01*
X110015896Y-61059986D01*
X109902818Y-61006977D01*
X109643434Y-60928940D01*
X109375439Y-60889500D01*
X109172369Y-60889500D01*
X109165117Y-60890030D01*
X109165110Y-60890031D01*
X108969838Y-60904323D01*
X108705449Y-60963218D01*
X108452440Y-61059986D01*
X108216224Y-61192557D01*
X108001823Y-61358112D01*
X107813812Y-61553120D01*
X107656202Y-61773418D01*
X107532344Y-62014325D01*
X107444881Y-62270696D01*
X107395681Y-62537064D01*
X107385788Y-62807768D01*
X105000500Y-62807768D01*
X105000500Y-62013051D01*
X105001354Y-61986969D01*
X105005982Y-61916359D01*
X105005983Y-61916352D01*
X105017483Y-61755543D01*
X105024125Y-61706235D01*
X105043159Y-61610546D01*
X105070536Y-61484697D01*
X105082493Y-61441653D01*
X105114944Y-61346056D01*
X105118836Y-61335128D01*
X105160202Y-61224221D01*
X105176171Y-61187233D01*
X105221938Y-61094428D01*
X105229528Y-61079812D01*
X105284980Y-60978259D01*
X105303372Y-60947883D01*
X105361539Y-60860830D01*
X105373833Y-60843456D01*
X105442470Y-60751768D01*
X105461854Y-60727861D01*
X105531216Y-60648768D01*
X105549004Y-60629775D01*
X105629775Y-60549004D01*
X105648768Y-60531216D01*
X105727861Y-60461854D01*
X105751768Y-60442470D01*
X105843456Y-60373833D01*
X105860830Y-60361539D01*
X105947883Y-60303372D01*
X105978259Y-60284980D01*
X106079812Y-60229528D01*
X106094428Y-60221938D01*
X106187233Y-60176171D01*
X106224221Y-60160202D01*
X106335128Y-60118836D01*
X106346039Y-60114950D01*
X106441568Y-60082522D01*
X106484965Y-60070478D01*
X106610546Y-60043159D01*
X106706558Y-60024061D01*
X106755452Y-60017490D01*
X106916264Y-60005988D01*
X106987012Y-60001351D01*
X107013046Y-60000500D01*
X160334227Y-60000500D01*
X160334233Y-60000501D01*
G37*
%TD.AperFunction*%
%TA.AperFunction,Conductor*%
G36*
X122323798Y-79420028D02*
G01*
X122435026Y-79476702D01*
X122523298Y-79564974D01*
X122579972Y-79676202D01*
X122599500Y-79799500D01*
X122599500Y-81942685D01*
X122598691Y-81968076D01*
X122594753Y-82029832D01*
X122605359Y-82129391D01*
X122606157Y-82137722D01*
X122611591Y-82201555D01*
X122615627Y-82248972D01*
X122616884Y-82255863D01*
X122647282Y-82363212D01*
X122649501Y-82371378D01*
X122677612Y-82479340D01*
X122680021Y-82485934D01*
X122728129Y-82586610D01*
X122731698Y-82594288D01*
X122777653Y-82695950D01*
X122781122Y-82702008D01*
X122845581Y-82793148D01*
X122850396Y-82800112D01*
X122912840Y-82892502D01*
X122917300Y-82897906D01*
X122996193Y-82976800D01*
X123002116Y-82982850D01*
X123079312Y-83063395D01*
X123104406Y-83085012D01*
X123969170Y-83949776D01*
X123986551Y-83968302D01*
X124027432Y-84014752D01*
X124027436Y-84014755D01*
X124105300Y-84077626D01*
X124105308Y-84077632D01*
X124111841Y-84083023D01*
X124197169Y-84154965D01*
X124202882Y-84158916D01*
X124300302Y-84213338D01*
X124307598Y-84217515D01*
X124393991Y-84268213D01*
X124393994Y-84268214D01*
X124403881Y-84274016D01*
X124410231Y-84276968D01*
X124418956Y-84280051D01*
X124431574Y-84286890D01*
X124433914Y-84287978D01*
X124444770Y-84294042D01*
X124528706Y-84339537D01*
X124614703Y-84430026D01*
X124668527Y-84542661D01*
X124684912Y-84666416D01*
X124663670Y-84785092D01*
X124579881Y-85030693D01*
X124530681Y-85297064D01*
X124520788Y-85567768D01*
X124550414Y-85837018D01*
X124618926Y-86099086D01*
X124724869Y-86348389D01*
X124843502Y-86542777D01*
X124891063Y-86658197D01*
X124900630Y-86782664D01*
X124871266Y-86903996D01*
X124827422Y-86982791D01*
X124791203Y-87033415D01*
X124667344Y-87274325D01*
X124579881Y-87530696D01*
X124530681Y-87797064D01*
X124520788Y-88067768D01*
X124550414Y-88337018D01*
X124618926Y-88599086D01*
X124724869Y-88848389D01*
X124843502Y-89042777D01*
X124891063Y-89158197D01*
X124900630Y-89282664D01*
X124871266Y-89403996D01*
X124827422Y-89482791D01*
X124791203Y-89533415D01*
X124667344Y-89774325D01*
X124579881Y-90030696D01*
X124530681Y-90297064D01*
X124520788Y-90567768D01*
X124550414Y-90837018D01*
X124619056Y-91099581D01*
X124631349Y-91223809D01*
X124604651Y-91345755D01*
X124541576Y-91453483D01*
X124448299Y-91536447D01*
X124333949Y-91586526D01*
X124233030Y-91599500D01*
X117262825Y-91599500D01*
X117139527Y-91579972D01*
X117028299Y-91523298D01*
X116940027Y-91435026D01*
X116883353Y-91323798D01*
X116863825Y-91200500D01*
X116883353Y-91077202D01*
X116885196Y-91071669D01*
X116886544Y-91067715D01*
X116920118Y-90969305D01*
X116969319Y-90702933D01*
X116979212Y-90432235D01*
X116949586Y-90162982D01*
X116890640Y-89937509D01*
X116881073Y-89900913D01*
X116775131Y-89651611D01*
X116656497Y-89457222D01*
X116608936Y-89341803D01*
X116599369Y-89217335D01*
X116628733Y-89096003D01*
X116672578Y-89017206D01*
X116708799Y-88966579D01*
X116832656Y-88725675D01*
X116920118Y-88469305D01*
X116969319Y-88202933D01*
X116979212Y-87932235D01*
X116949586Y-87662982D01*
X116915002Y-87530695D01*
X116881073Y-87400913D01*
X116775131Y-87151611D01*
X116656497Y-86957222D01*
X116608936Y-86841803D01*
X116599369Y-86717335D01*
X116628733Y-86596003D01*
X116672578Y-86517206D01*
X116708799Y-86466579D01*
X116832656Y-86225675D01*
X116920118Y-85969305D01*
X116969319Y-85702933D01*
X116979212Y-85432235D01*
X116949586Y-85162982D01*
X116915001Y-85030693D01*
X116881073Y-84900913D01*
X116775131Y-84651611D01*
X116656497Y-84457222D01*
X116608936Y-84341803D01*
X116599369Y-84217335D01*
X116628733Y-84096003D01*
X116672578Y-84017206D01*
X116708799Y-83966579D01*
X116832656Y-83725675D01*
X116920118Y-83469305D01*
X116969319Y-83202933D01*
X116979212Y-82932235D01*
X116949586Y-82662982D01*
X116901576Y-82479340D01*
X116881073Y-82400913D01*
X116775130Y-82151609D01*
X116634019Y-81920391D01*
X116603382Y-81883577D01*
X116561109Y-81832780D01*
X116497250Y-81725518D01*
X116469661Y-81603770D01*
X116481046Y-81479455D01*
X116527597Y-81369072D01*
X116599706Y-81251401D01*
X116699095Y-81011456D01*
X116725854Y-80900000D01*
X115263721Y-80900000D01*
X115362673Y-80814258D01*
X115436519Y-80699351D01*
X115475000Y-80568295D01*
X115475000Y-80431705D01*
X115436519Y-80300649D01*
X115362673Y-80185742D01*
X115263721Y-80100000D01*
X116725853Y-80100000D01*
X116699095Y-79988543D01*
X116684038Y-79952193D01*
X116654895Y-79830808D01*
X116664689Y-79706358D01*
X116712460Y-79591025D01*
X116793533Y-79496100D01*
X116899972Y-79430873D01*
X117021357Y-79401730D01*
X117052665Y-79400500D01*
X122200500Y-79400500D01*
X122323798Y-79420028D01*
G37*
%TD.AperFunction*%
%TA.AperFunction,Conductor*%
G36*
X133823797Y-77920028D02*
G01*
X133935025Y-77976702D01*
X134023297Y-78064974D01*
X134079971Y-78176202D01*
X134099499Y-78299500D01*
X134099499Y-81942678D01*
X134098691Y-81968062D01*
X134094753Y-82029834D01*
X134105359Y-82129391D01*
X134106166Y-82137819D01*
X134115626Y-82248962D01*
X134116884Y-82255863D01*
X134147282Y-82363212D01*
X134149501Y-82371378D01*
X134177612Y-82479340D01*
X134180021Y-82485934D01*
X134228129Y-82586610D01*
X134231698Y-82594288D01*
X134277653Y-82695950D01*
X134281122Y-82702008D01*
X134345581Y-82793148D01*
X134350396Y-82800112D01*
X134412840Y-82892502D01*
X134417300Y-82897906D01*
X134496193Y-82976800D01*
X134502116Y-82982850D01*
X134579312Y-83063395D01*
X134604406Y-83085012D01*
X135469170Y-83949776D01*
X135486551Y-83968302D01*
X135527432Y-84014752D01*
X135527436Y-84014755D01*
X135605300Y-84077626D01*
X135605308Y-84077632D01*
X135611841Y-84083023D01*
X135697169Y-84154965D01*
X135702882Y-84158916D01*
X135800302Y-84213338D01*
X135807598Y-84217515D01*
X135893991Y-84268213D01*
X135893994Y-84268214D01*
X135903881Y-84274016D01*
X135910231Y-84276968D01*
X135918956Y-84280051D01*
X135931574Y-84286890D01*
X135933914Y-84287978D01*
X135944770Y-84294042D01*
X136028706Y-84339537D01*
X136114703Y-84430026D01*
X136168527Y-84542661D01*
X136184912Y-84666416D01*
X136163670Y-84785092D01*
X136079881Y-85030693D01*
X136030681Y-85297064D01*
X136020788Y-85567768D01*
X136050414Y-85837018D01*
X136118926Y-86099086D01*
X136224869Y-86348389D01*
X136343502Y-86542777D01*
X136391063Y-86658197D01*
X136400630Y-86782664D01*
X136371266Y-86903996D01*
X136327422Y-86982791D01*
X136291203Y-87033415D01*
X136167344Y-87274325D01*
X136079881Y-87530696D01*
X136030681Y-87797064D01*
X136020788Y-88067768D01*
X136050414Y-88337018D01*
X136118926Y-88599086D01*
X136224869Y-88848389D01*
X136343502Y-89042777D01*
X136391063Y-89158197D01*
X136400630Y-89282664D01*
X136371266Y-89403996D01*
X136327422Y-89482791D01*
X136291203Y-89533415D01*
X136167344Y-89774325D01*
X136079881Y-90030696D01*
X136030681Y-90297064D01*
X136020788Y-90567768D01*
X136050414Y-90837018D01*
X136119056Y-91099581D01*
X136131349Y-91223809D01*
X136104651Y-91345755D01*
X136041576Y-91453483D01*
X135948299Y-91536447D01*
X135833949Y-91586526D01*
X135733030Y-91599500D01*
X128762825Y-91599500D01*
X128639527Y-91579972D01*
X128528299Y-91523298D01*
X128440027Y-91435026D01*
X128383353Y-91323798D01*
X128363825Y-91200500D01*
X128383353Y-91077202D01*
X128385196Y-91071669D01*
X128386544Y-91067715D01*
X128420118Y-90969305D01*
X128469319Y-90702933D01*
X128479212Y-90432235D01*
X128449586Y-90162982D01*
X128390640Y-89937509D01*
X128381073Y-89900913D01*
X128275131Y-89651611D01*
X128156497Y-89457222D01*
X128108936Y-89341803D01*
X128099369Y-89217335D01*
X128128733Y-89096003D01*
X128172578Y-89017206D01*
X128208799Y-88966579D01*
X128332656Y-88725675D01*
X128420118Y-88469305D01*
X128469319Y-88202933D01*
X128479212Y-87932235D01*
X128449586Y-87662982D01*
X128415002Y-87530695D01*
X128381073Y-87400913D01*
X128275131Y-87151611D01*
X128156497Y-86957222D01*
X128108936Y-86841803D01*
X128099369Y-86717335D01*
X128128733Y-86596003D01*
X128172578Y-86517206D01*
X128208799Y-86466579D01*
X128332656Y-86225675D01*
X128420118Y-85969305D01*
X128469319Y-85702933D01*
X128479212Y-85432235D01*
X128449586Y-85162982D01*
X128415001Y-85030693D01*
X128381073Y-84900913D01*
X128275131Y-84651611D01*
X128156497Y-84457222D01*
X128108936Y-84341803D01*
X128099369Y-84217335D01*
X128128733Y-84096003D01*
X128172578Y-84017206D01*
X128208799Y-83966579D01*
X128332656Y-83725675D01*
X128420118Y-83469305D01*
X128469319Y-83202933D01*
X128479212Y-82932235D01*
X128449586Y-82662982D01*
X128401576Y-82479340D01*
X128381073Y-82400913D01*
X128275130Y-82151609D01*
X128134019Y-81920391D01*
X128103382Y-81883577D01*
X128061109Y-81832780D01*
X127997250Y-81725518D01*
X127969661Y-81603770D01*
X127981046Y-81479455D01*
X128027597Y-81369072D01*
X128099706Y-81251401D01*
X128199095Y-81011456D01*
X128225854Y-80900000D01*
X126763721Y-80900000D01*
X126862673Y-80814258D01*
X126936519Y-80699351D01*
X126975000Y-80568295D01*
X126975000Y-80431705D01*
X126936519Y-80300649D01*
X126862673Y-80185742D01*
X126759445Y-80096295D01*
X126635199Y-80039554D01*
X126533975Y-80025000D01*
X126466025Y-80025000D01*
X126364801Y-80039554D01*
X126240555Y-80096295D01*
X126137327Y-80185742D01*
X126100000Y-80243824D01*
X126100000Y-78869136D01*
X126900000Y-78869136D01*
X126900000Y-80099999D01*
X126900001Y-80100000D01*
X128225853Y-80100000D01*
X128199095Y-79988543D01*
X128099706Y-79748598D01*
X127964004Y-79527151D01*
X127795334Y-79329665D01*
X127597848Y-79160995D01*
X127376401Y-79025293D01*
X127136456Y-78925904D01*
X126900000Y-78869136D01*
X126100000Y-78869136D01*
X126099999Y-78869136D01*
X125834528Y-78932870D01*
X125710078Y-78942664D01*
X125588693Y-78913522D01*
X125482254Y-78848296D01*
X125401180Y-78753371D01*
X125357482Y-78653614D01*
X125352724Y-78636813D01*
X125350500Y-78628631D01*
X125349317Y-78624087D01*
X125325275Y-78531751D01*
X125325272Y-78531745D01*
X125322383Y-78520648D01*
X125319981Y-78514071D01*
X125299653Y-78471530D01*
X125264113Y-78351861D01*
X125267292Y-78227067D01*
X125308879Y-78109363D01*
X125384803Y-78010271D01*
X125487632Y-77939491D01*
X125607301Y-77903951D01*
X125659662Y-77900500D01*
X133700499Y-77900500D01*
X133823797Y-77920028D01*
G37*
%TD.AperFunction*%
%TA.AperFunction,Conductor*%
G36*
X145323798Y-76420028D02*
G01*
X145435026Y-76476702D01*
X145523298Y-76564974D01*
X145579972Y-76676202D01*
X145599500Y-76799500D01*
X145599500Y-81692685D01*
X145598690Y-81718076D01*
X145594753Y-81779834D01*
X145602014Y-81847996D01*
X145605359Y-81879391D01*
X145606157Y-81887722D01*
X145614654Y-81987541D01*
X145615627Y-81998972D01*
X145616884Y-82005863D01*
X145647282Y-82113212D01*
X145649501Y-82121378D01*
X145677612Y-82229340D01*
X145680021Y-82235934D01*
X145728129Y-82336610D01*
X145731698Y-82344288D01*
X145777653Y-82445950D01*
X145781122Y-82452008D01*
X145845581Y-82543148D01*
X145850396Y-82550112D01*
X145912840Y-82642502D01*
X145917300Y-82647906D01*
X145996193Y-82726800D01*
X146002116Y-82732850D01*
X146079312Y-82813395D01*
X146104406Y-82835012D01*
X147219170Y-83949776D01*
X147236551Y-83968302D01*
X147277432Y-84014752D01*
X147277436Y-84014755D01*
X147355359Y-84077674D01*
X147361761Y-84082956D01*
X147438379Y-84147554D01*
X147438382Y-84147555D01*
X147447158Y-84154955D01*
X147452902Y-84158927D01*
X147528794Y-84201322D01*
X147626912Y-84278501D01*
X147696377Y-84382223D01*
X147730391Y-84502335D01*
X147725623Y-84627078D01*
X147689058Y-84732089D01*
X147667345Y-84774322D01*
X147579881Y-85030696D01*
X147530681Y-85297064D01*
X147520788Y-85567768D01*
X147550414Y-85837018D01*
X147618926Y-86099086D01*
X147724869Y-86348389D01*
X147843502Y-86542777D01*
X147891063Y-86658197D01*
X147900630Y-86782664D01*
X147871266Y-86903996D01*
X147827422Y-86982791D01*
X147791203Y-87033415D01*
X147667344Y-87274325D01*
X147579881Y-87530696D01*
X147530681Y-87797064D01*
X147520788Y-88067768D01*
X147550414Y-88337018D01*
X147618926Y-88599086D01*
X147724869Y-88848389D01*
X147843502Y-89042777D01*
X147891063Y-89158197D01*
X147900630Y-89282664D01*
X147871266Y-89403996D01*
X147827422Y-89482791D01*
X147791203Y-89533415D01*
X147667344Y-89774325D01*
X147579881Y-90030696D01*
X147530681Y-90297064D01*
X147520788Y-90567768D01*
X147550414Y-90837018D01*
X147619056Y-91099581D01*
X147631349Y-91223809D01*
X147604651Y-91345755D01*
X147541576Y-91453483D01*
X147448299Y-91536447D01*
X147333949Y-91586526D01*
X147233030Y-91599500D01*
X140262825Y-91599500D01*
X140139527Y-91579972D01*
X140028299Y-91523298D01*
X139940027Y-91435026D01*
X139883353Y-91323798D01*
X139863825Y-91200500D01*
X139883353Y-91077202D01*
X139885196Y-91071669D01*
X139886544Y-91067715D01*
X139920118Y-90969305D01*
X139969319Y-90702933D01*
X139979212Y-90432235D01*
X139949586Y-90162982D01*
X139890640Y-89937509D01*
X139881073Y-89900913D01*
X139775131Y-89651611D01*
X139656497Y-89457222D01*
X139608936Y-89341803D01*
X139599369Y-89217335D01*
X139628733Y-89096003D01*
X139672578Y-89017206D01*
X139708799Y-88966579D01*
X139832656Y-88725675D01*
X139920118Y-88469305D01*
X139969319Y-88202933D01*
X139979212Y-87932235D01*
X139949586Y-87662982D01*
X139915002Y-87530695D01*
X139881073Y-87400913D01*
X139775131Y-87151611D01*
X139656497Y-86957222D01*
X139608936Y-86841803D01*
X139599369Y-86717335D01*
X139628733Y-86596003D01*
X139672578Y-86517206D01*
X139708799Y-86466579D01*
X139832656Y-86225675D01*
X139920118Y-85969305D01*
X139969319Y-85702933D01*
X139979212Y-85432235D01*
X139949586Y-85162982D01*
X139915001Y-85030693D01*
X139881073Y-84900913D01*
X139775131Y-84651611D01*
X139656497Y-84457222D01*
X139608936Y-84341803D01*
X139599369Y-84217335D01*
X139628733Y-84096003D01*
X139672578Y-84017206D01*
X139708799Y-83966579D01*
X139832656Y-83725675D01*
X139920118Y-83469305D01*
X139969319Y-83202933D01*
X139979212Y-82932235D01*
X139949586Y-82662982D01*
X139901576Y-82479340D01*
X139881073Y-82400913D01*
X139775130Y-82151609D01*
X139634019Y-81920391D01*
X139603382Y-81883577D01*
X139561109Y-81832780D01*
X139497250Y-81725518D01*
X139469661Y-81603770D01*
X139481046Y-81479455D01*
X139527597Y-81369072D01*
X139599706Y-81251401D01*
X139699095Y-81011456D01*
X139725854Y-80900000D01*
X138263721Y-80900000D01*
X138362673Y-80814258D01*
X138436519Y-80699351D01*
X138475000Y-80568295D01*
X138475000Y-80431705D01*
X138436519Y-80300649D01*
X138362673Y-80185742D01*
X138259445Y-80096295D01*
X138135199Y-80039554D01*
X138033975Y-80025000D01*
X137966025Y-80025000D01*
X137864801Y-80039554D01*
X137740555Y-80096295D01*
X137637327Y-80185742D01*
X137600000Y-80243824D01*
X137600000Y-78869136D01*
X138400000Y-78869136D01*
X138400000Y-80099999D01*
X138400001Y-80100000D01*
X139725853Y-80100000D01*
X139699095Y-79988543D01*
X139599706Y-79748598D01*
X139464004Y-79527151D01*
X139295334Y-79329665D01*
X139097848Y-79160995D01*
X138876401Y-79025293D01*
X138636456Y-78925904D01*
X138400000Y-78869136D01*
X137600000Y-78869136D01*
X137392645Y-78918918D01*
X137268195Y-78928712D01*
X137146809Y-78899570D01*
X137040370Y-78834344D01*
X136959297Y-78739419D01*
X136911524Y-78624087D01*
X136900500Y-78530942D01*
X136900500Y-77557313D01*
X136901309Y-77531922D01*
X136905247Y-77470167D01*
X136894645Y-77370650D01*
X136893838Y-77362222D01*
X136884372Y-77251011D01*
X136883122Y-77244161D01*
X136852722Y-77136805D01*
X136850500Y-77128631D01*
X136825275Y-77031751D01*
X136825272Y-77031745D01*
X136822383Y-77020648D01*
X136819981Y-77014071D01*
X136799653Y-76971530D01*
X136764113Y-76851861D01*
X136767292Y-76727067D01*
X136808879Y-76609363D01*
X136884803Y-76510271D01*
X136987632Y-76439491D01*
X137107301Y-76403951D01*
X137159662Y-76400500D01*
X145200500Y-76400500D01*
X145323798Y-76420028D01*
G37*
%TD.AperFunction*%
%TD*%
M02*
