M48
; DRILL file {KiCad 7.0.2} date Wed Feb  7 12:26:02 2024
; FORMAT={-:-/ absolute / metric / decimal}
; #@! TF.CreationDate,2024-02-07T12:26:02+01:00
; #@! TF.GenerationSoftware,Kicad,Pcbnew,7.0.2
; #@! TF.FileFunction,Plated,1,2,PTH
FMAT,2
METRIC
; #@! TA.AperFunction,Plated,PTH,ViaDrill
T1C0.400
; #@! TA.AperFunction,Plated,PTH,ComponentDrill
T2C0.700
; #@! TA.AperFunction,Plated,PTH,ComponentDrill
T3C0.800
; #@! TA.AperFunction,Plated,PTH,ComponentDrill
T4C0.950
; #@! TA.AperFunction,Plated,PTH,ComponentDrill
T5C1.000
; #@! TA.AperFunction,Plated,PTH,ComponentDrill
T6C1.016
; #@! TA.AperFunction,Plated,PTH,ComponentDrill
T7C1.520
%
G90
G05
T1
X72.5Y-97.0
X79.0Y-97.0
T2
X65.0Y-88.88
X65.0Y-96.5
X69.0Y-88.88
X69.0Y-96.5
X88.468Y-81.5
X88.468Y-85.31
X96.087Y-81.5
X96.087Y-85.31
X100.555Y-77.935
X100.555Y-85.555
X100.555Y-90.0
X100.555Y-97.62
X105.0Y-77.935
X105.0Y-85.555
X105.0Y-90.0
X105.0Y-97.62
T3
X87.832Y-69.38
X87.832Y-71.92
X87.832Y-74.46
X87.832Y-77.0
X89.42Y-90.5
X89.42Y-96.85
X91.96Y-90.5
X91.96Y-96.85
X94.5Y-90.5
X94.5Y-96.85
X95.453Y-69.38
X95.453Y-71.92
X95.453Y-74.46
X95.453Y-77.0
T4
X76.0Y-73.0
X76.0Y-83.0
X76.0Y-93.0
X78.5Y-73.0
X78.5Y-83.0
X78.5Y-93.0
X81.0Y-73.0
X81.0Y-83.0
X81.0Y-93.0
X88.5Y-105.442
X91.0Y-105.442
X93.5Y-105.442
X96.0Y-105.442
X102.0Y-71.5
X103.0Y-105.442
X104.5Y-71.5
X105.5Y-105.442
X107.0Y-71.5
X108.0Y-105.442
X109.5Y-71.5
X110.5Y-105.442
X112.0Y-71.5
X114.5Y-71.5
T5
X66.5Y-73.0
X66.5Y-83.0
X66.5Y-104.0
X69.0Y-73.0
X69.0Y-83.0
X69.0Y-104.0
X78.5Y-104.0
X81.0Y-104.0
X124.5Y-99.5
X124.5Y-108.0
X127.0Y-99.5
X127.0Y-108.0
T6
X70.256Y-63.82
X72.796Y-63.82
X75.336Y-63.82
X77.876Y-63.82
X79.4Y-112.08
X80.416Y-63.82
X81.94Y-112.08
X82.956Y-63.82
X84.48Y-112.08
X85.496Y-63.82
X87.02Y-112.08
X88.036Y-63.82
X89.56Y-112.08
X90.576Y-63.82
X92.1Y-112.08
X93.116Y-63.82
X94.64Y-112.08
X97.18Y-63.82
X97.18Y-112.08
X99.72Y-63.82
X102.26Y-63.82
X102.26Y-112.08
X104.8Y-63.82
X104.8Y-112.08
X107.34Y-63.82
X107.34Y-112.08
X109.88Y-63.82
X109.88Y-112.08
X112.42Y-63.82
X112.42Y-112.08
X114.96Y-63.82
X114.96Y-112.08
X115.087Y-84.14
X115.087Y-86.68
X115.087Y-89.22
X117.627Y-84.14
X117.627Y-86.68
X117.627Y-89.22
T7
X124.0Y-66.42
X124.0Y-71.5
T0
M30
