%TF.GenerationSoftware,KiCad,Pcbnew,7.0.2*%
%TF.CreationDate,2024-02-07T12:24:33+01:00*%
%TF.ProjectId,SyringePumpShield,53797269-6e67-4655-9075-6d7053686965,rev?*%
%TF.SameCoordinates,Original*%
%TF.FileFunction,Soldermask,Top*%
%TF.FilePolarity,Negative*%
%FSLAX46Y46*%
G04 Gerber Fmt 4.6, Leading zero omitted, Abs format (unit mm)*
G04 Created by KiCad (PCBNEW 7.0.2) date 2024-02-07 12:24:33*
%MOMM*%
%LPD*%
G01*
G04 APERTURE LIST*
G04 Aperture macros list*
%AMRoundRect*
0 Rectangle with rounded corners*
0 $1 Rounding radius*
0 $2 $3 $4 $5 $6 $7 $8 $9 X,Y pos of 4 corners*
0 Add a 4 corners polygon primitive as box body*
4,1,4,$2,$3,$4,$5,$6,$7,$8,$9,$2,$3,0*
0 Add four circle primitives for the rounded corners*
1,1,$1+$1,$2,$3*
1,1,$1+$1,$4,$5*
1,1,$1+$1,$6,$7*
1,1,$1+$1,$8,$9*
0 Add four rect primitives between the rounded corners*
20,1,$1+$1,$2,$3,$4,$5,0*
20,1,$1+$1,$4,$5,$6,$7,0*
20,1,$1+$1,$6,$7,$8,$9,0*
20,1,$1+$1,$8,$9,$2,$3,0*%
G04 Aperture macros list end*
%ADD10RoundRect,0.250000X0.600000X0.725000X-0.600000X0.725000X-0.600000X-0.725000X0.600000X-0.725000X0*%
%ADD11O,1.700000X1.950000*%
%ADD12C,1.400000*%
%ADD13O,1.400000X1.400000*%
%ADD14RoundRect,0.250000X0.600000X0.750000X-0.600000X0.750000X-0.600000X-0.750000X0.600000X-0.750000X0*%
%ADD15O,1.700000X2.000000*%
%ADD16R,1.500000X1.500000*%
%ADD17C,1.500000*%
%ADD18C,3.000000*%
%ADD19R,3.000000X3.000000*%
%ADD20O,1.727200X1.727200*%
%ADD21R,1.727200X1.727200*%
%ADD22C,3.200000*%
%ADD23R,2.400000X1.600000*%
%ADD24O,2.400000X1.600000*%
G04 APERTURE END LIST*
D10*
%TO.C,J13*%
X81000000Y-73000000D03*
D11*
X78500000Y-73000000D03*
X76000000Y-73000000D03*
%TD*%
D10*
%TO.C,J12*%
X81000000Y-83000000D03*
D11*
X78500000Y-83000000D03*
X76000000Y-83000000D03*
%TD*%
D10*
%TO.C,J11*%
X81000000Y-93000000D03*
D11*
X78500000Y-93000000D03*
X76000000Y-93000000D03*
%TD*%
D12*
%TO.C,R8*%
X69000000Y-96500000D03*
D13*
X69000000Y-88880000D03*
%TD*%
D12*
%TO.C,R7*%
X65000000Y-96500000D03*
D13*
X65000000Y-88880000D03*
%TD*%
D14*
%TO.C,J14*%
X69000000Y-83000000D03*
D15*
X66500000Y-83000000D03*
%TD*%
D10*
%TO.C,J9*%
X114500000Y-71500000D03*
D11*
X112000000Y-71500000D03*
X109500000Y-71500000D03*
X107000000Y-71500000D03*
X104500000Y-71500000D03*
X102000000Y-71500000D03*
%TD*%
D14*
%TO.C,J1*%
X69000000Y-73000000D03*
D15*
X66500000Y-73000000D03*
%TD*%
D16*
%TO.C,Q1*%
X94500000Y-96850000D03*
D17*
X91960000Y-96850000D03*
X89420000Y-96850000D03*
%TD*%
D12*
%TO.C,R2*%
X105000000Y-97620000D03*
D13*
X105000000Y-90000000D03*
%TD*%
D18*
%TO.C,J2*%
X124000000Y-66420000D03*
D19*
X124000000Y-71500000D03*
%TD*%
D12*
%TO.C,R5*%
X105000000Y-77935000D03*
D13*
X105000000Y-85555000D03*
%TD*%
D14*
%TO.C,J3*%
X81000000Y-104000000D03*
D15*
X78500000Y-104000000D03*
%TD*%
D14*
%TO.C,J6*%
X69000000Y-104000000D03*
D15*
X66500000Y-104000000D03*
%TD*%
D12*
%TO.C,R1*%
X96087500Y-85310000D03*
D13*
X88467500Y-85310000D03*
%TD*%
D20*
%TO.C,A1*%
X97180000Y-112080000D03*
X72796000Y-63820000D03*
X70256000Y-63820000D03*
X115087000Y-86680000D03*
X115087000Y-89220000D03*
X84480000Y-112080000D03*
X117627000Y-86680000D03*
X115087000Y-84140000D03*
X81940000Y-112080000D03*
D21*
X117627000Y-89220000D03*
X94640000Y-112080000D03*
X92100000Y-112080000D03*
X77876000Y-63820000D03*
D20*
X80416000Y-63820000D03*
X82956000Y-63820000D03*
X85496000Y-63820000D03*
X88036000Y-63820000D03*
X90576000Y-63820000D03*
X93116000Y-63820000D03*
X97180000Y-63820000D03*
X99720000Y-63820000D03*
X102260000Y-63820000D03*
X104800000Y-63820000D03*
X107340000Y-63820000D03*
X109880000Y-63820000D03*
X112420000Y-63820000D03*
X114960000Y-63820000D03*
X75336000Y-63820000D03*
X114960000Y-112080000D03*
X112420000Y-112080000D03*
X109880000Y-112080000D03*
X107340000Y-112080000D03*
X104800000Y-112080000D03*
X102260000Y-112080000D03*
X117627000Y-84140000D03*
X89560000Y-112080000D03*
X87020000Y-112080000D03*
D22*
X117500000Y-107000000D03*
X117500000Y-79060000D03*
D20*
X79400000Y-112080000D03*
D22*
X66700000Y-63820000D03*
X65430000Y-112080000D03*
%TD*%
D12*
%TO.C,R4*%
X96087500Y-81500000D03*
D13*
X88467500Y-81500000D03*
%TD*%
D10*
%TO.C,J8*%
X110500000Y-105442500D03*
D11*
X108000000Y-105442500D03*
X105500000Y-105442500D03*
X103000000Y-105442500D03*
%TD*%
D16*
%TO.C,Q2*%
X94500000Y-90500000D03*
D17*
X91960000Y-90500000D03*
X89420000Y-90500000D03*
%TD*%
D23*
%TO.C,U1*%
X95452500Y-71920000D03*
D24*
X95452500Y-69380000D03*
X87832500Y-69380000D03*
X87832500Y-71920000D03*
%TD*%
D14*
%TO.C,J7*%
X127000000Y-108000000D03*
D15*
X124500000Y-108000000D03*
%TD*%
D12*
%TO.C,R3*%
X100555000Y-90000000D03*
D13*
X100555000Y-97620000D03*
%TD*%
D23*
%TO.C,U2*%
X95452500Y-77000000D03*
D24*
X95452500Y-74460000D03*
X87832500Y-74460000D03*
X87832500Y-77000000D03*
%TD*%
D12*
%TO.C,R6*%
X100555000Y-77935000D03*
D13*
X100555000Y-85555000D03*
%TD*%
D10*
%TO.C,J5*%
X96000000Y-105442500D03*
D11*
X93500000Y-105442500D03*
X91000000Y-105442500D03*
X88500000Y-105442500D03*
%TD*%
D15*
%TO.C,J4*%
X124500000Y-99500000D03*
D14*
X127000000Y-99500000D03*
%TD*%
M02*
