%TF.GenerationSoftware,KiCad,Pcbnew,7.0.2*%
%TF.CreationDate,2024-02-07T12:26:10+01:00*%
%TF.ProjectId,SyringePumpShield,53797269-6e67-4655-9075-6d7053686965,rev?*%
%TF.SameCoordinates,Original*%
%TF.FileFunction,Drillmap*%
%TF.FilePolarity,Positive*%
%FSLAX45Y45*%
G04 Gerber Fmt 4.5, Leading zero omitted, Abs format (unit mm)*
G04 Created by KiCad (PCBNEW 7.0.2) date 2024-02-07 12:26:10*
%MOMM*%
%LPD*%
G01*
G04 APERTURE LIST*
%ADD10C,0.100000*%
%ADD11C,0.200000*%
%ADD12C,0.320000*%
G04 APERTURE END LIST*
D10*
X6250000Y-11300000D02*
G75*
G03*
X6450000Y-11500000I200000J0D01*
G01*
X6450000Y-6100000D02*
G75*
G03*
X6250000Y-6300000I0J-200000D01*
G01*
X12900000Y-11500000D02*
G75*
G03*
X13100000Y-11300000I0J200000D01*
G01*
X6450000Y-6100000D02*
X12900000Y-6100000D01*
X12900000Y-11500000D02*
X6450000Y-11500000D01*
X13100000Y-6300000D02*
X13100000Y-11300000D01*
X13100000Y-6300000D02*
G75*
G03*
X12900000Y-6100000I-200000J0D01*
G01*
X6250000Y-11300000D02*
X6250000Y-6300000D01*
D11*
D12*
X6383000Y-11048000D02*
X6703000Y-11368000D01*
X6703000Y-11048000D02*
X6383000Y-11368000D01*
X6510000Y-6222000D02*
X6830000Y-6542000D01*
X6830000Y-6222000D02*
X6510000Y-6542000D01*
X11590000Y-7746000D02*
X11910000Y-8066000D01*
X11910000Y-7746000D02*
X11590000Y-8066000D01*
X11590000Y-10540000D02*
X11910000Y-10860000D01*
X11910000Y-10540000D02*
X11590000Y-10860000D01*
D11*
X6492619Y-11817524D02*
X6492619Y-11617524D01*
X6492619Y-11617524D02*
X6540238Y-11617524D01*
X6540238Y-11617524D02*
X6568809Y-11627048D01*
X6568809Y-11627048D02*
X6587857Y-11646095D01*
X6587857Y-11646095D02*
X6597381Y-11665143D01*
X6597381Y-11665143D02*
X6606905Y-11703238D01*
X6606905Y-11703238D02*
X6606905Y-11731809D01*
X6606905Y-11731809D02*
X6597381Y-11769905D01*
X6597381Y-11769905D02*
X6587857Y-11788952D01*
X6587857Y-11788952D02*
X6568809Y-11808000D01*
X6568809Y-11808000D02*
X6540238Y-11817524D01*
X6540238Y-11817524D02*
X6492619Y-11817524D01*
X6692619Y-11817524D02*
X6692619Y-11684190D01*
X6692619Y-11722286D02*
X6702143Y-11703238D01*
X6702143Y-11703238D02*
X6711667Y-11693714D01*
X6711667Y-11693714D02*
X6730714Y-11684190D01*
X6730714Y-11684190D02*
X6749762Y-11684190D01*
X6816428Y-11817524D02*
X6816428Y-11684190D01*
X6816428Y-11617524D02*
X6806905Y-11627048D01*
X6806905Y-11627048D02*
X6816428Y-11636571D01*
X6816428Y-11636571D02*
X6825952Y-11627048D01*
X6825952Y-11627048D02*
X6816428Y-11617524D01*
X6816428Y-11617524D02*
X6816428Y-11636571D01*
X6940238Y-11817524D02*
X6921190Y-11808000D01*
X6921190Y-11808000D02*
X6911667Y-11788952D01*
X6911667Y-11788952D02*
X6911667Y-11617524D01*
X7045000Y-11817524D02*
X7025952Y-11808000D01*
X7025952Y-11808000D02*
X7016428Y-11788952D01*
X7016428Y-11788952D02*
X7016428Y-11617524D01*
X7273571Y-11817524D02*
X7273571Y-11617524D01*
X7273571Y-11617524D02*
X7340238Y-11760381D01*
X7340238Y-11760381D02*
X7406905Y-11617524D01*
X7406905Y-11617524D02*
X7406905Y-11817524D01*
X7587857Y-11817524D02*
X7587857Y-11712762D01*
X7587857Y-11712762D02*
X7578333Y-11693714D01*
X7578333Y-11693714D02*
X7559286Y-11684190D01*
X7559286Y-11684190D02*
X7521190Y-11684190D01*
X7521190Y-11684190D02*
X7502143Y-11693714D01*
X7587857Y-11808000D02*
X7568809Y-11817524D01*
X7568809Y-11817524D02*
X7521190Y-11817524D01*
X7521190Y-11817524D02*
X7502143Y-11808000D01*
X7502143Y-11808000D02*
X7492619Y-11788952D01*
X7492619Y-11788952D02*
X7492619Y-11769905D01*
X7492619Y-11769905D02*
X7502143Y-11750857D01*
X7502143Y-11750857D02*
X7521190Y-11741333D01*
X7521190Y-11741333D02*
X7568809Y-11741333D01*
X7568809Y-11741333D02*
X7587857Y-11731809D01*
X7683095Y-11684190D02*
X7683095Y-11884190D01*
X7683095Y-11693714D02*
X7702143Y-11684190D01*
X7702143Y-11684190D02*
X7740238Y-11684190D01*
X7740238Y-11684190D02*
X7759286Y-11693714D01*
X7759286Y-11693714D02*
X7768809Y-11703238D01*
X7768809Y-11703238D02*
X7778333Y-11722286D01*
X7778333Y-11722286D02*
X7778333Y-11779428D01*
X7778333Y-11779428D02*
X7768809Y-11798476D01*
X7768809Y-11798476D02*
X7759286Y-11808000D01*
X7759286Y-11808000D02*
X7740238Y-11817524D01*
X7740238Y-11817524D02*
X7702143Y-11817524D01*
X7702143Y-11817524D02*
X7683095Y-11808000D01*
X7864048Y-11798476D02*
X7873571Y-11808000D01*
X7873571Y-11808000D02*
X7864048Y-11817524D01*
X7864048Y-11817524D02*
X7854524Y-11808000D01*
X7854524Y-11808000D02*
X7864048Y-11798476D01*
X7864048Y-11798476D02*
X7864048Y-11817524D01*
X7864048Y-11693714D02*
X7873571Y-11703238D01*
X7873571Y-11703238D02*
X7864048Y-11712762D01*
X7864048Y-11712762D02*
X7854524Y-11703238D01*
X7854524Y-11703238D02*
X7864048Y-11693714D01*
X7864048Y-11693714D02*
X7864048Y-11712762D01*
X6045000Y-12045000D02*
X6245000Y-12245000D01*
X6245000Y-12045000D02*
X6045000Y-12245000D01*
X6473571Y-12037524D02*
X6597381Y-12037524D01*
X6597381Y-12037524D02*
X6530714Y-12113714D01*
X6530714Y-12113714D02*
X6559286Y-12113714D01*
X6559286Y-12113714D02*
X6578333Y-12123238D01*
X6578333Y-12123238D02*
X6587857Y-12132762D01*
X6587857Y-12132762D02*
X6597381Y-12151809D01*
X6597381Y-12151809D02*
X6597381Y-12199428D01*
X6597381Y-12199428D02*
X6587857Y-12218476D01*
X6587857Y-12218476D02*
X6578333Y-12228000D01*
X6578333Y-12228000D02*
X6559286Y-12237524D01*
X6559286Y-12237524D02*
X6502143Y-12237524D01*
X6502143Y-12237524D02*
X6483095Y-12228000D01*
X6483095Y-12228000D02*
X6473571Y-12218476D01*
X6683095Y-12218476D02*
X6692619Y-12228000D01*
X6692619Y-12228000D02*
X6683095Y-12237524D01*
X6683095Y-12237524D02*
X6673571Y-12228000D01*
X6673571Y-12228000D02*
X6683095Y-12218476D01*
X6683095Y-12218476D02*
X6683095Y-12237524D01*
X6768809Y-12056571D02*
X6778333Y-12047048D01*
X6778333Y-12047048D02*
X6797381Y-12037524D01*
X6797381Y-12037524D02*
X6845000Y-12037524D01*
X6845000Y-12037524D02*
X6864048Y-12047048D01*
X6864048Y-12047048D02*
X6873571Y-12056571D01*
X6873571Y-12056571D02*
X6883095Y-12075619D01*
X6883095Y-12075619D02*
X6883095Y-12094667D01*
X6883095Y-12094667D02*
X6873571Y-12123238D01*
X6873571Y-12123238D02*
X6759286Y-12237524D01*
X6759286Y-12237524D02*
X6883095Y-12237524D01*
X7006905Y-12037524D02*
X7025952Y-12037524D01*
X7025952Y-12037524D02*
X7045000Y-12047048D01*
X7045000Y-12047048D02*
X7054524Y-12056571D01*
X7054524Y-12056571D02*
X7064048Y-12075619D01*
X7064048Y-12075619D02*
X7073571Y-12113714D01*
X7073571Y-12113714D02*
X7073571Y-12161333D01*
X7073571Y-12161333D02*
X7064048Y-12199428D01*
X7064048Y-12199428D02*
X7054524Y-12218476D01*
X7054524Y-12218476D02*
X7045000Y-12228000D01*
X7045000Y-12228000D02*
X7025952Y-12237524D01*
X7025952Y-12237524D02*
X7006905Y-12237524D01*
X7006905Y-12237524D02*
X6987857Y-12228000D01*
X6987857Y-12228000D02*
X6978333Y-12218476D01*
X6978333Y-12218476D02*
X6968809Y-12199428D01*
X6968809Y-12199428D02*
X6959286Y-12161333D01*
X6959286Y-12161333D02*
X6959286Y-12113714D01*
X6959286Y-12113714D02*
X6968809Y-12075619D01*
X6968809Y-12075619D02*
X6978333Y-12056571D01*
X6978333Y-12056571D02*
X6987857Y-12047048D01*
X6987857Y-12047048D02*
X7006905Y-12037524D01*
X7197381Y-12037524D02*
X7216429Y-12037524D01*
X7216429Y-12037524D02*
X7235476Y-12047048D01*
X7235476Y-12047048D02*
X7245000Y-12056571D01*
X7245000Y-12056571D02*
X7254524Y-12075619D01*
X7254524Y-12075619D02*
X7264048Y-12113714D01*
X7264048Y-12113714D02*
X7264048Y-12161333D01*
X7264048Y-12161333D02*
X7254524Y-12199428D01*
X7254524Y-12199428D02*
X7245000Y-12218476D01*
X7245000Y-12218476D02*
X7235476Y-12228000D01*
X7235476Y-12228000D02*
X7216429Y-12237524D01*
X7216429Y-12237524D02*
X7197381Y-12237524D01*
X7197381Y-12237524D02*
X7178333Y-12228000D01*
X7178333Y-12228000D02*
X7168809Y-12218476D01*
X7168809Y-12218476D02*
X7159286Y-12199428D01*
X7159286Y-12199428D02*
X7149762Y-12161333D01*
X7149762Y-12161333D02*
X7149762Y-12113714D01*
X7149762Y-12113714D02*
X7159286Y-12075619D01*
X7159286Y-12075619D02*
X7168809Y-12056571D01*
X7168809Y-12056571D02*
X7178333Y-12047048D01*
X7178333Y-12047048D02*
X7197381Y-12037524D01*
X7349762Y-12237524D02*
X7349762Y-12104190D01*
X7349762Y-12123238D02*
X7359286Y-12113714D01*
X7359286Y-12113714D02*
X7378333Y-12104190D01*
X7378333Y-12104190D02*
X7406905Y-12104190D01*
X7406905Y-12104190D02*
X7425952Y-12113714D01*
X7425952Y-12113714D02*
X7435476Y-12132762D01*
X7435476Y-12132762D02*
X7435476Y-12237524D01*
X7435476Y-12132762D02*
X7445000Y-12113714D01*
X7445000Y-12113714D02*
X7464048Y-12104190D01*
X7464048Y-12104190D02*
X7492619Y-12104190D01*
X7492619Y-12104190D02*
X7511667Y-12113714D01*
X7511667Y-12113714D02*
X7521190Y-12132762D01*
X7521190Y-12132762D02*
X7521190Y-12237524D01*
X7616429Y-12237524D02*
X7616429Y-12104190D01*
X7616429Y-12123238D02*
X7625952Y-12113714D01*
X7625952Y-12113714D02*
X7645000Y-12104190D01*
X7645000Y-12104190D02*
X7673571Y-12104190D01*
X7673571Y-12104190D02*
X7692619Y-12113714D01*
X7692619Y-12113714D02*
X7702143Y-12132762D01*
X7702143Y-12132762D02*
X7702143Y-12237524D01*
X7702143Y-12132762D02*
X7711667Y-12113714D01*
X7711667Y-12113714D02*
X7730714Y-12104190D01*
X7730714Y-12104190D02*
X7759286Y-12104190D01*
X7759286Y-12104190D02*
X7778333Y-12113714D01*
X7778333Y-12113714D02*
X7787857Y-12132762D01*
X7787857Y-12132762D02*
X7787857Y-12237524D01*
X8178333Y-12028000D02*
X8006905Y-12285143D01*
X8435476Y-12037524D02*
X8454524Y-12037524D01*
X8454524Y-12037524D02*
X8473572Y-12047048D01*
X8473572Y-12047048D02*
X8483095Y-12056571D01*
X8483095Y-12056571D02*
X8492619Y-12075619D01*
X8492619Y-12075619D02*
X8502143Y-12113714D01*
X8502143Y-12113714D02*
X8502143Y-12161333D01*
X8502143Y-12161333D02*
X8492619Y-12199428D01*
X8492619Y-12199428D02*
X8483095Y-12218476D01*
X8483095Y-12218476D02*
X8473572Y-12228000D01*
X8473572Y-12228000D02*
X8454524Y-12237524D01*
X8454524Y-12237524D02*
X8435476Y-12237524D01*
X8435476Y-12237524D02*
X8416429Y-12228000D01*
X8416429Y-12228000D02*
X8406905Y-12218476D01*
X8406905Y-12218476D02*
X8397381Y-12199428D01*
X8397381Y-12199428D02*
X8387857Y-12161333D01*
X8387857Y-12161333D02*
X8387857Y-12113714D01*
X8387857Y-12113714D02*
X8397381Y-12075619D01*
X8397381Y-12075619D02*
X8406905Y-12056571D01*
X8406905Y-12056571D02*
X8416429Y-12047048D01*
X8416429Y-12047048D02*
X8435476Y-12037524D01*
X8587857Y-12218476D02*
X8597381Y-12228000D01*
X8597381Y-12228000D02*
X8587857Y-12237524D01*
X8587857Y-12237524D02*
X8578334Y-12228000D01*
X8578334Y-12228000D02*
X8587857Y-12218476D01*
X8587857Y-12218476D02*
X8587857Y-12237524D01*
X8787857Y-12237524D02*
X8673572Y-12237524D01*
X8730714Y-12237524D02*
X8730714Y-12037524D01*
X8730714Y-12037524D02*
X8711667Y-12066095D01*
X8711667Y-12066095D02*
X8692619Y-12085143D01*
X8692619Y-12085143D02*
X8673572Y-12094667D01*
X8864048Y-12056571D02*
X8873572Y-12047048D01*
X8873572Y-12047048D02*
X8892619Y-12037524D01*
X8892619Y-12037524D02*
X8940238Y-12037524D01*
X8940238Y-12037524D02*
X8959286Y-12047048D01*
X8959286Y-12047048D02*
X8968810Y-12056571D01*
X8968810Y-12056571D02*
X8978334Y-12075619D01*
X8978334Y-12075619D02*
X8978334Y-12094667D01*
X8978334Y-12094667D02*
X8968810Y-12123238D01*
X8968810Y-12123238D02*
X8854524Y-12237524D01*
X8854524Y-12237524D02*
X8978334Y-12237524D01*
X9149762Y-12037524D02*
X9111667Y-12037524D01*
X9111667Y-12037524D02*
X9092619Y-12047048D01*
X9092619Y-12047048D02*
X9083095Y-12056571D01*
X9083095Y-12056571D02*
X9064048Y-12085143D01*
X9064048Y-12085143D02*
X9054524Y-12123238D01*
X9054524Y-12123238D02*
X9054524Y-12199428D01*
X9054524Y-12199428D02*
X9064048Y-12218476D01*
X9064048Y-12218476D02*
X9073572Y-12228000D01*
X9073572Y-12228000D02*
X9092619Y-12237524D01*
X9092619Y-12237524D02*
X9130715Y-12237524D01*
X9130715Y-12237524D02*
X9149762Y-12228000D01*
X9149762Y-12228000D02*
X9159286Y-12218476D01*
X9159286Y-12218476D02*
X9168810Y-12199428D01*
X9168810Y-12199428D02*
X9168810Y-12151809D01*
X9168810Y-12151809D02*
X9159286Y-12132762D01*
X9159286Y-12132762D02*
X9149762Y-12123238D01*
X9149762Y-12123238D02*
X9130715Y-12113714D01*
X9130715Y-12113714D02*
X9092619Y-12113714D01*
X9092619Y-12113714D02*
X9073572Y-12123238D01*
X9073572Y-12123238D02*
X9064048Y-12132762D01*
X9064048Y-12132762D02*
X9054524Y-12151809D01*
X9292619Y-12037524D02*
X9311667Y-12037524D01*
X9311667Y-12037524D02*
X9330715Y-12047048D01*
X9330715Y-12047048D02*
X9340238Y-12056571D01*
X9340238Y-12056571D02*
X9349762Y-12075619D01*
X9349762Y-12075619D02*
X9359286Y-12113714D01*
X9359286Y-12113714D02*
X9359286Y-12161333D01*
X9359286Y-12161333D02*
X9349762Y-12199428D01*
X9349762Y-12199428D02*
X9340238Y-12218476D01*
X9340238Y-12218476D02*
X9330715Y-12228000D01*
X9330715Y-12228000D02*
X9311667Y-12237524D01*
X9311667Y-12237524D02*
X9292619Y-12237524D01*
X9292619Y-12237524D02*
X9273572Y-12228000D01*
X9273572Y-12228000D02*
X9264048Y-12218476D01*
X9264048Y-12218476D02*
X9254524Y-12199428D01*
X9254524Y-12199428D02*
X9245000Y-12161333D01*
X9245000Y-12161333D02*
X9245000Y-12113714D01*
X9245000Y-12113714D02*
X9254524Y-12075619D01*
X9254524Y-12075619D02*
X9264048Y-12056571D01*
X9264048Y-12056571D02*
X9273572Y-12047048D01*
X9273572Y-12047048D02*
X9292619Y-12037524D01*
X9435476Y-12037524D02*
X9435476Y-12075619D01*
X9511667Y-12037524D02*
X9511667Y-12075619D01*
X9806905Y-12313714D02*
X9797381Y-12304190D01*
X9797381Y-12304190D02*
X9778334Y-12275619D01*
X9778334Y-12275619D02*
X9768810Y-12256571D01*
X9768810Y-12256571D02*
X9759286Y-12228000D01*
X9759286Y-12228000D02*
X9749762Y-12180381D01*
X9749762Y-12180381D02*
X9749762Y-12142286D01*
X9749762Y-12142286D02*
X9759286Y-12094667D01*
X9759286Y-12094667D02*
X9768810Y-12066095D01*
X9768810Y-12066095D02*
X9778334Y-12047048D01*
X9778334Y-12047048D02*
X9797381Y-12018476D01*
X9797381Y-12018476D02*
X9806905Y-12008952D01*
X9968810Y-12104190D02*
X9968810Y-12237524D01*
X9921191Y-12028000D02*
X9873572Y-12170857D01*
X9873572Y-12170857D02*
X9997381Y-12170857D01*
X10225953Y-12237524D02*
X10225953Y-12037524D01*
X10311667Y-12237524D02*
X10311667Y-12132762D01*
X10311667Y-12132762D02*
X10302143Y-12113714D01*
X10302143Y-12113714D02*
X10283096Y-12104190D01*
X10283096Y-12104190D02*
X10254524Y-12104190D01*
X10254524Y-12104190D02*
X10235477Y-12113714D01*
X10235477Y-12113714D02*
X10225953Y-12123238D01*
X10435477Y-12237524D02*
X10416429Y-12228000D01*
X10416429Y-12228000D02*
X10406905Y-12218476D01*
X10406905Y-12218476D02*
X10397381Y-12199428D01*
X10397381Y-12199428D02*
X10397381Y-12142286D01*
X10397381Y-12142286D02*
X10406905Y-12123238D01*
X10406905Y-12123238D02*
X10416429Y-12113714D01*
X10416429Y-12113714D02*
X10435477Y-12104190D01*
X10435477Y-12104190D02*
X10464048Y-12104190D01*
X10464048Y-12104190D02*
X10483096Y-12113714D01*
X10483096Y-12113714D02*
X10492619Y-12123238D01*
X10492619Y-12123238D02*
X10502143Y-12142286D01*
X10502143Y-12142286D02*
X10502143Y-12199428D01*
X10502143Y-12199428D02*
X10492619Y-12218476D01*
X10492619Y-12218476D02*
X10483096Y-12228000D01*
X10483096Y-12228000D02*
X10464048Y-12237524D01*
X10464048Y-12237524D02*
X10435477Y-12237524D01*
X10616429Y-12237524D02*
X10597381Y-12228000D01*
X10597381Y-12228000D02*
X10587858Y-12208952D01*
X10587858Y-12208952D02*
X10587858Y-12037524D01*
X10768810Y-12228000D02*
X10749762Y-12237524D01*
X10749762Y-12237524D02*
X10711667Y-12237524D01*
X10711667Y-12237524D02*
X10692619Y-12228000D01*
X10692619Y-12228000D02*
X10683096Y-12208952D01*
X10683096Y-12208952D02*
X10683096Y-12132762D01*
X10683096Y-12132762D02*
X10692619Y-12113714D01*
X10692619Y-12113714D02*
X10711667Y-12104190D01*
X10711667Y-12104190D02*
X10749762Y-12104190D01*
X10749762Y-12104190D02*
X10768810Y-12113714D01*
X10768810Y-12113714D02*
X10778334Y-12132762D01*
X10778334Y-12132762D02*
X10778334Y-12151809D01*
X10778334Y-12151809D02*
X10683096Y-12170857D01*
X10854524Y-12228000D02*
X10873572Y-12237524D01*
X10873572Y-12237524D02*
X10911667Y-12237524D01*
X10911667Y-12237524D02*
X10930715Y-12228000D01*
X10930715Y-12228000D02*
X10940239Y-12208952D01*
X10940239Y-12208952D02*
X10940239Y-12199428D01*
X10940239Y-12199428D02*
X10930715Y-12180381D01*
X10930715Y-12180381D02*
X10911667Y-12170857D01*
X10911667Y-12170857D02*
X10883096Y-12170857D01*
X10883096Y-12170857D02*
X10864048Y-12161333D01*
X10864048Y-12161333D02*
X10854524Y-12142286D01*
X10854524Y-12142286D02*
X10854524Y-12132762D01*
X10854524Y-12132762D02*
X10864048Y-12113714D01*
X10864048Y-12113714D02*
X10883096Y-12104190D01*
X10883096Y-12104190D02*
X10911667Y-12104190D01*
X10911667Y-12104190D02*
X10930715Y-12113714D01*
X11006905Y-12313714D02*
X11016429Y-12304190D01*
X11016429Y-12304190D02*
X11035477Y-12275619D01*
X11035477Y-12275619D02*
X11045000Y-12256571D01*
X11045000Y-12256571D02*
X11054524Y-12228000D01*
X11054524Y-12228000D02*
X11064048Y-12180381D01*
X11064048Y-12180381D02*
X11064048Y-12142286D01*
X11064048Y-12142286D02*
X11054524Y-12094667D01*
X11054524Y-12094667D02*
X11045000Y-12066095D01*
X11045000Y-12066095D02*
X11035477Y-12047048D01*
X11035477Y-12047048D02*
X11016429Y-12018476D01*
X11016429Y-12018476D02*
X11006905Y-12008952D01*
X11368810Y-12313714D02*
X11359286Y-12304190D01*
X11359286Y-12304190D02*
X11340238Y-12275619D01*
X11340238Y-12275619D02*
X11330715Y-12256571D01*
X11330715Y-12256571D02*
X11321191Y-12228000D01*
X11321191Y-12228000D02*
X11311667Y-12180381D01*
X11311667Y-12180381D02*
X11311667Y-12142286D01*
X11311667Y-12142286D02*
X11321191Y-12094667D01*
X11321191Y-12094667D02*
X11330715Y-12066095D01*
X11330715Y-12066095D02*
X11340238Y-12047048D01*
X11340238Y-12047048D02*
X11359286Y-12018476D01*
X11359286Y-12018476D02*
X11368810Y-12008952D01*
X11445000Y-12104190D02*
X11445000Y-12237524D01*
X11445000Y-12123238D02*
X11454524Y-12113714D01*
X11454524Y-12113714D02*
X11473572Y-12104190D01*
X11473572Y-12104190D02*
X11502143Y-12104190D01*
X11502143Y-12104190D02*
X11521191Y-12113714D01*
X11521191Y-12113714D02*
X11530715Y-12132762D01*
X11530715Y-12132762D02*
X11530715Y-12237524D01*
X11654524Y-12237524D02*
X11635477Y-12228000D01*
X11635477Y-12228000D02*
X11625953Y-12218476D01*
X11625953Y-12218476D02*
X11616429Y-12199428D01*
X11616429Y-12199428D02*
X11616429Y-12142286D01*
X11616429Y-12142286D02*
X11625953Y-12123238D01*
X11625953Y-12123238D02*
X11635477Y-12113714D01*
X11635477Y-12113714D02*
X11654524Y-12104190D01*
X11654524Y-12104190D02*
X11683096Y-12104190D01*
X11683096Y-12104190D02*
X11702143Y-12113714D01*
X11702143Y-12113714D02*
X11711667Y-12123238D01*
X11711667Y-12123238D02*
X11721191Y-12142286D01*
X11721191Y-12142286D02*
X11721191Y-12199428D01*
X11721191Y-12199428D02*
X11711667Y-12218476D01*
X11711667Y-12218476D02*
X11702143Y-12228000D01*
X11702143Y-12228000D02*
X11683096Y-12237524D01*
X11683096Y-12237524D02*
X11654524Y-12237524D01*
X11778334Y-12104190D02*
X11854524Y-12104190D01*
X11806905Y-12037524D02*
X11806905Y-12208952D01*
X11806905Y-12208952D02*
X11816429Y-12228000D01*
X11816429Y-12228000D02*
X11835477Y-12237524D01*
X11835477Y-12237524D02*
X11854524Y-12237524D01*
X12073572Y-12104190D02*
X12073572Y-12304190D01*
X12073572Y-12113714D02*
X12092619Y-12104190D01*
X12092619Y-12104190D02*
X12130715Y-12104190D01*
X12130715Y-12104190D02*
X12149762Y-12113714D01*
X12149762Y-12113714D02*
X12159286Y-12123238D01*
X12159286Y-12123238D02*
X12168810Y-12142286D01*
X12168810Y-12142286D02*
X12168810Y-12199428D01*
X12168810Y-12199428D02*
X12159286Y-12218476D01*
X12159286Y-12218476D02*
X12149762Y-12228000D01*
X12149762Y-12228000D02*
X12130715Y-12237524D01*
X12130715Y-12237524D02*
X12092619Y-12237524D01*
X12092619Y-12237524D02*
X12073572Y-12228000D01*
X12283096Y-12237524D02*
X12264048Y-12228000D01*
X12264048Y-12228000D02*
X12254524Y-12208952D01*
X12254524Y-12208952D02*
X12254524Y-12037524D01*
X12445000Y-12237524D02*
X12445000Y-12132762D01*
X12445000Y-12132762D02*
X12435477Y-12113714D01*
X12435477Y-12113714D02*
X12416429Y-12104190D01*
X12416429Y-12104190D02*
X12378334Y-12104190D01*
X12378334Y-12104190D02*
X12359286Y-12113714D01*
X12445000Y-12228000D02*
X12425953Y-12237524D01*
X12425953Y-12237524D02*
X12378334Y-12237524D01*
X12378334Y-12237524D02*
X12359286Y-12228000D01*
X12359286Y-12228000D02*
X12349762Y-12208952D01*
X12349762Y-12208952D02*
X12349762Y-12189905D01*
X12349762Y-12189905D02*
X12359286Y-12170857D01*
X12359286Y-12170857D02*
X12378334Y-12161333D01*
X12378334Y-12161333D02*
X12425953Y-12161333D01*
X12425953Y-12161333D02*
X12445000Y-12151809D01*
X12511667Y-12104190D02*
X12587858Y-12104190D01*
X12540239Y-12037524D02*
X12540239Y-12208952D01*
X12540239Y-12208952D02*
X12549762Y-12228000D01*
X12549762Y-12228000D02*
X12568810Y-12237524D01*
X12568810Y-12237524D02*
X12587858Y-12237524D01*
X12730715Y-12228000D02*
X12711667Y-12237524D01*
X12711667Y-12237524D02*
X12673572Y-12237524D01*
X12673572Y-12237524D02*
X12654524Y-12228000D01*
X12654524Y-12228000D02*
X12645000Y-12208952D01*
X12645000Y-12208952D02*
X12645000Y-12132762D01*
X12645000Y-12132762D02*
X12654524Y-12113714D01*
X12654524Y-12113714D02*
X12673572Y-12104190D01*
X12673572Y-12104190D02*
X12711667Y-12104190D01*
X12711667Y-12104190D02*
X12730715Y-12113714D01*
X12730715Y-12113714D02*
X12740239Y-12132762D01*
X12740239Y-12132762D02*
X12740239Y-12151809D01*
X12740239Y-12151809D02*
X12645000Y-12170857D01*
X12911667Y-12237524D02*
X12911667Y-12037524D01*
X12911667Y-12228000D02*
X12892620Y-12237524D01*
X12892620Y-12237524D02*
X12854524Y-12237524D01*
X12854524Y-12237524D02*
X12835477Y-12228000D01*
X12835477Y-12228000D02*
X12825953Y-12218476D01*
X12825953Y-12218476D02*
X12816429Y-12199428D01*
X12816429Y-12199428D02*
X12816429Y-12142286D01*
X12816429Y-12142286D02*
X12825953Y-12123238D01*
X12825953Y-12123238D02*
X12835477Y-12113714D01*
X12835477Y-12113714D02*
X12854524Y-12104190D01*
X12854524Y-12104190D02*
X12892620Y-12104190D01*
X12892620Y-12104190D02*
X12911667Y-12113714D01*
X12987858Y-12313714D02*
X12997381Y-12304190D01*
X12997381Y-12304190D02*
X13016429Y-12275619D01*
X13016429Y-12275619D02*
X13025953Y-12256571D01*
X13025953Y-12256571D02*
X13035477Y-12228000D01*
X13035477Y-12228000D02*
X13045000Y-12180381D01*
X13045000Y-12180381D02*
X13045000Y-12142286D01*
X13045000Y-12142286D02*
X13035477Y-12094667D01*
X13035477Y-12094667D02*
X13025953Y-12066095D01*
X13025953Y-12066095D02*
X13016429Y-12047048D01*
X13016429Y-12047048D02*
X12997381Y-12018476D01*
X12997381Y-12018476D02*
X12987858Y-12008952D01*
M02*
