%TF.GenerationSoftware,KiCad,Pcbnew,7.0.2*%
%TF.CreationDate,2024-02-07T12:24:33+01:00*%
%TF.ProjectId,SyringePumpShield,53797269-6e67-4655-9075-6d7053686965,rev?*%
%TF.SameCoordinates,Original*%
%TF.FileFunction,Copper,L2,Bot*%
%TF.FilePolarity,Positive*%
%FSLAX46Y46*%
G04 Gerber Fmt 4.6, Leading zero omitted, Abs format (unit mm)*
G04 Created by KiCad (PCBNEW 7.0.2) date 2024-02-07 12:24:33*
%MOMM*%
%LPD*%
G01*
G04 APERTURE LIST*
G04 Aperture macros list*
%AMRoundRect*
0 Rectangle with rounded corners*
0 $1 Rounding radius*
0 $2 $3 $4 $5 $6 $7 $8 $9 X,Y pos of 4 corners*
0 Add a 4 corners polygon primitive as box body*
4,1,4,$2,$3,$4,$5,$6,$7,$8,$9,$2,$3,0*
0 Add four circle primitives for the rounded corners*
1,1,$1+$1,$2,$3*
1,1,$1+$1,$4,$5*
1,1,$1+$1,$6,$7*
1,1,$1+$1,$8,$9*
0 Add four rect primitives between the rounded corners*
20,1,$1+$1,$2,$3,$4,$5,0*
20,1,$1+$1,$4,$5,$6,$7,0*
20,1,$1+$1,$6,$7,$8,$9,0*
20,1,$1+$1,$8,$9,$2,$3,0*%
G04 Aperture macros list end*
%TA.AperFunction,ComponentPad*%
%ADD10RoundRect,0.250000X0.600000X0.725000X-0.600000X0.725000X-0.600000X-0.725000X0.600000X-0.725000X0*%
%TD*%
%TA.AperFunction,ComponentPad*%
%ADD11O,1.700000X1.950000*%
%TD*%
%TA.AperFunction,ComponentPad*%
%ADD12C,1.400000*%
%TD*%
%TA.AperFunction,ComponentPad*%
%ADD13O,1.400000X1.400000*%
%TD*%
%TA.AperFunction,ComponentPad*%
%ADD14RoundRect,0.250000X0.600000X0.750000X-0.600000X0.750000X-0.600000X-0.750000X0.600000X-0.750000X0*%
%TD*%
%TA.AperFunction,ComponentPad*%
%ADD15O,1.700000X2.000000*%
%TD*%
%TA.AperFunction,ComponentPad*%
%ADD16R,1.500000X1.500000*%
%TD*%
%TA.AperFunction,ComponentPad*%
%ADD17C,1.500000*%
%TD*%
%TA.AperFunction,ComponentPad*%
%ADD18C,3.000000*%
%TD*%
%TA.AperFunction,ComponentPad*%
%ADD19R,3.000000X3.000000*%
%TD*%
%TA.AperFunction,ComponentPad*%
%ADD20O,1.727200X1.727200*%
%TD*%
%TA.AperFunction,ComponentPad*%
%ADD21R,1.727200X1.727200*%
%TD*%
%TA.AperFunction,ComponentPad*%
%ADD22R,2.400000X1.600000*%
%TD*%
%TA.AperFunction,ComponentPad*%
%ADD23O,2.400000X1.600000*%
%TD*%
%TA.AperFunction,ViaPad*%
%ADD24C,0.800000*%
%TD*%
%TA.AperFunction,Conductor*%
%ADD25C,0.500000*%
%TD*%
%TA.AperFunction,Conductor*%
%ADD26C,1.800000*%
%TD*%
%TA.AperFunction,Conductor*%
%ADD27C,3.400000*%
%TD*%
G04 APERTURE END LIST*
D10*
%TO.P,J13,1,Pin_1*%
%TO.N,+5V*%
X81000000Y-73000000D03*
D11*
%TO.P,J13,2,Pin_2*%
%TO.N,Endstop-*%
X78500000Y-73000000D03*
%TO.P,J13,3,Pin_3*%
%TO.N,GND*%
X76000000Y-73000000D03*
%TD*%
D10*
%TO.P,J12,1,Pin_1*%
%TO.N,+5V*%
X81000000Y-83000000D03*
D11*
%TO.P,J12,2,Pin_2*%
%TO.N,Endstop+*%
X78500000Y-83000000D03*
%TO.P,J12,3,Pin_3*%
%TO.N,GND*%
X76000000Y-83000000D03*
%TD*%
D10*
%TO.P,J11,1,Pin_1*%
%TO.N,+5V*%
X81000000Y-93000000D03*
D11*
%TO.P,J11,2,Pin_2*%
%TO.N,Encoder*%
X78500000Y-93000000D03*
%TO.P,J11,3,Pin_3*%
%TO.N,GND*%
X76000000Y-93000000D03*
%TD*%
D12*
%TO.P,R8,1*%
%TO.N,led*%
X69000000Y-96500000D03*
D13*
%TO.P,R8,2*%
%TO.N,Net-(J14-Pin_2)*%
X69000000Y-88880000D03*
%TD*%
D12*
%TO.P,R7,1*%
%TO.N,+5V*%
X65000000Y-96500000D03*
D13*
%TO.P,R7,2*%
%TO.N,Net-(J1-Pin_2)*%
X65000000Y-88880000D03*
%TD*%
D14*
%TO.P,J14,1,Pin_1*%
%TO.N,GND*%
X69000000Y-83000000D03*
D15*
%TO.P,J14,2,Pin_2*%
%TO.N,Net-(J14-Pin_2)*%
X66500000Y-83000000D03*
%TD*%
D10*
%TO.P,J9,1,Pin_1*%
%TO.N,GND*%
X114500000Y-71500000D03*
D11*
%TO.P,J9,2,Pin_2*%
%TO.N,ENA+*%
X112000000Y-71500000D03*
%TO.P,J9,3,Pin_3*%
%TO.N,GND*%
X109500000Y-71500000D03*
%TO.P,J9,4,Pin_4*%
%TO.N,DIR+*%
X107000000Y-71500000D03*
%TO.P,J9,5,Pin_5*%
%TO.N,GND*%
X104500000Y-71500000D03*
%TO.P,J9,6,Pin_6*%
%TO.N,PUL+*%
X102000000Y-71500000D03*
%TD*%
D14*
%TO.P,J1,1,Pin_1*%
%TO.N,GND*%
X69000000Y-73000000D03*
D15*
%TO.P,J1,2,Pin_2*%
%TO.N,Net-(J1-Pin_2)*%
X66500000Y-73000000D03*
%TD*%
D16*
%TO.P,Q1,1,C*%
%TO.N,Net-(J3-Pin_2)*%
X94500000Y-96850000D03*
D17*
%TO.P,Q1,2,B*%
%TO.N,Net-(Q1-B)*%
X91960000Y-96850000D03*
%TO.P,Q1,3,E*%
%TO.N,+24V*%
X89420000Y-96850000D03*
%TD*%
D12*
%TO.P,R2,1*%
%TO.N,Net-(R2-Pad1)*%
X105000000Y-97620000D03*
D13*
%TO.P,R2,2*%
%TO.N,+24V*%
X105000000Y-90000000D03*
%TD*%
D18*
%TO.P,J2,2,Pin_2*%
%TO.N,GND*%
X124000000Y-66420000D03*
D19*
%TO.P,J2,1,Pin_1*%
%TO.N,+24V*%
X124000000Y-71500000D03*
%TD*%
D12*
%TO.P,R5,1*%
%TO.N,Net-(R5-Pad1)*%
X105000000Y-77935000D03*
D13*
%TO.P,R5,2*%
%TO.N,+24V*%
X105000000Y-85555000D03*
%TD*%
D14*
%TO.P,J3,1,Pin_1*%
%TO.N,GND*%
X81000000Y-104000000D03*
D15*
%TO.P,J3,2,Pin_2*%
%TO.N,Net-(J3-Pin_2)*%
X78500000Y-104000000D03*
%TD*%
D14*
%TO.P,J6,1,Pin_1*%
%TO.N,GND*%
X69000000Y-104000000D03*
D15*
%TO.P,J6,2,Pin_2*%
%TO.N,Net-(J6-Pin_2)*%
X66500000Y-104000000D03*
%TD*%
D12*
%TO.P,R1,1*%
%TO.N,Valve A trigger*%
X96087500Y-85310000D03*
D13*
%TO.P,R1,2*%
%TO.N,Net-(R1-Pad2)*%
X88467500Y-85310000D03*
%TD*%
D20*
%TO.P,A1,VIN,VIN*%
%TO.N,unconnected-(A1-PadVIN)*%
X97180000Y-112080000D03*
%TO.P,A1,SDA,SDA*%
%TO.N,unconnected-(A1-PadSDA)*%
X72796000Y-63820000D03*
%TO.P,A1,SCL,SCL*%
%TO.N,unconnected-(A1-PadSCL)*%
X70256000Y-63820000D03*
%TO.P,A1,SCK,SPI_SCK*%
%TO.N,unconnected-(A1-SPI_SCK-PadSCK)*%
X115087000Y-86680000D03*
%TO.P,A1,RST2,SPI_RESET*%
%TO.N,unconnected-(A1-SPI_RESET-PadRST2)*%
X115087000Y-89220000D03*
%TO.P,A1,RST1,RESET*%
%TO.N,unconnected-(A1-RESET-PadRST1)*%
X84480000Y-112080000D03*
%TO.P,A1,MOSI,SPI_MOSI*%
%TO.N,unconnected-(A1-SPI_MOSI-PadMOSI)*%
X117627000Y-86680000D03*
%TO.P,A1,MISO,SPI_MISO*%
%TO.N,unconnected-(A1-SPI_MISO-PadMISO)*%
X115087000Y-84140000D03*
%TO.P,A1,IORF,IOREF*%
%TO.N,unconnected-(A1-IOREF-PadIORF)*%
X81940000Y-112080000D03*
D21*
%TO.P,A1,GND4,SPI_GND*%
%TO.N,unconnected-(A1-SPI_GND-PadGND4)*%
X117627000Y-89220000D03*
%TO.P,A1,GND3,GND*%
%TO.N,GND*%
X94640000Y-112080000D03*
%TO.P,A1,GND2,GND*%
X92100000Y-112080000D03*
%TO.P,A1,GND1,GND*%
X77876000Y-63820000D03*
D20*
%TO.P,A1,D13,D13*%
%TO.N,led*%
X80416000Y-63820000D03*
%TO.P,A1,D12,D12*%
%TO.N,unconnected-(A1-PadD12)*%
X82956000Y-63820000D03*
%TO.P,A1,D11,D11*%
%TO.N,unconnected-(A1-PadD11)*%
X85496000Y-63820000D03*
%TO.P,A1,D10,D10_CS*%
%TO.N,unconnected-(A1-D10_CS-PadD10)*%
X88036000Y-63820000D03*
%TO.P,A1,D9,D9*%
%TO.N,Endstop+*%
X90576000Y-63820000D03*
%TO.P,A1,D8,D8*%
%TO.N,Endstop-*%
X93116000Y-63820000D03*
%TO.P,A1,D7,D7*%
%TO.N,PUL+*%
X97180000Y-63820000D03*
%TO.P,A1,D6,D6*%
%TO.N,DIR+*%
X99720000Y-63820000D03*
%TO.P,A1,D5,D5*%
%TO.N,ENA+*%
X102260000Y-63820000D03*
%TO.P,A1,D4,D4*%
%TO.N,unconnected-(A1-PadD4)*%
X104800000Y-63820000D03*
%TO.P,A1,D3,D3_INT1*%
%TO.N,unconnected-(A1-D3_INT1-PadD3)*%
X107340000Y-63820000D03*
%TO.P,A1,D2,D2_INT0*%
%TO.N,Encoder*%
X109880000Y-63820000D03*
%TO.P,A1,D1,D1/TX*%
%TO.N,unconnected-(A1-D1{slash}TX-PadD1)*%
X112420000Y-63820000D03*
%TO.P,A1,D0,D0/RX*%
%TO.N,unconnected-(A1-D0{slash}RX-PadD0)*%
X114960000Y-63820000D03*
%TO.P,A1,AREF,AREF*%
%TO.N,unconnected-(A1-PadAREF)*%
X75336000Y-63820000D03*
%TO.P,A1,A5,A5*%
%TO.N,Valve B IO2*%
X114960000Y-112080000D03*
%TO.P,A1,A4,A4*%
%TO.N,Valve B IO1*%
X112420000Y-112080000D03*
%TO.P,A1,A3,A3*%
%TO.N,Valve B trigger*%
X109880000Y-112080000D03*
%TO.P,A1,A2,A2*%
%TO.N,Valve A IO2*%
X107340000Y-112080000D03*
%TO.P,A1,A1,A1*%
%TO.N,Valve A IO1*%
X104800000Y-112080000D03*
%TO.P,A1,A0,A0*%
%TO.N,Valve A trigger*%
X102260000Y-112080000D03*
%TO.P,A1,5V2,SPI_5V*%
%TO.N,unconnected-(A1-SPI_5V-Pad5V2)*%
X117627000Y-84140000D03*
%TO.P,A1,5V1,5V*%
%TO.N,+5V*%
X89560000Y-112080000D03*
%TO.P,A1,3V3,3.3V*%
%TO.N,unconnected-(A1-3.3V-Pad3V3)*%
X87020000Y-112080000D03*
%TO.P,A1,*%
%TO.N,*%
X79400000Y-112080000D03*
%TD*%
D12*
%TO.P,R4,1*%
%TO.N,Valve B trigger*%
X96087500Y-81500000D03*
D13*
%TO.P,R4,2*%
%TO.N,Net-(R4-Pad2)*%
X88467500Y-81500000D03*
%TD*%
D10*
%TO.P,J8,1,Pin_1*%
%TO.N,+5V*%
X110500000Y-105442500D03*
D11*
%TO.P,J8,2,Pin_2*%
%TO.N,Valve B IO2*%
X108000000Y-105442500D03*
%TO.P,J8,3,Pin_3*%
%TO.N,Valve B IO1*%
X105500000Y-105442500D03*
%TO.P,J8,4,Pin_4*%
%TO.N,GND*%
X103000000Y-105442500D03*
%TD*%
D16*
%TO.P,Q2,1,C*%
%TO.N,Net-(J6-Pin_2)*%
X94500000Y-90500000D03*
D17*
%TO.P,Q2,2,B*%
%TO.N,Net-(Q2-B)*%
X91960000Y-90500000D03*
%TO.P,Q2,3,E*%
%TO.N,+24V*%
X89420000Y-90500000D03*
%TD*%
D22*
%TO.P,U1,1*%
%TO.N,Net-(R1-Pad2)*%
X95452500Y-71920000D03*
D23*
%TO.P,U1,2*%
%TO.N,GND*%
X95452500Y-69380000D03*
%TO.P,U1,3*%
X87832500Y-69380000D03*
%TO.P,U1,4*%
%TO.N,Net-(R2-Pad1)*%
X87832500Y-71920000D03*
%TD*%
D14*
%TO.P,J7,1,Pin_1*%
%TO.N,GND*%
X127000000Y-108000000D03*
D15*
%TO.P,J7,2,Pin_2*%
%TO.N,+24V*%
X124500000Y-108000000D03*
%TD*%
D12*
%TO.P,R3,1*%
%TO.N,Net-(R2-Pad1)*%
X100555000Y-90000000D03*
D13*
%TO.P,R3,2*%
%TO.N,Net-(Q1-B)*%
X100555000Y-97620000D03*
%TD*%
D22*
%TO.P,U2,1*%
%TO.N,Net-(R4-Pad2)*%
X95452500Y-77000000D03*
D23*
%TO.P,U2,2*%
%TO.N,GND*%
X95452500Y-74460000D03*
%TO.P,U2,3*%
X87832500Y-74460000D03*
%TO.P,U2,4*%
%TO.N,Net-(R5-Pad1)*%
X87832500Y-77000000D03*
%TD*%
D12*
%TO.P,R6,1*%
%TO.N,Net-(R5-Pad1)*%
X100555000Y-77935000D03*
D13*
%TO.P,R6,2*%
%TO.N,Net-(Q2-B)*%
X100555000Y-85555000D03*
%TD*%
D10*
%TO.P,J5,1,Pin_1*%
%TO.N,+5V*%
X96000000Y-105442500D03*
D11*
%TO.P,J5,2,Pin_2*%
%TO.N,Valve A IO2*%
X93500000Y-105442500D03*
%TO.P,J5,3,Pin_3*%
%TO.N,Valve A IO1*%
X91000000Y-105442500D03*
%TO.P,J5,4,Pin_4*%
%TO.N,GND*%
X88500000Y-105442500D03*
%TD*%
D15*
%TO.P,J4,2,Pin_2*%
%TO.N,+24V*%
X124500000Y-99500000D03*
D14*
%TO.P,J4,1,Pin_1*%
%TO.N,GND*%
X127000000Y-99500000D03*
%TD*%
D24*
%TO.N,Net-(J6-Pin_2)*%
X72500000Y-97000000D03*
X79000000Y-97000000D03*
%TD*%
D25*
%TO.N,Net-(J6-Pin_2)*%
X66500000Y-100500000D02*
X66500000Y-104000000D01*
X67500000Y-99500000D02*
X66500000Y-100500000D01*
X71500000Y-99500000D02*
X67500000Y-99500000D01*
X72500000Y-98500000D02*
X71500000Y-99500000D01*
X72500000Y-97000000D02*
X72500000Y-98500000D01*
X93500000Y-93500000D02*
X94500000Y-92500000D01*
X94500000Y-92500000D02*
X94500000Y-90500000D01*
X86500000Y-93500000D02*
X93500000Y-93500000D01*
X79000000Y-97000000D02*
X83000000Y-97000000D01*
X83000000Y-97000000D02*
X86500000Y-93500000D01*
%TO.N,Net-(R2-Pad1)*%
X100555000Y-93175000D02*
X100555000Y-90000000D01*
X105000000Y-97620000D02*
X100555000Y-93175000D01*
%TO.N,Net-(R5-Pad1)*%
X105000000Y-77935000D02*
X100555000Y-77935000D01*
%TO.N,Net-(J3-Pin_2)*%
X94500000Y-99500000D02*
X94500000Y-96850000D01*
X93500000Y-100500000D02*
X94500000Y-99500000D01*
X79500000Y-100500000D02*
X93500000Y-100500000D01*
X78500000Y-101500000D02*
X79500000Y-100500000D01*
X78500000Y-104000000D02*
X78500000Y-101500000D01*
%TO.N,Valve B trigger*%
X97500000Y-82912500D02*
X96087500Y-81500000D01*
X98000000Y-101500000D02*
X97500000Y-101000000D01*
X112000000Y-101500000D02*
X98000000Y-101500000D01*
X113500000Y-107480000D02*
X113500000Y-103000000D01*
X97500000Y-101000000D02*
X97500000Y-82912500D01*
X109880000Y-112080000D02*
X109880000Y-111100000D01*
X109880000Y-111100000D02*
X113500000Y-107480000D01*
X113500000Y-103000000D02*
X112000000Y-101500000D01*
%TO.N,Valve A trigger*%
X96500000Y-85722500D02*
X96087500Y-85310000D01*
X96500000Y-101500000D02*
X96500000Y-85722500D01*
X97500000Y-102500000D02*
X96500000Y-101500000D01*
X111500000Y-102500000D02*
X97500000Y-102500000D01*
X112500000Y-103500000D02*
X111500000Y-102500000D01*
X112500000Y-107000000D02*
X112500000Y-103500000D01*
X111500000Y-108000000D02*
X112500000Y-107000000D01*
X105500000Y-108000000D02*
X111500000Y-108000000D01*
X102260000Y-111240000D02*
X105500000Y-108000000D01*
X102260000Y-112080000D02*
X102260000Y-111240000D01*
D26*
%TO.N,GND*%
X88500000Y-105442500D02*
X88500000Y-108500000D01*
X88500000Y-108500000D02*
X92100000Y-108500000D01*
X81000000Y-108500000D02*
X88500000Y-108500000D01*
X102000000Y-108500000D02*
X103000000Y-107500000D01*
X103000000Y-107500000D02*
X103000000Y-105442500D01*
X92100000Y-108500000D02*
X102000000Y-108500000D01*
X92100000Y-108500000D02*
X92100000Y-112080000D01*
X114500000Y-71500000D02*
X114500000Y-66500000D01*
X123920000Y-66500000D02*
X114500000Y-66500000D01*
X114500000Y-66500000D02*
X109500000Y-66500000D01*
X109500000Y-66500000D02*
X104500000Y-66500000D01*
X109500000Y-71500000D02*
X109500000Y-66500000D01*
X104500000Y-66500000D02*
X98332500Y-66500000D01*
X104500000Y-71500000D02*
X104500000Y-66500000D01*
%TO.N,+24V*%
X105000000Y-90000000D02*
X105000000Y-85555000D01*
X107000000Y-92000000D02*
X123000000Y-92000000D01*
X105000000Y-90000000D02*
X107000000Y-92000000D01*
D27*
X123000000Y-92000000D02*
X123000000Y-107500000D01*
X123000000Y-72500000D02*
X123000000Y-92000000D01*
D25*
%TO.N,GND*%
X90500000Y-73500000D02*
X90500000Y-69380000D01*
D26*
X95452500Y-69380000D02*
X90500000Y-69380000D01*
D25*
X89540000Y-74460000D02*
X90500000Y-73500000D01*
X87832500Y-74460000D02*
X89540000Y-74460000D01*
D26*
X90500000Y-69380000D02*
X87832500Y-69380000D01*
D25*
%TO.N,+5V*%
X81000000Y-83000000D02*
X81000000Y-73000000D01*
X81000000Y-93000000D02*
X81000000Y-83000000D01*
%TO.N,Net-(J1-Pin_2)*%
X66500000Y-73500000D02*
X66500000Y-73000000D01*
X65000000Y-81000000D02*
X65000000Y-75000000D01*
X64500000Y-81500000D02*
X65000000Y-81000000D01*
X65000000Y-75000000D02*
X66500000Y-73500000D01*
X64500000Y-84500000D02*
X64500000Y-81500000D01*
X65000000Y-85000000D02*
X64500000Y-84500000D01*
X65000000Y-88880000D02*
X65000000Y-85000000D01*
%TO.N,Net-(J14-Pin_2)*%
X69000000Y-87000000D02*
X69000000Y-88880000D01*
X66500000Y-84500000D02*
X69000000Y-87000000D01*
X66500000Y-83000000D02*
X66500000Y-84500000D01*
D26*
%TO.N,GND*%
X86000000Y-67500000D02*
X78000000Y-67500000D01*
X87832500Y-69332500D02*
X86000000Y-67500000D01*
X78000000Y-67500000D02*
X77876000Y-67624000D01*
X87832500Y-69380000D02*
X87832500Y-69332500D01*
X77876000Y-67624000D02*
X77876000Y-63820000D01*
X76000000Y-73000000D02*
X76000000Y-69500000D01*
X76000000Y-69500000D02*
X77876000Y-67624000D01*
X98332500Y-66500000D02*
X95452500Y-69380000D01*
X124000000Y-66420000D02*
X123920000Y-66500000D01*
D25*
X81000000Y-104000000D02*
X81000000Y-108500000D01*
D26*
X76000000Y-108500000D02*
X81000000Y-108500000D01*
X75000000Y-104000000D02*
X75000000Y-107500000D01*
D25*
X69000000Y-104000000D02*
X75000000Y-104000000D01*
D26*
X75000000Y-100500000D02*
X75000000Y-104000000D01*
D25*
X69000000Y-83000000D02*
X76000000Y-83000000D01*
X69000000Y-73000000D02*
X76000000Y-73000000D01*
D26*
X75000000Y-107500000D02*
X76000000Y-108500000D01*
X76000000Y-99500000D02*
X75000000Y-100500000D01*
X76000000Y-93000000D02*
X76000000Y-99500000D01*
X94640000Y-112080000D02*
X92100000Y-112080000D01*
X76000000Y-83000000D02*
X76000000Y-93000000D01*
X76000000Y-73000000D02*
X76000000Y-83000000D01*
X127000000Y-99500000D02*
X128500000Y-99500000D01*
D27*
X128500000Y-99500000D02*
X128500000Y-107500000D01*
X128500000Y-68000000D02*
X128500000Y-99500000D01*
D26*
%TO.N,+24V*%
X124500000Y-99500000D02*
X123000000Y-99500000D01*
X123500000Y-108000000D02*
X123000000Y-107500000D01*
X124500000Y-108000000D02*
X123500000Y-108000000D01*
%TO.N,GND*%
X128000000Y-108000000D02*
X128500000Y-107500000D01*
X127000000Y-108000000D02*
X128000000Y-108000000D01*
D27*
%TO.N,+24V*%
X124000000Y-71500000D02*
X123000000Y-72500000D01*
%TO.N,GND*%
X126920000Y-66420000D02*
X128500000Y-68000000D01*
X124000000Y-66420000D02*
X126920000Y-66420000D01*
D25*
%TO.N,Net-(R4-Pad2)*%
X92277500Y-81500000D02*
X88467500Y-81500000D01*
X92912500Y-80865000D02*
X92277500Y-81500000D01*
X92912500Y-77635000D02*
X92912500Y-80865000D01*
%TO.N,Net-(R1-Pad2)*%
X91007500Y-79595000D02*
X91642500Y-78960000D01*
X87197500Y-79595000D02*
X91007500Y-79595000D01*
X86562500Y-80230000D02*
X87197500Y-79595000D01*
X86562500Y-84675000D02*
X86562500Y-80230000D01*
X91642500Y-78960000D02*
X91642500Y-72555000D01*
X88467500Y-85310000D02*
X87197500Y-85310000D01*
X87197500Y-85310000D02*
X86562500Y-84675000D01*
X92277500Y-71920000D02*
X95452500Y-71920000D01*
X91642500Y-72555000D02*
X92277500Y-71920000D01*
%TO.N,Net-(R4-Pad2)*%
X93547500Y-77000000D02*
X95452500Y-77000000D01*
X92912500Y-77635000D02*
X93547500Y-77000000D01*
%TD*%
%TA.AperFunction,Conductor*%
%TO.N,GND*%
G36*
X94173155Y-111866799D02*
G01*
X94132000Y-112006961D01*
X94132000Y-112153039D01*
X94173155Y-112293201D01*
X94196804Y-112330000D01*
X92543196Y-112330000D01*
X92566845Y-112293201D01*
X92608000Y-112153039D01*
X92608000Y-112006961D01*
X92566845Y-111866799D01*
X92543196Y-111830000D01*
X94196804Y-111830000D01*
X94173155Y-111866799D01*
G37*
%TD.AperFunction*%
%TA.AperFunction,Conductor*%
G36*
X93422162Y-72989454D02*
G01*
X93502944Y-73043430D01*
X93537708Y-73087024D01*
X93621100Y-73219742D01*
X93622684Y-73222262D01*
X93750238Y-73349816D01*
X93750240Y-73349817D01*
X93750241Y-73349818D01*
X93870718Y-73425519D01*
X93941317Y-73492264D01*
X93980999Y-73580945D01*
X93983724Y-73678062D01*
X93949076Y-73768829D01*
X93942213Y-73779170D01*
X93922367Y-73807513D01*
X93826232Y-74013677D01*
X93773627Y-74209999D01*
X93773628Y-74210000D01*
X95136814Y-74210000D01*
X95124859Y-74221955D01*
X95067335Y-74334852D01*
X95047514Y-74460000D01*
X95067335Y-74585148D01*
X95124859Y-74698045D01*
X95136814Y-74710000D01*
X93773627Y-74710000D01*
X93826232Y-74906322D01*
X93922366Y-75112483D01*
X93942212Y-75140827D01*
X93981340Y-75229754D01*
X93983459Y-75326886D01*
X93948246Y-75417435D01*
X93881061Y-75487616D01*
X93870719Y-75494480D01*
X93750240Y-75570182D01*
X93622680Y-75697742D01*
X93527363Y-75849437D01*
X93460618Y-75920036D01*
X93371936Y-75959717D01*
X93341851Y-75964612D01*
X93143547Y-76024767D01*
X93059377Y-76069757D01*
X92966405Y-76097959D01*
X92869718Y-76088436D01*
X92784035Y-76042637D01*
X92722401Y-75967535D01*
X92694199Y-75874563D01*
X92693000Y-75850158D01*
X92693000Y-73219500D01*
X92711954Y-73124212D01*
X92765930Y-73043430D01*
X92846712Y-72989454D01*
X92942000Y-72970500D01*
X93326874Y-72970500D01*
X93422162Y-72989454D01*
G37*
%TD.AperFunction*%
%TA.AperFunction,Conductor*%
G36*
X129008131Y-61001032D02*
G01*
X129083743Y-61005988D01*
X129253782Y-61018150D01*
X129284573Y-61022297D01*
X129389420Y-61043152D01*
X129523411Y-61072300D01*
X129550374Y-61079787D01*
X129655995Y-61115640D01*
X129662830Y-61118075D01*
X129782884Y-61162853D01*
X129805977Y-61172824D01*
X129908320Y-61223293D01*
X129917499Y-61228060D01*
X130027584Y-61288172D01*
X130046568Y-61299665D01*
X130142492Y-61363759D01*
X130153353Y-61371445D01*
X130252860Y-61445935D01*
X130267776Y-61458028D01*
X130354905Y-61534438D01*
X130366780Y-61545560D01*
X130454438Y-61633218D01*
X130465563Y-61645096D01*
X130541966Y-61732217D01*
X130554068Y-61747145D01*
X130613761Y-61826885D01*
X130628546Y-61846635D01*
X130636247Y-61857518D01*
X130700327Y-61953420D01*
X130711833Y-61972425D01*
X130771932Y-62082489D01*
X130776711Y-62091691D01*
X130827172Y-62194016D01*
X130837151Y-62217128D01*
X130881890Y-62337076D01*
X130884376Y-62344056D01*
X130920197Y-62449582D01*
X130927720Y-62476690D01*
X130956846Y-62610578D01*
X130959131Y-62622061D01*
X130977721Y-62715524D01*
X130981846Y-62746182D01*
X130994017Y-62916351D01*
X130998968Y-62991892D01*
X130999500Y-63008148D01*
X130999500Y-112991844D01*
X130998967Y-113008131D01*
X130994017Y-113083648D01*
X130981848Y-113253778D01*
X130977699Y-113284582D01*
X130956847Y-113389418D01*
X130956847Y-113389419D01*
X130927704Y-113523387D01*
X130920208Y-113550384D01*
X130884376Y-113655942D01*
X130881890Y-113662922D01*
X130837151Y-113782870D01*
X130827172Y-113805982D01*
X130776711Y-113908307D01*
X130771932Y-113917509D01*
X130711833Y-114027573D01*
X130700327Y-114046578D01*
X130636245Y-114142483D01*
X130628544Y-114153366D01*
X130554079Y-114252840D01*
X130541952Y-114267797D01*
X130465568Y-114354896D01*
X130454430Y-114366789D01*
X130366789Y-114454430D01*
X130354896Y-114465568D01*
X130267797Y-114541952D01*
X130252840Y-114554079D01*
X130153366Y-114628544D01*
X130142483Y-114636245D01*
X130046578Y-114700327D01*
X130027573Y-114711833D01*
X129917509Y-114771932D01*
X129908307Y-114776711D01*
X129805982Y-114827172D01*
X129782870Y-114837151D01*
X129662922Y-114881890D01*
X129655942Y-114884376D01*
X129550416Y-114920197D01*
X129523308Y-114927720D01*
X129389421Y-114956846D01*
X129367588Y-114961189D01*
X129284481Y-114977720D01*
X129253816Y-114981846D01*
X129083648Y-114994017D01*
X129050736Y-114996174D01*
X129008108Y-114998968D01*
X128991851Y-114999500D01*
X64508155Y-114999500D01*
X64491869Y-114998967D01*
X64416351Y-114994017D01*
X64246220Y-114981848D01*
X64215416Y-114977699D01*
X64110581Y-114956847D01*
X64091657Y-114952730D01*
X63976607Y-114927703D01*
X63949614Y-114920208D01*
X63844056Y-114884376D01*
X63837093Y-114881896D01*
X63787156Y-114863270D01*
X63717128Y-114837151D01*
X63694016Y-114827172D01*
X63591691Y-114776711D01*
X63582489Y-114771932D01*
X63472425Y-114711833D01*
X63453420Y-114700327D01*
X63357515Y-114636245D01*
X63346632Y-114628544D01*
X63247158Y-114554079D01*
X63232201Y-114541952D01*
X63145102Y-114465568D01*
X63133209Y-114454430D01*
X63045568Y-114366789D01*
X63034430Y-114354896D01*
X62958046Y-114267797D01*
X62945927Y-114252850D01*
X62871447Y-114153356D01*
X62863753Y-114142483D01*
X62844590Y-114113803D01*
X62799665Y-114046568D01*
X62788172Y-114027584D01*
X62728060Y-113917499D01*
X62723287Y-113908307D01*
X62697876Y-113856779D01*
X62672824Y-113805977D01*
X62662853Y-113782884D01*
X62618075Y-113662830D01*
X62615640Y-113655995D01*
X62579798Y-113550408D01*
X62572281Y-113523321D01*
X62543157Y-113389441D01*
X62522271Y-113284444D01*
X62518154Y-113253832D01*
X62505986Y-113083708D01*
X62501031Y-113008108D01*
X62500500Y-112991854D01*
X62500500Y-112147767D01*
X63575788Y-112147767D01*
X63605413Y-112417019D01*
X63673926Y-112679083D01*
X63673927Y-112679087D01*
X63673928Y-112679088D01*
X63779870Y-112928390D01*
X63835809Y-113020049D01*
X63920981Y-113159609D01*
X64094254Y-113367820D01*
X64199241Y-113461888D01*
X64295998Y-113548582D01*
X64296000Y-113548583D01*
X64296002Y-113548585D01*
X64440856Y-113644419D01*
X64521910Y-113698044D01*
X64767176Y-113813020D01*
X64767178Y-113813020D01*
X64767181Y-113813022D01*
X64953372Y-113869038D01*
X65026569Y-113891060D01*
X65294561Y-113930500D01*
X65294564Y-113930500D01*
X65493085Y-113930500D01*
X65497631Y-113930500D01*
X65700156Y-113915677D01*
X65964553Y-113856780D01*
X66157799Y-113782870D01*
X66217556Y-113760015D01*
X66217558Y-113760014D01*
X66453777Y-113627441D01*
X66668177Y-113461888D01*
X66856186Y-113266881D01*
X67013799Y-113046579D01*
X67137656Y-112805675D01*
X67225118Y-112549305D01*
X67274319Y-112282933D01*
X67281735Y-112080000D01*
X77731234Y-112080000D01*
X77749873Y-112328718D01*
X77805373Y-112571880D01*
X77896493Y-112804048D01*
X78021202Y-113020051D01*
X78176704Y-113215046D01*
X78290103Y-113320265D01*
X78359541Y-113384694D01*
X78565617Y-113525194D01*
X78790331Y-113633410D01*
X79028665Y-113706927D01*
X79275293Y-113744100D01*
X79524707Y-113744100D01*
X79771335Y-113706927D01*
X80009669Y-113633410D01*
X80234383Y-113525194D01*
X80440459Y-113384694D01*
X80500638Y-113328855D01*
X80583379Y-113277938D01*
X80679309Y-113262560D01*
X80773822Y-113285063D01*
X80839361Y-113328855D01*
X80899541Y-113384694D01*
X81105617Y-113525194D01*
X81330331Y-113633410D01*
X81568665Y-113706927D01*
X81815293Y-113744100D01*
X82064707Y-113744100D01*
X82311335Y-113706927D01*
X82549669Y-113633410D01*
X82774383Y-113525194D01*
X82980459Y-113384694D01*
X83040638Y-113328855D01*
X83123379Y-113277938D01*
X83219309Y-113262560D01*
X83313822Y-113285063D01*
X83379361Y-113328855D01*
X83439541Y-113384694D01*
X83645617Y-113525194D01*
X83870331Y-113633410D01*
X84108665Y-113706927D01*
X84355293Y-113744100D01*
X84604707Y-113744100D01*
X84851335Y-113706927D01*
X85089669Y-113633410D01*
X85314383Y-113525194D01*
X85520459Y-113384694D01*
X85580638Y-113328855D01*
X85663379Y-113277938D01*
X85759309Y-113262560D01*
X85853822Y-113285063D01*
X85919361Y-113328855D01*
X85979541Y-113384694D01*
X86185617Y-113525194D01*
X86410331Y-113633410D01*
X86648665Y-113706927D01*
X86895293Y-113744100D01*
X87144707Y-113744100D01*
X87391335Y-113706927D01*
X87629669Y-113633410D01*
X87854383Y-113525194D01*
X88060459Y-113384694D01*
X88120638Y-113328855D01*
X88203379Y-113277938D01*
X88299309Y-113262560D01*
X88393822Y-113285063D01*
X88459361Y-113328855D01*
X88519541Y-113384694D01*
X88725617Y-113525194D01*
X88950331Y-113633410D01*
X89188665Y-113706927D01*
X89435293Y-113744100D01*
X89684707Y-113744100D01*
X89931335Y-113706927D01*
X90169669Y-113633410D01*
X90394383Y-113525194D01*
X90600459Y-113384694D01*
X90622697Y-113364059D01*
X90705437Y-113313142D01*
X90801367Y-113297763D01*
X90895880Y-113320265D01*
X90941281Y-113347255D01*
X90994309Y-113386951D01*
X91129026Y-113437198D01*
X91181934Y-113442886D01*
X91195243Y-113443600D01*
X91849999Y-113443600D01*
X91850000Y-113443598D01*
X91850000Y-112524297D01*
X91955408Y-112572435D01*
X92063666Y-112588000D01*
X92136334Y-112588000D01*
X92244592Y-112572435D01*
X92350000Y-112524297D01*
X92350000Y-113443599D01*
X92350001Y-113443600D01*
X93004757Y-113443600D01*
X93018065Y-113442886D01*
X93070973Y-113437198D01*
X93205688Y-113386952D01*
X93220776Y-113375658D01*
X93308417Y-113333726D01*
X93405432Y-113328524D01*
X93497054Y-113360844D01*
X93519224Y-113375658D01*
X93534311Y-113386952D01*
X93669026Y-113437198D01*
X93721934Y-113442886D01*
X93735243Y-113443600D01*
X94389999Y-113443600D01*
X94390000Y-113443598D01*
X94390000Y-112524297D01*
X94495408Y-112572435D01*
X94603666Y-112588000D01*
X94676334Y-112588000D01*
X94784592Y-112572435D01*
X94890000Y-112524297D01*
X94890000Y-113443599D01*
X94890001Y-113443600D01*
X95544757Y-113443600D01*
X95558065Y-113442886D01*
X95610973Y-113437198D01*
X95745690Y-113386951D01*
X95798717Y-113347256D01*
X95886357Y-113305324D01*
X95983373Y-113300123D01*
X96074994Y-113332444D01*
X96117301Y-113364058D01*
X96139541Y-113384694D01*
X96345617Y-113525194D01*
X96570331Y-113633410D01*
X96808665Y-113706927D01*
X97055293Y-113744100D01*
X97304707Y-113744100D01*
X97551335Y-113706927D01*
X97789669Y-113633410D01*
X98014383Y-113525194D01*
X98220459Y-113384694D01*
X98403292Y-113215049D01*
X98403292Y-113215048D01*
X98403295Y-113215046D01*
X98537642Y-113046579D01*
X98558799Y-113020049D01*
X98683506Y-112804050D01*
X98774627Y-112571877D01*
X98830127Y-112328717D01*
X98848766Y-112080000D01*
X98830127Y-111831283D01*
X98774627Y-111588123D01*
X98774626Y-111588122D01*
X98774626Y-111588119D01*
X98683506Y-111355951D01*
X98683506Y-111355950D01*
X98558799Y-111139951D01*
X98537643Y-111113422D01*
X98403295Y-110944953D01*
X98220461Y-110775308D01*
X98220459Y-110775306D01*
X98014383Y-110634806D01*
X97789669Y-110526590D01*
X97601186Y-110468450D01*
X97551336Y-110453073D01*
X97304707Y-110415900D01*
X97055293Y-110415900D01*
X96808663Y-110453073D01*
X96570334Y-110526589D01*
X96570331Y-110526590D01*
X96345617Y-110634806D01*
X96142853Y-110773048D01*
X96139537Y-110775309D01*
X96117299Y-110795943D01*
X96034555Y-110846859D01*
X95938625Y-110862236D01*
X95844112Y-110839731D01*
X95798718Y-110812744D01*
X95745690Y-110773048D01*
X95610973Y-110722801D01*
X95558065Y-110717113D01*
X95544757Y-110716400D01*
X94890000Y-110716400D01*
X94890000Y-111635702D01*
X94784592Y-111587565D01*
X94676334Y-111572000D01*
X94603666Y-111572000D01*
X94495408Y-111587565D01*
X94390000Y-111635702D01*
X94390000Y-110716401D01*
X94389999Y-110716400D01*
X93735243Y-110716400D01*
X93721934Y-110717113D01*
X93669026Y-110722801D01*
X93534307Y-110773048D01*
X93519217Y-110784345D01*
X93431576Y-110826275D01*
X93334560Y-110831474D01*
X93242940Y-110799151D01*
X93220776Y-110784342D01*
X93205688Y-110773047D01*
X93070973Y-110722801D01*
X93018065Y-110717113D01*
X93004757Y-110716400D01*
X92350001Y-110716400D01*
X92350000Y-110716401D01*
X92350000Y-111635702D01*
X92244592Y-111587565D01*
X92136334Y-111572000D01*
X92063666Y-111572000D01*
X91955408Y-111587565D01*
X91850000Y-111635702D01*
X91850000Y-110716400D01*
X91195243Y-110716400D01*
X91181934Y-110717113D01*
X91129026Y-110722801D01*
X90994309Y-110773048D01*
X90941281Y-110812745D01*
X90853641Y-110854676D01*
X90756625Y-110859877D01*
X90665004Y-110827555D01*
X90622700Y-110795942D01*
X90600459Y-110775306D01*
X90394383Y-110634806D01*
X90169669Y-110526590D01*
X89981186Y-110468450D01*
X89931336Y-110453073D01*
X89684707Y-110415900D01*
X89435293Y-110415900D01*
X89188663Y-110453073D01*
X88950334Y-110526589D01*
X88950331Y-110526590D01*
X88725617Y-110634806D01*
X88605939Y-110716401D01*
X88519538Y-110775308D01*
X88459363Y-110831143D01*
X88376619Y-110882061D01*
X88280689Y-110897439D01*
X88186176Y-110874935D01*
X88120637Y-110831143D01*
X88060461Y-110775308D01*
X88060459Y-110775306D01*
X87854383Y-110634806D01*
X87629669Y-110526590D01*
X87441186Y-110468450D01*
X87391336Y-110453073D01*
X87144707Y-110415900D01*
X86895293Y-110415900D01*
X86648663Y-110453073D01*
X86410334Y-110526589D01*
X86410331Y-110526590D01*
X86185617Y-110634806D01*
X86065939Y-110716401D01*
X85979538Y-110775308D01*
X85919363Y-110831143D01*
X85836619Y-110882061D01*
X85740689Y-110897439D01*
X85646176Y-110874935D01*
X85580637Y-110831143D01*
X85520461Y-110775308D01*
X85520459Y-110775306D01*
X85314383Y-110634806D01*
X85089669Y-110526590D01*
X84901186Y-110468450D01*
X84851336Y-110453073D01*
X84604707Y-110415900D01*
X84355293Y-110415900D01*
X84108663Y-110453073D01*
X83870334Y-110526589D01*
X83870331Y-110526590D01*
X83645617Y-110634806D01*
X83525939Y-110716401D01*
X83439538Y-110775308D01*
X83379363Y-110831143D01*
X83296619Y-110882061D01*
X83200689Y-110897439D01*
X83106176Y-110874935D01*
X83040637Y-110831143D01*
X82980461Y-110775308D01*
X82980459Y-110775306D01*
X82774383Y-110634806D01*
X82549669Y-110526590D01*
X82361186Y-110468450D01*
X82311336Y-110453073D01*
X82064707Y-110415900D01*
X81815293Y-110415900D01*
X81568663Y-110453073D01*
X81330334Y-110526589D01*
X81330331Y-110526590D01*
X81105617Y-110634806D01*
X80902853Y-110773048D01*
X80899534Y-110775311D01*
X80839360Y-110831144D01*
X80756617Y-110882062D01*
X80660686Y-110897439D01*
X80566174Y-110874934D01*
X80500637Y-110831143D01*
X80440459Y-110775306D01*
X80234383Y-110634806D01*
X80009669Y-110526590D01*
X79821186Y-110468450D01*
X79771336Y-110453073D01*
X79524707Y-110415900D01*
X79275293Y-110415900D01*
X79028663Y-110453073D01*
X78790334Y-110526589D01*
X78790331Y-110526590D01*
X78565617Y-110634806D01*
X78445939Y-110716401D01*
X78359538Y-110775308D01*
X78176704Y-110944953D01*
X78021202Y-111139948D01*
X77896493Y-111355951D01*
X77805373Y-111588119D01*
X77749873Y-111831281D01*
X77731234Y-112080000D01*
X67281735Y-112080000D01*
X67284212Y-112012235D01*
X67254586Y-111742982D01*
X67254586Y-111742980D01*
X67186073Y-111480916D01*
X67186072Y-111480912D01*
X67080130Y-111231610D01*
X66939018Y-111000390D01*
X66892883Y-110944953D01*
X66765745Y-110792179D01*
X66607495Y-110650388D01*
X66564002Y-110611418D01*
X66563999Y-110611416D01*
X66563997Y-110611414D01*
X66338095Y-110461959D01*
X66338093Y-110461958D01*
X66338090Y-110461956D01*
X66147292Y-110372513D01*
X66092818Y-110346977D01*
X65833436Y-110268941D01*
X65833432Y-110268940D01*
X65833431Y-110268940D01*
X65565439Y-110229500D01*
X65362369Y-110229500D01*
X65357852Y-110229830D01*
X65357841Y-110229831D01*
X65159842Y-110244323D01*
X64895445Y-110303220D01*
X64642443Y-110399984D01*
X64406219Y-110532561D01*
X64191827Y-110698108D01*
X64003812Y-110893121D01*
X63846199Y-111113422D01*
X63722344Y-111354324D01*
X63634881Y-111610694D01*
X63585681Y-111877064D01*
X63575788Y-112147767D01*
X62500500Y-112147767D01*
X62500500Y-104214853D01*
X64849500Y-104214853D01*
X64849883Y-104219722D01*
X64849884Y-104219742D01*
X64864778Y-104408990D01*
X64925427Y-104661610D01*
X65024844Y-104901625D01*
X65024846Y-104901628D01*
X65160588Y-105123140D01*
X65329311Y-105320689D01*
X65526860Y-105489412D01*
X65748372Y-105625154D01*
X65988390Y-105724573D01*
X66241006Y-105785221D01*
X66435251Y-105800508D01*
X66499999Y-105805604D01*
X66499999Y-105805603D01*
X66500000Y-105805604D01*
X66758994Y-105785221D01*
X67011610Y-105724573D01*
X67251628Y-105625154D01*
X67473140Y-105489412D01*
X67627438Y-105357628D01*
X67712201Y-105310159D01*
X67808682Y-105298740D01*
X67902190Y-105325111D01*
X67919866Y-105335044D01*
X68080879Y-105434358D01*
X68247301Y-105489505D01*
X68343715Y-105499355D01*
X68356365Y-105499999D01*
X68750000Y-105499999D01*
X68750000Y-104435501D01*
X68857685Y-104484680D01*
X68964237Y-104500000D01*
X69035763Y-104500000D01*
X69142315Y-104484680D01*
X69250000Y-104435501D01*
X69250000Y-105499998D01*
X69250001Y-105499999D01*
X69643632Y-105499999D01*
X69656286Y-105499354D01*
X69752698Y-105489505D01*
X69919121Y-105434358D01*
X70068341Y-105342318D01*
X70192318Y-105218341D01*
X70284358Y-105069121D01*
X70339505Y-104902698D01*
X70349355Y-104806284D01*
X70350000Y-104793634D01*
X70350000Y-104250000D01*
X69433686Y-104250000D01*
X69456274Y-104214853D01*
X76849500Y-104214853D01*
X76849883Y-104219722D01*
X76849884Y-104219742D01*
X76864778Y-104408990D01*
X76925427Y-104661610D01*
X77024844Y-104901625D01*
X77024846Y-104901628D01*
X77160588Y-105123140D01*
X77329311Y-105320689D01*
X77526860Y-105489412D01*
X77748372Y-105625154D01*
X77988390Y-105724573D01*
X78241006Y-105785221D01*
X78500000Y-105805604D01*
X78758994Y-105785221D01*
X79011610Y-105724573D01*
X79251628Y-105625154D01*
X79473140Y-105489412D01*
X79627438Y-105357628D01*
X79712201Y-105310159D01*
X79808682Y-105298740D01*
X79902190Y-105325111D01*
X79919866Y-105335044D01*
X80080879Y-105434358D01*
X80247301Y-105489505D01*
X80343715Y-105499355D01*
X80356365Y-105499999D01*
X80750000Y-105499999D01*
X80750000Y-104435501D01*
X80857685Y-104484680D01*
X80964237Y-104500000D01*
X81035763Y-104500000D01*
X81142315Y-104484680D01*
X81250000Y-104435501D01*
X81250000Y-105499998D01*
X81250001Y-105499999D01*
X81643632Y-105499999D01*
X81656286Y-105499354D01*
X81752698Y-105489505D01*
X81919121Y-105434358D01*
X82068341Y-105342318D01*
X82192318Y-105218341D01*
X82284358Y-105069121D01*
X82339505Y-104902698D01*
X82349355Y-104806284D01*
X82350000Y-104793634D01*
X82350000Y-104250000D01*
X81433686Y-104250000D01*
X81459493Y-104209844D01*
X81500000Y-104071889D01*
X81500000Y-103928111D01*
X81459493Y-103790156D01*
X81433686Y-103750000D01*
X82349998Y-103750000D01*
X82349999Y-103749999D01*
X82349999Y-103206367D01*
X82349354Y-103193713D01*
X82339505Y-103097301D01*
X82284358Y-102930878D01*
X82192318Y-102781658D01*
X82068341Y-102657681D01*
X81919121Y-102565641D01*
X81752698Y-102510494D01*
X81656284Y-102500644D01*
X81643635Y-102500000D01*
X81250000Y-102500000D01*
X81250000Y-103564498D01*
X81142315Y-103515320D01*
X81035763Y-103500000D01*
X80964237Y-103500000D01*
X80857685Y-103515320D01*
X80750000Y-103564498D01*
X80750000Y-102500001D01*
X80749999Y-102500000D01*
X80356368Y-102500000D01*
X80343712Y-102500645D01*
X80247301Y-102510494D01*
X80080879Y-102565641D01*
X79930218Y-102658570D01*
X79839167Y-102692461D01*
X79742076Y-102688929D01*
X79653727Y-102648511D01*
X79587571Y-102577359D01*
X79553680Y-102486308D01*
X79550500Y-102446641D01*
X79550500Y-102038271D01*
X79569454Y-101942983D01*
X79623430Y-101862201D01*
X79862201Y-101623430D01*
X79942983Y-101569454D01*
X80038271Y-101550500D01*
X93436158Y-101550500D01*
X93460565Y-101551699D01*
X93499999Y-101555583D01*
X93499999Y-101555582D01*
X93500000Y-101555583D01*
X93705934Y-101535300D01*
X93903955Y-101475232D01*
X94086450Y-101377685D01*
X94113161Y-101355763D01*
X94174282Y-101305604D01*
X94214768Y-101272377D01*
X94246410Y-101246410D01*
X94271559Y-101215763D01*
X94287952Y-101197677D01*
X95024433Y-100461197D01*
X95105212Y-100407223D01*
X95200500Y-100388269D01*
X95295788Y-100407223D01*
X95376570Y-100461200D01*
X95430546Y-100541981D01*
X95449500Y-100637269D01*
X95449500Y-101436158D01*
X95448301Y-101460565D01*
X95444416Y-101499999D01*
X95464700Y-101705936D01*
X95524767Y-101903954D01*
X95605816Y-102055584D01*
X95622315Y-102086451D01*
X95738855Y-102228455D01*
X95753590Y-102246410D01*
X95762339Y-102253590D01*
X95784214Y-102271542D01*
X95802322Y-102287953D01*
X96712046Y-103197677D01*
X96728446Y-103215772D01*
X96753590Y-103246410D01*
X96753592Y-103246411D01*
X96764774Y-103260037D01*
X96810572Y-103345721D01*
X96820094Y-103442408D01*
X96791891Y-103535379D01*
X96730256Y-103610481D01*
X96644572Y-103656279D01*
X96572293Y-103667000D01*
X95348392Y-103667000D01*
X95342328Y-103667597D01*
X95342312Y-103667598D01*
X95194064Y-103682200D01*
X94996046Y-103742267D01*
X94813549Y-103839814D01*
X94708544Y-103925990D01*
X94622861Y-103971788D01*
X94526174Y-103981311D01*
X94433202Y-103953108D01*
X94420492Y-103945825D01*
X94251628Y-103842346D01*
X94251625Y-103842344D01*
X94011610Y-103742927D01*
X93758990Y-103682278D01*
X93499999Y-103661895D01*
X93241009Y-103682278D01*
X92988389Y-103742927D01*
X92748374Y-103842344D01*
X92526855Y-103978091D01*
X92411712Y-104076433D01*
X92326945Y-104123905D01*
X92230463Y-104135324D01*
X92136956Y-104108952D01*
X92088288Y-104076433D01*
X91973144Y-103978091D01*
X91973142Y-103978089D01*
X91973140Y-103978088D01*
X91751628Y-103842346D01*
X91751625Y-103842344D01*
X91511610Y-103742927D01*
X91258990Y-103682278D01*
X91000000Y-103661895D01*
X90741009Y-103682278D01*
X90488389Y-103742927D01*
X90248374Y-103842344D01*
X90115124Y-103924000D01*
X90026860Y-103978088D01*
X90016586Y-103986863D01*
X89829309Y-104146812D01*
X89732092Y-104260638D01*
X89655794Y-104320786D01*
X89562286Y-104347157D01*
X89465805Y-104335736D01*
X89381038Y-104288264D01*
X89372560Y-104280427D01*
X89177579Y-104143900D01*
X88963486Y-104044067D01*
X88750000Y-103986863D01*
X88750000Y-105034481D01*
X88635199Y-104982054D01*
X88533975Y-104967500D01*
X88466025Y-104967500D01*
X88364801Y-104982054D01*
X88250000Y-105034481D01*
X88250000Y-103986864D01*
X88249999Y-103986863D01*
X88036508Y-104044068D01*
X87822426Y-104143897D01*
X87628923Y-104279389D01*
X87461889Y-104446423D01*
X87326397Y-104639926D01*
X87226568Y-104854008D01*
X87165430Y-105082178D01*
X87155778Y-105192499D01*
X87155778Y-105192500D01*
X88096031Y-105192500D01*
X88063481Y-105243149D01*
X88025000Y-105374205D01*
X88025000Y-105510795D01*
X88063481Y-105641851D01*
X88096031Y-105692500D01*
X87155778Y-105692500D01*
X87165430Y-105802821D01*
X87226568Y-106030991D01*
X87326397Y-106245073D01*
X87461891Y-106438579D01*
X87628919Y-106605608D01*
X87822420Y-106741099D01*
X88036508Y-106840930D01*
X88250000Y-106898134D01*
X88250000Y-105850518D01*
X88364801Y-105902946D01*
X88466025Y-105917500D01*
X88533975Y-105917500D01*
X88635199Y-105902946D01*
X88750000Y-105850518D01*
X88750000Y-106898134D01*
X88963491Y-106840930D01*
X89177578Y-106741099D01*
X89388922Y-106593115D01*
X89389890Y-106594497D01*
X89447453Y-106556032D01*
X89542741Y-106537074D01*
X89638030Y-106556024D01*
X89718814Y-106609996D01*
X89732087Y-106624355D01*
X89829311Y-106738189D01*
X90026860Y-106906912D01*
X90248372Y-107042654D01*
X90488390Y-107142073D01*
X90741006Y-107202721D01*
X90927536Y-107217401D01*
X90999999Y-107223104D01*
X90999999Y-107223103D01*
X91000000Y-107223104D01*
X91258994Y-107202721D01*
X91511610Y-107142073D01*
X91751628Y-107042654D01*
X91973140Y-106906912D01*
X92088290Y-106808564D01*
X92173054Y-106761094D01*
X92269536Y-106749675D01*
X92363043Y-106776046D01*
X92411707Y-106808562D01*
X92526860Y-106906912D01*
X92748372Y-107042654D01*
X92988390Y-107142073D01*
X93241006Y-107202721D01*
X93427536Y-107217401D01*
X93499999Y-107223104D01*
X93499999Y-107223103D01*
X93500000Y-107223104D01*
X93758994Y-107202721D01*
X94011610Y-107142073D01*
X94251628Y-107042654D01*
X94420482Y-106939180D01*
X94511628Y-106905555D01*
X94608708Y-106909369D01*
X94696939Y-106950043D01*
X94708545Y-106959010D01*
X94813549Y-107045185D01*
X94911051Y-107097301D01*
X94996046Y-107142732D01*
X95194066Y-107202800D01*
X95348392Y-107218000D01*
X95354502Y-107218000D01*
X96645498Y-107218000D01*
X96651608Y-107218000D01*
X96805934Y-107202800D01*
X97003954Y-107142732D01*
X97186450Y-107045185D01*
X97346410Y-106913910D01*
X97477685Y-106753950D01*
X97575232Y-106571454D01*
X97635300Y-106373434D01*
X97650500Y-106219108D01*
X97650500Y-104665892D01*
X97635300Y-104511566D01*
X97575232Y-104313546D01*
X97561718Y-104288264D01*
X97477687Y-104131052D01*
X97337929Y-103960755D01*
X97292131Y-103875071D01*
X97282609Y-103778384D01*
X97310812Y-103685413D01*
X97372447Y-103610311D01*
X97458131Y-103564513D01*
X97505997Y-103554992D01*
X97539448Y-103551697D01*
X97563842Y-103550500D01*
X102487191Y-103550500D01*
X102582479Y-103569454D01*
X102663261Y-103623430D01*
X102717237Y-103704212D01*
X102736191Y-103799500D01*
X102717237Y-103894788D01*
X102663261Y-103975570D01*
X102582479Y-104029546D01*
X102551637Y-104040016D01*
X102536503Y-104044071D01*
X102322426Y-104143897D01*
X102128923Y-104279389D01*
X101961889Y-104446423D01*
X101826397Y-104639926D01*
X101726568Y-104854008D01*
X101665430Y-105082178D01*
X101655778Y-105192499D01*
X101655778Y-105192500D01*
X102596031Y-105192500D01*
X102563481Y-105243149D01*
X102525000Y-105374205D01*
X102525000Y-105510795D01*
X102563481Y-105641851D01*
X102596031Y-105692500D01*
X101655778Y-105692500D01*
X101665430Y-105802821D01*
X101726568Y-106030991D01*
X101826397Y-106245073D01*
X101961891Y-106438579D01*
X102128919Y-106605608D01*
X102322420Y-106741099D01*
X102536508Y-106840930D01*
X102749999Y-106898134D01*
X102749999Y-105850517D01*
X102864801Y-105902946D01*
X102966025Y-105917500D01*
X103033975Y-105917500D01*
X103135199Y-105902946D01*
X103250000Y-105850518D01*
X103250000Y-106898134D01*
X103463491Y-106840930D01*
X103677578Y-106741099D01*
X103888922Y-106593115D01*
X103889890Y-106594497D01*
X103947453Y-106556032D01*
X104042741Y-106537074D01*
X104138030Y-106556024D01*
X104218814Y-106609996D01*
X104232087Y-106624355D01*
X104329311Y-106738189D01*
X104491674Y-106876860D01*
X104526860Y-106906912D01*
X104617542Y-106962482D01*
X104688885Y-107028431D01*
X104729559Y-107116662D01*
X104733373Y-107213742D01*
X104699746Y-107304892D01*
X104663509Y-107350859D01*
X101562323Y-110452044D01*
X101544221Y-110468450D01*
X101513591Y-110493588D01*
X101480692Y-110533677D01*
X101384909Y-110650388D01*
X101332697Y-110698156D01*
X101219541Y-110775304D01*
X101036705Y-110944953D01*
X100881202Y-111139948D01*
X100756493Y-111355951D01*
X100665373Y-111588119D01*
X100609873Y-111831281D01*
X100591234Y-112080000D01*
X100609873Y-112328718D01*
X100665373Y-112571880D01*
X100756493Y-112804048D01*
X100881202Y-113020051D01*
X101036704Y-113215046D01*
X101150103Y-113320265D01*
X101219541Y-113384694D01*
X101425617Y-113525194D01*
X101650331Y-113633410D01*
X101888665Y-113706927D01*
X102135293Y-113744100D01*
X102384707Y-113744100D01*
X102631335Y-113706927D01*
X102869669Y-113633410D01*
X103094383Y-113525194D01*
X103300459Y-113384694D01*
X103360638Y-113328855D01*
X103443379Y-113277938D01*
X103539309Y-113262560D01*
X103633822Y-113285063D01*
X103699361Y-113328855D01*
X103759541Y-113384694D01*
X103965617Y-113525194D01*
X104190331Y-113633410D01*
X104428665Y-113706927D01*
X104675293Y-113744100D01*
X104924707Y-113744100D01*
X105171335Y-113706927D01*
X105409669Y-113633410D01*
X105634383Y-113525194D01*
X105840459Y-113384694D01*
X105900638Y-113328855D01*
X105983376Y-113277939D01*
X106079306Y-113262560D01*
X106173820Y-113285063D01*
X106239362Y-113328856D01*
X106259193Y-113347256D01*
X106299541Y-113384694D01*
X106505617Y-113525194D01*
X106730331Y-113633410D01*
X106968665Y-113706927D01*
X107215293Y-113744100D01*
X107464707Y-113744100D01*
X107711335Y-113706927D01*
X107949669Y-113633410D01*
X108174383Y-113525194D01*
X108380459Y-113384694D01*
X108440638Y-113328855D01*
X108523379Y-113277938D01*
X108619309Y-113262560D01*
X108713822Y-113285063D01*
X108779361Y-113328855D01*
X108839541Y-113384694D01*
X109045617Y-113525194D01*
X109270331Y-113633410D01*
X109508665Y-113706927D01*
X109755293Y-113744100D01*
X110004707Y-113744100D01*
X110251335Y-113706927D01*
X110489669Y-113633410D01*
X110714383Y-113525194D01*
X110920459Y-113384694D01*
X110980638Y-113328855D01*
X111063376Y-113277939D01*
X111159306Y-113262560D01*
X111253820Y-113285063D01*
X111319362Y-113328856D01*
X111339193Y-113347256D01*
X111379541Y-113384694D01*
X111585617Y-113525194D01*
X111810331Y-113633410D01*
X112048665Y-113706927D01*
X112295293Y-113744100D01*
X112544707Y-113744100D01*
X112791335Y-113706927D01*
X113029669Y-113633410D01*
X113254383Y-113525194D01*
X113460459Y-113384694D01*
X113520638Y-113328855D01*
X113603379Y-113277938D01*
X113699309Y-113262560D01*
X113793822Y-113285063D01*
X113859361Y-113328855D01*
X113919541Y-113384694D01*
X114125617Y-113525194D01*
X114350331Y-113633410D01*
X114588665Y-113706927D01*
X114835293Y-113744100D01*
X115084707Y-113744100D01*
X115331335Y-113706927D01*
X115569669Y-113633410D01*
X115794383Y-113525194D01*
X116000459Y-113384694D01*
X116183292Y-113215049D01*
X116183292Y-113215048D01*
X116183295Y-113215046D01*
X116317642Y-113046579D01*
X116338799Y-113020049D01*
X116463506Y-112804050D01*
X116554627Y-112571877D01*
X116610127Y-112328717D01*
X116628766Y-112080000D01*
X116610127Y-111831283D01*
X116554627Y-111588123D01*
X116554626Y-111588122D01*
X116554626Y-111588119D01*
X116463506Y-111355951D01*
X116463506Y-111355950D01*
X116338799Y-111139951D01*
X116317643Y-111113422D01*
X116183295Y-110944953D01*
X116000461Y-110775308D01*
X116000459Y-110775306D01*
X115794383Y-110634806D01*
X115569669Y-110526590D01*
X115381186Y-110468450D01*
X115331336Y-110453073D01*
X115084707Y-110415900D01*
X114835293Y-110415900D01*
X114588663Y-110453073D01*
X114350334Y-110526589D01*
X114350331Y-110526590D01*
X114125617Y-110634806D01*
X114005939Y-110716401D01*
X113919538Y-110775308D01*
X113859363Y-110831143D01*
X113776619Y-110882061D01*
X113680689Y-110897439D01*
X113586176Y-110874935D01*
X113520637Y-110831143D01*
X113460461Y-110775308D01*
X113460459Y-110775306D01*
X113254383Y-110634806D01*
X113029669Y-110526590D01*
X112841186Y-110468450D01*
X112791336Y-110453073D01*
X112602297Y-110424580D01*
X112510898Y-110391636D01*
X112439063Y-110326222D01*
X112397729Y-110238298D01*
X112393189Y-110141250D01*
X112426133Y-110049851D01*
X112463334Y-110002295D01*
X114197684Y-108267945D01*
X114215768Y-108251555D01*
X114246410Y-108226410D01*
X114377685Y-108066450D01*
X114413204Y-108000000D01*
X114475232Y-107883955D01*
X114535300Y-107685934D01*
X114555583Y-107480000D01*
X114551699Y-107440565D01*
X114550500Y-107416158D01*
X114550500Y-107067767D01*
X115645788Y-107067767D01*
X115675413Y-107337019D01*
X115743926Y-107599083D01*
X115743927Y-107599087D01*
X115743928Y-107599088D01*
X115849870Y-107848390D01*
X115898523Y-107928111D01*
X115990981Y-108079609D01*
X116164254Y-108287820D01*
X116212221Y-108330798D01*
X116365998Y-108468582D01*
X116366000Y-108468583D01*
X116366002Y-108468585D01*
X116574001Y-108606195D01*
X116591910Y-108618044D01*
X116837176Y-108733020D01*
X116837178Y-108733020D01*
X116837181Y-108733022D01*
X117023372Y-108789038D01*
X117096569Y-108811060D01*
X117364561Y-108850500D01*
X117364564Y-108850500D01*
X117563085Y-108850500D01*
X117567631Y-108850500D01*
X117770156Y-108835677D01*
X118034553Y-108776780D01*
X118235496Y-108699926D01*
X118287556Y-108680015D01*
X118320350Y-108661610D01*
X118523777Y-108547441D01*
X118738177Y-108381888D01*
X118926186Y-108186881D01*
X119083799Y-107966579D01*
X119207656Y-107725675D01*
X119295118Y-107469305D01*
X119344319Y-107202933D01*
X119354212Y-106932235D01*
X119324586Y-106662982D01*
X119324586Y-106662980D01*
X119256073Y-106400916D01*
X119256072Y-106400912D01*
X119150130Y-106151610D01*
X119009018Y-105920390D01*
X118947281Y-105846205D01*
X118835745Y-105712179D01*
X118699429Y-105590041D01*
X118634002Y-105531418D01*
X118633999Y-105531416D01*
X118633997Y-105531414D01*
X118408095Y-105381959D01*
X118408093Y-105381958D01*
X118408090Y-105381956D01*
X118162824Y-105266980D01*
X118162825Y-105266980D01*
X118162818Y-105266977D01*
X117903436Y-105188941D01*
X117903432Y-105188940D01*
X117903431Y-105188940D01*
X117635439Y-105149500D01*
X117432369Y-105149500D01*
X117427852Y-105149830D01*
X117427841Y-105149831D01*
X117229842Y-105164323D01*
X116965445Y-105223220D01*
X116712443Y-105319984D01*
X116476219Y-105452561D01*
X116261827Y-105618108D01*
X116261823Y-105618111D01*
X116261823Y-105618112D01*
X116190104Y-105692501D01*
X116073812Y-105813121D01*
X115916199Y-106033422D01*
X115792344Y-106274324D01*
X115704881Y-106530694D01*
X115655681Y-106797064D01*
X115645788Y-107067767D01*
X114550500Y-107067767D01*
X114550500Y-103063840D01*
X114551699Y-103039433D01*
X114555583Y-102999999D01*
X114548775Y-102930878D01*
X114535300Y-102794066D01*
X114475232Y-102596045D01*
X114377685Y-102413549D01*
X114348521Y-102378012D01*
X114279338Y-102293711D01*
X114279320Y-102293691D01*
X114279308Y-102293676D01*
X114279305Y-102293673D01*
X114246410Y-102253590D01*
X114246408Y-102253588D01*
X114246407Y-102253587D01*
X114215783Y-102228455D01*
X114197678Y-102212046D01*
X112787953Y-100802322D01*
X112771542Y-100784214D01*
X112746409Y-100753589D01*
X112586450Y-100622315D01*
X112537302Y-100596044D01*
X112403954Y-100524767D01*
X112205936Y-100464700D01*
X111999999Y-100444416D01*
X111960565Y-100448301D01*
X111936158Y-100449500D01*
X98799500Y-100449500D01*
X98704212Y-100430546D01*
X98623430Y-100376570D01*
X98569454Y-100295788D01*
X98550500Y-100200500D01*
X98550500Y-97620000D01*
X99049357Y-97620000D01*
X99069892Y-97867822D01*
X99130936Y-98108880D01*
X99230826Y-98336606D01*
X99366837Y-98544788D01*
X99535254Y-98727736D01*
X99535256Y-98727738D01*
X99731491Y-98880474D01*
X99950190Y-98998828D01*
X100067787Y-99039199D01*
X100119688Y-99057017D01*
X100185386Y-99079571D01*
X100369233Y-99110249D01*
X100430664Y-99120500D01*
X100430665Y-99120500D01*
X100679336Y-99120500D01*
X100728462Y-99112302D01*
X100924614Y-99079571D01*
X101159810Y-98998828D01*
X101378509Y-98880474D01*
X101574744Y-98727738D01*
X101671793Y-98622315D01*
X101743162Y-98544788D01*
X101798187Y-98460565D01*
X101879173Y-98336607D01*
X101979063Y-98108881D01*
X102040108Y-97867821D01*
X102060643Y-97620000D01*
X102040108Y-97372179D01*
X101979063Y-97131119D01*
X101879173Y-96903393D01*
X101777534Y-96747822D01*
X101743162Y-96695211D01*
X101574745Y-96512263D01*
X101378509Y-96359526D01*
X101159806Y-96241170D01*
X100924616Y-96160429D01*
X100679336Y-96119500D01*
X100679335Y-96119500D01*
X100430665Y-96119500D01*
X100430664Y-96119500D01*
X100185383Y-96160429D01*
X99950193Y-96241170D01*
X99731490Y-96359526D01*
X99535254Y-96512263D01*
X99366837Y-96695211D01*
X99230826Y-96903393D01*
X99130936Y-97131119D01*
X99069892Y-97372177D01*
X99049357Y-97620000D01*
X98550500Y-97620000D01*
X98550500Y-90000000D01*
X99049357Y-90000000D01*
X99069892Y-90247822D01*
X99130936Y-90488880D01*
X99230826Y-90716606D01*
X99350294Y-90899465D01*
X99366836Y-90924785D01*
X99438696Y-91002846D01*
X99489287Y-91085787D01*
X99504500Y-91171488D01*
X99504500Y-93111158D01*
X99503301Y-93135565D01*
X99499416Y-93174999D01*
X99519700Y-93380936D01*
X99579767Y-93578954D01*
X99644736Y-93700501D01*
X99677315Y-93761450D01*
X99771838Y-93876628D01*
X99808590Y-93921410D01*
X99820196Y-93930935D01*
X99839214Y-93946542D01*
X99857322Y-93962953D01*
X103428007Y-97533639D01*
X103481983Y-97614421D01*
X103500086Y-97689144D01*
X103504832Y-97746409D01*
X103514892Y-97867821D01*
X103575936Y-98108880D01*
X103675826Y-98336606D01*
X103811837Y-98544788D01*
X103980254Y-98727736D01*
X103980256Y-98727738D01*
X104176491Y-98880474D01*
X104395190Y-98998828D01*
X104512788Y-99039199D01*
X104564688Y-99057017D01*
X104630386Y-99079571D01*
X104814233Y-99110249D01*
X104875664Y-99120500D01*
X104875665Y-99120500D01*
X105124336Y-99120500D01*
X105173462Y-99112302D01*
X105369614Y-99079571D01*
X105604810Y-98998828D01*
X105823509Y-98880474D01*
X106019744Y-98727738D01*
X106116793Y-98622315D01*
X106188162Y-98544788D01*
X106243187Y-98460565D01*
X106324173Y-98336607D01*
X106424063Y-98108881D01*
X106485108Y-97867821D01*
X106505643Y-97620000D01*
X106485108Y-97372179D01*
X106424063Y-97131119D01*
X106324173Y-96903393D01*
X106222534Y-96747822D01*
X106188162Y-96695211D01*
X106019745Y-96512263D01*
X105823509Y-96359526D01*
X105604806Y-96241170D01*
X105369616Y-96160429D01*
X105124336Y-96119500D01*
X105124335Y-96119500D01*
X105088272Y-96119500D01*
X104992984Y-96100546D01*
X104912202Y-96046570D01*
X101678430Y-92812798D01*
X101624454Y-92732016D01*
X101605500Y-92636728D01*
X101605500Y-91171488D01*
X101624454Y-91076200D01*
X101671303Y-91002846D01*
X101743164Y-90924785D01*
X101879173Y-90716607D01*
X101979063Y-90488881D01*
X102040108Y-90247821D01*
X102060643Y-90000000D01*
X102052504Y-89901781D01*
X103297305Y-89901781D01*
X103298412Y-89959530D01*
X103299500Y-90016289D01*
X103299500Y-90065177D01*
X103299863Y-90069911D01*
X103299865Y-90069952D01*
X103300201Y-90074319D01*
X103300885Y-90088600D01*
X103302312Y-90163104D01*
X103308681Y-90199679D01*
X103311641Y-90223323D01*
X103314484Y-90260347D01*
X103331460Y-90332891D01*
X103334318Y-90346905D01*
X103347106Y-90420341D01*
X103358984Y-90455518D01*
X103365518Y-90478433D01*
X103373979Y-90514587D01*
X103401836Y-90583706D01*
X103406799Y-90597120D01*
X103430641Y-90667726D01*
X103447747Y-90700671D01*
X103457707Y-90722330D01*
X103471586Y-90756766D01*
X103507639Y-90817411D01*
X103509673Y-90820832D01*
X103516626Y-90833332D01*
X103550964Y-90899465D01*
X103572902Y-90929420D01*
X103586046Y-90949297D01*
X103605018Y-90981208D01*
X103652426Y-91038694D01*
X103661207Y-91049987D01*
X103705250Y-91110121D01*
X103731502Y-91136373D01*
X103747529Y-91154014D01*
X103771144Y-91182649D01*
X103826771Y-91232223D01*
X103837175Y-91242045D01*
X105705002Y-93109872D01*
X105726558Y-93134532D01*
X105768608Y-93175000D01*
X105809089Y-93213959D01*
X105843652Y-93248522D01*
X105847251Y-93251608D01*
X105847261Y-93251617D01*
X105850600Y-93254479D01*
X105861175Y-93264087D01*
X105914886Y-93315778D01*
X105945260Y-93337142D01*
X105964056Y-93351757D01*
X105992251Y-93375931D01*
X106055581Y-93415242D01*
X106067492Y-93423118D01*
X106128456Y-93465999D01*
X106161716Y-93482467D01*
X106182553Y-93494058D01*
X106214096Y-93513638D01*
X106282678Y-93542818D01*
X106295670Y-93548792D01*
X106362453Y-93581859D01*
X106397850Y-93593060D01*
X106420206Y-93601333D01*
X106434583Y-93607450D01*
X106454362Y-93615866D01*
X106526618Y-93634240D01*
X106540324Y-93638148D01*
X106611395Y-93660641D01*
X106648092Y-93666309D01*
X106671432Y-93671068D01*
X106707418Y-93680220D01*
X106781613Y-93687347D01*
X106795759Y-93689117D01*
X106869445Y-93700500D01*
X106906569Y-93700500D01*
X106930381Y-93701641D01*
X106967332Y-93705191D01*
X107041728Y-93700911D01*
X107056029Y-93700500D01*
X120250500Y-93700500D01*
X120345788Y-93719454D01*
X120426570Y-93773430D01*
X120480546Y-93854212D01*
X120499500Y-93949499D01*
X120499500Y-107578583D01*
X120499743Y-107582453D01*
X120499744Y-107582469D01*
X120513820Y-107806206D01*
X120513821Y-107806217D01*
X120514312Y-107814015D01*
X120515775Y-107821686D01*
X120515777Y-107821699D01*
X120562252Y-108065325D01*
X120573269Y-108123079D01*
X120670497Y-108422315D01*
X120673829Y-108429397D01*
X120673830Y-108429398D01*
X120801130Y-108699926D01*
X120801136Y-108699937D01*
X120804463Y-108707007D01*
X120808649Y-108713604D01*
X120808654Y-108713612D01*
X120895526Y-108850500D01*
X120973053Y-108972663D01*
X120978033Y-108978682D01*
X120978039Y-108978691D01*
X121164007Y-109203487D01*
X121173610Y-109215094D01*
X121402970Y-109430478D01*
X121657516Y-109615416D01*
X121933234Y-109766994D01*
X122225775Y-109882819D01*
X122530527Y-109961066D01*
X122842682Y-110000500D01*
X122850507Y-110000500D01*
X123149493Y-110000500D01*
X123157318Y-110000500D01*
X123469473Y-109961066D01*
X123774225Y-109882819D01*
X124030661Y-109781288D01*
X124126234Y-109763834D01*
X124180451Y-109770682D01*
X124241006Y-109785221D01*
X124435251Y-109800508D01*
X124499999Y-109805604D01*
X124499999Y-109805603D01*
X124500000Y-109805604D01*
X124758994Y-109785221D01*
X125011610Y-109724573D01*
X125251628Y-109625154D01*
X125473140Y-109489412D01*
X125627438Y-109357628D01*
X125712201Y-109310159D01*
X125808682Y-109298740D01*
X125902190Y-109325111D01*
X125919866Y-109335044D01*
X126080879Y-109434358D01*
X126247301Y-109489505D01*
X126343715Y-109499355D01*
X126356365Y-109499999D01*
X126750000Y-109499999D01*
X126749999Y-108435501D01*
X126857685Y-108484680D01*
X126964237Y-108500000D01*
X127035763Y-108500000D01*
X127142315Y-108484680D01*
X127249998Y-108435501D01*
X127249999Y-109499998D01*
X127250000Y-109499999D01*
X127643632Y-109499999D01*
X127656286Y-109499354D01*
X127752698Y-109489505D01*
X127919121Y-109434358D01*
X128068341Y-109342318D01*
X128192318Y-109218341D01*
X128284358Y-109069121D01*
X128339505Y-108902698D01*
X128349355Y-108806284D01*
X128350000Y-108793634D01*
X128350000Y-108250001D01*
X128349999Y-108250000D01*
X127433686Y-108250000D01*
X127459493Y-108209844D01*
X127500000Y-108071889D01*
X127500000Y-107928111D01*
X127459493Y-107790156D01*
X127433686Y-107750000D01*
X128349998Y-107750000D01*
X128349999Y-107749998D01*
X128349999Y-107206367D01*
X128349354Y-107193713D01*
X128339505Y-107097301D01*
X128284358Y-106930878D01*
X128192318Y-106781658D01*
X128068341Y-106657681D01*
X127919121Y-106565641D01*
X127752698Y-106510494D01*
X127656284Y-106500644D01*
X127643635Y-106500000D01*
X127249999Y-106500000D01*
X127249999Y-107564498D01*
X127142315Y-107515320D01*
X127035763Y-107500000D01*
X126964237Y-107500000D01*
X126857685Y-107515320D01*
X126749999Y-107564498D01*
X126750000Y-106500000D01*
X126356368Y-106500000D01*
X126343712Y-106500645D01*
X126247301Y-106510494D01*
X126080878Y-106565641D01*
X125919866Y-106664955D01*
X125828814Y-106698847D01*
X125731723Y-106695315D01*
X125643375Y-106654897D01*
X125627431Y-106642365D01*
X125587784Y-106608502D01*
X125527637Y-106532204D01*
X125501267Y-106438696D01*
X125500500Y-106419164D01*
X125500500Y-101080834D01*
X125519454Y-100985546D01*
X125573430Y-100904764D01*
X125587776Y-100891502D01*
X125627435Y-100857630D01*
X125712197Y-100810160D01*
X125808678Y-100798739D01*
X125902186Y-100825110D01*
X125919865Y-100835044D01*
X126080878Y-100934358D01*
X126247301Y-100989505D01*
X126343715Y-100999355D01*
X126356365Y-100999999D01*
X126750000Y-100999999D01*
X126750000Y-99935501D01*
X126857685Y-99984680D01*
X126964237Y-100000000D01*
X127035763Y-100000000D01*
X127142315Y-99984680D01*
X127249998Y-99935501D01*
X127249999Y-100999998D01*
X127250000Y-100999999D01*
X127643632Y-100999999D01*
X127656286Y-100999354D01*
X127752698Y-100989505D01*
X127919121Y-100934358D01*
X128068341Y-100842318D01*
X128192318Y-100718341D01*
X128284358Y-100569121D01*
X128339505Y-100402698D01*
X128349355Y-100306284D01*
X128350000Y-100293634D01*
X128350000Y-99750001D01*
X128349999Y-99750000D01*
X127433686Y-99750000D01*
X127459493Y-99709844D01*
X127500000Y-99571889D01*
X127500000Y-99428111D01*
X127459493Y-99290156D01*
X127433686Y-99250000D01*
X128349998Y-99250000D01*
X128349999Y-99249998D01*
X128349999Y-98706367D01*
X128349354Y-98693713D01*
X128339505Y-98597301D01*
X128284358Y-98430878D01*
X128192318Y-98281658D01*
X128068341Y-98157681D01*
X127919121Y-98065641D01*
X127752698Y-98010494D01*
X127656284Y-98000644D01*
X127643635Y-98000000D01*
X127249999Y-98000000D01*
X127249999Y-99064498D01*
X127142315Y-99015320D01*
X127035763Y-99000000D01*
X126964237Y-99000000D01*
X126857685Y-99015320D01*
X126750000Y-99064498D01*
X126750000Y-98000001D01*
X126749999Y-98000000D01*
X126356368Y-98000000D01*
X126343712Y-98000645D01*
X126247301Y-98010494D01*
X126080878Y-98065641D01*
X125919866Y-98164955D01*
X125828814Y-98198847D01*
X125731723Y-98195315D01*
X125643375Y-98154897D01*
X125627431Y-98142365D01*
X125587784Y-98108502D01*
X125527637Y-98032204D01*
X125501267Y-97938696D01*
X125500500Y-97919164D01*
X125500500Y-74024591D01*
X125519454Y-73929303D01*
X125573430Y-73848521D01*
X125654212Y-73794545D01*
X125667262Y-73789564D01*
X125679252Y-73785368D01*
X125679255Y-73785368D01*
X125849522Y-73725789D01*
X126002262Y-73629816D01*
X126129816Y-73502262D01*
X126204129Y-73383994D01*
X126225789Y-73349523D01*
X126270319Y-73222262D01*
X126285368Y-73179255D01*
X126300500Y-73044954D01*
X126300500Y-72535384D01*
X126315220Y-72451041D01*
X126405962Y-72198996D01*
X126474598Y-71891938D01*
X126504208Y-71578698D01*
X126494325Y-71264216D01*
X126445105Y-70953454D01*
X126357325Y-70651310D01*
X126354216Y-70644126D01*
X126354213Y-70644117D01*
X126320979Y-70567318D01*
X126300531Y-70472340D01*
X126300500Y-70468429D01*
X126300500Y-70218813D01*
X126300500Y-69955046D01*
X126285368Y-69820745D01*
X126285367Y-69820745D01*
X126225789Y-69650476D01*
X126129818Y-69497741D01*
X126129817Y-69497740D01*
X126129816Y-69497738D01*
X126002262Y-69370184D01*
X126002259Y-69370182D01*
X126002258Y-69370181D01*
X125849523Y-69274210D01*
X125679254Y-69214631D01*
X125551899Y-69200282D01*
X125551889Y-69200281D01*
X125544954Y-69199500D01*
X125537968Y-69199500D01*
X125031571Y-69199500D01*
X124936283Y-69180546D01*
X124932682Y-69179021D01*
X124855882Y-69145786D01*
X124855864Y-69145779D01*
X124848690Y-69142675D01*
X124841172Y-69140491D01*
X124841167Y-69140489D01*
X124554074Y-69057082D01*
X124554073Y-69057081D01*
X124546546Y-69054895D01*
X124538809Y-69053669D01*
X124538802Y-69053668D01*
X124243522Y-69006900D01*
X124243512Y-69006899D01*
X124235784Y-69005675D01*
X124227970Y-69005429D01*
X124227955Y-69005428D01*
X123929121Y-68996037D01*
X123929109Y-68996037D01*
X123921302Y-68995792D01*
X123913516Y-68996527D01*
X123913514Y-68996528D01*
X123615850Y-69024665D01*
X123615837Y-69024667D01*
X123608062Y-69025402D01*
X123600428Y-69027108D01*
X123600424Y-69027109D01*
X123308637Y-69092331D01*
X123308624Y-69092334D01*
X123301004Y-69094038D01*
X123293653Y-69096684D01*
X123293641Y-69096688D01*
X123048960Y-69184779D01*
X122964615Y-69199500D01*
X122455046Y-69199500D01*
X122448110Y-69200281D01*
X122448100Y-69200282D01*
X122320745Y-69214631D01*
X122150476Y-69274210D01*
X121997741Y-69370181D01*
X121870181Y-69497741D01*
X121774210Y-69650476D01*
X121714631Y-69820745D01*
X121700282Y-69948100D01*
X121700281Y-69948110D01*
X121699500Y-69955046D01*
X121699500Y-69962032D01*
X121699500Y-70161119D01*
X121680546Y-70256407D01*
X121626570Y-70337189D01*
X121626569Y-70337189D01*
X121262427Y-70701330D01*
X121256813Y-70706771D01*
X121179315Y-70779547D01*
X121179302Y-70779560D01*
X121173610Y-70784906D01*
X121168629Y-70790926D01*
X121168612Y-70790945D01*
X121100859Y-70872844D01*
X121095782Y-70878789D01*
X121025486Y-70958524D01*
X121025479Y-70958532D01*
X121020311Y-70964395D01*
X121015918Y-70970858D01*
X121015907Y-70970873D01*
X121004756Y-70987281D01*
X120990683Y-71006024D01*
X120978043Y-71021303D01*
X120978031Y-71021318D01*
X120973053Y-71027337D01*
X120968867Y-71033931D01*
X120968864Y-71033937D01*
X120911897Y-71123701D01*
X120907606Y-71130233D01*
X120847854Y-71218157D01*
X120847850Y-71218163D01*
X120843459Y-71224625D01*
X120839914Y-71231581D01*
X120839907Y-71231594D01*
X120830901Y-71249270D01*
X120819284Y-71269636D01*
X120808656Y-71286384D01*
X120808649Y-71286396D01*
X120804463Y-71292993D01*
X120801140Y-71300054D01*
X120801137Y-71300060D01*
X120755869Y-71396258D01*
X120752430Y-71403277D01*
X120741928Y-71423889D01*
X120700617Y-71504968D01*
X120697968Y-71512323D01*
X120697962Y-71512339D01*
X120691245Y-71530997D01*
X120682275Y-71552652D01*
X120673829Y-71570602D01*
X120673824Y-71570613D01*
X120670497Y-71577685D01*
X120668083Y-71585114D01*
X120668078Y-71585127D01*
X120635229Y-71686223D01*
X120632697Y-71693618D01*
X120596689Y-71793637D01*
X120596683Y-71793654D01*
X120594038Y-71801004D01*
X120592332Y-71808633D01*
X120592332Y-71808635D01*
X120588003Y-71827999D01*
X120581820Y-71850601D01*
X120573269Y-71876921D01*
X120571805Y-71884590D01*
X120571803Y-71884602D01*
X120551882Y-71989032D01*
X120550302Y-71996663D01*
X120525402Y-72108062D01*
X120524666Y-72115840D01*
X120524664Y-72115857D01*
X120522797Y-72135605D01*
X120519494Y-72158817D01*
X120514312Y-72185985D01*
X120513821Y-72193787D01*
X120513821Y-72193788D01*
X120507143Y-72299918D01*
X120506529Y-72307711D01*
X120496529Y-72413510D01*
X120495793Y-72421302D01*
X120496038Y-72429110D01*
X120496038Y-72429122D01*
X120499377Y-72535357D01*
X120499500Y-72543178D01*
X120499500Y-90050500D01*
X120480546Y-90145788D01*
X120426570Y-90226570D01*
X120345788Y-90280546D01*
X120250500Y-90299500D01*
X119540100Y-90299500D01*
X119444812Y-90280546D01*
X119364030Y-90226570D01*
X119310054Y-90145788D01*
X119291100Y-90050500D01*
X119291100Y-88318432D01*
X119291099Y-88318431D01*
X119291100Y-88311446D01*
X119275968Y-88177145D01*
X119271156Y-88163393D01*
X119216389Y-88006876D01*
X119120418Y-87854141D01*
X119120417Y-87854140D01*
X119120416Y-87854138D01*
X119097168Y-87830890D01*
X119043195Y-87750112D01*
X119024241Y-87654824D01*
X119043195Y-87559536D01*
X119057593Y-87530338D01*
X119130506Y-87404050D01*
X119130508Y-87404045D01*
X119221626Y-87171880D01*
X119221627Y-87171877D01*
X119277127Y-86928717D01*
X119295766Y-86680000D01*
X119277127Y-86431283D01*
X119221627Y-86188123D01*
X119221626Y-86188122D01*
X119221626Y-86188119D01*
X119130506Y-85955951D01*
X119130506Y-85955950D01*
X119005799Y-85739951D01*
X118866478Y-85565248D01*
X118821886Y-85478932D01*
X118813721Y-85382120D01*
X118843225Y-85289554D01*
X118866479Y-85254751D01*
X118873131Y-85246410D01*
X119005799Y-85080049D01*
X119130506Y-84864050D01*
X119221627Y-84631877D01*
X119277127Y-84388717D01*
X119295766Y-84140000D01*
X119277127Y-83891283D01*
X119221627Y-83648123D01*
X119221626Y-83648122D01*
X119221626Y-83648119D01*
X119130506Y-83415951D01*
X119130506Y-83415950D01*
X119005799Y-83199951D01*
X119005321Y-83199351D01*
X118850295Y-83004953D01*
X118667461Y-82835308D01*
X118667459Y-82835306D01*
X118461383Y-82694806D01*
X118236669Y-82586590D01*
X118119669Y-82550500D01*
X117998336Y-82513073D01*
X117751707Y-82475900D01*
X117502293Y-82475900D01*
X117255663Y-82513073D01*
X117017334Y-82586589D01*
X117017331Y-82586590D01*
X116792617Y-82694806D01*
X116696301Y-82760473D01*
X116586534Y-82835311D01*
X116526360Y-82891144D01*
X116443617Y-82942062D01*
X116347686Y-82957439D01*
X116253174Y-82934934D01*
X116187637Y-82891143D01*
X116127459Y-82835306D01*
X115921383Y-82694806D01*
X115696669Y-82586590D01*
X115579669Y-82550500D01*
X115458336Y-82513073D01*
X115211707Y-82475900D01*
X114962293Y-82475900D01*
X114715663Y-82513073D01*
X114477334Y-82586589D01*
X114477331Y-82586590D01*
X114252617Y-82694806D01*
X114191680Y-82736352D01*
X114046538Y-82835308D01*
X113863704Y-83004953D01*
X113708202Y-83199948D01*
X113583493Y-83415951D01*
X113492373Y-83648119D01*
X113436873Y-83891281D01*
X113418234Y-84140000D01*
X113436873Y-84388718D01*
X113492373Y-84631880D01*
X113583493Y-84864048D01*
X113583494Y-84864050D01*
X113708201Y-85080049D01*
X113806562Y-85203390D01*
X113847521Y-85254751D01*
X113892114Y-85341068D01*
X113900279Y-85437880D01*
X113870775Y-85530446D01*
X113847521Y-85565249D01*
X113708200Y-85739952D01*
X113583493Y-85955951D01*
X113492373Y-86188119D01*
X113436873Y-86431281D01*
X113418234Y-86679999D01*
X113436873Y-86928718D01*
X113492373Y-87171880D01*
X113583493Y-87404048D01*
X113708202Y-87620051D01*
X113847520Y-87794751D01*
X113892113Y-87881068D01*
X113900278Y-87977879D01*
X113870774Y-88070446D01*
X113847521Y-88105246D01*
X113708202Y-88279948D01*
X113583493Y-88495951D01*
X113492373Y-88728119D01*
X113436873Y-88971281D01*
X113418234Y-89220000D01*
X113436873Y-89468718D01*
X113463600Y-89585818D01*
X113492373Y-89711877D01*
X113583494Y-89944050D01*
X113583495Y-89944052D01*
X113589570Y-89959530D01*
X113606738Y-90055156D01*
X113586006Y-90150073D01*
X113530529Y-90229831D01*
X113448752Y-90282288D01*
X113357782Y-90299500D01*
X107807510Y-90299500D01*
X107712222Y-90280546D01*
X107631440Y-90226570D01*
X106773430Y-89368560D01*
X106719454Y-89287778D01*
X106700500Y-89192490D01*
X106700500Y-85494593D01*
X106700500Y-85489823D01*
X106685516Y-85294656D01*
X106626021Y-85040414D01*
X106528414Y-84798234D01*
X106473541Y-84705934D01*
X106394984Y-84573795D01*
X106349756Y-84518953D01*
X106228852Y-84372348D01*
X106160520Y-84311450D01*
X106033918Y-84198623D01*
X105814753Y-84056694D01*
X105576487Y-83949880D01*
X105324714Y-83880692D01*
X105089652Y-83853556D01*
X105065325Y-83850748D01*
X105065324Y-83850748D01*
X104804405Y-83860748D01*
X104548076Y-83910460D01*
X104302333Y-83998720D01*
X104072940Y-84123460D01*
X103865285Y-84281748D01*
X103684218Y-84469890D01*
X103534002Y-84683452D01*
X103418140Y-84917453D01*
X103339358Y-85166394D01*
X103299500Y-85424446D01*
X103299500Y-89869093D01*
X103297305Y-89901781D01*
X102052504Y-89901781D01*
X102040108Y-89752179D01*
X101979063Y-89511119D01*
X101879173Y-89283393D01*
X101851961Y-89241742D01*
X101743162Y-89075211D01*
X101574745Y-88892263D01*
X101378509Y-88739526D01*
X101159806Y-88621170D01*
X100924616Y-88540429D01*
X100679336Y-88499500D01*
X100679335Y-88499500D01*
X100430665Y-88499500D01*
X100430664Y-88499500D01*
X100185383Y-88540429D01*
X99950193Y-88621170D01*
X99731490Y-88739526D01*
X99535254Y-88892263D01*
X99366837Y-89075211D01*
X99230826Y-89283393D01*
X99130936Y-89511119D01*
X99069892Y-89752177D01*
X99049357Y-90000000D01*
X98550500Y-90000000D01*
X98550500Y-85555000D01*
X99049357Y-85555000D01*
X99069892Y-85802822D01*
X99130936Y-86043880D01*
X99230826Y-86271606D01*
X99366837Y-86479788D01*
X99534825Y-86662270D01*
X99535256Y-86662738D01*
X99731491Y-86815474D01*
X99950190Y-86933828D01*
X100185386Y-87014571D01*
X100334379Y-87039433D01*
X100430664Y-87055500D01*
X100430665Y-87055500D01*
X100679336Y-87055500D01*
X100728462Y-87047302D01*
X100924614Y-87014571D01*
X101159810Y-86933828D01*
X101378509Y-86815474D01*
X101574744Y-86662738D01*
X101663126Y-86566728D01*
X101743162Y-86479788D01*
X101808713Y-86379454D01*
X101879173Y-86271607D01*
X101979063Y-86043881D01*
X102040108Y-85802821D01*
X102060643Y-85555000D01*
X102040108Y-85307179D01*
X101979063Y-85066119D01*
X101879173Y-84838393D01*
X101828101Y-84760221D01*
X101743162Y-84630211D01*
X101574745Y-84447263D01*
X101560477Y-84436158D01*
X101378509Y-84294526D01*
X101159810Y-84176172D01*
X101159809Y-84176171D01*
X101159806Y-84176170D01*
X100924616Y-84095429D01*
X100679336Y-84054500D01*
X100679335Y-84054500D01*
X100430665Y-84054500D01*
X100430664Y-84054500D01*
X100185383Y-84095429D01*
X99950193Y-84176170D01*
X99731490Y-84294526D01*
X99535254Y-84447263D01*
X99366837Y-84630211D01*
X99230826Y-84838393D01*
X99130936Y-85066119D01*
X99069892Y-85307177D01*
X99049357Y-85555000D01*
X98550500Y-85555000D01*
X98550500Y-82976340D01*
X98551699Y-82951933D01*
X98555583Y-82912499D01*
X98543533Y-82790156D01*
X98535300Y-82706566D01*
X98475232Y-82508546D01*
X98377685Y-82326050D01*
X98368009Y-82307948D01*
X98350275Y-82292651D01*
X98246408Y-82166088D01*
X98215784Y-82140956D01*
X98197677Y-82124546D01*
X97659493Y-81586362D01*
X97605517Y-81505580D01*
X97587413Y-81430854D01*
X97584844Y-81399846D01*
X97572608Y-81252179D01*
X97511563Y-81011119D01*
X97411673Y-80783393D01*
X97392202Y-80753590D01*
X97275662Y-80575211D01*
X97107245Y-80392263D01*
X96980791Y-80293840D01*
X96911009Y-80239526D01*
X96692310Y-80121172D01*
X96692309Y-80121171D01*
X96692306Y-80121170D01*
X96457116Y-80040429D01*
X96211836Y-79999500D01*
X96211835Y-79999500D01*
X95963165Y-79999500D01*
X95963164Y-79999500D01*
X95717883Y-80040429D01*
X95482693Y-80121170D01*
X95263990Y-80239526D01*
X95067754Y-80392263D01*
X94899337Y-80575211D01*
X94763326Y-80783393D01*
X94663436Y-81011119D01*
X94602392Y-81252177D01*
X94585880Y-81451447D01*
X94581857Y-81500000D01*
X94582736Y-81510608D01*
X94602392Y-81747822D01*
X94663436Y-81988880D01*
X94763326Y-82216606D01*
X94899337Y-82424788D01*
X95048287Y-82586589D01*
X95067756Y-82607738D01*
X95263991Y-82760474D01*
X95482690Y-82878828D01*
X95717886Y-82959571D01*
X95901733Y-82990249D01*
X95963164Y-83000500D01*
X95963165Y-83000500D01*
X95999229Y-83000500D01*
X96094517Y-83019454D01*
X96175299Y-83073430D01*
X96376570Y-83274701D01*
X96430546Y-83355483D01*
X96449500Y-83450771D01*
X96449500Y-83560500D01*
X96430546Y-83655788D01*
X96376570Y-83736570D01*
X96295788Y-83790546D01*
X96200500Y-83809500D01*
X95963164Y-83809500D01*
X95717883Y-83850429D01*
X95482693Y-83931170D01*
X95263990Y-84049526D01*
X95067754Y-84202263D01*
X94899337Y-84385211D01*
X94763326Y-84593393D01*
X94663436Y-84821119D01*
X94602392Y-85062177D01*
X94593756Y-85166395D01*
X94581857Y-85310000D01*
X94587833Y-85382120D01*
X94602392Y-85557822D01*
X94663436Y-85798880D01*
X94763326Y-86026606D01*
X94899337Y-86234788D01*
X95063903Y-86413553D01*
X95067756Y-86417738D01*
X95263991Y-86570474D01*
X95319012Y-86600249D01*
X95393792Y-86662270D01*
X95439148Y-86748188D01*
X95449500Y-86819238D01*
X95449500Y-88700500D01*
X95430546Y-88795788D01*
X95376570Y-88876570D01*
X95295788Y-88930546D01*
X95200500Y-88949500D01*
X93705046Y-88949500D01*
X93698110Y-88950281D01*
X93698100Y-88950282D01*
X93570745Y-88964631D01*
X93400476Y-89024210D01*
X93247738Y-89120183D01*
X93169231Y-89198690D01*
X93088449Y-89252666D01*
X92993161Y-89271620D01*
X92897873Y-89252666D01*
X92863062Y-89234928D01*
X92666089Y-89114223D01*
X92666086Y-89114222D01*
X92666085Y-89114221D01*
X92440615Y-89020829D01*
X92440613Y-89020828D01*
X92440612Y-89020828D01*
X92206543Y-88964632D01*
X92203298Y-88963853D01*
X91959999Y-88944705D01*
X91716701Y-88963853D01*
X91479384Y-89020829D01*
X91253914Y-89114221D01*
X91045822Y-89241740D01*
X90851712Y-89407525D01*
X90766944Y-89454996D01*
X90670463Y-89466415D01*
X90576956Y-89440043D01*
X90528288Y-89407525D01*
X90397275Y-89295630D01*
X90334179Y-89241741D01*
X90126089Y-89114223D01*
X90126086Y-89114222D01*
X90126085Y-89114221D01*
X89900615Y-89020829D01*
X89900613Y-89020828D01*
X89900612Y-89020828D01*
X89666543Y-88964632D01*
X89663298Y-88963853D01*
X89420000Y-88944705D01*
X89176701Y-88963853D01*
X88939384Y-89020829D01*
X88713914Y-89114221D01*
X88505818Y-89241742D01*
X88320240Y-89400240D01*
X88161742Y-89585818D01*
X88034221Y-89793914D01*
X87940829Y-90019384D01*
X87883853Y-90256701D01*
X87864705Y-90499999D01*
X87883853Y-90743298D01*
X87940829Y-90980615D01*
X88021512Y-91175403D01*
X88034223Y-91206089D01*
X88073811Y-91270691D01*
X88161742Y-91414181D01*
X88320240Y-91599759D01*
X88505818Y-91758257D01*
X88505820Y-91758258D01*
X88505821Y-91758259D01*
X88713911Y-91885777D01*
X88752739Y-91901860D01*
X88918340Y-91970454D01*
X88999122Y-92024430D01*
X89053099Y-92105211D01*
X89072053Y-92200499D01*
X89053099Y-92295787D01*
X88999123Y-92376569D01*
X88918342Y-92430546D01*
X88823054Y-92449500D01*
X86563840Y-92449500D01*
X86539433Y-92448301D01*
X86499997Y-92444416D01*
X86448399Y-92449498D01*
X86448392Y-92449500D01*
X86294064Y-92464700D01*
X86096046Y-92524767D01*
X86011096Y-92570175D01*
X85913547Y-92622316D01*
X85793675Y-92720692D01*
X85791256Y-92722652D01*
X85753609Y-92753565D01*
X85728454Y-92784216D01*
X85712049Y-92802317D01*
X82637799Y-95876570D01*
X82557017Y-95930546D01*
X82461729Y-95949500D01*
X79654676Y-95949500D01*
X79559388Y-95930546D01*
X79549190Y-95925320D01*
X79532915Y-95919015D01*
X79329940Y-95840382D01*
X79111243Y-95799500D01*
X78888757Y-95799500D01*
X78670060Y-95840382D01*
X78548690Y-95887400D01*
X78462595Y-95920754D01*
X78273437Y-96037875D01*
X78109019Y-96187762D01*
X77974940Y-96365313D01*
X77875772Y-96564467D01*
X77863756Y-96606701D01*
X77823604Y-96747822D01*
X77814885Y-96778465D01*
X77794356Y-96999999D01*
X77806507Y-97131119D01*
X77814885Y-97221536D01*
X77845920Y-97330612D01*
X77875772Y-97435532D01*
X77974940Y-97634686D01*
X77974941Y-97634687D01*
X77974942Y-97634689D01*
X78009816Y-97680870D01*
X78109019Y-97812237D01*
X78273437Y-97962124D01*
X78462595Y-98079245D01*
X78462597Y-98079245D01*
X78462599Y-98079247D01*
X78670060Y-98159618D01*
X78888757Y-98200500D01*
X79111243Y-98200500D01*
X79329940Y-98159618D01*
X79537401Y-98079247D01*
X79537401Y-98079246D01*
X79558916Y-98070912D01*
X79560156Y-98074115D01*
X79614589Y-98053748D01*
X79654676Y-98050500D01*
X82936158Y-98050500D01*
X82960565Y-98051699D01*
X82999999Y-98055583D01*
X82999999Y-98055582D01*
X83000000Y-98055583D01*
X83205934Y-98035300D01*
X83403955Y-97975232D01*
X83586450Y-97877685D01*
X83598468Y-97867822D01*
X83598472Y-97867819D01*
X83666200Y-97812236D01*
X83746410Y-97746410D01*
X83771546Y-97715779D01*
X83787946Y-97697683D01*
X86862201Y-94623430D01*
X86942984Y-94569454D01*
X87038272Y-94550500D01*
X93436158Y-94550500D01*
X93460565Y-94551699D01*
X93499999Y-94555583D01*
X93499999Y-94555582D01*
X93500000Y-94555583D01*
X93705934Y-94535300D01*
X93903955Y-94475232D01*
X94086450Y-94377685D01*
X94167158Y-94311450D01*
X94206324Y-94279308D01*
X94246409Y-94246411D01*
X94246410Y-94246410D01*
X94271546Y-94215779D01*
X94287957Y-94197673D01*
X95024431Y-93461200D01*
X95105212Y-93407224D01*
X95200500Y-93388270D01*
X95295788Y-93407224D01*
X95376570Y-93461201D01*
X95430546Y-93541982D01*
X95449500Y-93637270D01*
X95449500Y-95050500D01*
X95430546Y-95145788D01*
X95376570Y-95226570D01*
X95295788Y-95280546D01*
X95200500Y-95299500D01*
X93705046Y-95299500D01*
X93698110Y-95300281D01*
X93698100Y-95300282D01*
X93570745Y-95314631D01*
X93400476Y-95374210D01*
X93247738Y-95470183D01*
X93169231Y-95548690D01*
X93088449Y-95602666D01*
X92993161Y-95621620D01*
X92897873Y-95602666D01*
X92863062Y-95584928D01*
X92666089Y-95464223D01*
X92666086Y-95464222D01*
X92666085Y-95464221D01*
X92440615Y-95370829D01*
X92440613Y-95370828D01*
X92440612Y-95370828D01*
X92206543Y-95314632D01*
X92203298Y-95313853D01*
X91959999Y-95294705D01*
X91716701Y-95313853D01*
X91479384Y-95370829D01*
X91253914Y-95464221D01*
X91045822Y-95591740D01*
X90851712Y-95757525D01*
X90766944Y-95804996D01*
X90670463Y-95816415D01*
X90576956Y-95790043D01*
X90528288Y-95757525D01*
X90453830Y-95693932D01*
X90334179Y-95591741D01*
X90126089Y-95464223D01*
X90126086Y-95464222D01*
X90126085Y-95464221D01*
X89900615Y-95370829D01*
X89900613Y-95370828D01*
X89900612Y-95370828D01*
X89666543Y-95314632D01*
X89663298Y-95313853D01*
X89420000Y-95294705D01*
X89176701Y-95313853D01*
X88939384Y-95370829D01*
X88713914Y-95464221D01*
X88505818Y-95591742D01*
X88320240Y-95750240D01*
X88161742Y-95935818D01*
X88034221Y-96143914D01*
X87940829Y-96369384D01*
X87883853Y-96606701D01*
X87864705Y-96849999D01*
X87883853Y-97093298D01*
X87883854Y-97093302D01*
X87913457Y-97216607D01*
X87940829Y-97330615D01*
X87984285Y-97435529D01*
X88034223Y-97556089D01*
X88082389Y-97634689D01*
X88161742Y-97764181D01*
X88320240Y-97949759D01*
X88505818Y-98108257D01*
X88505820Y-98108258D01*
X88505821Y-98108259D01*
X88713911Y-98235777D01*
X88939388Y-98329172D01*
X89176698Y-98386146D01*
X89359174Y-98400506D01*
X89419999Y-98405294D01*
X89419999Y-98405293D01*
X89420000Y-98405294D01*
X89663302Y-98386146D01*
X89900612Y-98329172D01*
X90126089Y-98235777D01*
X90334179Y-98108259D01*
X90432330Y-98024430D01*
X90528288Y-97942475D01*
X90613055Y-97895003D01*
X90709537Y-97883584D01*
X90803044Y-97909956D01*
X90851712Y-97942475D01*
X91045818Y-98108257D01*
X91045820Y-98108258D01*
X91045821Y-98108259D01*
X91253911Y-98235777D01*
X91479388Y-98329172D01*
X91716698Y-98386146D01*
X91960000Y-98405294D01*
X92203302Y-98386146D01*
X92440612Y-98329172D01*
X92666089Y-98235777D01*
X92863061Y-98115073D01*
X92954211Y-98081446D01*
X93051291Y-98085260D01*
X93139521Y-98125935D01*
X93169226Y-98151304D01*
X93247738Y-98229816D01*
X93332978Y-98283376D01*
X93403574Y-98350118D01*
X93443257Y-98438799D01*
X93449500Y-98494208D01*
X93449500Y-98961729D01*
X93430546Y-99057017D01*
X93376570Y-99137799D01*
X93137799Y-99376570D01*
X93057017Y-99430546D01*
X92961729Y-99449500D01*
X79563842Y-99449500D01*
X79539435Y-99448301D01*
X79500000Y-99444416D01*
X79448392Y-99449500D01*
X79294064Y-99464700D01*
X79096046Y-99524767D01*
X78913552Y-99622313D01*
X78753586Y-99753593D01*
X78728451Y-99784221D01*
X78712041Y-99802327D01*
X77802327Y-100712040D01*
X77784226Y-100728446D01*
X77753593Y-100753586D01*
X77753591Y-100753589D01*
X77753590Y-100753590D01*
X77702554Y-100815778D01*
X77622315Y-100913550D01*
X77524766Y-101096048D01*
X77464700Y-101294063D01*
X77444416Y-101500003D01*
X77448300Y-101539436D01*
X77449499Y-101563840D01*
X77449499Y-102461869D01*
X77430545Y-102557157D01*
X77376569Y-102637939D01*
X77362215Y-102651207D01*
X77329312Y-102679308D01*
X77160589Y-102876859D01*
X77024844Y-103098374D01*
X76925427Y-103338389D01*
X76864778Y-103591009D01*
X76849884Y-103780257D01*
X76849883Y-103780278D01*
X76849500Y-103785147D01*
X76849500Y-104214853D01*
X69456274Y-104214853D01*
X69459493Y-104209844D01*
X69500000Y-104071889D01*
X69500000Y-103928111D01*
X69459493Y-103790156D01*
X69433686Y-103750000D01*
X70349998Y-103750000D01*
X70349999Y-103749999D01*
X70349999Y-103206367D01*
X70349354Y-103193713D01*
X70339505Y-103097301D01*
X70284358Y-102930878D01*
X70192318Y-102781658D01*
X70068341Y-102657681D01*
X69919121Y-102565641D01*
X69752698Y-102510494D01*
X69656284Y-102500644D01*
X69643635Y-102500000D01*
X69250001Y-102500000D01*
X69250000Y-102500001D01*
X69250000Y-103564498D01*
X69142315Y-103515320D01*
X69035763Y-103500000D01*
X68964237Y-103500000D01*
X68857685Y-103515320D01*
X68750000Y-103564498D01*
X68750000Y-102500001D01*
X68749999Y-102500000D01*
X68356368Y-102500000D01*
X68343712Y-102500645D01*
X68247301Y-102510494D01*
X68080879Y-102565641D01*
X67930218Y-102658570D01*
X67839167Y-102692461D01*
X67742076Y-102688929D01*
X67653727Y-102648511D01*
X67587571Y-102577359D01*
X67553680Y-102486308D01*
X67550500Y-102446641D01*
X67550500Y-101038271D01*
X67569454Y-100942983D01*
X67623430Y-100862201D01*
X67862201Y-100623430D01*
X67942983Y-100569454D01*
X68038271Y-100550500D01*
X71436158Y-100550500D01*
X71460565Y-100551699D01*
X71499999Y-100555583D01*
X71499999Y-100555582D01*
X71500000Y-100555583D01*
X71705934Y-100535300D01*
X71903955Y-100475232D01*
X72086450Y-100377685D01*
X72109771Y-100358545D01*
X72163134Y-100314753D01*
X72246408Y-100246412D01*
X72246410Y-100246410D01*
X72271546Y-100215779D01*
X72287946Y-100197683D01*
X73197684Y-99287945D01*
X73215768Y-99271555D01*
X73246410Y-99246410D01*
X73377685Y-99086450D01*
X73381363Y-99079570D01*
X73444350Y-98961729D01*
X73475232Y-98903954D01*
X73535300Y-98705934D01*
X73550500Y-98551608D01*
X73550500Y-98551607D01*
X73555583Y-98500000D01*
X73551698Y-98460564D01*
X73550500Y-98436158D01*
X73550500Y-97642158D01*
X73569454Y-97546870D01*
X73576605Y-97531168D01*
X73624229Y-97435528D01*
X73685115Y-97221536D01*
X73705643Y-97000000D01*
X73685115Y-96778464D01*
X73624229Y-96564472D01*
X73598231Y-96512262D01*
X73525059Y-96365313D01*
X73525058Y-96365312D01*
X73525058Y-96365311D01*
X73431311Y-96241170D01*
X73390980Y-96187762D01*
X73226562Y-96037875D01*
X73037404Y-95920754D01*
X73011994Y-95910910D01*
X72829940Y-95840382D01*
X72611243Y-95799500D01*
X72388757Y-95799500D01*
X72170060Y-95840382D01*
X72048690Y-95887400D01*
X71962595Y-95920754D01*
X71773437Y-96037875D01*
X71609019Y-96187762D01*
X71474940Y-96365313D01*
X71375772Y-96564467D01*
X71363756Y-96606701D01*
X71323604Y-96747822D01*
X71314885Y-96778465D01*
X71294356Y-96999999D01*
X71306507Y-97131119D01*
X71314885Y-97221536D01*
X71375771Y-97435528D01*
X71375773Y-97435532D01*
X71423395Y-97531168D01*
X71448902Y-97624914D01*
X71449500Y-97642158D01*
X71449500Y-97961729D01*
X71430546Y-98057017D01*
X71376570Y-98137799D01*
X71137799Y-98376570D01*
X71057017Y-98430546D01*
X70961729Y-98449500D01*
X69434675Y-98449500D01*
X69339387Y-98430546D01*
X69258605Y-98376570D01*
X69204629Y-98295788D01*
X69185675Y-98200500D01*
X69204629Y-98105212D01*
X69258605Y-98024430D01*
X69339387Y-97970454D01*
X69353825Y-97964992D01*
X69514137Y-97909956D01*
X69604810Y-97878828D01*
X69823509Y-97760474D01*
X70019744Y-97607738D01*
X70178271Y-97435532D01*
X70188162Y-97424788D01*
X70249690Y-97330612D01*
X70324173Y-97216607D01*
X70424063Y-96988881D01*
X70485108Y-96747821D01*
X70505643Y-96500000D01*
X70485108Y-96252179D01*
X70424063Y-96011119D01*
X70324173Y-95783393D01*
X70206099Y-95602666D01*
X70188162Y-95575211D01*
X70019745Y-95392263D01*
X69992205Y-95370828D01*
X69823509Y-95239526D01*
X69604810Y-95121172D01*
X69604809Y-95121171D01*
X69604806Y-95121170D01*
X69369616Y-95040429D01*
X69124336Y-94999500D01*
X69124335Y-94999500D01*
X68875665Y-94999500D01*
X68875664Y-94999500D01*
X68630383Y-95040429D01*
X68395193Y-95121170D01*
X68176490Y-95239526D01*
X67980254Y-95392263D01*
X67811837Y-95575211D01*
X67675826Y-95783393D01*
X67575936Y-96011119D01*
X67514892Y-96252177D01*
X67494357Y-96500000D01*
X67514892Y-96747822D01*
X67575936Y-96988880D01*
X67675826Y-97216606D01*
X67811837Y-97424788D01*
X67958030Y-97583594D01*
X67980256Y-97607738D01*
X68176491Y-97760474D01*
X68395190Y-97878828D01*
X68395193Y-97878829D01*
X68646175Y-97964992D01*
X68730146Y-98013859D01*
X68789024Y-98091140D01*
X68813847Y-98185071D01*
X68800833Y-98281350D01*
X68751966Y-98365321D01*
X68674685Y-98424199D01*
X68580754Y-98449022D01*
X68565325Y-98449500D01*
X67563842Y-98449500D01*
X67539435Y-98448301D01*
X67500000Y-98444416D01*
X67448392Y-98449500D01*
X67294064Y-98464700D01*
X67096046Y-98524767D01*
X66913552Y-98622313D01*
X66753586Y-98753593D01*
X66728451Y-98784221D01*
X66712041Y-98802327D01*
X65802327Y-99712040D01*
X65784226Y-99728446D01*
X65753591Y-99753588D01*
X65720692Y-99793677D01*
X65622315Y-99913550D01*
X65524766Y-100096048D01*
X65464700Y-100294063D01*
X65444416Y-100499999D01*
X65448301Y-100539433D01*
X65449500Y-100563840D01*
X65449500Y-102461869D01*
X65430546Y-102557157D01*
X65376570Y-102637939D01*
X65362213Y-102651209D01*
X65329314Y-102679307D01*
X65160589Y-102876859D01*
X65024844Y-103098374D01*
X64925427Y-103338389D01*
X64864778Y-103591009D01*
X64849884Y-103780257D01*
X64849883Y-103780278D01*
X64849500Y-103785147D01*
X64849500Y-104214853D01*
X62500500Y-104214853D01*
X62500500Y-96500000D01*
X63494357Y-96500000D01*
X63514892Y-96747822D01*
X63575936Y-96988880D01*
X63675826Y-97216606D01*
X63811837Y-97424788D01*
X63958030Y-97583594D01*
X63980256Y-97607738D01*
X64176491Y-97760474D01*
X64395190Y-97878828D01*
X64630386Y-97959571D01*
X64814233Y-97990249D01*
X64875664Y-98000500D01*
X64875665Y-98000500D01*
X65124336Y-98000500D01*
X65173462Y-97992302D01*
X65369614Y-97959571D01*
X65604810Y-97878828D01*
X65823509Y-97760474D01*
X66019744Y-97607738D01*
X66178271Y-97435532D01*
X66188162Y-97424788D01*
X66249690Y-97330612D01*
X66324173Y-97216607D01*
X66424063Y-96988881D01*
X66485108Y-96747821D01*
X66505643Y-96500000D01*
X66485108Y-96252179D01*
X66424063Y-96011119D01*
X66324173Y-95783393D01*
X66206099Y-95602666D01*
X66188162Y-95575211D01*
X66019745Y-95392263D01*
X65992205Y-95370828D01*
X65823509Y-95239526D01*
X65604810Y-95121172D01*
X65604809Y-95121171D01*
X65604806Y-95121170D01*
X65369616Y-95040429D01*
X65124336Y-94999500D01*
X65124335Y-94999500D01*
X64875665Y-94999500D01*
X64875664Y-94999500D01*
X64630383Y-95040429D01*
X64395193Y-95121170D01*
X64176490Y-95239526D01*
X63980254Y-95392263D01*
X63811837Y-95575211D01*
X63675826Y-95783393D01*
X63575936Y-96011119D01*
X63514892Y-96252177D01*
X63494357Y-96500000D01*
X62500500Y-96500000D01*
X62500500Y-93250000D01*
X74655778Y-93250000D01*
X74665430Y-93360321D01*
X74726568Y-93588491D01*
X74826397Y-93802573D01*
X74961891Y-93996079D01*
X75128919Y-94163108D01*
X75322420Y-94298599D01*
X75536508Y-94398430D01*
X75750000Y-94455634D01*
X75750000Y-93408018D01*
X75864801Y-93460446D01*
X75966025Y-93475000D01*
X76033975Y-93475000D01*
X76135199Y-93460446D01*
X76250000Y-93408018D01*
X76250000Y-94455634D01*
X76463491Y-94398430D01*
X76677578Y-94298599D01*
X76888922Y-94150615D01*
X76889890Y-94151997D01*
X76947453Y-94113532D01*
X77042741Y-94094574D01*
X77138030Y-94113524D01*
X77218814Y-94167496D01*
X77232087Y-94181855D01*
X77329311Y-94295689D01*
X77526860Y-94464412D01*
X77748372Y-94600154D01*
X77988390Y-94699573D01*
X78241006Y-94760221D01*
X78500000Y-94780604D01*
X78758994Y-94760221D01*
X79011610Y-94699573D01*
X79251628Y-94600154D01*
X79420482Y-94496680D01*
X79511628Y-94463055D01*
X79608708Y-94466869D01*
X79696939Y-94507543D01*
X79708545Y-94516510D01*
X79813549Y-94602685D01*
X79994811Y-94699572D01*
X79996046Y-94700232D01*
X80194066Y-94760300D01*
X80348392Y-94775500D01*
X80354502Y-94775500D01*
X81645498Y-94775500D01*
X81651608Y-94775500D01*
X81805934Y-94760300D01*
X82003954Y-94700232D01*
X82186450Y-94602685D01*
X82346410Y-94471410D01*
X82477685Y-94311450D01*
X82575232Y-94128954D01*
X82635300Y-93930934D01*
X82650500Y-93776608D01*
X82650500Y-92223392D01*
X82635300Y-92069066D01*
X82575232Y-91871046D01*
X82514946Y-91758259D01*
X82477685Y-91688549D01*
X82346410Y-91528589D01*
X82186450Y-91397314D01*
X82182118Y-91394999D01*
X82107017Y-91333363D01*
X82061220Y-91247679D01*
X82050500Y-91175403D01*
X82050500Y-84824596D01*
X82069454Y-84729308D01*
X82105742Y-84674999D01*
X85506916Y-84674999D01*
X85527199Y-84880931D01*
X85527200Y-84880934D01*
X85587268Y-85078955D01*
X85653781Y-85203390D01*
X85684815Y-85261450D01*
X85767499Y-85362201D01*
X85816091Y-85421411D01*
X85846714Y-85446542D01*
X85864822Y-85462953D01*
X86409546Y-86007677D01*
X86425956Y-86025784D01*
X86451090Y-86056410D01*
X86582034Y-86163872D01*
X86611050Y-86187685D01*
X86793546Y-86285232D01*
X86991566Y-86345300D01*
X87197500Y-86365583D01*
X87236935Y-86361699D01*
X87261342Y-86360500D01*
X87288735Y-86360500D01*
X87384023Y-86379454D01*
X87441674Y-86413004D01*
X87447754Y-86417736D01*
X87447756Y-86417738D01*
X87643991Y-86570474D01*
X87862690Y-86688828D01*
X87862693Y-86688829D01*
X88035599Y-86748188D01*
X88097886Y-86769571D01*
X88281733Y-86800249D01*
X88343164Y-86810500D01*
X88343165Y-86810500D01*
X88591836Y-86810500D01*
X88640962Y-86802302D01*
X88837114Y-86769571D01*
X89072310Y-86688828D01*
X89291009Y-86570474D01*
X89487244Y-86417738D01*
X89575626Y-86321728D01*
X89655662Y-86234788D01*
X89686436Y-86187685D01*
X89791673Y-86026607D01*
X89891563Y-85798881D01*
X89952608Y-85557821D01*
X89973143Y-85310000D01*
X89952608Y-85062179D01*
X89891563Y-84821119D01*
X89791673Y-84593393D01*
X89730655Y-84499998D01*
X89655662Y-84385211D01*
X89487245Y-84202263D01*
X89482568Y-84198623D01*
X89291009Y-84049526D01*
X89072310Y-83931172D01*
X89072309Y-83931171D01*
X89072306Y-83931170D01*
X88837116Y-83850429D01*
X88591836Y-83809500D01*
X88591835Y-83809500D01*
X88343165Y-83809500D01*
X88343164Y-83809500D01*
X88097889Y-83850428D01*
X87942850Y-83903653D01*
X87846570Y-83916665D01*
X87752640Y-83891843D01*
X87675358Y-83832965D01*
X87626491Y-83748994D01*
X87613000Y-83668144D01*
X87613000Y-83141855D01*
X87631954Y-83046567D01*
X87685930Y-82965785D01*
X87766712Y-82911809D01*
X87862000Y-82892855D01*
X87942849Y-82906346D01*
X88006246Y-82928111D01*
X88097885Y-82959571D01*
X88343164Y-83000500D01*
X88343165Y-83000500D01*
X88591836Y-83000500D01*
X88640962Y-82992302D01*
X88837114Y-82959571D01*
X89072310Y-82878828D01*
X89291009Y-82760474D01*
X89487244Y-82607738D01*
X89487246Y-82607736D01*
X89493326Y-82603004D01*
X89580163Y-82559434D01*
X89646265Y-82550500D01*
X92213658Y-82550500D01*
X92238065Y-82551699D01*
X92277499Y-82555583D01*
X92277499Y-82555582D01*
X92277500Y-82555583D01*
X92483434Y-82535300D01*
X92681455Y-82475232D01*
X92863950Y-82377685D01*
X92926868Y-82326050D01*
X92983824Y-82279308D01*
X93023909Y-82246411D01*
X93023910Y-82246410D01*
X93049046Y-82215779D01*
X93065446Y-82197683D01*
X93610184Y-81652945D01*
X93628268Y-81636555D01*
X93658910Y-81611410D01*
X93790185Y-81451450D01*
X93887732Y-81268954D01*
X93947800Y-81070934D01*
X93963000Y-80916608D01*
X93963000Y-80916607D01*
X93968083Y-80865000D01*
X93965303Y-80836779D01*
X93964199Y-80825565D01*
X93963000Y-80801158D01*
X93963000Y-78849500D01*
X93981954Y-78754212D01*
X94035930Y-78673430D01*
X94116712Y-78619454D01*
X94212000Y-78600500D01*
X96690468Y-78600500D01*
X96697454Y-78600500D01*
X96831755Y-78585368D01*
X96948549Y-78544500D01*
X97002023Y-78525789D01*
X97088311Y-78471570D01*
X97154762Y-78429816D01*
X97282316Y-78302262D01*
X97325471Y-78233580D01*
X97378289Y-78149523D01*
X97437868Y-77979254D01*
X97441878Y-77943661D01*
X97442854Y-77935000D01*
X99049357Y-77935000D01*
X99069892Y-78182822D01*
X99130936Y-78423880D01*
X99230826Y-78651606D01*
X99366837Y-78859788D01*
X99500013Y-79004454D01*
X99535256Y-79042738D01*
X99731491Y-79195474D01*
X99950190Y-79313828D01*
X100185386Y-79394571D01*
X100369233Y-79425249D01*
X100430664Y-79435500D01*
X100430665Y-79435500D01*
X100679336Y-79435500D01*
X100728462Y-79427302D01*
X100924614Y-79394571D01*
X101159810Y-79313828D01*
X101378509Y-79195474D01*
X101574744Y-79042738D01*
X101574746Y-79042736D01*
X101580826Y-79038004D01*
X101667663Y-78994434D01*
X101733765Y-78985500D01*
X103821235Y-78985500D01*
X103916523Y-79004454D01*
X103974174Y-79038004D01*
X103980254Y-79042736D01*
X103980256Y-79042738D01*
X104176491Y-79195474D01*
X104395190Y-79313828D01*
X104630386Y-79394571D01*
X104814233Y-79425249D01*
X104875664Y-79435500D01*
X104875665Y-79435500D01*
X105124336Y-79435500D01*
X105173462Y-79427302D01*
X105369614Y-79394571D01*
X105604810Y-79313828D01*
X105823509Y-79195474D01*
X105910499Y-79127767D01*
X115645788Y-79127767D01*
X115675413Y-79397019D01*
X115743926Y-79659083D01*
X115743927Y-79659087D01*
X115743928Y-79659088D01*
X115849870Y-79908390D01*
X115920466Y-80024066D01*
X115990981Y-80139609D01*
X116164254Y-80347820D01*
X116213855Y-80392262D01*
X116365998Y-80528582D01*
X116366000Y-80528583D01*
X116366002Y-80528585D01*
X116485189Y-80607438D01*
X116591910Y-80678044D01*
X116837176Y-80793020D01*
X116837178Y-80793020D01*
X116837181Y-80793022D01*
X117023372Y-80849038D01*
X117096569Y-80871060D01*
X117364561Y-80910500D01*
X117364564Y-80910500D01*
X117563085Y-80910500D01*
X117567631Y-80910500D01*
X117770156Y-80895677D01*
X118034553Y-80836780D01*
X118252062Y-80753590D01*
X118287556Y-80740015D01*
X118287558Y-80740014D01*
X118523777Y-80607441D01*
X118738177Y-80441888D01*
X118926186Y-80246881D01*
X119083799Y-80026579D01*
X119207656Y-79785675D01*
X119295118Y-79529305D01*
X119344319Y-79262933D01*
X119354212Y-78992235D01*
X119324586Y-78722982D01*
X119324586Y-78722980D01*
X119256073Y-78460916D01*
X119256072Y-78460912D01*
X119150130Y-78211610D01*
X119009018Y-77980390D01*
X118971244Y-77935000D01*
X118835745Y-77772179D01*
X118699429Y-77650041D01*
X118634002Y-77591418D01*
X118633999Y-77591416D01*
X118633997Y-77591414D01*
X118408095Y-77441959D01*
X118408093Y-77441958D01*
X118408090Y-77441956D01*
X118162824Y-77326980D01*
X118162825Y-77326980D01*
X118162818Y-77326977D01*
X117903436Y-77248941D01*
X117903432Y-77248940D01*
X117903431Y-77248940D01*
X117635439Y-77209500D01*
X117432369Y-77209500D01*
X117427852Y-77209830D01*
X117427841Y-77209831D01*
X117229842Y-77224323D01*
X116965445Y-77283220D01*
X116712443Y-77379984D01*
X116476219Y-77512561D01*
X116261827Y-77678108D01*
X116261823Y-77678111D01*
X116261823Y-77678112D01*
X116212901Y-77728855D01*
X116073812Y-77873121D01*
X115916199Y-78093422D01*
X115792344Y-78334324D01*
X115704881Y-78590694D01*
X115655681Y-78857064D01*
X115654871Y-78879221D01*
X115648896Y-79042736D01*
X115645788Y-79127767D01*
X105910499Y-79127767D01*
X106019744Y-79042738D01*
X106108126Y-78946728D01*
X106188162Y-78859788D01*
X106189942Y-78857064D01*
X106324173Y-78651607D01*
X106424063Y-78423881D01*
X106485108Y-78182821D01*
X106505643Y-77935000D01*
X106485108Y-77687179D01*
X106424063Y-77446119D01*
X106324173Y-77218393D01*
X106318363Y-77209500D01*
X106188162Y-77010211D01*
X106019745Y-76827263D01*
X105823509Y-76674526D01*
X105604806Y-76556170D01*
X105369616Y-76475429D01*
X105124336Y-76434500D01*
X105124335Y-76434500D01*
X104875665Y-76434500D01*
X104875664Y-76434500D01*
X104630383Y-76475429D01*
X104395193Y-76556170D01*
X104176490Y-76674526D01*
X103974174Y-76831996D01*
X103887337Y-76875566D01*
X103821235Y-76884500D01*
X101733765Y-76884500D01*
X101638477Y-76865546D01*
X101580826Y-76831996D01*
X101378509Y-76674526D01*
X101159806Y-76556170D01*
X100924616Y-76475429D01*
X100679336Y-76434500D01*
X100679335Y-76434500D01*
X100430665Y-76434500D01*
X100430664Y-76434500D01*
X100185383Y-76475429D01*
X99950193Y-76556170D01*
X99731490Y-76674526D01*
X99535254Y-76827263D01*
X99366837Y-77010211D01*
X99230826Y-77218393D01*
X99130936Y-77446119D01*
X99069892Y-77687177D01*
X99049357Y-77935000D01*
X97442854Y-77935000D01*
X97453000Y-77844954D01*
X97453000Y-76155046D01*
X97437868Y-76020745D01*
X97418226Y-75964612D01*
X97378289Y-75850476D01*
X97282318Y-75697741D01*
X97282317Y-75697740D01*
X97282316Y-75697738D01*
X97154762Y-75570184D01*
X97034280Y-75494480D01*
X96963682Y-75427735D01*
X96924000Y-75339053D01*
X96921275Y-75241936D01*
X96955923Y-75151169D01*
X96962789Y-75140824D01*
X96982634Y-75112481D01*
X97078767Y-74906322D01*
X97131372Y-74710000D01*
X95768186Y-74710000D01*
X95780141Y-74698045D01*
X95837665Y-74585148D01*
X95857486Y-74460000D01*
X95837665Y-74334852D01*
X95780141Y-74221955D01*
X95768186Y-74210000D01*
X97131372Y-74210000D01*
X97131372Y-74209999D01*
X97078767Y-74013677D01*
X96982633Y-73807515D01*
X96962788Y-73779173D01*
X96923659Y-73690246D01*
X96921540Y-73593114D01*
X96956753Y-73502565D01*
X97023937Y-73432384D01*
X97034262Y-73425530D01*
X97154762Y-73349816D01*
X97282316Y-73222262D01*
X97376802Y-73071889D01*
X97378289Y-73069523D01*
X97415036Y-72964505D01*
X97437868Y-72899255D01*
X97453000Y-72764954D01*
X97453000Y-71689853D01*
X100349500Y-71689853D01*
X100349883Y-71694722D01*
X100349884Y-71694742D01*
X100364778Y-71883990D01*
X100425427Y-72136610D01*
X100524844Y-72376625D01*
X100524846Y-72376628D01*
X100660588Y-72598140D01*
X100829311Y-72795689D01*
X101026860Y-72964412D01*
X101248372Y-73100154D01*
X101488390Y-73199573D01*
X101741006Y-73260221D01*
X102000000Y-73280604D01*
X102258994Y-73260221D01*
X102511610Y-73199573D01*
X102751628Y-73100154D01*
X102973140Y-72964412D01*
X103170689Y-72795689D01*
X103267905Y-72681863D01*
X103344203Y-72621714D01*
X103437711Y-72595343D01*
X103534192Y-72606762D01*
X103618959Y-72654234D01*
X103627438Y-72662071D01*
X103822420Y-72798599D01*
X104036508Y-72898430D01*
X104250000Y-72955634D01*
X104250000Y-71908018D01*
X104364801Y-71960446D01*
X104466025Y-71975000D01*
X104533975Y-71975000D01*
X104635199Y-71960446D01*
X104749999Y-71908018D01*
X104750000Y-72955634D01*
X104963491Y-72898430D01*
X105177578Y-72798599D01*
X105388922Y-72650615D01*
X105389890Y-72651997D01*
X105447453Y-72613532D01*
X105542741Y-72594574D01*
X105638030Y-72613524D01*
X105718814Y-72667496D01*
X105732087Y-72681855D01*
X105829311Y-72795689D01*
X106026860Y-72964412D01*
X106248372Y-73100154D01*
X106488390Y-73199573D01*
X106741006Y-73260221D01*
X107000000Y-73280604D01*
X107258994Y-73260221D01*
X107511610Y-73199573D01*
X107751628Y-73100154D01*
X107973140Y-72964412D01*
X108170689Y-72795689D01*
X108267905Y-72681863D01*
X108344203Y-72621714D01*
X108437711Y-72595343D01*
X108534192Y-72606762D01*
X108618959Y-72654234D01*
X108627438Y-72662071D01*
X108822420Y-72798599D01*
X109036508Y-72898430D01*
X109250000Y-72955634D01*
X109250000Y-71908018D01*
X109364801Y-71960446D01*
X109466025Y-71975000D01*
X109533975Y-71975000D01*
X109635199Y-71960446D01*
X109750000Y-71908018D01*
X109750000Y-72955634D01*
X109963491Y-72898430D01*
X110177578Y-72798599D01*
X110388922Y-72650615D01*
X110389890Y-72651997D01*
X110447453Y-72613532D01*
X110542741Y-72594574D01*
X110638030Y-72613524D01*
X110718814Y-72667496D01*
X110732087Y-72681855D01*
X110829311Y-72795689D01*
X111026860Y-72964412D01*
X111248372Y-73100154D01*
X111488390Y-73199573D01*
X111741006Y-73260221D01*
X112000000Y-73280604D01*
X112258994Y-73260221D01*
X112511610Y-73199573D01*
X112751628Y-73100154D01*
X112973140Y-72964412D01*
X113127438Y-72832628D01*
X113212201Y-72785159D01*
X113308682Y-72773740D01*
X113402190Y-72800111D01*
X113419866Y-72810044D01*
X113580879Y-72909358D01*
X113747301Y-72964505D01*
X113843715Y-72974355D01*
X113856365Y-72974999D01*
X114250000Y-72974999D01*
X114250000Y-71908018D01*
X114364801Y-71960446D01*
X114466025Y-71975000D01*
X114533975Y-71975000D01*
X114635199Y-71960446D01*
X114750000Y-71908018D01*
X114750000Y-72974998D01*
X114750001Y-72974999D01*
X115143632Y-72974999D01*
X115156286Y-72974354D01*
X115252698Y-72964505D01*
X115419121Y-72909358D01*
X115568341Y-72817318D01*
X115692318Y-72693341D01*
X115784358Y-72544121D01*
X115839505Y-72377698D01*
X115849355Y-72281284D01*
X115850000Y-72268634D01*
X115850000Y-71750001D01*
X115849999Y-71750000D01*
X114903969Y-71750000D01*
X114936519Y-71699351D01*
X114975000Y-71568295D01*
X114975000Y-71431705D01*
X114936519Y-71300649D01*
X114903969Y-71250000D01*
X115849998Y-71250000D01*
X115849999Y-71249998D01*
X115849999Y-70731367D01*
X115849354Y-70718713D01*
X115839505Y-70622301D01*
X115784358Y-70455878D01*
X115692318Y-70306658D01*
X115568341Y-70182681D01*
X115419121Y-70090641D01*
X115252698Y-70035494D01*
X115156284Y-70025644D01*
X115143635Y-70025000D01*
X114750001Y-70025000D01*
X114750000Y-70025001D01*
X114750000Y-71091981D01*
X114635199Y-71039554D01*
X114533975Y-71025000D01*
X114466025Y-71025000D01*
X114364801Y-71039554D01*
X114250000Y-71091981D01*
X114250000Y-70025001D01*
X114249999Y-70025000D01*
X113856368Y-70025000D01*
X113843712Y-70025645D01*
X113747301Y-70035494D01*
X113580878Y-70090641D01*
X113419866Y-70189955D01*
X113328814Y-70223847D01*
X113231723Y-70220315D01*
X113143375Y-70179897D01*
X113127434Y-70167368D01*
X113121074Y-70161936D01*
X112973140Y-70035588D01*
X112751628Y-69899846D01*
X112751625Y-69899844D01*
X112511610Y-69800427D01*
X112258990Y-69739778D01*
X112000000Y-69719395D01*
X111741009Y-69739778D01*
X111488389Y-69800427D01*
X111248374Y-69899844D01*
X111169628Y-69948100D01*
X111026860Y-70035588D01*
X111026858Y-70035589D01*
X111026859Y-70035589D01*
X110829309Y-70204312D01*
X110732092Y-70318138D01*
X110655794Y-70378286D01*
X110562286Y-70404657D01*
X110465805Y-70393236D01*
X110381038Y-70345764D01*
X110372560Y-70337927D01*
X110177579Y-70201400D01*
X109963486Y-70101567D01*
X109750000Y-70044363D01*
X109750000Y-71091981D01*
X109635199Y-71039554D01*
X109533975Y-71025000D01*
X109466025Y-71025000D01*
X109364801Y-71039554D01*
X109250000Y-71091981D01*
X109250000Y-70044364D01*
X109249999Y-70044363D01*
X109036508Y-70101568D01*
X108822426Y-70201397D01*
X108611078Y-70349385D01*
X108610109Y-70348002D01*
X108552525Y-70386475D01*
X108457236Y-70405425D01*
X108361948Y-70386467D01*
X108281169Y-70332487D01*
X108267906Y-70318137D01*
X108170691Y-70204313D01*
X108170689Y-70204311D01*
X107973140Y-70035588D01*
X107751628Y-69899846D01*
X107751625Y-69899844D01*
X107511610Y-69800427D01*
X107258990Y-69739778D01*
X107000000Y-69719395D01*
X106741009Y-69739778D01*
X106488389Y-69800427D01*
X106248374Y-69899844D01*
X106169628Y-69948100D01*
X106026860Y-70035588D01*
X106026858Y-70035589D01*
X106026859Y-70035589D01*
X105829309Y-70204312D01*
X105732092Y-70318138D01*
X105655794Y-70378286D01*
X105562286Y-70404657D01*
X105465805Y-70393236D01*
X105381038Y-70345764D01*
X105372560Y-70337927D01*
X105177579Y-70201400D01*
X104963486Y-70101567D01*
X104750000Y-70044363D01*
X104749999Y-71091981D01*
X104635199Y-71039554D01*
X104533975Y-71025000D01*
X104466025Y-71025000D01*
X104364801Y-71039554D01*
X104250000Y-71091981D01*
X104250000Y-70044364D01*
X104249999Y-70044363D01*
X104036508Y-70101568D01*
X103822426Y-70201397D01*
X103611078Y-70349385D01*
X103610109Y-70348002D01*
X103552525Y-70386475D01*
X103457236Y-70405425D01*
X103361948Y-70386467D01*
X103281169Y-70332487D01*
X103267906Y-70318137D01*
X103170691Y-70204313D01*
X103170689Y-70204311D01*
X102973140Y-70035588D01*
X102751628Y-69899846D01*
X102751625Y-69899844D01*
X102511610Y-69800427D01*
X102258990Y-69739778D01*
X102000000Y-69719395D01*
X101741009Y-69739778D01*
X101488389Y-69800427D01*
X101248374Y-69899844D01*
X101169628Y-69948100D01*
X101026860Y-70035588D01*
X100829311Y-70204311D01*
X100660588Y-70401860D01*
X100632792Y-70447219D01*
X100524844Y-70623374D01*
X100425427Y-70863389D01*
X100364778Y-71116009D01*
X100349884Y-71305257D01*
X100349883Y-71305278D01*
X100349500Y-71310147D01*
X100349500Y-71689853D01*
X97453000Y-71689853D01*
X97453000Y-71075046D01*
X97437868Y-70940745D01*
X97415159Y-70875846D01*
X97378289Y-70770476D01*
X97282318Y-70617741D01*
X97282317Y-70617740D01*
X97282316Y-70617738D01*
X97154762Y-70490184D01*
X97034280Y-70414480D01*
X96963682Y-70347735D01*
X96924000Y-70259053D01*
X96921275Y-70161936D01*
X96955923Y-70071169D01*
X96962789Y-70060824D01*
X96982634Y-70032481D01*
X97078767Y-69826322D01*
X97131372Y-69630000D01*
X95768186Y-69630000D01*
X95780141Y-69618045D01*
X95837665Y-69505148D01*
X95857486Y-69380000D01*
X95837665Y-69254852D01*
X95780141Y-69141955D01*
X95768186Y-69130000D01*
X97131372Y-69130000D01*
X97131372Y-69129999D01*
X97078767Y-68933677D01*
X96982633Y-68727515D01*
X96852164Y-68541186D01*
X96691313Y-68380335D01*
X96504984Y-68249866D01*
X96298822Y-68153732D01*
X96079104Y-68094858D01*
X95914682Y-68080473D01*
X95903838Y-68080000D01*
X95702501Y-68080000D01*
X95702500Y-68080001D01*
X95702500Y-69064314D01*
X95690545Y-69052359D01*
X95577648Y-68994835D01*
X95483981Y-68980000D01*
X95421019Y-68980000D01*
X95327352Y-68994835D01*
X95214455Y-69052359D01*
X95202500Y-69064314D01*
X95202500Y-68080001D01*
X95202499Y-68080000D01*
X95001162Y-68080000D01*
X94990317Y-68080473D01*
X94825895Y-68094858D01*
X94606177Y-68153732D01*
X94400015Y-68249866D01*
X94213686Y-68380335D01*
X94052835Y-68541186D01*
X93922366Y-68727515D01*
X93826232Y-68933677D01*
X93773627Y-69129999D01*
X93773628Y-69130000D01*
X95136814Y-69130000D01*
X95124859Y-69141955D01*
X95067335Y-69254852D01*
X95047514Y-69380000D01*
X95067335Y-69505148D01*
X95124859Y-69618045D01*
X95136814Y-69630000D01*
X93773627Y-69630000D01*
X93826232Y-69826322D01*
X93922366Y-70032483D01*
X93942212Y-70060827D01*
X93981340Y-70149754D01*
X93983459Y-70246886D01*
X93948246Y-70337435D01*
X93881061Y-70407616D01*
X93870719Y-70414480D01*
X93750240Y-70490182D01*
X93622681Y-70617741D01*
X93537708Y-70752976D01*
X93470963Y-70823575D01*
X93382282Y-70863257D01*
X93326874Y-70869500D01*
X92341342Y-70869500D01*
X92316935Y-70868301D01*
X92277500Y-70864416D01*
X92225892Y-70869500D01*
X92071564Y-70884700D01*
X91873546Y-70944767D01*
X91691049Y-71042314D01*
X91531089Y-71173590D01*
X91505950Y-71204221D01*
X91489544Y-71222323D01*
X90944823Y-71767044D01*
X90926721Y-71783450D01*
X90896093Y-71808586D01*
X90896089Y-71808590D01*
X90896090Y-71808590D01*
X90824565Y-71895744D01*
X90771466Y-71960446D01*
X90764815Y-71968550D01*
X90667266Y-72151048D01*
X90607200Y-72349063D01*
X90586916Y-72554999D01*
X90590801Y-72594433D01*
X90592000Y-72618840D01*
X90592000Y-78295500D01*
X90573046Y-78390788D01*
X90519070Y-78471570D01*
X90438288Y-78525546D01*
X90343000Y-78544500D01*
X89558292Y-78544500D01*
X89463004Y-78525546D01*
X89382222Y-78471570D01*
X89328246Y-78390788D01*
X89309292Y-78295500D01*
X89328246Y-78200212D01*
X89368951Y-78133788D01*
X89531334Y-77943661D01*
X89531336Y-77943659D01*
X89662966Y-77728859D01*
X89680231Y-77687179D01*
X89759372Y-77496113D01*
X89759371Y-77496113D01*
X89759373Y-77496111D01*
X89818183Y-77251148D01*
X89837949Y-77000000D01*
X89818183Y-76748852D01*
X89759373Y-76503889D01*
X89747585Y-76475429D01*
X89662968Y-76271144D01*
X89531334Y-76056338D01*
X89367726Y-75864778D01*
X89350981Y-75850476D01*
X89194184Y-75716558D01*
X89134037Y-75640263D01*
X89107666Y-75546755D01*
X89119085Y-75450274D01*
X89166557Y-75365506D01*
X89179830Y-75351148D01*
X89232163Y-75298815D01*
X89362633Y-75112484D01*
X89458767Y-74906322D01*
X89511372Y-74710000D01*
X88148186Y-74710000D01*
X88160141Y-74698045D01*
X88217665Y-74585148D01*
X88237486Y-74460000D01*
X88217665Y-74334852D01*
X88160141Y-74221955D01*
X88148186Y-74210000D01*
X89511372Y-74210000D01*
X89511372Y-74209999D01*
X89458767Y-74013677D01*
X89362633Y-73807515D01*
X89232164Y-73621186D01*
X89179828Y-73568850D01*
X89125852Y-73488068D01*
X89106898Y-73392780D01*
X89125852Y-73297492D01*
X89179828Y-73216710D01*
X89194164Y-73203457D01*
X89367724Y-73055224D01*
X89531336Y-72863659D01*
X89662966Y-72648859D01*
X89675401Y-72618840D01*
X89759372Y-72416113D01*
X89759371Y-72416113D01*
X89759373Y-72416111D01*
X89818183Y-72171148D01*
X89837949Y-71920000D01*
X89818183Y-71668852D01*
X89759373Y-71423889D01*
X89759372Y-71423886D01*
X89662968Y-71191144D01*
X89531334Y-70976338D01*
X89367726Y-70784778D01*
X89367724Y-70784776D01*
X89194184Y-70636558D01*
X89134037Y-70560263D01*
X89107666Y-70466755D01*
X89119085Y-70370274D01*
X89166557Y-70285506D01*
X89179830Y-70271148D01*
X89232163Y-70218815D01*
X89362633Y-70032484D01*
X89458767Y-69826322D01*
X89511372Y-69630000D01*
X88148186Y-69630000D01*
X88160141Y-69618045D01*
X88217665Y-69505148D01*
X88237486Y-69380000D01*
X88217665Y-69254852D01*
X88160141Y-69141955D01*
X88148186Y-69130000D01*
X89511372Y-69130000D01*
X89511372Y-69129999D01*
X89458767Y-68933677D01*
X89362633Y-68727515D01*
X89232164Y-68541186D01*
X89071313Y-68380335D01*
X88884984Y-68249866D01*
X88678822Y-68153732D01*
X88459104Y-68094858D01*
X88294682Y-68080473D01*
X88283838Y-68080000D01*
X88082501Y-68080000D01*
X88082500Y-68080001D01*
X88082500Y-69064314D01*
X88070545Y-69052359D01*
X87957648Y-68994835D01*
X87863981Y-68980000D01*
X87801019Y-68980000D01*
X87707352Y-68994835D01*
X87594455Y-69052359D01*
X87582500Y-69064314D01*
X87582500Y-68080001D01*
X87582499Y-68080000D01*
X87381162Y-68080000D01*
X87370317Y-68080473D01*
X87205895Y-68094858D01*
X86986177Y-68153732D01*
X86780015Y-68249866D01*
X86593686Y-68380335D01*
X86432835Y-68541186D01*
X86302366Y-68727515D01*
X86206232Y-68933677D01*
X86153627Y-69129999D01*
X86153628Y-69130000D01*
X87516814Y-69130000D01*
X87504859Y-69141955D01*
X87447335Y-69254852D01*
X87427514Y-69380000D01*
X87447335Y-69505148D01*
X87504859Y-69618045D01*
X87516814Y-69630000D01*
X86153627Y-69630000D01*
X86206232Y-69826322D01*
X86302366Y-70032484D01*
X86432835Y-70218813D01*
X86485171Y-70271149D01*
X86539147Y-70351931D01*
X86558101Y-70447219D01*
X86539147Y-70542507D01*
X86485171Y-70623289D01*
X86470814Y-70636560D01*
X86297273Y-70784778D01*
X86133665Y-70976338D01*
X86002031Y-71191144D01*
X85905627Y-71423886D01*
X85846816Y-71668853D01*
X85827050Y-71920000D01*
X85846816Y-72171146D01*
X85905627Y-72416113D01*
X86002031Y-72648855D01*
X86133665Y-72863661D01*
X86297275Y-73055224D01*
X86470813Y-73203439D01*
X86530962Y-73279736D01*
X86557333Y-73373244D01*
X86545914Y-73469725D01*
X86498442Y-73554492D01*
X86485172Y-73568848D01*
X86432837Y-73621182D01*
X86302366Y-73807515D01*
X86206232Y-74013677D01*
X86153627Y-74209999D01*
X86153628Y-74210000D01*
X87516814Y-74210000D01*
X87504859Y-74221955D01*
X87447335Y-74334852D01*
X87427514Y-74460000D01*
X87447335Y-74585148D01*
X87504859Y-74698045D01*
X87516814Y-74710000D01*
X86153627Y-74710000D01*
X86206232Y-74906322D01*
X86302366Y-75112484D01*
X86432835Y-75298813D01*
X86485171Y-75351149D01*
X86539147Y-75431931D01*
X86558101Y-75527219D01*
X86539147Y-75622507D01*
X86485171Y-75703289D01*
X86470814Y-75716560D01*
X86297273Y-75864778D01*
X86133665Y-76056338D01*
X86002031Y-76271144D01*
X85905627Y-76503886D01*
X85846816Y-76748853D01*
X85827050Y-76999999D01*
X85846816Y-77251146D01*
X85905627Y-77496113D01*
X86002031Y-77728855D01*
X86133665Y-77943661D01*
X86297275Y-78135224D01*
X86488840Y-78298836D01*
X86552406Y-78337789D01*
X86623749Y-78403738D01*
X86664424Y-78491968D01*
X86668238Y-78589048D01*
X86634611Y-78680198D01*
X86580269Y-78742575D01*
X86451087Y-78848592D01*
X86425951Y-78879221D01*
X86409541Y-78897327D01*
X85864827Y-79442040D01*
X85846726Y-79458446D01*
X85816093Y-79483586D01*
X85816089Y-79483590D01*
X85816090Y-79483590D01*
X85724659Y-79595000D01*
X85700384Y-79624577D01*
X85684816Y-79643548D01*
X85587266Y-79826048D01*
X85527200Y-80024063D01*
X85506916Y-80229999D01*
X85510801Y-80269433D01*
X85512000Y-80293840D01*
X85512000Y-84611158D01*
X85510801Y-84635565D01*
X85506916Y-84674999D01*
X82105742Y-84674999D01*
X82123430Y-84648526D01*
X82182123Y-84604997D01*
X82186450Y-84602685D01*
X82346410Y-84471410D01*
X82477685Y-84311450D01*
X82575232Y-84128954D01*
X82635300Y-83930934D01*
X82650500Y-83776608D01*
X82650500Y-82223392D01*
X82635300Y-82069066D01*
X82575232Y-81871046D01*
X82509367Y-81747822D01*
X82477685Y-81688549D01*
X82346410Y-81528589D01*
X82186450Y-81397314D01*
X82182118Y-81394999D01*
X82107017Y-81333363D01*
X82061220Y-81247679D01*
X82050500Y-81175403D01*
X82050500Y-74824596D01*
X82069454Y-74729308D01*
X82123430Y-74648526D01*
X82182123Y-74604997D01*
X82186450Y-74602685D01*
X82346410Y-74471410D01*
X82477685Y-74311450D01*
X82575232Y-74128954D01*
X82635300Y-73930934D01*
X82650500Y-73776608D01*
X82650500Y-72223392D01*
X82635300Y-72069066D01*
X82575232Y-71871046D01*
X82574401Y-71869492D01*
X82477685Y-71688549D01*
X82346410Y-71528589D01*
X82186450Y-71397314D01*
X82003953Y-71299767D01*
X81805935Y-71239700D01*
X81657687Y-71225098D01*
X81657672Y-71225097D01*
X81651608Y-71224500D01*
X80348392Y-71224500D01*
X80342328Y-71225097D01*
X80342312Y-71225098D01*
X80194064Y-71239700D01*
X79996046Y-71299767D01*
X79813549Y-71397314D01*
X79708544Y-71483490D01*
X79622861Y-71529288D01*
X79526174Y-71538811D01*
X79433202Y-71510608D01*
X79420492Y-71503325D01*
X79251628Y-71399846D01*
X79251625Y-71399844D01*
X79011610Y-71300427D01*
X78758990Y-71239778D01*
X78500000Y-71219395D01*
X78241009Y-71239778D01*
X77988389Y-71300427D01*
X77748374Y-71399844D01*
X77611877Y-71483490D01*
X77526860Y-71535588D01*
X77519307Y-71542039D01*
X77329309Y-71704312D01*
X77232092Y-71818138D01*
X77155794Y-71878286D01*
X77062286Y-71904657D01*
X76965805Y-71893236D01*
X76881038Y-71845764D01*
X76872560Y-71837927D01*
X76677579Y-71701400D01*
X76463486Y-71601567D01*
X76250000Y-71544363D01*
X76250000Y-72591981D01*
X76135199Y-72539554D01*
X76033975Y-72525000D01*
X75966025Y-72525000D01*
X75864801Y-72539554D01*
X75750000Y-72591981D01*
X75750000Y-71544364D01*
X75749999Y-71544363D01*
X75536508Y-71601568D01*
X75322426Y-71701397D01*
X75128923Y-71836889D01*
X74961889Y-72003923D01*
X74826397Y-72197426D01*
X74726568Y-72411508D01*
X74665430Y-72639678D01*
X74655778Y-72749999D01*
X74655778Y-72750000D01*
X75596031Y-72750000D01*
X75563481Y-72800649D01*
X75525000Y-72931705D01*
X75525000Y-73068295D01*
X75563481Y-73199351D01*
X75596031Y-73250000D01*
X74655778Y-73250000D01*
X74665430Y-73360321D01*
X74726568Y-73588491D01*
X74826397Y-73802573D01*
X74961891Y-73996079D01*
X75128919Y-74163108D01*
X75322420Y-74298599D01*
X75536508Y-74398430D01*
X75750000Y-74455634D01*
X75750000Y-73408018D01*
X75864801Y-73460446D01*
X75966025Y-73475000D01*
X76033975Y-73475000D01*
X76135199Y-73460446D01*
X76250000Y-73408018D01*
X76250000Y-74455634D01*
X76463491Y-74398430D01*
X76677578Y-74298599D01*
X76888922Y-74150615D01*
X76889890Y-74151997D01*
X76947453Y-74113532D01*
X77042741Y-74094574D01*
X77138030Y-74113524D01*
X77218814Y-74167496D01*
X77232087Y-74181855D01*
X77329311Y-74295689D01*
X77526860Y-74464412D01*
X77748372Y-74600154D01*
X77988390Y-74699573D01*
X78241006Y-74760221D01*
X78500000Y-74780604D01*
X78758994Y-74760221D01*
X79011610Y-74699573D01*
X79251628Y-74600154D01*
X79420482Y-74496680D01*
X79511628Y-74463055D01*
X79608708Y-74466869D01*
X79696939Y-74507543D01*
X79708545Y-74516510D01*
X79805462Y-74596048D01*
X79813550Y-74602685D01*
X79817875Y-74604997D01*
X79892976Y-74666628D01*
X79938776Y-74752310D01*
X79949500Y-74824596D01*
X79949500Y-81175403D01*
X79930546Y-81270691D01*
X79876570Y-81351473D01*
X79817882Y-81394999D01*
X79813550Y-81397314D01*
X79708544Y-81483490D01*
X79622861Y-81529288D01*
X79526174Y-81538811D01*
X79433202Y-81510608D01*
X79420492Y-81503325D01*
X79251628Y-81399846D01*
X79251625Y-81399844D01*
X79011610Y-81300427D01*
X78758990Y-81239778D01*
X78500000Y-81219395D01*
X78241009Y-81239778D01*
X77988389Y-81300427D01*
X77748374Y-81399844D01*
X77664166Y-81451447D01*
X77526860Y-81535588D01*
X77522358Y-81539433D01*
X77329309Y-81704312D01*
X77232092Y-81818138D01*
X77155794Y-81878286D01*
X77062286Y-81904657D01*
X76965805Y-81893236D01*
X76881038Y-81845764D01*
X76872560Y-81837927D01*
X76677579Y-81701400D01*
X76463486Y-81601567D01*
X76250000Y-81544363D01*
X76250000Y-82591981D01*
X76135199Y-82539554D01*
X76033975Y-82525000D01*
X75966025Y-82525000D01*
X75864801Y-82539554D01*
X75750000Y-82591981D01*
X75750000Y-81544364D01*
X75749999Y-81544363D01*
X75536508Y-81601568D01*
X75322426Y-81701397D01*
X75128923Y-81836889D01*
X74961889Y-82003923D01*
X74826397Y-82197426D01*
X74726568Y-82411508D01*
X74665430Y-82639678D01*
X74655778Y-82749999D01*
X74655778Y-82750000D01*
X75596031Y-82750000D01*
X75563481Y-82800649D01*
X75525000Y-82931705D01*
X75525000Y-83068295D01*
X75563481Y-83199351D01*
X75596031Y-83250000D01*
X74655778Y-83250000D01*
X74665430Y-83360321D01*
X74726568Y-83588491D01*
X74826397Y-83802573D01*
X74961891Y-83996079D01*
X75128919Y-84163108D01*
X75322420Y-84298599D01*
X75536508Y-84398430D01*
X75750000Y-84455634D01*
X75750000Y-83408018D01*
X75864801Y-83460446D01*
X75966025Y-83475000D01*
X76033975Y-83475000D01*
X76135199Y-83460446D01*
X76250000Y-83408018D01*
X76250000Y-84455634D01*
X76463491Y-84398430D01*
X76677578Y-84298599D01*
X76888922Y-84150615D01*
X76889890Y-84151997D01*
X76947453Y-84113532D01*
X77042741Y-84094574D01*
X77138030Y-84113524D01*
X77218814Y-84167496D01*
X77232087Y-84181855D01*
X77329311Y-84295689D01*
X77526860Y-84464412D01*
X77748372Y-84600154D01*
X77988390Y-84699573D01*
X78241006Y-84760221D01*
X78500000Y-84780604D01*
X78758994Y-84760221D01*
X79011610Y-84699573D01*
X79251628Y-84600154D01*
X79420482Y-84496680D01*
X79511628Y-84463055D01*
X79608708Y-84466869D01*
X79696939Y-84507543D01*
X79708545Y-84516510D01*
X79802227Y-84593393D01*
X79813550Y-84602685D01*
X79817875Y-84604997D01*
X79892976Y-84666628D01*
X79938776Y-84752310D01*
X79949500Y-84824596D01*
X79949500Y-91175403D01*
X79930546Y-91270691D01*
X79876570Y-91351473D01*
X79817882Y-91394999D01*
X79813550Y-91397314D01*
X79708544Y-91483490D01*
X79622861Y-91529288D01*
X79526174Y-91538811D01*
X79433202Y-91510608D01*
X79420492Y-91503325D01*
X79275021Y-91414181D01*
X79251625Y-91399844D01*
X79011610Y-91300427D01*
X78758990Y-91239778D01*
X78500000Y-91219395D01*
X78241009Y-91239778D01*
X77988389Y-91300427D01*
X77748374Y-91399844D01*
X77611877Y-91483490D01*
X77526860Y-91535588D01*
X77498329Y-91559956D01*
X77329309Y-91704312D01*
X77232092Y-91818138D01*
X77155794Y-91878286D01*
X77062286Y-91904657D01*
X76965805Y-91893236D01*
X76881038Y-91845764D01*
X76872560Y-91837927D01*
X76677579Y-91701400D01*
X76463486Y-91601567D01*
X76250000Y-91544363D01*
X76250000Y-92591981D01*
X76135199Y-92539554D01*
X76033975Y-92525000D01*
X75966025Y-92525000D01*
X75864801Y-92539554D01*
X75750000Y-92591981D01*
X75750000Y-91544364D01*
X75749999Y-91544363D01*
X75536508Y-91601568D01*
X75322426Y-91701397D01*
X75128923Y-91836889D01*
X74961889Y-92003923D01*
X74826397Y-92197426D01*
X74726568Y-92411508D01*
X74665430Y-92639678D01*
X74655778Y-92749999D01*
X74655778Y-92750000D01*
X75596031Y-92750000D01*
X75563481Y-92800649D01*
X75525000Y-92931705D01*
X75525000Y-93068295D01*
X75563481Y-93199351D01*
X75596031Y-93250000D01*
X74655778Y-93250000D01*
X62500500Y-93250000D01*
X62500500Y-84499999D01*
X63444416Y-84499999D01*
X63464700Y-84705936D01*
X63524766Y-84903951D01*
X63524767Y-84903954D01*
X63524768Y-84903955D01*
X63597708Y-85040414D01*
X63622315Y-85086450D01*
X63753590Y-85246410D01*
X63771916Y-85261450D01*
X63784214Y-85271542D01*
X63802322Y-85287953D01*
X63876570Y-85362201D01*
X63930546Y-85442983D01*
X63949500Y-85538271D01*
X63949500Y-87708511D01*
X63930546Y-87803799D01*
X63883696Y-87877154D01*
X63811835Y-87955215D01*
X63675826Y-88163393D01*
X63575936Y-88391119D01*
X63514892Y-88632177D01*
X63494357Y-88880000D01*
X63514892Y-89127822D01*
X63575936Y-89368880D01*
X63675826Y-89596606D01*
X63811837Y-89804788D01*
X63980254Y-89987736D01*
X63980256Y-89987738D01*
X64176491Y-90140474D01*
X64395190Y-90258828D01*
X64630386Y-90339571D01*
X64814233Y-90370249D01*
X64875664Y-90380500D01*
X64875665Y-90380500D01*
X65124336Y-90380500D01*
X65173462Y-90372302D01*
X65369614Y-90339571D01*
X65604810Y-90258828D01*
X65823509Y-90140474D01*
X66019744Y-89987738D01*
X66113571Y-89885815D01*
X66188162Y-89804788D01*
X66222534Y-89752177D01*
X66324173Y-89596607D01*
X66424063Y-89368881D01*
X66485108Y-89127821D01*
X66505643Y-88880000D01*
X66485108Y-88632179D01*
X66424063Y-88391119D01*
X66324173Y-88163393D01*
X66188164Y-87955215D01*
X66116303Y-87877153D01*
X66065712Y-87794210D01*
X66050499Y-87708510D01*
X66050499Y-86679999D01*
X66050499Y-86137266D01*
X66069453Y-86041982D01*
X66123429Y-85961200D01*
X66204211Y-85907224D01*
X66299499Y-85888270D01*
X66394787Y-85907224D01*
X66475569Y-85961200D01*
X67876570Y-87362201D01*
X67930546Y-87442983D01*
X67949500Y-87538271D01*
X67949500Y-87708511D01*
X67930546Y-87803799D01*
X67883696Y-87877154D01*
X67811835Y-87955215D01*
X67675826Y-88163393D01*
X67575936Y-88391119D01*
X67514892Y-88632177D01*
X67494357Y-88880000D01*
X67514892Y-89127822D01*
X67575936Y-89368880D01*
X67675826Y-89596606D01*
X67811837Y-89804788D01*
X67980254Y-89987736D01*
X67980256Y-89987738D01*
X68176491Y-90140474D01*
X68395190Y-90258828D01*
X68630386Y-90339571D01*
X68814233Y-90370249D01*
X68875664Y-90380500D01*
X68875665Y-90380500D01*
X69124336Y-90380500D01*
X69173462Y-90372302D01*
X69369614Y-90339571D01*
X69604810Y-90258828D01*
X69823509Y-90140474D01*
X70019744Y-89987738D01*
X70113571Y-89885815D01*
X70188162Y-89804788D01*
X70222534Y-89752177D01*
X70324173Y-89596607D01*
X70424063Y-89368881D01*
X70485108Y-89127821D01*
X70505643Y-88880000D01*
X70485108Y-88632179D01*
X70424063Y-88391119D01*
X70324173Y-88163393D01*
X70188164Y-87955215D01*
X70116303Y-87877153D01*
X70065713Y-87794211D01*
X70050500Y-87708511D01*
X70050500Y-87063840D01*
X70051699Y-87039433D01*
X70055583Y-86999999D01*
X70053366Y-86977499D01*
X70035300Y-86794066D01*
X69975232Y-86596046D01*
X69961562Y-86570472D01*
X69877687Y-86413553D01*
X69877685Y-86413550D01*
X69821674Y-86345300D01*
X69746410Y-86253590D01*
X69715783Y-86228455D01*
X69697676Y-86212045D01*
X68410700Y-84925069D01*
X68356724Y-84844287D01*
X68337770Y-84748999D01*
X68356724Y-84653711D01*
X68410700Y-84572929D01*
X68491482Y-84518953D01*
X68586770Y-84499999D01*
X68750000Y-84499999D01*
X68750000Y-83435501D01*
X68857685Y-83484680D01*
X68964237Y-83500000D01*
X69035763Y-83500000D01*
X69142315Y-83484680D01*
X69250000Y-83435501D01*
X69250000Y-84499998D01*
X69250001Y-84499999D01*
X69643632Y-84499999D01*
X69656286Y-84499354D01*
X69752698Y-84489505D01*
X69919121Y-84434358D01*
X70068341Y-84342318D01*
X70192318Y-84218341D01*
X70284358Y-84069121D01*
X70339505Y-83902698D01*
X70349355Y-83806284D01*
X70350000Y-83793634D01*
X70350000Y-83250000D01*
X69433686Y-83250000D01*
X69459493Y-83209844D01*
X69500000Y-83071889D01*
X69500000Y-82928111D01*
X69459493Y-82790156D01*
X69433686Y-82750000D01*
X70349998Y-82750000D01*
X70349999Y-82749998D01*
X70349999Y-82206367D01*
X70349354Y-82193713D01*
X70339505Y-82097301D01*
X70284358Y-81930878D01*
X70192318Y-81781658D01*
X70068341Y-81657681D01*
X69919121Y-81565641D01*
X69752698Y-81510494D01*
X69656284Y-81500644D01*
X69643635Y-81500000D01*
X69250001Y-81500000D01*
X69250000Y-81500001D01*
X69250000Y-82564498D01*
X69142315Y-82515320D01*
X69035763Y-82500000D01*
X68964237Y-82500000D01*
X68857685Y-82515320D01*
X68750000Y-82564498D01*
X68750000Y-81500001D01*
X68749999Y-81500000D01*
X68356368Y-81500000D01*
X68343712Y-81500645D01*
X68247301Y-81510494D01*
X68080878Y-81565641D01*
X67919866Y-81664955D01*
X67828814Y-81698847D01*
X67731723Y-81695315D01*
X67643375Y-81654897D01*
X67627434Y-81642368D01*
X67473140Y-81510588D01*
X67251628Y-81374846D01*
X67251625Y-81374844D01*
X67011610Y-81275427D01*
X66758990Y-81214778D01*
X66500005Y-81194395D01*
X66321404Y-81208451D01*
X66224922Y-81197031D01*
X66140155Y-81149558D01*
X66080008Y-81073260D01*
X66054068Y-80984621D01*
X66051697Y-80960553D01*
X66050500Y-80936158D01*
X66050500Y-75538271D01*
X66069454Y-75442983D01*
X66123430Y-75362202D01*
X66632245Y-74853386D01*
X66713027Y-74799409D01*
X66750187Y-74787335D01*
X66758991Y-74785221D01*
X66758994Y-74785221D01*
X67011610Y-74724573D01*
X67251628Y-74625154D01*
X67473140Y-74489412D01*
X67627438Y-74357628D01*
X67712201Y-74310159D01*
X67808682Y-74298740D01*
X67902190Y-74325111D01*
X67919866Y-74335044D01*
X68080879Y-74434358D01*
X68247301Y-74489505D01*
X68343715Y-74499355D01*
X68356365Y-74499999D01*
X68750000Y-74499999D01*
X68750000Y-73435501D01*
X68857685Y-73484680D01*
X68964237Y-73500000D01*
X69035763Y-73500000D01*
X69142315Y-73484680D01*
X69250000Y-73435501D01*
X69250000Y-74499998D01*
X69250001Y-74499999D01*
X69643632Y-74499999D01*
X69656286Y-74499354D01*
X69752698Y-74489505D01*
X69919121Y-74434358D01*
X70068341Y-74342318D01*
X70192318Y-74218341D01*
X70284358Y-74069121D01*
X70339505Y-73902698D01*
X70349355Y-73806284D01*
X70350000Y-73793634D01*
X70350000Y-73250001D01*
X70349999Y-73250000D01*
X69433686Y-73250000D01*
X69459493Y-73209844D01*
X69500000Y-73071889D01*
X69500000Y-72928111D01*
X69459493Y-72790156D01*
X69433686Y-72750000D01*
X70349998Y-72750000D01*
X70349999Y-72749999D01*
X70349999Y-72206367D01*
X70349354Y-72193713D01*
X70339505Y-72097301D01*
X70284358Y-71930878D01*
X70192318Y-71781658D01*
X70068341Y-71657681D01*
X69919121Y-71565641D01*
X69752698Y-71510494D01*
X69656284Y-71500644D01*
X69643635Y-71500000D01*
X69250001Y-71500000D01*
X69250000Y-71500001D01*
X69250000Y-72564498D01*
X69142315Y-72515320D01*
X69035763Y-72500000D01*
X68964237Y-72500000D01*
X68857685Y-72515320D01*
X68750000Y-72564498D01*
X68750000Y-71500001D01*
X68749999Y-71500000D01*
X68356368Y-71500000D01*
X68343712Y-71500645D01*
X68247301Y-71510494D01*
X68080878Y-71565641D01*
X67919866Y-71664955D01*
X67828814Y-71698847D01*
X67731723Y-71695315D01*
X67643375Y-71654897D01*
X67627434Y-71642368D01*
X67473140Y-71510588D01*
X67251628Y-71374846D01*
X67251625Y-71374844D01*
X67011610Y-71275427D01*
X66758990Y-71214778D01*
X66500000Y-71194395D01*
X66241009Y-71214778D01*
X65988389Y-71275427D01*
X65748374Y-71374844D01*
X65655586Y-71431705D01*
X65526860Y-71510588D01*
X65329311Y-71679311D01*
X65160588Y-71876860D01*
X65143554Y-71904657D01*
X65024844Y-72098374D01*
X64925427Y-72338389D01*
X64864778Y-72591009D01*
X64849884Y-72780257D01*
X64849883Y-72780278D01*
X64849500Y-72785147D01*
X64849500Y-73214853D01*
X64849883Y-73219722D01*
X64849884Y-73219742D01*
X64864778Y-73408988D01*
X64864778Y-73408991D01*
X64864779Y-73408994D01*
X64873613Y-73445789D01*
X64878805Y-73467417D01*
X64882618Y-73564497D01*
X64848990Y-73655647D01*
X64812754Y-73701613D01*
X64302323Y-74212044D01*
X64284221Y-74228450D01*
X64253590Y-74253589D01*
X64150373Y-74379361D01*
X64122315Y-74413549D01*
X64024766Y-74596048D01*
X63964700Y-74794063D01*
X63944416Y-74999999D01*
X63948301Y-75039433D01*
X63949500Y-75063840D01*
X63949500Y-80461729D01*
X63930546Y-80557017D01*
X63876570Y-80637799D01*
X63876568Y-80637800D01*
X63802327Y-80712040D01*
X63784227Y-80728445D01*
X63753590Y-80753588D01*
X63636983Y-80895677D01*
X63622315Y-80913549D01*
X63524766Y-81096048D01*
X63464700Y-81294063D01*
X63444416Y-81499999D01*
X63448301Y-81539433D01*
X63449500Y-81563840D01*
X63449500Y-84436158D01*
X63448301Y-84460565D01*
X63444416Y-84499999D01*
X62500500Y-84499999D01*
X62500500Y-66419999D01*
X121994891Y-66419999D01*
X122015300Y-66705356D01*
X122076113Y-66984909D01*
X122176088Y-67252949D01*
X122313194Y-67504042D01*
X122419882Y-67646560D01*
X123315194Y-66751248D01*
X123337340Y-66802587D01*
X123443433Y-66945094D01*
X123579530Y-67059294D01*
X123669217Y-67104336D01*
X122773437Y-68000116D01*
X122915957Y-68106806D01*
X123167046Y-68243910D01*
X123435090Y-68343886D01*
X123714643Y-68404699D01*
X124000000Y-68425108D01*
X124285356Y-68404699D01*
X124564909Y-68343886D01*
X124832953Y-68243910D01*
X125084041Y-68106806D01*
X125226561Y-68000116D01*
X125226561Y-68000115D01*
X124333746Y-67107300D01*
X124343409Y-67103784D01*
X124491844Y-67006157D01*
X124613764Y-66876930D01*
X124685768Y-66752214D01*
X125580115Y-67646561D01*
X125580116Y-67646561D01*
X125686806Y-67504041D01*
X125823910Y-67252953D01*
X125923886Y-66984909D01*
X125984699Y-66705356D01*
X126005108Y-66419999D01*
X125984699Y-66134643D01*
X125923886Y-65855090D01*
X125823910Y-65587046D01*
X125686806Y-65335957D01*
X125580116Y-65193437D01*
X124684804Y-66088749D01*
X124662660Y-66037413D01*
X124556567Y-65894906D01*
X124420470Y-65780706D01*
X124330780Y-65735662D01*
X125226561Y-64839882D01*
X125084042Y-64733194D01*
X124832949Y-64596088D01*
X124564909Y-64496113D01*
X124285356Y-64435300D01*
X124000000Y-64414891D01*
X123714643Y-64435300D01*
X123435090Y-64496113D01*
X123167050Y-64596088D01*
X122915953Y-64733196D01*
X122773437Y-64839881D01*
X122773437Y-64839882D01*
X123666253Y-65732698D01*
X123656591Y-65736216D01*
X123508156Y-65833843D01*
X123386236Y-65963070D01*
X123314231Y-66087786D01*
X122419882Y-65193437D01*
X122419881Y-65193437D01*
X122313196Y-65335953D01*
X122176088Y-65587050D01*
X122076113Y-65855090D01*
X122015300Y-66134643D01*
X121994891Y-66419999D01*
X62500500Y-66419999D01*
X62500500Y-63887767D01*
X64845788Y-63887767D01*
X64875413Y-64157019D01*
X64943926Y-64419083D01*
X64943927Y-64419087D01*
X64943928Y-64419088D01*
X65049870Y-64668390D01*
X65122000Y-64786579D01*
X65190981Y-64899609D01*
X65364254Y-65107820D01*
X65469241Y-65201888D01*
X65565998Y-65288582D01*
X65566000Y-65288583D01*
X65566002Y-65288585D01*
X65774001Y-65426195D01*
X65791910Y-65438044D01*
X66037176Y-65553020D01*
X66037178Y-65553020D01*
X66037181Y-65553022D01*
X66223372Y-65609038D01*
X66296569Y-65631060D01*
X66564561Y-65670500D01*
X66564564Y-65670500D01*
X66763085Y-65670500D01*
X66767631Y-65670500D01*
X66970156Y-65655677D01*
X67234553Y-65596780D01*
X67417801Y-65526693D01*
X67487556Y-65500015D01*
X67487558Y-65500014D01*
X67723777Y-65367441D01*
X67938177Y-65201888D01*
X68126186Y-65006881D01*
X68283799Y-64786579D01*
X68361752Y-64634958D01*
X68422174Y-64558886D01*
X68507114Y-64511724D01*
X68603636Y-64500656D01*
X68697047Y-64527369D01*
X68773125Y-64587795D01*
X68798834Y-64624314D01*
X68877201Y-64760049D01*
X68877203Y-64760051D01*
X68877204Y-64760053D01*
X69032704Y-64955046D01*
X69146103Y-65060265D01*
X69215541Y-65124694D01*
X69421617Y-65265194D01*
X69646331Y-65373410D01*
X69884665Y-65446927D01*
X70131293Y-65484100D01*
X70380707Y-65484100D01*
X70627335Y-65446927D01*
X70865669Y-65373410D01*
X71090383Y-65265194D01*
X71296459Y-65124694D01*
X71356638Y-65068855D01*
X71439379Y-65017938D01*
X71535309Y-65002560D01*
X71629822Y-65025063D01*
X71695361Y-65068855D01*
X71755541Y-65124694D01*
X71961617Y-65265194D01*
X72186331Y-65373410D01*
X72424665Y-65446927D01*
X72671293Y-65484100D01*
X72920707Y-65484100D01*
X73167335Y-65446927D01*
X73405669Y-65373410D01*
X73630383Y-65265194D01*
X73836459Y-65124694D01*
X73896638Y-65068855D01*
X73979379Y-65017938D01*
X74075309Y-65002560D01*
X74169822Y-65025063D01*
X74235361Y-65068855D01*
X74295541Y-65124694D01*
X74501617Y-65265194D01*
X74726331Y-65373410D01*
X74964665Y-65446927D01*
X75211293Y-65484100D01*
X75460707Y-65484100D01*
X75707335Y-65446927D01*
X75945669Y-65373410D01*
X76170383Y-65265194D01*
X76376459Y-65124694D01*
X76398697Y-65104059D01*
X76481437Y-65053142D01*
X76577367Y-65037763D01*
X76671880Y-65060265D01*
X76717281Y-65087255D01*
X76770309Y-65126951D01*
X76905026Y-65177198D01*
X76957934Y-65182886D01*
X76971243Y-65183600D01*
X77625999Y-65183600D01*
X77626000Y-65183599D01*
X77626000Y-64264297D01*
X77731408Y-64312435D01*
X77839666Y-64328000D01*
X77912334Y-64328000D01*
X78020592Y-64312435D01*
X78126000Y-64264297D01*
X78126000Y-65183599D01*
X78126001Y-65183600D01*
X78780757Y-65183600D01*
X78794065Y-65182886D01*
X78846973Y-65177198D01*
X78981690Y-65126951D01*
X79034717Y-65087256D01*
X79122357Y-65045324D01*
X79219373Y-65040123D01*
X79310994Y-65072444D01*
X79353301Y-65104058D01*
X79375541Y-65124694D01*
X79581617Y-65265194D01*
X79806331Y-65373410D01*
X80044665Y-65446927D01*
X80291293Y-65484100D01*
X80540707Y-65484100D01*
X80787335Y-65446927D01*
X81025669Y-65373410D01*
X81250383Y-65265194D01*
X81456459Y-65124694D01*
X81516638Y-65068855D01*
X81599379Y-65017938D01*
X81695309Y-65002560D01*
X81789822Y-65025063D01*
X81855361Y-65068855D01*
X81915541Y-65124694D01*
X82121617Y-65265194D01*
X82346331Y-65373410D01*
X82584665Y-65446927D01*
X82831293Y-65484100D01*
X83080707Y-65484100D01*
X83327335Y-65446927D01*
X83565669Y-65373410D01*
X83790383Y-65265194D01*
X83996459Y-65124694D01*
X84056638Y-65068855D01*
X84139379Y-65017938D01*
X84235309Y-65002560D01*
X84329822Y-65025063D01*
X84395361Y-65068855D01*
X84455541Y-65124694D01*
X84661617Y-65265194D01*
X84886331Y-65373410D01*
X85124665Y-65446927D01*
X85371293Y-65484100D01*
X85620707Y-65484100D01*
X85867335Y-65446927D01*
X86105669Y-65373410D01*
X86330383Y-65265194D01*
X86536459Y-65124694D01*
X86596638Y-65068855D01*
X86679379Y-65017938D01*
X86775309Y-65002560D01*
X86869822Y-65025063D01*
X86935361Y-65068855D01*
X86995541Y-65124694D01*
X87201617Y-65265194D01*
X87426331Y-65373410D01*
X87664665Y-65446927D01*
X87911293Y-65484100D01*
X88160707Y-65484100D01*
X88407335Y-65446927D01*
X88645669Y-65373410D01*
X88870383Y-65265194D01*
X89076459Y-65124694D01*
X89136638Y-65068855D01*
X89219379Y-65017938D01*
X89315309Y-65002560D01*
X89409822Y-65025063D01*
X89475361Y-65068855D01*
X89535541Y-65124694D01*
X89741617Y-65265194D01*
X89966331Y-65373410D01*
X90204665Y-65446927D01*
X90451293Y-65484100D01*
X90700707Y-65484100D01*
X90947335Y-65446927D01*
X91185669Y-65373410D01*
X91410383Y-65265194D01*
X91616459Y-65124694D01*
X91676638Y-65068855D01*
X91759379Y-65017938D01*
X91855309Y-65002560D01*
X91949822Y-65025063D01*
X92015361Y-65068855D01*
X92075541Y-65124694D01*
X92281617Y-65265194D01*
X92506331Y-65373410D01*
X92744665Y-65446927D01*
X92991293Y-65484100D01*
X93240707Y-65484100D01*
X93487335Y-65446927D01*
X93725669Y-65373410D01*
X93950383Y-65265194D01*
X94156459Y-65124694D01*
X94339292Y-64955049D01*
X94339292Y-64955048D01*
X94339295Y-64955046D01*
X94473642Y-64786579D01*
X94494799Y-64760049D01*
X94619506Y-64544050D01*
X94710627Y-64311877D01*
X94766127Y-64068717D01*
X94784766Y-63820000D01*
X95511234Y-63820000D01*
X95529873Y-64068718D01*
X95585373Y-64311880D01*
X95676493Y-64544048D01*
X95801202Y-64760051D01*
X95956704Y-64955046D01*
X96070103Y-65060265D01*
X96139541Y-65124694D01*
X96345617Y-65265194D01*
X96570331Y-65373410D01*
X96808665Y-65446927D01*
X97055293Y-65484100D01*
X97304707Y-65484100D01*
X97551335Y-65446927D01*
X97789669Y-65373410D01*
X98014383Y-65265194D01*
X98220459Y-65124694D01*
X98280638Y-65068855D01*
X98363379Y-65017938D01*
X98459309Y-65002560D01*
X98553822Y-65025063D01*
X98619361Y-65068855D01*
X98679541Y-65124694D01*
X98885617Y-65265194D01*
X99110331Y-65373410D01*
X99348665Y-65446927D01*
X99595293Y-65484100D01*
X99844707Y-65484100D01*
X100091335Y-65446927D01*
X100329669Y-65373410D01*
X100554383Y-65265194D01*
X100760459Y-65124694D01*
X100820638Y-65068855D01*
X100903376Y-65017939D01*
X100999306Y-65002560D01*
X101093820Y-65025063D01*
X101159362Y-65068856D01*
X101179193Y-65087256D01*
X101219541Y-65124694D01*
X101425617Y-65265194D01*
X101650331Y-65373410D01*
X101888665Y-65446927D01*
X102135293Y-65484100D01*
X102384707Y-65484100D01*
X102631335Y-65446927D01*
X102869669Y-65373410D01*
X103094383Y-65265194D01*
X103300459Y-65124694D01*
X103360638Y-65068855D01*
X103443379Y-65017938D01*
X103539309Y-65002560D01*
X103633822Y-65025063D01*
X103699361Y-65068855D01*
X103759541Y-65124694D01*
X103965617Y-65265194D01*
X104190331Y-65373410D01*
X104428665Y-65446927D01*
X104675293Y-65484100D01*
X104924707Y-65484100D01*
X105171335Y-65446927D01*
X105409669Y-65373410D01*
X105634383Y-65265194D01*
X105840459Y-65124694D01*
X105900638Y-65068855D01*
X105983379Y-65017938D01*
X106079309Y-65002560D01*
X106173822Y-65025063D01*
X106239361Y-65068855D01*
X106299541Y-65124694D01*
X106505617Y-65265194D01*
X106730331Y-65373410D01*
X106968665Y-65446927D01*
X107215293Y-65484100D01*
X107464707Y-65484100D01*
X107711335Y-65446927D01*
X107949669Y-65373410D01*
X108174383Y-65265194D01*
X108380459Y-65124694D01*
X108440638Y-65068855D01*
X108523379Y-65017938D01*
X108619309Y-65002560D01*
X108713822Y-65025063D01*
X108779361Y-65068855D01*
X108839541Y-65124694D01*
X109045617Y-65265194D01*
X109270331Y-65373410D01*
X109508665Y-65446927D01*
X109755293Y-65484100D01*
X110004707Y-65484100D01*
X110251335Y-65446927D01*
X110489669Y-65373410D01*
X110714383Y-65265194D01*
X110920459Y-65124694D01*
X110980638Y-65068855D01*
X111063376Y-65017939D01*
X111159306Y-65002560D01*
X111253820Y-65025063D01*
X111319362Y-65068856D01*
X111339193Y-65087256D01*
X111379541Y-65124694D01*
X111585617Y-65265194D01*
X111810331Y-65373410D01*
X112048665Y-65446927D01*
X112295293Y-65484100D01*
X112544707Y-65484100D01*
X112791335Y-65446927D01*
X113029669Y-65373410D01*
X113254383Y-65265194D01*
X113460459Y-65124694D01*
X113520638Y-65068855D01*
X113603379Y-65017938D01*
X113699309Y-65002560D01*
X113793822Y-65025063D01*
X113859361Y-65068855D01*
X113919541Y-65124694D01*
X114125617Y-65265194D01*
X114350331Y-65373410D01*
X114588665Y-65446927D01*
X114835293Y-65484100D01*
X115084707Y-65484100D01*
X115331335Y-65446927D01*
X115569669Y-65373410D01*
X115794383Y-65265194D01*
X116000459Y-65124694D01*
X116183292Y-64955049D01*
X116183292Y-64955048D01*
X116183295Y-64955046D01*
X116317642Y-64786579D01*
X116338799Y-64760049D01*
X116463506Y-64544050D01*
X116554627Y-64311877D01*
X116610127Y-64068717D01*
X116628766Y-63820000D01*
X116610127Y-63571283D01*
X116554627Y-63328123D01*
X116554626Y-63328122D01*
X116554626Y-63328119D01*
X116478735Y-63134754D01*
X116463506Y-63095950D01*
X116338799Y-62879951D01*
X116338795Y-62879946D01*
X116183295Y-62684953D01*
X116000461Y-62515308D01*
X116000459Y-62515306D01*
X115794383Y-62374806D01*
X115569669Y-62266590D01*
X115409228Y-62217100D01*
X115331336Y-62193073D01*
X115084707Y-62155900D01*
X114835293Y-62155900D01*
X114588663Y-62193073D01*
X114350334Y-62266589D01*
X114350331Y-62266590D01*
X114125617Y-62374806D01*
X114005939Y-62456401D01*
X113919538Y-62515308D01*
X113859363Y-62571143D01*
X113776619Y-62622061D01*
X113680689Y-62637439D01*
X113586176Y-62614935D01*
X113520637Y-62571143D01*
X113460461Y-62515308D01*
X113460459Y-62515306D01*
X113254383Y-62374806D01*
X113029669Y-62266590D01*
X112869228Y-62217100D01*
X112791336Y-62193073D01*
X112544707Y-62155900D01*
X112295293Y-62155900D01*
X112048663Y-62193073D01*
X111810334Y-62266589D01*
X111810331Y-62266590D01*
X111585617Y-62374806D01*
X111465939Y-62456401D01*
X111379538Y-62515308D01*
X111319363Y-62571143D01*
X111236619Y-62622061D01*
X111140689Y-62637439D01*
X111046176Y-62614935D01*
X110980637Y-62571143D01*
X110920461Y-62515308D01*
X110920459Y-62515306D01*
X110714383Y-62374806D01*
X110489669Y-62266590D01*
X110329228Y-62217100D01*
X110251336Y-62193073D01*
X110004707Y-62155900D01*
X109755293Y-62155900D01*
X109508663Y-62193073D01*
X109270334Y-62266589D01*
X109270331Y-62266590D01*
X109045617Y-62374806D01*
X108925939Y-62456401D01*
X108839538Y-62515308D01*
X108779363Y-62571143D01*
X108696619Y-62622061D01*
X108600689Y-62637439D01*
X108506176Y-62614935D01*
X108440637Y-62571143D01*
X108380461Y-62515308D01*
X108380459Y-62515306D01*
X108174383Y-62374806D01*
X107949669Y-62266590D01*
X107789228Y-62217100D01*
X107711336Y-62193073D01*
X107464707Y-62155900D01*
X107215293Y-62155900D01*
X106968663Y-62193073D01*
X106730334Y-62266589D01*
X106730331Y-62266590D01*
X106505617Y-62374806D01*
X106385939Y-62456401D01*
X106299538Y-62515308D01*
X106239363Y-62571143D01*
X106156619Y-62622061D01*
X106060689Y-62637439D01*
X105966176Y-62614935D01*
X105900637Y-62571143D01*
X105840461Y-62515308D01*
X105840459Y-62515306D01*
X105634383Y-62374806D01*
X105409669Y-62266590D01*
X105249228Y-62217100D01*
X105171336Y-62193073D01*
X104924707Y-62155900D01*
X104675293Y-62155900D01*
X104428663Y-62193073D01*
X104190334Y-62266589D01*
X104190331Y-62266590D01*
X103965617Y-62374806D01*
X103845939Y-62456401D01*
X103759538Y-62515308D01*
X103699363Y-62571143D01*
X103616619Y-62622061D01*
X103520689Y-62637439D01*
X103426176Y-62614935D01*
X103360637Y-62571143D01*
X103300461Y-62515308D01*
X103300459Y-62515306D01*
X103094383Y-62374806D01*
X102869669Y-62266590D01*
X102709228Y-62217100D01*
X102631336Y-62193073D01*
X102384707Y-62155900D01*
X102135293Y-62155900D01*
X101888663Y-62193073D01*
X101650334Y-62266589D01*
X101650331Y-62266590D01*
X101425617Y-62374806D01*
X101305939Y-62456401D01*
X101219538Y-62515308D01*
X101159363Y-62571143D01*
X101076619Y-62622061D01*
X100980689Y-62637439D01*
X100886176Y-62614935D01*
X100820637Y-62571143D01*
X100760461Y-62515308D01*
X100760459Y-62515306D01*
X100554383Y-62374806D01*
X100329669Y-62266590D01*
X100169228Y-62217100D01*
X100091336Y-62193073D01*
X99844707Y-62155900D01*
X99595293Y-62155900D01*
X99348663Y-62193073D01*
X99110334Y-62266589D01*
X99110331Y-62266590D01*
X98885617Y-62374806D01*
X98765939Y-62456401D01*
X98679538Y-62515308D01*
X98619363Y-62571143D01*
X98536619Y-62622061D01*
X98440689Y-62637439D01*
X98346176Y-62614935D01*
X98280637Y-62571143D01*
X98220461Y-62515308D01*
X98220459Y-62515306D01*
X98014383Y-62374806D01*
X97789669Y-62266590D01*
X97629228Y-62217100D01*
X97551336Y-62193073D01*
X97304707Y-62155900D01*
X97055293Y-62155900D01*
X96808663Y-62193073D01*
X96570334Y-62266589D01*
X96570331Y-62266590D01*
X96345617Y-62374806D01*
X96225939Y-62456401D01*
X96139538Y-62515308D01*
X95956704Y-62684953D01*
X95801202Y-62879948D01*
X95676493Y-63095951D01*
X95585373Y-63328119D01*
X95529873Y-63571281D01*
X95511234Y-63820000D01*
X94784766Y-63820000D01*
X94766127Y-63571283D01*
X94710627Y-63328123D01*
X94710626Y-63328122D01*
X94710626Y-63328119D01*
X94634735Y-63134754D01*
X94619506Y-63095950D01*
X94494799Y-62879951D01*
X94494795Y-62879946D01*
X94339295Y-62684953D01*
X94156461Y-62515308D01*
X94156459Y-62515306D01*
X93950383Y-62374806D01*
X93725669Y-62266590D01*
X93565228Y-62217100D01*
X93487336Y-62193073D01*
X93240707Y-62155900D01*
X92991293Y-62155900D01*
X92744663Y-62193073D01*
X92506334Y-62266589D01*
X92506331Y-62266590D01*
X92281617Y-62374806D01*
X92123672Y-62482491D01*
X92075534Y-62515311D01*
X92015360Y-62571144D01*
X91932617Y-62622062D01*
X91836686Y-62637439D01*
X91742174Y-62614934D01*
X91676637Y-62571143D01*
X91616459Y-62515306D01*
X91410383Y-62374806D01*
X91185669Y-62266590D01*
X91025228Y-62217100D01*
X90947336Y-62193073D01*
X90700707Y-62155900D01*
X90451293Y-62155900D01*
X90204663Y-62193073D01*
X89966334Y-62266589D01*
X89966331Y-62266590D01*
X89741617Y-62374806D01*
X89621939Y-62456401D01*
X89535538Y-62515308D01*
X89475363Y-62571143D01*
X89392619Y-62622061D01*
X89296689Y-62637439D01*
X89202176Y-62614935D01*
X89136637Y-62571143D01*
X89076461Y-62515308D01*
X89076459Y-62515306D01*
X88870383Y-62374806D01*
X88645669Y-62266590D01*
X88485228Y-62217100D01*
X88407336Y-62193073D01*
X88160707Y-62155900D01*
X87911293Y-62155900D01*
X87664663Y-62193073D01*
X87426334Y-62266589D01*
X87426331Y-62266590D01*
X87201617Y-62374806D01*
X87081939Y-62456401D01*
X86995538Y-62515308D01*
X86935363Y-62571143D01*
X86852619Y-62622061D01*
X86756689Y-62637439D01*
X86662176Y-62614935D01*
X86596637Y-62571143D01*
X86536461Y-62515308D01*
X86536459Y-62515306D01*
X86330383Y-62374806D01*
X86105669Y-62266590D01*
X85945228Y-62217100D01*
X85867336Y-62193073D01*
X85620707Y-62155900D01*
X85371293Y-62155900D01*
X85124663Y-62193073D01*
X84886334Y-62266589D01*
X84886331Y-62266590D01*
X84661617Y-62374806D01*
X84541939Y-62456401D01*
X84455538Y-62515308D01*
X84395363Y-62571143D01*
X84312619Y-62622061D01*
X84216689Y-62637439D01*
X84122176Y-62614935D01*
X84056637Y-62571143D01*
X83996461Y-62515308D01*
X83996459Y-62515306D01*
X83790383Y-62374806D01*
X83565669Y-62266590D01*
X83405228Y-62217100D01*
X83327336Y-62193073D01*
X83080707Y-62155900D01*
X82831293Y-62155900D01*
X82584663Y-62193073D01*
X82346334Y-62266589D01*
X82346331Y-62266590D01*
X82121617Y-62374806D01*
X81963672Y-62482491D01*
X81915534Y-62515311D01*
X81855360Y-62571144D01*
X81772617Y-62622062D01*
X81676686Y-62637439D01*
X81582174Y-62614934D01*
X81516637Y-62571143D01*
X81456459Y-62515306D01*
X81250383Y-62374806D01*
X81025669Y-62266590D01*
X80865228Y-62217100D01*
X80787336Y-62193073D01*
X80540707Y-62155900D01*
X80291293Y-62155900D01*
X80044663Y-62193073D01*
X79806334Y-62266589D01*
X79806331Y-62266590D01*
X79581617Y-62374806D01*
X79423672Y-62482491D01*
X79375537Y-62515309D01*
X79353299Y-62535943D01*
X79270555Y-62586859D01*
X79174625Y-62602236D01*
X79080112Y-62579731D01*
X79034718Y-62552744D01*
X78981690Y-62513048D01*
X78846973Y-62462801D01*
X78794065Y-62457113D01*
X78780757Y-62456400D01*
X78126001Y-62456400D01*
X78126000Y-62456401D01*
X78126000Y-63375702D01*
X78020592Y-63327565D01*
X77912334Y-63312000D01*
X77839666Y-63312000D01*
X77731408Y-63327565D01*
X77626000Y-63375702D01*
X77626000Y-62456401D01*
X77625999Y-62456400D01*
X76971243Y-62456400D01*
X76957934Y-62457113D01*
X76905026Y-62462801D01*
X76770309Y-62513048D01*
X76717281Y-62552745D01*
X76629641Y-62594676D01*
X76532625Y-62599877D01*
X76441004Y-62567555D01*
X76398700Y-62535942D01*
X76376459Y-62515306D01*
X76170383Y-62374806D01*
X75945669Y-62266590D01*
X75785228Y-62217100D01*
X75707336Y-62193073D01*
X75460707Y-62155900D01*
X75211293Y-62155900D01*
X74964663Y-62193073D01*
X74726334Y-62266589D01*
X74726331Y-62266590D01*
X74501617Y-62374806D01*
X74381939Y-62456401D01*
X74295538Y-62515308D01*
X74235363Y-62571143D01*
X74152619Y-62622061D01*
X74056689Y-62637439D01*
X73962176Y-62614935D01*
X73896637Y-62571143D01*
X73836461Y-62515308D01*
X73836459Y-62515306D01*
X73630383Y-62374806D01*
X73405669Y-62266590D01*
X73245228Y-62217100D01*
X73167336Y-62193073D01*
X72920707Y-62155900D01*
X72671293Y-62155900D01*
X72424663Y-62193073D01*
X72186334Y-62266589D01*
X72186331Y-62266590D01*
X71961617Y-62374806D01*
X71841939Y-62456401D01*
X71755538Y-62515308D01*
X71695363Y-62571143D01*
X71612619Y-62622061D01*
X71516689Y-62637439D01*
X71422176Y-62614935D01*
X71356637Y-62571143D01*
X71296461Y-62515308D01*
X71296459Y-62515306D01*
X71090383Y-62374806D01*
X70865669Y-62266590D01*
X70705228Y-62217100D01*
X70627336Y-62193073D01*
X70380707Y-62155900D01*
X70131293Y-62155900D01*
X69884663Y-62193073D01*
X69646334Y-62266589D01*
X69646331Y-62266590D01*
X69421617Y-62374806D01*
X69301939Y-62456401D01*
X69215538Y-62515308D01*
X69032704Y-62684953D01*
X68877204Y-62879946D01*
X68800740Y-63012385D01*
X68736681Y-63085430D01*
X68649545Y-63128400D01*
X68552598Y-63134754D01*
X68460599Y-63103524D01*
X68387554Y-63039465D01*
X68355936Y-62985274D01*
X68350130Y-62971610D01*
X68209018Y-62740390D01*
X68162883Y-62684953D01*
X68035745Y-62532179D01*
X67899429Y-62410041D01*
X67834002Y-62351418D01*
X67833999Y-62351416D01*
X67833997Y-62351414D01*
X67608095Y-62201959D01*
X67608093Y-62201958D01*
X67608090Y-62201956D01*
X67417292Y-62112513D01*
X67362818Y-62086977D01*
X67103436Y-62008941D01*
X67103432Y-62008940D01*
X67103431Y-62008940D01*
X66835439Y-61969500D01*
X66632369Y-61969500D01*
X66627852Y-61969830D01*
X66627841Y-61969831D01*
X66429842Y-61984323D01*
X66165445Y-62043220D01*
X65912443Y-62139984D01*
X65676219Y-62272561D01*
X65461827Y-62438108D01*
X65461823Y-62438111D01*
X65461823Y-62438112D01*
X65419037Y-62482491D01*
X65273812Y-62633121D01*
X65116199Y-62853422D01*
X64992344Y-63094324D01*
X64904881Y-63350694D01*
X64855681Y-63617064D01*
X64845788Y-63887767D01*
X62500500Y-63887767D01*
X62500500Y-63008150D01*
X62501033Y-62991867D01*
X62505991Y-62916208D01*
X62518151Y-62746212D01*
X62522296Y-62715433D01*
X62543159Y-62610544D01*
X62572302Y-62476578D01*
X62579784Y-62449634D01*
X62615655Y-62343961D01*
X62618059Y-62337212D01*
X62662858Y-62217100D01*
X62672817Y-62194036D01*
X62723313Y-62091640D01*
X62728039Y-62082539D01*
X62788183Y-61972394D01*
X62799652Y-61953450D01*
X62863785Y-61857468D01*
X62871421Y-61846678D01*
X62945947Y-61747123D01*
X62958018Y-61732234D01*
X63034458Y-61645071D01*
X63045538Y-61633240D01*
X63133240Y-61545538D01*
X63145071Y-61534458D01*
X63232234Y-61458018D01*
X63247123Y-61445947D01*
X63346678Y-61371421D01*
X63357468Y-61363785D01*
X63453450Y-61299652D01*
X63472394Y-61288183D01*
X63582539Y-61228039D01*
X63591640Y-61223313D01*
X63694036Y-61172817D01*
X63717100Y-61162858D01*
X63837212Y-61118059D01*
X63843961Y-61115655D01*
X63949600Y-61079795D01*
X63976669Y-61072283D01*
X64110567Y-61043155D01*
X64215559Y-61022271D01*
X64246165Y-61018154D01*
X64416279Y-61005987D01*
X64491894Y-61001031D01*
X64508144Y-61000500D01*
X128991849Y-61000500D01*
X129008131Y-61001032D01*
G37*
%TD.AperFunction*%
%TD*%
M02*
