%TF.GenerationSoftware,KiCad,Pcbnew,7.0.2*%
%TF.CreationDate,2024-02-07T12:24:33+01:00*%
%TF.ProjectId,SyringePumpShield,53797269-6e67-4655-9075-6d7053686965,rev?*%
%TF.SameCoordinates,Original*%
%TF.FileFunction,Legend,Top*%
%TF.FilePolarity,Positive*%
%FSLAX46Y46*%
G04 Gerber Fmt 4.6, Leading zero omitted, Abs format (unit mm)*
G04 Created by KiCad (PCBNEW 7.0.2) date 2024-02-07 12:24:33*
%MOMM*%
%LPD*%
G01*
G04 APERTURE LIST*
G04 Aperture macros list*
%AMRoundRect*
0 Rectangle with rounded corners*
0 $1 Rounding radius*
0 $2 $3 $4 $5 $6 $7 $8 $9 X,Y pos of 4 corners*
0 Add a 4 corners polygon primitive as box body*
4,1,4,$2,$3,$4,$5,$6,$7,$8,$9,$2,$3,0*
0 Add four circle primitives for the rounded corners*
1,1,$1+$1,$2,$3*
1,1,$1+$1,$4,$5*
1,1,$1+$1,$6,$7*
1,1,$1+$1,$8,$9*
0 Add four rect primitives between the rounded corners*
20,1,$1+$1,$2,$3,$4,$5,0*
20,1,$1+$1,$4,$5,$6,$7,0*
20,1,$1+$1,$6,$7,$8,$9,0*
20,1,$1+$1,$8,$9,$2,$3,0*%
G04 Aperture macros list end*
%ADD10C,0.150000*%
%ADD11C,0.120000*%
%ADD12RoundRect,0.250000X0.600000X0.725000X-0.600000X0.725000X-0.600000X-0.725000X0.600000X-0.725000X0*%
%ADD13O,1.700000X1.950000*%
%ADD14C,1.400000*%
%ADD15O,1.400000X1.400000*%
%ADD16RoundRect,0.250000X0.600000X0.750000X-0.600000X0.750000X-0.600000X-0.750000X0.600000X-0.750000X0*%
%ADD17O,1.700000X2.000000*%
%ADD18R,1.500000X1.500000*%
%ADD19C,1.500000*%
%ADD20C,3.000000*%
%ADD21R,3.000000X3.000000*%
%ADD22O,1.727200X1.727200*%
%ADD23R,1.727200X1.727200*%
%ADD24C,3.200000*%
%ADD25R,2.400000X1.600000*%
%ADD26O,2.400000X1.600000*%
G04 APERTURE END LIST*
D10*
X114612285Y-76607142D02*
X114612285Y-76407142D01*
X114926571Y-76321428D02*
X114926571Y-76607142D01*
X114926571Y-76607142D02*
X114326571Y-76607142D01*
X114326571Y-76607142D02*
X114326571Y-76321428D01*
X114926571Y-76064285D02*
X114326571Y-76064285D01*
X114326571Y-76064285D02*
X114926571Y-75721428D01*
X114926571Y-75721428D02*
X114326571Y-75721428D01*
X114755142Y-75464286D02*
X114755142Y-75178572D01*
X114926571Y-75521429D02*
X114326571Y-75321429D01*
X114326571Y-75321429D02*
X114926571Y-75121429D01*
X114698000Y-74921428D02*
X114698000Y-74464286D01*
X112112285Y-76607142D02*
X112112285Y-76407142D01*
X112426571Y-76321428D02*
X112426571Y-76607142D01*
X112426571Y-76607142D02*
X111826571Y-76607142D01*
X111826571Y-76607142D02*
X111826571Y-76321428D01*
X112426571Y-76064285D02*
X111826571Y-76064285D01*
X111826571Y-76064285D02*
X112426571Y-75721428D01*
X112426571Y-75721428D02*
X111826571Y-75721428D01*
X112255142Y-75464286D02*
X112255142Y-75178572D01*
X112426571Y-75521429D02*
X111826571Y-75321429D01*
X111826571Y-75321429D02*
X112426571Y-75121429D01*
X112198000Y-74921428D02*
X112198000Y-74464286D01*
X112426571Y-74692857D02*
X111969428Y-74692857D01*
X107176571Y-76357142D02*
X106576571Y-76357142D01*
X106576571Y-76357142D02*
X106576571Y-76214285D01*
X106576571Y-76214285D02*
X106605142Y-76128571D01*
X106605142Y-76128571D02*
X106662285Y-76071428D01*
X106662285Y-76071428D02*
X106719428Y-76042857D01*
X106719428Y-76042857D02*
X106833714Y-76014285D01*
X106833714Y-76014285D02*
X106919428Y-76014285D01*
X106919428Y-76014285D02*
X107033714Y-76042857D01*
X107033714Y-76042857D02*
X107090857Y-76071428D01*
X107090857Y-76071428D02*
X107148000Y-76128571D01*
X107148000Y-76128571D02*
X107176571Y-76214285D01*
X107176571Y-76214285D02*
X107176571Y-76357142D01*
X107176571Y-75757142D02*
X106576571Y-75757142D01*
X107176571Y-75128571D02*
X106890857Y-75328571D01*
X107176571Y-75471428D02*
X106576571Y-75471428D01*
X106576571Y-75471428D02*
X106576571Y-75242857D01*
X106576571Y-75242857D02*
X106605142Y-75185714D01*
X106605142Y-75185714D02*
X106633714Y-75157143D01*
X106633714Y-75157143D02*
X106690857Y-75128571D01*
X106690857Y-75128571D02*
X106776571Y-75128571D01*
X106776571Y-75128571D02*
X106833714Y-75157143D01*
X106833714Y-75157143D02*
X106862285Y-75185714D01*
X106862285Y-75185714D02*
X106890857Y-75242857D01*
X106890857Y-75242857D02*
X106890857Y-75471428D01*
X106948000Y-74871428D02*
X106948000Y-74414286D01*
X107176571Y-74642857D02*
X106719428Y-74642857D01*
X109676571Y-76357142D02*
X109076571Y-76357142D01*
X109076571Y-76357142D02*
X109076571Y-76214285D01*
X109076571Y-76214285D02*
X109105142Y-76128571D01*
X109105142Y-76128571D02*
X109162285Y-76071428D01*
X109162285Y-76071428D02*
X109219428Y-76042857D01*
X109219428Y-76042857D02*
X109333714Y-76014285D01*
X109333714Y-76014285D02*
X109419428Y-76014285D01*
X109419428Y-76014285D02*
X109533714Y-76042857D01*
X109533714Y-76042857D02*
X109590857Y-76071428D01*
X109590857Y-76071428D02*
X109648000Y-76128571D01*
X109648000Y-76128571D02*
X109676571Y-76214285D01*
X109676571Y-76214285D02*
X109676571Y-76357142D01*
X109676571Y-75757142D02*
X109076571Y-75757142D01*
X109676571Y-75128571D02*
X109390857Y-75328571D01*
X109676571Y-75471428D02*
X109076571Y-75471428D01*
X109076571Y-75471428D02*
X109076571Y-75242857D01*
X109076571Y-75242857D02*
X109105142Y-75185714D01*
X109105142Y-75185714D02*
X109133714Y-75157143D01*
X109133714Y-75157143D02*
X109190857Y-75128571D01*
X109190857Y-75128571D02*
X109276571Y-75128571D01*
X109276571Y-75128571D02*
X109333714Y-75157143D01*
X109333714Y-75157143D02*
X109362285Y-75185714D01*
X109362285Y-75185714D02*
X109390857Y-75242857D01*
X109390857Y-75242857D02*
X109390857Y-75471428D01*
X109448000Y-74871428D02*
X109448000Y-74414286D01*
X104676571Y-76607142D02*
X104076571Y-76607142D01*
X104076571Y-76607142D02*
X104076571Y-76378571D01*
X104076571Y-76378571D02*
X104105142Y-76321428D01*
X104105142Y-76321428D02*
X104133714Y-76292857D01*
X104133714Y-76292857D02*
X104190857Y-76264285D01*
X104190857Y-76264285D02*
X104276571Y-76264285D01*
X104276571Y-76264285D02*
X104333714Y-76292857D01*
X104333714Y-76292857D02*
X104362285Y-76321428D01*
X104362285Y-76321428D02*
X104390857Y-76378571D01*
X104390857Y-76378571D02*
X104390857Y-76607142D01*
X104076571Y-76007142D02*
X104562285Y-76007142D01*
X104562285Y-76007142D02*
X104619428Y-75978571D01*
X104619428Y-75978571D02*
X104648000Y-75950000D01*
X104648000Y-75950000D02*
X104676571Y-75892857D01*
X104676571Y-75892857D02*
X104676571Y-75778571D01*
X104676571Y-75778571D02*
X104648000Y-75721428D01*
X104648000Y-75721428D02*
X104619428Y-75692857D01*
X104619428Y-75692857D02*
X104562285Y-75664285D01*
X104562285Y-75664285D02*
X104076571Y-75664285D01*
X104676571Y-75092857D02*
X104676571Y-75378571D01*
X104676571Y-75378571D02*
X104076571Y-75378571D01*
X104448000Y-74892857D02*
X104448000Y-74435715D01*
X102176571Y-76607142D02*
X101576571Y-76607142D01*
X101576571Y-76607142D02*
X101576571Y-76378571D01*
X101576571Y-76378571D02*
X101605142Y-76321428D01*
X101605142Y-76321428D02*
X101633714Y-76292857D01*
X101633714Y-76292857D02*
X101690857Y-76264285D01*
X101690857Y-76264285D02*
X101776571Y-76264285D01*
X101776571Y-76264285D02*
X101833714Y-76292857D01*
X101833714Y-76292857D02*
X101862285Y-76321428D01*
X101862285Y-76321428D02*
X101890857Y-76378571D01*
X101890857Y-76378571D02*
X101890857Y-76607142D01*
X101576571Y-76007142D02*
X102062285Y-76007142D01*
X102062285Y-76007142D02*
X102119428Y-75978571D01*
X102119428Y-75978571D02*
X102148000Y-75950000D01*
X102148000Y-75950000D02*
X102176571Y-75892857D01*
X102176571Y-75892857D02*
X102176571Y-75778571D01*
X102176571Y-75778571D02*
X102148000Y-75721428D01*
X102148000Y-75721428D02*
X102119428Y-75692857D01*
X102119428Y-75692857D02*
X102062285Y-75664285D01*
X102062285Y-75664285D02*
X101576571Y-75664285D01*
X102176571Y-75092857D02*
X102176571Y-75378571D01*
X102176571Y-75378571D02*
X101576571Y-75378571D01*
X101948000Y-74892857D02*
X101948000Y-74435715D01*
X102176571Y-74664286D02*
X101719428Y-74664286D01*
X68738095Y-86496666D02*
X69500000Y-86496666D01*
X65738095Y-86496666D02*
X66500000Y-86496666D01*
X66119047Y-86877619D02*
X66119047Y-86115714D01*
X68738095Y-76496666D02*
X69500000Y-76496666D01*
X65738095Y-76496666D02*
X66500000Y-76496666D01*
X66119047Y-76877619D02*
X66119047Y-76115714D01*
X77690476Y-96830000D02*
X77785714Y-96877619D01*
X77785714Y-96877619D02*
X77976190Y-96877619D01*
X77976190Y-96877619D02*
X78071428Y-96830000D01*
X78071428Y-96830000D02*
X78119047Y-96734761D01*
X78119047Y-96734761D02*
X78119047Y-96687142D01*
X78119047Y-96687142D02*
X78071428Y-96591904D01*
X78071428Y-96591904D02*
X77976190Y-96544285D01*
X77976190Y-96544285D02*
X77833333Y-96544285D01*
X77833333Y-96544285D02*
X77738095Y-96496666D01*
X77738095Y-96496666D02*
X77690476Y-96401428D01*
X77690476Y-96401428D02*
X77690476Y-96353809D01*
X77690476Y-96353809D02*
X77738095Y-96258571D01*
X77738095Y-96258571D02*
X77833333Y-96210952D01*
X77833333Y-96210952D02*
X77976190Y-96210952D01*
X77976190Y-96210952D02*
X78071428Y-96258571D01*
X78547619Y-96877619D02*
X78547619Y-96210952D01*
X78547619Y-95877619D02*
X78500000Y-95925238D01*
X78500000Y-95925238D02*
X78547619Y-95972857D01*
X78547619Y-95972857D02*
X78595238Y-95925238D01*
X78595238Y-95925238D02*
X78547619Y-95877619D01*
X78547619Y-95877619D02*
X78547619Y-95972857D01*
X79452380Y-96210952D02*
X79452380Y-97020476D01*
X79452380Y-97020476D02*
X79404761Y-97115714D01*
X79404761Y-97115714D02*
X79357142Y-97163333D01*
X79357142Y-97163333D02*
X79261904Y-97210952D01*
X79261904Y-97210952D02*
X79119047Y-97210952D01*
X79119047Y-97210952D02*
X79023809Y-97163333D01*
X79452380Y-96830000D02*
X79357142Y-96877619D01*
X79357142Y-96877619D02*
X79166666Y-96877619D01*
X79166666Y-96877619D02*
X79071428Y-96830000D01*
X79071428Y-96830000D02*
X79023809Y-96782380D01*
X79023809Y-96782380D02*
X78976190Y-96687142D01*
X78976190Y-96687142D02*
X78976190Y-96401428D01*
X78976190Y-96401428D02*
X79023809Y-96306190D01*
X79023809Y-96306190D02*
X79071428Y-96258571D01*
X79071428Y-96258571D02*
X79166666Y-96210952D01*
X79166666Y-96210952D02*
X79357142Y-96210952D01*
X79357142Y-96210952D02*
X79452380Y-96258571D01*
X75238095Y-96496666D02*
X76000000Y-96496666D01*
X80738095Y-96496666D02*
X81500000Y-96496666D01*
X81119047Y-96877619D02*
X81119047Y-96115714D01*
X77690476Y-86830000D02*
X77785714Y-86877619D01*
X77785714Y-86877619D02*
X77976190Y-86877619D01*
X77976190Y-86877619D02*
X78071428Y-86830000D01*
X78071428Y-86830000D02*
X78119047Y-86734761D01*
X78119047Y-86734761D02*
X78119047Y-86687142D01*
X78119047Y-86687142D02*
X78071428Y-86591904D01*
X78071428Y-86591904D02*
X77976190Y-86544285D01*
X77976190Y-86544285D02*
X77833333Y-86544285D01*
X77833333Y-86544285D02*
X77738095Y-86496666D01*
X77738095Y-86496666D02*
X77690476Y-86401428D01*
X77690476Y-86401428D02*
X77690476Y-86353809D01*
X77690476Y-86353809D02*
X77738095Y-86258571D01*
X77738095Y-86258571D02*
X77833333Y-86210952D01*
X77833333Y-86210952D02*
X77976190Y-86210952D01*
X77976190Y-86210952D02*
X78071428Y-86258571D01*
X78547619Y-86877619D02*
X78547619Y-86210952D01*
X78547619Y-85877619D02*
X78500000Y-85925238D01*
X78500000Y-85925238D02*
X78547619Y-85972857D01*
X78547619Y-85972857D02*
X78595238Y-85925238D01*
X78595238Y-85925238D02*
X78547619Y-85877619D01*
X78547619Y-85877619D02*
X78547619Y-85972857D01*
X79452380Y-86210952D02*
X79452380Y-87020476D01*
X79452380Y-87020476D02*
X79404761Y-87115714D01*
X79404761Y-87115714D02*
X79357142Y-87163333D01*
X79357142Y-87163333D02*
X79261904Y-87210952D01*
X79261904Y-87210952D02*
X79119047Y-87210952D01*
X79119047Y-87210952D02*
X79023809Y-87163333D01*
X79452380Y-86830000D02*
X79357142Y-86877619D01*
X79357142Y-86877619D02*
X79166666Y-86877619D01*
X79166666Y-86877619D02*
X79071428Y-86830000D01*
X79071428Y-86830000D02*
X79023809Y-86782380D01*
X79023809Y-86782380D02*
X78976190Y-86687142D01*
X78976190Y-86687142D02*
X78976190Y-86401428D01*
X78976190Y-86401428D02*
X79023809Y-86306190D01*
X79023809Y-86306190D02*
X79071428Y-86258571D01*
X79071428Y-86258571D02*
X79166666Y-86210952D01*
X79166666Y-86210952D02*
X79357142Y-86210952D01*
X79357142Y-86210952D02*
X79452380Y-86258571D01*
X75238095Y-86496666D02*
X76000000Y-86496666D01*
X80738095Y-86496666D02*
X81500000Y-86496666D01*
X81119047Y-86877619D02*
X81119047Y-86115714D01*
X77690476Y-76830000D02*
X77785714Y-76877619D01*
X77785714Y-76877619D02*
X77976190Y-76877619D01*
X77976190Y-76877619D02*
X78071428Y-76830000D01*
X78071428Y-76830000D02*
X78119047Y-76734761D01*
X78119047Y-76734761D02*
X78119047Y-76687142D01*
X78119047Y-76687142D02*
X78071428Y-76591904D01*
X78071428Y-76591904D02*
X77976190Y-76544285D01*
X77976190Y-76544285D02*
X77833333Y-76544285D01*
X77833333Y-76544285D02*
X77738095Y-76496666D01*
X77738095Y-76496666D02*
X77690476Y-76401428D01*
X77690476Y-76401428D02*
X77690476Y-76353809D01*
X77690476Y-76353809D02*
X77738095Y-76258571D01*
X77738095Y-76258571D02*
X77833333Y-76210952D01*
X77833333Y-76210952D02*
X77976190Y-76210952D01*
X77976190Y-76210952D02*
X78071428Y-76258571D01*
X78547619Y-76877619D02*
X78547619Y-76210952D01*
X78547619Y-75877619D02*
X78500000Y-75925238D01*
X78500000Y-75925238D02*
X78547619Y-75972857D01*
X78547619Y-75972857D02*
X78595238Y-75925238D01*
X78595238Y-75925238D02*
X78547619Y-75877619D01*
X78547619Y-75877619D02*
X78547619Y-75972857D01*
X79452380Y-76210952D02*
X79452380Y-77020476D01*
X79452380Y-77020476D02*
X79404761Y-77115714D01*
X79404761Y-77115714D02*
X79357142Y-77163333D01*
X79357142Y-77163333D02*
X79261904Y-77210952D01*
X79261904Y-77210952D02*
X79119047Y-77210952D01*
X79119047Y-77210952D02*
X79023809Y-77163333D01*
X79452380Y-76830000D02*
X79357142Y-76877619D01*
X79357142Y-76877619D02*
X79166666Y-76877619D01*
X79166666Y-76877619D02*
X79071428Y-76830000D01*
X79071428Y-76830000D02*
X79023809Y-76782380D01*
X79023809Y-76782380D02*
X78976190Y-76687142D01*
X78976190Y-76687142D02*
X78976190Y-76401428D01*
X78976190Y-76401428D02*
X79023809Y-76306190D01*
X79023809Y-76306190D02*
X79071428Y-76258571D01*
X79071428Y-76258571D02*
X79166666Y-76210952D01*
X79166666Y-76210952D02*
X79357142Y-76210952D01*
X79357142Y-76210952D02*
X79452380Y-76258571D01*
X75238095Y-76496666D02*
X76000000Y-76496666D01*
X80738095Y-76496666D02*
X81500000Y-76496666D01*
X81119047Y-76877619D02*
X81119047Y-76115714D01*
X68738095Y-107496666D02*
X69500000Y-107496666D01*
X119503333Y-65518095D02*
X119503333Y-66280000D01*
X77968095Y-107521666D02*
X78730000Y-107521666D01*
X78349047Y-107902619D02*
X78349047Y-107140714D01*
X92658095Y-109665119D02*
X92658095Y-108665119D01*
X93324761Y-108665119D02*
X93515237Y-108665119D01*
X93515237Y-108665119D02*
X93610475Y-108712738D01*
X93610475Y-108712738D02*
X93705713Y-108807976D01*
X93705713Y-108807976D02*
X93753332Y-108998452D01*
X93753332Y-108998452D02*
X93753332Y-109331785D01*
X93753332Y-109331785D02*
X93705713Y-109522261D01*
X93705713Y-109522261D02*
X93610475Y-109617500D01*
X93610475Y-109617500D02*
X93515237Y-109665119D01*
X93515237Y-109665119D02*
X93324761Y-109665119D01*
X93324761Y-109665119D02*
X93229523Y-109617500D01*
X93229523Y-109617500D02*
X93134285Y-109522261D01*
X93134285Y-109522261D02*
X93086666Y-109331785D01*
X93086666Y-109331785D02*
X93086666Y-108998452D01*
X93086666Y-108998452D02*
X93134285Y-108807976D01*
X93134285Y-108807976D02*
X93229523Y-108712738D01*
X93229523Y-108712738D02*
X93324761Y-108665119D01*
X94134285Y-108760357D02*
X94181904Y-108712738D01*
X94181904Y-108712738D02*
X94277142Y-108665119D01*
X94277142Y-108665119D02*
X94515237Y-108665119D01*
X94515237Y-108665119D02*
X94610475Y-108712738D01*
X94610475Y-108712738D02*
X94658094Y-108760357D01*
X94658094Y-108760357D02*
X94705713Y-108855595D01*
X94705713Y-108855595D02*
X94705713Y-108950833D01*
X94705713Y-108950833D02*
X94658094Y-109093690D01*
X94658094Y-109093690D02*
X94086666Y-109665119D01*
X94086666Y-109665119D02*
X94705713Y-109665119D01*
X121190476Y-62472857D02*
X121238095Y-62425238D01*
X121238095Y-62425238D02*
X121333333Y-62377619D01*
X121333333Y-62377619D02*
X121571428Y-62377619D01*
X121571428Y-62377619D02*
X121666666Y-62425238D01*
X121666666Y-62425238D02*
X121714285Y-62472857D01*
X121714285Y-62472857D02*
X121761904Y-62568095D01*
X121761904Y-62568095D02*
X121761904Y-62663333D01*
X121761904Y-62663333D02*
X121714285Y-62806190D01*
X121714285Y-62806190D02*
X121142857Y-63377619D01*
X121142857Y-63377619D02*
X121761904Y-63377619D01*
X122619047Y-62710952D02*
X122619047Y-63377619D01*
X122380952Y-62330000D02*
X122142857Y-63044285D01*
X122142857Y-63044285D02*
X122761904Y-63044285D01*
X123000000Y-62377619D02*
X123333333Y-63377619D01*
X123333333Y-63377619D02*
X123666666Y-62377619D01*
X124761905Y-62710952D02*
X124761905Y-63710952D01*
X124761905Y-62758571D02*
X124857143Y-62710952D01*
X124857143Y-62710952D02*
X125047619Y-62710952D01*
X125047619Y-62710952D02*
X125142857Y-62758571D01*
X125142857Y-62758571D02*
X125190476Y-62806190D01*
X125190476Y-62806190D02*
X125238095Y-62901428D01*
X125238095Y-62901428D02*
X125238095Y-63187142D01*
X125238095Y-63187142D02*
X125190476Y-63282380D01*
X125190476Y-63282380D02*
X125142857Y-63330000D01*
X125142857Y-63330000D02*
X125047619Y-63377619D01*
X125047619Y-63377619D02*
X124857143Y-63377619D01*
X124857143Y-63377619D02*
X124761905Y-63330000D01*
X125809524Y-63377619D02*
X125714286Y-63330000D01*
X125714286Y-63330000D02*
X125666667Y-63282380D01*
X125666667Y-63282380D02*
X125619048Y-63187142D01*
X125619048Y-63187142D02*
X125619048Y-62901428D01*
X125619048Y-62901428D02*
X125666667Y-62806190D01*
X125666667Y-62806190D02*
X125714286Y-62758571D01*
X125714286Y-62758571D02*
X125809524Y-62710952D01*
X125809524Y-62710952D02*
X125952381Y-62710952D01*
X125952381Y-62710952D02*
X126047619Y-62758571D01*
X126047619Y-62758571D02*
X126095238Y-62806190D01*
X126095238Y-62806190D02*
X126142857Y-62901428D01*
X126142857Y-62901428D02*
X126142857Y-63187142D01*
X126142857Y-63187142D02*
X126095238Y-63282380D01*
X126095238Y-63282380D02*
X126047619Y-63330000D01*
X126047619Y-63330000D02*
X125952381Y-63377619D01*
X125952381Y-63377619D02*
X125809524Y-63377619D01*
X126476191Y-62710952D02*
X126666667Y-63377619D01*
X126666667Y-63377619D02*
X126857143Y-62901428D01*
X126857143Y-62901428D02*
X127047619Y-63377619D01*
X127047619Y-63377619D02*
X127238095Y-62710952D01*
X128000000Y-63330000D02*
X127904762Y-63377619D01*
X127904762Y-63377619D02*
X127714286Y-63377619D01*
X127714286Y-63377619D02*
X127619048Y-63330000D01*
X127619048Y-63330000D02*
X127571429Y-63234761D01*
X127571429Y-63234761D02*
X127571429Y-62853809D01*
X127571429Y-62853809D02*
X127619048Y-62758571D01*
X127619048Y-62758571D02*
X127714286Y-62710952D01*
X127714286Y-62710952D02*
X127904762Y-62710952D01*
X127904762Y-62710952D02*
X128000000Y-62758571D01*
X128000000Y-62758571D02*
X128047619Y-62853809D01*
X128047619Y-62853809D02*
X128047619Y-62949047D01*
X128047619Y-62949047D02*
X127571429Y-63044285D01*
X128476191Y-63377619D02*
X128476191Y-62710952D01*
X128476191Y-62901428D02*
X128523810Y-62806190D01*
X128523810Y-62806190D02*
X128571429Y-62758571D01*
X128571429Y-62758571D02*
X128666667Y-62710952D01*
X128666667Y-62710952D02*
X128761905Y-62710952D01*
X80468095Y-107521666D02*
X81230000Y-107521666D01*
X126738095Y-111521666D02*
X127500000Y-111521666D01*
X126403095Y-103021666D02*
X127165000Y-103021666D01*
X119503333Y-70598095D02*
X119503333Y-71360000D01*
X119122380Y-70979047D02*
X119884285Y-70979047D01*
X107208095Y-109665119D02*
X107208095Y-108665119D01*
X107874761Y-108665119D02*
X108065237Y-108665119D01*
X108065237Y-108665119D02*
X108160475Y-108712738D01*
X108160475Y-108712738D02*
X108255713Y-108807976D01*
X108255713Y-108807976D02*
X108303332Y-108998452D01*
X108303332Y-108998452D02*
X108303332Y-109331785D01*
X108303332Y-109331785D02*
X108255713Y-109522261D01*
X108255713Y-109522261D02*
X108160475Y-109617500D01*
X108160475Y-109617500D02*
X108065237Y-109665119D01*
X108065237Y-109665119D02*
X107874761Y-109665119D01*
X107874761Y-109665119D02*
X107779523Y-109617500D01*
X107779523Y-109617500D02*
X107684285Y-109522261D01*
X107684285Y-109522261D02*
X107636666Y-109331785D01*
X107636666Y-109331785D02*
X107636666Y-108998452D01*
X107636666Y-108998452D02*
X107684285Y-108807976D01*
X107684285Y-108807976D02*
X107779523Y-108712738D01*
X107779523Y-108712738D02*
X107874761Y-108665119D01*
X108684285Y-108760357D02*
X108731904Y-108712738D01*
X108731904Y-108712738D02*
X108827142Y-108665119D01*
X108827142Y-108665119D02*
X109065237Y-108665119D01*
X109065237Y-108665119D02*
X109160475Y-108712738D01*
X109160475Y-108712738D02*
X109208094Y-108760357D01*
X109208094Y-108760357D02*
X109255713Y-108855595D01*
X109255713Y-108855595D02*
X109255713Y-108950833D01*
X109255713Y-108950833D02*
X109208094Y-109093690D01*
X109208094Y-109093690D02*
X108636666Y-109665119D01*
X108636666Y-109665119D02*
X109255713Y-109665119D01*
X124238095Y-111496666D02*
X125000000Y-111496666D01*
X124619047Y-111877619D02*
X124619047Y-111115714D01*
X123903095Y-103021666D02*
X124665000Y-103021666D01*
X124284047Y-103402619D02*
X124284047Y-102640714D01*
X89908095Y-109665119D02*
X89908095Y-108665119D01*
X90574761Y-108665119D02*
X90765237Y-108665119D01*
X90765237Y-108665119D02*
X90860475Y-108712738D01*
X90860475Y-108712738D02*
X90955713Y-108807976D01*
X90955713Y-108807976D02*
X91003332Y-108998452D01*
X91003332Y-108998452D02*
X91003332Y-109331785D01*
X91003332Y-109331785D02*
X90955713Y-109522261D01*
X90955713Y-109522261D02*
X90860475Y-109617500D01*
X90860475Y-109617500D02*
X90765237Y-109665119D01*
X90765237Y-109665119D02*
X90574761Y-109665119D01*
X90574761Y-109665119D02*
X90479523Y-109617500D01*
X90479523Y-109617500D02*
X90384285Y-109522261D01*
X90384285Y-109522261D02*
X90336666Y-109331785D01*
X90336666Y-109331785D02*
X90336666Y-108998452D01*
X90336666Y-108998452D02*
X90384285Y-108807976D01*
X90384285Y-108807976D02*
X90479523Y-108712738D01*
X90479523Y-108712738D02*
X90574761Y-108665119D01*
X91955713Y-109665119D02*
X91384285Y-109665119D01*
X91669999Y-109665119D02*
X91669999Y-108665119D01*
X91669999Y-108665119D02*
X91574761Y-108807976D01*
X91574761Y-108807976D02*
X91479523Y-108903214D01*
X91479523Y-108903214D02*
X91384285Y-108950833D01*
X104458095Y-109665119D02*
X104458095Y-108665119D01*
X105124761Y-108665119D02*
X105315237Y-108665119D01*
X105315237Y-108665119D02*
X105410475Y-108712738D01*
X105410475Y-108712738D02*
X105505713Y-108807976D01*
X105505713Y-108807976D02*
X105553332Y-108998452D01*
X105553332Y-108998452D02*
X105553332Y-109331785D01*
X105553332Y-109331785D02*
X105505713Y-109522261D01*
X105505713Y-109522261D02*
X105410475Y-109617500D01*
X105410475Y-109617500D02*
X105315237Y-109665119D01*
X105315237Y-109665119D02*
X105124761Y-109665119D01*
X105124761Y-109665119D02*
X105029523Y-109617500D01*
X105029523Y-109617500D02*
X104934285Y-109522261D01*
X104934285Y-109522261D02*
X104886666Y-109331785D01*
X104886666Y-109331785D02*
X104886666Y-108998452D01*
X104886666Y-108998452D02*
X104934285Y-108807976D01*
X104934285Y-108807976D02*
X105029523Y-108712738D01*
X105029523Y-108712738D02*
X105124761Y-108665119D01*
X106505713Y-109665119D02*
X105934285Y-109665119D01*
X106219999Y-109665119D02*
X106219999Y-108665119D01*
X106219999Y-108665119D02*
X106124761Y-108807976D01*
X106124761Y-108807976D02*
X106029523Y-108903214D01*
X106029523Y-108903214D02*
X105934285Y-108950833D01*
X102438095Y-109034166D02*
X103200000Y-109034166D01*
X110208095Y-109034166D02*
X110970000Y-109034166D01*
X110589047Y-109415119D02*
X110589047Y-108653214D01*
X108590000Y-98309523D02*
X108637619Y-98166666D01*
X108637619Y-98166666D02*
X108637619Y-97928571D01*
X108637619Y-97928571D02*
X108590000Y-97833333D01*
X108590000Y-97833333D02*
X108542380Y-97785714D01*
X108542380Y-97785714D02*
X108447142Y-97738095D01*
X108447142Y-97738095D02*
X108351904Y-97738095D01*
X108351904Y-97738095D02*
X108256666Y-97785714D01*
X108256666Y-97785714D02*
X108209047Y-97833333D01*
X108209047Y-97833333D02*
X108161428Y-97928571D01*
X108161428Y-97928571D02*
X108113809Y-98119047D01*
X108113809Y-98119047D02*
X108066190Y-98214285D01*
X108066190Y-98214285D02*
X108018571Y-98261904D01*
X108018571Y-98261904D02*
X107923333Y-98309523D01*
X107923333Y-98309523D02*
X107828095Y-98309523D01*
X107828095Y-98309523D02*
X107732857Y-98261904D01*
X107732857Y-98261904D02*
X107685238Y-98214285D01*
X107685238Y-98214285D02*
X107637619Y-98119047D01*
X107637619Y-98119047D02*
X107637619Y-97880952D01*
X107637619Y-97880952D02*
X107685238Y-97738095D01*
X107970952Y-97404761D02*
X108637619Y-97166666D01*
X107970952Y-96928571D02*
X108637619Y-97166666D01*
X108637619Y-97166666D02*
X108875714Y-97261904D01*
X108875714Y-97261904D02*
X108923333Y-97309523D01*
X108923333Y-97309523D02*
X108970952Y-97404761D01*
X108637619Y-96547618D02*
X107970952Y-96547618D01*
X108161428Y-96547618D02*
X108066190Y-96499999D01*
X108066190Y-96499999D02*
X108018571Y-96452380D01*
X108018571Y-96452380D02*
X107970952Y-96357142D01*
X107970952Y-96357142D02*
X107970952Y-96261904D01*
X108637619Y-95928570D02*
X107970952Y-95928570D01*
X107637619Y-95928570D02*
X107685238Y-95976189D01*
X107685238Y-95976189D02*
X107732857Y-95928570D01*
X107732857Y-95928570D02*
X107685238Y-95880951D01*
X107685238Y-95880951D02*
X107637619Y-95928570D01*
X107637619Y-95928570D02*
X107732857Y-95928570D01*
X107970952Y-95452380D02*
X108637619Y-95452380D01*
X108066190Y-95452380D02*
X108018571Y-95404761D01*
X108018571Y-95404761D02*
X107970952Y-95309523D01*
X107970952Y-95309523D02*
X107970952Y-95166666D01*
X107970952Y-95166666D02*
X108018571Y-95071428D01*
X108018571Y-95071428D02*
X108113809Y-95023809D01*
X108113809Y-95023809D02*
X108637619Y-95023809D01*
X107970952Y-94119047D02*
X108780476Y-94119047D01*
X108780476Y-94119047D02*
X108875714Y-94166666D01*
X108875714Y-94166666D02*
X108923333Y-94214285D01*
X108923333Y-94214285D02*
X108970952Y-94309523D01*
X108970952Y-94309523D02*
X108970952Y-94452380D01*
X108970952Y-94452380D02*
X108923333Y-94547618D01*
X108590000Y-94119047D02*
X108637619Y-94214285D01*
X108637619Y-94214285D02*
X108637619Y-94404761D01*
X108637619Y-94404761D02*
X108590000Y-94499999D01*
X108590000Y-94499999D02*
X108542380Y-94547618D01*
X108542380Y-94547618D02*
X108447142Y-94595237D01*
X108447142Y-94595237D02*
X108161428Y-94595237D01*
X108161428Y-94595237D02*
X108066190Y-94547618D01*
X108066190Y-94547618D02*
X108018571Y-94499999D01*
X108018571Y-94499999D02*
X107970952Y-94404761D01*
X107970952Y-94404761D02*
X107970952Y-94214285D01*
X107970952Y-94214285D02*
X108018571Y-94119047D01*
X108590000Y-93261904D02*
X108637619Y-93357142D01*
X108637619Y-93357142D02*
X108637619Y-93547618D01*
X108637619Y-93547618D02*
X108590000Y-93642856D01*
X108590000Y-93642856D02*
X108494761Y-93690475D01*
X108494761Y-93690475D02*
X108113809Y-93690475D01*
X108113809Y-93690475D02*
X108018571Y-93642856D01*
X108018571Y-93642856D02*
X107970952Y-93547618D01*
X107970952Y-93547618D02*
X107970952Y-93357142D01*
X107970952Y-93357142D02*
X108018571Y-93261904D01*
X108018571Y-93261904D02*
X108113809Y-93214285D01*
X108113809Y-93214285D02*
X108209047Y-93214285D01*
X108209047Y-93214285D02*
X108304285Y-93690475D01*
X108637619Y-92023808D02*
X107637619Y-92023808D01*
X107637619Y-92023808D02*
X107637619Y-91642856D01*
X107637619Y-91642856D02*
X107685238Y-91547618D01*
X107685238Y-91547618D02*
X107732857Y-91499999D01*
X107732857Y-91499999D02*
X107828095Y-91452380D01*
X107828095Y-91452380D02*
X107970952Y-91452380D01*
X107970952Y-91452380D02*
X108066190Y-91499999D01*
X108066190Y-91499999D02*
X108113809Y-91547618D01*
X108113809Y-91547618D02*
X108161428Y-91642856D01*
X108161428Y-91642856D02*
X108161428Y-92023808D01*
X107970952Y-90595237D02*
X108637619Y-90595237D01*
X107970952Y-91023808D02*
X108494761Y-91023808D01*
X108494761Y-91023808D02*
X108590000Y-90976189D01*
X108590000Y-90976189D02*
X108637619Y-90880951D01*
X108637619Y-90880951D02*
X108637619Y-90738094D01*
X108637619Y-90738094D02*
X108590000Y-90642856D01*
X108590000Y-90642856D02*
X108542380Y-90595237D01*
X108637619Y-90119046D02*
X107970952Y-90119046D01*
X108066190Y-90119046D02*
X108018571Y-90071427D01*
X108018571Y-90071427D02*
X107970952Y-89976189D01*
X107970952Y-89976189D02*
X107970952Y-89833332D01*
X107970952Y-89833332D02*
X108018571Y-89738094D01*
X108018571Y-89738094D02*
X108113809Y-89690475D01*
X108113809Y-89690475D02*
X108637619Y-89690475D01*
X108113809Y-89690475D02*
X108018571Y-89642856D01*
X108018571Y-89642856D02*
X107970952Y-89547618D01*
X107970952Y-89547618D02*
X107970952Y-89404761D01*
X107970952Y-89404761D02*
X108018571Y-89309522D01*
X108018571Y-89309522D02*
X108113809Y-89261903D01*
X108113809Y-89261903D02*
X108637619Y-89261903D01*
X107970952Y-88785713D02*
X108970952Y-88785713D01*
X108018571Y-88785713D02*
X107970952Y-88690475D01*
X107970952Y-88690475D02*
X107970952Y-88499999D01*
X107970952Y-88499999D02*
X108018571Y-88404761D01*
X108018571Y-88404761D02*
X108066190Y-88357142D01*
X108066190Y-88357142D02*
X108161428Y-88309523D01*
X108161428Y-88309523D02*
X108447142Y-88309523D01*
X108447142Y-88309523D02*
X108542380Y-88357142D01*
X108542380Y-88357142D02*
X108590000Y-88404761D01*
X108590000Y-88404761D02*
X108637619Y-88499999D01*
X108637619Y-88499999D02*
X108637619Y-88690475D01*
X108637619Y-88690475D02*
X108590000Y-88785713D01*
X109971904Y-98309523D02*
X109971904Y-97833333D01*
X110257619Y-98404761D02*
X109257619Y-98071428D01*
X109257619Y-98071428D02*
X110257619Y-97738095D01*
X110257619Y-97404761D02*
X109590952Y-97404761D01*
X109781428Y-97404761D02*
X109686190Y-97357142D01*
X109686190Y-97357142D02*
X109638571Y-97309523D01*
X109638571Y-97309523D02*
X109590952Y-97214285D01*
X109590952Y-97214285D02*
X109590952Y-97119047D01*
X110257619Y-96357142D02*
X109257619Y-96357142D01*
X110210000Y-96357142D02*
X110257619Y-96452380D01*
X110257619Y-96452380D02*
X110257619Y-96642856D01*
X110257619Y-96642856D02*
X110210000Y-96738094D01*
X110210000Y-96738094D02*
X110162380Y-96785713D01*
X110162380Y-96785713D02*
X110067142Y-96833332D01*
X110067142Y-96833332D02*
X109781428Y-96833332D01*
X109781428Y-96833332D02*
X109686190Y-96785713D01*
X109686190Y-96785713D02*
X109638571Y-96738094D01*
X109638571Y-96738094D02*
X109590952Y-96642856D01*
X109590952Y-96642856D02*
X109590952Y-96452380D01*
X109590952Y-96452380D02*
X109638571Y-96357142D01*
X109590952Y-95452380D02*
X110257619Y-95452380D01*
X109590952Y-95880951D02*
X110114761Y-95880951D01*
X110114761Y-95880951D02*
X110210000Y-95833332D01*
X110210000Y-95833332D02*
X110257619Y-95738094D01*
X110257619Y-95738094D02*
X110257619Y-95595237D01*
X110257619Y-95595237D02*
X110210000Y-95499999D01*
X110210000Y-95499999D02*
X110162380Y-95452380D01*
X110257619Y-94976189D02*
X109590952Y-94976189D01*
X109257619Y-94976189D02*
X109305238Y-95023808D01*
X109305238Y-95023808D02*
X109352857Y-94976189D01*
X109352857Y-94976189D02*
X109305238Y-94928570D01*
X109305238Y-94928570D02*
X109257619Y-94976189D01*
X109257619Y-94976189D02*
X109352857Y-94976189D01*
X109590952Y-94499999D02*
X110257619Y-94499999D01*
X109686190Y-94499999D02*
X109638571Y-94452380D01*
X109638571Y-94452380D02*
X109590952Y-94357142D01*
X109590952Y-94357142D02*
X109590952Y-94214285D01*
X109590952Y-94214285D02*
X109638571Y-94119047D01*
X109638571Y-94119047D02*
X109733809Y-94071428D01*
X109733809Y-94071428D02*
X110257619Y-94071428D01*
X110257619Y-93452380D02*
X110210000Y-93547618D01*
X110210000Y-93547618D02*
X110162380Y-93595237D01*
X110162380Y-93595237D02*
X110067142Y-93642856D01*
X110067142Y-93642856D02*
X109781428Y-93642856D01*
X109781428Y-93642856D02*
X109686190Y-93595237D01*
X109686190Y-93595237D02*
X109638571Y-93547618D01*
X109638571Y-93547618D02*
X109590952Y-93452380D01*
X109590952Y-93452380D02*
X109590952Y-93309523D01*
X109590952Y-93309523D02*
X109638571Y-93214285D01*
X109638571Y-93214285D02*
X109686190Y-93166666D01*
X109686190Y-93166666D02*
X109781428Y-93119047D01*
X109781428Y-93119047D02*
X110067142Y-93119047D01*
X110067142Y-93119047D02*
X110162380Y-93166666D01*
X110162380Y-93166666D02*
X110210000Y-93214285D01*
X110210000Y-93214285D02*
X110257619Y-93309523D01*
X110257619Y-93309523D02*
X110257619Y-93452380D01*
X109257619Y-91928570D02*
X110067142Y-91928570D01*
X110067142Y-91928570D02*
X110162380Y-91880951D01*
X110162380Y-91880951D02*
X110210000Y-91833332D01*
X110210000Y-91833332D02*
X110257619Y-91738094D01*
X110257619Y-91738094D02*
X110257619Y-91547618D01*
X110257619Y-91547618D02*
X110210000Y-91452380D01*
X110210000Y-91452380D02*
X110162380Y-91404761D01*
X110162380Y-91404761D02*
X110067142Y-91357142D01*
X110067142Y-91357142D02*
X109257619Y-91357142D01*
X110257619Y-90880951D02*
X109257619Y-90880951D01*
X109257619Y-90880951D02*
X110257619Y-90309523D01*
X110257619Y-90309523D02*
X109257619Y-90309523D01*
X109257619Y-89642856D02*
X109257619Y-89452380D01*
X109257619Y-89452380D02*
X109305238Y-89357142D01*
X109305238Y-89357142D02*
X109400476Y-89261904D01*
X109400476Y-89261904D02*
X109590952Y-89214285D01*
X109590952Y-89214285D02*
X109924285Y-89214285D01*
X109924285Y-89214285D02*
X110114761Y-89261904D01*
X110114761Y-89261904D02*
X110210000Y-89357142D01*
X110210000Y-89357142D02*
X110257619Y-89452380D01*
X110257619Y-89452380D02*
X110257619Y-89642856D01*
X110257619Y-89642856D02*
X110210000Y-89738094D01*
X110210000Y-89738094D02*
X110114761Y-89833332D01*
X110114761Y-89833332D02*
X109924285Y-89880951D01*
X109924285Y-89880951D02*
X109590952Y-89880951D01*
X109590952Y-89880951D02*
X109400476Y-89833332D01*
X109400476Y-89833332D02*
X109305238Y-89738094D01*
X109305238Y-89738094D02*
X109257619Y-89642856D01*
X110210000Y-88071427D02*
X110257619Y-87976189D01*
X110257619Y-87976189D02*
X110257619Y-87785713D01*
X110257619Y-87785713D02*
X110210000Y-87690475D01*
X110210000Y-87690475D02*
X110114761Y-87642856D01*
X110114761Y-87642856D02*
X110067142Y-87642856D01*
X110067142Y-87642856D02*
X109971904Y-87690475D01*
X109971904Y-87690475D02*
X109924285Y-87785713D01*
X109924285Y-87785713D02*
X109924285Y-87928570D01*
X109924285Y-87928570D02*
X109876666Y-88023808D01*
X109876666Y-88023808D02*
X109781428Y-88071427D01*
X109781428Y-88071427D02*
X109733809Y-88071427D01*
X109733809Y-88071427D02*
X109638571Y-88023808D01*
X109638571Y-88023808D02*
X109590952Y-87928570D01*
X109590952Y-87928570D02*
X109590952Y-87785713D01*
X109590952Y-87785713D02*
X109638571Y-87690475D01*
X110257619Y-87214284D02*
X109257619Y-87214284D01*
X110257619Y-86785713D02*
X109733809Y-86785713D01*
X109733809Y-86785713D02*
X109638571Y-86833332D01*
X109638571Y-86833332D02*
X109590952Y-86928570D01*
X109590952Y-86928570D02*
X109590952Y-87071427D01*
X109590952Y-87071427D02*
X109638571Y-87166665D01*
X109638571Y-87166665D02*
X109686190Y-87214284D01*
X110257619Y-86309522D02*
X109590952Y-86309522D01*
X109257619Y-86309522D02*
X109305238Y-86357141D01*
X109305238Y-86357141D02*
X109352857Y-86309522D01*
X109352857Y-86309522D02*
X109305238Y-86261903D01*
X109305238Y-86261903D02*
X109257619Y-86309522D01*
X109257619Y-86309522D02*
X109352857Y-86309522D01*
X110210000Y-85452380D02*
X110257619Y-85547618D01*
X110257619Y-85547618D02*
X110257619Y-85738094D01*
X110257619Y-85738094D02*
X110210000Y-85833332D01*
X110210000Y-85833332D02*
X110114761Y-85880951D01*
X110114761Y-85880951D02*
X109733809Y-85880951D01*
X109733809Y-85880951D02*
X109638571Y-85833332D01*
X109638571Y-85833332D02*
X109590952Y-85738094D01*
X109590952Y-85738094D02*
X109590952Y-85547618D01*
X109590952Y-85547618D02*
X109638571Y-85452380D01*
X109638571Y-85452380D02*
X109733809Y-85404761D01*
X109733809Y-85404761D02*
X109829047Y-85404761D01*
X109829047Y-85404761D02*
X109924285Y-85880951D01*
X110257619Y-84833332D02*
X110210000Y-84928570D01*
X110210000Y-84928570D02*
X110114761Y-84976189D01*
X110114761Y-84976189D02*
X109257619Y-84976189D01*
X110257619Y-84023808D02*
X109257619Y-84023808D01*
X110210000Y-84023808D02*
X110257619Y-84119046D01*
X110257619Y-84119046D02*
X110257619Y-84309522D01*
X110257619Y-84309522D02*
X110210000Y-84404760D01*
X110210000Y-84404760D02*
X110162380Y-84452379D01*
X110162380Y-84452379D02*
X110067142Y-84499998D01*
X110067142Y-84499998D02*
X109781428Y-84499998D01*
X109781428Y-84499998D02*
X109686190Y-84452379D01*
X109686190Y-84452379D02*
X109638571Y-84404760D01*
X109638571Y-84404760D02*
X109590952Y-84309522D01*
X109590952Y-84309522D02*
X109590952Y-84119046D01*
X109590952Y-84119046D02*
X109638571Y-84023808D01*
X111877619Y-98261904D02*
X111210952Y-98261904D01*
X111401428Y-98261904D02*
X111306190Y-98214285D01*
X111306190Y-98214285D02*
X111258571Y-98166666D01*
X111258571Y-98166666D02*
X111210952Y-98071428D01*
X111210952Y-98071428D02*
X111210952Y-97976190D01*
X111830000Y-97261904D02*
X111877619Y-97357142D01*
X111877619Y-97357142D02*
X111877619Y-97547618D01*
X111877619Y-97547618D02*
X111830000Y-97642856D01*
X111830000Y-97642856D02*
X111734761Y-97690475D01*
X111734761Y-97690475D02*
X111353809Y-97690475D01*
X111353809Y-97690475D02*
X111258571Y-97642856D01*
X111258571Y-97642856D02*
X111210952Y-97547618D01*
X111210952Y-97547618D02*
X111210952Y-97357142D01*
X111210952Y-97357142D02*
X111258571Y-97261904D01*
X111258571Y-97261904D02*
X111353809Y-97214285D01*
X111353809Y-97214285D02*
X111449047Y-97214285D01*
X111449047Y-97214285D02*
X111544285Y-97690475D01*
X111210952Y-96880951D02*
X111877619Y-96642856D01*
X111877619Y-96642856D02*
X111210952Y-96404761D01*
X111782380Y-96023808D02*
X111830000Y-95976189D01*
X111830000Y-95976189D02*
X111877619Y-96023808D01*
X111877619Y-96023808D02*
X111830000Y-96071427D01*
X111830000Y-96071427D02*
X111782380Y-96023808D01*
X111782380Y-96023808D02*
X111877619Y-96023808D01*
X111877619Y-94261904D02*
X111877619Y-94833332D01*
X111877619Y-94547618D02*
X110877619Y-94547618D01*
X110877619Y-94547618D02*
X111020476Y-94642856D01*
X111020476Y-94642856D02*
X111115714Y-94738094D01*
X111115714Y-94738094D02*
X111163333Y-94833332D01*
X88158095Y-109034166D02*
X88920000Y-109034166D01*
X95658095Y-109034166D02*
X96420000Y-109034166D01*
X96039047Y-109415119D02*
X96039047Y-108653214D01*
X65988095Y-107496666D02*
X66750000Y-107496666D01*
X66369047Y-107877619D02*
X66369047Y-107115714D01*
%TO.C,J13*%
X73999999Y-68338809D02*
X74333332Y-68338809D01*
X74476189Y-68862619D02*
X73999999Y-68862619D01*
X73999999Y-68862619D02*
X73999999Y-67862619D01*
X73999999Y-67862619D02*
X74476189Y-67862619D01*
X74904761Y-68195952D02*
X74904761Y-68862619D01*
X74904761Y-68291190D02*
X74952380Y-68243571D01*
X74952380Y-68243571D02*
X75047618Y-68195952D01*
X75047618Y-68195952D02*
X75190475Y-68195952D01*
X75190475Y-68195952D02*
X75285713Y-68243571D01*
X75285713Y-68243571D02*
X75333332Y-68338809D01*
X75333332Y-68338809D02*
X75333332Y-68862619D01*
X76238094Y-68862619D02*
X76238094Y-67862619D01*
X76238094Y-68815000D02*
X76142856Y-68862619D01*
X76142856Y-68862619D02*
X75952380Y-68862619D01*
X75952380Y-68862619D02*
X75857142Y-68815000D01*
X75857142Y-68815000D02*
X75809523Y-68767380D01*
X75809523Y-68767380D02*
X75761904Y-68672142D01*
X75761904Y-68672142D02*
X75761904Y-68386428D01*
X75761904Y-68386428D02*
X75809523Y-68291190D01*
X75809523Y-68291190D02*
X75857142Y-68243571D01*
X75857142Y-68243571D02*
X75952380Y-68195952D01*
X75952380Y-68195952D02*
X76142856Y-68195952D01*
X76142856Y-68195952D02*
X76238094Y-68243571D01*
X76666666Y-68815000D02*
X76761904Y-68862619D01*
X76761904Y-68862619D02*
X76952380Y-68862619D01*
X76952380Y-68862619D02*
X77047618Y-68815000D01*
X77047618Y-68815000D02*
X77095237Y-68719761D01*
X77095237Y-68719761D02*
X77095237Y-68672142D01*
X77095237Y-68672142D02*
X77047618Y-68576904D01*
X77047618Y-68576904D02*
X76952380Y-68529285D01*
X76952380Y-68529285D02*
X76809523Y-68529285D01*
X76809523Y-68529285D02*
X76714285Y-68481666D01*
X76714285Y-68481666D02*
X76666666Y-68386428D01*
X76666666Y-68386428D02*
X76666666Y-68338809D01*
X76666666Y-68338809D02*
X76714285Y-68243571D01*
X76714285Y-68243571D02*
X76809523Y-68195952D01*
X76809523Y-68195952D02*
X76952380Y-68195952D01*
X76952380Y-68195952D02*
X77047618Y-68243571D01*
X77380952Y-68195952D02*
X77761904Y-68195952D01*
X77523809Y-67862619D02*
X77523809Y-68719761D01*
X77523809Y-68719761D02*
X77571428Y-68815000D01*
X77571428Y-68815000D02*
X77666666Y-68862619D01*
X77666666Y-68862619D02*
X77761904Y-68862619D01*
X78238095Y-68862619D02*
X78142857Y-68815000D01*
X78142857Y-68815000D02*
X78095238Y-68767380D01*
X78095238Y-68767380D02*
X78047619Y-68672142D01*
X78047619Y-68672142D02*
X78047619Y-68386428D01*
X78047619Y-68386428D02*
X78095238Y-68291190D01*
X78095238Y-68291190D02*
X78142857Y-68243571D01*
X78142857Y-68243571D02*
X78238095Y-68195952D01*
X78238095Y-68195952D02*
X78380952Y-68195952D01*
X78380952Y-68195952D02*
X78476190Y-68243571D01*
X78476190Y-68243571D02*
X78523809Y-68291190D01*
X78523809Y-68291190D02*
X78571428Y-68386428D01*
X78571428Y-68386428D02*
X78571428Y-68672142D01*
X78571428Y-68672142D02*
X78523809Y-68767380D01*
X78523809Y-68767380D02*
X78476190Y-68815000D01*
X78476190Y-68815000D02*
X78380952Y-68862619D01*
X78380952Y-68862619D02*
X78238095Y-68862619D01*
X79000000Y-68195952D02*
X79000000Y-69195952D01*
X79000000Y-68243571D02*
X79095238Y-68195952D01*
X79095238Y-68195952D02*
X79285714Y-68195952D01*
X79285714Y-68195952D02*
X79380952Y-68243571D01*
X79380952Y-68243571D02*
X79428571Y-68291190D01*
X79428571Y-68291190D02*
X79476190Y-68386428D01*
X79476190Y-68386428D02*
X79476190Y-68672142D01*
X79476190Y-68672142D02*
X79428571Y-68767380D01*
X79428571Y-68767380D02*
X79380952Y-68815000D01*
X79380952Y-68815000D02*
X79285714Y-68862619D01*
X79285714Y-68862619D02*
X79095238Y-68862619D01*
X79095238Y-68862619D02*
X79000000Y-68815000D01*
X80666667Y-68862619D02*
X80666667Y-67862619D01*
X80666667Y-67862619D02*
X81238095Y-68862619D01*
X81238095Y-68862619D02*
X81238095Y-67862619D01*
X82095238Y-68815000D02*
X82000000Y-68862619D01*
X82000000Y-68862619D02*
X81809524Y-68862619D01*
X81809524Y-68862619D02*
X81714286Y-68815000D01*
X81714286Y-68815000D02*
X81666667Y-68719761D01*
X81666667Y-68719761D02*
X81666667Y-68338809D01*
X81666667Y-68338809D02*
X81714286Y-68243571D01*
X81714286Y-68243571D02*
X81809524Y-68195952D01*
X81809524Y-68195952D02*
X82000000Y-68195952D01*
X82000000Y-68195952D02*
X82095238Y-68243571D01*
X82095238Y-68243571D02*
X82142857Y-68338809D01*
X82142857Y-68338809D02*
X82142857Y-68434047D01*
X82142857Y-68434047D02*
X81666667Y-68529285D01*
X83000000Y-68195952D02*
X83000000Y-69005476D01*
X83000000Y-69005476D02*
X82952381Y-69100714D01*
X82952381Y-69100714D02*
X82904762Y-69148333D01*
X82904762Y-69148333D02*
X82809524Y-69195952D01*
X82809524Y-69195952D02*
X82666667Y-69195952D01*
X82666667Y-69195952D02*
X82571429Y-69148333D01*
X83000000Y-68815000D02*
X82904762Y-68862619D01*
X82904762Y-68862619D02*
X82714286Y-68862619D01*
X82714286Y-68862619D02*
X82619048Y-68815000D01*
X82619048Y-68815000D02*
X82571429Y-68767380D01*
X82571429Y-68767380D02*
X82523810Y-68672142D01*
X82523810Y-68672142D02*
X82523810Y-68386428D01*
X82523810Y-68386428D02*
X82571429Y-68291190D01*
X82571429Y-68291190D02*
X82619048Y-68243571D01*
X82619048Y-68243571D02*
X82714286Y-68195952D01*
X82714286Y-68195952D02*
X82904762Y-68195952D01*
X82904762Y-68195952D02*
X83000000Y-68243571D01*
%TO.C,J12*%
X74047618Y-78338809D02*
X74380951Y-78338809D01*
X74523808Y-78862619D02*
X74047618Y-78862619D01*
X74047618Y-78862619D02*
X74047618Y-77862619D01*
X74047618Y-77862619D02*
X74523808Y-77862619D01*
X74952380Y-78195952D02*
X74952380Y-78862619D01*
X74952380Y-78291190D02*
X74999999Y-78243571D01*
X74999999Y-78243571D02*
X75095237Y-78195952D01*
X75095237Y-78195952D02*
X75238094Y-78195952D01*
X75238094Y-78195952D02*
X75333332Y-78243571D01*
X75333332Y-78243571D02*
X75380951Y-78338809D01*
X75380951Y-78338809D02*
X75380951Y-78862619D01*
X76285713Y-78862619D02*
X76285713Y-77862619D01*
X76285713Y-78815000D02*
X76190475Y-78862619D01*
X76190475Y-78862619D02*
X75999999Y-78862619D01*
X75999999Y-78862619D02*
X75904761Y-78815000D01*
X75904761Y-78815000D02*
X75857142Y-78767380D01*
X75857142Y-78767380D02*
X75809523Y-78672142D01*
X75809523Y-78672142D02*
X75809523Y-78386428D01*
X75809523Y-78386428D02*
X75857142Y-78291190D01*
X75857142Y-78291190D02*
X75904761Y-78243571D01*
X75904761Y-78243571D02*
X75999999Y-78195952D01*
X75999999Y-78195952D02*
X76190475Y-78195952D01*
X76190475Y-78195952D02*
X76285713Y-78243571D01*
X76714285Y-78815000D02*
X76809523Y-78862619D01*
X76809523Y-78862619D02*
X76999999Y-78862619D01*
X76999999Y-78862619D02*
X77095237Y-78815000D01*
X77095237Y-78815000D02*
X77142856Y-78719761D01*
X77142856Y-78719761D02*
X77142856Y-78672142D01*
X77142856Y-78672142D02*
X77095237Y-78576904D01*
X77095237Y-78576904D02*
X76999999Y-78529285D01*
X76999999Y-78529285D02*
X76857142Y-78529285D01*
X76857142Y-78529285D02*
X76761904Y-78481666D01*
X76761904Y-78481666D02*
X76714285Y-78386428D01*
X76714285Y-78386428D02*
X76714285Y-78338809D01*
X76714285Y-78338809D02*
X76761904Y-78243571D01*
X76761904Y-78243571D02*
X76857142Y-78195952D01*
X76857142Y-78195952D02*
X76999999Y-78195952D01*
X76999999Y-78195952D02*
X77095237Y-78243571D01*
X77428571Y-78195952D02*
X77809523Y-78195952D01*
X77571428Y-77862619D02*
X77571428Y-78719761D01*
X77571428Y-78719761D02*
X77619047Y-78815000D01*
X77619047Y-78815000D02*
X77714285Y-78862619D01*
X77714285Y-78862619D02*
X77809523Y-78862619D01*
X78285714Y-78862619D02*
X78190476Y-78815000D01*
X78190476Y-78815000D02*
X78142857Y-78767380D01*
X78142857Y-78767380D02*
X78095238Y-78672142D01*
X78095238Y-78672142D02*
X78095238Y-78386428D01*
X78095238Y-78386428D02*
X78142857Y-78291190D01*
X78142857Y-78291190D02*
X78190476Y-78243571D01*
X78190476Y-78243571D02*
X78285714Y-78195952D01*
X78285714Y-78195952D02*
X78428571Y-78195952D01*
X78428571Y-78195952D02*
X78523809Y-78243571D01*
X78523809Y-78243571D02*
X78571428Y-78291190D01*
X78571428Y-78291190D02*
X78619047Y-78386428D01*
X78619047Y-78386428D02*
X78619047Y-78672142D01*
X78619047Y-78672142D02*
X78571428Y-78767380D01*
X78571428Y-78767380D02*
X78523809Y-78815000D01*
X78523809Y-78815000D02*
X78428571Y-78862619D01*
X78428571Y-78862619D02*
X78285714Y-78862619D01*
X79047619Y-78195952D02*
X79047619Y-79195952D01*
X79047619Y-78243571D02*
X79142857Y-78195952D01*
X79142857Y-78195952D02*
X79333333Y-78195952D01*
X79333333Y-78195952D02*
X79428571Y-78243571D01*
X79428571Y-78243571D02*
X79476190Y-78291190D01*
X79476190Y-78291190D02*
X79523809Y-78386428D01*
X79523809Y-78386428D02*
X79523809Y-78672142D01*
X79523809Y-78672142D02*
X79476190Y-78767380D01*
X79476190Y-78767380D02*
X79428571Y-78815000D01*
X79428571Y-78815000D02*
X79333333Y-78862619D01*
X79333333Y-78862619D02*
X79142857Y-78862619D01*
X79142857Y-78862619D02*
X79047619Y-78815000D01*
X80714286Y-78862619D02*
X80714286Y-77862619D01*
X80714286Y-77862619D02*
X81095238Y-77862619D01*
X81095238Y-77862619D02*
X81190476Y-77910238D01*
X81190476Y-77910238D02*
X81238095Y-77957857D01*
X81238095Y-77957857D02*
X81285714Y-78053095D01*
X81285714Y-78053095D02*
X81285714Y-78195952D01*
X81285714Y-78195952D02*
X81238095Y-78291190D01*
X81238095Y-78291190D02*
X81190476Y-78338809D01*
X81190476Y-78338809D02*
X81095238Y-78386428D01*
X81095238Y-78386428D02*
X80714286Y-78386428D01*
X81857143Y-78862619D02*
X81761905Y-78815000D01*
X81761905Y-78815000D02*
X81714286Y-78767380D01*
X81714286Y-78767380D02*
X81666667Y-78672142D01*
X81666667Y-78672142D02*
X81666667Y-78386428D01*
X81666667Y-78386428D02*
X81714286Y-78291190D01*
X81714286Y-78291190D02*
X81761905Y-78243571D01*
X81761905Y-78243571D02*
X81857143Y-78195952D01*
X81857143Y-78195952D02*
X82000000Y-78195952D01*
X82000000Y-78195952D02*
X82095238Y-78243571D01*
X82095238Y-78243571D02*
X82142857Y-78291190D01*
X82142857Y-78291190D02*
X82190476Y-78386428D01*
X82190476Y-78386428D02*
X82190476Y-78672142D01*
X82190476Y-78672142D02*
X82142857Y-78767380D01*
X82142857Y-78767380D02*
X82095238Y-78815000D01*
X82095238Y-78815000D02*
X82000000Y-78862619D01*
X82000000Y-78862619D02*
X81857143Y-78862619D01*
X82571429Y-78815000D02*
X82666667Y-78862619D01*
X82666667Y-78862619D02*
X82857143Y-78862619D01*
X82857143Y-78862619D02*
X82952381Y-78815000D01*
X82952381Y-78815000D02*
X83000000Y-78719761D01*
X83000000Y-78719761D02*
X83000000Y-78672142D01*
X83000000Y-78672142D02*
X82952381Y-78576904D01*
X82952381Y-78576904D02*
X82857143Y-78529285D01*
X82857143Y-78529285D02*
X82714286Y-78529285D01*
X82714286Y-78529285D02*
X82619048Y-78481666D01*
X82619048Y-78481666D02*
X82571429Y-78386428D01*
X82571429Y-78386428D02*
X82571429Y-78338809D01*
X82571429Y-78338809D02*
X82619048Y-78243571D01*
X82619048Y-78243571D02*
X82714286Y-78195952D01*
X82714286Y-78195952D02*
X82857143Y-78195952D01*
X82857143Y-78195952D02*
X82952381Y-78243571D01*
%TO.C,J11*%
X75761904Y-88338809D02*
X76095237Y-88338809D01*
X76238094Y-88862619D02*
X75761904Y-88862619D01*
X75761904Y-88862619D02*
X75761904Y-87862619D01*
X75761904Y-87862619D02*
X76238094Y-87862619D01*
X76666666Y-88195952D02*
X76666666Y-88862619D01*
X76666666Y-88291190D02*
X76714285Y-88243571D01*
X76714285Y-88243571D02*
X76809523Y-88195952D01*
X76809523Y-88195952D02*
X76952380Y-88195952D01*
X76952380Y-88195952D02*
X77047618Y-88243571D01*
X77047618Y-88243571D02*
X77095237Y-88338809D01*
X77095237Y-88338809D02*
X77095237Y-88862619D01*
X77999999Y-88815000D02*
X77904761Y-88862619D01*
X77904761Y-88862619D02*
X77714285Y-88862619D01*
X77714285Y-88862619D02*
X77619047Y-88815000D01*
X77619047Y-88815000D02*
X77571428Y-88767380D01*
X77571428Y-88767380D02*
X77523809Y-88672142D01*
X77523809Y-88672142D02*
X77523809Y-88386428D01*
X77523809Y-88386428D02*
X77571428Y-88291190D01*
X77571428Y-88291190D02*
X77619047Y-88243571D01*
X77619047Y-88243571D02*
X77714285Y-88195952D01*
X77714285Y-88195952D02*
X77904761Y-88195952D01*
X77904761Y-88195952D02*
X77999999Y-88243571D01*
X78571428Y-88862619D02*
X78476190Y-88815000D01*
X78476190Y-88815000D02*
X78428571Y-88767380D01*
X78428571Y-88767380D02*
X78380952Y-88672142D01*
X78380952Y-88672142D02*
X78380952Y-88386428D01*
X78380952Y-88386428D02*
X78428571Y-88291190D01*
X78428571Y-88291190D02*
X78476190Y-88243571D01*
X78476190Y-88243571D02*
X78571428Y-88195952D01*
X78571428Y-88195952D02*
X78714285Y-88195952D01*
X78714285Y-88195952D02*
X78809523Y-88243571D01*
X78809523Y-88243571D02*
X78857142Y-88291190D01*
X78857142Y-88291190D02*
X78904761Y-88386428D01*
X78904761Y-88386428D02*
X78904761Y-88672142D01*
X78904761Y-88672142D02*
X78857142Y-88767380D01*
X78857142Y-88767380D02*
X78809523Y-88815000D01*
X78809523Y-88815000D02*
X78714285Y-88862619D01*
X78714285Y-88862619D02*
X78571428Y-88862619D01*
X79761904Y-88862619D02*
X79761904Y-87862619D01*
X79761904Y-88815000D02*
X79666666Y-88862619D01*
X79666666Y-88862619D02*
X79476190Y-88862619D01*
X79476190Y-88862619D02*
X79380952Y-88815000D01*
X79380952Y-88815000D02*
X79333333Y-88767380D01*
X79333333Y-88767380D02*
X79285714Y-88672142D01*
X79285714Y-88672142D02*
X79285714Y-88386428D01*
X79285714Y-88386428D02*
X79333333Y-88291190D01*
X79333333Y-88291190D02*
X79380952Y-88243571D01*
X79380952Y-88243571D02*
X79476190Y-88195952D01*
X79476190Y-88195952D02*
X79666666Y-88195952D01*
X79666666Y-88195952D02*
X79761904Y-88243571D01*
X80619047Y-88815000D02*
X80523809Y-88862619D01*
X80523809Y-88862619D02*
X80333333Y-88862619D01*
X80333333Y-88862619D02*
X80238095Y-88815000D01*
X80238095Y-88815000D02*
X80190476Y-88719761D01*
X80190476Y-88719761D02*
X80190476Y-88338809D01*
X80190476Y-88338809D02*
X80238095Y-88243571D01*
X80238095Y-88243571D02*
X80333333Y-88195952D01*
X80333333Y-88195952D02*
X80523809Y-88195952D01*
X80523809Y-88195952D02*
X80619047Y-88243571D01*
X80619047Y-88243571D02*
X80666666Y-88338809D01*
X80666666Y-88338809D02*
X80666666Y-88434047D01*
X80666666Y-88434047D02*
X80190476Y-88529285D01*
X81095238Y-88862619D02*
X81095238Y-88195952D01*
X81095238Y-88386428D02*
X81142857Y-88291190D01*
X81142857Y-88291190D02*
X81190476Y-88243571D01*
X81190476Y-88243571D02*
X81285714Y-88195952D01*
X81285714Y-88195952D02*
X81380952Y-88195952D01*
%TO.C,R8*%
X71462619Y-96046666D02*
X70986428Y-96379999D01*
X71462619Y-96618094D02*
X70462619Y-96618094D01*
X70462619Y-96618094D02*
X70462619Y-96237142D01*
X70462619Y-96237142D02*
X70510238Y-96141904D01*
X70510238Y-96141904D02*
X70557857Y-96094285D01*
X70557857Y-96094285D02*
X70653095Y-96046666D01*
X70653095Y-96046666D02*
X70795952Y-96046666D01*
X70795952Y-96046666D02*
X70891190Y-96094285D01*
X70891190Y-96094285D02*
X70938809Y-96141904D01*
X70938809Y-96141904D02*
X70986428Y-96237142D01*
X70986428Y-96237142D02*
X70986428Y-96618094D01*
X70891190Y-95475237D02*
X70843571Y-95570475D01*
X70843571Y-95570475D02*
X70795952Y-95618094D01*
X70795952Y-95618094D02*
X70700714Y-95665713D01*
X70700714Y-95665713D02*
X70653095Y-95665713D01*
X70653095Y-95665713D02*
X70557857Y-95618094D01*
X70557857Y-95618094D02*
X70510238Y-95570475D01*
X70510238Y-95570475D02*
X70462619Y-95475237D01*
X70462619Y-95475237D02*
X70462619Y-95284761D01*
X70462619Y-95284761D02*
X70510238Y-95189523D01*
X70510238Y-95189523D02*
X70557857Y-95141904D01*
X70557857Y-95141904D02*
X70653095Y-95094285D01*
X70653095Y-95094285D02*
X70700714Y-95094285D01*
X70700714Y-95094285D02*
X70795952Y-95141904D01*
X70795952Y-95141904D02*
X70843571Y-95189523D01*
X70843571Y-95189523D02*
X70891190Y-95284761D01*
X70891190Y-95284761D02*
X70891190Y-95475237D01*
X70891190Y-95475237D02*
X70938809Y-95570475D01*
X70938809Y-95570475D02*
X70986428Y-95618094D01*
X70986428Y-95618094D02*
X71081666Y-95665713D01*
X71081666Y-95665713D02*
X71272142Y-95665713D01*
X71272142Y-95665713D02*
X71367380Y-95618094D01*
X71367380Y-95618094D02*
X71415000Y-95570475D01*
X71415000Y-95570475D02*
X71462619Y-95475237D01*
X71462619Y-95475237D02*
X71462619Y-95284761D01*
X71462619Y-95284761D02*
X71415000Y-95189523D01*
X71415000Y-95189523D02*
X71367380Y-95141904D01*
X71367380Y-95141904D02*
X71272142Y-95094285D01*
X71272142Y-95094285D02*
X71081666Y-95094285D01*
X71081666Y-95094285D02*
X70986428Y-95141904D01*
X70986428Y-95141904D02*
X70938809Y-95189523D01*
X70938809Y-95189523D02*
X70891190Y-95284761D01*
X70795952Y-90141904D02*
X71462619Y-90141904D01*
X70415000Y-90379999D02*
X71129285Y-90618094D01*
X71129285Y-90618094D02*
X71129285Y-89999047D01*
X70462619Y-89713332D02*
X70462619Y-89046666D01*
X70462619Y-89046666D02*
X71462619Y-89475237D01*
X70462619Y-88475237D02*
X70462619Y-88379999D01*
X70462619Y-88379999D02*
X70510238Y-88284761D01*
X70510238Y-88284761D02*
X70557857Y-88237142D01*
X70557857Y-88237142D02*
X70653095Y-88189523D01*
X70653095Y-88189523D02*
X70843571Y-88141904D01*
X70843571Y-88141904D02*
X71081666Y-88141904D01*
X71081666Y-88141904D02*
X71272142Y-88189523D01*
X71272142Y-88189523D02*
X71367380Y-88237142D01*
X71367380Y-88237142D02*
X71415000Y-88284761D01*
X71415000Y-88284761D02*
X71462619Y-88379999D01*
X71462619Y-88379999D02*
X71462619Y-88475237D01*
X71462619Y-88475237D02*
X71415000Y-88570475D01*
X71415000Y-88570475D02*
X71367380Y-88618094D01*
X71367380Y-88618094D02*
X71272142Y-88665713D01*
X71272142Y-88665713D02*
X71081666Y-88713332D01*
X71081666Y-88713332D02*
X70843571Y-88713332D01*
X70843571Y-88713332D02*
X70653095Y-88665713D01*
X70653095Y-88665713D02*
X70557857Y-88618094D01*
X70557857Y-88618094D02*
X70510238Y-88570475D01*
X70510238Y-88570475D02*
X70462619Y-88475237D01*
%TO.C,R7*%
X67462619Y-96046666D02*
X66986428Y-96379999D01*
X67462619Y-96618094D02*
X66462619Y-96618094D01*
X66462619Y-96618094D02*
X66462619Y-96237142D01*
X66462619Y-96237142D02*
X66510238Y-96141904D01*
X66510238Y-96141904D02*
X66557857Y-96094285D01*
X66557857Y-96094285D02*
X66653095Y-96046666D01*
X66653095Y-96046666D02*
X66795952Y-96046666D01*
X66795952Y-96046666D02*
X66891190Y-96094285D01*
X66891190Y-96094285D02*
X66938809Y-96141904D01*
X66938809Y-96141904D02*
X66986428Y-96237142D01*
X66986428Y-96237142D02*
X66986428Y-96618094D01*
X66462619Y-95713332D02*
X66462619Y-95046666D01*
X66462619Y-95046666D02*
X67462619Y-95475237D01*
X66795952Y-90141904D02*
X67462619Y-90141904D01*
X66415000Y-90379999D02*
X67129285Y-90618094D01*
X67129285Y-90618094D02*
X67129285Y-89999047D01*
X66462619Y-89713332D02*
X66462619Y-89046666D01*
X66462619Y-89046666D02*
X67462619Y-89475237D01*
X66462619Y-88475237D02*
X66462619Y-88379999D01*
X66462619Y-88379999D02*
X66510238Y-88284761D01*
X66510238Y-88284761D02*
X66557857Y-88237142D01*
X66557857Y-88237142D02*
X66653095Y-88189523D01*
X66653095Y-88189523D02*
X66843571Y-88141904D01*
X66843571Y-88141904D02*
X67081666Y-88141904D01*
X67081666Y-88141904D02*
X67272142Y-88189523D01*
X67272142Y-88189523D02*
X67367380Y-88237142D01*
X67367380Y-88237142D02*
X67415000Y-88284761D01*
X67415000Y-88284761D02*
X67462619Y-88379999D01*
X67462619Y-88379999D02*
X67462619Y-88475237D01*
X67462619Y-88475237D02*
X67415000Y-88570475D01*
X67415000Y-88570475D02*
X67367380Y-88618094D01*
X67367380Y-88618094D02*
X67272142Y-88665713D01*
X67272142Y-88665713D02*
X67081666Y-88713332D01*
X67081666Y-88713332D02*
X66843571Y-88713332D01*
X66843571Y-88713332D02*
X66653095Y-88665713D01*
X66653095Y-88665713D02*
X66557857Y-88618094D01*
X66557857Y-88618094D02*
X66510238Y-88570475D01*
X66510238Y-88570475D02*
X66462619Y-88475237D01*
%TO.C,J14*%
X64916666Y-78576904D02*
X65392856Y-78576904D01*
X64821428Y-78862619D02*
X65154761Y-77862619D01*
X65154761Y-77862619D02*
X65488094Y-78862619D01*
X66249999Y-78195952D02*
X66249999Y-78862619D01*
X65821428Y-78195952D02*
X65821428Y-78719761D01*
X65821428Y-78719761D02*
X65869047Y-78815000D01*
X65869047Y-78815000D02*
X65964285Y-78862619D01*
X65964285Y-78862619D02*
X66107142Y-78862619D01*
X66107142Y-78862619D02*
X66202380Y-78815000D01*
X66202380Y-78815000D02*
X66249999Y-78767380D01*
X66630952Y-78862619D02*
X67154761Y-78195952D01*
X66630952Y-78195952D02*
X67154761Y-78862619D01*
X68773809Y-78862619D02*
X68297619Y-78862619D01*
X68297619Y-78862619D02*
X68297619Y-77862619D01*
X69107143Y-78338809D02*
X69440476Y-78338809D01*
X69583333Y-78862619D02*
X69107143Y-78862619D01*
X69107143Y-78862619D02*
X69107143Y-77862619D01*
X69107143Y-77862619D02*
X69583333Y-77862619D01*
X70011905Y-78862619D02*
X70011905Y-77862619D01*
X70011905Y-77862619D02*
X70250000Y-77862619D01*
X70250000Y-77862619D02*
X70392857Y-77910238D01*
X70392857Y-77910238D02*
X70488095Y-78005476D01*
X70488095Y-78005476D02*
X70535714Y-78100714D01*
X70535714Y-78100714D02*
X70583333Y-78291190D01*
X70583333Y-78291190D02*
X70583333Y-78434047D01*
X70583333Y-78434047D02*
X70535714Y-78624523D01*
X70535714Y-78624523D02*
X70488095Y-78719761D01*
X70488095Y-78719761D02*
X70392857Y-78815000D01*
X70392857Y-78815000D02*
X70250000Y-78862619D01*
X70250000Y-78862619D02*
X70011905Y-78862619D01*
%TO.C,J9*%
X103916666Y-67362619D02*
X103916666Y-66362619D01*
X103916666Y-66362619D02*
X104249999Y-67076904D01*
X104249999Y-67076904D02*
X104583332Y-66362619D01*
X104583332Y-66362619D02*
X104583332Y-67362619D01*
X105202380Y-67362619D02*
X105107142Y-67315000D01*
X105107142Y-67315000D02*
X105059523Y-67267380D01*
X105059523Y-67267380D02*
X105011904Y-67172142D01*
X105011904Y-67172142D02*
X105011904Y-66886428D01*
X105011904Y-66886428D02*
X105059523Y-66791190D01*
X105059523Y-66791190D02*
X105107142Y-66743571D01*
X105107142Y-66743571D02*
X105202380Y-66695952D01*
X105202380Y-66695952D02*
X105345237Y-66695952D01*
X105345237Y-66695952D02*
X105440475Y-66743571D01*
X105440475Y-66743571D02*
X105488094Y-66791190D01*
X105488094Y-66791190D02*
X105535713Y-66886428D01*
X105535713Y-66886428D02*
X105535713Y-67172142D01*
X105535713Y-67172142D02*
X105488094Y-67267380D01*
X105488094Y-67267380D02*
X105440475Y-67315000D01*
X105440475Y-67315000D02*
X105345237Y-67362619D01*
X105345237Y-67362619D02*
X105202380Y-67362619D01*
X105821428Y-66695952D02*
X106202380Y-66695952D01*
X105964285Y-66362619D02*
X105964285Y-67219761D01*
X105964285Y-67219761D02*
X106011904Y-67315000D01*
X106011904Y-67315000D02*
X106107142Y-67362619D01*
X106107142Y-67362619D02*
X106202380Y-67362619D01*
X106678571Y-67362619D02*
X106583333Y-67315000D01*
X106583333Y-67315000D02*
X106535714Y-67267380D01*
X106535714Y-67267380D02*
X106488095Y-67172142D01*
X106488095Y-67172142D02*
X106488095Y-66886428D01*
X106488095Y-66886428D02*
X106535714Y-66791190D01*
X106535714Y-66791190D02*
X106583333Y-66743571D01*
X106583333Y-66743571D02*
X106678571Y-66695952D01*
X106678571Y-66695952D02*
X106821428Y-66695952D01*
X106821428Y-66695952D02*
X106916666Y-66743571D01*
X106916666Y-66743571D02*
X106964285Y-66791190D01*
X106964285Y-66791190D02*
X107011904Y-66886428D01*
X107011904Y-66886428D02*
X107011904Y-67172142D01*
X107011904Y-67172142D02*
X106964285Y-67267380D01*
X106964285Y-67267380D02*
X106916666Y-67315000D01*
X106916666Y-67315000D02*
X106821428Y-67362619D01*
X106821428Y-67362619D02*
X106678571Y-67362619D01*
X107440476Y-67362619D02*
X107440476Y-66695952D01*
X107440476Y-66886428D02*
X107488095Y-66791190D01*
X107488095Y-66791190D02*
X107535714Y-66743571D01*
X107535714Y-66743571D02*
X107630952Y-66695952D01*
X107630952Y-66695952D02*
X107726190Y-66695952D01*
X109250000Y-67362619D02*
X109250000Y-66362619D01*
X109250000Y-67315000D02*
X109154762Y-67362619D01*
X109154762Y-67362619D02*
X108964286Y-67362619D01*
X108964286Y-67362619D02*
X108869048Y-67315000D01*
X108869048Y-67315000D02*
X108821429Y-67267380D01*
X108821429Y-67267380D02*
X108773810Y-67172142D01*
X108773810Y-67172142D02*
X108773810Y-66886428D01*
X108773810Y-66886428D02*
X108821429Y-66791190D01*
X108821429Y-66791190D02*
X108869048Y-66743571D01*
X108869048Y-66743571D02*
X108964286Y-66695952D01*
X108964286Y-66695952D02*
X109154762Y-66695952D01*
X109154762Y-66695952D02*
X109250000Y-66743571D01*
X109726191Y-67362619D02*
X109726191Y-66695952D01*
X109726191Y-66886428D02*
X109773810Y-66791190D01*
X109773810Y-66791190D02*
X109821429Y-66743571D01*
X109821429Y-66743571D02*
X109916667Y-66695952D01*
X109916667Y-66695952D02*
X110011905Y-66695952D01*
X110345239Y-67362619D02*
X110345239Y-66695952D01*
X110345239Y-66362619D02*
X110297620Y-66410238D01*
X110297620Y-66410238D02*
X110345239Y-66457857D01*
X110345239Y-66457857D02*
X110392858Y-66410238D01*
X110392858Y-66410238D02*
X110345239Y-66362619D01*
X110345239Y-66362619D02*
X110345239Y-66457857D01*
X110726191Y-66695952D02*
X110964286Y-67362619D01*
X110964286Y-67362619D02*
X111202381Y-66695952D01*
X111964286Y-67315000D02*
X111869048Y-67362619D01*
X111869048Y-67362619D02*
X111678572Y-67362619D01*
X111678572Y-67362619D02*
X111583334Y-67315000D01*
X111583334Y-67315000D02*
X111535715Y-67219761D01*
X111535715Y-67219761D02*
X111535715Y-66838809D01*
X111535715Y-66838809D02*
X111583334Y-66743571D01*
X111583334Y-66743571D02*
X111678572Y-66695952D01*
X111678572Y-66695952D02*
X111869048Y-66695952D01*
X111869048Y-66695952D02*
X111964286Y-66743571D01*
X111964286Y-66743571D02*
X112011905Y-66838809D01*
X112011905Y-66838809D02*
X112011905Y-66934047D01*
X112011905Y-66934047D02*
X111535715Y-67029285D01*
X112440477Y-67362619D02*
X112440477Y-66695952D01*
X112440477Y-66886428D02*
X112488096Y-66791190D01*
X112488096Y-66791190D02*
X112535715Y-66743571D01*
X112535715Y-66743571D02*
X112630953Y-66695952D01*
X112630953Y-66695952D02*
X112726191Y-66695952D01*
%TO.C,J1*%
X64035714Y-68862619D02*
X64035714Y-67862619D01*
X64035714Y-67862619D02*
X64416666Y-67862619D01*
X64416666Y-67862619D02*
X64511904Y-67910238D01*
X64511904Y-67910238D02*
X64559523Y-67957857D01*
X64559523Y-67957857D02*
X64607142Y-68053095D01*
X64607142Y-68053095D02*
X64607142Y-68195952D01*
X64607142Y-68195952D02*
X64559523Y-68291190D01*
X64559523Y-68291190D02*
X64511904Y-68338809D01*
X64511904Y-68338809D02*
X64416666Y-68386428D01*
X64416666Y-68386428D02*
X64035714Y-68386428D01*
X65178571Y-68862619D02*
X65083333Y-68815000D01*
X65083333Y-68815000D02*
X65035714Y-68767380D01*
X65035714Y-68767380D02*
X64988095Y-68672142D01*
X64988095Y-68672142D02*
X64988095Y-68386428D01*
X64988095Y-68386428D02*
X65035714Y-68291190D01*
X65035714Y-68291190D02*
X65083333Y-68243571D01*
X65083333Y-68243571D02*
X65178571Y-68195952D01*
X65178571Y-68195952D02*
X65321428Y-68195952D01*
X65321428Y-68195952D02*
X65416666Y-68243571D01*
X65416666Y-68243571D02*
X65464285Y-68291190D01*
X65464285Y-68291190D02*
X65511904Y-68386428D01*
X65511904Y-68386428D02*
X65511904Y-68672142D01*
X65511904Y-68672142D02*
X65464285Y-68767380D01*
X65464285Y-68767380D02*
X65416666Y-68815000D01*
X65416666Y-68815000D02*
X65321428Y-68862619D01*
X65321428Y-68862619D02*
X65178571Y-68862619D01*
X65845238Y-68195952D02*
X66035714Y-68862619D01*
X66035714Y-68862619D02*
X66226190Y-68386428D01*
X66226190Y-68386428D02*
X66416666Y-68862619D01*
X66416666Y-68862619D02*
X66607142Y-68195952D01*
X67369047Y-68815000D02*
X67273809Y-68862619D01*
X67273809Y-68862619D02*
X67083333Y-68862619D01*
X67083333Y-68862619D02*
X66988095Y-68815000D01*
X66988095Y-68815000D02*
X66940476Y-68719761D01*
X66940476Y-68719761D02*
X66940476Y-68338809D01*
X66940476Y-68338809D02*
X66988095Y-68243571D01*
X66988095Y-68243571D02*
X67083333Y-68195952D01*
X67083333Y-68195952D02*
X67273809Y-68195952D01*
X67273809Y-68195952D02*
X67369047Y-68243571D01*
X67369047Y-68243571D02*
X67416666Y-68338809D01*
X67416666Y-68338809D02*
X67416666Y-68434047D01*
X67416666Y-68434047D02*
X66940476Y-68529285D01*
X67845238Y-68862619D02*
X67845238Y-68195952D01*
X67845238Y-68386428D02*
X67892857Y-68291190D01*
X67892857Y-68291190D02*
X67940476Y-68243571D01*
X67940476Y-68243571D02*
X68035714Y-68195952D01*
X68035714Y-68195952D02*
X68130952Y-68195952D01*
X69702381Y-68862619D02*
X69226191Y-68862619D01*
X69226191Y-68862619D02*
X69226191Y-67862619D01*
X70035715Y-68338809D02*
X70369048Y-68338809D01*
X70511905Y-68862619D02*
X70035715Y-68862619D01*
X70035715Y-68862619D02*
X70035715Y-67862619D01*
X70035715Y-67862619D02*
X70511905Y-67862619D01*
X70940477Y-68862619D02*
X70940477Y-67862619D01*
X70940477Y-67862619D02*
X71178572Y-67862619D01*
X71178572Y-67862619D02*
X71321429Y-67910238D01*
X71321429Y-67910238D02*
X71416667Y-68005476D01*
X71416667Y-68005476D02*
X71464286Y-68100714D01*
X71464286Y-68100714D02*
X71511905Y-68291190D01*
X71511905Y-68291190D02*
X71511905Y-68434047D01*
X71511905Y-68434047D02*
X71464286Y-68624523D01*
X71464286Y-68624523D02*
X71416667Y-68719761D01*
X71416667Y-68719761D02*
X71321429Y-68815000D01*
X71321429Y-68815000D02*
X71178572Y-68862619D01*
X71178572Y-68862619D02*
X70940477Y-68862619D01*
%TO.C,Q1*%
X90102857Y-93998809D02*
X90245714Y-94046428D01*
X90245714Y-94046428D02*
X90293333Y-94094047D01*
X90293333Y-94094047D02*
X90340952Y-94189285D01*
X90340952Y-94189285D02*
X90340952Y-94332142D01*
X90340952Y-94332142D02*
X90293333Y-94427380D01*
X90293333Y-94427380D02*
X90245714Y-94475000D01*
X90245714Y-94475000D02*
X90150476Y-94522619D01*
X90150476Y-94522619D02*
X89769524Y-94522619D01*
X89769524Y-94522619D02*
X89769524Y-93522619D01*
X89769524Y-93522619D02*
X90102857Y-93522619D01*
X90102857Y-93522619D02*
X90198095Y-93570238D01*
X90198095Y-93570238D02*
X90245714Y-93617857D01*
X90245714Y-93617857D02*
X90293333Y-93713095D01*
X90293333Y-93713095D02*
X90293333Y-93808333D01*
X90293333Y-93808333D02*
X90245714Y-93903571D01*
X90245714Y-93903571D02*
X90198095Y-93951190D01*
X90198095Y-93951190D02*
X90102857Y-93998809D01*
X90102857Y-93998809D02*
X89769524Y-93998809D01*
X91340952Y-94427380D02*
X91293333Y-94475000D01*
X91293333Y-94475000D02*
X91150476Y-94522619D01*
X91150476Y-94522619D02*
X91055238Y-94522619D01*
X91055238Y-94522619D02*
X90912381Y-94475000D01*
X90912381Y-94475000D02*
X90817143Y-94379761D01*
X90817143Y-94379761D02*
X90769524Y-94284523D01*
X90769524Y-94284523D02*
X90721905Y-94094047D01*
X90721905Y-94094047D02*
X90721905Y-93951190D01*
X90721905Y-93951190D02*
X90769524Y-93760714D01*
X90769524Y-93760714D02*
X90817143Y-93665476D01*
X90817143Y-93665476D02*
X90912381Y-93570238D01*
X90912381Y-93570238D02*
X91055238Y-93522619D01*
X91055238Y-93522619D02*
X91150476Y-93522619D01*
X91150476Y-93522619D02*
X91293333Y-93570238D01*
X91293333Y-93570238D02*
X91340952Y-93617857D01*
X92245714Y-93522619D02*
X91769524Y-93522619D01*
X91769524Y-93522619D02*
X91721905Y-93998809D01*
X91721905Y-93998809D02*
X91769524Y-93951190D01*
X91769524Y-93951190D02*
X91864762Y-93903571D01*
X91864762Y-93903571D02*
X92102857Y-93903571D01*
X92102857Y-93903571D02*
X92198095Y-93951190D01*
X92198095Y-93951190D02*
X92245714Y-93998809D01*
X92245714Y-93998809D02*
X92293333Y-94094047D01*
X92293333Y-94094047D02*
X92293333Y-94332142D01*
X92293333Y-94332142D02*
X92245714Y-94427380D01*
X92245714Y-94427380D02*
X92198095Y-94475000D01*
X92198095Y-94475000D02*
X92102857Y-94522619D01*
X92102857Y-94522619D02*
X91864762Y-94522619D01*
X91864762Y-94522619D02*
X91769524Y-94475000D01*
X91769524Y-94475000D02*
X91721905Y-94427380D01*
X93198095Y-93522619D02*
X92721905Y-93522619D01*
X92721905Y-93522619D02*
X92674286Y-93998809D01*
X92674286Y-93998809D02*
X92721905Y-93951190D01*
X92721905Y-93951190D02*
X92817143Y-93903571D01*
X92817143Y-93903571D02*
X93055238Y-93903571D01*
X93055238Y-93903571D02*
X93150476Y-93951190D01*
X93150476Y-93951190D02*
X93198095Y-93998809D01*
X93198095Y-93998809D02*
X93245714Y-94094047D01*
X93245714Y-94094047D02*
X93245714Y-94332142D01*
X93245714Y-94332142D02*
X93198095Y-94427380D01*
X93198095Y-94427380D02*
X93150476Y-94475000D01*
X93150476Y-94475000D02*
X93055238Y-94522619D01*
X93055238Y-94522619D02*
X92817143Y-94522619D01*
X92817143Y-94522619D02*
X92721905Y-94475000D01*
X92721905Y-94475000D02*
X92674286Y-94427380D01*
X94102857Y-93522619D02*
X93912381Y-93522619D01*
X93912381Y-93522619D02*
X93817143Y-93570238D01*
X93817143Y-93570238D02*
X93769524Y-93617857D01*
X93769524Y-93617857D02*
X93674286Y-93760714D01*
X93674286Y-93760714D02*
X93626667Y-93951190D01*
X93626667Y-93951190D02*
X93626667Y-94332142D01*
X93626667Y-94332142D02*
X93674286Y-94427380D01*
X93674286Y-94427380D02*
X93721905Y-94475000D01*
X93721905Y-94475000D02*
X93817143Y-94522619D01*
X93817143Y-94522619D02*
X94007619Y-94522619D01*
X94007619Y-94522619D02*
X94102857Y-94475000D01*
X94102857Y-94475000D02*
X94150476Y-94427380D01*
X94150476Y-94427380D02*
X94198095Y-94332142D01*
X94198095Y-94332142D02*
X94198095Y-94094047D01*
X94198095Y-94094047D02*
X94150476Y-93998809D01*
X94150476Y-93998809D02*
X94102857Y-93951190D01*
X94102857Y-93951190D02*
X94007619Y-93903571D01*
X94007619Y-93903571D02*
X93817143Y-93903571D01*
X93817143Y-93903571D02*
X93721905Y-93951190D01*
X93721905Y-93951190D02*
X93674286Y-93998809D01*
X93674286Y-93998809D02*
X93626667Y-94094047D01*
%TO.C,R2*%
X103557619Y-91436666D02*
X103081428Y-91769999D01*
X103557619Y-92008094D02*
X102557619Y-92008094D01*
X102557619Y-92008094D02*
X102557619Y-91627142D01*
X102557619Y-91627142D02*
X102605238Y-91531904D01*
X102605238Y-91531904D02*
X102652857Y-91484285D01*
X102652857Y-91484285D02*
X102748095Y-91436666D01*
X102748095Y-91436666D02*
X102890952Y-91436666D01*
X102890952Y-91436666D02*
X102986190Y-91484285D01*
X102986190Y-91484285D02*
X103033809Y-91531904D01*
X103033809Y-91531904D02*
X103081428Y-91627142D01*
X103081428Y-91627142D02*
X103081428Y-92008094D01*
X102652857Y-91055713D02*
X102605238Y-91008094D01*
X102605238Y-91008094D02*
X102557619Y-90912856D01*
X102557619Y-90912856D02*
X102557619Y-90674761D01*
X102557619Y-90674761D02*
X102605238Y-90579523D01*
X102605238Y-90579523D02*
X102652857Y-90531904D01*
X102652857Y-90531904D02*
X102748095Y-90484285D01*
X102748095Y-90484285D02*
X102843333Y-90484285D01*
X102843333Y-90484285D02*
X102986190Y-90531904D01*
X102986190Y-90531904D02*
X103557619Y-91103332D01*
X103557619Y-91103332D02*
X103557619Y-90484285D01*
X103557619Y-96310238D02*
X103557619Y-96881666D01*
X103557619Y-96595952D02*
X102557619Y-96595952D01*
X102557619Y-96595952D02*
X102700476Y-96691190D01*
X102700476Y-96691190D02*
X102795714Y-96786428D01*
X102795714Y-96786428D02*
X102843333Y-96881666D01*
X102557619Y-95691190D02*
X102557619Y-95595952D01*
X102557619Y-95595952D02*
X102605238Y-95500714D01*
X102605238Y-95500714D02*
X102652857Y-95453095D01*
X102652857Y-95453095D02*
X102748095Y-95405476D01*
X102748095Y-95405476D02*
X102938571Y-95357857D01*
X102938571Y-95357857D02*
X103176666Y-95357857D01*
X103176666Y-95357857D02*
X103367142Y-95405476D01*
X103367142Y-95405476D02*
X103462380Y-95453095D01*
X103462380Y-95453095D02*
X103510000Y-95500714D01*
X103510000Y-95500714D02*
X103557619Y-95595952D01*
X103557619Y-95595952D02*
X103557619Y-95691190D01*
X103557619Y-95691190D02*
X103510000Y-95786428D01*
X103510000Y-95786428D02*
X103462380Y-95834047D01*
X103462380Y-95834047D02*
X103367142Y-95881666D01*
X103367142Y-95881666D02*
X103176666Y-95929285D01*
X103176666Y-95929285D02*
X102938571Y-95929285D01*
X102938571Y-95929285D02*
X102748095Y-95881666D01*
X102748095Y-95881666D02*
X102652857Y-95834047D01*
X102652857Y-95834047D02*
X102605238Y-95786428D01*
X102605238Y-95786428D02*
X102557619Y-95691190D01*
X103557619Y-94929285D02*
X102557619Y-94929285D01*
X103176666Y-94834047D02*
X103557619Y-94548333D01*
X102890952Y-94548333D02*
X103271904Y-94929285D01*
%TO.C,R5*%
X103557619Y-80006666D02*
X103081428Y-80339999D01*
X103557619Y-80578094D02*
X102557619Y-80578094D01*
X102557619Y-80578094D02*
X102557619Y-80197142D01*
X102557619Y-80197142D02*
X102605238Y-80101904D01*
X102605238Y-80101904D02*
X102652857Y-80054285D01*
X102652857Y-80054285D02*
X102748095Y-80006666D01*
X102748095Y-80006666D02*
X102890952Y-80006666D01*
X102890952Y-80006666D02*
X102986190Y-80054285D01*
X102986190Y-80054285D02*
X103033809Y-80101904D01*
X103033809Y-80101904D02*
X103081428Y-80197142D01*
X103081428Y-80197142D02*
X103081428Y-80578094D01*
X102557619Y-79101904D02*
X102557619Y-79578094D01*
X102557619Y-79578094D02*
X103033809Y-79625713D01*
X103033809Y-79625713D02*
X102986190Y-79578094D01*
X102986190Y-79578094D02*
X102938571Y-79482856D01*
X102938571Y-79482856D02*
X102938571Y-79244761D01*
X102938571Y-79244761D02*
X102986190Y-79149523D01*
X102986190Y-79149523D02*
X103033809Y-79101904D01*
X103033809Y-79101904D02*
X103129047Y-79054285D01*
X103129047Y-79054285D02*
X103367142Y-79054285D01*
X103367142Y-79054285D02*
X103462380Y-79101904D01*
X103462380Y-79101904D02*
X103510000Y-79149523D01*
X103510000Y-79149523D02*
X103557619Y-79244761D01*
X103557619Y-79244761D02*
X103557619Y-79482856D01*
X103557619Y-79482856D02*
X103510000Y-79578094D01*
X103510000Y-79578094D02*
X103462380Y-79625713D01*
X103542619Y-84880238D02*
X103542619Y-85451666D01*
X103542619Y-85165952D02*
X102542619Y-85165952D01*
X102542619Y-85165952D02*
X102685476Y-85261190D01*
X102685476Y-85261190D02*
X102780714Y-85356428D01*
X102780714Y-85356428D02*
X102828333Y-85451666D01*
X102542619Y-84261190D02*
X102542619Y-84165952D01*
X102542619Y-84165952D02*
X102590238Y-84070714D01*
X102590238Y-84070714D02*
X102637857Y-84023095D01*
X102637857Y-84023095D02*
X102733095Y-83975476D01*
X102733095Y-83975476D02*
X102923571Y-83927857D01*
X102923571Y-83927857D02*
X103161666Y-83927857D01*
X103161666Y-83927857D02*
X103352142Y-83975476D01*
X103352142Y-83975476D02*
X103447380Y-84023095D01*
X103447380Y-84023095D02*
X103495000Y-84070714D01*
X103495000Y-84070714D02*
X103542619Y-84165952D01*
X103542619Y-84165952D02*
X103542619Y-84261190D01*
X103542619Y-84261190D02*
X103495000Y-84356428D01*
X103495000Y-84356428D02*
X103447380Y-84404047D01*
X103447380Y-84404047D02*
X103352142Y-84451666D01*
X103352142Y-84451666D02*
X103161666Y-84499285D01*
X103161666Y-84499285D02*
X102923571Y-84499285D01*
X102923571Y-84499285D02*
X102733095Y-84451666D01*
X102733095Y-84451666D02*
X102637857Y-84404047D01*
X102637857Y-84404047D02*
X102590238Y-84356428D01*
X102590238Y-84356428D02*
X102542619Y-84261190D01*
X103542619Y-83499285D02*
X102542619Y-83499285D01*
X103161666Y-83404047D02*
X103542619Y-83118333D01*
X102875952Y-83118333D02*
X103256904Y-83499285D01*
%TO.C,J3*%
X75476189Y-98462619D02*
X75809522Y-99462619D01*
X75809522Y-99462619D02*
X76142855Y-98462619D01*
X76904760Y-99462619D02*
X76904760Y-98938809D01*
X76904760Y-98938809D02*
X76857141Y-98843571D01*
X76857141Y-98843571D02*
X76761903Y-98795952D01*
X76761903Y-98795952D02*
X76571427Y-98795952D01*
X76571427Y-98795952D02*
X76476189Y-98843571D01*
X76904760Y-99415000D02*
X76809522Y-99462619D01*
X76809522Y-99462619D02*
X76571427Y-99462619D01*
X76571427Y-99462619D02*
X76476189Y-99415000D01*
X76476189Y-99415000D02*
X76428570Y-99319761D01*
X76428570Y-99319761D02*
X76428570Y-99224523D01*
X76428570Y-99224523D02*
X76476189Y-99129285D01*
X76476189Y-99129285D02*
X76571427Y-99081666D01*
X76571427Y-99081666D02*
X76809522Y-99081666D01*
X76809522Y-99081666D02*
X76904760Y-99034047D01*
X77523808Y-99462619D02*
X77428570Y-99415000D01*
X77428570Y-99415000D02*
X77380951Y-99319761D01*
X77380951Y-99319761D02*
X77380951Y-98462619D01*
X77809523Y-98795952D02*
X78047618Y-99462619D01*
X78047618Y-99462619D02*
X78285713Y-98795952D01*
X79047618Y-99415000D02*
X78952380Y-99462619D01*
X78952380Y-99462619D02*
X78761904Y-99462619D01*
X78761904Y-99462619D02*
X78666666Y-99415000D01*
X78666666Y-99415000D02*
X78619047Y-99319761D01*
X78619047Y-99319761D02*
X78619047Y-98938809D01*
X78619047Y-98938809D02*
X78666666Y-98843571D01*
X78666666Y-98843571D02*
X78761904Y-98795952D01*
X78761904Y-98795952D02*
X78952380Y-98795952D01*
X78952380Y-98795952D02*
X79047618Y-98843571D01*
X79047618Y-98843571D02*
X79095237Y-98938809D01*
X79095237Y-98938809D02*
X79095237Y-99034047D01*
X79095237Y-99034047D02*
X78619047Y-99129285D01*
X80238095Y-99176904D02*
X80714285Y-99176904D01*
X80142857Y-99462619D02*
X80476190Y-98462619D01*
X80476190Y-98462619D02*
X80809523Y-99462619D01*
X81761905Y-98795952D02*
X82142857Y-98795952D01*
X81904762Y-98462619D02*
X81904762Y-99319761D01*
X81904762Y-99319761D02*
X81952381Y-99415000D01*
X81952381Y-99415000D02*
X82047619Y-99462619D01*
X82047619Y-99462619D02*
X82142857Y-99462619D01*
X82476191Y-99462619D02*
X82476191Y-98795952D01*
X82476191Y-98986428D02*
X82523810Y-98891190D01*
X82523810Y-98891190D02*
X82571429Y-98843571D01*
X82571429Y-98843571D02*
X82666667Y-98795952D01*
X82666667Y-98795952D02*
X82761905Y-98795952D01*
X83095239Y-99462619D02*
X83095239Y-98795952D01*
X83095239Y-98462619D02*
X83047620Y-98510238D01*
X83047620Y-98510238D02*
X83095239Y-98557857D01*
X83095239Y-98557857D02*
X83142858Y-98510238D01*
X83142858Y-98510238D02*
X83095239Y-98462619D01*
X83095239Y-98462619D02*
X83095239Y-98557857D01*
X84000000Y-98795952D02*
X84000000Y-99605476D01*
X84000000Y-99605476D02*
X83952381Y-99700714D01*
X83952381Y-99700714D02*
X83904762Y-99748333D01*
X83904762Y-99748333D02*
X83809524Y-99795952D01*
X83809524Y-99795952D02*
X83666667Y-99795952D01*
X83666667Y-99795952D02*
X83571429Y-99748333D01*
X84000000Y-99415000D02*
X83904762Y-99462619D01*
X83904762Y-99462619D02*
X83714286Y-99462619D01*
X83714286Y-99462619D02*
X83619048Y-99415000D01*
X83619048Y-99415000D02*
X83571429Y-99367380D01*
X83571429Y-99367380D02*
X83523810Y-99272142D01*
X83523810Y-99272142D02*
X83523810Y-98986428D01*
X83523810Y-98986428D02*
X83571429Y-98891190D01*
X83571429Y-98891190D02*
X83619048Y-98843571D01*
X83619048Y-98843571D02*
X83714286Y-98795952D01*
X83714286Y-98795952D02*
X83904762Y-98795952D01*
X83904762Y-98795952D02*
X84000000Y-98843571D01*
X84904762Y-98795952D02*
X84904762Y-99605476D01*
X84904762Y-99605476D02*
X84857143Y-99700714D01*
X84857143Y-99700714D02*
X84809524Y-99748333D01*
X84809524Y-99748333D02*
X84714286Y-99795952D01*
X84714286Y-99795952D02*
X84571429Y-99795952D01*
X84571429Y-99795952D02*
X84476191Y-99748333D01*
X84904762Y-99415000D02*
X84809524Y-99462619D01*
X84809524Y-99462619D02*
X84619048Y-99462619D01*
X84619048Y-99462619D02*
X84523810Y-99415000D01*
X84523810Y-99415000D02*
X84476191Y-99367380D01*
X84476191Y-99367380D02*
X84428572Y-99272142D01*
X84428572Y-99272142D02*
X84428572Y-98986428D01*
X84428572Y-98986428D02*
X84476191Y-98891190D01*
X84476191Y-98891190D02*
X84523810Y-98843571D01*
X84523810Y-98843571D02*
X84619048Y-98795952D01*
X84619048Y-98795952D02*
X84809524Y-98795952D01*
X84809524Y-98795952D02*
X84904762Y-98843571D01*
X85761905Y-99415000D02*
X85666667Y-99462619D01*
X85666667Y-99462619D02*
X85476191Y-99462619D01*
X85476191Y-99462619D02*
X85380953Y-99415000D01*
X85380953Y-99415000D02*
X85333334Y-99319761D01*
X85333334Y-99319761D02*
X85333334Y-98938809D01*
X85333334Y-98938809D02*
X85380953Y-98843571D01*
X85380953Y-98843571D02*
X85476191Y-98795952D01*
X85476191Y-98795952D02*
X85666667Y-98795952D01*
X85666667Y-98795952D02*
X85761905Y-98843571D01*
X85761905Y-98843571D02*
X85809524Y-98938809D01*
X85809524Y-98938809D02*
X85809524Y-99034047D01*
X85809524Y-99034047D02*
X85333334Y-99129285D01*
X86238096Y-99462619D02*
X86238096Y-98795952D01*
X86238096Y-98986428D02*
X86285715Y-98891190D01*
X86285715Y-98891190D02*
X86333334Y-98843571D01*
X86333334Y-98843571D02*
X86428572Y-98795952D01*
X86428572Y-98795952D02*
X86523810Y-98795952D01*
%TO.C,J6*%
X63404761Y-98462619D02*
X63738094Y-99462619D01*
X63738094Y-99462619D02*
X64071427Y-98462619D01*
X64833332Y-99462619D02*
X64833332Y-98938809D01*
X64833332Y-98938809D02*
X64785713Y-98843571D01*
X64785713Y-98843571D02*
X64690475Y-98795952D01*
X64690475Y-98795952D02*
X64499999Y-98795952D01*
X64499999Y-98795952D02*
X64404761Y-98843571D01*
X64833332Y-99415000D02*
X64738094Y-99462619D01*
X64738094Y-99462619D02*
X64499999Y-99462619D01*
X64499999Y-99462619D02*
X64404761Y-99415000D01*
X64404761Y-99415000D02*
X64357142Y-99319761D01*
X64357142Y-99319761D02*
X64357142Y-99224523D01*
X64357142Y-99224523D02*
X64404761Y-99129285D01*
X64404761Y-99129285D02*
X64499999Y-99081666D01*
X64499999Y-99081666D02*
X64738094Y-99081666D01*
X64738094Y-99081666D02*
X64833332Y-99034047D01*
X65452380Y-99462619D02*
X65357142Y-99415000D01*
X65357142Y-99415000D02*
X65309523Y-99319761D01*
X65309523Y-99319761D02*
X65309523Y-98462619D01*
X65738095Y-98795952D02*
X65976190Y-99462619D01*
X65976190Y-99462619D02*
X66214285Y-98795952D01*
X66976190Y-99415000D02*
X66880952Y-99462619D01*
X66880952Y-99462619D02*
X66690476Y-99462619D01*
X66690476Y-99462619D02*
X66595238Y-99415000D01*
X66595238Y-99415000D02*
X66547619Y-99319761D01*
X66547619Y-99319761D02*
X66547619Y-98938809D01*
X66547619Y-98938809D02*
X66595238Y-98843571D01*
X66595238Y-98843571D02*
X66690476Y-98795952D01*
X66690476Y-98795952D02*
X66880952Y-98795952D01*
X66880952Y-98795952D02*
X66976190Y-98843571D01*
X66976190Y-98843571D02*
X67023809Y-98938809D01*
X67023809Y-98938809D02*
X67023809Y-99034047D01*
X67023809Y-99034047D02*
X66547619Y-99129285D01*
X68547619Y-98938809D02*
X68690476Y-98986428D01*
X68690476Y-98986428D02*
X68738095Y-99034047D01*
X68738095Y-99034047D02*
X68785714Y-99129285D01*
X68785714Y-99129285D02*
X68785714Y-99272142D01*
X68785714Y-99272142D02*
X68738095Y-99367380D01*
X68738095Y-99367380D02*
X68690476Y-99415000D01*
X68690476Y-99415000D02*
X68595238Y-99462619D01*
X68595238Y-99462619D02*
X68214286Y-99462619D01*
X68214286Y-99462619D02*
X68214286Y-98462619D01*
X68214286Y-98462619D02*
X68547619Y-98462619D01*
X68547619Y-98462619D02*
X68642857Y-98510238D01*
X68642857Y-98510238D02*
X68690476Y-98557857D01*
X68690476Y-98557857D02*
X68738095Y-98653095D01*
X68738095Y-98653095D02*
X68738095Y-98748333D01*
X68738095Y-98748333D02*
X68690476Y-98843571D01*
X68690476Y-98843571D02*
X68642857Y-98891190D01*
X68642857Y-98891190D02*
X68547619Y-98938809D01*
X68547619Y-98938809D02*
X68214286Y-98938809D01*
X69833334Y-98795952D02*
X70214286Y-98795952D01*
X69976191Y-98462619D02*
X69976191Y-99319761D01*
X69976191Y-99319761D02*
X70023810Y-99415000D01*
X70023810Y-99415000D02*
X70119048Y-99462619D01*
X70119048Y-99462619D02*
X70214286Y-99462619D01*
X70547620Y-99462619D02*
X70547620Y-98795952D01*
X70547620Y-98986428D02*
X70595239Y-98891190D01*
X70595239Y-98891190D02*
X70642858Y-98843571D01*
X70642858Y-98843571D02*
X70738096Y-98795952D01*
X70738096Y-98795952D02*
X70833334Y-98795952D01*
X71166668Y-99462619D02*
X71166668Y-98795952D01*
X71166668Y-98462619D02*
X71119049Y-98510238D01*
X71119049Y-98510238D02*
X71166668Y-98557857D01*
X71166668Y-98557857D02*
X71214287Y-98510238D01*
X71214287Y-98510238D02*
X71166668Y-98462619D01*
X71166668Y-98462619D02*
X71166668Y-98557857D01*
X72071429Y-98795952D02*
X72071429Y-99605476D01*
X72071429Y-99605476D02*
X72023810Y-99700714D01*
X72023810Y-99700714D02*
X71976191Y-99748333D01*
X71976191Y-99748333D02*
X71880953Y-99795952D01*
X71880953Y-99795952D02*
X71738096Y-99795952D01*
X71738096Y-99795952D02*
X71642858Y-99748333D01*
X72071429Y-99415000D02*
X71976191Y-99462619D01*
X71976191Y-99462619D02*
X71785715Y-99462619D01*
X71785715Y-99462619D02*
X71690477Y-99415000D01*
X71690477Y-99415000D02*
X71642858Y-99367380D01*
X71642858Y-99367380D02*
X71595239Y-99272142D01*
X71595239Y-99272142D02*
X71595239Y-98986428D01*
X71595239Y-98986428D02*
X71642858Y-98891190D01*
X71642858Y-98891190D02*
X71690477Y-98843571D01*
X71690477Y-98843571D02*
X71785715Y-98795952D01*
X71785715Y-98795952D02*
X71976191Y-98795952D01*
X71976191Y-98795952D02*
X72071429Y-98843571D01*
X72976191Y-98795952D02*
X72976191Y-99605476D01*
X72976191Y-99605476D02*
X72928572Y-99700714D01*
X72928572Y-99700714D02*
X72880953Y-99748333D01*
X72880953Y-99748333D02*
X72785715Y-99795952D01*
X72785715Y-99795952D02*
X72642858Y-99795952D01*
X72642858Y-99795952D02*
X72547620Y-99748333D01*
X72976191Y-99415000D02*
X72880953Y-99462619D01*
X72880953Y-99462619D02*
X72690477Y-99462619D01*
X72690477Y-99462619D02*
X72595239Y-99415000D01*
X72595239Y-99415000D02*
X72547620Y-99367380D01*
X72547620Y-99367380D02*
X72500001Y-99272142D01*
X72500001Y-99272142D02*
X72500001Y-98986428D01*
X72500001Y-98986428D02*
X72547620Y-98891190D01*
X72547620Y-98891190D02*
X72595239Y-98843571D01*
X72595239Y-98843571D02*
X72690477Y-98795952D01*
X72690477Y-98795952D02*
X72880953Y-98795952D01*
X72880953Y-98795952D02*
X72976191Y-98843571D01*
X73833334Y-99415000D02*
X73738096Y-99462619D01*
X73738096Y-99462619D02*
X73547620Y-99462619D01*
X73547620Y-99462619D02*
X73452382Y-99415000D01*
X73452382Y-99415000D02*
X73404763Y-99319761D01*
X73404763Y-99319761D02*
X73404763Y-98938809D01*
X73404763Y-98938809D02*
X73452382Y-98843571D01*
X73452382Y-98843571D02*
X73547620Y-98795952D01*
X73547620Y-98795952D02*
X73738096Y-98795952D01*
X73738096Y-98795952D02*
X73833334Y-98843571D01*
X73833334Y-98843571D02*
X73880953Y-98938809D01*
X73880953Y-98938809D02*
X73880953Y-99034047D01*
X73880953Y-99034047D02*
X73404763Y-99129285D01*
X74309525Y-99462619D02*
X74309525Y-98795952D01*
X74309525Y-98986428D02*
X74357144Y-98891190D01*
X74357144Y-98891190D02*
X74404763Y-98843571D01*
X74404763Y-98843571D02*
X74500001Y-98795952D01*
X74500001Y-98795952D02*
X74595239Y-98795952D01*
%TO.C,R1*%
X88333333Y-83867619D02*
X88000000Y-83391428D01*
X87761905Y-83867619D02*
X87761905Y-82867619D01*
X87761905Y-82867619D02*
X88142857Y-82867619D01*
X88142857Y-82867619D02*
X88238095Y-82915238D01*
X88238095Y-82915238D02*
X88285714Y-82962857D01*
X88285714Y-82962857D02*
X88333333Y-83058095D01*
X88333333Y-83058095D02*
X88333333Y-83200952D01*
X88333333Y-83200952D02*
X88285714Y-83296190D01*
X88285714Y-83296190D02*
X88238095Y-83343809D01*
X88238095Y-83343809D02*
X88142857Y-83391428D01*
X88142857Y-83391428D02*
X87761905Y-83391428D01*
X89285714Y-83867619D02*
X88714286Y-83867619D01*
X89000000Y-83867619D02*
X89000000Y-82867619D01*
X89000000Y-82867619D02*
X88904762Y-83010476D01*
X88904762Y-83010476D02*
X88809524Y-83105714D01*
X88809524Y-83105714D02*
X88714286Y-83153333D01*
X94738095Y-83215952D02*
X94738095Y-83882619D01*
X94500000Y-82835000D02*
X94261905Y-83549285D01*
X94261905Y-83549285D02*
X94880952Y-83549285D01*
X95166667Y-82882619D02*
X95833333Y-82882619D01*
X95833333Y-82882619D02*
X95404762Y-83882619D01*
X96404762Y-82882619D02*
X96500000Y-82882619D01*
X96500000Y-82882619D02*
X96595238Y-82930238D01*
X96595238Y-82930238D02*
X96642857Y-82977857D01*
X96642857Y-82977857D02*
X96690476Y-83073095D01*
X96690476Y-83073095D02*
X96738095Y-83263571D01*
X96738095Y-83263571D02*
X96738095Y-83501666D01*
X96738095Y-83501666D02*
X96690476Y-83692142D01*
X96690476Y-83692142D02*
X96642857Y-83787380D01*
X96642857Y-83787380D02*
X96595238Y-83835000D01*
X96595238Y-83835000D02*
X96500000Y-83882619D01*
X96500000Y-83882619D02*
X96404762Y-83882619D01*
X96404762Y-83882619D02*
X96309524Y-83835000D01*
X96309524Y-83835000D02*
X96261905Y-83787380D01*
X96261905Y-83787380D02*
X96214286Y-83692142D01*
X96214286Y-83692142D02*
X96166667Y-83501666D01*
X96166667Y-83501666D02*
X96166667Y-83263571D01*
X96166667Y-83263571D02*
X96214286Y-83073095D01*
X96214286Y-83073095D02*
X96261905Y-82977857D01*
X96261905Y-82977857D02*
X96309524Y-82930238D01*
X96309524Y-82930238D02*
X96404762Y-82882619D01*
%TO.C,A1*%
X114221905Y-66187619D02*
X114221905Y-65187619D01*
X114221905Y-65187619D02*
X114460000Y-65187619D01*
X114460000Y-65187619D02*
X114602857Y-65235238D01*
X114602857Y-65235238D02*
X114698095Y-65330476D01*
X114698095Y-65330476D02*
X114745714Y-65425714D01*
X114745714Y-65425714D02*
X114793333Y-65616190D01*
X114793333Y-65616190D02*
X114793333Y-65759047D01*
X114793333Y-65759047D02*
X114745714Y-65949523D01*
X114745714Y-65949523D02*
X114698095Y-66044761D01*
X114698095Y-66044761D02*
X114602857Y-66140000D01*
X114602857Y-66140000D02*
X114460000Y-66187619D01*
X114460000Y-66187619D02*
X114221905Y-66187619D01*
X115412381Y-65187619D02*
X115507619Y-65187619D01*
X115507619Y-65187619D02*
X115602857Y-65235238D01*
X115602857Y-65235238D02*
X115650476Y-65282857D01*
X115650476Y-65282857D02*
X115698095Y-65378095D01*
X115698095Y-65378095D02*
X115745714Y-65568571D01*
X115745714Y-65568571D02*
X115745714Y-65806666D01*
X115745714Y-65806666D02*
X115698095Y-65997142D01*
X115698095Y-65997142D02*
X115650476Y-66092380D01*
X115650476Y-66092380D02*
X115602857Y-66140000D01*
X115602857Y-66140000D02*
X115507619Y-66187619D01*
X115507619Y-66187619D02*
X115412381Y-66187619D01*
X115412381Y-66187619D02*
X115317143Y-66140000D01*
X115317143Y-66140000D02*
X115269524Y-66092380D01*
X115269524Y-66092380D02*
X115221905Y-65997142D01*
X115221905Y-65997142D02*
X115174286Y-65806666D01*
X115174286Y-65806666D02*
X115174286Y-65568571D01*
X115174286Y-65568571D02*
X115221905Y-65378095D01*
X115221905Y-65378095D02*
X115269524Y-65282857D01*
X115269524Y-65282857D02*
X115317143Y-65235238D01*
X115317143Y-65235238D02*
X115412381Y-65187619D01*
X113944000Y-82983380D02*
X113991619Y-83031000D01*
X113991619Y-83031000D02*
X113944000Y-83078619D01*
X113944000Y-83078619D02*
X113896381Y-83031000D01*
X113896381Y-83031000D02*
X113944000Y-82983380D01*
X113944000Y-82983380D02*
X113944000Y-83078619D01*
%TO.C,R4*%
X88333333Y-80057619D02*
X88000000Y-79581428D01*
X87761905Y-80057619D02*
X87761905Y-79057619D01*
X87761905Y-79057619D02*
X88142857Y-79057619D01*
X88142857Y-79057619D02*
X88238095Y-79105238D01*
X88238095Y-79105238D02*
X88285714Y-79152857D01*
X88285714Y-79152857D02*
X88333333Y-79248095D01*
X88333333Y-79248095D02*
X88333333Y-79390952D01*
X88333333Y-79390952D02*
X88285714Y-79486190D01*
X88285714Y-79486190D02*
X88238095Y-79533809D01*
X88238095Y-79533809D02*
X88142857Y-79581428D01*
X88142857Y-79581428D02*
X87761905Y-79581428D01*
X89190476Y-79390952D02*
X89190476Y-80057619D01*
X88952381Y-79010000D02*
X88714286Y-79724285D01*
X88714286Y-79724285D02*
X89333333Y-79724285D01*
X94738095Y-79390952D02*
X94738095Y-80057619D01*
X94500000Y-79010000D02*
X94261905Y-79724285D01*
X94261905Y-79724285D02*
X94880952Y-79724285D01*
X95166667Y-79057619D02*
X95833333Y-79057619D01*
X95833333Y-79057619D02*
X95404762Y-80057619D01*
X96404762Y-79057619D02*
X96500000Y-79057619D01*
X96500000Y-79057619D02*
X96595238Y-79105238D01*
X96595238Y-79105238D02*
X96642857Y-79152857D01*
X96642857Y-79152857D02*
X96690476Y-79248095D01*
X96690476Y-79248095D02*
X96738095Y-79438571D01*
X96738095Y-79438571D02*
X96738095Y-79676666D01*
X96738095Y-79676666D02*
X96690476Y-79867142D01*
X96690476Y-79867142D02*
X96642857Y-79962380D01*
X96642857Y-79962380D02*
X96595238Y-80010000D01*
X96595238Y-80010000D02*
X96500000Y-80057619D01*
X96500000Y-80057619D02*
X96404762Y-80057619D01*
X96404762Y-80057619D02*
X96309524Y-80010000D01*
X96309524Y-80010000D02*
X96261905Y-79962380D01*
X96261905Y-79962380D02*
X96214286Y-79867142D01*
X96214286Y-79867142D02*
X96166667Y-79676666D01*
X96166667Y-79676666D02*
X96166667Y-79438571D01*
X96166667Y-79438571D02*
X96214286Y-79248095D01*
X96214286Y-79248095D02*
X96261905Y-79152857D01*
X96261905Y-79152857D02*
X96309524Y-79105238D01*
X96309524Y-79105238D02*
X96404762Y-79057619D01*
%TO.C,J8*%
X101249999Y-100305119D02*
X101583332Y-101305119D01*
X101583332Y-101305119D02*
X101916665Y-100305119D01*
X102678570Y-101305119D02*
X102678570Y-100781309D01*
X102678570Y-100781309D02*
X102630951Y-100686071D01*
X102630951Y-100686071D02*
X102535713Y-100638452D01*
X102535713Y-100638452D02*
X102345237Y-100638452D01*
X102345237Y-100638452D02*
X102249999Y-100686071D01*
X102678570Y-101257500D02*
X102583332Y-101305119D01*
X102583332Y-101305119D02*
X102345237Y-101305119D01*
X102345237Y-101305119D02*
X102249999Y-101257500D01*
X102249999Y-101257500D02*
X102202380Y-101162261D01*
X102202380Y-101162261D02*
X102202380Y-101067023D01*
X102202380Y-101067023D02*
X102249999Y-100971785D01*
X102249999Y-100971785D02*
X102345237Y-100924166D01*
X102345237Y-100924166D02*
X102583332Y-100924166D01*
X102583332Y-100924166D02*
X102678570Y-100876547D01*
X103297618Y-101305119D02*
X103202380Y-101257500D01*
X103202380Y-101257500D02*
X103154761Y-101162261D01*
X103154761Y-101162261D02*
X103154761Y-100305119D01*
X103583333Y-100638452D02*
X103821428Y-101305119D01*
X103821428Y-101305119D02*
X104059523Y-100638452D01*
X104821428Y-101257500D02*
X104726190Y-101305119D01*
X104726190Y-101305119D02*
X104535714Y-101305119D01*
X104535714Y-101305119D02*
X104440476Y-101257500D01*
X104440476Y-101257500D02*
X104392857Y-101162261D01*
X104392857Y-101162261D02*
X104392857Y-100781309D01*
X104392857Y-100781309D02*
X104440476Y-100686071D01*
X104440476Y-100686071D02*
X104535714Y-100638452D01*
X104535714Y-100638452D02*
X104726190Y-100638452D01*
X104726190Y-100638452D02*
X104821428Y-100686071D01*
X104821428Y-100686071D02*
X104869047Y-100781309D01*
X104869047Y-100781309D02*
X104869047Y-100876547D01*
X104869047Y-100876547D02*
X104392857Y-100971785D01*
X106392857Y-100781309D02*
X106535714Y-100828928D01*
X106535714Y-100828928D02*
X106583333Y-100876547D01*
X106583333Y-100876547D02*
X106630952Y-100971785D01*
X106630952Y-100971785D02*
X106630952Y-101114642D01*
X106630952Y-101114642D02*
X106583333Y-101209880D01*
X106583333Y-101209880D02*
X106535714Y-101257500D01*
X106535714Y-101257500D02*
X106440476Y-101305119D01*
X106440476Y-101305119D02*
X106059524Y-101305119D01*
X106059524Y-101305119D02*
X106059524Y-100305119D01*
X106059524Y-100305119D02*
X106392857Y-100305119D01*
X106392857Y-100305119D02*
X106488095Y-100352738D01*
X106488095Y-100352738D02*
X106535714Y-100400357D01*
X106535714Y-100400357D02*
X106583333Y-100495595D01*
X106583333Y-100495595D02*
X106583333Y-100590833D01*
X106583333Y-100590833D02*
X106535714Y-100686071D01*
X106535714Y-100686071D02*
X106488095Y-100733690D01*
X106488095Y-100733690D02*
X106392857Y-100781309D01*
X106392857Y-100781309D02*
X106059524Y-100781309D01*
X107964286Y-101305119D02*
X107869048Y-101257500D01*
X107869048Y-101257500D02*
X107821429Y-101209880D01*
X107821429Y-101209880D02*
X107773810Y-101114642D01*
X107773810Y-101114642D02*
X107773810Y-100828928D01*
X107773810Y-100828928D02*
X107821429Y-100733690D01*
X107821429Y-100733690D02*
X107869048Y-100686071D01*
X107869048Y-100686071D02*
X107964286Y-100638452D01*
X107964286Y-100638452D02*
X108107143Y-100638452D01*
X108107143Y-100638452D02*
X108202381Y-100686071D01*
X108202381Y-100686071D02*
X108250000Y-100733690D01*
X108250000Y-100733690D02*
X108297619Y-100828928D01*
X108297619Y-100828928D02*
X108297619Y-101114642D01*
X108297619Y-101114642D02*
X108250000Y-101209880D01*
X108250000Y-101209880D02*
X108202381Y-101257500D01*
X108202381Y-101257500D02*
X108107143Y-101305119D01*
X108107143Y-101305119D02*
X107964286Y-101305119D01*
X109154762Y-100638452D02*
X109154762Y-101305119D01*
X108726191Y-100638452D02*
X108726191Y-101162261D01*
X108726191Y-101162261D02*
X108773810Y-101257500D01*
X108773810Y-101257500D02*
X108869048Y-101305119D01*
X108869048Y-101305119D02*
X109011905Y-101305119D01*
X109011905Y-101305119D02*
X109107143Y-101257500D01*
X109107143Y-101257500D02*
X109154762Y-101209880D01*
X109488096Y-100638452D02*
X109869048Y-100638452D01*
X109630953Y-100305119D02*
X109630953Y-101162261D01*
X109630953Y-101162261D02*
X109678572Y-101257500D01*
X109678572Y-101257500D02*
X109773810Y-101305119D01*
X109773810Y-101305119D02*
X109869048Y-101305119D01*
X110202382Y-100638452D02*
X110202382Y-101638452D01*
X110202382Y-100686071D02*
X110297620Y-100638452D01*
X110297620Y-100638452D02*
X110488096Y-100638452D01*
X110488096Y-100638452D02*
X110583334Y-100686071D01*
X110583334Y-100686071D02*
X110630953Y-100733690D01*
X110630953Y-100733690D02*
X110678572Y-100828928D01*
X110678572Y-100828928D02*
X110678572Y-101114642D01*
X110678572Y-101114642D02*
X110630953Y-101209880D01*
X110630953Y-101209880D02*
X110583334Y-101257500D01*
X110583334Y-101257500D02*
X110488096Y-101305119D01*
X110488096Y-101305119D02*
X110297620Y-101305119D01*
X110297620Y-101305119D02*
X110202382Y-101257500D01*
X111535715Y-100638452D02*
X111535715Y-101305119D01*
X111107144Y-100638452D02*
X111107144Y-101162261D01*
X111107144Y-101162261D02*
X111154763Y-101257500D01*
X111154763Y-101257500D02*
X111250001Y-101305119D01*
X111250001Y-101305119D02*
X111392858Y-101305119D01*
X111392858Y-101305119D02*
X111488096Y-101257500D01*
X111488096Y-101257500D02*
X111535715Y-101209880D01*
X111869049Y-100638452D02*
X112250001Y-100638452D01*
X112011906Y-100305119D02*
X112011906Y-101162261D01*
X112011906Y-101162261D02*
X112059525Y-101257500D01*
X112059525Y-101257500D02*
X112154763Y-101305119D01*
X112154763Y-101305119D02*
X112250001Y-101305119D01*
%TO.C,Q2*%
X90102857Y-87648809D02*
X90245714Y-87696428D01*
X90245714Y-87696428D02*
X90293333Y-87744047D01*
X90293333Y-87744047D02*
X90340952Y-87839285D01*
X90340952Y-87839285D02*
X90340952Y-87982142D01*
X90340952Y-87982142D02*
X90293333Y-88077380D01*
X90293333Y-88077380D02*
X90245714Y-88125000D01*
X90245714Y-88125000D02*
X90150476Y-88172619D01*
X90150476Y-88172619D02*
X89769524Y-88172619D01*
X89769524Y-88172619D02*
X89769524Y-87172619D01*
X89769524Y-87172619D02*
X90102857Y-87172619D01*
X90102857Y-87172619D02*
X90198095Y-87220238D01*
X90198095Y-87220238D02*
X90245714Y-87267857D01*
X90245714Y-87267857D02*
X90293333Y-87363095D01*
X90293333Y-87363095D02*
X90293333Y-87458333D01*
X90293333Y-87458333D02*
X90245714Y-87553571D01*
X90245714Y-87553571D02*
X90198095Y-87601190D01*
X90198095Y-87601190D02*
X90102857Y-87648809D01*
X90102857Y-87648809D02*
X89769524Y-87648809D01*
X91340952Y-88077380D02*
X91293333Y-88125000D01*
X91293333Y-88125000D02*
X91150476Y-88172619D01*
X91150476Y-88172619D02*
X91055238Y-88172619D01*
X91055238Y-88172619D02*
X90912381Y-88125000D01*
X90912381Y-88125000D02*
X90817143Y-88029761D01*
X90817143Y-88029761D02*
X90769524Y-87934523D01*
X90769524Y-87934523D02*
X90721905Y-87744047D01*
X90721905Y-87744047D02*
X90721905Y-87601190D01*
X90721905Y-87601190D02*
X90769524Y-87410714D01*
X90769524Y-87410714D02*
X90817143Y-87315476D01*
X90817143Y-87315476D02*
X90912381Y-87220238D01*
X90912381Y-87220238D02*
X91055238Y-87172619D01*
X91055238Y-87172619D02*
X91150476Y-87172619D01*
X91150476Y-87172619D02*
X91293333Y-87220238D01*
X91293333Y-87220238D02*
X91340952Y-87267857D01*
X92245714Y-87172619D02*
X91769524Y-87172619D01*
X91769524Y-87172619D02*
X91721905Y-87648809D01*
X91721905Y-87648809D02*
X91769524Y-87601190D01*
X91769524Y-87601190D02*
X91864762Y-87553571D01*
X91864762Y-87553571D02*
X92102857Y-87553571D01*
X92102857Y-87553571D02*
X92198095Y-87601190D01*
X92198095Y-87601190D02*
X92245714Y-87648809D01*
X92245714Y-87648809D02*
X92293333Y-87744047D01*
X92293333Y-87744047D02*
X92293333Y-87982142D01*
X92293333Y-87982142D02*
X92245714Y-88077380D01*
X92245714Y-88077380D02*
X92198095Y-88125000D01*
X92198095Y-88125000D02*
X92102857Y-88172619D01*
X92102857Y-88172619D02*
X91864762Y-88172619D01*
X91864762Y-88172619D02*
X91769524Y-88125000D01*
X91769524Y-88125000D02*
X91721905Y-88077380D01*
X93198095Y-87172619D02*
X92721905Y-87172619D01*
X92721905Y-87172619D02*
X92674286Y-87648809D01*
X92674286Y-87648809D02*
X92721905Y-87601190D01*
X92721905Y-87601190D02*
X92817143Y-87553571D01*
X92817143Y-87553571D02*
X93055238Y-87553571D01*
X93055238Y-87553571D02*
X93150476Y-87601190D01*
X93150476Y-87601190D02*
X93198095Y-87648809D01*
X93198095Y-87648809D02*
X93245714Y-87744047D01*
X93245714Y-87744047D02*
X93245714Y-87982142D01*
X93245714Y-87982142D02*
X93198095Y-88077380D01*
X93198095Y-88077380D02*
X93150476Y-88125000D01*
X93150476Y-88125000D02*
X93055238Y-88172619D01*
X93055238Y-88172619D02*
X92817143Y-88172619D01*
X92817143Y-88172619D02*
X92721905Y-88125000D01*
X92721905Y-88125000D02*
X92674286Y-88077380D01*
X94102857Y-87172619D02*
X93912381Y-87172619D01*
X93912381Y-87172619D02*
X93817143Y-87220238D01*
X93817143Y-87220238D02*
X93769524Y-87267857D01*
X93769524Y-87267857D02*
X93674286Y-87410714D01*
X93674286Y-87410714D02*
X93626667Y-87601190D01*
X93626667Y-87601190D02*
X93626667Y-87982142D01*
X93626667Y-87982142D02*
X93674286Y-88077380D01*
X93674286Y-88077380D02*
X93721905Y-88125000D01*
X93721905Y-88125000D02*
X93817143Y-88172619D01*
X93817143Y-88172619D02*
X94007619Y-88172619D01*
X94007619Y-88172619D02*
X94102857Y-88125000D01*
X94102857Y-88125000D02*
X94150476Y-88077380D01*
X94150476Y-88077380D02*
X94198095Y-87982142D01*
X94198095Y-87982142D02*
X94198095Y-87744047D01*
X94198095Y-87744047D02*
X94150476Y-87648809D01*
X94150476Y-87648809D02*
X94102857Y-87601190D01*
X94102857Y-87601190D02*
X94007619Y-87553571D01*
X94007619Y-87553571D02*
X93817143Y-87553571D01*
X93817143Y-87553571D02*
X93721905Y-87601190D01*
X93721905Y-87601190D02*
X93674286Y-87648809D01*
X93674286Y-87648809D02*
X93626667Y-87744047D01*
%TO.C,U1*%
X85755119Y-71927619D02*
X85755119Y-72403809D01*
X85755119Y-72403809D02*
X84755119Y-72403809D01*
X84755119Y-71737142D02*
X84755119Y-71165714D01*
X85755119Y-71451428D02*
X84755119Y-71451428D01*
X84755119Y-70975237D02*
X85755119Y-70641904D01*
X85755119Y-70641904D02*
X84755119Y-70308571D01*
X85374166Y-69975237D02*
X85374166Y-69213333D01*
X85183690Y-68594285D02*
X85136071Y-68689523D01*
X85136071Y-68689523D02*
X85088452Y-68737142D01*
X85088452Y-68737142D02*
X84993214Y-68784761D01*
X84993214Y-68784761D02*
X84945595Y-68784761D01*
X84945595Y-68784761D02*
X84850357Y-68737142D01*
X84850357Y-68737142D02*
X84802738Y-68689523D01*
X84802738Y-68689523D02*
X84755119Y-68594285D01*
X84755119Y-68594285D02*
X84755119Y-68403809D01*
X84755119Y-68403809D02*
X84802738Y-68308571D01*
X84802738Y-68308571D02*
X84850357Y-68260952D01*
X84850357Y-68260952D02*
X84945595Y-68213333D01*
X84945595Y-68213333D02*
X84993214Y-68213333D01*
X84993214Y-68213333D02*
X85088452Y-68260952D01*
X85088452Y-68260952D02*
X85136071Y-68308571D01*
X85136071Y-68308571D02*
X85183690Y-68403809D01*
X85183690Y-68403809D02*
X85183690Y-68594285D01*
X85183690Y-68594285D02*
X85231309Y-68689523D01*
X85231309Y-68689523D02*
X85278928Y-68737142D01*
X85278928Y-68737142D02*
X85374166Y-68784761D01*
X85374166Y-68784761D02*
X85564642Y-68784761D01*
X85564642Y-68784761D02*
X85659880Y-68737142D01*
X85659880Y-68737142D02*
X85707500Y-68689523D01*
X85707500Y-68689523D02*
X85755119Y-68594285D01*
X85755119Y-68594285D02*
X85755119Y-68403809D01*
X85755119Y-68403809D02*
X85707500Y-68308571D01*
X85707500Y-68308571D02*
X85659880Y-68260952D01*
X85659880Y-68260952D02*
X85564642Y-68213333D01*
X85564642Y-68213333D02*
X85374166Y-68213333D01*
X85374166Y-68213333D02*
X85278928Y-68260952D01*
X85278928Y-68260952D02*
X85231309Y-68308571D01*
X85231309Y-68308571D02*
X85183690Y-68403809D01*
X85755119Y-67260952D02*
X85755119Y-67832380D01*
X85755119Y-67546666D02*
X84755119Y-67546666D01*
X84755119Y-67546666D02*
X84897976Y-67641904D01*
X84897976Y-67641904D02*
X84993214Y-67737142D01*
X84993214Y-67737142D02*
X85040833Y-67832380D01*
X84755119Y-66927618D02*
X84755119Y-66260952D01*
X84755119Y-66260952D02*
X85755119Y-66689523D01*
%TO.C,R3*%
X99112619Y-91436666D02*
X98636428Y-91769999D01*
X99112619Y-92008094D02*
X98112619Y-92008094D01*
X98112619Y-92008094D02*
X98112619Y-91627142D01*
X98112619Y-91627142D02*
X98160238Y-91531904D01*
X98160238Y-91531904D02*
X98207857Y-91484285D01*
X98207857Y-91484285D02*
X98303095Y-91436666D01*
X98303095Y-91436666D02*
X98445952Y-91436666D01*
X98445952Y-91436666D02*
X98541190Y-91484285D01*
X98541190Y-91484285D02*
X98588809Y-91531904D01*
X98588809Y-91531904D02*
X98636428Y-91627142D01*
X98636428Y-91627142D02*
X98636428Y-92008094D01*
X98112619Y-91103332D02*
X98112619Y-90484285D01*
X98112619Y-90484285D02*
X98493571Y-90817618D01*
X98493571Y-90817618D02*
X98493571Y-90674761D01*
X98493571Y-90674761D02*
X98541190Y-90579523D01*
X98541190Y-90579523D02*
X98588809Y-90531904D01*
X98588809Y-90531904D02*
X98684047Y-90484285D01*
X98684047Y-90484285D02*
X98922142Y-90484285D01*
X98922142Y-90484285D02*
X99017380Y-90531904D01*
X99017380Y-90531904D02*
X99065000Y-90579523D01*
X99065000Y-90579523D02*
X99112619Y-90674761D01*
X99112619Y-90674761D02*
X99112619Y-90960475D01*
X99112619Y-90960475D02*
X99065000Y-91055713D01*
X99065000Y-91055713D02*
X99017380Y-91103332D01*
X99097619Y-96310238D02*
X99097619Y-96881666D01*
X99097619Y-96595952D02*
X98097619Y-96595952D01*
X98097619Y-96595952D02*
X98240476Y-96691190D01*
X98240476Y-96691190D02*
X98335714Y-96786428D01*
X98335714Y-96786428D02*
X98383333Y-96881666D01*
X98097619Y-95691190D02*
X98097619Y-95595952D01*
X98097619Y-95595952D02*
X98145238Y-95500714D01*
X98145238Y-95500714D02*
X98192857Y-95453095D01*
X98192857Y-95453095D02*
X98288095Y-95405476D01*
X98288095Y-95405476D02*
X98478571Y-95357857D01*
X98478571Y-95357857D02*
X98716666Y-95357857D01*
X98716666Y-95357857D02*
X98907142Y-95405476D01*
X98907142Y-95405476D02*
X99002380Y-95453095D01*
X99002380Y-95453095D02*
X99050000Y-95500714D01*
X99050000Y-95500714D02*
X99097619Y-95595952D01*
X99097619Y-95595952D02*
X99097619Y-95691190D01*
X99097619Y-95691190D02*
X99050000Y-95786428D01*
X99050000Y-95786428D02*
X99002380Y-95834047D01*
X99002380Y-95834047D02*
X98907142Y-95881666D01*
X98907142Y-95881666D02*
X98716666Y-95929285D01*
X98716666Y-95929285D02*
X98478571Y-95929285D01*
X98478571Y-95929285D02*
X98288095Y-95881666D01*
X98288095Y-95881666D02*
X98192857Y-95834047D01*
X98192857Y-95834047D02*
X98145238Y-95786428D01*
X98145238Y-95786428D02*
X98097619Y-95691190D01*
X99097619Y-94929285D02*
X98097619Y-94929285D01*
X98716666Y-94834047D02*
X99097619Y-94548333D01*
X98430952Y-94548333D02*
X98811904Y-94929285D01*
%TO.C,U2*%
X85755119Y-78967619D02*
X85755119Y-79443809D01*
X85755119Y-79443809D02*
X84755119Y-79443809D01*
X84755119Y-78777142D02*
X84755119Y-78205714D01*
X85755119Y-78491428D02*
X84755119Y-78491428D01*
X84755119Y-78015237D02*
X85755119Y-77681904D01*
X85755119Y-77681904D02*
X84755119Y-77348571D01*
X85374166Y-77015237D02*
X85374166Y-76253333D01*
X85183690Y-75634285D02*
X85136071Y-75729523D01*
X85136071Y-75729523D02*
X85088452Y-75777142D01*
X85088452Y-75777142D02*
X84993214Y-75824761D01*
X84993214Y-75824761D02*
X84945595Y-75824761D01*
X84945595Y-75824761D02*
X84850357Y-75777142D01*
X84850357Y-75777142D02*
X84802738Y-75729523D01*
X84802738Y-75729523D02*
X84755119Y-75634285D01*
X84755119Y-75634285D02*
X84755119Y-75443809D01*
X84755119Y-75443809D02*
X84802738Y-75348571D01*
X84802738Y-75348571D02*
X84850357Y-75300952D01*
X84850357Y-75300952D02*
X84945595Y-75253333D01*
X84945595Y-75253333D02*
X84993214Y-75253333D01*
X84993214Y-75253333D02*
X85088452Y-75300952D01*
X85088452Y-75300952D02*
X85136071Y-75348571D01*
X85136071Y-75348571D02*
X85183690Y-75443809D01*
X85183690Y-75443809D02*
X85183690Y-75634285D01*
X85183690Y-75634285D02*
X85231309Y-75729523D01*
X85231309Y-75729523D02*
X85278928Y-75777142D01*
X85278928Y-75777142D02*
X85374166Y-75824761D01*
X85374166Y-75824761D02*
X85564642Y-75824761D01*
X85564642Y-75824761D02*
X85659880Y-75777142D01*
X85659880Y-75777142D02*
X85707500Y-75729523D01*
X85707500Y-75729523D02*
X85755119Y-75634285D01*
X85755119Y-75634285D02*
X85755119Y-75443809D01*
X85755119Y-75443809D02*
X85707500Y-75348571D01*
X85707500Y-75348571D02*
X85659880Y-75300952D01*
X85659880Y-75300952D02*
X85564642Y-75253333D01*
X85564642Y-75253333D02*
X85374166Y-75253333D01*
X85374166Y-75253333D02*
X85278928Y-75300952D01*
X85278928Y-75300952D02*
X85231309Y-75348571D01*
X85231309Y-75348571D02*
X85183690Y-75443809D01*
X85755119Y-74300952D02*
X85755119Y-74872380D01*
X85755119Y-74586666D02*
X84755119Y-74586666D01*
X84755119Y-74586666D02*
X84897976Y-74681904D01*
X84897976Y-74681904D02*
X84993214Y-74777142D01*
X84993214Y-74777142D02*
X85040833Y-74872380D01*
X84755119Y-73967618D02*
X84755119Y-73300952D01*
X84755119Y-73300952D02*
X85755119Y-73729523D01*
%TO.C,R6*%
X99112619Y-80006666D02*
X98636428Y-80339999D01*
X99112619Y-80578094D02*
X98112619Y-80578094D01*
X98112619Y-80578094D02*
X98112619Y-80197142D01*
X98112619Y-80197142D02*
X98160238Y-80101904D01*
X98160238Y-80101904D02*
X98207857Y-80054285D01*
X98207857Y-80054285D02*
X98303095Y-80006666D01*
X98303095Y-80006666D02*
X98445952Y-80006666D01*
X98445952Y-80006666D02*
X98541190Y-80054285D01*
X98541190Y-80054285D02*
X98588809Y-80101904D01*
X98588809Y-80101904D02*
X98636428Y-80197142D01*
X98636428Y-80197142D02*
X98636428Y-80578094D01*
X98112619Y-79149523D02*
X98112619Y-79339999D01*
X98112619Y-79339999D02*
X98160238Y-79435237D01*
X98160238Y-79435237D02*
X98207857Y-79482856D01*
X98207857Y-79482856D02*
X98350714Y-79578094D01*
X98350714Y-79578094D02*
X98541190Y-79625713D01*
X98541190Y-79625713D02*
X98922142Y-79625713D01*
X98922142Y-79625713D02*
X99017380Y-79578094D01*
X99017380Y-79578094D02*
X99065000Y-79530475D01*
X99065000Y-79530475D02*
X99112619Y-79435237D01*
X99112619Y-79435237D02*
X99112619Y-79244761D01*
X99112619Y-79244761D02*
X99065000Y-79149523D01*
X99065000Y-79149523D02*
X99017380Y-79101904D01*
X99017380Y-79101904D02*
X98922142Y-79054285D01*
X98922142Y-79054285D02*
X98684047Y-79054285D01*
X98684047Y-79054285D02*
X98588809Y-79101904D01*
X98588809Y-79101904D02*
X98541190Y-79149523D01*
X98541190Y-79149523D02*
X98493571Y-79244761D01*
X98493571Y-79244761D02*
X98493571Y-79435237D01*
X98493571Y-79435237D02*
X98541190Y-79530475D01*
X98541190Y-79530475D02*
X98588809Y-79578094D01*
X98588809Y-79578094D02*
X98684047Y-79625713D01*
X99112619Y-84880238D02*
X99112619Y-85451666D01*
X99112619Y-85165952D02*
X98112619Y-85165952D01*
X98112619Y-85165952D02*
X98255476Y-85261190D01*
X98255476Y-85261190D02*
X98350714Y-85356428D01*
X98350714Y-85356428D02*
X98398333Y-85451666D01*
X98112619Y-84261190D02*
X98112619Y-84165952D01*
X98112619Y-84165952D02*
X98160238Y-84070714D01*
X98160238Y-84070714D02*
X98207857Y-84023095D01*
X98207857Y-84023095D02*
X98303095Y-83975476D01*
X98303095Y-83975476D02*
X98493571Y-83927857D01*
X98493571Y-83927857D02*
X98731666Y-83927857D01*
X98731666Y-83927857D02*
X98922142Y-83975476D01*
X98922142Y-83975476D02*
X99017380Y-84023095D01*
X99017380Y-84023095D02*
X99065000Y-84070714D01*
X99065000Y-84070714D02*
X99112619Y-84165952D01*
X99112619Y-84165952D02*
X99112619Y-84261190D01*
X99112619Y-84261190D02*
X99065000Y-84356428D01*
X99065000Y-84356428D02*
X99017380Y-84404047D01*
X99017380Y-84404047D02*
X98922142Y-84451666D01*
X98922142Y-84451666D02*
X98731666Y-84499285D01*
X98731666Y-84499285D02*
X98493571Y-84499285D01*
X98493571Y-84499285D02*
X98303095Y-84451666D01*
X98303095Y-84451666D02*
X98207857Y-84404047D01*
X98207857Y-84404047D02*
X98160238Y-84356428D01*
X98160238Y-84356428D02*
X98112619Y-84261190D01*
X99112619Y-83499285D02*
X98112619Y-83499285D01*
X98731666Y-83404047D02*
X99112619Y-83118333D01*
X98445952Y-83118333D02*
X98826904Y-83499285D01*
%TO.C,J5*%
X86821427Y-100305119D02*
X87154760Y-101305119D01*
X87154760Y-101305119D02*
X87488093Y-100305119D01*
X88249998Y-101305119D02*
X88249998Y-100781309D01*
X88249998Y-100781309D02*
X88202379Y-100686071D01*
X88202379Y-100686071D02*
X88107141Y-100638452D01*
X88107141Y-100638452D02*
X87916665Y-100638452D01*
X87916665Y-100638452D02*
X87821427Y-100686071D01*
X88249998Y-101257500D02*
X88154760Y-101305119D01*
X88154760Y-101305119D02*
X87916665Y-101305119D01*
X87916665Y-101305119D02*
X87821427Y-101257500D01*
X87821427Y-101257500D02*
X87773808Y-101162261D01*
X87773808Y-101162261D02*
X87773808Y-101067023D01*
X87773808Y-101067023D02*
X87821427Y-100971785D01*
X87821427Y-100971785D02*
X87916665Y-100924166D01*
X87916665Y-100924166D02*
X88154760Y-100924166D01*
X88154760Y-100924166D02*
X88249998Y-100876547D01*
X88869046Y-101305119D02*
X88773808Y-101257500D01*
X88773808Y-101257500D02*
X88726189Y-101162261D01*
X88726189Y-101162261D02*
X88726189Y-100305119D01*
X89154761Y-100638452D02*
X89392856Y-101305119D01*
X89392856Y-101305119D02*
X89630951Y-100638452D01*
X90392856Y-101257500D02*
X90297618Y-101305119D01*
X90297618Y-101305119D02*
X90107142Y-101305119D01*
X90107142Y-101305119D02*
X90011904Y-101257500D01*
X90011904Y-101257500D02*
X89964285Y-101162261D01*
X89964285Y-101162261D02*
X89964285Y-100781309D01*
X89964285Y-100781309D02*
X90011904Y-100686071D01*
X90011904Y-100686071D02*
X90107142Y-100638452D01*
X90107142Y-100638452D02*
X90297618Y-100638452D01*
X90297618Y-100638452D02*
X90392856Y-100686071D01*
X90392856Y-100686071D02*
X90440475Y-100781309D01*
X90440475Y-100781309D02*
X90440475Y-100876547D01*
X90440475Y-100876547D02*
X89964285Y-100971785D01*
X91583333Y-101019404D02*
X92059523Y-101019404D01*
X91488095Y-101305119D02*
X91821428Y-100305119D01*
X91821428Y-100305119D02*
X92154761Y-101305119D01*
X93392857Y-101305119D02*
X93297619Y-101257500D01*
X93297619Y-101257500D02*
X93250000Y-101209880D01*
X93250000Y-101209880D02*
X93202381Y-101114642D01*
X93202381Y-101114642D02*
X93202381Y-100828928D01*
X93202381Y-100828928D02*
X93250000Y-100733690D01*
X93250000Y-100733690D02*
X93297619Y-100686071D01*
X93297619Y-100686071D02*
X93392857Y-100638452D01*
X93392857Y-100638452D02*
X93535714Y-100638452D01*
X93535714Y-100638452D02*
X93630952Y-100686071D01*
X93630952Y-100686071D02*
X93678571Y-100733690D01*
X93678571Y-100733690D02*
X93726190Y-100828928D01*
X93726190Y-100828928D02*
X93726190Y-101114642D01*
X93726190Y-101114642D02*
X93678571Y-101209880D01*
X93678571Y-101209880D02*
X93630952Y-101257500D01*
X93630952Y-101257500D02*
X93535714Y-101305119D01*
X93535714Y-101305119D02*
X93392857Y-101305119D01*
X94583333Y-100638452D02*
X94583333Y-101305119D01*
X94154762Y-100638452D02*
X94154762Y-101162261D01*
X94154762Y-101162261D02*
X94202381Y-101257500D01*
X94202381Y-101257500D02*
X94297619Y-101305119D01*
X94297619Y-101305119D02*
X94440476Y-101305119D01*
X94440476Y-101305119D02*
X94535714Y-101257500D01*
X94535714Y-101257500D02*
X94583333Y-101209880D01*
X94916667Y-100638452D02*
X95297619Y-100638452D01*
X95059524Y-100305119D02*
X95059524Y-101162261D01*
X95059524Y-101162261D02*
X95107143Y-101257500D01*
X95107143Y-101257500D02*
X95202381Y-101305119D01*
X95202381Y-101305119D02*
X95297619Y-101305119D01*
X95630953Y-100638452D02*
X95630953Y-101638452D01*
X95630953Y-100686071D02*
X95726191Y-100638452D01*
X95726191Y-100638452D02*
X95916667Y-100638452D01*
X95916667Y-100638452D02*
X96011905Y-100686071D01*
X96011905Y-100686071D02*
X96059524Y-100733690D01*
X96059524Y-100733690D02*
X96107143Y-100828928D01*
X96107143Y-100828928D02*
X96107143Y-101114642D01*
X96107143Y-101114642D02*
X96059524Y-101209880D01*
X96059524Y-101209880D02*
X96011905Y-101257500D01*
X96011905Y-101257500D02*
X95916667Y-101305119D01*
X95916667Y-101305119D02*
X95726191Y-101305119D01*
X95726191Y-101305119D02*
X95630953Y-101257500D01*
X96964286Y-100638452D02*
X96964286Y-101305119D01*
X96535715Y-100638452D02*
X96535715Y-101162261D01*
X96535715Y-101162261D02*
X96583334Y-101257500D01*
X96583334Y-101257500D02*
X96678572Y-101305119D01*
X96678572Y-101305119D02*
X96821429Y-101305119D01*
X96821429Y-101305119D02*
X96916667Y-101257500D01*
X96916667Y-101257500D02*
X96964286Y-101209880D01*
X97297620Y-100638452D02*
X97678572Y-100638452D01*
X97440477Y-100305119D02*
X97440477Y-101162261D01*
X97440477Y-101162261D02*
X97488096Y-101257500D01*
X97488096Y-101257500D02*
X97583334Y-101305119D01*
X97583334Y-101305119D02*
X97678572Y-101305119D01*
%TO.C,J4*%
X121095237Y-93962619D02*
X121428570Y-94962619D01*
X121428570Y-94962619D02*
X121761903Y-93962619D01*
X122523808Y-94962619D02*
X122523808Y-94438809D01*
X122523808Y-94438809D02*
X122476189Y-94343571D01*
X122476189Y-94343571D02*
X122380951Y-94295952D01*
X122380951Y-94295952D02*
X122190475Y-94295952D01*
X122190475Y-94295952D02*
X122095237Y-94343571D01*
X122523808Y-94915000D02*
X122428570Y-94962619D01*
X122428570Y-94962619D02*
X122190475Y-94962619D01*
X122190475Y-94962619D02*
X122095237Y-94915000D01*
X122095237Y-94915000D02*
X122047618Y-94819761D01*
X122047618Y-94819761D02*
X122047618Y-94724523D01*
X122047618Y-94724523D02*
X122095237Y-94629285D01*
X122095237Y-94629285D02*
X122190475Y-94581666D01*
X122190475Y-94581666D02*
X122428570Y-94581666D01*
X122428570Y-94581666D02*
X122523808Y-94534047D01*
X123142856Y-94962619D02*
X123047618Y-94915000D01*
X123047618Y-94915000D02*
X122999999Y-94819761D01*
X122999999Y-94819761D02*
X122999999Y-93962619D01*
X123428571Y-94295952D02*
X123666666Y-94962619D01*
X123666666Y-94962619D02*
X123904761Y-94295952D01*
X124666666Y-94915000D02*
X124571428Y-94962619D01*
X124571428Y-94962619D02*
X124380952Y-94962619D01*
X124380952Y-94962619D02*
X124285714Y-94915000D01*
X124285714Y-94915000D02*
X124238095Y-94819761D01*
X124238095Y-94819761D02*
X124238095Y-94438809D01*
X124238095Y-94438809D02*
X124285714Y-94343571D01*
X124285714Y-94343571D02*
X124380952Y-94295952D01*
X124380952Y-94295952D02*
X124571428Y-94295952D01*
X124571428Y-94295952D02*
X124666666Y-94343571D01*
X124666666Y-94343571D02*
X124714285Y-94438809D01*
X124714285Y-94438809D02*
X124714285Y-94534047D01*
X124714285Y-94534047D02*
X124238095Y-94629285D01*
X125904762Y-94295952D02*
X125904762Y-95295952D01*
X125904762Y-94343571D02*
X126000000Y-94295952D01*
X126000000Y-94295952D02*
X126190476Y-94295952D01*
X126190476Y-94295952D02*
X126285714Y-94343571D01*
X126285714Y-94343571D02*
X126333333Y-94391190D01*
X126333333Y-94391190D02*
X126380952Y-94486428D01*
X126380952Y-94486428D02*
X126380952Y-94772142D01*
X126380952Y-94772142D02*
X126333333Y-94867380D01*
X126333333Y-94867380D02*
X126285714Y-94915000D01*
X126285714Y-94915000D02*
X126190476Y-94962619D01*
X126190476Y-94962619D02*
X126000000Y-94962619D01*
X126000000Y-94962619D02*
X125904762Y-94915000D01*
X126952381Y-94962619D02*
X126857143Y-94915000D01*
X126857143Y-94915000D02*
X126809524Y-94867380D01*
X126809524Y-94867380D02*
X126761905Y-94772142D01*
X126761905Y-94772142D02*
X126761905Y-94486428D01*
X126761905Y-94486428D02*
X126809524Y-94391190D01*
X126809524Y-94391190D02*
X126857143Y-94343571D01*
X126857143Y-94343571D02*
X126952381Y-94295952D01*
X126952381Y-94295952D02*
X127095238Y-94295952D01*
X127095238Y-94295952D02*
X127190476Y-94343571D01*
X127190476Y-94343571D02*
X127238095Y-94391190D01*
X127238095Y-94391190D02*
X127285714Y-94486428D01*
X127285714Y-94486428D02*
X127285714Y-94772142D01*
X127285714Y-94772142D02*
X127238095Y-94867380D01*
X127238095Y-94867380D02*
X127190476Y-94915000D01*
X127190476Y-94915000D02*
X127095238Y-94962619D01*
X127095238Y-94962619D02*
X126952381Y-94962619D01*
X127619048Y-94295952D02*
X127809524Y-94962619D01*
X127809524Y-94962619D02*
X128000000Y-94486428D01*
X128000000Y-94486428D02*
X128190476Y-94962619D01*
X128190476Y-94962619D02*
X128380952Y-94295952D01*
X129142857Y-94915000D02*
X129047619Y-94962619D01*
X129047619Y-94962619D02*
X128857143Y-94962619D01*
X128857143Y-94962619D02*
X128761905Y-94915000D01*
X128761905Y-94915000D02*
X128714286Y-94819761D01*
X128714286Y-94819761D02*
X128714286Y-94438809D01*
X128714286Y-94438809D02*
X128761905Y-94343571D01*
X128761905Y-94343571D02*
X128857143Y-94295952D01*
X128857143Y-94295952D02*
X129047619Y-94295952D01*
X129047619Y-94295952D02*
X129142857Y-94343571D01*
X129142857Y-94343571D02*
X129190476Y-94438809D01*
X129190476Y-94438809D02*
X129190476Y-94534047D01*
X129190476Y-94534047D02*
X128714286Y-94629285D01*
X129619048Y-94962619D02*
X129619048Y-94295952D01*
X129619048Y-94486428D02*
X129666667Y-94391190D01*
X129666667Y-94391190D02*
X129714286Y-94343571D01*
X129714286Y-94343571D02*
X129809524Y-94295952D01*
X129809524Y-94295952D02*
X129904762Y-94295952D01*
D11*
%TO.C,J13*%
X74200000Y-70250000D02*
X78500000Y-70250000D01*
X73450000Y-75450000D02*
X75250000Y-75450000D01*
X81750000Y-75450000D02*
X83550000Y-75450000D01*
X75250000Y-75450000D02*
X75250000Y-74700000D01*
X73450000Y-73200000D02*
X74200000Y-73200000D01*
X74200000Y-73200000D02*
X74200000Y-70250000D01*
X76750000Y-75450000D02*
X80250000Y-75450000D01*
X73450000Y-74700000D02*
X73450000Y-75450000D01*
X82600000Y-75750000D02*
X83850000Y-75750000D01*
X73440000Y-75460000D02*
X83560000Y-75460000D01*
X83550000Y-75450000D02*
X83550000Y-74700000D01*
X82800000Y-70250000D02*
X78500000Y-70250000D01*
X76750000Y-74700000D02*
X76750000Y-75450000D01*
X83560000Y-75460000D02*
X83560000Y-69490000D01*
X83550000Y-73200000D02*
X82800000Y-73200000D01*
X82800000Y-73200000D02*
X82800000Y-70250000D01*
X75250000Y-74700000D02*
X73450000Y-74700000D01*
X81750000Y-74700000D02*
X81750000Y-75450000D01*
X80250000Y-75450000D02*
X80250000Y-74700000D01*
X73440000Y-69490000D02*
X73440000Y-75460000D01*
X83550000Y-74700000D02*
X81750000Y-74700000D01*
X80250000Y-74700000D02*
X76750000Y-74700000D01*
X83560000Y-69490000D02*
X73440000Y-69490000D01*
X83850000Y-75750000D02*
X83850000Y-74500000D01*
%TO.C,J12*%
X74200000Y-80250000D02*
X78500000Y-80250000D01*
X73450000Y-85450000D02*
X75250000Y-85450000D01*
X81750000Y-85450000D02*
X83550000Y-85450000D01*
X75250000Y-85450000D02*
X75250000Y-84700000D01*
X73450000Y-83200000D02*
X74200000Y-83200000D01*
X74200000Y-83200000D02*
X74200000Y-80250000D01*
X76750000Y-85450000D02*
X80250000Y-85450000D01*
X73450000Y-84700000D02*
X73450000Y-85450000D01*
X82600000Y-85750000D02*
X83850000Y-85750000D01*
X73440000Y-85460000D02*
X83560000Y-85460000D01*
X83550000Y-85450000D02*
X83550000Y-84700000D01*
X82800000Y-80250000D02*
X78500000Y-80250000D01*
X76750000Y-84700000D02*
X76750000Y-85450000D01*
X83560000Y-85460000D02*
X83560000Y-79490000D01*
X83550000Y-83200000D02*
X82800000Y-83200000D01*
X82800000Y-83200000D02*
X82800000Y-80250000D01*
X75250000Y-84700000D02*
X73450000Y-84700000D01*
X81750000Y-84700000D02*
X81750000Y-85450000D01*
X80250000Y-85450000D02*
X80250000Y-84700000D01*
X73440000Y-79490000D02*
X73440000Y-85460000D01*
X83550000Y-84700000D02*
X81750000Y-84700000D01*
X80250000Y-84700000D02*
X76750000Y-84700000D01*
X83560000Y-79490000D02*
X73440000Y-79490000D01*
X83850000Y-85750000D02*
X83850000Y-84500000D01*
%TO.C,J11*%
X74200000Y-90250000D02*
X78500000Y-90250000D01*
X73450000Y-95450000D02*
X75250000Y-95450000D01*
X81750000Y-95450000D02*
X83550000Y-95450000D01*
X75250000Y-95450000D02*
X75250000Y-94700000D01*
X73450000Y-93200000D02*
X74200000Y-93200000D01*
X74200000Y-93200000D02*
X74200000Y-90250000D01*
X76750000Y-95450000D02*
X80250000Y-95450000D01*
X73450000Y-94700000D02*
X73450000Y-95450000D01*
X82600000Y-95750000D02*
X83850000Y-95750000D01*
X73440000Y-95460000D02*
X83560000Y-95460000D01*
X83550000Y-95450000D02*
X83550000Y-94700000D01*
X82800000Y-90250000D02*
X78500000Y-90250000D01*
X76750000Y-94700000D02*
X76750000Y-95450000D01*
X83560000Y-95460000D02*
X83560000Y-89490000D01*
X83550000Y-93200000D02*
X82800000Y-93200000D01*
X82800000Y-93200000D02*
X82800000Y-90250000D01*
X75250000Y-94700000D02*
X73450000Y-94700000D01*
X81750000Y-94700000D02*
X81750000Y-95450000D01*
X80250000Y-95450000D02*
X80250000Y-94700000D01*
X73440000Y-89490000D02*
X73440000Y-95460000D01*
X83550000Y-94700000D02*
X81750000Y-94700000D01*
X80250000Y-94700000D02*
X76750000Y-94700000D01*
X83560000Y-89490000D02*
X73440000Y-89490000D01*
X83850000Y-95750000D02*
X83850000Y-94500000D01*
%TO.C,R8*%
X69920000Y-90770000D02*
X68080000Y-90770000D01*
X68080000Y-90770000D02*
X68080000Y-94610000D01*
X69920000Y-94610000D02*
X69920000Y-90770000D01*
X69000000Y-89820000D02*
X69000000Y-90770000D01*
X68080000Y-94610000D02*
X69920000Y-94610000D01*
X69000000Y-95560000D02*
X69000000Y-94610000D01*
%TO.C,R7*%
X65920000Y-90770000D02*
X64080000Y-90770000D01*
X64080000Y-90770000D02*
X64080000Y-94610000D01*
X65920000Y-94610000D02*
X65920000Y-90770000D01*
X65000000Y-89820000D02*
X65000000Y-90770000D01*
X64080000Y-94610000D02*
X65920000Y-94610000D01*
X65000000Y-95560000D02*
X65000000Y-94610000D01*
%TO.C,J14*%
X63950000Y-83200000D02*
X64700000Y-83200000D01*
X64700000Y-83200000D02*
X64700000Y-80250000D01*
X64700000Y-80250000D02*
X67750000Y-80250000D01*
X70800000Y-83200000D02*
X70800000Y-80250000D01*
X67250000Y-85450000D02*
X68250000Y-85450000D01*
X68250000Y-85450000D02*
X68250000Y-84700000D01*
X68250000Y-84700000D02*
X67250000Y-84700000D01*
X65750000Y-84700000D02*
X63950000Y-84700000D01*
X63950000Y-85450000D02*
X65750000Y-85450000D01*
X71850000Y-85750000D02*
X71850000Y-84500000D01*
X71560000Y-85460000D02*
X71560000Y-79490000D01*
X71550000Y-85450000D02*
X71550000Y-84700000D01*
X71560000Y-79490000D02*
X63940000Y-79490000D01*
X67250000Y-84700000D02*
X67250000Y-85450000D01*
X71550000Y-83200000D02*
X70800000Y-83200000D01*
X71550000Y-84700000D02*
X69750000Y-84700000D01*
X70600000Y-85750000D02*
X71850000Y-85750000D01*
X63950000Y-84700000D02*
X63950000Y-85450000D01*
X69750000Y-85450000D02*
X71550000Y-85450000D01*
X63940000Y-85460000D02*
X71560000Y-85460000D01*
X70800000Y-80250000D02*
X67750000Y-80250000D01*
X65750000Y-85450000D02*
X65750000Y-84700000D01*
X63940000Y-79490000D02*
X63940000Y-85460000D01*
X69750000Y-84700000D02*
X69750000Y-85450000D01*
%TO.C,J9*%
X101250000Y-73200000D02*
X99450000Y-73200000D01*
X117050000Y-73200000D02*
X115250000Y-73200000D01*
X116300000Y-68750000D02*
X108250000Y-68750000D01*
X115250000Y-73200000D02*
X115250000Y-73950000D01*
X99450000Y-73200000D02*
X99450000Y-73950000D01*
X102750000Y-73200000D02*
X102750000Y-73950000D01*
X100200000Y-71700000D02*
X100200000Y-68750000D01*
X117060000Y-67990000D02*
X99440000Y-67990000D01*
X99440000Y-73960000D02*
X117060000Y-73960000D01*
X117060000Y-73960000D02*
X117060000Y-67990000D01*
X117050000Y-73950000D02*
X117050000Y-73200000D01*
X100200000Y-68750000D02*
X108250000Y-68750000D01*
X113750000Y-73200000D02*
X102750000Y-73200000D01*
X116300000Y-71700000D02*
X116300000Y-68750000D01*
X117350000Y-74250000D02*
X117350000Y-73000000D01*
X116100000Y-74250000D02*
X117350000Y-74250000D01*
X99450000Y-71700000D02*
X100200000Y-71700000D01*
X101250000Y-73950000D02*
X101250000Y-73200000D01*
X102750000Y-73950000D02*
X113750000Y-73950000D01*
X117050000Y-71700000D02*
X116300000Y-71700000D01*
X99450000Y-73950000D02*
X101250000Y-73950000D01*
X99440000Y-67990000D02*
X99440000Y-73960000D01*
X115250000Y-73950000D02*
X117050000Y-73950000D01*
X113750000Y-73950000D02*
X113750000Y-73200000D01*
%TO.C,J1*%
X63950000Y-73200000D02*
X64700000Y-73200000D01*
X64700000Y-73200000D02*
X64700000Y-70250000D01*
X64700000Y-70250000D02*
X67750000Y-70250000D01*
X70800000Y-73200000D02*
X70800000Y-70250000D01*
X67250000Y-75450000D02*
X68250000Y-75450000D01*
X68250000Y-75450000D02*
X68250000Y-74700000D01*
X68250000Y-74700000D02*
X67250000Y-74700000D01*
X65750000Y-74700000D02*
X63950000Y-74700000D01*
X63950000Y-75450000D02*
X65750000Y-75450000D01*
X71850000Y-75750000D02*
X71850000Y-74500000D01*
X71560000Y-75460000D02*
X71560000Y-69490000D01*
X71550000Y-75450000D02*
X71550000Y-74700000D01*
X71560000Y-69490000D02*
X63940000Y-69490000D01*
X67250000Y-74700000D02*
X67250000Y-75450000D01*
X71550000Y-73200000D02*
X70800000Y-73200000D01*
X71550000Y-74700000D02*
X69750000Y-74700000D01*
X70600000Y-75750000D02*
X71850000Y-75750000D01*
X63950000Y-74700000D02*
X63950000Y-75450000D01*
X69750000Y-75450000D02*
X71550000Y-75450000D01*
X63940000Y-75460000D02*
X71560000Y-75460000D01*
X70800000Y-70250000D02*
X67750000Y-70250000D01*
X65750000Y-75450000D02*
X65750000Y-74700000D01*
X63940000Y-69490000D02*
X63940000Y-75460000D01*
X69750000Y-74700000D02*
X69750000Y-75450000D01*
%TO.C,Q1*%
X93760000Y-95000000D02*
X90160000Y-95000000D01*
X91960000Y-99449999D02*
G75*
G03*
X94316399Y-97948807I0J2599999D01*
G01*
X94284183Y-95727205D02*
G75*
G03*
X93759999Y-95000001I-2324183J-1122795D01*
G01*
X89603600Y-97948807D02*
G75*
G03*
X91960000Y-99450000I2356400J1098807D01*
G01*
X90160001Y-95000001D02*
G75*
G03*
X89635817Y-95727205I1799999J-1849999D01*
G01*
%TO.C,R2*%
X105000000Y-96680000D02*
X105000000Y-95730000D01*
X104080000Y-95730000D02*
X105920000Y-95730000D01*
X105920000Y-95730000D02*
X105920000Y-91890000D01*
X104080000Y-91890000D02*
X104080000Y-95730000D01*
X105920000Y-91890000D02*
X104080000Y-91890000D01*
X105000000Y-90940000D02*
X105000000Y-91890000D01*
%TO.C,J2*%
X127810000Y-63880000D02*
X120190000Y-63880000D01*
X126540000Y-63880000D02*
X126540000Y-74040000D01*
X120190000Y-63880000D02*
X120190000Y-74040000D01*
X127810000Y-74040000D02*
X127810000Y-63880000D01*
X120190000Y-74040000D02*
X127810000Y-74040000D01*
%TO.C,R5*%
X105000000Y-78875000D02*
X105000000Y-79825000D01*
X105920000Y-79825000D02*
X104080000Y-79825000D01*
X104080000Y-79825000D02*
X104080000Y-83665000D01*
X105920000Y-83665000D02*
X105920000Y-79825000D01*
X104080000Y-83665000D02*
X105920000Y-83665000D01*
X105000000Y-84615000D02*
X105000000Y-83665000D01*
%TO.C,J3*%
X83850000Y-106750000D02*
X83850000Y-105500000D01*
X83560000Y-106460000D02*
X83560000Y-100490000D01*
X83560000Y-100490000D02*
X75940000Y-100490000D01*
X83550000Y-106450000D02*
X83550000Y-105700000D01*
X83550000Y-105700000D02*
X81750000Y-105700000D01*
X83550000Y-104200000D02*
X82800000Y-104200000D01*
X82800000Y-104200000D02*
X82800000Y-101250000D01*
X82800000Y-101250000D02*
X79750000Y-101250000D01*
X82600000Y-106750000D02*
X83850000Y-106750000D01*
X81750000Y-106450000D02*
X83550000Y-106450000D01*
X81750000Y-105700000D02*
X81750000Y-106450000D01*
X80250000Y-106450000D02*
X80250000Y-105700000D01*
X80250000Y-105700000D02*
X79250000Y-105700000D01*
X79250000Y-106450000D02*
X80250000Y-106450000D01*
X79250000Y-105700000D02*
X79250000Y-106450000D01*
X77750000Y-106450000D02*
X77750000Y-105700000D01*
X77750000Y-105700000D02*
X75950000Y-105700000D01*
X76700000Y-104200000D02*
X76700000Y-101250000D01*
X76700000Y-101250000D02*
X79750000Y-101250000D01*
X75950000Y-106450000D02*
X77750000Y-106450000D01*
X75950000Y-105700000D02*
X75950000Y-106450000D01*
X75950000Y-104200000D02*
X76700000Y-104200000D01*
X75940000Y-106460000D02*
X83560000Y-106460000D01*
X75940000Y-100490000D02*
X75940000Y-106460000D01*
%TO.C,J6*%
X71850000Y-106750000D02*
X71850000Y-105500000D01*
X71560000Y-106460000D02*
X71560000Y-100490000D01*
X71560000Y-100490000D02*
X63940000Y-100490000D01*
X71550000Y-106450000D02*
X71550000Y-105700000D01*
X71550000Y-105700000D02*
X69750000Y-105700000D01*
X71550000Y-104200000D02*
X70800000Y-104200000D01*
X70800000Y-104200000D02*
X70800000Y-101250000D01*
X70800000Y-101250000D02*
X67750000Y-101250000D01*
X70600000Y-106750000D02*
X71850000Y-106750000D01*
X69750000Y-106450000D02*
X71550000Y-106450000D01*
X69750000Y-105700000D02*
X69750000Y-106450000D01*
X68250000Y-106450000D02*
X68250000Y-105700000D01*
X68250000Y-105700000D02*
X67250000Y-105700000D01*
X67250000Y-106450000D02*
X68250000Y-106450000D01*
X67250000Y-105700000D02*
X67250000Y-106450000D01*
X65750000Y-106450000D02*
X65750000Y-105700000D01*
X65750000Y-105700000D02*
X63950000Y-105700000D01*
X64700000Y-104200000D02*
X64700000Y-101250000D01*
X64700000Y-101250000D02*
X67750000Y-101250000D01*
X63950000Y-106450000D02*
X65750000Y-106450000D01*
X63950000Y-105700000D02*
X63950000Y-106450000D01*
X63950000Y-104200000D02*
X64700000Y-104200000D01*
X63940000Y-106460000D02*
X71560000Y-106460000D01*
X63940000Y-100490000D02*
X63940000Y-106460000D01*
%TO.C,R1*%
X95147500Y-85310000D02*
X94197500Y-85310000D01*
X94197500Y-86230000D02*
X94197500Y-84390000D01*
X94197500Y-84390000D02*
X90357500Y-84390000D01*
X90357500Y-86230000D02*
X94197500Y-86230000D01*
X90357500Y-84390000D02*
X90357500Y-86230000D01*
X89407500Y-85310000D02*
X90357500Y-85310000D01*
%TO.C,R4*%
X95147500Y-81500000D02*
X94197500Y-81500000D01*
X94197500Y-82420000D02*
X94197500Y-80580000D01*
X94197500Y-80580000D02*
X90357500Y-80580000D01*
X90357500Y-82420000D02*
X94197500Y-82420000D01*
X90357500Y-80580000D02*
X90357500Y-82420000D01*
X89407500Y-81500000D02*
X90357500Y-81500000D01*
%TO.C,J8*%
X113350000Y-108192500D02*
X113350000Y-106942500D01*
X113060000Y-107902500D02*
X113060000Y-101932500D01*
X113060000Y-101932500D02*
X100440000Y-101932500D01*
X113050000Y-107892500D02*
X113050000Y-107142500D01*
X113050000Y-107142500D02*
X111250000Y-107142500D01*
X113050000Y-105642500D02*
X112300000Y-105642500D01*
X112300000Y-105642500D02*
X112300000Y-102692500D01*
X112300000Y-102692500D02*
X106750000Y-102692500D01*
X112100000Y-108192500D02*
X113350000Y-108192500D01*
X111250000Y-107892500D02*
X113050000Y-107892500D01*
X111250000Y-107142500D02*
X111250000Y-107892500D01*
X109750000Y-107892500D02*
X109750000Y-107142500D01*
X109750000Y-107142500D02*
X103750000Y-107142500D01*
X103750000Y-107892500D02*
X109750000Y-107892500D01*
X103750000Y-107142500D02*
X103750000Y-107892500D01*
X102250000Y-107892500D02*
X102250000Y-107142500D01*
X102250000Y-107142500D02*
X100450000Y-107142500D01*
X101200000Y-105642500D02*
X101200000Y-102692500D01*
X101200000Y-102692500D02*
X106750000Y-102692500D01*
X100450000Y-107892500D02*
X102250000Y-107892500D01*
X100450000Y-107142500D02*
X100450000Y-107892500D01*
X100450000Y-105642500D02*
X101200000Y-105642500D01*
X100440000Y-107902500D02*
X113060000Y-107902500D01*
X100440000Y-101932500D02*
X100440000Y-107902500D01*
%TO.C,Q2*%
X93760000Y-88650000D02*
X90160000Y-88650000D01*
X91960000Y-93099999D02*
G75*
G03*
X94316399Y-91598807I0J2599999D01*
G01*
X94284183Y-89377205D02*
G75*
G03*
X93759999Y-88650001I-2324183J-1122795D01*
G01*
X89603600Y-91598807D02*
G75*
G03*
X91960000Y-93100000I2356400J1098807D01*
G01*
X90160001Y-88650001D02*
G75*
G03*
X89635817Y-89377205I1799999J-1849999D01*
G01*
%TO.C,U1*%
X96892500Y-73310000D02*
X96892500Y-67990000D01*
X96892500Y-67990000D02*
X86392500Y-67990000D01*
X93892500Y-73250000D02*
X93892500Y-68050000D01*
X93892500Y-68050000D02*
X89392500Y-68050000D01*
X92642500Y-73250000D02*
X93892500Y-73250000D01*
X89392500Y-73250000D02*
X90642500Y-73250000D01*
X89392500Y-68050000D02*
X89392500Y-73250000D01*
X86392500Y-73310000D02*
X96892500Y-73310000D01*
X86392500Y-67990000D02*
X86392500Y-73310000D01*
X92642500Y-73250000D02*
G75*
G03*
X90642500Y-73250000I-1000000J0D01*
G01*
%TO.C,J7*%
X129850000Y-110750000D02*
X129850000Y-109500000D01*
X129560000Y-110460000D02*
X129560000Y-104490000D01*
X129560000Y-104490000D02*
X121940000Y-104490000D01*
X129550000Y-110450000D02*
X129550000Y-109700000D01*
X129550000Y-109700000D02*
X127750000Y-109700000D01*
X129550000Y-108200000D02*
X128800000Y-108200000D01*
X128800000Y-108200000D02*
X128800000Y-105250000D01*
X128800000Y-105250000D02*
X125750000Y-105250000D01*
X128600000Y-110750000D02*
X129850000Y-110750000D01*
X127750000Y-110450000D02*
X129550000Y-110450000D01*
X127750000Y-109700000D02*
X127750000Y-110450000D01*
X126250000Y-110450000D02*
X126250000Y-109700000D01*
X126250000Y-109700000D02*
X125250000Y-109700000D01*
X125250000Y-110450000D02*
X126250000Y-110450000D01*
X125250000Y-109700000D02*
X125250000Y-110450000D01*
X123750000Y-110450000D02*
X123750000Y-109700000D01*
X123750000Y-109700000D02*
X121950000Y-109700000D01*
X122700000Y-108200000D02*
X122700000Y-105250000D01*
X122700000Y-105250000D02*
X125750000Y-105250000D01*
X121950000Y-110450000D02*
X123750000Y-110450000D01*
X121950000Y-109700000D02*
X121950000Y-110450000D01*
X121950000Y-108200000D02*
X122700000Y-108200000D01*
X121940000Y-110460000D02*
X129560000Y-110460000D01*
X121940000Y-104490000D02*
X121940000Y-110460000D01*
%TO.C,R3*%
X100555000Y-90940000D02*
X100555000Y-91890000D01*
X101475000Y-91890000D02*
X99635000Y-91890000D01*
X99635000Y-91890000D02*
X99635000Y-95730000D01*
X101475000Y-95730000D02*
X101475000Y-91890000D01*
X99635000Y-95730000D02*
X101475000Y-95730000D01*
X100555000Y-96680000D02*
X100555000Y-95730000D01*
%TO.C,U2*%
X96892500Y-78390000D02*
X96892500Y-73070000D01*
X96892500Y-73070000D02*
X86392500Y-73070000D01*
X93892500Y-78330000D02*
X93892500Y-73130000D01*
X93892500Y-73130000D02*
X89392500Y-73130000D01*
X92642500Y-78330000D02*
X93892500Y-78330000D01*
X89392500Y-78330000D02*
X90642500Y-78330000D01*
X89392500Y-73130000D02*
X89392500Y-78330000D01*
X86392500Y-78390000D02*
X96892500Y-78390000D01*
X86392500Y-73070000D02*
X86392500Y-78390000D01*
X92642500Y-78330000D02*
G75*
G03*
X90642500Y-78330000I-1000000J0D01*
G01*
%TO.C,R6*%
X100555000Y-78875000D02*
X100555000Y-79825000D01*
X101475000Y-79825000D02*
X99635000Y-79825000D01*
X99635000Y-79825000D02*
X99635000Y-83665000D01*
X101475000Y-83665000D02*
X101475000Y-79825000D01*
X99635000Y-83665000D02*
X101475000Y-83665000D01*
X100555000Y-84615000D02*
X100555000Y-83665000D01*
%TO.C,J5*%
X98850000Y-108192500D02*
X98850000Y-106942500D01*
X98560000Y-107902500D02*
X98560000Y-101932500D01*
X98560000Y-101932500D02*
X85940000Y-101932500D01*
X98550000Y-107892500D02*
X98550000Y-107142500D01*
X98550000Y-107142500D02*
X96750000Y-107142500D01*
X98550000Y-105642500D02*
X97800000Y-105642500D01*
X97800000Y-105642500D02*
X97800000Y-102692500D01*
X97800000Y-102692500D02*
X92250000Y-102692500D01*
X97600000Y-108192500D02*
X98850000Y-108192500D01*
X96750000Y-107892500D02*
X98550000Y-107892500D01*
X96750000Y-107142500D02*
X96750000Y-107892500D01*
X95250000Y-107892500D02*
X95250000Y-107142500D01*
X95250000Y-107142500D02*
X89250000Y-107142500D01*
X89250000Y-107892500D02*
X95250000Y-107892500D01*
X89250000Y-107142500D02*
X89250000Y-107892500D01*
X87750000Y-107892500D02*
X87750000Y-107142500D01*
X87750000Y-107142500D02*
X85950000Y-107142500D01*
X86700000Y-105642500D02*
X86700000Y-102692500D01*
X86700000Y-102692500D02*
X92250000Y-102692500D01*
X85950000Y-107892500D02*
X87750000Y-107892500D01*
X85950000Y-107142500D02*
X85950000Y-107892500D01*
X85950000Y-105642500D02*
X86700000Y-105642500D01*
X85940000Y-107902500D02*
X98560000Y-107902500D01*
X85940000Y-101932500D02*
X85940000Y-107902500D01*
%TO.C,J4*%
X121940000Y-95990000D02*
X121940000Y-101960000D01*
X121940000Y-101960000D02*
X129560000Y-101960000D01*
X121950000Y-99700000D02*
X122700000Y-99700000D01*
X121950000Y-101200000D02*
X121950000Y-101950000D01*
X121950000Y-101950000D02*
X123750000Y-101950000D01*
X122700000Y-96750000D02*
X125750000Y-96750000D01*
X122700000Y-99700000D02*
X122700000Y-96750000D01*
X123750000Y-101200000D02*
X121950000Y-101200000D01*
X123750000Y-101950000D02*
X123750000Y-101200000D01*
X125250000Y-101200000D02*
X125250000Y-101950000D01*
X125250000Y-101950000D02*
X126250000Y-101950000D01*
X126250000Y-101200000D02*
X125250000Y-101200000D01*
X126250000Y-101950000D02*
X126250000Y-101200000D01*
X127750000Y-101200000D02*
X127750000Y-101950000D01*
X127750000Y-101950000D02*
X129550000Y-101950000D01*
X128600000Y-102250000D02*
X129850000Y-102250000D01*
X128800000Y-96750000D02*
X125750000Y-96750000D01*
X128800000Y-99700000D02*
X128800000Y-96750000D01*
X129550000Y-99700000D02*
X128800000Y-99700000D01*
X129550000Y-101200000D02*
X127750000Y-101200000D01*
X129550000Y-101950000D02*
X129550000Y-101200000D01*
X129560000Y-95990000D02*
X121940000Y-95990000D01*
X129560000Y-101960000D02*
X129560000Y-95990000D01*
X129850000Y-102250000D02*
X129850000Y-101000000D01*
%TO.C,G\u002A\u002A\u002A*%
G36*
X128052617Y-91422124D02*
G01*
X128113627Y-91441757D01*
X128137558Y-91475558D01*
X128124156Y-91505606D01*
X128085486Y-91520094D01*
X128043558Y-91523949D01*
X127993869Y-91509827D01*
X127981303Y-91468816D01*
X127992103Y-91429140D01*
X128034277Y-91420445D01*
X128052617Y-91422124D01*
G37*
G36*
X128052617Y-91208679D02*
G01*
X128113627Y-91228312D01*
X128137558Y-91262112D01*
X128124156Y-91292161D01*
X128085486Y-91306648D01*
X128043558Y-91310504D01*
X127993869Y-91296381D01*
X127981303Y-91255370D01*
X127992103Y-91215695D01*
X128034277Y-91206999D01*
X128052617Y-91208679D01*
G37*
G36*
X129049132Y-90648213D02*
G01*
X129065140Y-90669764D01*
X129072822Y-90719197D01*
X129075127Y-90807572D01*
X129075210Y-90843592D01*
X129075210Y-91043697D01*
X128634979Y-91043697D01*
X128472519Y-91043402D01*
X128355856Y-91041906D01*
X128277427Y-91038292D01*
X128229671Y-91031644D01*
X128205024Y-91021045D01*
X128195922Y-91005578D01*
X128194748Y-90990336D01*
X128197442Y-90969531D01*
X128210899Y-90954974D01*
X128243177Y-90945553D01*
X128302338Y-90940158D01*
X128396442Y-90937675D01*
X128533548Y-90936994D01*
X128581618Y-90936974D01*
X128968488Y-90936974D01*
X128968488Y-90790231D01*
X128970804Y-90705428D01*
X128980818Y-90661250D01*
X129003128Y-90645052D01*
X129021849Y-90643487D01*
X129049132Y-90648213D01*
G37*
G36*
X127527731Y-89720822D02*
G01*
X127530223Y-89809030D01*
X127536605Y-89878072D01*
X127541862Y-89902208D01*
X127528588Y-89917126D01*
X127482504Y-89948522D01*
X127402206Y-89997162D01*
X127286288Y-90063817D01*
X127133347Y-90149255D01*
X126941977Y-90254244D01*
X126710774Y-90379553D01*
X126438331Y-90525951D01*
X126123245Y-90694205D01*
X125764111Y-90885085D01*
X125359523Y-91099360D01*
X125184759Y-91191733D01*
X122813525Y-92444432D01*
X125170628Y-92451247D01*
X127527731Y-92458061D01*
X127527731Y-92644682D01*
X127527731Y-92831302D01*
X124726261Y-92831302D01*
X121924790Y-92831302D01*
X121925245Y-92651208D01*
X121925700Y-92471113D01*
X124275775Y-91230462D01*
X126625851Y-89989810D01*
X124288661Y-89982995D01*
X121951471Y-89976179D01*
X121951471Y-89776219D01*
X121951471Y-89576260D01*
X124739601Y-89576260D01*
X127527731Y-89576260D01*
X127527731Y-89720822D01*
G37*
G36*
X128495176Y-82727292D02*
G01*
X128612609Y-82750715D01*
X128686525Y-82800288D01*
X128722564Y-82881405D01*
X128728362Y-82950248D01*
X128728362Y-83066176D01*
X128901786Y-83066176D01*
X128995011Y-83067346D01*
X129046937Y-83073946D01*
X129069618Y-83090613D01*
X129075110Y-83121984D01*
X129075210Y-83132878D01*
X129075210Y-83199579D01*
X128634979Y-83199579D01*
X128298090Y-83199579D01*
X128194748Y-83199579D01*
X128194748Y-83066176D01*
X128298090Y-83066176D01*
X128461555Y-83066176D01*
X128625020Y-83066176D01*
X128616659Y-82980296D01*
X128589613Y-82899755D01*
X128534927Y-82853563D01*
X128476729Y-82827729D01*
X128429226Y-82833092D01*
X128388183Y-82853563D01*
X128326718Y-82910266D01*
X128306451Y-82980296D01*
X128298090Y-83066176D01*
X128194748Y-83066176D01*
X128194748Y-83012423D01*
X128196005Y-82913634D01*
X128203409Y-82853020D01*
X128222409Y-82815397D01*
X128258453Y-82785583D01*
X128281460Y-82770811D01*
X128364660Y-82733451D01*
X128461368Y-82725128D01*
X128495176Y-82727292D01*
G37*
G36*
X129048436Y-91154876D02*
G01*
X129064370Y-91175400D01*
X129072335Y-91222727D01*
X129075014Y-91307589D01*
X129075210Y-91363865D01*
X129075210Y-91577310D01*
X128634979Y-91577310D01*
X128194748Y-91577310D01*
X128194748Y-91377205D01*
X128196009Y-91274894D01*
X128201755Y-91214864D01*
X128214938Y-91186057D01*
X128238504Y-91177414D01*
X128248110Y-91177100D01*
X128278947Y-91183470D01*
X128295012Y-91211008D01*
X128300902Y-91272362D01*
X128301471Y-91323844D01*
X128301471Y-91470588D01*
X128434874Y-91470588D01*
X128568278Y-91470588D01*
X128568278Y-91337184D01*
X128571087Y-91257169D01*
X128583012Y-91217262D01*
X128609297Y-91204352D01*
X128621639Y-91203781D01*
X128653645Y-91210805D01*
X128669608Y-91240616D01*
X128674772Y-91306328D01*
X128675000Y-91337184D01*
X128675000Y-91470588D01*
X128821744Y-91470588D01*
X128968488Y-91470588D01*
X128968488Y-91310504D01*
X128970435Y-91221094D01*
X128978988Y-91172781D01*
X128998214Y-91153363D01*
X129021849Y-91150420D01*
X129048436Y-91154876D01*
G37*
G36*
X129049132Y-89367541D02*
G01*
X129065140Y-89389092D01*
X129072822Y-89438525D01*
X129075127Y-89526899D01*
X129075210Y-89562920D01*
X129075210Y-89763025D01*
X128634979Y-89763025D01*
X128194748Y-89763025D01*
X128194748Y-89562920D01*
X128196009Y-89460609D01*
X128201755Y-89400578D01*
X128214938Y-89371771D01*
X128238504Y-89363129D01*
X128248110Y-89362815D01*
X128278947Y-89369184D01*
X128295012Y-89396723D01*
X128300902Y-89458077D01*
X128301471Y-89509558D01*
X128301471Y-89656302D01*
X128434874Y-89656302D01*
X128568278Y-89656302D01*
X128568278Y-89522899D01*
X128571087Y-89442883D01*
X128583012Y-89402976D01*
X128609297Y-89390066D01*
X128621639Y-89389495D01*
X128653645Y-89396519D01*
X128669608Y-89426331D01*
X128674772Y-89492043D01*
X128675000Y-89522899D01*
X128675000Y-89656302D01*
X128821744Y-89656302D01*
X128968488Y-89656302D01*
X128968488Y-89509558D01*
X128970804Y-89424755D01*
X128980818Y-89380578D01*
X129003128Y-89364380D01*
X129021849Y-89362815D01*
X129049132Y-89367541D01*
G37*
G36*
X129049132Y-88300314D02*
G01*
X129065140Y-88321865D01*
X129072822Y-88371298D01*
X129075127Y-88459673D01*
X129075210Y-88495693D01*
X129075210Y-88695798D01*
X128634979Y-88695798D01*
X128194748Y-88695798D01*
X128194748Y-88495693D01*
X128196009Y-88393382D01*
X128201755Y-88333351D01*
X128214938Y-88304544D01*
X128238504Y-88295902D01*
X128248110Y-88295588D01*
X128278947Y-88301957D01*
X128295012Y-88329496D01*
X128300902Y-88390850D01*
X128301471Y-88442331D01*
X128301471Y-88589075D01*
X128434874Y-88589075D01*
X128568278Y-88589075D01*
X128568278Y-88455672D01*
X128571087Y-88375656D01*
X128583012Y-88335749D01*
X128609297Y-88322839D01*
X128621639Y-88322268D01*
X128653645Y-88329292D01*
X128669608Y-88359104D01*
X128674772Y-88424816D01*
X128675000Y-88455672D01*
X128675000Y-88589075D01*
X128821744Y-88589075D01*
X128968488Y-88589075D01*
X128968488Y-88442331D01*
X128970804Y-88357529D01*
X128980818Y-88313351D01*
X129003128Y-88297153D01*
X129021849Y-88295588D01*
X129049132Y-88300314D01*
G37*
G36*
X129075210Y-92387406D02*
G01*
X129069765Y-92416149D01*
X129048207Y-92443144D01*
X129002703Y-92473274D01*
X128925419Y-92511427D01*
X128808521Y-92562486D01*
X128765058Y-92580841D01*
X128454906Y-92711239D01*
X128765058Y-92718756D01*
X128897888Y-92722601D01*
X128986306Y-92727632D01*
X129039260Y-92735579D01*
X129065698Y-92748176D01*
X129074566Y-92767154D01*
X129075210Y-92778787D01*
X129072607Y-92798173D01*
X129059757Y-92812095D01*
X129029107Y-92821454D01*
X128973099Y-92827151D01*
X128884176Y-92830090D01*
X128754783Y-92831169D01*
X128634979Y-92831302D01*
X128194748Y-92831302D01*
X128194748Y-92769636D01*
X128200855Y-92740149D01*
X128224596Y-92712387D01*
X128274107Y-92681200D01*
X128357520Y-92641436D01*
X128479136Y-92589542D01*
X128763524Y-92471113D01*
X128479136Y-92463540D01*
X128353383Y-92459786D01*
X128271542Y-92454934D01*
X128224184Y-92446552D01*
X128201876Y-92432207D01*
X128195188Y-92409464D01*
X128194748Y-92390168D01*
X128194748Y-92324369D01*
X128634979Y-92324369D01*
X129075210Y-92324369D01*
X129075210Y-92387406D01*
G37*
G36*
X128928196Y-86588834D02*
G01*
X128956174Y-86600075D01*
X129045916Y-86662002D01*
X129091255Y-86749896D01*
X129089102Y-86855953D01*
X129074896Y-86900126D01*
X129024412Y-86969282D01*
X128935149Y-87016743D01*
X128803185Y-87043864D01*
X128634979Y-87052022D01*
X128460886Y-87043316D01*
X128332218Y-87016074D01*
X128243766Y-86968608D01*
X128195539Y-86909671D01*
X128169407Y-86811575D01*
X128189633Y-86717127D01*
X128249766Y-86637609D01*
X128343352Y-86584301D01*
X128388183Y-86572934D01*
X128453501Y-86564789D01*
X128481895Y-86575356D01*
X128488231Y-86610499D01*
X128488236Y-86612403D01*
X128472042Y-86658561D01*
X128415898Y-86683756D01*
X128407246Y-86685599D01*
X128329816Y-86719642D01*
X128290477Y-86774234D01*
X128291306Y-86835535D01*
X128334379Y-86889709D01*
X128373548Y-86910237D01*
X128445357Y-86925286D01*
X128549406Y-86932972D01*
X128667011Y-86933519D01*
X128779491Y-86927152D01*
X128868164Y-86914094D01*
X128900531Y-86903910D01*
X128955232Y-86859247D01*
X128968488Y-86799257D01*
X128958696Y-86745345D01*
X128919516Y-86711978D01*
X128875105Y-86694747D01*
X128803709Y-86658181D01*
X128781723Y-86612636D01*
X128796457Y-86572428D01*
X128843740Y-86564605D01*
X128928196Y-86588834D01*
G37*
G36*
X128797440Y-85947984D02*
G01*
X128914103Y-85949480D01*
X128992531Y-85953093D01*
X129040288Y-85959741D01*
X129064935Y-85970341D01*
X129074037Y-85985808D01*
X129075210Y-86001050D01*
X129070484Y-86028333D01*
X129048933Y-86044341D01*
X128999500Y-86052023D01*
X128911126Y-86054328D01*
X128875105Y-86054411D01*
X128675000Y-86054411D01*
X128675000Y-86187815D01*
X128675000Y-86321218D01*
X128875105Y-86321218D01*
X128976887Y-86322049D01*
X129036549Y-86327041D01*
X129065332Y-86339940D01*
X129074475Y-86364492D01*
X129075210Y-86387920D01*
X129075210Y-86454621D01*
X128634979Y-86454621D01*
X128194748Y-86454621D01*
X128194748Y-86387920D01*
X128197495Y-86353072D01*
X128213486Y-86333128D01*
X128254349Y-86323934D01*
X128331712Y-86321339D01*
X128381513Y-86321218D01*
X128568278Y-86321218D01*
X128568278Y-86187815D01*
X128568278Y-86054411D01*
X128381513Y-86054411D01*
X128283362Y-86052972D01*
X128227133Y-86046479D01*
X128201416Y-86031675D01*
X128194800Y-86005298D01*
X128194748Y-86001050D01*
X128197181Y-85981358D01*
X128209523Y-85967217D01*
X128239336Y-85957710D01*
X128294184Y-85951922D01*
X128381628Y-85948934D01*
X128509233Y-85947831D01*
X128634979Y-85947689D01*
X128797440Y-85947984D01*
G37*
G36*
X128806670Y-91702982D02*
G01*
X128935754Y-91739569D01*
X129029765Y-91798985D01*
X129084195Y-91878722D01*
X129094534Y-91976274D01*
X129074896Y-92049495D01*
X129021912Y-92114319D01*
X128927419Y-92164327D01*
X128801804Y-92197135D01*
X128655451Y-92210359D01*
X128615702Y-92208141D01*
X128498746Y-92201616D01*
X128447103Y-92193608D01*
X128310241Y-92152088D01*
X128218228Y-92086048D01*
X128172825Y-91997022D01*
X128168068Y-91950840D01*
X128274790Y-91950840D01*
X128292012Y-91987647D01*
X128328152Y-92030882D01*
X128362534Y-92057398D01*
X128409263Y-92073528D01*
X128481227Y-92081664D01*
X128591314Y-92084198D01*
X128615702Y-92084243D01*
X128752151Y-92080491D01*
X128844945Y-92068363D01*
X128903320Y-92046553D01*
X128909190Y-92042709D01*
X128955906Y-91985742D01*
X128965957Y-91918673D01*
X128938579Y-91861093D01*
X128916880Y-91845056D01*
X128867854Y-91832665D01*
X128780960Y-91823151D01*
X128671672Y-91817970D01*
X128623393Y-91817437D01*
X128503404Y-91819100D01*
X128424108Y-91825611D01*
X128372897Y-91839246D01*
X128337165Y-91862286D01*
X128328152Y-91870798D01*
X128288979Y-91918581D01*
X128274790Y-91950840D01*
X128168068Y-91950840D01*
X128191178Y-91851769D01*
X128260901Y-91777032D01*
X128377821Y-91726143D01*
X128461319Y-91708324D01*
X128647022Y-91691732D01*
X128806670Y-91702982D01*
G37*
G36*
X128806670Y-83912226D02*
G01*
X128935754Y-83948813D01*
X129029765Y-84008228D01*
X129084195Y-84087966D01*
X129094534Y-84185518D01*
X129074896Y-84258739D01*
X129021912Y-84323563D01*
X128927419Y-84373571D01*
X128801804Y-84406379D01*
X128655451Y-84419603D01*
X128615702Y-84417385D01*
X128498746Y-84410860D01*
X128447103Y-84402851D01*
X128310241Y-84361331D01*
X128218228Y-84295292D01*
X128172825Y-84206266D01*
X128168068Y-84160084D01*
X128274790Y-84160084D01*
X128292012Y-84196891D01*
X128328152Y-84240126D01*
X128362534Y-84266641D01*
X128409263Y-84282771D01*
X128481227Y-84290907D01*
X128591314Y-84293441D01*
X128615702Y-84293487D01*
X128752151Y-84289735D01*
X128844945Y-84277607D01*
X128903320Y-84255797D01*
X128909190Y-84251953D01*
X128955906Y-84194986D01*
X128965957Y-84127916D01*
X128938579Y-84070337D01*
X128916880Y-84054300D01*
X128867854Y-84041908D01*
X128780960Y-84032394D01*
X128671672Y-84027214D01*
X128623393Y-84026680D01*
X128503404Y-84028344D01*
X128424108Y-84034854D01*
X128372897Y-84048490D01*
X128337165Y-84071529D01*
X128328152Y-84080042D01*
X128288979Y-84127825D01*
X128274790Y-84160084D01*
X128168068Y-84160084D01*
X128191178Y-84061013D01*
X128260901Y-83986275D01*
X128377821Y-83935386D01*
X128461319Y-83917568D01*
X128647022Y-83900975D01*
X128806670Y-83912226D01*
G37*
G36*
X128459284Y-88834423D02*
G01*
X128461555Y-88865887D01*
X128447579Y-88916388D01*
X128396598Y-88942020D01*
X128384882Y-88944588D01*
X128317355Y-88976615D01*
X128285341Y-89028420D01*
X128291093Y-89084309D01*
X128336864Y-89128587D01*
X128357297Y-89136811D01*
X128437121Y-89141665D01*
X128507223Y-89099533D01*
X128572125Y-89007444D01*
X128581449Y-88989619D01*
X128659787Y-88881475D01*
X128759425Y-88820763D01*
X128876804Y-88809357D01*
X128912452Y-88815274D01*
X129004033Y-88859159D01*
X129066355Y-88935357D01*
X129092614Y-89029170D01*
X129076008Y-89125900D01*
X129065744Y-89146433D01*
X129002769Y-89217946D01*
X128918157Y-89267919D01*
X128855095Y-89281827D01*
X128815358Y-89267144D01*
X128811469Y-89229572D01*
X128840049Y-89182400D01*
X128890407Y-89142911D01*
X128947497Y-89100003D01*
X128965029Y-89050064D01*
X128963610Y-89022848D01*
X128950226Y-88972668D01*
X128914345Y-88949334D01*
X128857557Y-88941130D01*
X128799946Y-88939869D01*
X128761087Y-88955347D01*
X128726051Y-88998467D01*
X128688264Y-89064738D01*
X128615938Y-89170627D01*
X128533383Y-89231337D01*
X128428026Y-89254998D01*
X128392385Y-89256092D01*
X128290672Y-89235205D01*
X128218580Y-89180549D01*
X128178314Y-89104137D01*
X128172076Y-89017978D01*
X128202070Y-88934083D01*
X128270500Y-88864463D01*
X128316102Y-88840283D01*
X128397088Y-88810421D01*
X128441413Y-88807869D01*
X128459284Y-88834423D01*
G37*
G36*
X129066491Y-87688055D02*
G01*
X129072359Y-87725525D01*
X129070884Y-87737344D01*
X129049710Y-87785135D01*
X128994290Y-87814961D01*
X128961818Y-87823761D01*
X128899148Y-87842054D01*
X128870278Y-87869458D01*
X128862143Y-87924036D01*
X128861765Y-87962079D01*
X128864850Y-88034689D01*
X128882815Y-88072033D01*
X128928728Y-88092174D01*
X128961818Y-88100398D01*
X129033665Y-88126311D01*
X129066072Y-88166073D01*
X129070884Y-88186815D01*
X129069556Y-88232273D01*
X129040087Y-88238962D01*
X129030863Y-88236827D01*
X128801191Y-88176535D01*
X128689656Y-88146964D01*
X128617931Y-88127948D01*
X128475852Y-88089345D01*
X128369721Y-88059008D01*
X128294306Y-88035217D01*
X128244374Y-88016253D01*
X128214693Y-88000397D01*
X128200031Y-87985928D01*
X128195155Y-87971129D01*
X128194748Y-87962079D01*
X128194987Y-87959847D01*
X128399773Y-87959847D01*
X128530717Y-87993800D01*
X128630504Y-88017858D01*
X128689656Y-88024826D01*
X128718622Y-88013025D01*
X128727854Y-87980778D01*
X128728362Y-87962079D01*
X128719921Y-87911928D01*
X128703716Y-87895378D01*
X128665501Y-87900999D01*
X128594102Y-87915416D01*
X128539422Y-87927613D01*
X128399773Y-87959847D01*
X128194987Y-87959847D01*
X128196436Y-87946346D01*
X128204986Y-87931905D01*
X128225633Y-87917036D01*
X128263607Y-87900020D01*
X128324142Y-87879138D01*
X128412470Y-87852669D01*
X128533823Y-87818896D01*
X128693434Y-87776098D01*
X128896534Y-87722556D01*
X129030863Y-87687331D01*
X129066491Y-87688055D01*
G37*
G36*
X128701293Y-83335206D02*
G01*
X128828365Y-83341368D01*
X128924005Y-83350709D01*
X128977321Y-83362466D01*
X128977631Y-83362606D01*
X129052867Y-83423434D01*
X129091905Y-83512322D01*
X129090247Y-83614406D01*
X129070686Y-83670118D01*
X129040585Y-83713989D01*
X128993988Y-83745701D01*
X128923037Y-83767025D01*
X128819874Y-83779729D01*
X128676641Y-83785583D01*
X128553682Y-83786554D01*
X128409241Y-83786129D01*
X128309798Y-83784024D01*
X128246989Y-83778996D01*
X128212453Y-83769802D01*
X128197828Y-83755200D01*
X128194750Y-83733944D01*
X128194748Y-83733193D01*
X128197636Y-83711616D01*
X128211906Y-83696798D01*
X128245967Y-83687476D01*
X128308229Y-83682384D01*
X128407101Y-83680257D01*
X128549601Y-83679831D01*
X128708674Y-83678382D01*
X128821977Y-83672590D01*
X128897061Y-83660294D01*
X128941473Y-83639328D01*
X128962762Y-83607531D01*
X128968475Y-83562737D01*
X128968488Y-83559768D01*
X128963430Y-83514174D01*
X128943225Y-83481699D01*
X128900323Y-83460178D01*
X128827177Y-83447448D01*
X128716238Y-83441347D01*
X128559958Y-83439709D01*
X128549601Y-83439705D01*
X128406115Y-83439271D01*
X128307579Y-83437125D01*
X128245583Y-83432003D01*
X128211719Y-83422641D01*
X128197577Y-83407773D01*
X128194748Y-83386344D01*
X128197610Y-83364871D01*
X128211768Y-83350087D01*
X128245587Y-83340749D01*
X128307428Y-83335615D01*
X128405653Y-83333441D01*
X128548626Y-83332983D01*
X128553682Y-83332983D01*
X128701293Y-83335206D01*
G37*
G36*
X128911948Y-85097426D02*
G01*
X128980241Y-85109927D01*
X129022779Y-85134324D01*
X129030737Y-85142349D01*
X129076081Y-85227149D01*
X129089448Y-85332000D01*
X129073091Y-85417084D01*
X129034030Y-85483913D01*
X128971315Y-85530289D01*
X128877677Y-85558494D01*
X128745851Y-85570810D01*
X128585673Y-85570102D01*
X128457583Y-85565321D01*
X128371271Y-85558964D01*
X128315170Y-85548273D01*
X128277710Y-85530494D01*
X128247322Y-85502872D01*
X128232410Y-85485959D01*
X128187652Y-85412483D01*
X128168119Y-85337255D01*
X128168068Y-85334033D01*
X128192303Y-85243548D01*
X128255591Y-85164382D01*
X128343806Y-85112256D01*
X128374843Y-85103884D01*
X128434256Y-85096971D01*
X128457964Y-85112537D01*
X128461555Y-85143425D01*
X128439130Y-85195413D01*
X128394150Y-85216531D01*
X128323501Y-85254320D01*
X128289085Y-85314725D01*
X128299162Y-85383063D01*
X128299791Y-85384256D01*
X128326872Y-85421928D01*
X128366922Y-85446373D01*
X128430696Y-85460291D01*
X128528953Y-85466382D01*
X128631225Y-85467437D01*
X128784701Y-85459502D01*
X128890081Y-85434917D01*
X128950336Y-85392515D01*
X128968488Y-85334702D01*
X128957009Y-85254103D01*
X128915952Y-85212671D01*
X128835389Y-85200639D01*
X128832230Y-85200630D01*
X128764645Y-85204509D01*
X128735077Y-85222636D01*
X128728369Y-85264742D01*
X128728362Y-85267331D01*
X128715855Y-85319636D01*
X128675000Y-85334033D01*
X128641654Y-85326177D01*
X128625885Y-85293558D01*
X128621659Y-85222595D01*
X128621639Y-85213970D01*
X128621639Y-85093907D01*
X128804269Y-85093907D01*
X128911948Y-85097426D01*
G37*
G36*
X129072415Y-89865764D02*
G01*
X129075210Y-89903337D01*
X129066816Y-89939111D01*
X129034650Y-89969143D01*
X128968235Y-90000831D01*
X128901786Y-90025804D01*
X128803434Y-90065130D01*
X128748648Y-90098614D01*
X128728869Y-90131841D01*
X128728362Y-90138958D01*
X128734436Y-90166615D01*
X128760440Y-90182037D01*
X128818041Y-90188653D01*
X128901786Y-90189916D01*
X128995641Y-90191579D01*
X129047967Y-90198987D01*
X129070556Y-90215768D01*
X129075210Y-90243277D01*
X129072777Y-90262969D01*
X129060435Y-90277110D01*
X129030622Y-90286616D01*
X128975775Y-90292405D01*
X128888331Y-90295393D01*
X128760726Y-90296496D01*
X128634979Y-90296638D01*
X128461555Y-90296638D01*
X128194748Y-90296638D01*
X128194748Y-90138491D01*
X128195632Y-90110812D01*
X128301471Y-90110812D01*
X128303638Y-90154599D01*
X128318524Y-90178233D01*
X128358705Y-90187928D01*
X128436760Y-90189901D01*
X128461555Y-90189916D01*
X128550965Y-90187968D01*
X128599278Y-90179416D01*
X128618696Y-90160189D01*
X128621639Y-90136554D01*
X128603531Y-90078472D01*
X128568278Y-90029831D01*
X128494848Y-89984446D01*
X128417326Y-89978355D01*
X128350330Y-90007121D01*
X128308477Y-90066307D01*
X128301471Y-90110812D01*
X128195632Y-90110812D01*
X128197721Y-90045400D01*
X128210569Y-89987629D01*
X128239184Y-89947288D01*
X128265048Y-89925045D01*
X128348483Y-89885106D01*
X128450679Y-89871324D01*
X128553329Y-89882396D01*
X128638130Y-89917018D01*
X128676937Y-89954370D01*
X128707448Y-89957092D01*
X128773579Y-89942544D01*
X128861633Y-89913834D01*
X128870981Y-89910354D01*
X128960423Y-89877310D01*
X129028551Y-89853304D01*
X129061697Y-89843139D01*
X129062479Y-89843067D01*
X129072415Y-89865764D01*
G37*
G36*
X129072415Y-87144335D02*
G01*
X129075210Y-87181908D01*
X129066816Y-87217682D01*
X129034650Y-87247714D01*
X128968235Y-87279403D01*
X128901786Y-87304375D01*
X128803434Y-87343701D01*
X128748648Y-87377186D01*
X128728869Y-87410412D01*
X128728362Y-87417529D01*
X128734436Y-87445186D01*
X128760440Y-87460608D01*
X128818041Y-87467225D01*
X128901786Y-87468487D01*
X128995641Y-87470150D01*
X129047967Y-87477558D01*
X129070556Y-87494339D01*
X129075210Y-87521848D01*
X129072777Y-87541540D01*
X129060435Y-87555681D01*
X129030622Y-87565188D01*
X128975775Y-87570977D01*
X128888331Y-87573964D01*
X128760726Y-87575067D01*
X128634979Y-87575210D01*
X128461555Y-87575210D01*
X128194748Y-87575210D01*
X128194748Y-87417062D01*
X128195632Y-87389384D01*
X128301471Y-87389384D01*
X128303638Y-87433170D01*
X128318524Y-87456804D01*
X128358705Y-87466500D01*
X128436760Y-87468472D01*
X128461555Y-87468487D01*
X128550965Y-87466540D01*
X128599278Y-87457987D01*
X128618696Y-87438760D01*
X128621639Y-87415126D01*
X128603531Y-87357044D01*
X128568278Y-87308403D01*
X128494848Y-87263018D01*
X128417326Y-87256926D01*
X128350330Y-87285692D01*
X128308477Y-87344878D01*
X128301471Y-87389384D01*
X128195632Y-87389384D01*
X128197721Y-87323971D01*
X128210569Y-87266201D01*
X128239184Y-87225859D01*
X128265048Y-87203617D01*
X128348483Y-87163677D01*
X128450679Y-87149895D01*
X128553329Y-87160967D01*
X128638130Y-87195590D01*
X128676937Y-87232941D01*
X128707448Y-87235663D01*
X128773579Y-87221115D01*
X128861633Y-87192405D01*
X128870981Y-87188926D01*
X128960423Y-87155882D01*
X129028551Y-87131876D01*
X129061697Y-87121710D01*
X129062479Y-87121638D01*
X129072415Y-87144335D01*
G37*
G36*
X125987199Y-75055622D02*
G01*
X126273362Y-75117024D01*
X126392952Y-75150750D01*
X126468826Y-75176395D01*
X126508623Y-75200371D01*
X126519983Y-75229091D01*
X126510546Y-75268965D01*
X126496663Y-75304441D01*
X126458251Y-75400163D01*
X126248513Y-75339414D01*
X125889848Y-75262743D01*
X125520758Y-75235260D01*
X125147085Y-75255334D01*
X124774670Y-75321332D01*
X124409357Y-75431621D01*
X124056985Y-75584569D01*
X123723397Y-75778543D01*
X123414435Y-76011911D01*
X123230750Y-76182771D01*
X122973224Y-76480427D01*
X122758471Y-76809759D01*
X122586703Y-77170265D01*
X122458129Y-77561437D01*
X122372961Y-77982771D01*
X122336904Y-78330357D01*
X122318066Y-78623844D01*
X122383284Y-78563813D01*
X122439982Y-78517114D01*
X122470725Y-78512603D01*
X122483106Y-78554268D01*
X122484912Y-78617174D01*
X122478128Y-78691670D01*
X122452053Y-78756555D01*
X122397710Y-78831642D01*
X122376114Y-78857300D01*
X122315564Y-78923573D01*
X122266497Y-78969442D01*
X122242286Y-78984033D01*
X122210494Y-78967196D01*
X122154035Y-78923586D01*
X122100981Y-78877012D01*
X122023509Y-78794772D01*
X121981503Y-78718031D01*
X121967289Y-78660004D01*
X121958322Y-78575421D01*
X121968359Y-78538575D01*
X122000278Y-78546339D01*
X122040847Y-78580060D01*
X122103332Y-78638761D01*
X122120662Y-78335339D01*
X122169901Y-77878722D01*
X122263314Y-77449331D01*
X122399927Y-77048630D01*
X122578771Y-76678082D01*
X122798873Y-76339148D01*
X123059262Y-76033292D01*
X123358966Y-75761975D01*
X123697013Y-75526661D01*
X124072433Y-75328812D01*
X124136688Y-75300392D01*
X124495199Y-75170130D01*
X124868974Y-75079710D01*
X125248545Y-75029944D01*
X125624443Y-75021643D01*
X125987199Y-75055622D01*
G37*
G36*
X129074911Y-84526835D02*
G01*
X129075210Y-84541170D01*
X129068863Y-84579149D01*
X129042544Y-84608657D01*
X128985338Y-84637742D01*
X128901786Y-84669022D01*
X128807885Y-84704940D01*
X128754854Y-84734493D01*
X128732046Y-84765232D01*
X128728362Y-84792013D01*
X128732086Y-84825261D01*
X128751262Y-84843784D01*
X128797897Y-84851859D01*
X128883997Y-84853763D01*
X128901786Y-84853781D01*
X128995641Y-84855444D01*
X129047967Y-84862852D01*
X129070556Y-84879633D01*
X129075210Y-84907142D01*
X129072777Y-84926835D01*
X129060435Y-84940976D01*
X129030622Y-84950482D01*
X128975775Y-84956271D01*
X128888331Y-84959258D01*
X128760726Y-84960361D01*
X128634979Y-84960504D01*
X128461555Y-84960504D01*
X128194748Y-84960504D01*
X128194748Y-84791215D01*
X128195239Y-84777006D01*
X128301471Y-84777006D01*
X128303824Y-84819506D01*
X128319267Y-84842445D01*
X128360375Y-84851856D01*
X128439723Y-84853768D01*
X128461555Y-84853781D01*
X128550423Y-84852194D01*
X128598417Y-84844237D01*
X128618000Y-84825112D01*
X128621639Y-84792179D01*
X128605801Y-84719681D01*
X128585395Y-84681009D01*
X128529308Y-84643616D01*
X128450219Y-84632070D01*
X128372624Y-84647905D01*
X128342914Y-84665836D01*
X128312224Y-84716624D01*
X128301471Y-84777006D01*
X128195239Y-84777006D01*
X128198230Y-84690375D01*
X128211421Y-84626466D01*
X128238439Y-84583351D01*
X128250911Y-84571099D01*
X128323551Y-84534526D01*
X128423068Y-84518802D01*
X128527552Y-84524014D01*
X128615094Y-84550249D01*
X128643784Y-84569530D01*
X128669013Y-84590325D01*
X128695180Y-84601042D01*
X128731607Y-84599825D01*
X128787612Y-84584824D01*
X128872515Y-84554185D01*
X128995635Y-84506054D01*
X129028519Y-84493035D01*
X129063499Y-84489945D01*
X129074911Y-84526835D01*
G37*
G36*
X122441726Y-79268563D02*
G01*
X122461438Y-79317937D01*
X122467354Y-79349436D01*
X122510286Y-79531112D01*
X122582458Y-79738451D01*
X122677671Y-79957218D01*
X122789729Y-80173179D01*
X122912432Y-80372101D01*
X122913005Y-80372945D01*
X123035177Y-80533957D01*
X123189144Y-80708128D01*
X123360966Y-80881122D01*
X123536706Y-81038605D01*
X123641448Y-81122114D01*
X123755967Y-81201294D01*
X123898579Y-81289550D01*
X124048543Y-81374452D01*
X124149197Y-81426415D01*
X124518965Y-81578957D01*
X124897456Y-81679219D01*
X125282928Y-81727244D01*
X125673637Y-81723079D01*
X126067843Y-81666768D01*
X126463801Y-81558354D01*
X126859770Y-81397884D01*
X126948514Y-81354695D01*
X127079387Y-81284725D01*
X127159612Y-81231550D01*
X127189191Y-81195169D01*
X127168126Y-81175579D01*
X127125947Y-81171848D01*
X127081201Y-81161325D01*
X127083659Y-81132227D01*
X127132036Y-81088264D01*
X127161595Y-81068801D01*
X127203180Y-81044817D01*
X127241376Y-81031425D01*
X127287964Y-81028943D01*
X127354726Y-81037689D01*
X127453445Y-81057978D01*
X127547742Y-81079190D01*
X127580985Y-81089131D01*
X127598119Y-81107686D01*
X127600375Y-81146364D01*
X127588982Y-81216677D01*
X127571429Y-81300808D01*
X127540608Y-81404161D01*
X127491823Y-81475700D01*
X127409981Y-81535525D01*
X127384161Y-81550143D01*
X127351821Y-81563338D01*
X127342543Y-81545815D01*
X127350974Y-81487061D01*
X127351259Y-81485543D01*
X127368543Y-81393407D01*
X127065474Y-81545271D01*
X126657127Y-81723038D01*
X126245092Y-81849645D01*
X125831883Y-81924865D01*
X125420016Y-81948474D01*
X125012004Y-81920245D01*
X124610363Y-81839953D01*
X124419550Y-81782511D01*
X124051464Y-81631746D01*
X123700839Y-81433994D01*
X123373536Y-81194351D01*
X123075416Y-80917914D01*
X122812341Y-80609781D01*
X122590171Y-80275050D01*
X122505533Y-80117962D01*
X122431261Y-79955254D01*
X122362579Y-79778180D01*
X122305654Y-79604560D01*
X122266651Y-79452215D01*
X122257400Y-79400893D01*
X122248003Y-79326134D01*
X122253131Y-79289984D01*
X122278347Y-79278449D01*
X122306448Y-79277521D01*
X122374366Y-79271840D01*
X122412558Y-79262724D01*
X122441726Y-79268563D01*
G37*
G36*
X127543246Y-86185752D02*
G01*
X127550348Y-86251380D01*
X127554100Y-86345678D01*
X127554412Y-86384536D01*
X127554412Y-86607938D01*
X126313761Y-87401928D01*
X125073110Y-88195919D01*
X125073110Y-88485879D01*
X125073110Y-88775840D01*
X126300421Y-88775840D01*
X127527731Y-88775840D01*
X127527731Y-88962605D01*
X127527731Y-89149369D01*
X124726261Y-89149369D01*
X122298320Y-89149369D01*
X121924790Y-89149369D01*
X121925028Y-88775840D01*
X122298320Y-88775840D01*
X123502355Y-88775840D01*
X124706391Y-88775840D01*
X124691909Y-88248897D01*
X124681896Y-87988065D01*
X124667651Y-87780090D01*
X124649186Y-87625099D01*
X124634538Y-87551280D01*
X124557008Y-87325144D01*
X124445603Y-87117089D01*
X124306880Y-86935382D01*
X124147396Y-86788289D01*
X123973709Y-86684077D01*
X123933433Y-86667418D01*
X123697922Y-86605247D01*
X123461342Y-86594709D01*
X123229123Y-86634473D01*
X123006697Y-86723208D01*
X122799495Y-86859584D01*
X122672399Y-86976417D01*
X122562772Y-87101875D01*
X122475657Y-87230167D01*
X122408815Y-87369160D01*
X122360004Y-87526721D01*
X122326987Y-87710718D01*
X122307524Y-87929019D01*
X122299374Y-88189490D01*
X122298783Y-88288918D01*
X122298320Y-88775840D01*
X121925028Y-88775840D01*
X121925254Y-88422321D01*
X121926371Y-88163219D01*
X121930102Y-87949702D01*
X121937555Y-87774016D01*
X121949842Y-87628407D01*
X121968073Y-87505120D01*
X121993359Y-87396400D01*
X122026808Y-87294492D01*
X122069533Y-87191643D01*
X122115311Y-87094958D01*
X122261770Y-86853842D01*
X122443522Y-86648014D01*
X122654589Y-86479503D01*
X122888993Y-86350342D01*
X123140756Y-86262560D01*
X123403900Y-86218189D01*
X123672447Y-86219260D01*
X123940418Y-86267803D01*
X124201835Y-86365850D01*
X124226182Y-86377849D01*
X124371036Y-86469478D01*
X124520928Y-86596178D01*
X124661287Y-86743394D01*
X124777542Y-86896568D01*
X124824705Y-86975760D01*
X124870766Y-87075017D01*
X124919329Y-87199756D01*
X124965774Y-87335486D01*
X125005485Y-87467716D01*
X125033843Y-87581955D01*
X125046232Y-87663709D01*
X125046429Y-87671577D01*
X125050531Y-87720333D01*
X125057886Y-87735294D01*
X125081581Y-87721408D01*
X125145070Y-87681922D01*
X125243263Y-87620090D01*
X125371068Y-87539168D01*
X125523392Y-87442410D01*
X125695146Y-87333072D01*
X125881236Y-87214409D01*
X126076573Y-87089677D01*
X126276064Y-86962129D01*
X126474617Y-86835022D01*
X126667142Y-86711610D01*
X126848546Y-86595148D01*
X127013739Y-86488893D01*
X127157629Y-86396098D01*
X127275124Y-86320019D01*
X127361133Y-86263912D01*
X127407554Y-86233084D01*
X127473766Y-86190771D01*
X127521843Y-86164906D01*
X127533925Y-86161134D01*
X127543246Y-86185752D01*
G37*
G36*
X127527731Y-82892752D02*
G01*
X127527731Y-83092857D01*
X127356676Y-83092857D01*
X127185621Y-83092857D01*
X127302367Y-83266956D01*
X127415299Y-83473905D01*
X127499558Y-83708296D01*
X127552231Y-83955470D01*
X127570402Y-84200768D01*
X127551159Y-84429532D01*
X127542216Y-84473551D01*
X127461601Y-84710338D01*
X127332176Y-84927156D01*
X127154851Y-85123401D01*
X126930539Y-85298473D01*
X126660151Y-85451770D01*
X126344599Y-85582689D01*
X125984794Y-85690630D01*
X125581647Y-85774991D01*
X125566702Y-85777519D01*
X125387891Y-85799969D01*
X125170472Y-85815347D01*
X124928729Y-85823631D01*
X124676949Y-85824802D01*
X124429415Y-85818838D01*
X124200412Y-85805719D01*
X124004226Y-85785424D01*
X123965862Y-85779834D01*
X123550882Y-85699403D01*
X123181330Y-85594443D01*
X122857662Y-85465203D01*
X122580332Y-85311931D01*
X122349796Y-85134876D01*
X122166509Y-84934285D01*
X122040037Y-84729234D01*
X121996941Y-84639052D01*
X121968002Y-84565672D01*
X121949862Y-84493486D01*
X121939161Y-84406886D01*
X121932542Y-84290264D01*
X121929743Y-84216666D01*
X121927646Y-84008295D01*
X121939937Y-83835989D01*
X121969698Y-83683664D01*
X122020012Y-83535235D01*
X122089405Y-83383691D01*
X122173711Y-83242026D01*
X122283829Y-83095248D01*
X122407599Y-82957016D01*
X122532863Y-82840989D01*
X122640389Y-82764782D01*
X122724291Y-82716854D01*
X122819876Y-82866277D01*
X122867261Y-82945158D01*
X122898596Y-83006721D01*
X122907048Y-83036975D01*
X122883453Y-83063259D01*
X122829374Y-83112248D01*
X122756239Y-83173617D01*
X122751891Y-83177146D01*
X122577866Y-83350016D01*
X122442902Y-83550969D01*
X122349653Y-83771843D01*
X122300775Y-84004479D01*
X122298921Y-84240713D01*
X122338857Y-84446985D01*
X122418439Y-84623273D01*
X122546473Y-84786499D01*
X122719315Y-84935160D01*
X122933321Y-85067753D01*
X123184849Y-85182774D01*
X123470256Y-85278721D01*
X123785897Y-85354090D01*
X124128130Y-85407378D01*
X124493312Y-85437082D01*
X124752942Y-85443043D01*
X125151170Y-85429369D01*
X125523635Y-85389182D01*
X125867118Y-85323734D01*
X126178402Y-85234274D01*
X126454269Y-85122055D01*
X126691502Y-84988328D01*
X126886882Y-84834344D01*
X127037192Y-84661353D01*
X127116513Y-84523996D01*
X127154437Y-84425950D01*
X127174321Y-84324121D01*
X127180578Y-84195022D01*
X127180622Y-84182904D01*
X127156866Y-83925815D01*
X127086418Y-83689633D01*
X126971529Y-83478651D01*
X126814450Y-83297159D01*
X126648716Y-83168817D01*
X126530099Y-83092857D01*
X125801605Y-83092857D01*
X125073110Y-83092857D01*
X125073110Y-83626470D01*
X125073110Y-84160084D01*
X124886345Y-84160084D01*
X124699580Y-84160084D01*
X124699580Y-83426365D01*
X124699580Y-82692647D01*
X126113656Y-82692647D01*
X127527731Y-82692647D01*
X127527731Y-82892752D01*
G37*
G36*
X127150092Y-75318401D02*
G01*
X127200262Y-75337754D01*
X127217684Y-75345959D01*
X127278532Y-75378994D01*
X127312031Y-75404992D01*
X127314286Y-75409905D01*
X127291515Y-75428488D01*
X127235874Y-75450193D01*
X127227694Y-75452619D01*
X127141101Y-75477453D01*
X127293160Y-75564453D01*
X127638890Y-75789950D01*
X127956446Y-76052754D01*
X128241380Y-76347386D01*
X128489243Y-76668366D01*
X128695587Y-77010218D01*
X128855964Y-77367460D01*
X128924417Y-77573504D01*
X128984847Y-77836424D01*
X129025471Y-78130733D01*
X129045322Y-78438185D01*
X129043435Y-78740536D01*
X129018844Y-79019542D01*
X129005453Y-79104096D01*
X128907221Y-79514547D01*
X128764859Y-79901534D01*
X128580409Y-80260975D01*
X128355913Y-80588787D01*
X128140363Y-80834197D01*
X128047060Y-80927399D01*
X127982422Y-80986449D01*
X127939106Y-81016577D01*
X127909770Y-81023012D01*
X127889377Y-81012973D01*
X127884715Y-81012610D01*
X127880412Y-81020906D01*
X127876454Y-81039874D01*
X127872827Y-81071527D01*
X127869516Y-81117877D01*
X127866508Y-81180936D01*
X127863788Y-81262718D01*
X127861342Y-81365234D01*
X127859156Y-81490497D01*
X127857215Y-81640521D01*
X127855506Y-81817316D01*
X127854015Y-82022897D01*
X127852726Y-82259275D01*
X127851627Y-82528464D01*
X127850702Y-82832475D01*
X127849938Y-83173321D01*
X127849321Y-83553015D01*
X127848836Y-83973569D01*
X127848469Y-84436997D01*
X127848206Y-84945309D01*
X127848033Y-85500520D01*
X127847936Y-86104641D01*
X127847901Y-86759686D01*
X127847900Y-86904926D01*
X127847900Y-92831302D01*
X127741177Y-92831302D01*
X127634454Y-92831302D01*
X127634454Y-84766335D01*
X127634435Y-83983862D01*
X127634373Y-83253001D01*
X127634259Y-82572005D01*
X127634083Y-81939125D01*
X127633837Y-81352613D01*
X127633511Y-80810720D01*
X127633098Y-80311698D01*
X127632587Y-79853798D01*
X127631971Y-79435273D01*
X127631239Y-79054372D01*
X127630384Y-78709350D01*
X127629396Y-78398455D01*
X127628266Y-78119942D01*
X127626985Y-77872060D01*
X127625545Y-77653062D01*
X127623936Y-77461199D01*
X127622150Y-77294722D01*
X127620177Y-77151884D01*
X127618008Y-77030936D01*
X127615636Y-76930129D01*
X127613050Y-76847715D01*
X127610242Y-76781946D01*
X127607203Y-76731073D01*
X127603924Y-76693348D01*
X127600395Y-76667022D01*
X127596609Y-76650348D01*
X127592920Y-76642071D01*
X127529878Y-76593050D01*
X127450735Y-76587099D01*
X127386478Y-76616124D01*
X127377842Y-76625830D01*
X127370349Y-76643619D01*
X127363901Y-76673171D01*
X127358399Y-76718162D01*
X127353743Y-76782271D01*
X127349836Y-76869175D01*
X127346579Y-76982552D01*
X127343872Y-77126080D01*
X127341617Y-77303437D01*
X127339714Y-77518300D01*
X127338066Y-77774348D01*
X127336574Y-78075258D01*
X127335138Y-78424709D01*
X127334687Y-78543802D01*
X127333264Y-78908517D01*
X127331838Y-79223653D01*
X127330302Y-79492989D01*
X127328549Y-79720308D01*
X127326474Y-79909390D01*
X127323969Y-80064017D01*
X127320929Y-80187969D01*
X127317246Y-80285029D01*
X127312815Y-80358977D01*
X127307530Y-80413595D01*
X127301283Y-80452663D01*
X127293968Y-80479963D01*
X127285479Y-80499276D01*
X127279373Y-80509203D01*
X127189940Y-80597091D01*
X127074107Y-80648863D01*
X126944863Y-80664400D01*
X126815197Y-80643587D01*
X126698097Y-80586307D01*
X126622944Y-80515107D01*
X126612158Y-80500567D01*
X126602861Y-80483803D01*
X126594942Y-80460983D01*
X126588289Y-80428270D01*
X126582791Y-80381830D01*
X126578336Y-80317829D01*
X126574813Y-80232432D01*
X126572110Y-80121804D01*
X126570115Y-79982111D01*
X126568717Y-79809517D01*
X126567805Y-79600189D01*
X126567266Y-79350292D01*
X126566989Y-79055990D01*
X126566862Y-78713450D01*
X126566834Y-78586895D01*
X126566543Y-78207011D01*
X126565807Y-77877377D01*
X126564571Y-77594883D01*
X126562779Y-77356418D01*
X126560377Y-77158874D01*
X126557310Y-76999140D01*
X126553523Y-76874105D01*
X126548961Y-76780661D01*
X126543569Y-76715697D01*
X126537292Y-76676102D01*
X126532875Y-76662815D01*
X126479013Y-76605525D01*
X126405757Y-76584660D01*
X126332510Y-76601995D01*
X126289643Y-76640571D01*
X126281348Y-76656682D01*
X126274191Y-76682111D01*
X126268089Y-76720582D01*
X126262961Y-76775820D01*
X126258723Y-76851550D01*
X126255295Y-76951496D01*
X126252594Y-77079382D01*
X126250539Y-77238934D01*
X126249046Y-77433876D01*
X126248034Y-77667932D01*
X126247420Y-77944828D01*
X126247124Y-78268287D01*
X126247059Y-78572821D01*
X126247035Y-78933877D01*
X126246889Y-79245391D01*
X126246512Y-79511182D01*
X126245794Y-79735068D01*
X126244626Y-79920869D01*
X126242898Y-80072405D01*
X126240500Y-80193494D01*
X126237324Y-80287955D01*
X126233259Y-80359607D01*
X126228195Y-80412270D01*
X126222025Y-80449762D01*
X126214637Y-80475903D01*
X126205922Y-80494512D01*
X126195771Y-80509407D01*
X126191342Y-80515107D01*
X126092509Y-80602873D01*
X125972590Y-80652488D01*
X125843779Y-80664656D01*
X125718271Y-80640080D01*
X125608259Y-80579463D01*
X125525939Y-80483509D01*
X125522072Y-80476506D01*
X125512641Y-80456527D01*
X125504506Y-80431737D01*
X125497574Y-80398285D01*
X125491748Y-80352324D01*
X125486933Y-80290005D01*
X125483033Y-80207479D01*
X125479953Y-80100897D01*
X125477597Y-79966412D01*
X125475870Y-79800173D01*
X125474676Y-79598333D01*
X125473921Y-79357042D01*
X125473507Y-79072453D01*
X125473341Y-78740716D01*
X125473320Y-78511806D01*
X125473283Y-78150375D01*
X125473104Y-77838577D01*
X125472684Y-77572682D01*
X125471919Y-77348964D01*
X125470709Y-77163692D01*
X125468954Y-77013139D01*
X125466550Y-76893576D01*
X125463399Y-76801274D01*
X125459397Y-76732504D01*
X125454445Y-76683539D01*
X125448440Y-76650650D01*
X125441283Y-76630108D01*
X125432870Y-76618184D01*
X125423102Y-76611150D01*
X125421712Y-76610392D01*
X125331662Y-76584153D01*
X125256251Y-76606495D01*
X125221366Y-76642071D01*
X125213259Y-76658383D01*
X125206263Y-76684977D01*
X125200297Y-76725550D01*
X125195283Y-76783801D01*
X125191141Y-76863428D01*
X125187791Y-76968129D01*
X125185154Y-77101603D01*
X125183150Y-77267549D01*
X125181700Y-77469664D01*
X125180723Y-77711646D01*
X125180141Y-77997195D01*
X125179875Y-78330008D01*
X125179832Y-78572821D01*
X125179808Y-78933877D01*
X125179662Y-79245391D01*
X125179285Y-79511182D01*
X125178567Y-79735068D01*
X125177399Y-79920869D01*
X125175671Y-80072405D01*
X125173273Y-80193494D01*
X125170097Y-80287955D01*
X125166032Y-80359607D01*
X125160969Y-80412270D01*
X125154798Y-80449762D01*
X125147410Y-80475903D01*
X125138695Y-80494512D01*
X125128544Y-80509407D01*
X125124115Y-80515107D01*
X125026094Y-80601492D01*
X124905627Y-80650982D01*
X124775406Y-80663987D01*
X124648125Y-80640913D01*
X124536476Y-80582170D01*
X124456404Y-80493627D01*
X124446718Y-80475751D01*
X124438365Y-80453628D01*
X124431245Y-80423420D01*
X124425262Y-80381289D01*
X124420315Y-80323399D01*
X124416306Y-80245913D01*
X124413138Y-80144992D01*
X124410710Y-80016801D01*
X124408925Y-79857501D01*
X124407684Y-79663256D01*
X124406889Y-79430228D01*
X124406440Y-79154580D01*
X124406240Y-78832476D01*
X124406193Y-78539038D01*
X124406075Y-78174369D01*
X124405711Y-77859387D01*
X124405020Y-77590417D01*
X124403920Y-77363785D01*
X124402332Y-77175817D01*
X124400174Y-77022838D01*
X124397366Y-76901173D01*
X124393827Y-76807150D01*
X124389477Y-76737092D01*
X124384235Y-76687326D01*
X124378020Y-76654178D01*
X124370752Y-76633973D01*
X124364166Y-76624699D01*
X124293445Y-76587330D01*
X124214276Y-76593247D01*
X124156762Y-76631565D01*
X124148176Y-76644579D01*
X124140771Y-76665769D01*
X124134459Y-76698868D01*
X124129155Y-76747610D01*
X124124772Y-76815729D01*
X124121224Y-76906958D01*
X124118424Y-77025030D01*
X124116286Y-77173680D01*
X124114724Y-77356639D01*
X124113652Y-77577643D01*
X124112982Y-77840423D01*
X124112630Y-78148715D01*
X124112509Y-78506251D01*
X124112506Y-78545903D01*
X124112451Y-78906601D01*
X124112256Y-79217800D01*
X124111815Y-79483361D01*
X124111022Y-79707147D01*
X124109768Y-79893021D01*
X124107949Y-80044843D01*
X124105457Y-80166476D01*
X124102185Y-80261783D01*
X124098027Y-80334625D01*
X124092877Y-80388864D01*
X124086627Y-80428362D01*
X124079172Y-80456982D01*
X124070404Y-80478585D01*
X124060216Y-80497034D01*
X124058560Y-80499767D01*
X123975864Y-80588283D01*
X123865216Y-80642885D01*
X123739863Y-80663575D01*
X123613051Y-80650351D01*
X123498029Y-80603214D01*
X123408042Y-80522164D01*
X123392911Y-80499767D01*
X123382884Y-80482165D01*
X123374185Y-80462072D01*
X123366720Y-80435789D01*
X123360394Y-80399619D01*
X123355113Y-80349866D01*
X123350782Y-80282832D01*
X123347307Y-80194820D01*
X123344593Y-80082133D01*
X123342545Y-79941075D01*
X123341070Y-79767946D01*
X123340071Y-79559052D01*
X123339456Y-79310694D01*
X123339129Y-79019175D01*
X123338995Y-78680799D01*
X123338966Y-78390388D01*
X123338866Y-76369327D01*
X123445589Y-76369327D01*
X123552311Y-76369327D01*
X123552311Y-78358250D01*
X123552311Y-80347173D01*
X123617800Y-80412662D01*
X123674026Y-80457381D01*
X123722635Y-80477994D01*
X123725736Y-80478151D01*
X123772473Y-80460398D01*
X123829028Y-80417203D01*
X123833671Y-80412662D01*
X123899160Y-80347173D01*
X123899160Y-78467020D01*
X123899160Y-76586867D01*
X123967809Y-76505282D01*
X124071337Y-76420918D01*
X124199055Y-76382668D01*
X124347364Y-76391094D01*
X124467383Y-76427365D01*
X124495907Y-76438581D01*
X124520626Y-76450531D01*
X124541811Y-76466883D01*
X124559735Y-76491304D01*
X124574670Y-76527465D01*
X124586889Y-76579031D01*
X124596663Y-76649673D01*
X124604266Y-76743057D01*
X124609969Y-76862852D01*
X124614044Y-77012726D01*
X124616765Y-77196347D01*
X124618402Y-77417384D01*
X124619230Y-77679504D01*
X124619519Y-77986376D01*
X124619542Y-78341668D01*
X124619538Y-78476988D01*
X124619538Y-80347173D01*
X124685027Y-80412662D01*
X124751552Y-80465113D01*
X124811404Y-80471919D01*
X124881644Y-80433904D01*
X124896087Y-80422853D01*
X124966387Y-80367555D01*
X124966780Y-78495174D01*
X124967080Y-78111521D01*
X124967842Y-77778247D01*
X124969116Y-77492375D01*
X124970955Y-77250924D01*
X124973410Y-77050916D01*
X124976532Y-76889371D01*
X124980372Y-76763309D01*
X124984982Y-76669752D01*
X124990412Y-76605719D01*
X124996715Y-76568232D01*
X125000131Y-76558664D01*
X125072458Y-76469091D01*
X125172980Y-76411024D01*
X125289631Y-76384012D01*
X125410344Y-76387601D01*
X125523053Y-76421341D01*
X125615692Y-76484778D01*
X125676193Y-76577461D01*
X125678589Y-76584090D01*
X125685360Y-76619533D01*
X125691259Y-76685820D01*
X125696330Y-76785533D01*
X125700620Y-76921256D01*
X125704172Y-77095569D01*
X125707031Y-77311056D01*
X125709244Y-77570298D01*
X125710855Y-77875877D01*
X125711909Y-78230375D01*
X125712348Y-78517121D01*
X125712947Y-78826155D01*
X125714052Y-79119751D01*
X125715615Y-79393516D01*
X125717583Y-79643058D01*
X125719908Y-79863986D01*
X125722537Y-80051907D01*
X125725422Y-80202429D01*
X125728510Y-80311160D01*
X125731752Y-80373707D01*
X125733865Y-80387444D01*
X125771116Y-80421549D01*
X125816830Y-80450198D01*
X125868902Y-80468675D01*
X125916091Y-80454649D01*
X125950233Y-80431310D01*
X126020273Y-80379025D01*
X126033614Y-78482842D01*
X126036200Y-78119182D01*
X126038564Y-77805081D01*
X126040839Y-77536737D01*
X126043160Y-77310349D01*
X126045658Y-77122116D01*
X126048469Y-76968235D01*
X126051725Y-76844906D01*
X126055560Y-76748326D01*
X126060108Y-76674695D01*
X126065502Y-76620211D01*
X126071875Y-76581073D01*
X126079361Y-76553479D01*
X126088095Y-76533628D01*
X126098208Y-76517718D01*
X126102864Y-76511344D01*
X126190054Y-76434096D01*
X126302792Y-76390049D01*
X126427238Y-76378661D01*
X126549553Y-76399388D01*
X126655897Y-76451687D01*
X126732430Y-76535015D01*
X126733043Y-76536081D01*
X126740047Y-76559477D01*
X126746300Y-76605800D01*
X126751876Y-76678154D01*
X126756851Y-76779640D01*
X126761302Y-76913362D01*
X126765303Y-77082421D01*
X126768931Y-77289920D01*
X126772261Y-77538962D01*
X126775369Y-77832648D01*
X126778330Y-78174083D01*
X126780673Y-78487569D01*
X126794013Y-80379025D01*
X126864053Y-80431310D01*
X126920198Y-80465109D01*
X126966230Y-80464281D01*
X126997456Y-80450198D01*
X127052563Y-80414445D01*
X127080422Y-80387444D01*
X127083707Y-80356477D01*
X127086831Y-80276531D01*
X127089748Y-80151989D01*
X127092409Y-79987235D01*
X127094770Y-79786650D01*
X127096783Y-79554618D01*
X127098402Y-79295521D01*
X127099579Y-79013743D01*
X127100268Y-78713666D01*
X127100432Y-78509594D01*
X127100667Y-78140359D01*
X127101243Y-77820862D01*
X127102234Y-77547479D01*
X127103709Y-77316587D01*
X127105741Y-77124564D01*
X127108402Y-76967786D01*
X127111763Y-76842631D01*
X127115896Y-76745474D01*
X127120872Y-76672694D01*
X127126763Y-76620666D01*
X127133640Y-76585768D01*
X127138760Y-76570347D01*
X127203373Y-76478563D01*
X127299620Y-76417103D01*
X127415080Y-76386182D01*
X127537334Y-76386015D01*
X127653959Y-76416818D01*
X127752536Y-76478805D01*
X127814155Y-76558664D01*
X127820550Y-76583290D01*
X127826153Y-76632567D01*
X127831009Y-76709325D01*
X127835163Y-76816390D01*
X127838659Y-76956590D01*
X127841543Y-77132753D01*
X127843860Y-77347708D01*
X127845654Y-77604281D01*
X127846971Y-77905300D01*
X127847854Y-78253593D01*
X127848349Y-78651989D01*
X127848393Y-78717226D01*
X127849674Y-80811659D01*
X128024405Y-80629006D01*
X128261499Y-80343220D01*
X128460621Y-80023483D01*
X128619649Y-79675368D01*
X128736458Y-79304450D01*
X128808928Y-78916303D01*
X128834933Y-78516500D01*
X128834977Y-78500606D01*
X128809379Y-78100586D01*
X128733112Y-77714961D01*
X128607424Y-77345810D01*
X128433567Y-76995208D01*
X128212791Y-76665233D01*
X127946344Y-76357962D01*
X127635479Y-76075472D01*
X127281443Y-75819840D01*
X127185416Y-75759813D01*
X127105239Y-75712572D01*
X127064533Y-75697700D01*
X127057184Y-75719829D01*
X127077076Y-75783591D01*
X127094016Y-75829044D01*
X127098670Y-75855297D01*
X127078518Y-75858414D01*
X127024691Y-75837505D01*
X126982613Y-75817876D01*
X126925766Y-75783223D01*
X126885377Y-75734373D01*
X126850018Y-75655435D01*
X126834964Y-75612590D01*
X126806746Y-75526198D01*
X126787115Y-75460679D01*
X126780673Y-75432498D01*
X126803972Y-75415016D01*
X126865059Y-75387746D01*
X126950719Y-75356586D01*
X126950877Y-75356533D01*
X127043494Y-75327073D01*
X127103868Y-75314601D01*
X127150092Y-75318401D01*
G37*
%TD*%
%LPC*%
D12*
%TO.C,J13*%
X81000000Y-73000000D03*
D13*
X78500000Y-73000000D03*
X76000000Y-73000000D03*
%TD*%
D12*
%TO.C,J12*%
X81000000Y-83000000D03*
D13*
X78500000Y-83000000D03*
X76000000Y-83000000D03*
%TD*%
D12*
%TO.C,J11*%
X81000000Y-93000000D03*
D13*
X78500000Y-93000000D03*
X76000000Y-93000000D03*
%TD*%
D14*
%TO.C,R8*%
X69000000Y-96500000D03*
D15*
X69000000Y-88880000D03*
%TD*%
D14*
%TO.C,R7*%
X65000000Y-96500000D03*
D15*
X65000000Y-88880000D03*
%TD*%
D16*
%TO.C,J14*%
X69000000Y-83000000D03*
D17*
X66500000Y-83000000D03*
%TD*%
D12*
%TO.C,J9*%
X114500000Y-71500000D03*
D13*
X112000000Y-71500000D03*
X109500000Y-71500000D03*
X107000000Y-71500000D03*
X104500000Y-71500000D03*
X102000000Y-71500000D03*
%TD*%
D16*
%TO.C,J1*%
X69000000Y-73000000D03*
D17*
X66500000Y-73000000D03*
%TD*%
D18*
%TO.C,Q1*%
X94500000Y-96850000D03*
D19*
X91960000Y-96850000D03*
X89420000Y-96850000D03*
%TD*%
D14*
%TO.C,R2*%
X105000000Y-97620000D03*
D15*
X105000000Y-90000000D03*
%TD*%
D20*
%TO.C,J2*%
X124000000Y-66420000D03*
D21*
X124000000Y-71500000D03*
%TD*%
D14*
%TO.C,R5*%
X105000000Y-77935000D03*
D15*
X105000000Y-85555000D03*
%TD*%
D16*
%TO.C,J3*%
X81000000Y-104000000D03*
D17*
X78500000Y-104000000D03*
%TD*%
D16*
%TO.C,J6*%
X69000000Y-104000000D03*
D17*
X66500000Y-104000000D03*
%TD*%
D14*
%TO.C,R1*%
X96087500Y-85310000D03*
D15*
X88467500Y-85310000D03*
%TD*%
D22*
%TO.C,A1*%
X97180000Y-112080000D03*
X72796000Y-63820000D03*
X70256000Y-63820000D03*
X115087000Y-86680000D03*
X115087000Y-89220000D03*
X84480000Y-112080000D03*
X117627000Y-86680000D03*
X115087000Y-84140000D03*
X81940000Y-112080000D03*
D23*
X117627000Y-89220000D03*
X94640000Y-112080000D03*
X92100000Y-112080000D03*
X77876000Y-63820000D03*
D22*
X80416000Y-63820000D03*
X82956000Y-63820000D03*
X85496000Y-63820000D03*
X88036000Y-63820000D03*
X90576000Y-63820000D03*
X93116000Y-63820000D03*
X97180000Y-63820000D03*
X99720000Y-63820000D03*
X102260000Y-63820000D03*
X104800000Y-63820000D03*
X107340000Y-63820000D03*
X109880000Y-63820000D03*
X112420000Y-63820000D03*
X114960000Y-63820000D03*
X75336000Y-63820000D03*
X114960000Y-112080000D03*
X112420000Y-112080000D03*
X109880000Y-112080000D03*
X107340000Y-112080000D03*
X104800000Y-112080000D03*
X102260000Y-112080000D03*
X117627000Y-84140000D03*
X89560000Y-112080000D03*
X87020000Y-112080000D03*
D24*
X117500000Y-107000000D03*
X117500000Y-79060000D03*
D22*
X79400000Y-112080000D03*
D24*
X66700000Y-63820000D03*
X65430000Y-112080000D03*
%TD*%
D14*
%TO.C,R4*%
X96087500Y-81500000D03*
D15*
X88467500Y-81500000D03*
%TD*%
D12*
%TO.C,J8*%
X110500000Y-105442500D03*
D13*
X108000000Y-105442500D03*
X105500000Y-105442500D03*
X103000000Y-105442500D03*
%TD*%
D18*
%TO.C,Q2*%
X94500000Y-90500000D03*
D19*
X91960000Y-90500000D03*
X89420000Y-90500000D03*
%TD*%
D25*
%TO.C,U1*%
X95452500Y-71920000D03*
D26*
X95452500Y-69380000D03*
X87832500Y-69380000D03*
X87832500Y-71920000D03*
%TD*%
D16*
%TO.C,J7*%
X127000000Y-108000000D03*
D17*
X124500000Y-108000000D03*
%TD*%
D14*
%TO.C,R3*%
X100555000Y-90000000D03*
D15*
X100555000Y-97620000D03*
%TD*%
D25*
%TO.C,U2*%
X95452500Y-77000000D03*
D26*
X95452500Y-74460000D03*
X87832500Y-74460000D03*
X87832500Y-77000000D03*
%TD*%
D14*
%TO.C,R6*%
X100555000Y-77935000D03*
D15*
X100555000Y-85555000D03*
%TD*%
D12*
%TO.C,J5*%
X96000000Y-105442500D03*
D13*
X93500000Y-105442500D03*
X91000000Y-105442500D03*
X88500000Y-105442500D03*
%TD*%
D17*
%TO.C,J4*%
X124500000Y-99500000D03*
D16*
X127000000Y-99500000D03*
%TD*%
%LPD*%
M02*
