%TF.GenerationSoftware,KiCad,Pcbnew,7.0.2*%
%TF.CreationDate,2024-02-07T12:24:33+01:00*%
%TF.ProjectId,SyringePumpShield,53797269-6e67-4655-9075-6d7053686965,rev?*%
%TF.SameCoordinates,Original*%
%TF.FileFunction,Legend,Bot*%
%TF.FilePolarity,Positive*%
%FSLAX46Y46*%
G04 Gerber Fmt 4.6, Leading zero omitted, Abs format (unit mm)*
G04 Created by KiCad (PCBNEW 7.0.2) date 2024-02-07 12:24:33*
%MOMM*%
%LPD*%
G01*
G04 APERTURE LIST*
G04 Aperture macros list*
%AMRoundRect*
0 Rectangle with rounded corners*
0 $1 Rounding radius*
0 $2 $3 $4 $5 $6 $7 $8 $9 X,Y pos of 4 corners*
0 Add a 4 corners polygon primitive as box body*
4,1,4,$2,$3,$4,$5,$6,$7,$8,$9,$2,$3,0*
0 Add four circle primitives for the rounded corners*
1,1,$1+$1,$2,$3*
1,1,$1+$1,$4,$5*
1,1,$1+$1,$6,$7*
1,1,$1+$1,$8,$9*
0 Add four rect primitives between the rounded corners*
20,1,$1+$1,$2,$3,$4,$5,0*
20,1,$1+$1,$4,$5,$6,$7,0*
20,1,$1+$1,$6,$7,$8,$9,0*
20,1,$1+$1,$8,$9,$2,$3,0*%
G04 Aperture macros list end*
%ADD10C,0.150000*%
%ADD11RoundRect,0.250000X0.600000X0.725000X-0.600000X0.725000X-0.600000X-0.725000X0.600000X-0.725000X0*%
%ADD12O,1.700000X1.950000*%
%ADD13C,1.400000*%
%ADD14O,1.400000X1.400000*%
%ADD15RoundRect,0.250000X0.600000X0.750000X-0.600000X0.750000X-0.600000X-0.750000X0.600000X-0.750000X0*%
%ADD16O,1.700000X2.000000*%
%ADD17R,1.500000X1.500000*%
%ADD18C,1.500000*%
%ADD19C,3.000000*%
%ADD20R,3.000000X3.000000*%
%ADD21O,1.727200X1.727200*%
%ADD22R,1.727200X1.727200*%
%ADD23C,3.200000*%
%ADD24R,2.400000X1.600000*%
%ADD25O,2.400000X1.600000*%
G04 APERTURE END LIST*
D10*
X85377619Y-88523809D02*
X86091904Y-88523809D01*
X86091904Y-88523809D02*
X86234761Y-88476190D01*
X86234761Y-88476190D02*
X86330000Y-88380952D01*
X86330000Y-88380952D02*
X86377619Y-88238095D01*
X86377619Y-88238095D02*
X86377619Y-88142857D01*
X86377619Y-89476190D02*
X86377619Y-89000000D01*
X86377619Y-89000000D02*
X85377619Y-89000000D01*
X86282380Y-90380952D02*
X86330000Y-90333333D01*
X86330000Y-90333333D02*
X86377619Y-90190476D01*
X86377619Y-90190476D02*
X86377619Y-90095238D01*
X86377619Y-90095238D02*
X86330000Y-89952381D01*
X86330000Y-89952381D02*
X86234761Y-89857143D01*
X86234761Y-89857143D02*
X86139523Y-89809524D01*
X86139523Y-89809524D02*
X85949047Y-89761905D01*
X85949047Y-89761905D02*
X85806190Y-89761905D01*
X85806190Y-89761905D02*
X85615714Y-89809524D01*
X85615714Y-89809524D02*
X85520476Y-89857143D01*
X85520476Y-89857143D02*
X85425238Y-89952381D01*
X85425238Y-89952381D02*
X85377619Y-90095238D01*
X85377619Y-90095238D02*
X85377619Y-90190476D01*
X85377619Y-90190476D02*
X85425238Y-90333333D01*
X85425238Y-90333333D02*
X85472857Y-90380952D01*
X85377619Y-91095238D02*
X86091904Y-91095238D01*
X86091904Y-91095238D02*
X86234761Y-91047619D01*
X86234761Y-91047619D02*
X86330000Y-90952381D01*
X86330000Y-90952381D02*
X86377619Y-90809524D01*
X86377619Y-90809524D02*
X86377619Y-90714286D01*
X86377619Y-92047619D02*
X86377619Y-91571429D01*
X86377619Y-91571429D02*
X85377619Y-91571429D01*
X86282380Y-92952381D02*
X86330000Y-92904762D01*
X86330000Y-92904762D02*
X86377619Y-92761905D01*
X86377619Y-92761905D02*
X86377619Y-92666667D01*
X86377619Y-92666667D02*
X86330000Y-92523810D01*
X86330000Y-92523810D02*
X86234761Y-92428572D01*
X86234761Y-92428572D02*
X86139523Y-92380953D01*
X86139523Y-92380953D02*
X85949047Y-92333334D01*
X85949047Y-92333334D02*
X85806190Y-92333334D01*
X85806190Y-92333334D02*
X85615714Y-92380953D01*
X85615714Y-92380953D02*
X85520476Y-92428572D01*
X85520476Y-92428572D02*
X85425238Y-92523810D01*
X85425238Y-92523810D02*
X85377619Y-92666667D01*
X85377619Y-92666667D02*
X85377619Y-92761905D01*
X85377619Y-92761905D02*
X85425238Y-92904762D01*
X85425238Y-92904762D02*
X85472857Y-92952381D01*
X85377619Y-93666667D02*
X86091904Y-93666667D01*
X86091904Y-93666667D02*
X86234761Y-93619048D01*
X86234761Y-93619048D02*
X86330000Y-93523810D01*
X86330000Y-93523810D02*
X86377619Y-93380953D01*
X86377619Y-93380953D02*
X86377619Y-93285715D01*
X86377619Y-94619048D02*
X86377619Y-94142858D01*
X86377619Y-94142858D02*
X85377619Y-94142858D01*
X86282380Y-95523810D02*
X86330000Y-95476191D01*
X86330000Y-95476191D02*
X86377619Y-95333334D01*
X86377619Y-95333334D02*
X86377619Y-95238096D01*
X86377619Y-95238096D02*
X86330000Y-95095239D01*
X86330000Y-95095239D02*
X86234761Y-95000001D01*
X86234761Y-95000001D02*
X86139523Y-94952382D01*
X86139523Y-94952382D02*
X85949047Y-94904763D01*
X85949047Y-94904763D02*
X85806190Y-94904763D01*
X85806190Y-94904763D02*
X85615714Y-94952382D01*
X85615714Y-94952382D02*
X85520476Y-95000001D01*
X85520476Y-95000001D02*
X85425238Y-95095239D01*
X85425238Y-95095239D02*
X85377619Y-95238096D01*
X85377619Y-95238096D02*
X85377619Y-95333334D01*
X85377619Y-95333334D02*
X85425238Y-95476191D01*
X85425238Y-95476191D02*
X85472857Y-95523810D01*
X85377619Y-96238096D02*
X86091904Y-96238096D01*
X86091904Y-96238096D02*
X86234761Y-96190477D01*
X86234761Y-96190477D02*
X86330000Y-96095239D01*
X86330000Y-96095239D02*
X86377619Y-95952382D01*
X86377619Y-95952382D02*
X86377619Y-95857144D01*
X86377619Y-97190477D02*
X86377619Y-96714287D01*
X86377619Y-96714287D02*
X85377619Y-96714287D01*
X86282380Y-98095239D02*
X86330000Y-98047620D01*
X86330000Y-98047620D02*
X86377619Y-97904763D01*
X86377619Y-97904763D02*
X86377619Y-97809525D01*
X86377619Y-97809525D02*
X86330000Y-97666668D01*
X86330000Y-97666668D02*
X86234761Y-97571430D01*
X86234761Y-97571430D02*
X86139523Y-97523811D01*
X86139523Y-97523811D02*
X85949047Y-97476192D01*
X85949047Y-97476192D02*
X85806190Y-97476192D01*
X85806190Y-97476192D02*
X85615714Y-97523811D01*
X85615714Y-97523811D02*
X85520476Y-97571430D01*
X85520476Y-97571430D02*
X85425238Y-97666668D01*
X85425238Y-97666668D02*
X85377619Y-97809525D01*
X85377619Y-97809525D02*
X85377619Y-97904763D01*
X85377619Y-97904763D02*
X85425238Y-98047620D01*
X85425238Y-98047620D02*
X85472857Y-98095239D01*
X110257619Y-76666666D02*
X109257619Y-76666666D01*
X110210000Y-76666666D02*
X110257619Y-76571428D01*
X110257619Y-76571428D02*
X110257619Y-76380952D01*
X110257619Y-76380952D02*
X110210000Y-76285714D01*
X110210000Y-76285714D02*
X110162380Y-76238095D01*
X110162380Y-76238095D02*
X110067142Y-76190476D01*
X110067142Y-76190476D02*
X109781428Y-76190476D01*
X109781428Y-76190476D02*
X109686190Y-76238095D01*
X109686190Y-76238095D02*
X109638571Y-76285714D01*
X109638571Y-76285714D02*
X109590952Y-76380952D01*
X109590952Y-76380952D02*
X109590952Y-76571428D01*
X109590952Y-76571428D02*
X109638571Y-76666666D01*
X110210000Y-77523809D02*
X110257619Y-77428571D01*
X110257619Y-77428571D02*
X110257619Y-77238095D01*
X110257619Y-77238095D02*
X110210000Y-77142857D01*
X110210000Y-77142857D02*
X110114761Y-77095238D01*
X110114761Y-77095238D02*
X109733809Y-77095238D01*
X109733809Y-77095238D02*
X109638571Y-77142857D01*
X109638571Y-77142857D02*
X109590952Y-77238095D01*
X109590952Y-77238095D02*
X109590952Y-77428571D01*
X109590952Y-77428571D02*
X109638571Y-77523809D01*
X109638571Y-77523809D02*
X109733809Y-77571428D01*
X109733809Y-77571428D02*
X109829047Y-77571428D01*
X109829047Y-77571428D02*
X109924285Y-77095238D01*
X110210000Y-77952381D02*
X110257619Y-78047619D01*
X110257619Y-78047619D02*
X110257619Y-78238095D01*
X110257619Y-78238095D02*
X110210000Y-78333333D01*
X110210000Y-78333333D02*
X110114761Y-78380952D01*
X110114761Y-78380952D02*
X110067142Y-78380952D01*
X110067142Y-78380952D02*
X109971904Y-78333333D01*
X109971904Y-78333333D02*
X109924285Y-78238095D01*
X109924285Y-78238095D02*
X109924285Y-78095238D01*
X109924285Y-78095238D02*
X109876666Y-78000000D01*
X109876666Y-78000000D02*
X109781428Y-77952381D01*
X109781428Y-77952381D02*
X109733809Y-77952381D01*
X109733809Y-77952381D02*
X109638571Y-78000000D01*
X109638571Y-78000000D02*
X109590952Y-78095238D01*
X109590952Y-78095238D02*
X109590952Y-78238095D01*
X109590952Y-78238095D02*
X109638571Y-78333333D01*
X110257619Y-78809524D02*
X109590952Y-78809524D01*
X109257619Y-78809524D02*
X109305238Y-78761905D01*
X109305238Y-78761905D02*
X109352857Y-78809524D01*
X109352857Y-78809524D02*
X109305238Y-78857143D01*
X109305238Y-78857143D02*
X109257619Y-78809524D01*
X109257619Y-78809524D02*
X109352857Y-78809524D01*
X109590952Y-79714285D02*
X110400476Y-79714285D01*
X110400476Y-79714285D02*
X110495714Y-79666666D01*
X110495714Y-79666666D02*
X110543333Y-79619047D01*
X110543333Y-79619047D02*
X110590952Y-79523809D01*
X110590952Y-79523809D02*
X110590952Y-79380952D01*
X110590952Y-79380952D02*
X110543333Y-79285714D01*
X110210000Y-79714285D02*
X110257619Y-79619047D01*
X110257619Y-79619047D02*
X110257619Y-79428571D01*
X110257619Y-79428571D02*
X110210000Y-79333333D01*
X110210000Y-79333333D02*
X110162380Y-79285714D01*
X110162380Y-79285714D02*
X110067142Y-79238095D01*
X110067142Y-79238095D02*
X109781428Y-79238095D01*
X109781428Y-79238095D02*
X109686190Y-79285714D01*
X109686190Y-79285714D02*
X109638571Y-79333333D01*
X109638571Y-79333333D02*
X109590952Y-79428571D01*
X109590952Y-79428571D02*
X109590952Y-79619047D01*
X109590952Y-79619047D02*
X109638571Y-79714285D01*
X109590952Y-80190476D02*
X110257619Y-80190476D01*
X109686190Y-80190476D02*
X109638571Y-80238095D01*
X109638571Y-80238095D02*
X109590952Y-80333333D01*
X109590952Y-80333333D02*
X109590952Y-80476190D01*
X109590952Y-80476190D02*
X109638571Y-80571428D01*
X109638571Y-80571428D02*
X109733809Y-80619047D01*
X109733809Y-80619047D02*
X110257619Y-80619047D01*
X110257619Y-81857143D02*
X109257619Y-81857143D01*
X109638571Y-81857143D02*
X109590952Y-81952381D01*
X109590952Y-81952381D02*
X109590952Y-82142857D01*
X109590952Y-82142857D02*
X109638571Y-82238095D01*
X109638571Y-82238095D02*
X109686190Y-82285714D01*
X109686190Y-82285714D02*
X109781428Y-82333333D01*
X109781428Y-82333333D02*
X110067142Y-82333333D01*
X110067142Y-82333333D02*
X110162380Y-82285714D01*
X110162380Y-82285714D02*
X110210000Y-82238095D01*
X110210000Y-82238095D02*
X110257619Y-82142857D01*
X110257619Y-82142857D02*
X110257619Y-81952381D01*
X110257619Y-81952381D02*
X110210000Y-81857143D01*
X109590952Y-82666667D02*
X110257619Y-82904762D01*
X109590952Y-83142857D02*
X110257619Y-82904762D01*
X110257619Y-82904762D02*
X110495714Y-82809524D01*
X110495714Y-82809524D02*
X110543333Y-82761905D01*
X110543333Y-82761905D02*
X110590952Y-82666667D01*
X110210000Y-84238096D02*
X110257619Y-84380953D01*
X110257619Y-84380953D02*
X110257619Y-84619048D01*
X110257619Y-84619048D02*
X110210000Y-84714286D01*
X110210000Y-84714286D02*
X110162380Y-84761905D01*
X110162380Y-84761905D02*
X110067142Y-84809524D01*
X110067142Y-84809524D02*
X109971904Y-84809524D01*
X109971904Y-84809524D02*
X109876666Y-84761905D01*
X109876666Y-84761905D02*
X109829047Y-84714286D01*
X109829047Y-84714286D02*
X109781428Y-84619048D01*
X109781428Y-84619048D02*
X109733809Y-84428572D01*
X109733809Y-84428572D02*
X109686190Y-84333334D01*
X109686190Y-84333334D02*
X109638571Y-84285715D01*
X109638571Y-84285715D02*
X109543333Y-84238096D01*
X109543333Y-84238096D02*
X109448095Y-84238096D01*
X109448095Y-84238096D02*
X109352857Y-84285715D01*
X109352857Y-84285715D02*
X109305238Y-84333334D01*
X109305238Y-84333334D02*
X109257619Y-84428572D01*
X109257619Y-84428572D02*
X109257619Y-84666667D01*
X109257619Y-84666667D02*
X109305238Y-84809524D01*
X110257619Y-85238096D02*
X109590952Y-85238096D01*
X109257619Y-85238096D02*
X109305238Y-85190477D01*
X109305238Y-85190477D02*
X109352857Y-85238096D01*
X109352857Y-85238096D02*
X109305238Y-85285715D01*
X109305238Y-85285715D02*
X109257619Y-85238096D01*
X109257619Y-85238096D02*
X109352857Y-85238096D01*
X110257619Y-85714286D02*
X109590952Y-85714286D01*
X109686190Y-85714286D02*
X109638571Y-85761905D01*
X109638571Y-85761905D02*
X109590952Y-85857143D01*
X109590952Y-85857143D02*
X109590952Y-86000000D01*
X109590952Y-86000000D02*
X109638571Y-86095238D01*
X109638571Y-86095238D02*
X109733809Y-86142857D01*
X109733809Y-86142857D02*
X110257619Y-86142857D01*
X109733809Y-86142857D02*
X109638571Y-86190476D01*
X109638571Y-86190476D02*
X109590952Y-86285714D01*
X109590952Y-86285714D02*
X109590952Y-86428571D01*
X109590952Y-86428571D02*
X109638571Y-86523810D01*
X109638571Y-86523810D02*
X109733809Y-86571429D01*
X109733809Y-86571429D02*
X110257619Y-86571429D01*
X110257619Y-87190476D02*
X110210000Y-87095238D01*
X110210000Y-87095238D02*
X110162380Y-87047619D01*
X110162380Y-87047619D02*
X110067142Y-87000000D01*
X110067142Y-87000000D02*
X109781428Y-87000000D01*
X109781428Y-87000000D02*
X109686190Y-87047619D01*
X109686190Y-87047619D02*
X109638571Y-87095238D01*
X109638571Y-87095238D02*
X109590952Y-87190476D01*
X109590952Y-87190476D02*
X109590952Y-87333333D01*
X109590952Y-87333333D02*
X109638571Y-87428571D01*
X109638571Y-87428571D02*
X109686190Y-87476190D01*
X109686190Y-87476190D02*
X109781428Y-87523809D01*
X109781428Y-87523809D02*
X110067142Y-87523809D01*
X110067142Y-87523809D02*
X110162380Y-87476190D01*
X110162380Y-87476190D02*
X110210000Y-87428571D01*
X110210000Y-87428571D02*
X110257619Y-87333333D01*
X110257619Y-87333333D02*
X110257619Y-87190476D01*
X109590952Y-87952381D02*
X110257619Y-87952381D01*
X109686190Y-87952381D02*
X109638571Y-88000000D01*
X109638571Y-88000000D02*
X109590952Y-88095238D01*
X109590952Y-88095238D02*
X109590952Y-88238095D01*
X109590952Y-88238095D02*
X109638571Y-88333333D01*
X109638571Y-88333333D02*
X109733809Y-88380952D01*
X109733809Y-88380952D02*
X110257619Y-88380952D01*
X110210000Y-89238095D02*
X110257619Y-89142857D01*
X110257619Y-89142857D02*
X110257619Y-88952381D01*
X110257619Y-88952381D02*
X110210000Y-88857143D01*
X110210000Y-88857143D02*
X110114761Y-88809524D01*
X110114761Y-88809524D02*
X109733809Y-88809524D01*
X109733809Y-88809524D02*
X109638571Y-88857143D01*
X109638571Y-88857143D02*
X109590952Y-88952381D01*
X109590952Y-88952381D02*
X109590952Y-89142857D01*
X109590952Y-89142857D02*
X109638571Y-89238095D01*
X109638571Y-89238095D02*
X109733809Y-89285714D01*
X109733809Y-89285714D02*
X109829047Y-89285714D01*
X109829047Y-89285714D02*
X109924285Y-88809524D01*
X110257619Y-90476191D02*
X109257619Y-90476191D01*
X109257619Y-90476191D02*
X109257619Y-90857143D01*
X109257619Y-90857143D02*
X109305238Y-90952381D01*
X109305238Y-90952381D02*
X109352857Y-91000000D01*
X109352857Y-91000000D02*
X109448095Y-91047619D01*
X109448095Y-91047619D02*
X109590952Y-91047619D01*
X109590952Y-91047619D02*
X109686190Y-91000000D01*
X109686190Y-91000000D02*
X109733809Y-90952381D01*
X109733809Y-90952381D02*
X109781428Y-90857143D01*
X109781428Y-90857143D02*
X109781428Y-90476191D01*
X110257619Y-91476191D02*
X109590952Y-91476191D01*
X109257619Y-91476191D02*
X109305238Y-91428572D01*
X109305238Y-91428572D02*
X109352857Y-91476191D01*
X109352857Y-91476191D02*
X109305238Y-91523810D01*
X109305238Y-91523810D02*
X109257619Y-91476191D01*
X109257619Y-91476191D02*
X109352857Y-91476191D01*
X110257619Y-92095238D02*
X110210000Y-92000000D01*
X110210000Y-92000000D02*
X110114761Y-91952381D01*
X110114761Y-91952381D02*
X109257619Y-91952381D01*
X110257619Y-92619048D02*
X110210000Y-92523810D01*
X110210000Y-92523810D02*
X110162380Y-92476191D01*
X110162380Y-92476191D02*
X110067142Y-92428572D01*
X110067142Y-92428572D02*
X109781428Y-92428572D01*
X109781428Y-92428572D02*
X109686190Y-92476191D01*
X109686190Y-92476191D02*
X109638571Y-92523810D01*
X109638571Y-92523810D02*
X109590952Y-92619048D01*
X109590952Y-92619048D02*
X109590952Y-92761905D01*
X109590952Y-92761905D02*
X109638571Y-92857143D01*
X109638571Y-92857143D02*
X109686190Y-92904762D01*
X109686190Y-92904762D02*
X109781428Y-92952381D01*
X109781428Y-92952381D02*
X110067142Y-92952381D01*
X110067142Y-92952381D02*
X110162380Y-92904762D01*
X110162380Y-92904762D02*
X110210000Y-92857143D01*
X110210000Y-92857143D02*
X110257619Y-92761905D01*
X110257619Y-92761905D02*
X110257619Y-92619048D01*
X109590952Y-93380953D02*
X110257619Y-93380953D01*
X109686190Y-93380953D02*
X109638571Y-93428572D01*
X109638571Y-93428572D02*
X109590952Y-93523810D01*
X109590952Y-93523810D02*
X109590952Y-93666667D01*
X109590952Y-93666667D02*
X109638571Y-93761905D01*
X109638571Y-93761905D02*
X109733809Y-93809524D01*
X109733809Y-93809524D02*
X110257619Y-93809524D01*
X111877619Y-76238095D02*
X110877619Y-76238095D01*
X110877619Y-76238095D02*
X111877619Y-76809523D01*
X111877619Y-76809523D02*
X110877619Y-76809523D01*
X111877619Y-77428571D02*
X111830000Y-77333333D01*
X111830000Y-77333333D02*
X111782380Y-77285714D01*
X111782380Y-77285714D02*
X111687142Y-77238095D01*
X111687142Y-77238095D02*
X111401428Y-77238095D01*
X111401428Y-77238095D02*
X111306190Y-77285714D01*
X111306190Y-77285714D02*
X111258571Y-77333333D01*
X111258571Y-77333333D02*
X111210952Y-77428571D01*
X111210952Y-77428571D02*
X111210952Y-77571428D01*
X111210952Y-77571428D02*
X111258571Y-77666666D01*
X111258571Y-77666666D02*
X111306190Y-77714285D01*
X111306190Y-77714285D02*
X111401428Y-77761904D01*
X111401428Y-77761904D02*
X111687142Y-77761904D01*
X111687142Y-77761904D02*
X111782380Y-77714285D01*
X111782380Y-77714285D02*
X111830000Y-77666666D01*
X111830000Y-77666666D02*
X111877619Y-77571428D01*
X111877619Y-77571428D02*
X111877619Y-77428571D01*
X111830000Y-78571428D02*
X111877619Y-78476190D01*
X111877619Y-78476190D02*
X111877619Y-78285714D01*
X111877619Y-78285714D02*
X111830000Y-78190476D01*
X111830000Y-78190476D02*
X111734761Y-78142857D01*
X111734761Y-78142857D02*
X111353809Y-78142857D01*
X111353809Y-78142857D02*
X111258571Y-78190476D01*
X111258571Y-78190476D02*
X111210952Y-78285714D01*
X111210952Y-78285714D02*
X111210952Y-78476190D01*
X111210952Y-78476190D02*
X111258571Y-78571428D01*
X111258571Y-78571428D02*
X111353809Y-78619047D01*
X111353809Y-78619047D02*
X111449047Y-78619047D01*
X111449047Y-78619047D02*
X111544285Y-78142857D01*
X110877619Y-78190476D02*
X110925238Y-78238095D01*
X110925238Y-78238095D02*
X110972857Y-78190476D01*
X110972857Y-78190476D02*
X110925238Y-78142857D01*
X110925238Y-78142857D02*
X110877619Y-78190476D01*
X110877619Y-78190476D02*
X110972857Y-78190476D01*
X110877619Y-78571428D02*
X110925238Y-78619047D01*
X110925238Y-78619047D02*
X110972857Y-78571428D01*
X110972857Y-78571428D02*
X110925238Y-78523809D01*
X110925238Y-78523809D02*
X110877619Y-78571428D01*
X110877619Y-78571428D02*
X110972857Y-78571428D01*
X111877619Y-79190476D02*
X111830000Y-79095238D01*
X111830000Y-79095238D02*
X111734761Y-79047619D01*
X111734761Y-79047619D02*
X110877619Y-79047619D01*
X111877619Y-80904762D02*
X111401428Y-80571429D01*
X111877619Y-80333334D02*
X110877619Y-80333334D01*
X110877619Y-80333334D02*
X110877619Y-80714286D01*
X110877619Y-80714286D02*
X110925238Y-80809524D01*
X110925238Y-80809524D02*
X110972857Y-80857143D01*
X110972857Y-80857143D02*
X111068095Y-80904762D01*
X111068095Y-80904762D02*
X111210952Y-80904762D01*
X111210952Y-80904762D02*
X111306190Y-80857143D01*
X111306190Y-80857143D02*
X111353809Y-80809524D01*
X111353809Y-80809524D02*
X111401428Y-80714286D01*
X111401428Y-80714286D02*
X111401428Y-80333334D01*
X111830000Y-81714286D02*
X111877619Y-81619048D01*
X111877619Y-81619048D02*
X111877619Y-81428572D01*
X111877619Y-81428572D02*
X111830000Y-81333334D01*
X111830000Y-81333334D02*
X111734761Y-81285715D01*
X111734761Y-81285715D02*
X111353809Y-81285715D01*
X111353809Y-81285715D02*
X111258571Y-81333334D01*
X111258571Y-81333334D02*
X111210952Y-81428572D01*
X111210952Y-81428572D02*
X111210952Y-81619048D01*
X111210952Y-81619048D02*
X111258571Y-81714286D01*
X111258571Y-81714286D02*
X111353809Y-81761905D01*
X111353809Y-81761905D02*
X111449047Y-81761905D01*
X111449047Y-81761905D02*
X111544285Y-81285715D01*
X111830000Y-82142858D02*
X111877619Y-82238096D01*
X111877619Y-82238096D02*
X111877619Y-82428572D01*
X111877619Y-82428572D02*
X111830000Y-82523810D01*
X111830000Y-82523810D02*
X111734761Y-82571429D01*
X111734761Y-82571429D02*
X111687142Y-82571429D01*
X111687142Y-82571429D02*
X111591904Y-82523810D01*
X111591904Y-82523810D02*
X111544285Y-82428572D01*
X111544285Y-82428572D02*
X111544285Y-82285715D01*
X111544285Y-82285715D02*
X111496666Y-82190477D01*
X111496666Y-82190477D02*
X111401428Y-82142858D01*
X111401428Y-82142858D02*
X111353809Y-82142858D01*
X111353809Y-82142858D02*
X111258571Y-82190477D01*
X111258571Y-82190477D02*
X111210952Y-82285715D01*
X111210952Y-82285715D02*
X111210952Y-82428572D01*
X111210952Y-82428572D02*
X111258571Y-82523810D01*
X111830000Y-83380953D02*
X111877619Y-83285715D01*
X111877619Y-83285715D02*
X111877619Y-83095239D01*
X111877619Y-83095239D02*
X111830000Y-83000001D01*
X111830000Y-83000001D02*
X111734761Y-82952382D01*
X111734761Y-82952382D02*
X111353809Y-82952382D01*
X111353809Y-82952382D02*
X111258571Y-83000001D01*
X111258571Y-83000001D02*
X111210952Y-83095239D01*
X111210952Y-83095239D02*
X111210952Y-83285715D01*
X111210952Y-83285715D02*
X111258571Y-83380953D01*
X111258571Y-83380953D02*
X111353809Y-83428572D01*
X111353809Y-83428572D02*
X111449047Y-83428572D01*
X111449047Y-83428572D02*
X111544285Y-82952382D01*
X111877619Y-84285715D02*
X111353809Y-84285715D01*
X111353809Y-84285715D02*
X111258571Y-84238096D01*
X111258571Y-84238096D02*
X111210952Y-84142858D01*
X111210952Y-84142858D02*
X111210952Y-83952382D01*
X111210952Y-83952382D02*
X111258571Y-83857144D01*
X111830000Y-84285715D02*
X111877619Y-84190477D01*
X111877619Y-84190477D02*
X111877619Y-83952382D01*
X111877619Y-83952382D02*
X111830000Y-83857144D01*
X111830000Y-83857144D02*
X111734761Y-83809525D01*
X111734761Y-83809525D02*
X111639523Y-83809525D01*
X111639523Y-83809525D02*
X111544285Y-83857144D01*
X111544285Y-83857144D02*
X111496666Y-83952382D01*
X111496666Y-83952382D02*
X111496666Y-84190477D01*
X111496666Y-84190477D02*
X111449047Y-84285715D01*
X111877619Y-84761906D02*
X111210952Y-84761906D01*
X111401428Y-84761906D02*
X111306190Y-84809525D01*
X111306190Y-84809525D02*
X111258571Y-84857144D01*
X111258571Y-84857144D02*
X111210952Y-84952382D01*
X111210952Y-84952382D02*
X111210952Y-85047620D01*
X111830000Y-85809525D02*
X111877619Y-85714287D01*
X111877619Y-85714287D02*
X111877619Y-85523811D01*
X111877619Y-85523811D02*
X111830000Y-85428573D01*
X111830000Y-85428573D02*
X111782380Y-85380954D01*
X111782380Y-85380954D02*
X111687142Y-85333335D01*
X111687142Y-85333335D02*
X111401428Y-85333335D01*
X111401428Y-85333335D02*
X111306190Y-85380954D01*
X111306190Y-85380954D02*
X111258571Y-85428573D01*
X111258571Y-85428573D02*
X111210952Y-85523811D01*
X111210952Y-85523811D02*
X111210952Y-85714287D01*
X111210952Y-85714287D02*
X111258571Y-85809525D01*
X111877619Y-86238097D02*
X110877619Y-86238097D01*
X111877619Y-86666668D02*
X111353809Y-86666668D01*
X111353809Y-86666668D02*
X111258571Y-86619049D01*
X111258571Y-86619049D02*
X111210952Y-86523811D01*
X111210952Y-86523811D02*
X111210952Y-86380954D01*
X111210952Y-86380954D02*
X111258571Y-86285716D01*
X111258571Y-86285716D02*
X111306190Y-86238097D01*
X110925238Y-88428573D02*
X110877619Y-88333335D01*
X110877619Y-88333335D02*
X110877619Y-88190478D01*
X110877619Y-88190478D02*
X110925238Y-88047621D01*
X110925238Y-88047621D02*
X111020476Y-87952383D01*
X111020476Y-87952383D02*
X111115714Y-87904764D01*
X111115714Y-87904764D02*
X111306190Y-87857145D01*
X111306190Y-87857145D02*
X111449047Y-87857145D01*
X111449047Y-87857145D02*
X111639523Y-87904764D01*
X111639523Y-87904764D02*
X111734761Y-87952383D01*
X111734761Y-87952383D02*
X111830000Y-88047621D01*
X111830000Y-88047621D02*
X111877619Y-88190478D01*
X111877619Y-88190478D02*
X111877619Y-88285716D01*
X111877619Y-88285716D02*
X111830000Y-88428573D01*
X111830000Y-88428573D02*
X111782380Y-88476192D01*
X111782380Y-88476192D02*
X111449047Y-88476192D01*
X111449047Y-88476192D02*
X111449047Y-88285716D01*
X111877619Y-88904764D02*
X111210952Y-88904764D01*
X111401428Y-88904764D02*
X111306190Y-88952383D01*
X111306190Y-88952383D02*
X111258571Y-89000002D01*
X111258571Y-89000002D02*
X111210952Y-89095240D01*
X111210952Y-89095240D02*
X111210952Y-89190478D01*
X111877619Y-89666669D02*
X111830000Y-89571431D01*
X111830000Y-89571431D02*
X111782380Y-89523812D01*
X111782380Y-89523812D02*
X111687142Y-89476193D01*
X111687142Y-89476193D02*
X111401428Y-89476193D01*
X111401428Y-89476193D02*
X111306190Y-89523812D01*
X111306190Y-89523812D02*
X111258571Y-89571431D01*
X111258571Y-89571431D02*
X111210952Y-89666669D01*
X111210952Y-89666669D02*
X111210952Y-89809526D01*
X111210952Y-89809526D02*
X111258571Y-89904764D01*
X111258571Y-89904764D02*
X111306190Y-89952383D01*
X111306190Y-89952383D02*
X111401428Y-90000002D01*
X111401428Y-90000002D02*
X111687142Y-90000002D01*
X111687142Y-90000002D02*
X111782380Y-89952383D01*
X111782380Y-89952383D02*
X111830000Y-89904764D01*
X111830000Y-89904764D02*
X111877619Y-89809526D01*
X111877619Y-89809526D02*
X111877619Y-89666669D01*
X111210952Y-90857145D02*
X111877619Y-90857145D01*
X111210952Y-90428574D02*
X111734761Y-90428574D01*
X111734761Y-90428574D02*
X111830000Y-90476193D01*
X111830000Y-90476193D02*
X111877619Y-90571431D01*
X111877619Y-90571431D02*
X111877619Y-90714288D01*
X111877619Y-90714288D02*
X111830000Y-90809526D01*
X111830000Y-90809526D02*
X111782380Y-90857145D01*
X111210952Y-91333336D02*
X112210952Y-91333336D01*
X111258571Y-91333336D02*
X111210952Y-91428574D01*
X111210952Y-91428574D02*
X111210952Y-91619050D01*
X111210952Y-91619050D02*
X111258571Y-91714288D01*
X111258571Y-91714288D02*
X111306190Y-91761907D01*
X111306190Y-91761907D02*
X111401428Y-91809526D01*
X111401428Y-91809526D02*
X111687142Y-91809526D01*
X111687142Y-91809526D02*
X111782380Y-91761907D01*
X111782380Y-91761907D02*
X111830000Y-91714288D01*
X111830000Y-91714288D02*
X111877619Y-91619050D01*
X111877619Y-91619050D02*
X111877619Y-91428574D01*
X111877619Y-91428574D02*
X111830000Y-91333336D01*
X111496666Y-93000003D02*
X111496666Y-93761908D01*
X110972857Y-94952384D02*
X110925238Y-95000003D01*
X110925238Y-95000003D02*
X110877619Y-95095241D01*
X110877619Y-95095241D02*
X110877619Y-95333336D01*
X110877619Y-95333336D02*
X110925238Y-95428574D01*
X110925238Y-95428574D02*
X110972857Y-95476193D01*
X110972857Y-95476193D02*
X111068095Y-95523812D01*
X111068095Y-95523812D02*
X111163333Y-95523812D01*
X111163333Y-95523812D02*
X111306190Y-95476193D01*
X111306190Y-95476193D02*
X111877619Y-94904765D01*
X111877619Y-94904765D02*
X111877619Y-95523812D01*
X110877619Y-96142860D02*
X110877619Y-96238098D01*
X110877619Y-96238098D02*
X110925238Y-96333336D01*
X110925238Y-96333336D02*
X110972857Y-96380955D01*
X110972857Y-96380955D02*
X111068095Y-96428574D01*
X111068095Y-96428574D02*
X111258571Y-96476193D01*
X111258571Y-96476193D02*
X111496666Y-96476193D01*
X111496666Y-96476193D02*
X111687142Y-96428574D01*
X111687142Y-96428574D02*
X111782380Y-96380955D01*
X111782380Y-96380955D02*
X111830000Y-96333336D01*
X111830000Y-96333336D02*
X111877619Y-96238098D01*
X111877619Y-96238098D02*
X111877619Y-96142860D01*
X111877619Y-96142860D02*
X111830000Y-96047622D01*
X111830000Y-96047622D02*
X111782380Y-96000003D01*
X111782380Y-96000003D02*
X111687142Y-95952384D01*
X111687142Y-95952384D02*
X111496666Y-95904765D01*
X111496666Y-95904765D02*
X111258571Y-95904765D01*
X111258571Y-95904765D02*
X111068095Y-95952384D01*
X111068095Y-95952384D02*
X110972857Y-96000003D01*
X110972857Y-96000003D02*
X110925238Y-96047622D01*
X110925238Y-96047622D02*
X110877619Y-96142860D01*
X110972857Y-96857146D02*
X110925238Y-96904765D01*
X110925238Y-96904765D02*
X110877619Y-97000003D01*
X110877619Y-97000003D02*
X110877619Y-97238098D01*
X110877619Y-97238098D02*
X110925238Y-97333336D01*
X110925238Y-97333336D02*
X110972857Y-97380955D01*
X110972857Y-97380955D02*
X111068095Y-97428574D01*
X111068095Y-97428574D02*
X111163333Y-97428574D01*
X111163333Y-97428574D02*
X111306190Y-97380955D01*
X111306190Y-97380955D02*
X111877619Y-96809527D01*
X111877619Y-96809527D02*
X111877619Y-97428574D01*
X111210952Y-98285717D02*
X111877619Y-98285717D01*
X110830000Y-98047622D02*
X111544285Y-97809527D01*
X111544285Y-97809527D02*
X111544285Y-98428574D01*
%TO.C,A1*%
X54714285Y-60440904D02*
X54238095Y-60440904D01*
X54809523Y-60726619D02*
X54476190Y-59726619D01*
X54476190Y-59726619D02*
X54142857Y-60726619D01*
X53285714Y-60726619D02*
X53857142Y-60726619D01*
X53571428Y-60726619D02*
X53571428Y-59726619D01*
X53571428Y-59726619D02*
X53666666Y-59869476D01*
X53666666Y-59869476D02*
X53761904Y-59964714D01*
X53761904Y-59964714D02*
X53857142Y-60012333D01*
X115698094Y-66187619D02*
X115698094Y-65187619D01*
X115698094Y-65187619D02*
X115459999Y-65187619D01*
X115459999Y-65187619D02*
X115317142Y-65235238D01*
X115317142Y-65235238D02*
X115221904Y-65330476D01*
X115221904Y-65330476D02*
X115174285Y-65425714D01*
X115174285Y-65425714D02*
X115126666Y-65616190D01*
X115126666Y-65616190D02*
X115126666Y-65759047D01*
X115126666Y-65759047D02*
X115174285Y-65949523D01*
X115174285Y-65949523D02*
X115221904Y-66044761D01*
X115221904Y-66044761D02*
X115317142Y-66140000D01*
X115317142Y-66140000D02*
X115459999Y-66187619D01*
X115459999Y-66187619D02*
X115698094Y-66187619D01*
X114507618Y-65187619D02*
X114412380Y-65187619D01*
X114412380Y-65187619D02*
X114317142Y-65235238D01*
X114317142Y-65235238D02*
X114269523Y-65282857D01*
X114269523Y-65282857D02*
X114221904Y-65378095D01*
X114221904Y-65378095D02*
X114174285Y-65568571D01*
X114174285Y-65568571D02*
X114174285Y-65806666D01*
X114174285Y-65806666D02*
X114221904Y-65997142D01*
X114221904Y-65997142D02*
X114269523Y-66092380D01*
X114269523Y-66092380D02*
X114317142Y-66140000D01*
X114317142Y-66140000D02*
X114412380Y-66187619D01*
X114412380Y-66187619D02*
X114507618Y-66187619D01*
X114507618Y-66187619D02*
X114602856Y-66140000D01*
X114602856Y-66140000D02*
X114650475Y-66092380D01*
X114650475Y-66092380D02*
X114698094Y-65997142D01*
X114698094Y-65997142D02*
X114745713Y-65806666D01*
X114745713Y-65806666D02*
X114745713Y-65568571D01*
X114745713Y-65568571D02*
X114698094Y-65378095D01*
X114698094Y-65378095D02*
X114650475Y-65282857D01*
X114650475Y-65282857D02*
X114602856Y-65235238D01*
X114602856Y-65235238D02*
X114507618Y-65187619D01*
X113944000Y-82983380D02*
X113991619Y-83031000D01*
X113991619Y-83031000D02*
X113944000Y-83078619D01*
X113944000Y-83078619D02*
X113896381Y-83031000D01*
X113896381Y-83031000D02*
X113944000Y-82983380D01*
X113944000Y-82983380D02*
X113944000Y-83078619D01*
%TO.C,G\u002A\u002A\u002A*%
G36*
X128085486Y-76479906D02*
G01*
X128124156Y-76494394D01*
X128137558Y-76524442D01*
X128113627Y-76558243D01*
X128052617Y-76577876D01*
X128034277Y-76579555D01*
X127992103Y-76570860D01*
X127981303Y-76531184D01*
X127993869Y-76490173D01*
X128043558Y-76476051D01*
X128085486Y-76479906D01*
G37*
G36*
X128085486Y-76693352D02*
G01*
X128124156Y-76707839D01*
X128137558Y-76737888D01*
X128113627Y-76771688D01*
X128052617Y-76791321D01*
X128034277Y-76793001D01*
X127992103Y-76784305D01*
X127981303Y-76744630D01*
X127993869Y-76703619D01*
X128043558Y-76689496D01*
X128085486Y-76693352D01*
G37*
G36*
X129075210Y-77156408D02*
G01*
X129075127Y-77192428D01*
X129072822Y-77280803D01*
X129065140Y-77330236D01*
X129049132Y-77351787D01*
X129021849Y-77356513D01*
X129003128Y-77354948D01*
X128980818Y-77338750D01*
X128970804Y-77294572D01*
X128968488Y-77209769D01*
X128968488Y-77063026D01*
X128581618Y-77063026D01*
X128533548Y-77063006D01*
X128396442Y-77062325D01*
X128302338Y-77059842D01*
X128243177Y-77054447D01*
X128210899Y-77045026D01*
X128197442Y-77030469D01*
X128194748Y-77009664D01*
X128195922Y-76994422D01*
X128205024Y-76978955D01*
X128229671Y-76968356D01*
X128277427Y-76961708D01*
X128355856Y-76958094D01*
X128472519Y-76956598D01*
X128634979Y-76956303D01*
X129075210Y-76956303D01*
X129075210Y-77156408D01*
G37*
G36*
X127527731Y-75355318D02*
G01*
X127527731Y-75541939D01*
X125170628Y-75548753D01*
X122813525Y-75555568D01*
X125184759Y-76808267D01*
X125359523Y-76900640D01*
X125764111Y-77114915D01*
X126123245Y-77305795D01*
X126438331Y-77474049D01*
X126710774Y-77620447D01*
X126941977Y-77745756D01*
X127133347Y-77850745D01*
X127286288Y-77936183D01*
X127402206Y-78002838D01*
X127482504Y-78051478D01*
X127528588Y-78082874D01*
X127541862Y-78097792D01*
X127536605Y-78121928D01*
X127530223Y-78190970D01*
X127527731Y-78279178D01*
X127527731Y-78423740D01*
X124739601Y-78423740D01*
X121951471Y-78423740D01*
X121951471Y-78223781D01*
X121951471Y-78023821D01*
X124288661Y-78017005D01*
X126625851Y-78010190D01*
X124275775Y-76769538D01*
X121925700Y-75528887D01*
X121925245Y-75348792D01*
X121924790Y-75168698D01*
X124726261Y-75168698D01*
X127527731Y-75168698D01*
X127527731Y-75355318D01*
G37*
G36*
X128298090Y-84800421D02*
G01*
X128634979Y-84800421D01*
X129075210Y-84800421D01*
X129075210Y-84867122D01*
X129075110Y-84878016D01*
X129069618Y-84909387D01*
X129046937Y-84926054D01*
X128995011Y-84932654D01*
X128901786Y-84933824D01*
X128728362Y-84933824D01*
X128728362Y-85049752D01*
X128722564Y-85118595D01*
X128686525Y-85199712D01*
X128612609Y-85249285D01*
X128495176Y-85272708D01*
X128461368Y-85274872D01*
X128364660Y-85266549D01*
X128281460Y-85229189D01*
X128258453Y-85214417D01*
X128222409Y-85184603D01*
X128203409Y-85146980D01*
X128196005Y-85086366D01*
X128194748Y-84987577D01*
X128194748Y-84933824D01*
X128298090Y-84933824D01*
X128306451Y-85019704D01*
X128326718Y-85089734D01*
X128388183Y-85146437D01*
X128429226Y-85166908D01*
X128476729Y-85172271D01*
X128534927Y-85146437D01*
X128589613Y-85100245D01*
X128616659Y-85019704D01*
X128625020Y-84933824D01*
X128461555Y-84933824D01*
X128298090Y-84933824D01*
X128194748Y-84933824D01*
X128194748Y-84800421D01*
X128298090Y-84800421D01*
G37*
G36*
X129075210Y-76636135D02*
G01*
X129075014Y-76692411D01*
X129072335Y-76777273D01*
X129064370Y-76824600D01*
X129048436Y-76845124D01*
X129021849Y-76849580D01*
X128998214Y-76846637D01*
X128978988Y-76827219D01*
X128970435Y-76778906D01*
X128968488Y-76689496D01*
X128968488Y-76529412D01*
X128821744Y-76529412D01*
X128675000Y-76529412D01*
X128675000Y-76662816D01*
X128674772Y-76693672D01*
X128669608Y-76759384D01*
X128653645Y-76789195D01*
X128621639Y-76796219D01*
X128609297Y-76795648D01*
X128583012Y-76782738D01*
X128571087Y-76742831D01*
X128568278Y-76662816D01*
X128568278Y-76529412D01*
X128434874Y-76529412D01*
X128301471Y-76529412D01*
X128301471Y-76676156D01*
X128300902Y-76727638D01*
X128295012Y-76788992D01*
X128278947Y-76816530D01*
X128248110Y-76822900D01*
X128238504Y-76822586D01*
X128214938Y-76813943D01*
X128201755Y-76785136D01*
X128196009Y-76725106D01*
X128194748Y-76622795D01*
X128194748Y-76422690D01*
X128634979Y-76422690D01*
X129075210Y-76422690D01*
X129075210Y-76636135D01*
G37*
G36*
X129075210Y-78437080D02*
G01*
X129075127Y-78473101D01*
X129072822Y-78561475D01*
X129065140Y-78610908D01*
X129049132Y-78632459D01*
X129021849Y-78637185D01*
X129003128Y-78635620D01*
X128980818Y-78619422D01*
X128970804Y-78575245D01*
X128968488Y-78490442D01*
X128968488Y-78343698D01*
X128821744Y-78343698D01*
X128675000Y-78343698D01*
X128675000Y-78477101D01*
X128674772Y-78507957D01*
X128669608Y-78573669D01*
X128653645Y-78603481D01*
X128621639Y-78610505D01*
X128609297Y-78609934D01*
X128583012Y-78597024D01*
X128571087Y-78557117D01*
X128568278Y-78477101D01*
X128568278Y-78343698D01*
X128434874Y-78343698D01*
X128301471Y-78343698D01*
X128301471Y-78490442D01*
X128300902Y-78541923D01*
X128295012Y-78603277D01*
X128278947Y-78630816D01*
X128248110Y-78637185D01*
X128238504Y-78636871D01*
X128214938Y-78628229D01*
X128201755Y-78599422D01*
X128196009Y-78539391D01*
X128194748Y-78437080D01*
X128194748Y-78236975D01*
X128634979Y-78236975D01*
X129075210Y-78236975D01*
X129075210Y-78437080D01*
G37*
G36*
X129075210Y-79504307D02*
G01*
X129075127Y-79540327D01*
X129072822Y-79628702D01*
X129065140Y-79678135D01*
X129049132Y-79699686D01*
X129021849Y-79704412D01*
X129003128Y-79702847D01*
X128980818Y-79686649D01*
X128970804Y-79642471D01*
X128968488Y-79557669D01*
X128968488Y-79410925D01*
X128821744Y-79410925D01*
X128675000Y-79410925D01*
X128675000Y-79544328D01*
X128674772Y-79575184D01*
X128669608Y-79640896D01*
X128653645Y-79670708D01*
X128621639Y-79677732D01*
X128609297Y-79677161D01*
X128583012Y-79664251D01*
X128571087Y-79624344D01*
X128568278Y-79544328D01*
X128568278Y-79410925D01*
X128434874Y-79410925D01*
X128301471Y-79410925D01*
X128301471Y-79557669D01*
X128300902Y-79609150D01*
X128295012Y-79670504D01*
X128278947Y-79698043D01*
X128248110Y-79704412D01*
X128238504Y-79704098D01*
X128214938Y-79695456D01*
X128201755Y-79666649D01*
X128196009Y-79606618D01*
X128194748Y-79504307D01*
X128194748Y-79304202D01*
X128634979Y-79304202D01*
X129075210Y-79304202D01*
X129075210Y-79504307D01*
G37*
G36*
X128754783Y-75168831D02*
G01*
X128884176Y-75169910D01*
X128973099Y-75172849D01*
X129029107Y-75178546D01*
X129059757Y-75187905D01*
X129072607Y-75201827D01*
X129075210Y-75221213D01*
X129074566Y-75232846D01*
X129065698Y-75251824D01*
X129039260Y-75264421D01*
X128986306Y-75272368D01*
X128897888Y-75277399D01*
X128765058Y-75281244D01*
X128454906Y-75288761D01*
X128765058Y-75419159D01*
X128808521Y-75437514D01*
X128925419Y-75488573D01*
X129002703Y-75526726D01*
X129048207Y-75556856D01*
X129069765Y-75583851D01*
X129075210Y-75612594D01*
X129075210Y-75675631D01*
X128634979Y-75675631D01*
X128194748Y-75675631D01*
X128194748Y-75609832D01*
X128195188Y-75590536D01*
X128201876Y-75567793D01*
X128224184Y-75553448D01*
X128271542Y-75545066D01*
X128353383Y-75540214D01*
X128479136Y-75536460D01*
X128763524Y-75528887D01*
X128479136Y-75410458D01*
X128357520Y-75358564D01*
X128274107Y-75318800D01*
X128224596Y-75287613D01*
X128200855Y-75259851D01*
X128194748Y-75230364D01*
X128194748Y-75168698D01*
X128634979Y-75168698D01*
X128754783Y-75168831D01*
G37*
G36*
X128803185Y-80956136D02*
G01*
X128935149Y-80983257D01*
X129024412Y-81030718D01*
X129074896Y-81099874D01*
X129089102Y-81144047D01*
X129091255Y-81250104D01*
X129045916Y-81337998D01*
X128956174Y-81399925D01*
X128928196Y-81411166D01*
X128843740Y-81435395D01*
X128796457Y-81427572D01*
X128781723Y-81387364D01*
X128803709Y-81341819D01*
X128875105Y-81305253D01*
X128919516Y-81288022D01*
X128958696Y-81254655D01*
X128968488Y-81200743D01*
X128955232Y-81140753D01*
X128900531Y-81096090D01*
X128868164Y-81085906D01*
X128779491Y-81072848D01*
X128667011Y-81066481D01*
X128549406Y-81067028D01*
X128445357Y-81074714D01*
X128373548Y-81089763D01*
X128334379Y-81110291D01*
X128291306Y-81164465D01*
X128290477Y-81225766D01*
X128329816Y-81280358D01*
X128407246Y-81314401D01*
X128415898Y-81316244D01*
X128472042Y-81341439D01*
X128488236Y-81387597D01*
X128488231Y-81389501D01*
X128481895Y-81424644D01*
X128453501Y-81435211D01*
X128388183Y-81427066D01*
X128343352Y-81415699D01*
X128249766Y-81362391D01*
X128189633Y-81282873D01*
X128169407Y-81188425D01*
X128195539Y-81090329D01*
X128243766Y-81031392D01*
X128332218Y-80983926D01*
X128460886Y-80956684D01*
X128634979Y-80947978D01*
X128803185Y-80956136D01*
G37*
G36*
X129075210Y-81612080D02*
G01*
X129074475Y-81635508D01*
X129065332Y-81660060D01*
X129036549Y-81672959D01*
X128976887Y-81677951D01*
X128875105Y-81678782D01*
X128675000Y-81678782D01*
X128675000Y-81812185D01*
X128675000Y-81945589D01*
X128875105Y-81945589D01*
X128911126Y-81945672D01*
X128999500Y-81947977D01*
X129048933Y-81955659D01*
X129070484Y-81971667D01*
X129075210Y-81998950D01*
X129074037Y-82014192D01*
X129064935Y-82029659D01*
X129040288Y-82040259D01*
X128992531Y-82046907D01*
X128914103Y-82050520D01*
X128797440Y-82052016D01*
X128634979Y-82052311D01*
X128509233Y-82052169D01*
X128381628Y-82051066D01*
X128294184Y-82048078D01*
X128239336Y-82042290D01*
X128209523Y-82032783D01*
X128197181Y-82018642D01*
X128194748Y-81998950D01*
X128194800Y-81994702D01*
X128201416Y-81968325D01*
X128227133Y-81953521D01*
X128283362Y-81947028D01*
X128381513Y-81945589D01*
X128568278Y-81945589D01*
X128568278Y-81812185D01*
X128568278Y-81678782D01*
X128381513Y-81678782D01*
X128331712Y-81678661D01*
X128254349Y-81676066D01*
X128213486Y-81666872D01*
X128197495Y-81646928D01*
X128194748Y-81612080D01*
X128194748Y-81545379D01*
X128634979Y-81545379D01*
X129075210Y-81545379D01*
X129075210Y-81612080D01*
G37*
G36*
X128801804Y-75802865D02*
G01*
X128927419Y-75835673D01*
X129021912Y-75885681D01*
X129074896Y-75950505D01*
X129094534Y-76023726D01*
X129084195Y-76121278D01*
X129029765Y-76201015D01*
X128935754Y-76260431D01*
X128806670Y-76297018D01*
X128647022Y-76308268D01*
X128461319Y-76291676D01*
X128377821Y-76273857D01*
X128260901Y-76222968D01*
X128191178Y-76148231D01*
X128168068Y-76049160D01*
X128274790Y-76049160D01*
X128288979Y-76081419D01*
X128328152Y-76129202D01*
X128337165Y-76137714D01*
X128372897Y-76160754D01*
X128424108Y-76174389D01*
X128503404Y-76180900D01*
X128623393Y-76182563D01*
X128671672Y-76182030D01*
X128780960Y-76176849D01*
X128867854Y-76167335D01*
X128916880Y-76154944D01*
X128938579Y-76138907D01*
X128965957Y-76081327D01*
X128955906Y-76014258D01*
X128909190Y-75957291D01*
X128903320Y-75953447D01*
X128844945Y-75931637D01*
X128752151Y-75919509D01*
X128615702Y-75915757D01*
X128591314Y-75915802D01*
X128481227Y-75918336D01*
X128409263Y-75926472D01*
X128362534Y-75942602D01*
X128328152Y-75969118D01*
X128292012Y-76012353D01*
X128274790Y-76049160D01*
X128168068Y-76049160D01*
X128172825Y-76002978D01*
X128218228Y-75913952D01*
X128310241Y-75847912D01*
X128447103Y-75806392D01*
X128498746Y-75798384D01*
X128615702Y-75791859D01*
X128655451Y-75789641D01*
X128801804Y-75802865D01*
G37*
G36*
X128801804Y-83593621D02*
G01*
X128927419Y-83626429D01*
X129021912Y-83676437D01*
X129074896Y-83741261D01*
X129094534Y-83814482D01*
X129084195Y-83912034D01*
X129029765Y-83991772D01*
X128935754Y-84051187D01*
X128806670Y-84087774D01*
X128647022Y-84099025D01*
X128461319Y-84082432D01*
X128377821Y-84064614D01*
X128260901Y-84013725D01*
X128191178Y-83938987D01*
X128168068Y-83839916D01*
X128274790Y-83839916D01*
X128288979Y-83872175D01*
X128328152Y-83919958D01*
X128337165Y-83928471D01*
X128372897Y-83951510D01*
X128424108Y-83965146D01*
X128503404Y-83971656D01*
X128623393Y-83973320D01*
X128671672Y-83972786D01*
X128780960Y-83967606D01*
X128867854Y-83958092D01*
X128916880Y-83945700D01*
X128938579Y-83929663D01*
X128965957Y-83872084D01*
X128955906Y-83805014D01*
X128909190Y-83748047D01*
X128903320Y-83744203D01*
X128844945Y-83722393D01*
X128752151Y-83710265D01*
X128615702Y-83706513D01*
X128591314Y-83706559D01*
X128481227Y-83709093D01*
X128409263Y-83717229D01*
X128362534Y-83733359D01*
X128328152Y-83759874D01*
X128292012Y-83803109D01*
X128274790Y-83839916D01*
X128168068Y-83839916D01*
X128172825Y-83793734D01*
X128218228Y-83704708D01*
X128310241Y-83638669D01*
X128447103Y-83597149D01*
X128498746Y-83589140D01*
X128615702Y-83582615D01*
X128655451Y-83580397D01*
X128801804Y-83593621D01*
G37*
G36*
X128918157Y-78732081D02*
G01*
X129002769Y-78782054D01*
X129065744Y-78853567D01*
X129076008Y-78874100D01*
X129092614Y-78970830D01*
X129066355Y-79064643D01*
X129004033Y-79140841D01*
X128912452Y-79184726D01*
X128876804Y-79190643D01*
X128759425Y-79179237D01*
X128659787Y-79118525D01*
X128581449Y-79010381D01*
X128572125Y-78992556D01*
X128507223Y-78900467D01*
X128437121Y-78858335D01*
X128357297Y-78863189D01*
X128336864Y-78871413D01*
X128291093Y-78915691D01*
X128285341Y-78971580D01*
X128317355Y-79023385D01*
X128384882Y-79055412D01*
X128396598Y-79057980D01*
X128447579Y-79083612D01*
X128461555Y-79134113D01*
X128459284Y-79165577D01*
X128441413Y-79192131D01*
X128397088Y-79189579D01*
X128316102Y-79159717D01*
X128270500Y-79135537D01*
X128202070Y-79065917D01*
X128172076Y-78982022D01*
X128178314Y-78895863D01*
X128218580Y-78819451D01*
X128290672Y-78764795D01*
X128392385Y-78743908D01*
X128428026Y-78745002D01*
X128533383Y-78768663D01*
X128615938Y-78829373D01*
X128688264Y-78935262D01*
X128726051Y-79001533D01*
X128761087Y-79044653D01*
X128799946Y-79060131D01*
X128857557Y-79058870D01*
X128914345Y-79050666D01*
X128950226Y-79027332D01*
X128963610Y-78977152D01*
X128965029Y-78949936D01*
X128947497Y-78899997D01*
X128890407Y-78857089D01*
X128840049Y-78817600D01*
X128811469Y-78770428D01*
X128815358Y-78732856D01*
X128855095Y-78718173D01*
X128918157Y-78732081D01*
G37*
G36*
X129069556Y-79767727D02*
G01*
X129070884Y-79813185D01*
X129066072Y-79833927D01*
X129033665Y-79873689D01*
X128961818Y-79899602D01*
X128928728Y-79907826D01*
X128882815Y-79927967D01*
X128864850Y-79965311D01*
X128861765Y-80037921D01*
X128862143Y-80075964D01*
X128870278Y-80130542D01*
X128899148Y-80157946D01*
X128961818Y-80176239D01*
X128994290Y-80185039D01*
X129049710Y-80214865D01*
X129070884Y-80262656D01*
X129072359Y-80274475D01*
X129066491Y-80311945D01*
X129030863Y-80312669D01*
X128896534Y-80277444D01*
X128693434Y-80223902D01*
X128533823Y-80181104D01*
X128412470Y-80147331D01*
X128324142Y-80120862D01*
X128263607Y-80099980D01*
X128225633Y-80082964D01*
X128204986Y-80068095D01*
X128196436Y-80053654D01*
X128194987Y-80040153D01*
X128399773Y-80040153D01*
X128539422Y-80072387D01*
X128594102Y-80084584D01*
X128665501Y-80099001D01*
X128703716Y-80104622D01*
X128719921Y-80088072D01*
X128728362Y-80037921D01*
X128727854Y-80019222D01*
X128718622Y-79986975D01*
X128689656Y-79975174D01*
X128630504Y-79982142D01*
X128530717Y-80006200D01*
X128399773Y-80040153D01*
X128194987Y-80040153D01*
X128194748Y-80037921D01*
X128195155Y-80028871D01*
X128200031Y-80014072D01*
X128214693Y-79999603D01*
X128244374Y-79983747D01*
X128294306Y-79964783D01*
X128369721Y-79940992D01*
X128475852Y-79910655D01*
X128617931Y-79872052D01*
X128689656Y-79853036D01*
X128801191Y-79823465D01*
X129030863Y-79763173D01*
X129040087Y-79761038D01*
X129069556Y-79767727D01*
G37*
G36*
X128676641Y-84214417D02*
G01*
X128819874Y-84220271D01*
X128923037Y-84232975D01*
X128993988Y-84254299D01*
X129040585Y-84286011D01*
X129070686Y-84329882D01*
X129090247Y-84385594D01*
X129091905Y-84487678D01*
X129052867Y-84576566D01*
X128977631Y-84637394D01*
X128977321Y-84637534D01*
X128924005Y-84649291D01*
X128828365Y-84658632D01*
X128701293Y-84664794D01*
X128553682Y-84667017D01*
X128548626Y-84667017D01*
X128405653Y-84666559D01*
X128307428Y-84664385D01*
X128245587Y-84659251D01*
X128211768Y-84649913D01*
X128197610Y-84635129D01*
X128194748Y-84613656D01*
X128197577Y-84592227D01*
X128211719Y-84577359D01*
X128245583Y-84567997D01*
X128307579Y-84562875D01*
X128406115Y-84560729D01*
X128549601Y-84560295D01*
X128559958Y-84560291D01*
X128716238Y-84558653D01*
X128827177Y-84552552D01*
X128900323Y-84539822D01*
X128943225Y-84518301D01*
X128963430Y-84485826D01*
X128968488Y-84440232D01*
X128968475Y-84437263D01*
X128962762Y-84392469D01*
X128941473Y-84360672D01*
X128897061Y-84339706D01*
X128821977Y-84327410D01*
X128708674Y-84321618D01*
X128549601Y-84320169D01*
X128407101Y-84319743D01*
X128308229Y-84317616D01*
X128245967Y-84312524D01*
X128211906Y-84303202D01*
X128197636Y-84288384D01*
X128194748Y-84266807D01*
X128194750Y-84266056D01*
X128197828Y-84244800D01*
X128212453Y-84230198D01*
X128246989Y-84221004D01*
X128309798Y-84215976D01*
X128409241Y-84213871D01*
X128553682Y-84213446D01*
X128676641Y-84214417D01*
G37*
G36*
X128877677Y-82441506D02*
G01*
X128971315Y-82469711D01*
X129034030Y-82516087D01*
X129073091Y-82582916D01*
X129089448Y-82668000D01*
X129076081Y-82772851D01*
X129030737Y-82857651D01*
X129022779Y-82865676D01*
X128980241Y-82890073D01*
X128911948Y-82902574D01*
X128804269Y-82906093D01*
X128621639Y-82906093D01*
X128621639Y-82786030D01*
X128621659Y-82777405D01*
X128625885Y-82706442D01*
X128641654Y-82673823D01*
X128675000Y-82665967D01*
X128715855Y-82680364D01*
X128728362Y-82732669D01*
X128728369Y-82735258D01*
X128735077Y-82777364D01*
X128764645Y-82795491D01*
X128832230Y-82799370D01*
X128835389Y-82799361D01*
X128915952Y-82787329D01*
X128957009Y-82745897D01*
X128968488Y-82665298D01*
X128950336Y-82607485D01*
X128890081Y-82565083D01*
X128784701Y-82540498D01*
X128631225Y-82532563D01*
X128528953Y-82533618D01*
X128430696Y-82539709D01*
X128366922Y-82553627D01*
X128326872Y-82578072D01*
X128299791Y-82615744D01*
X128299162Y-82616937D01*
X128289085Y-82685275D01*
X128323501Y-82745680D01*
X128394150Y-82783469D01*
X128439130Y-82804587D01*
X128461555Y-82856575D01*
X128457964Y-82887463D01*
X128434256Y-82903029D01*
X128374843Y-82896116D01*
X128343806Y-82887744D01*
X128255591Y-82835618D01*
X128192303Y-82756452D01*
X128168068Y-82665967D01*
X128168119Y-82662745D01*
X128187652Y-82587517D01*
X128232410Y-82514041D01*
X128247322Y-82497128D01*
X128277710Y-82469506D01*
X128315170Y-82451727D01*
X128371271Y-82441036D01*
X128457583Y-82434679D01*
X128585673Y-82429898D01*
X128745851Y-82429190D01*
X128877677Y-82441506D01*
G37*
G36*
X128461555Y-77703362D02*
G01*
X128634979Y-77703362D01*
X128760726Y-77703504D01*
X128888331Y-77704607D01*
X128975775Y-77707595D01*
X129030622Y-77713384D01*
X129060435Y-77722890D01*
X129072777Y-77737031D01*
X129075210Y-77756723D01*
X129070556Y-77784232D01*
X129047967Y-77801013D01*
X128995641Y-77808421D01*
X128901786Y-77810084D01*
X128818041Y-77811347D01*
X128760440Y-77817963D01*
X128734436Y-77833385D01*
X128728362Y-77861042D01*
X128728869Y-77868159D01*
X128748648Y-77901386D01*
X128803434Y-77934870D01*
X128901786Y-77974196D01*
X128968235Y-77999169D01*
X129034650Y-78030857D01*
X129066816Y-78060889D01*
X129075210Y-78096663D01*
X129072415Y-78134236D01*
X129062479Y-78156933D01*
X129061697Y-78156861D01*
X129028551Y-78146696D01*
X128960423Y-78122690D01*
X128870981Y-78089646D01*
X128861633Y-78086166D01*
X128773579Y-78057456D01*
X128707448Y-78042908D01*
X128676937Y-78045630D01*
X128638130Y-78082982D01*
X128553329Y-78117604D01*
X128450679Y-78128676D01*
X128348483Y-78114894D01*
X128265048Y-78074955D01*
X128239184Y-78052712D01*
X128210569Y-78012371D01*
X128197721Y-77954600D01*
X128195632Y-77889188D01*
X128301471Y-77889188D01*
X128308477Y-77933693D01*
X128350330Y-77992879D01*
X128417326Y-78021645D01*
X128494848Y-78015554D01*
X128568278Y-77970169D01*
X128603531Y-77921528D01*
X128621639Y-77863446D01*
X128618696Y-77839811D01*
X128599278Y-77820584D01*
X128550965Y-77812032D01*
X128461555Y-77810084D01*
X128436760Y-77810099D01*
X128358705Y-77812072D01*
X128318524Y-77821767D01*
X128303638Y-77845401D01*
X128301471Y-77889188D01*
X128195632Y-77889188D01*
X128194748Y-77861509D01*
X128194748Y-77703362D01*
X128461555Y-77703362D01*
G37*
G36*
X128461555Y-80424790D02*
G01*
X128634979Y-80424790D01*
X128760726Y-80424933D01*
X128888331Y-80426036D01*
X128975775Y-80429023D01*
X129030622Y-80434812D01*
X129060435Y-80444319D01*
X129072777Y-80458460D01*
X129075210Y-80478152D01*
X129070556Y-80505661D01*
X129047967Y-80522442D01*
X128995641Y-80529850D01*
X128901786Y-80531513D01*
X128818041Y-80532775D01*
X128760440Y-80539392D01*
X128734436Y-80554814D01*
X128728362Y-80582471D01*
X128728869Y-80589588D01*
X128748648Y-80622814D01*
X128803434Y-80656299D01*
X128901786Y-80695625D01*
X128968235Y-80720597D01*
X129034650Y-80752286D01*
X129066816Y-80782318D01*
X129075210Y-80818092D01*
X129072415Y-80855665D01*
X129062479Y-80878362D01*
X129061697Y-80878290D01*
X129028551Y-80868124D01*
X128960423Y-80844118D01*
X128870981Y-80811074D01*
X128861633Y-80807595D01*
X128773579Y-80778885D01*
X128707448Y-80764337D01*
X128676937Y-80767059D01*
X128638130Y-80804410D01*
X128553329Y-80839033D01*
X128450679Y-80850105D01*
X128348483Y-80836323D01*
X128265048Y-80796383D01*
X128239184Y-80774141D01*
X128210569Y-80733799D01*
X128197721Y-80676029D01*
X128195632Y-80610616D01*
X128301471Y-80610616D01*
X128308477Y-80655122D01*
X128350330Y-80714308D01*
X128417326Y-80743074D01*
X128494848Y-80736982D01*
X128568278Y-80691597D01*
X128603531Y-80642956D01*
X128621639Y-80584874D01*
X128618696Y-80561240D01*
X128599278Y-80542013D01*
X128550965Y-80533460D01*
X128461555Y-80531513D01*
X128436760Y-80531528D01*
X128358705Y-80533500D01*
X128318524Y-80543196D01*
X128303638Y-80566830D01*
X128301471Y-80610616D01*
X128195632Y-80610616D01*
X128194748Y-80582938D01*
X128194748Y-80424790D01*
X128461555Y-80424790D01*
G37*
G36*
X122266497Y-89030558D02*
G01*
X122315564Y-89076427D01*
X122376114Y-89142700D01*
X122397710Y-89168358D01*
X122452053Y-89243445D01*
X122478128Y-89308330D01*
X122484912Y-89382826D01*
X122483106Y-89445732D01*
X122470725Y-89487397D01*
X122439982Y-89482886D01*
X122383284Y-89436187D01*
X122318066Y-89376156D01*
X122336904Y-89669643D01*
X122372961Y-90017229D01*
X122458129Y-90438563D01*
X122586703Y-90829735D01*
X122758471Y-91190241D01*
X122973224Y-91519573D01*
X123230750Y-91817229D01*
X123414435Y-91988089D01*
X123723397Y-92221457D01*
X124056985Y-92415431D01*
X124409357Y-92568379D01*
X124774670Y-92678668D01*
X125147085Y-92744666D01*
X125520758Y-92764740D01*
X125889848Y-92737257D01*
X126248513Y-92660586D01*
X126458251Y-92599837D01*
X126496663Y-92695559D01*
X126510546Y-92731035D01*
X126519983Y-92770909D01*
X126508623Y-92799629D01*
X126468826Y-92823605D01*
X126392952Y-92849250D01*
X126273362Y-92882976D01*
X125987199Y-92944378D01*
X125624443Y-92978357D01*
X125248545Y-92970056D01*
X124868974Y-92920290D01*
X124495199Y-92829870D01*
X124136688Y-92699608D01*
X124072433Y-92671188D01*
X123697013Y-92473339D01*
X123358966Y-92238025D01*
X123059262Y-91966708D01*
X122798873Y-91660852D01*
X122578771Y-91321918D01*
X122399927Y-90951370D01*
X122263314Y-90550669D01*
X122169901Y-90121278D01*
X122120662Y-89664661D01*
X122103332Y-89361239D01*
X122040847Y-89419940D01*
X122000278Y-89453661D01*
X121968359Y-89461425D01*
X121958322Y-89424579D01*
X121967289Y-89339996D01*
X121981503Y-89281969D01*
X122023509Y-89205228D01*
X122100981Y-89122988D01*
X122154035Y-89076414D01*
X122210494Y-89032804D01*
X122242286Y-89015967D01*
X122266497Y-89030558D01*
G37*
G36*
X128461555Y-83039496D02*
G01*
X128634979Y-83039496D01*
X128760726Y-83039639D01*
X128888331Y-83040742D01*
X128975775Y-83043729D01*
X129030622Y-83049518D01*
X129060435Y-83059024D01*
X129072777Y-83073165D01*
X129075210Y-83092858D01*
X129070556Y-83120367D01*
X129047967Y-83137148D01*
X128995641Y-83144556D01*
X128901786Y-83146219D01*
X128883997Y-83146237D01*
X128797897Y-83148141D01*
X128751262Y-83156216D01*
X128732086Y-83174739D01*
X128728362Y-83207987D01*
X128732046Y-83234768D01*
X128754854Y-83265507D01*
X128807885Y-83295060D01*
X128901786Y-83330978D01*
X128985338Y-83362258D01*
X129042544Y-83391343D01*
X129068863Y-83420851D01*
X129075210Y-83458830D01*
X129074911Y-83473165D01*
X129063499Y-83510055D01*
X129028519Y-83506965D01*
X128995635Y-83493946D01*
X128872515Y-83445815D01*
X128787612Y-83415176D01*
X128731607Y-83400175D01*
X128695180Y-83398958D01*
X128669013Y-83409675D01*
X128643784Y-83430470D01*
X128615094Y-83449751D01*
X128527552Y-83475986D01*
X128423068Y-83481198D01*
X128323551Y-83465474D01*
X128250911Y-83428901D01*
X128238439Y-83416649D01*
X128211421Y-83373534D01*
X128198230Y-83309625D01*
X128195239Y-83222994D01*
X128301471Y-83222994D01*
X128312224Y-83283376D01*
X128342914Y-83334164D01*
X128372624Y-83352095D01*
X128450219Y-83367930D01*
X128529308Y-83356384D01*
X128585395Y-83318991D01*
X128605801Y-83280319D01*
X128621639Y-83207821D01*
X128618000Y-83174888D01*
X128598417Y-83155763D01*
X128550423Y-83147806D01*
X128461555Y-83146219D01*
X128439723Y-83146232D01*
X128360375Y-83148144D01*
X128319267Y-83157555D01*
X128303824Y-83180494D01*
X128301471Y-83222994D01*
X128195239Y-83222994D01*
X128194748Y-83208785D01*
X128194748Y-83039496D01*
X128461555Y-83039496D01*
G37*
G36*
X125831883Y-86075135D02*
G01*
X126245092Y-86150355D01*
X126657127Y-86276962D01*
X127065474Y-86454729D01*
X127368543Y-86606593D01*
X127351259Y-86514457D01*
X127350974Y-86512939D01*
X127342543Y-86454185D01*
X127351821Y-86436662D01*
X127384161Y-86449857D01*
X127409981Y-86464475D01*
X127491823Y-86524300D01*
X127540608Y-86595839D01*
X127571429Y-86699192D01*
X127588982Y-86783323D01*
X127600375Y-86853636D01*
X127598119Y-86892314D01*
X127580985Y-86910869D01*
X127547742Y-86920810D01*
X127453445Y-86942022D01*
X127354726Y-86962311D01*
X127287964Y-86971057D01*
X127241376Y-86968575D01*
X127203180Y-86955183D01*
X127161595Y-86931199D01*
X127132036Y-86911736D01*
X127083659Y-86867773D01*
X127081201Y-86838675D01*
X127125947Y-86828152D01*
X127168126Y-86824421D01*
X127189191Y-86804831D01*
X127159612Y-86768450D01*
X127079387Y-86715275D01*
X126948514Y-86645305D01*
X126859770Y-86602116D01*
X126463801Y-86441646D01*
X126067843Y-86333232D01*
X125673637Y-86276921D01*
X125282928Y-86272756D01*
X124897456Y-86320781D01*
X124518965Y-86421043D01*
X124149197Y-86573585D01*
X124048543Y-86625548D01*
X123898579Y-86710450D01*
X123755967Y-86798706D01*
X123641448Y-86877886D01*
X123536706Y-86961395D01*
X123360966Y-87118878D01*
X123189144Y-87291872D01*
X123035177Y-87466043D01*
X122913005Y-87627055D01*
X122912432Y-87627899D01*
X122789729Y-87826821D01*
X122677671Y-88042782D01*
X122582458Y-88261549D01*
X122510286Y-88468888D01*
X122467354Y-88650564D01*
X122461438Y-88682063D01*
X122441726Y-88731437D01*
X122412558Y-88737276D01*
X122374366Y-88728160D01*
X122306448Y-88722479D01*
X122278347Y-88721551D01*
X122253131Y-88710016D01*
X122248003Y-88673866D01*
X122257400Y-88599107D01*
X122266651Y-88547785D01*
X122305654Y-88395440D01*
X122362579Y-88221820D01*
X122431261Y-88044746D01*
X122505533Y-87882038D01*
X122590171Y-87724950D01*
X122812341Y-87390219D01*
X123075416Y-87082086D01*
X123373536Y-86805649D01*
X123700839Y-86566006D01*
X124051464Y-86368254D01*
X124419550Y-86217489D01*
X124610363Y-86160047D01*
X125012004Y-86079755D01*
X125420016Y-86051526D01*
X125831883Y-86075135D01*
G37*
G36*
X122298320Y-78850631D02*
G01*
X124726261Y-78850631D01*
X127527731Y-78850631D01*
X127527731Y-79037395D01*
X127527731Y-79224160D01*
X126300421Y-79224160D01*
X125073110Y-79224160D01*
X125073110Y-79514121D01*
X125073110Y-79804081D01*
X126313761Y-80598072D01*
X127554412Y-81392062D01*
X127554412Y-81615464D01*
X127554100Y-81654322D01*
X127550348Y-81748620D01*
X127543246Y-81814248D01*
X127533925Y-81838866D01*
X127521843Y-81835094D01*
X127473766Y-81809229D01*
X127407554Y-81766916D01*
X127361133Y-81736088D01*
X127275124Y-81679981D01*
X127157629Y-81603902D01*
X127013739Y-81511107D01*
X126848546Y-81404852D01*
X126667142Y-81288390D01*
X126474617Y-81164978D01*
X126276064Y-81037871D01*
X126076573Y-80910323D01*
X125881236Y-80785591D01*
X125695146Y-80666928D01*
X125523392Y-80557590D01*
X125371068Y-80460832D01*
X125243263Y-80379910D01*
X125145070Y-80318078D01*
X125081581Y-80278592D01*
X125057886Y-80264706D01*
X125050531Y-80279667D01*
X125046429Y-80328423D01*
X125046232Y-80336291D01*
X125033843Y-80418045D01*
X125005485Y-80532284D01*
X124965774Y-80664514D01*
X124919329Y-80800244D01*
X124870766Y-80924983D01*
X124824705Y-81024240D01*
X124777542Y-81103432D01*
X124661287Y-81256606D01*
X124520928Y-81403822D01*
X124371036Y-81530522D01*
X124226182Y-81622151D01*
X124201835Y-81634150D01*
X123940418Y-81732197D01*
X123672447Y-81780740D01*
X123403900Y-81781811D01*
X123140756Y-81737440D01*
X122888993Y-81649658D01*
X122654589Y-81520497D01*
X122443522Y-81351986D01*
X122261770Y-81146158D01*
X122115311Y-80905042D01*
X122069533Y-80808357D01*
X122026808Y-80705508D01*
X121993359Y-80603600D01*
X121968073Y-80494880D01*
X121949842Y-80371593D01*
X121937555Y-80225984D01*
X121930102Y-80050298D01*
X121926371Y-79836781D01*
X121925254Y-79577679D01*
X121925028Y-79224160D01*
X122298320Y-79224160D01*
X122298783Y-79711082D01*
X122299374Y-79810510D01*
X122307524Y-80070981D01*
X122326987Y-80289282D01*
X122360004Y-80473279D01*
X122408815Y-80630840D01*
X122475657Y-80769833D01*
X122562772Y-80898125D01*
X122672399Y-81023583D01*
X122799495Y-81140416D01*
X123006697Y-81276792D01*
X123229123Y-81365527D01*
X123461342Y-81405291D01*
X123697922Y-81394753D01*
X123933433Y-81332582D01*
X123973709Y-81315923D01*
X124147396Y-81211711D01*
X124306880Y-81064618D01*
X124445603Y-80882911D01*
X124557008Y-80674856D01*
X124634538Y-80448720D01*
X124649186Y-80374901D01*
X124667651Y-80219910D01*
X124681896Y-80011935D01*
X124691909Y-79751103D01*
X124706391Y-79224160D01*
X123502355Y-79224160D01*
X122298320Y-79224160D01*
X121925028Y-79224160D01*
X121924790Y-78850631D01*
X122298320Y-78850631D01*
G37*
G36*
X124928729Y-82176369D02*
G01*
X125170472Y-82184653D01*
X125387891Y-82200031D01*
X125566702Y-82222481D01*
X125581647Y-82225009D01*
X125984794Y-82309370D01*
X126344599Y-82417311D01*
X126660151Y-82548230D01*
X126930539Y-82701527D01*
X127154851Y-82876599D01*
X127332176Y-83072844D01*
X127461601Y-83289662D01*
X127542216Y-83526449D01*
X127551159Y-83570468D01*
X127570402Y-83799232D01*
X127552231Y-84044530D01*
X127499558Y-84291704D01*
X127415299Y-84526095D01*
X127302367Y-84733044D01*
X127185621Y-84907143D01*
X127356676Y-84907143D01*
X127527731Y-84907143D01*
X127527731Y-85107248D01*
X127527731Y-85307353D01*
X126113656Y-85307353D01*
X124699580Y-85307353D01*
X124699580Y-84573635D01*
X124699580Y-83839916D01*
X124886345Y-83839916D01*
X125073110Y-83839916D01*
X125073110Y-84373530D01*
X125073110Y-84907143D01*
X125801605Y-84907143D01*
X126530099Y-84907143D01*
X126648716Y-84831183D01*
X126814450Y-84702841D01*
X126971529Y-84521349D01*
X127086418Y-84310367D01*
X127156866Y-84074185D01*
X127180622Y-83817096D01*
X127180578Y-83804978D01*
X127174321Y-83675879D01*
X127154437Y-83574050D01*
X127116513Y-83476004D01*
X127037192Y-83338647D01*
X126886882Y-83165656D01*
X126691502Y-83011672D01*
X126454269Y-82877945D01*
X126178402Y-82765726D01*
X125867118Y-82676266D01*
X125523635Y-82610818D01*
X125151170Y-82570631D01*
X124752942Y-82556957D01*
X124493312Y-82562918D01*
X124128130Y-82592622D01*
X123785897Y-82645910D01*
X123470256Y-82721279D01*
X123184849Y-82817226D01*
X122933321Y-82932247D01*
X122719315Y-83064840D01*
X122546473Y-83213501D01*
X122418439Y-83376727D01*
X122338857Y-83553015D01*
X122298921Y-83759287D01*
X122300775Y-83995521D01*
X122349653Y-84228157D01*
X122442902Y-84449031D01*
X122577866Y-84649984D01*
X122751891Y-84822854D01*
X122756239Y-84826383D01*
X122829374Y-84887752D01*
X122883453Y-84936741D01*
X122907048Y-84963025D01*
X122898596Y-84993279D01*
X122867261Y-85054842D01*
X122819876Y-85133723D01*
X122724291Y-85283146D01*
X122640389Y-85235218D01*
X122532863Y-85159011D01*
X122407599Y-85042984D01*
X122283829Y-84904752D01*
X122173711Y-84757974D01*
X122089405Y-84616309D01*
X122020012Y-84464765D01*
X121969698Y-84316336D01*
X121939937Y-84164011D01*
X121927646Y-83991705D01*
X121929743Y-83783334D01*
X121932542Y-83709736D01*
X121939161Y-83593114D01*
X121949862Y-83506514D01*
X121968002Y-83434328D01*
X121996941Y-83360948D01*
X122040037Y-83270766D01*
X122166509Y-83065715D01*
X122349796Y-82865124D01*
X122580332Y-82688069D01*
X122857662Y-82534797D01*
X123181330Y-82405557D01*
X123550882Y-82300597D01*
X123965862Y-82220166D01*
X124004226Y-82214576D01*
X124200412Y-82194281D01*
X124429415Y-82181162D01*
X124676949Y-82175198D01*
X124928729Y-82176369D01*
G37*
G36*
X127847900Y-81095074D02*
G01*
X127847901Y-81240314D01*
X127847936Y-81895359D01*
X127848033Y-82499480D01*
X127848206Y-83054691D01*
X127848469Y-83563003D01*
X127848836Y-84026431D01*
X127849321Y-84446985D01*
X127849938Y-84826679D01*
X127850702Y-85167525D01*
X127851627Y-85471536D01*
X127852726Y-85740725D01*
X127854015Y-85977103D01*
X127855506Y-86182684D01*
X127857215Y-86359479D01*
X127859156Y-86509503D01*
X127861342Y-86634766D01*
X127863788Y-86737282D01*
X127866508Y-86819064D01*
X127869516Y-86882123D01*
X127872827Y-86928473D01*
X127876454Y-86960126D01*
X127880412Y-86979094D01*
X127884715Y-86987390D01*
X127889377Y-86987027D01*
X127909770Y-86976988D01*
X127939106Y-86983423D01*
X127982422Y-87013551D01*
X128047060Y-87072601D01*
X128140363Y-87165803D01*
X128355913Y-87411213D01*
X128580409Y-87739025D01*
X128764859Y-88098466D01*
X128907221Y-88485453D01*
X129005453Y-88895904D01*
X129018844Y-88980458D01*
X129043435Y-89259464D01*
X129045322Y-89561815D01*
X129025471Y-89869267D01*
X128984847Y-90163576D01*
X128924417Y-90426496D01*
X128855964Y-90632540D01*
X128695587Y-90989782D01*
X128489243Y-91331634D01*
X128241380Y-91652614D01*
X127956446Y-91947246D01*
X127638890Y-92210050D01*
X127293160Y-92435547D01*
X127141101Y-92522547D01*
X127227694Y-92547381D01*
X127235874Y-92549807D01*
X127291515Y-92571512D01*
X127314286Y-92590095D01*
X127312031Y-92595008D01*
X127278532Y-92621006D01*
X127217684Y-92654041D01*
X127200262Y-92662246D01*
X127150092Y-92681599D01*
X127103868Y-92685399D01*
X127043494Y-92672927D01*
X126950877Y-92643467D01*
X126950719Y-92643414D01*
X126865059Y-92612254D01*
X126803972Y-92584984D01*
X126780673Y-92567502D01*
X126787115Y-92539321D01*
X126806746Y-92473802D01*
X126834964Y-92387410D01*
X126850018Y-92344565D01*
X126885377Y-92265627D01*
X126925766Y-92216777D01*
X126982613Y-92182124D01*
X127024691Y-92162495D01*
X127078518Y-92141586D01*
X127098670Y-92144703D01*
X127094016Y-92170956D01*
X127077076Y-92216409D01*
X127057184Y-92280171D01*
X127064533Y-92302300D01*
X127105239Y-92287428D01*
X127185416Y-92240187D01*
X127281443Y-92180160D01*
X127635479Y-91924528D01*
X127946344Y-91642038D01*
X128212791Y-91334767D01*
X128433567Y-91004792D01*
X128607424Y-90654190D01*
X128733112Y-90285039D01*
X128809379Y-89899414D01*
X128834977Y-89499394D01*
X128834933Y-89483500D01*
X128808928Y-89083697D01*
X128736458Y-88695550D01*
X128619649Y-88324632D01*
X128460621Y-87976517D01*
X128261499Y-87656780D01*
X128024405Y-87370994D01*
X127849674Y-87188341D01*
X127848393Y-89282774D01*
X127848349Y-89348011D01*
X127847854Y-89746407D01*
X127846971Y-90094700D01*
X127845654Y-90395719D01*
X127843860Y-90652292D01*
X127841543Y-90867247D01*
X127838659Y-91043410D01*
X127835163Y-91183610D01*
X127831009Y-91290675D01*
X127826153Y-91367433D01*
X127820550Y-91416710D01*
X127814155Y-91441336D01*
X127752536Y-91521195D01*
X127653959Y-91583182D01*
X127537334Y-91613985D01*
X127415080Y-91613818D01*
X127299620Y-91582897D01*
X127203373Y-91521437D01*
X127138760Y-91429653D01*
X127133640Y-91414232D01*
X127126763Y-91379334D01*
X127120872Y-91327306D01*
X127115896Y-91254526D01*
X127111763Y-91157369D01*
X127108402Y-91032214D01*
X127105741Y-90875436D01*
X127103709Y-90683413D01*
X127102234Y-90452521D01*
X127101243Y-90179138D01*
X127100667Y-89859641D01*
X127100432Y-89490406D01*
X127100268Y-89286334D01*
X127099579Y-88986257D01*
X127098402Y-88704479D01*
X127096783Y-88445382D01*
X127094770Y-88213350D01*
X127092409Y-88012765D01*
X127089748Y-87848011D01*
X127086831Y-87723469D01*
X127083707Y-87643523D01*
X127080422Y-87612556D01*
X127052563Y-87585555D01*
X126997456Y-87549802D01*
X126966230Y-87535719D01*
X126920198Y-87534891D01*
X126864053Y-87568690D01*
X126794013Y-87620975D01*
X126780673Y-89512431D01*
X126778330Y-89825917D01*
X126775369Y-90167352D01*
X126772261Y-90461038D01*
X126768931Y-90710080D01*
X126765303Y-90917579D01*
X126761302Y-91086638D01*
X126756851Y-91220360D01*
X126751876Y-91321846D01*
X126746300Y-91394200D01*
X126740047Y-91440523D01*
X126733043Y-91463919D01*
X126732430Y-91464985D01*
X126655897Y-91548313D01*
X126549553Y-91600612D01*
X126427238Y-91621339D01*
X126302792Y-91609951D01*
X126190054Y-91565904D01*
X126102864Y-91488656D01*
X126098208Y-91482282D01*
X126088095Y-91466372D01*
X126079361Y-91446521D01*
X126071875Y-91418927D01*
X126065502Y-91379789D01*
X126060108Y-91325305D01*
X126055560Y-91251674D01*
X126051725Y-91155094D01*
X126048469Y-91031765D01*
X126045658Y-90877884D01*
X126043160Y-90689651D01*
X126040839Y-90463263D01*
X126038564Y-90194919D01*
X126036200Y-89880818D01*
X126033614Y-89517158D01*
X126020273Y-87620975D01*
X125950233Y-87568690D01*
X125916091Y-87545351D01*
X125868902Y-87531325D01*
X125816830Y-87549802D01*
X125771116Y-87578451D01*
X125733865Y-87612556D01*
X125731752Y-87626293D01*
X125728510Y-87688840D01*
X125725422Y-87797571D01*
X125722537Y-87948093D01*
X125719908Y-88136014D01*
X125717583Y-88356942D01*
X125715615Y-88606484D01*
X125714052Y-88880249D01*
X125712947Y-89173845D01*
X125712348Y-89482879D01*
X125711909Y-89769625D01*
X125710855Y-90124123D01*
X125709244Y-90429702D01*
X125707031Y-90688944D01*
X125704172Y-90904431D01*
X125700620Y-91078744D01*
X125696330Y-91214467D01*
X125691259Y-91314180D01*
X125685360Y-91380467D01*
X125678589Y-91415910D01*
X125676193Y-91422539D01*
X125615692Y-91515222D01*
X125523053Y-91578659D01*
X125410344Y-91612399D01*
X125289631Y-91615988D01*
X125172980Y-91588976D01*
X125072458Y-91530909D01*
X125000131Y-91441336D01*
X124996715Y-91431768D01*
X124990412Y-91394281D01*
X124984982Y-91330248D01*
X124980372Y-91236691D01*
X124976532Y-91110629D01*
X124973410Y-90949084D01*
X124970955Y-90749076D01*
X124969116Y-90507625D01*
X124967842Y-90221753D01*
X124967080Y-89888479D01*
X124966780Y-89504826D01*
X124966387Y-87632445D01*
X124896087Y-87577147D01*
X124881644Y-87566096D01*
X124811404Y-87528081D01*
X124751552Y-87534887D01*
X124685027Y-87587338D01*
X124619538Y-87652827D01*
X124619538Y-89523012D01*
X124619542Y-89658332D01*
X124619519Y-90013624D01*
X124619230Y-90320496D01*
X124618402Y-90582616D01*
X124616765Y-90803653D01*
X124614044Y-90987274D01*
X124609969Y-91137148D01*
X124604266Y-91256943D01*
X124596663Y-91350327D01*
X124586889Y-91420969D01*
X124574670Y-91472535D01*
X124559735Y-91508696D01*
X124541811Y-91533117D01*
X124520626Y-91549469D01*
X124495907Y-91561419D01*
X124467383Y-91572635D01*
X124347364Y-91608906D01*
X124199055Y-91617332D01*
X124071337Y-91579082D01*
X123967809Y-91494718D01*
X123899160Y-91413133D01*
X123899160Y-89532980D01*
X123899160Y-87652827D01*
X123833671Y-87587338D01*
X123829028Y-87582797D01*
X123772473Y-87539602D01*
X123725736Y-87521849D01*
X123722635Y-87522006D01*
X123674026Y-87542619D01*
X123617800Y-87587338D01*
X123552311Y-87652827D01*
X123552311Y-89641750D01*
X123552311Y-91630673D01*
X123445589Y-91630673D01*
X123338866Y-91630673D01*
X123338966Y-89609612D01*
X123338995Y-89319201D01*
X123339129Y-88980825D01*
X123339456Y-88689306D01*
X123340071Y-88440948D01*
X123341070Y-88232054D01*
X123342545Y-88058925D01*
X123344593Y-87917867D01*
X123347307Y-87805180D01*
X123350782Y-87717168D01*
X123355113Y-87650134D01*
X123360394Y-87600381D01*
X123366720Y-87564211D01*
X123374185Y-87537928D01*
X123382884Y-87517835D01*
X123392911Y-87500233D01*
X123408042Y-87477836D01*
X123498029Y-87396786D01*
X123613051Y-87349649D01*
X123739863Y-87336425D01*
X123865216Y-87357115D01*
X123975864Y-87411717D01*
X124058560Y-87500233D01*
X124060216Y-87502966D01*
X124070404Y-87521415D01*
X124079172Y-87543018D01*
X124086627Y-87571638D01*
X124092877Y-87611136D01*
X124098027Y-87665375D01*
X124102185Y-87738217D01*
X124105457Y-87833524D01*
X124107949Y-87955157D01*
X124109768Y-88106979D01*
X124111022Y-88292853D01*
X124111815Y-88516639D01*
X124112256Y-88782200D01*
X124112451Y-89093399D01*
X124112506Y-89454097D01*
X124112509Y-89493749D01*
X124112630Y-89851285D01*
X124112982Y-90159577D01*
X124113652Y-90422357D01*
X124114724Y-90643361D01*
X124116286Y-90826320D01*
X124118424Y-90974970D01*
X124121224Y-91093042D01*
X124124772Y-91184271D01*
X124129155Y-91252390D01*
X124134459Y-91301132D01*
X124140771Y-91334231D01*
X124148176Y-91355421D01*
X124156762Y-91368435D01*
X124214276Y-91406753D01*
X124293445Y-91412670D01*
X124364166Y-91375301D01*
X124370752Y-91366027D01*
X124378020Y-91345822D01*
X124384235Y-91312674D01*
X124389477Y-91262908D01*
X124393827Y-91192850D01*
X124397366Y-91098827D01*
X124400174Y-90977162D01*
X124402332Y-90824183D01*
X124403920Y-90636215D01*
X124405020Y-90409583D01*
X124405711Y-90140613D01*
X124406075Y-89825631D01*
X124406193Y-89460962D01*
X124406240Y-89167524D01*
X124406440Y-88845420D01*
X124406889Y-88569772D01*
X124407684Y-88336744D01*
X124408925Y-88142499D01*
X124410710Y-87983199D01*
X124413138Y-87855008D01*
X124416306Y-87754087D01*
X124420315Y-87676601D01*
X124425262Y-87618711D01*
X124431245Y-87576580D01*
X124438365Y-87546372D01*
X124446718Y-87524249D01*
X124456404Y-87506373D01*
X124536476Y-87417830D01*
X124648125Y-87359087D01*
X124775406Y-87336013D01*
X124905627Y-87349018D01*
X125026094Y-87398508D01*
X125124115Y-87484893D01*
X125128544Y-87490593D01*
X125138695Y-87505488D01*
X125147410Y-87524097D01*
X125154798Y-87550238D01*
X125160969Y-87587730D01*
X125166032Y-87640393D01*
X125170097Y-87712045D01*
X125173273Y-87806506D01*
X125175671Y-87927595D01*
X125177399Y-88079131D01*
X125178567Y-88264932D01*
X125179285Y-88488818D01*
X125179662Y-88754609D01*
X125179808Y-89066123D01*
X125179832Y-89427179D01*
X125179875Y-89669992D01*
X125180141Y-90002805D01*
X125180723Y-90288354D01*
X125181700Y-90530336D01*
X125183150Y-90732451D01*
X125185154Y-90898397D01*
X125187791Y-91031871D01*
X125191141Y-91136572D01*
X125195283Y-91216199D01*
X125200297Y-91274450D01*
X125206263Y-91315023D01*
X125213259Y-91341617D01*
X125221366Y-91357929D01*
X125256251Y-91393505D01*
X125331662Y-91415847D01*
X125421712Y-91389608D01*
X125423102Y-91388850D01*
X125432870Y-91381816D01*
X125441283Y-91369892D01*
X125448440Y-91349350D01*
X125454445Y-91316461D01*
X125459397Y-91267496D01*
X125463399Y-91198726D01*
X125466550Y-91106424D01*
X125468954Y-90986861D01*
X125470709Y-90836308D01*
X125471919Y-90651036D01*
X125472684Y-90427318D01*
X125473104Y-90161423D01*
X125473283Y-89849625D01*
X125473320Y-89488194D01*
X125473341Y-89259284D01*
X125473507Y-88927547D01*
X125473921Y-88642958D01*
X125474676Y-88401667D01*
X125475870Y-88199827D01*
X125477597Y-88033588D01*
X125479953Y-87899103D01*
X125483033Y-87792521D01*
X125486933Y-87709995D01*
X125491748Y-87647676D01*
X125497574Y-87601715D01*
X125504506Y-87568263D01*
X125512641Y-87543473D01*
X125522072Y-87523494D01*
X125525939Y-87516491D01*
X125608259Y-87420537D01*
X125718271Y-87359920D01*
X125843779Y-87335344D01*
X125972590Y-87347512D01*
X126092509Y-87397127D01*
X126191342Y-87484893D01*
X126195771Y-87490593D01*
X126205922Y-87505488D01*
X126214637Y-87524097D01*
X126222025Y-87550238D01*
X126228195Y-87587730D01*
X126233259Y-87640393D01*
X126237324Y-87712045D01*
X126240500Y-87806506D01*
X126242898Y-87927595D01*
X126244626Y-88079131D01*
X126245794Y-88264932D01*
X126246512Y-88488818D01*
X126246889Y-88754609D01*
X126247035Y-89066123D01*
X126247059Y-89427179D01*
X126247124Y-89731713D01*
X126247420Y-90055172D01*
X126248034Y-90332068D01*
X126249046Y-90566124D01*
X126250539Y-90761066D01*
X126252594Y-90920618D01*
X126255295Y-91048504D01*
X126258723Y-91148450D01*
X126262961Y-91224180D01*
X126268089Y-91279418D01*
X126274191Y-91317889D01*
X126281348Y-91343318D01*
X126289643Y-91359429D01*
X126332510Y-91398005D01*
X126405757Y-91415340D01*
X126479013Y-91394475D01*
X126532875Y-91337185D01*
X126537292Y-91323898D01*
X126543569Y-91284303D01*
X126548961Y-91219339D01*
X126553523Y-91125895D01*
X126557310Y-91000860D01*
X126560377Y-90841126D01*
X126562779Y-90643582D01*
X126564571Y-90405117D01*
X126565807Y-90122623D01*
X126566543Y-89792989D01*
X126566834Y-89413105D01*
X126566862Y-89286550D01*
X126566989Y-88944010D01*
X126567266Y-88649708D01*
X126567805Y-88399811D01*
X126568717Y-88190483D01*
X126570115Y-88017889D01*
X126572110Y-87878196D01*
X126574813Y-87767568D01*
X126578336Y-87682171D01*
X126582791Y-87618170D01*
X126588289Y-87571730D01*
X126594942Y-87539017D01*
X126602861Y-87516197D01*
X126612158Y-87499433D01*
X126622944Y-87484893D01*
X126698097Y-87413693D01*
X126815197Y-87356413D01*
X126944863Y-87335600D01*
X127074107Y-87351137D01*
X127189940Y-87402909D01*
X127279373Y-87490797D01*
X127285479Y-87500724D01*
X127293968Y-87520037D01*
X127301283Y-87547337D01*
X127307530Y-87586405D01*
X127312815Y-87641023D01*
X127317246Y-87714971D01*
X127320929Y-87812031D01*
X127323969Y-87935983D01*
X127326474Y-88090610D01*
X127328549Y-88279692D01*
X127330302Y-88507011D01*
X127331838Y-88776347D01*
X127333264Y-89091483D01*
X127334687Y-89456198D01*
X127335138Y-89575291D01*
X127336574Y-89924742D01*
X127338066Y-90225652D01*
X127339714Y-90481700D01*
X127341617Y-90696563D01*
X127343872Y-90873920D01*
X127346579Y-91017448D01*
X127349836Y-91130825D01*
X127353743Y-91217729D01*
X127358399Y-91281838D01*
X127363901Y-91326829D01*
X127370349Y-91356381D01*
X127377842Y-91374170D01*
X127386478Y-91383876D01*
X127450735Y-91412901D01*
X127529878Y-91406950D01*
X127592920Y-91357929D01*
X127596609Y-91349652D01*
X127600395Y-91332978D01*
X127603924Y-91306652D01*
X127607203Y-91268927D01*
X127610242Y-91218054D01*
X127613050Y-91152285D01*
X127615636Y-91069871D01*
X127618008Y-90969064D01*
X127620177Y-90848116D01*
X127622150Y-90705278D01*
X127623936Y-90538801D01*
X127625545Y-90346938D01*
X127626985Y-90127940D01*
X127628266Y-89880058D01*
X127629396Y-89601545D01*
X127630384Y-89290650D01*
X127631239Y-88945628D01*
X127631971Y-88564727D01*
X127632587Y-88146202D01*
X127633098Y-87688302D01*
X127633511Y-87189280D01*
X127633837Y-86647387D01*
X127634083Y-86060875D01*
X127634259Y-85427995D01*
X127634373Y-84746999D01*
X127634435Y-84016138D01*
X127634454Y-83233665D01*
X127634454Y-75168698D01*
X127741177Y-75168698D01*
X127847900Y-75168698D01*
X127847900Y-81095074D01*
G37*
%TO.C,A1*%
X120040000Y-110810000D02*
X120040000Y-76520000D01*
X120040000Y-76520000D02*
X117500000Y-73980000D01*
X117500000Y-114620000D02*
X117500000Y-113350000D01*
X117500000Y-113350000D02*
X120040000Y-110810000D01*
X117500000Y-73980000D02*
X117500000Y-62804000D01*
X115976000Y-61280000D02*
X117500000Y-62804000D01*
X51460000Y-114620000D02*
X117500000Y-114620000D01*
X51460000Y-61280000D02*
X115976000Y-61280000D01*
X51460000Y-61280000D02*
X51460000Y-114620000D01*
%TD*%
%LPC*%
D11*
%TO.C,J13*%
X81000000Y-73000000D03*
D12*
X78500000Y-73000000D03*
X76000000Y-73000000D03*
%TD*%
D11*
%TO.C,J12*%
X81000000Y-83000000D03*
D12*
X78500000Y-83000000D03*
X76000000Y-83000000D03*
%TD*%
D11*
%TO.C,J11*%
X81000000Y-93000000D03*
D12*
X78500000Y-93000000D03*
X76000000Y-93000000D03*
%TD*%
D13*
%TO.C,R8*%
X69000000Y-96500000D03*
D14*
X69000000Y-88880000D03*
%TD*%
D13*
%TO.C,R7*%
X65000000Y-96500000D03*
D14*
X65000000Y-88880000D03*
%TD*%
D15*
%TO.C,J14*%
X69000000Y-83000000D03*
D16*
X66500000Y-83000000D03*
%TD*%
D11*
%TO.C,J9*%
X114500000Y-71500000D03*
D12*
X112000000Y-71500000D03*
X109500000Y-71500000D03*
X107000000Y-71500000D03*
X104500000Y-71500000D03*
X102000000Y-71500000D03*
%TD*%
D15*
%TO.C,J1*%
X69000000Y-73000000D03*
D16*
X66500000Y-73000000D03*
%TD*%
D17*
%TO.C,Q1*%
X94500000Y-96850000D03*
D18*
X91960000Y-96850000D03*
X89420000Y-96850000D03*
%TD*%
D13*
%TO.C,R2*%
X105000000Y-97620000D03*
D14*
X105000000Y-90000000D03*
%TD*%
D19*
%TO.C,J2*%
X124000000Y-66420000D03*
D20*
X124000000Y-71500000D03*
%TD*%
D13*
%TO.C,R5*%
X105000000Y-77935000D03*
D14*
X105000000Y-85555000D03*
%TD*%
D15*
%TO.C,J3*%
X81000000Y-104000000D03*
D16*
X78500000Y-104000000D03*
%TD*%
D15*
%TO.C,J6*%
X69000000Y-104000000D03*
D16*
X66500000Y-104000000D03*
%TD*%
D13*
%TO.C,R1*%
X96087500Y-85310000D03*
D14*
X88467500Y-85310000D03*
%TD*%
D21*
%TO.C,A1*%
X97180000Y-112080000D03*
X72796000Y-63820000D03*
X70256000Y-63820000D03*
X115087000Y-86680000D03*
X115087000Y-89220000D03*
X84480000Y-112080000D03*
X117627000Y-86680000D03*
X115087000Y-84140000D03*
X81940000Y-112080000D03*
D22*
X117627000Y-89220000D03*
X94640000Y-112080000D03*
X92100000Y-112080000D03*
X77876000Y-63820000D03*
D21*
X80416000Y-63820000D03*
X82956000Y-63820000D03*
X85496000Y-63820000D03*
X88036000Y-63820000D03*
X90576000Y-63820000D03*
X93116000Y-63820000D03*
X97180000Y-63820000D03*
X99720000Y-63820000D03*
X102260000Y-63820000D03*
X104800000Y-63820000D03*
X107340000Y-63820000D03*
X109880000Y-63820000D03*
X112420000Y-63820000D03*
X114960000Y-63820000D03*
X75336000Y-63820000D03*
X114960000Y-112080000D03*
X112420000Y-112080000D03*
X109880000Y-112080000D03*
X107340000Y-112080000D03*
X104800000Y-112080000D03*
X102260000Y-112080000D03*
X117627000Y-84140000D03*
X89560000Y-112080000D03*
X87020000Y-112080000D03*
D23*
X117500000Y-107000000D03*
X117500000Y-79060000D03*
D21*
X79400000Y-112080000D03*
D23*
X66700000Y-63820000D03*
X65430000Y-112080000D03*
%TD*%
D13*
%TO.C,R4*%
X96087500Y-81500000D03*
D14*
X88467500Y-81500000D03*
%TD*%
D11*
%TO.C,J8*%
X110500000Y-105442500D03*
D12*
X108000000Y-105442500D03*
X105500000Y-105442500D03*
X103000000Y-105442500D03*
%TD*%
D17*
%TO.C,Q2*%
X94500000Y-90500000D03*
D18*
X91960000Y-90500000D03*
X89420000Y-90500000D03*
%TD*%
D24*
%TO.C,U1*%
X95452500Y-71920000D03*
D25*
X95452500Y-69380000D03*
X87832500Y-69380000D03*
X87832500Y-71920000D03*
%TD*%
D15*
%TO.C,J7*%
X127000000Y-108000000D03*
D16*
X124500000Y-108000000D03*
%TD*%
D13*
%TO.C,R3*%
X100555000Y-90000000D03*
D14*
X100555000Y-97620000D03*
%TD*%
D24*
%TO.C,U2*%
X95452500Y-77000000D03*
D25*
X95452500Y-74460000D03*
X87832500Y-74460000D03*
X87832500Y-77000000D03*
%TD*%
D13*
%TO.C,R6*%
X100555000Y-77935000D03*
D14*
X100555000Y-85555000D03*
%TD*%
D11*
%TO.C,J5*%
X96000000Y-105442500D03*
D12*
X93500000Y-105442500D03*
X91000000Y-105442500D03*
X88500000Y-105442500D03*
%TD*%
D16*
%TO.C,J4*%
X124500000Y-99500000D03*
D15*
X127000000Y-99500000D03*
%TD*%
%LPD*%
M02*
