%TF.GenerationSoftware,KiCad,Pcbnew,7.0.2*%
%TF.CreationDate,2024-05-20T21:15:04+02:00*%
%TF.ProjectId,aux_axis,6175785f-6178-4697-932e-6b696361645f,rev?*%
%TF.SameCoordinates,Original*%
%TF.FileFunction,Copper,L2,Bot*%
%TF.FilePolarity,Positive*%
%FSLAX46Y46*%
G04 Gerber Fmt 4.6, Leading zero omitted, Abs format (unit mm)*
G04 Created by KiCad (PCBNEW 7.0.2) date 2024-05-20 21:15:04*
%MOMM*%
%LPD*%
G01*
G04 APERTURE LIST*
G04 Aperture macros list*
%AMRoundRect*
0 Rectangle with rounded corners*
0 $1 Rounding radius*
0 $2 $3 $4 $5 $6 $7 $8 $9 X,Y pos of 4 corners*
0 Add a 4 corners polygon primitive as box body*
4,1,4,$2,$3,$4,$5,$6,$7,$8,$9,$2,$3,0*
0 Add four circle primitives for the rounded corners*
1,1,$1+$1,$2,$3*
1,1,$1+$1,$4,$5*
1,1,$1+$1,$6,$7*
1,1,$1+$1,$8,$9*
0 Add four rect primitives between the rounded corners*
20,1,$1+$1,$2,$3,$4,$5,0*
20,1,$1+$1,$4,$5,$6,$7,0*
20,1,$1+$1,$6,$7,$8,$9,0*
20,1,$1+$1,$8,$9,$2,$3,0*%
G04 Aperture macros list end*
%TA.AperFunction,ComponentPad*%
%ADD10RoundRect,0.250000X0.600000X0.750000X-0.600000X0.750000X-0.600000X-0.750000X0.600000X-0.750000X0*%
%TD*%
%TA.AperFunction,ComponentPad*%
%ADD11O,1.700000X2.000000*%
%TD*%
%TA.AperFunction,ComponentPad*%
%ADD12C,1.400000*%
%TD*%
%TA.AperFunction,ComponentPad*%
%ADD13O,1.400000X1.400000*%
%TD*%
%TA.AperFunction,ComponentPad*%
%ADD14RoundRect,0.250000X0.600000X0.725000X-0.600000X0.725000X-0.600000X-0.725000X0.600000X-0.725000X0*%
%TD*%
%TA.AperFunction,ComponentPad*%
%ADD15O,1.700000X1.950000*%
%TD*%
%TA.AperFunction,ComponentPad*%
%ADD16R,3.000000X3.000000*%
%TD*%
%TA.AperFunction,ComponentPad*%
%ADD17C,3.000000*%
%TD*%
%TA.AperFunction,ComponentPad*%
%ADD18R,1.600000X1.600000*%
%TD*%
%TA.AperFunction,ComponentPad*%
%ADD19O,1.600000X1.600000*%
%TD*%
%TA.AperFunction,Conductor*%
%ADD20C,0.600000*%
%TD*%
%TA.AperFunction,Conductor*%
%ADD21C,1.200000*%
%TD*%
G04 APERTURE END LIST*
D10*
%TO.P,J4,1,Pin_1*%
%TO.N,GND*%
X140500000Y-62500000D03*
D11*
%TO.P,J4,2,Pin_2*%
%TO.N,Net-(J4-Pin_2)*%
X138000000Y-62500000D03*
%TD*%
D12*
%TO.P,R2,1*%
%TO.N,+5V*%
X117000000Y-78500000D03*
D13*
%TO.P,R2,2*%
%TO.N,i2c_data*%
X124620000Y-78500000D03*
%TD*%
D14*
%TO.P,J2,1,Pin_1*%
%TO.N,GND*%
X140500000Y-85500000D03*
D15*
%TO.P,J2,2,Pin_2*%
%TO.N,+6V*%
X138000000Y-85500000D03*
%TO.P,J2,3,Pin_3*%
%TO.N,servo_signal*%
X135500000Y-85500000D03*
%TD*%
D16*
%TO.P,J1,1,Pin_1*%
%TO.N,+6V*%
X135500000Y-98000000D03*
D17*
%TO.P,J1,2,Pin_2*%
%TO.N,GND*%
X140580000Y-98000000D03*
%TD*%
D12*
%TO.P,R4,1*%
%TO.N,input_signal*%
X117000000Y-82500000D03*
D13*
%TO.P,R4,2*%
%TO.N,GND*%
X124620000Y-82500000D03*
%TD*%
D14*
%TO.P,J5,1,Pin_1*%
%TO.N,GND*%
X124500000Y-53500000D03*
D15*
%TO.P,J5,2,Pin_2*%
%TO.N,+5V*%
X122000000Y-53500000D03*
%TO.P,J5,3,Pin_3*%
%TO.N,i2c_data*%
X119500000Y-53500000D03*
%TO.P,J5,4,Pin_4*%
%TO.N,i2c_clock*%
X117000000Y-53500000D03*
%TD*%
D14*
%TO.P,J3,1,Pin_1*%
%TO.N,GND*%
X140500000Y-74500000D03*
D15*
%TO.P,J3,2,Pin_2*%
%TO.N,+5V*%
X138000000Y-74500000D03*
%TO.P,J3,3,Pin_3*%
%TO.N,input_signal*%
X135500000Y-74500000D03*
%TD*%
D12*
%TO.P,R3,1*%
%TO.N,+5V*%
X117000000Y-74500000D03*
D13*
%TO.P,R3,2*%
%TO.N,i2c_clock*%
X124620000Y-74500000D03*
%TD*%
D18*
%TO.P,A1,1,D1/TX*%
%TO.N,unconnected-(A1-D1{slash}TX-Pad1)*%
X113000000Y-62000000D03*
D19*
%TO.P,A1,2,D0/RX*%
%TO.N,unconnected-(A1-D0{slash}RX-Pad2)*%
X113000000Y-64540000D03*
%TO.P,A1,3,~{RESET}*%
%TO.N,unconnected-(A1-~{RESET}-Pad3)*%
X113000000Y-67080000D03*
%TO.P,A1,4,GND*%
%TO.N,GND*%
X113000000Y-69620000D03*
%TO.P,A1,5,D2*%
%TO.N,input_signal*%
X113000000Y-72160000D03*
%TO.P,A1,6,D3*%
%TO.N,unconnected-(A1-D3-Pad6)*%
X113000000Y-74700000D03*
%TO.P,A1,7,D4*%
%TO.N,unconnected-(A1-D4-Pad7)*%
X113000000Y-77240000D03*
%TO.P,A1,8,D5*%
%TO.N,unconnected-(A1-D5-Pad8)*%
X113000000Y-79780000D03*
%TO.P,A1,9,D6*%
%TO.N,unconnected-(A1-D6-Pad9)*%
X113000000Y-82320000D03*
%TO.P,A1,10,D7*%
%TO.N,unconnected-(A1-D7-Pad10)*%
X113000000Y-84860000D03*
%TO.P,A1,11,D8*%
%TO.N,unconnected-(A1-D8-Pad11)*%
X113000000Y-87400000D03*
%TO.P,A1,12,D9*%
%TO.N,servo_signal*%
X113000000Y-89940000D03*
%TO.P,A1,13,D10*%
%TO.N,unconnected-(A1-D10-Pad13)*%
X113000000Y-92480000D03*
%TO.P,A1,14,D11*%
%TO.N,unconnected-(A1-D11-Pad14)*%
X113000000Y-95020000D03*
%TO.P,A1,15,D12*%
%TO.N,unconnected-(A1-D12-Pad15)*%
X113000000Y-97560000D03*
%TO.P,A1,16,D13*%
%TO.N,Net-(A1-D13)*%
X128240000Y-97560000D03*
%TO.P,A1,17,3V3*%
%TO.N,unconnected-(A1-3V3-Pad17)*%
X128240000Y-95020000D03*
%TO.P,A1,18,AREF*%
%TO.N,unconnected-(A1-AREF-Pad18)*%
X128240000Y-92480000D03*
%TO.P,A1,19,A0*%
%TO.N,unconnected-(A1-A0-Pad19)*%
X128240000Y-89940000D03*
%TO.P,A1,20,A1*%
%TO.N,unconnected-(A1-A1-Pad20)*%
X128240000Y-87400000D03*
%TO.P,A1,21,A2*%
%TO.N,unconnected-(A1-A2-Pad21)*%
X128240000Y-84860000D03*
%TO.P,A1,22,A3*%
%TO.N,unconnected-(A1-A3-Pad22)*%
X128240000Y-82320000D03*
%TO.P,A1,23,A4*%
%TO.N,i2c_data*%
X128240000Y-79780000D03*
%TO.P,A1,24,A5*%
%TO.N,i2c_clock*%
X128240000Y-77240000D03*
%TO.P,A1,25,A6*%
%TO.N,unconnected-(A1-A6-Pad25)*%
X128240000Y-74700000D03*
%TO.P,A1,26,A7*%
%TO.N,unconnected-(A1-A7-Pad26)*%
X128240000Y-72160000D03*
%TO.P,A1,27,+5V*%
%TO.N,+5V*%
X128240000Y-69620000D03*
%TO.P,A1,28,~{RESET}*%
%TO.N,unconnected-(A1-~{RESET}-Pad28)*%
X128240000Y-67080000D03*
%TO.P,A1,29,GND*%
%TO.N,GND*%
X128240000Y-64540000D03*
%TO.P,A1,30,VIN*%
%TO.N,unconnected-(A1-VIN-Pad30)*%
X128240000Y-62000000D03*
%TD*%
D12*
%TO.P,R1,1*%
%TO.N,Net-(A1-D13)*%
X117000000Y-86500000D03*
D13*
%TO.P,R1,2*%
%TO.N,Net-(J4-Pin_2)*%
X124620000Y-86500000D03*
%TD*%
D20*
%TO.N,GND*%
X128240000Y-64540000D02*
X135040000Y-64540000D01*
X125040000Y-64540000D02*
X124500000Y-64000000D01*
D21*
X140580000Y-85580000D02*
X140500000Y-85500000D01*
D20*
X140500000Y-65500000D02*
X140500000Y-74000000D01*
D21*
X140580000Y-98000000D02*
X140580000Y-85580000D01*
D20*
X124500000Y-64000000D02*
X124500000Y-53500000D01*
X136000000Y-65500000D02*
X140500000Y-65500000D01*
X140500000Y-74000000D02*
X140500000Y-85500000D01*
X135040000Y-64540000D02*
X136000000Y-65500000D01*
X128240000Y-64540000D02*
X125040000Y-64540000D01*
X140500000Y-62500000D02*
X140500000Y-65500000D01*
%TO.N,input_signal*%
X117000000Y-84000000D02*
X116500000Y-84500000D01*
X117000000Y-82500000D02*
X117000000Y-84000000D01*
X115000000Y-85000000D02*
X115000000Y-89000000D01*
X130500000Y-79500000D02*
X135500000Y-74500000D01*
X125000000Y-99000000D02*
X126000000Y-100000000D01*
X124000000Y-91000000D02*
X125000000Y-92000000D01*
X125000000Y-92000000D02*
X125000000Y-99000000D01*
X116500000Y-84500000D02*
X115500000Y-84500000D01*
X117000000Y-91000000D02*
X124000000Y-91000000D01*
X129500000Y-100000000D02*
X130500000Y-99000000D01*
X115000000Y-89000000D02*
X117000000Y-91000000D01*
X126000000Y-100000000D02*
X129500000Y-100000000D01*
X115500000Y-84500000D02*
X115000000Y-85000000D01*
X130500000Y-99000000D02*
X130500000Y-79500000D01*
%TO.N,servo_signal*%
X113940000Y-89940000D02*
X116500000Y-92500000D01*
X125500000Y-101500000D02*
X130000000Y-101500000D01*
X132000000Y-99500000D02*
X132000000Y-89000000D01*
X132000000Y-89000000D02*
X135500000Y-85500000D01*
X123000000Y-92500000D02*
X124000000Y-93500000D01*
X113000000Y-89940000D02*
X113940000Y-89940000D01*
X130000000Y-101500000D02*
X132000000Y-99500000D01*
X124000000Y-93500000D02*
X124000000Y-100000000D01*
X116500000Y-92500000D02*
X123000000Y-92500000D01*
X124000000Y-100000000D02*
X125500000Y-101500000D01*
%TO.N,Net-(A1-D13)*%
X126000000Y-97000000D02*
X126000000Y-91500000D01*
X128240000Y-97560000D02*
X126560000Y-97560000D01*
X124000000Y-89500000D02*
X117500000Y-89500000D01*
X117000000Y-89000000D02*
X117000000Y-86500000D01*
X126560000Y-97560000D02*
X126000000Y-97000000D01*
X126000000Y-91500000D02*
X124000000Y-89500000D01*
X117500000Y-89500000D02*
X117000000Y-89000000D01*
%TO.N,i2c_data*%
X128240000Y-79780000D02*
X125900000Y-79780000D01*
X125900000Y-79780000D02*
X124620000Y-78500000D01*
%TO.N,i2c_clock*%
X119500000Y-74500000D02*
X119000000Y-75000000D01*
X118500000Y-80500000D02*
X115500000Y-80500000D01*
X127360000Y-77240000D02*
X124620000Y-74500000D01*
X117000000Y-67500000D02*
X117000000Y-53500000D01*
X119000000Y-80000000D02*
X118500000Y-80500000D01*
X115500000Y-80500000D02*
X115000000Y-80000000D01*
X124620000Y-74500000D02*
X119500000Y-74500000D01*
X119000000Y-75000000D02*
X119000000Y-80000000D01*
X128240000Y-77240000D02*
X127360000Y-77240000D01*
X115000000Y-80000000D02*
X115000000Y-69500000D01*
X115000000Y-69500000D02*
X117000000Y-67500000D01*
%TO.N,+5V*%
X117380000Y-69620000D02*
X117000000Y-70000000D01*
X122000000Y-53500000D02*
X122000000Y-69620000D01*
X117000000Y-70000000D02*
X117000000Y-74500000D01*
X128240000Y-69620000D02*
X122000000Y-69620000D01*
X117000000Y-74500000D02*
X117000000Y-78500000D01*
X122000000Y-69620000D02*
X117380000Y-69620000D01*
D21*
%TO.N,+6V*%
X138000000Y-95500000D02*
X138000000Y-85500000D01*
X135500000Y-98000000D02*
X138000000Y-95500000D01*
%TD*%
%TA.AperFunction,Conductor*%
%TO.N,GND*%
G36*
X123735146Y-75320185D02*
G01*
X123751645Y-75332863D01*
X123893437Y-75462124D01*
X124082595Y-75579245D01*
X124082597Y-75579245D01*
X124082599Y-75579247D01*
X124290060Y-75659618D01*
X124508757Y-75700500D01*
X124637060Y-75700500D01*
X124704099Y-75720185D01*
X124724741Y-75736819D01*
X126857738Y-77869816D01*
X126890143Y-77890177D01*
X126901486Y-77898225D01*
X126931414Y-77922092D01*
X126965895Y-77938697D01*
X126978066Y-77945423D01*
X127010480Y-77965790D01*
X127046608Y-77978432D01*
X127059450Y-77983750D01*
X127093939Y-78000360D01*
X127131271Y-78008880D01*
X127144605Y-78012722D01*
X127168808Y-78021191D01*
X127171594Y-78022166D01*
X127228369Y-78062889D01*
X127232207Y-78068077D01*
X127239953Y-78079139D01*
X127400861Y-78240047D01*
X127587266Y-78370568D01*
X127645275Y-78397618D01*
X127697714Y-78443791D01*
X127716865Y-78510985D01*
X127696649Y-78577866D01*
X127645275Y-78622382D01*
X127587263Y-78649433D01*
X127400859Y-78779953D01*
X127237632Y-78943181D01*
X127176309Y-78976666D01*
X127149951Y-78979500D01*
X126282940Y-78979500D01*
X126215901Y-78959815D01*
X126195259Y-78943181D01*
X125860565Y-78608487D01*
X125827080Y-78547164D01*
X125824775Y-78509364D01*
X125824807Y-78509017D01*
X125825643Y-78500000D01*
X125805115Y-78278464D01*
X125774312Y-78170202D01*
X125744230Y-78064473D01*
X125645058Y-77865311D01*
X125510980Y-77687762D01*
X125346562Y-77537875D01*
X125157404Y-77420754D01*
X125096174Y-77397033D01*
X124949940Y-77340382D01*
X124731243Y-77299500D01*
X124508757Y-77299500D01*
X124290059Y-77340381D01*
X124290060Y-77340382D01*
X124082595Y-77420754D01*
X123893437Y-77537875D01*
X123729019Y-77687762D01*
X123594941Y-77865311D01*
X123495769Y-78064473D01*
X123434885Y-78278462D01*
X123414357Y-78500000D01*
X123434885Y-78721537D01*
X123495769Y-78935526D01*
X123594941Y-79134688D01*
X123729019Y-79312237D01*
X123893437Y-79462124D01*
X124082595Y-79579245D01*
X124082597Y-79579245D01*
X124082599Y-79579247D01*
X124290060Y-79659618D01*
X124508757Y-79700500D01*
X124637060Y-79700500D01*
X124704099Y-79720185D01*
X124724741Y-79736819D01*
X125397738Y-80409816D01*
X125430143Y-80430177D01*
X125441486Y-80438225D01*
X125471411Y-80462090D01*
X125471412Y-80462090D01*
X125471413Y-80462091D01*
X125505899Y-80478698D01*
X125518058Y-80485418D01*
X125550478Y-80505789D01*
X125586620Y-80518435D01*
X125599458Y-80523754D01*
X125633939Y-80540359D01*
X125668837Y-80548324D01*
X125671249Y-80548875D01*
X125684611Y-80552724D01*
X125720745Y-80565368D01*
X125758800Y-80569655D01*
X125772481Y-80571980D01*
X125795475Y-80577229D01*
X125809804Y-80580500D01*
X125809805Y-80580500D01*
X125855046Y-80580500D01*
X127149951Y-80580500D01*
X127216990Y-80600185D01*
X127237632Y-80616819D01*
X127400859Y-80780046D01*
X127587263Y-80910566D01*
X127587266Y-80910568D01*
X127645275Y-80937618D01*
X127697714Y-80983791D01*
X127716865Y-81050985D01*
X127696649Y-81117866D01*
X127645275Y-81162382D01*
X127587263Y-81189433D01*
X127400859Y-81319953D01*
X127239953Y-81480859D01*
X127109432Y-81667264D01*
X127013261Y-81873502D01*
X126954364Y-82093310D01*
X126934531Y-82320000D01*
X126954364Y-82546689D01*
X127013261Y-82766497D01*
X127109432Y-82972735D01*
X127239953Y-83159140D01*
X127400859Y-83320046D01*
X127507506Y-83394720D01*
X127587266Y-83450568D01*
X127611184Y-83461721D01*
X127645275Y-83477618D01*
X127697714Y-83523791D01*
X127716865Y-83590985D01*
X127696649Y-83657866D01*
X127645275Y-83702381D01*
X127628198Y-83710345D01*
X127587263Y-83729433D01*
X127400859Y-83859953D01*
X127239953Y-84020859D01*
X127109432Y-84207264D01*
X127013261Y-84413502D01*
X126954364Y-84633310D01*
X126934531Y-84859999D01*
X126954364Y-85086689D01*
X127013261Y-85306497D01*
X127109432Y-85512735D01*
X127239953Y-85699140D01*
X127400859Y-85860046D01*
X127544247Y-85960446D01*
X127587266Y-85990568D01*
X127645275Y-86017618D01*
X127697714Y-86063791D01*
X127716865Y-86130985D01*
X127696649Y-86197866D01*
X127645275Y-86242382D01*
X127587263Y-86269433D01*
X127400859Y-86399953D01*
X127239953Y-86560859D01*
X127109432Y-86747264D01*
X127013261Y-86953502D01*
X126954364Y-87173310D01*
X126934531Y-87400000D01*
X126954364Y-87626689D01*
X127013261Y-87846497D01*
X127109432Y-88052735D01*
X127239953Y-88239140D01*
X127400859Y-88400046D01*
X127540379Y-88497738D01*
X127587266Y-88530568D01*
X127645275Y-88557618D01*
X127697714Y-88603791D01*
X127716865Y-88670985D01*
X127696649Y-88737866D01*
X127645275Y-88782382D01*
X127587263Y-88809433D01*
X127400859Y-88939953D01*
X127239953Y-89100859D01*
X127109432Y-89287264D01*
X127013261Y-89493502D01*
X126954364Y-89713310D01*
X126934531Y-89939999D01*
X126954364Y-90166689D01*
X127013261Y-90386497D01*
X127109432Y-90592735D01*
X127239953Y-90779140D01*
X127400859Y-90940046D01*
X127537960Y-91036044D01*
X127587266Y-91070568D01*
X127645275Y-91097618D01*
X127697714Y-91143791D01*
X127716865Y-91210985D01*
X127696649Y-91277866D01*
X127645275Y-91322382D01*
X127587263Y-91349433D01*
X127400859Y-91479953D01*
X127239953Y-91640859D01*
X127109433Y-91827263D01*
X127036881Y-91982849D01*
X126990708Y-92035288D01*
X126923514Y-92054439D01*
X126856633Y-92034223D01*
X126811299Y-91981057D01*
X126800499Y-91930447D01*
X126800500Y-91455046D01*
X126800500Y-91409806D01*
X126791981Y-91372481D01*
X126789653Y-91358776D01*
X126785368Y-91320745D01*
X126772725Y-91284611D01*
X126768876Y-91271250D01*
X126760360Y-91233939D01*
X126749306Y-91210985D01*
X126743750Y-91199450D01*
X126738432Y-91186608D01*
X126725790Y-91150480D01*
X126705423Y-91118066D01*
X126698697Y-91105895D01*
X126682092Y-91071414D01*
X126658225Y-91041486D01*
X126650177Y-91030143D01*
X126647860Y-91026456D01*
X126629816Y-90997738D01*
X126502262Y-90870184D01*
X124534252Y-88902174D01*
X124516811Y-88884733D01*
X124502263Y-88870185D01*
X124502262Y-88870184D01*
X124469851Y-88849818D01*
X124458509Y-88841771D01*
X124428586Y-88817908D01*
X124394095Y-88801298D01*
X124381933Y-88794576D01*
X124362526Y-88782382D01*
X124349520Y-88774209D01*
X124313398Y-88761570D01*
X124300553Y-88756250D01*
X124266058Y-88739638D01*
X124228736Y-88731119D01*
X124215380Y-88727272D01*
X124179252Y-88714631D01*
X124141219Y-88710345D01*
X124127518Y-88708017D01*
X124090196Y-88699500D01*
X124090194Y-88699500D01*
X124044954Y-88699500D01*
X117924500Y-88699500D01*
X117857461Y-88679815D01*
X117811706Y-88627011D01*
X117800500Y-88575500D01*
X117800500Y-87449471D01*
X117820185Y-87382432D01*
X117840957Y-87357838D01*
X117890981Y-87312236D01*
X118025058Y-87134689D01*
X118124229Y-86935528D01*
X118131676Y-86909357D01*
X118157863Y-86817316D01*
X118185115Y-86721536D01*
X118205643Y-86500000D01*
X123414357Y-86500000D01*
X123434885Y-86721537D01*
X123495769Y-86935526D01*
X123594941Y-87134688D01*
X123729019Y-87312237D01*
X123893437Y-87462124D01*
X124082595Y-87579245D01*
X124082597Y-87579245D01*
X124082599Y-87579247D01*
X124290060Y-87659618D01*
X124508757Y-87700500D01*
X124508759Y-87700500D01*
X124731241Y-87700500D01*
X124731243Y-87700500D01*
X124949940Y-87659618D01*
X125157401Y-87579247D01*
X125346562Y-87462124D01*
X125510981Y-87312236D01*
X125645058Y-87134689D01*
X125744229Y-86935528D01*
X125751676Y-86909357D01*
X125777863Y-86817316D01*
X125805115Y-86721536D01*
X125825643Y-86500000D01*
X125805115Y-86278464D01*
X125775182Y-86173261D01*
X125744230Y-86064473D01*
X125645058Y-85865311D01*
X125510980Y-85687762D01*
X125346562Y-85537875D01*
X125157404Y-85420754D01*
X124994023Y-85357460D01*
X124949940Y-85340382D01*
X124731243Y-85299500D01*
X124508757Y-85299500D01*
X124337157Y-85331578D01*
X124290060Y-85340382D01*
X124082595Y-85420754D01*
X123893437Y-85537875D01*
X123729019Y-85687762D01*
X123594941Y-85865311D01*
X123495769Y-86064473D01*
X123434885Y-86278462D01*
X123414357Y-86500000D01*
X118205643Y-86500000D01*
X118185115Y-86278464D01*
X118155182Y-86173261D01*
X118124230Y-86064473D01*
X118025058Y-85865311D01*
X117890980Y-85687762D01*
X117726562Y-85537875D01*
X117537404Y-85420754D01*
X117374023Y-85357460D01*
X117329940Y-85340382D01*
X117111243Y-85299500D01*
X117111240Y-85299500D01*
X117107704Y-85298839D01*
X117045423Y-85267171D01*
X117010150Y-85206858D01*
X117013084Y-85137050D01*
X117042804Y-85089273D01*
X117129816Y-85002262D01*
X117129816Y-85002261D01*
X117597826Y-84534252D01*
X117629814Y-84502264D01*
X117629814Y-84502263D01*
X117629816Y-84502262D01*
X117650184Y-84469845D01*
X117658219Y-84458521D01*
X117682092Y-84428586D01*
X117698704Y-84394088D01*
X117705423Y-84381931D01*
X117725789Y-84349522D01*
X117738433Y-84313385D01*
X117743747Y-84300556D01*
X117760360Y-84266061D01*
X117768882Y-84228721D01*
X117772720Y-84215399D01*
X117785368Y-84179255D01*
X117789655Y-84141197D01*
X117791980Y-84127520D01*
X117800500Y-84090194D01*
X117800500Y-83909806D01*
X117800500Y-83449470D01*
X117820185Y-83382432D01*
X117840957Y-83357838D01*
X117890981Y-83312236D01*
X118025058Y-83134689D01*
X118124229Y-82935528D01*
X118124280Y-82935351D01*
X118152657Y-82835614D01*
X118177016Y-82750000D01*
X123443505Y-82750000D01*
X123496240Y-82935351D01*
X123595365Y-83134422D01*
X123729390Y-83311899D01*
X123893737Y-83461721D01*
X124082821Y-83578797D01*
X124290199Y-83659135D01*
X124370000Y-83674052D01*
X124370000Y-82750000D01*
X123443505Y-82750000D01*
X118177016Y-82750000D01*
X118185115Y-82721536D01*
X118202928Y-82529302D01*
X124266372Y-82529302D01*
X124295047Y-82642538D01*
X124358936Y-82740327D01*
X124451115Y-82812072D01*
X124561595Y-82850000D01*
X124649005Y-82850000D01*
X124735216Y-82835614D01*
X124837947Y-82780019D01*
X124865581Y-82750000D01*
X124869999Y-82750000D01*
X124869999Y-83674052D01*
X124949804Y-83659135D01*
X125157173Y-83578800D01*
X125346262Y-83461721D01*
X125510609Y-83311899D01*
X125644634Y-83134422D01*
X125743759Y-82935351D01*
X125796495Y-82750000D01*
X124869999Y-82750000D01*
X124865581Y-82750000D01*
X124917060Y-82694079D01*
X124963982Y-82587108D01*
X124973628Y-82470698D01*
X124944953Y-82357462D01*
X124881064Y-82259673D01*
X124788885Y-82187928D01*
X124678405Y-82150000D01*
X124590995Y-82150000D01*
X124504784Y-82164386D01*
X124402053Y-82219981D01*
X124322940Y-82305921D01*
X124276018Y-82412892D01*
X124266372Y-82529302D01*
X118202928Y-82529302D01*
X118205643Y-82500000D01*
X118185115Y-82278464D01*
X118177016Y-82250000D01*
X123443505Y-82250000D01*
X124370000Y-82250000D01*
X124370000Y-81325946D01*
X124869999Y-81325946D01*
X124869999Y-82249999D01*
X124870001Y-82250000D01*
X125796495Y-82250000D01*
X125743759Y-82064648D01*
X125644634Y-81865577D01*
X125510609Y-81688100D01*
X125346262Y-81538278D01*
X125157178Y-81421202D01*
X124949802Y-81340864D01*
X124869999Y-81325946D01*
X124370000Y-81325946D01*
X124290197Y-81340864D01*
X124082821Y-81421202D01*
X123893737Y-81538278D01*
X123729390Y-81688100D01*
X123595365Y-81865577D01*
X123496240Y-82064648D01*
X123443505Y-82250000D01*
X118177016Y-82250000D01*
X118148564Y-82150000D01*
X118124230Y-82064473D01*
X118025058Y-81865311D01*
X117890980Y-81687762D01*
X117726566Y-81537879D01*
X117726563Y-81537877D01*
X117726562Y-81537876D01*
X117713722Y-81529925D01*
X117667088Y-81477900D01*
X117655984Y-81408918D01*
X117683936Y-81344884D01*
X117742071Y-81306127D01*
X117779001Y-81300500D01*
X118590195Y-81300500D01*
X118601009Y-81298031D01*
X118627520Y-81291980D01*
X118641197Y-81289655D01*
X118679255Y-81285368D01*
X118715399Y-81272720D01*
X118728721Y-81268882D01*
X118766061Y-81260360D01*
X118800549Y-81243750D01*
X118813391Y-81238431D01*
X118849522Y-81225789D01*
X118881932Y-81205423D01*
X118894103Y-81198697D01*
X118928587Y-81182091D01*
X118958515Y-81158222D01*
X118969834Y-81150190D01*
X119002262Y-81129816D01*
X119129816Y-81002262D01*
X119188375Y-80943703D01*
X119188386Y-80943690D01*
X119597826Y-80534252D01*
X119629814Y-80502264D01*
X119629814Y-80502263D01*
X119629816Y-80502262D01*
X119650184Y-80469845D01*
X119658219Y-80458521D01*
X119682092Y-80428586D01*
X119698704Y-80394088D01*
X119705423Y-80381931D01*
X119725789Y-80349522D01*
X119738433Y-80313385D01*
X119743747Y-80300556D01*
X119760360Y-80266061D01*
X119768882Y-80228721D01*
X119772720Y-80215399D01*
X119785368Y-80179255D01*
X119789655Y-80141197D01*
X119791980Y-80127520D01*
X119800500Y-80090194D01*
X119800500Y-79909806D01*
X119800499Y-75424500D01*
X119820185Y-75357461D01*
X119872989Y-75311706D01*
X119924500Y-75300500D01*
X123668107Y-75300500D01*
X123735146Y-75320185D01*
G37*
%TD.AperFunction*%
%TA.AperFunction,Conductor*%
G36*
X140002562Y-48000605D02*
G01*
X140217318Y-48009488D01*
X140413453Y-48018052D01*
X140423332Y-48018882D01*
X140636792Y-48045489D01*
X140834966Y-48071580D01*
X140844166Y-48073147D01*
X141054202Y-48117187D01*
X141250400Y-48160684D01*
X141258889Y-48162886D01*
X141464544Y-48224112D01*
X141656707Y-48284702D01*
X141664446Y-48287428D01*
X141863363Y-48365046D01*
X141865513Y-48365911D01*
X142051024Y-48442752D01*
X142057972Y-48445886D01*
X142225903Y-48527982D01*
X142249587Y-48539561D01*
X142252383Y-48540972D01*
X142430420Y-48633652D01*
X142436636Y-48637118D01*
X142619793Y-48746255D01*
X142622929Y-48748187D01*
X142686491Y-48788681D01*
X142792282Y-48856078D01*
X142797710Y-48859741D01*
X142971184Y-48983599D01*
X142974616Y-48986140D01*
X143133912Y-49108372D01*
X143138567Y-49112126D01*
X143301226Y-49249891D01*
X143304838Y-49253072D01*
X143452925Y-49388769D01*
X143456807Y-49392486D01*
X143607512Y-49543191D01*
X143611232Y-49547076D01*
X143746921Y-49695155D01*
X143750107Y-49698772D01*
X143887872Y-49861431D01*
X143891626Y-49866086D01*
X144013858Y-50025382D01*
X144016399Y-50028814D01*
X144140257Y-50202288D01*
X144143920Y-50207716D01*
X144251800Y-50377052D01*
X144253743Y-50380205D01*
X144362880Y-50563362D01*
X144366346Y-50569578D01*
X144459026Y-50747615D01*
X144460437Y-50750411D01*
X144554099Y-50941997D01*
X144557260Y-50949005D01*
X144634051Y-51134395D01*
X144634991Y-51136734D01*
X144652157Y-51180724D01*
X144712559Y-51335523D01*
X144715302Y-51343309D01*
X144775899Y-51535496D01*
X144837107Y-51741089D01*
X144839320Y-51749623D01*
X144882818Y-51945826D01*
X144926845Y-52155804D01*
X144928422Y-52165060D01*
X144954524Y-52363318D01*
X144981114Y-52576643D01*
X144981948Y-52586570D01*
X144990513Y-52782728D01*
X144999394Y-52997438D01*
X144999500Y-53002562D01*
X144999500Y-100997437D01*
X144999394Y-101002562D01*
X144990513Y-101217271D01*
X144981948Y-101413427D01*
X144981114Y-101423355D01*
X144954524Y-101636679D01*
X144928423Y-101834936D01*
X144926845Y-101844195D01*
X144882818Y-102054173D01*
X144839320Y-102250374D01*
X144837106Y-102258912D01*
X144775899Y-102464503D01*
X144715301Y-102656693D01*
X144712561Y-102664470D01*
X144635008Y-102863224D01*
X144634051Y-102865603D01*
X144557260Y-103050993D01*
X144554099Y-103058001D01*
X144460437Y-103249587D01*
X144459026Y-103252383D01*
X144366346Y-103430420D01*
X144362880Y-103436636D01*
X144253743Y-103619793D01*
X144251800Y-103622946D01*
X144143920Y-103792282D01*
X144140257Y-103797710D01*
X144016399Y-103971184D01*
X144013858Y-103974616D01*
X143891626Y-104133912D01*
X143887872Y-104138567D01*
X143750107Y-104301226D01*
X143746908Y-104304858D01*
X143611254Y-104452899D01*
X143607512Y-104456807D01*
X143456807Y-104607512D01*
X143452899Y-104611254D01*
X143304858Y-104746908D01*
X143301226Y-104750107D01*
X143138567Y-104887872D01*
X143133912Y-104891626D01*
X142974616Y-105013858D01*
X142971184Y-105016399D01*
X142797710Y-105140257D01*
X142792282Y-105143920D01*
X142622946Y-105251800D01*
X142619793Y-105253743D01*
X142436636Y-105362880D01*
X142430420Y-105366346D01*
X142252383Y-105459026D01*
X142249587Y-105460437D01*
X142058001Y-105554099D01*
X142050993Y-105557260D01*
X141865603Y-105634051D01*
X141863224Y-105635008D01*
X141664475Y-105712559D01*
X141656689Y-105715302D01*
X141464503Y-105775899D01*
X141258909Y-105837107D01*
X141250375Y-105839320D01*
X141054173Y-105882818D01*
X140844194Y-105926845D01*
X140834938Y-105928422D01*
X140636681Y-105954524D01*
X140423355Y-105981114D01*
X140413428Y-105981948D01*
X140217271Y-105990513D01*
X140002563Y-105999394D01*
X139997438Y-105999500D01*
X115002562Y-105999500D01*
X114997437Y-105999394D01*
X114782728Y-105990513D01*
X114586571Y-105981948D01*
X114576643Y-105981114D01*
X114363320Y-105954524D01*
X114165062Y-105928423D01*
X114155803Y-105926845D01*
X113945826Y-105882818D01*
X113749624Y-105839321D01*
X113741086Y-105837106D01*
X113535496Y-105775899D01*
X113343305Y-105715301D01*
X113335528Y-105712561D01*
X113206985Y-105662404D01*
X113136734Y-105634991D01*
X113134395Y-105634051D01*
X112949005Y-105557260D01*
X112941997Y-105554099D01*
X112750411Y-105460437D01*
X112747615Y-105459026D01*
X112569578Y-105366346D01*
X112563362Y-105362880D01*
X112380205Y-105253743D01*
X112377052Y-105251800D01*
X112207716Y-105143920D01*
X112202288Y-105140257D01*
X112028814Y-105016399D01*
X112025382Y-105013858D01*
X111866086Y-104891626D01*
X111861431Y-104887872D01*
X111698772Y-104750107D01*
X111695155Y-104746921D01*
X111547076Y-104611232D01*
X111543191Y-104607512D01*
X111392486Y-104456807D01*
X111388769Y-104452925D01*
X111253072Y-104304838D01*
X111249891Y-104301226D01*
X111112126Y-104138567D01*
X111108372Y-104133912D01*
X110986140Y-103974616D01*
X110983599Y-103971184D01*
X110859741Y-103797710D01*
X110856078Y-103792282D01*
X110748198Y-103622946D01*
X110746255Y-103619793D01*
X110637118Y-103436636D01*
X110633652Y-103430420D01*
X110540972Y-103252383D01*
X110539561Y-103249587D01*
X110527982Y-103225903D01*
X110445886Y-103057972D01*
X110442752Y-103051024D01*
X110365911Y-102865513D01*
X110365046Y-102863363D01*
X110287431Y-102664453D01*
X110284698Y-102656696D01*
X110224100Y-102464503D01*
X110162884Y-102258883D01*
X110160678Y-102250375D01*
X110159209Y-102243751D01*
X110117175Y-102054145D01*
X110073149Y-101844175D01*
X110071576Y-101834937D01*
X110071576Y-101834936D01*
X110045489Y-101636792D01*
X110018882Y-101423334D01*
X110018052Y-101413455D01*
X110009486Y-101217271D01*
X110000605Y-101002562D01*
X110000500Y-100997439D01*
X110000500Y-97560000D01*
X111694531Y-97560000D01*
X111714364Y-97786689D01*
X111773261Y-98006497D01*
X111869432Y-98212735D01*
X111999953Y-98399140D01*
X112160859Y-98560046D01*
X112347264Y-98690567D01*
X112347265Y-98690567D01*
X112347266Y-98690568D01*
X112553504Y-98786739D01*
X112773308Y-98845635D01*
X112924435Y-98858857D01*
X112999999Y-98865468D01*
X112999999Y-98865467D01*
X113000000Y-98865468D01*
X113226692Y-98845635D01*
X113446496Y-98786739D01*
X113652734Y-98690568D01*
X113839139Y-98560047D01*
X114000047Y-98399139D01*
X114130568Y-98212734D01*
X114226739Y-98006496D01*
X114285635Y-97786692D01*
X114305468Y-97560000D01*
X114285635Y-97333308D01*
X114226739Y-97113504D01*
X114205410Y-97067764D01*
X118145787Y-97067764D01*
X118175413Y-97337016D01*
X118201055Y-97435097D01*
X118243928Y-97599088D01*
X118323650Y-97786689D01*
X118349871Y-97848392D01*
X118490982Y-98079611D01*
X118664253Y-98287818D01*
X118664255Y-98287820D01*
X118865998Y-98468582D01*
X119091910Y-98618044D01*
X119146038Y-98643418D01*
X119337177Y-98733021D01*
X119596562Y-98811058D01*
X119596569Y-98811060D01*
X119864561Y-98850500D01*
X119864564Y-98850500D01*
X120065369Y-98850500D01*
X120067631Y-98850500D01*
X120270156Y-98835677D01*
X120534553Y-98776780D01*
X120787558Y-98680014D01*
X121023777Y-98547441D01*
X121238177Y-98381888D01*
X121426186Y-98186881D01*
X121583799Y-97966579D01*
X121707656Y-97725675D01*
X121795118Y-97469305D01*
X121844319Y-97202933D01*
X121854212Y-96932235D01*
X121824586Y-96662982D01*
X121756072Y-96400912D01*
X121650130Y-96151610D01*
X121539218Y-95969875D01*
X121509017Y-95920388D01*
X121335746Y-95712181D01*
X121291721Y-95672734D01*
X121134002Y-95531418D01*
X120908090Y-95381956D01*
X120908086Y-95381954D01*
X120662822Y-95266978D01*
X120403437Y-95188941D01*
X120403431Y-95188940D01*
X120135439Y-95149500D01*
X119932369Y-95149500D01*
X119930120Y-95149664D01*
X119930109Y-95149665D01*
X119729843Y-95164322D01*
X119465449Y-95223219D01*
X119212441Y-95319986D01*
X118976223Y-95452559D01*
X118761825Y-95618109D01*
X118573813Y-95813120D01*
X118416201Y-96033420D01*
X118292342Y-96274329D01*
X118204881Y-96530695D01*
X118155680Y-96797066D01*
X118145787Y-97067764D01*
X114205410Y-97067764D01*
X114130568Y-96907266D01*
X114001672Y-96723181D01*
X114000046Y-96720859D01*
X113839140Y-96559953D01*
X113652733Y-96429431D01*
X113594725Y-96402382D01*
X113542285Y-96356210D01*
X113523133Y-96289017D01*
X113543348Y-96222135D01*
X113594725Y-96177618D01*
X113652734Y-96150568D01*
X113839139Y-96020047D01*
X114000047Y-95859139D01*
X114130568Y-95672734D01*
X114226739Y-95466496D01*
X114285635Y-95246692D01*
X114305468Y-95020000D01*
X114285635Y-94793308D01*
X114226739Y-94573504D01*
X114130568Y-94367266D01*
X114000047Y-94180861D01*
X114000046Y-94180859D01*
X113839140Y-94019953D01*
X113652733Y-93889431D01*
X113594725Y-93862382D01*
X113542285Y-93816210D01*
X113523133Y-93749017D01*
X113543348Y-93682135D01*
X113594725Y-93637618D01*
X113652734Y-93610568D01*
X113839139Y-93480047D01*
X114000047Y-93319139D01*
X114130568Y-93132734D01*
X114226739Y-92926496D01*
X114285635Y-92706692D01*
X114305468Y-92480000D01*
X114285635Y-92253308D01*
X114226739Y-92033504D01*
X114130568Y-91827266D01*
X114124017Y-91817909D01*
X114000046Y-91640859D01*
X113839140Y-91479953D01*
X113652733Y-91349431D01*
X113594725Y-91322382D01*
X113542285Y-91276210D01*
X113523133Y-91209017D01*
X113543348Y-91142135D01*
X113594725Y-91097618D01*
X113652734Y-91070568D01*
X113702039Y-91036044D01*
X113735573Y-91012562D01*
X113801779Y-90990235D01*
X113869546Y-91007245D01*
X113894378Y-91026456D01*
X115870184Y-93002262D01*
X115997738Y-93129816D01*
X116028767Y-93149313D01*
X116030145Y-93150179D01*
X116041483Y-93158224D01*
X116071411Y-93182090D01*
X116071414Y-93182092D01*
X116105899Y-93198699D01*
X116118069Y-93205425D01*
X116150480Y-93225790D01*
X116186597Y-93238428D01*
X116199441Y-93243748D01*
X116230499Y-93258703D01*
X116233939Y-93260360D01*
X116271276Y-93268881D01*
X116284613Y-93272725D01*
X116320745Y-93285368D01*
X116358776Y-93289653D01*
X116372481Y-93291981D01*
X116409806Y-93300500D01*
X116455046Y-93300500D01*
X122617060Y-93300500D01*
X122684099Y-93320185D01*
X122704741Y-93336819D01*
X123163181Y-93795258D01*
X123196666Y-93856581D01*
X123199500Y-93882939D01*
X123199500Y-100090195D01*
X123208017Y-100127518D01*
X123210345Y-100141219D01*
X123214631Y-100179252D01*
X123227272Y-100215380D01*
X123231119Y-100228736D01*
X123239638Y-100266058D01*
X123256250Y-100300553D01*
X123261570Y-100313398D01*
X123274209Y-100349520D01*
X123284770Y-100366327D01*
X123294576Y-100381933D01*
X123301298Y-100394095D01*
X123317908Y-100428586D01*
X123341772Y-100458510D01*
X123349818Y-100469850D01*
X123370184Y-100502262D01*
X124997738Y-102129816D01*
X125030143Y-102150177D01*
X125041486Y-102158225D01*
X125071411Y-102182090D01*
X125071412Y-102182090D01*
X125071413Y-102182091D01*
X125105896Y-102198697D01*
X125118058Y-102205418D01*
X125150478Y-102225789D01*
X125186620Y-102238435D01*
X125199458Y-102243754D01*
X125233939Y-102260359D01*
X125268837Y-102268324D01*
X125271249Y-102268875D01*
X125284611Y-102272724D01*
X125320745Y-102285368D01*
X125358800Y-102289655D01*
X125372481Y-102291980D01*
X125395475Y-102297229D01*
X125409804Y-102300500D01*
X125409805Y-102300500D01*
X130090195Y-102300500D01*
X130101009Y-102298031D01*
X130127520Y-102291980D01*
X130141197Y-102289655D01*
X130179255Y-102285368D01*
X130215399Y-102272720D01*
X130228721Y-102268882D01*
X130266061Y-102260360D01*
X130300549Y-102243750D01*
X130313391Y-102238431D01*
X130349522Y-102225789D01*
X130381932Y-102205423D01*
X130394103Y-102198697D01*
X130428587Y-102182091D01*
X130458515Y-102158222D01*
X130469834Y-102150190D01*
X130502262Y-102129816D01*
X130629816Y-102002262D01*
X132597826Y-100034252D01*
X132597825Y-100034251D01*
X132613915Y-100018161D01*
X132629816Y-100002262D01*
X132650180Y-99969850D01*
X132658229Y-99958508D01*
X132682091Y-99928587D01*
X132698697Y-99894103D01*
X132705426Y-99881928D01*
X132725789Y-99849522D01*
X132738431Y-99813391D01*
X132743751Y-99800549D01*
X132760360Y-99766061D01*
X132768882Y-99728721D01*
X132772720Y-99715399D01*
X132785368Y-99679255D01*
X132789655Y-99641197D01*
X132791980Y-99627520D01*
X132800500Y-99590194D01*
X132800500Y-99409806D01*
X132800499Y-89382938D01*
X132820184Y-89315900D01*
X132836813Y-89295263D01*
X135140956Y-86991120D01*
X135202277Y-86957637D01*
X135260729Y-86959028D01*
X135264592Y-86960063D01*
X135500000Y-86980659D01*
X135735408Y-86960063D01*
X135963663Y-86898903D01*
X136177829Y-86799035D01*
X136371401Y-86663495D01*
X136538495Y-86496401D01*
X136648426Y-86339401D01*
X136703002Y-86295778D01*
X136772500Y-86288584D01*
X136834855Y-86320107D01*
X136851571Y-86339399D01*
X136877075Y-86375822D01*
X136899402Y-86442027D01*
X136899500Y-86446944D01*
X136899500Y-94992795D01*
X136879815Y-95059834D01*
X136863181Y-95080476D01*
X135980475Y-95963181D01*
X135919152Y-95996666D01*
X135892794Y-95999500D01*
X133955439Y-95999500D01*
X133955420Y-95999500D01*
X133952128Y-95999501D01*
X133948848Y-95999853D01*
X133948840Y-95999854D01*
X133892515Y-96005909D01*
X133757669Y-96056204D01*
X133642454Y-96142454D01*
X133556204Y-96257668D01*
X133519451Y-96356210D01*
X133505909Y-96392517D01*
X133499500Y-96452127D01*
X133499500Y-96455448D01*
X133499500Y-96455449D01*
X133499500Y-99544560D01*
X133499500Y-99544578D01*
X133499501Y-99547872D01*
X133499853Y-99551152D01*
X133499854Y-99551159D01*
X133505909Y-99607483D01*
X133556204Y-99742331D01*
X133642454Y-99857546D01*
X133757669Y-99943796D01*
X133892517Y-99994091D01*
X133952127Y-100000500D01*
X137047872Y-100000499D01*
X137107483Y-99994091D01*
X137242331Y-99943796D01*
X137357546Y-99857546D01*
X137443796Y-99742331D01*
X137494091Y-99607483D01*
X137500500Y-99547873D01*
X137500499Y-97999999D01*
X138574890Y-97999999D01*
X138595300Y-98285357D01*
X138656111Y-98564902D01*
X138756088Y-98832952D01*
X138893193Y-99084042D01*
X138999883Y-99226562D01*
X139895195Y-98331250D01*
X139917340Y-98382587D01*
X140023433Y-98525094D01*
X140159530Y-98639294D01*
X140249216Y-98684335D01*
X139353436Y-99580115D01*
X139495958Y-99686806D01*
X139747047Y-99823911D01*
X140015097Y-99923888D01*
X140294642Y-99984699D01*
X140579999Y-100005109D01*
X140865357Y-99984699D01*
X141144902Y-99923888D01*
X141412952Y-99823911D01*
X141664041Y-99686806D01*
X141806562Y-99580115D01*
X140913748Y-98687300D01*
X140923409Y-98683784D01*
X141071844Y-98586157D01*
X141193764Y-98456930D01*
X141265768Y-98332215D01*
X142160115Y-99226562D01*
X142266806Y-99084041D01*
X142403911Y-98832952D01*
X142503888Y-98564902D01*
X142564699Y-98285357D01*
X142585109Y-98000000D01*
X142564699Y-97714642D01*
X142503888Y-97435097D01*
X142403911Y-97167047D01*
X142266806Y-96915958D01*
X142160115Y-96773436D01*
X141264803Y-97668747D01*
X141242660Y-97617413D01*
X141136567Y-97474906D01*
X141000470Y-97360706D01*
X140910782Y-97315663D01*
X141806562Y-96419883D01*
X141664042Y-96313193D01*
X141412952Y-96176088D01*
X141144902Y-96076111D01*
X140865357Y-96015300D01*
X140580000Y-95994890D01*
X140294642Y-96015300D01*
X140015097Y-96076111D01*
X139747047Y-96176088D01*
X139495954Y-96313195D01*
X139353437Y-96419882D01*
X139353436Y-96419883D01*
X140246252Y-97312699D01*
X140236591Y-97316216D01*
X140088156Y-97413843D01*
X139966236Y-97543070D01*
X139894231Y-97667784D01*
X138999883Y-96773436D01*
X138999882Y-96773437D01*
X138893195Y-96915954D01*
X138756088Y-97167047D01*
X138656111Y-97435097D01*
X138595300Y-97714642D01*
X138574890Y-97999999D01*
X137500499Y-97999999D01*
X137500499Y-97607202D01*
X137520184Y-97540164D01*
X137536813Y-97519527D01*
X138705880Y-96350460D01*
X138721627Y-96337141D01*
X138723952Y-96335486D01*
X138786444Y-96269944D01*
X138788424Y-96267916D01*
X138815241Y-96241101D01*
X138820795Y-96234373D01*
X138826620Y-96227809D01*
X138868986Y-96183378D01*
X138886361Y-96156342D01*
X138895051Y-96144439D01*
X138915524Y-96119645D01*
X138944931Y-96065788D01*
X138949437Y-96058192D01*
X138982613Y-96006572D01*
X138994564Y-95976718D01*
X139000837Y-95963404D01*
X139016248Y-95935182D01*
X139016250Y-95935176D01*
X139034930Y-95876740D01*
X139037925Y-95868408D01*
X139060059Y-95813120D01*
X139060725Y-95811457D01*
X139066810Y-95779881D01*
X139070448Y-95765629D01*
X139080242Y-95734992D01*
X139087527Y-95674057D01*
X139088883Y-95665354D01*
X139100500Y-95605085D01*
X139100500Y-95572938D01*
X139101377Y-95558217D01*
X139105192Y-95526308D01*
X139100816Y-95465118D01*
X139100500Y-95456272D01*
X139100500Y-86785524D01*
X139120185Y-86718485D01*
X139172989Y-86672730D01*
X139242147Y-86662786D01*
X139305703Y-86691811D01*
X139312181Y-86697843D01*
X139431654Y-86817316D01*
X139580877Y-86909357D01*
X139747303Y-86964506D01*
X139846890Y-86974680D01*
X139853168Y-86974999D01*
X140249999Y-86974999D01*
X140250000Y-86974998D01*
X140250000Y-85908018D01*
X140364801Y-85960446D01*
X140466025Y-85975000D01*
X140533975Y-85975000D01*
X140635199Y-85960446D01*
X140750000Y-85908018D01*
X140750000Y-86974999D01*
X141146829Y-86974999D01*
X141153111Y-86974678D01*
X141252695Y-86964506D01*
X141419122Y-86909357D01*
X141568345Y-86817316D01*
X141692316Y-86693345D01*
X141784357Y-86544122D01*
X141839506Y-86377696D01*
X141849680Y-86278109D01*
X141850000Y-86271831D01*
X141850000Y-85750000D01*
X140903969Y-85750000D01*
X140936519Y-85699351D01*
X140975000Y-85568295D01*
X140975000Y-85431705D01*
X140936519Y-85300649D01*
X140903969Y-85250000D01*
X141849999Y-85250000D01*
X141849999Y-84728170D01*
X141849678Y-84721888D01*
X141839506Y-84622304D01*
X141784357Y-84455877D01*
X141692316Y-84306654D01*
X141568345Y-84182683D01*
X141419122Y-84090642D01*
X141252696Y-84035493D01*
X141153109Y-84025319D01*
X141146832Y-84025000D01*
X140750000Y-84025000D01*
X140750000Y-85091981D01*
X140635199Y-85039554D01*
X140533975Y-85025000D01*
X140466025Y-85025000D01*
X140364801Y-85039554D01*
X140250000Y-85091981D01*
X140250000Y-84025000D01*
X139853171Y-84025000D01*
X139846888Y-84025321D01*
X139747304Y-84035493D01*
X139580877Y-84090642D01*
X139431654Y-84182683D01*
X139307684Y-84306653D01*
X139212184Y-84461484D01*
X139160236Y-84508208D01*
X139091273Y-84519430D01*
X139027191Y-84491587D01*
X139018964Y-84484068D01*
X138871404Y-84336508D01*
X138871401Y-84336505D01*
X138677830Y-84200965D01*
X138463663Y-84101097D01*
X138402501Y-84084709D01*
X138235407Y-84039936D01*
X138000000Y-84019340D01*
X137764592Y-84039936D01*
X137536336Y-84101097D01*
X137322170Y-84200965D01*
X137128598Y-84336505D01*
X136961505Y-84503598D01*
X136851575Y-84660596D01*
X136796998Y-84704221D01*
X136727500Y-84711415D01*
X136665145Y-84679892D01*
X136648425Y-84660596D01*
X136614518Y-84612171D01*
X136538495Y-84503599D01*
X136371401Y-84336505D01*
X136177830Y-84200965D01*
X135963663Y-84101097D01*
X135902502Y-84084709D01*
X135735407Y-84039936D01*
X135500000Y-84019340D01*
X135264592Y-84039936D01*
X135036336Y-84101097D01*
X134822170Y-84200965D01*
X134628598Y-84336505D01*
X134461505Y-84503598D01*
X134325965Y-84697170D01*
X134226097Y-84911336D01*
X134164936Y-85139592D01*
X134149736Y-85313332D01*
X134149500Y-85316034D01*
X134149500Y-85318742D01*
X134149500Y-85667059D01*
X134129815Y-85734098D01*
X134113181Y-85754740D01*
X131512181Y-88355740D01*
X131450858Y-88389225D01*
X131381166Y-88384241D01*
X131325233Y-88342369D01*
X131300816Y-88276905D01*
X131300500Y-88268059D01*
X131300500Y-79882939D01*
X131320185Y-79815900D01*
X131336819Y-79795258D01*
X133238192Y-77893885D01*
X135140956Y-75991120D01*
X135202277Y-75957637D01*
X135260729Y-75959028D01*
X135264592Y-75960063D01*
X135500000Y-75980659D01*
X135735408Y-75960063D01*
X135963663Y-75898903D01*
X136177829Y-75799035D01*
X136371401Y-75663495D01*
X136538495Y-75496401D01*
X136648426Y-75339401D01*
X136703002Y-75295778D01*
X136772500Y-75288584D01*
X136834855Y-75320107D01*
X136851571Y-75339398D01*
X136961505Y-75496401D01*
X137128599Y-75663495D01*
X137322170Y-75799035D01*
X137536337Y-75898903D01*
X137764592Y-75960063D01*
X138000000Y-75980659D01*
X138235408Y-75960063D01*
X138463663Y-75898903D01*
X138677829Y-75799035D01*
X138871401Y-75663495D01*
X139018967Y-75515928D01*
X139080287Y-75482446D01*
X139149978Y-75487430D01*
X139205912Y-75529301D01*
X139212184Y-75538515D01*
X139307684Y-75693346D01*
X139431654Y-75817316D01*
X139580877Y-75909357D01*
X139747303Y-75964506D01*
X139846890Y-75974680D01*
X139853168Y-75974999D01*
X140249999Y-75974999D01*
X140250000Y-75974998D01*
X140250000Y-74908018D01*
X140364801Y-74960446D01*
X140466025Y-74975000D01*
X140533975Y-74975000D01*
X140635199Y-74960446D01*
X140750000Y-74908018D01*
X140750000Y-75974999D01*
X141146829Y-75974999D01*
X141153111Y-75974678D01*
X141252695Y-75964506D01*
X141419122Y-75909357D01*
X141568345Y-75817316D01*
X141692316Y-75693345D01*
X141784357Y-75544122D01*
X141839506Y-75377696D01*
X141849680Y-75278109D01*
X141850000Y-75271831D01*
X141850000Y-74750000D01*
X140903969Y-74750000D01*
X140936519Y-74699351D01*
X140975000Y-74568295D01*
X140975000Y-74431705D01*
X140936519Y-74300649D01*
X140903969Y-74250000D01*
X141849999Y-74250000D01*
X141849999Y-73728170D01*
X141849678Y-73721888D01*
X141839506Y-73622304D01*
X141784357Y-73455877D01*
X141692316Y-73306654D01*
X141568345Y-73182683D01*
X141419122Y-73090642D01*
X141252696Y-73035493D01*
X141153109Y-73025319D01*
X141146832Y-73025000D01*
X140750000Y-73025000D01*
X140750000Y-74091981D01*
X140635199Y-74039554D01*
X140533975Y-74025000D01*
X140466025Y-74025000D01*
X140364801Y-74039554D01*
X140250000Y-74091981D01*
X140250000Y-73025000D01*
X139853171Y-73025000D01*
X139846888Y-73025321D01*
X139747304Y-73035493D01*
X139580877Y-73090642D01*
X139431654Y-73182683D01*
X139307684Y-73306653D01*
X139212184Y-73461484D01*
X139160236Y-73508208D01*
X139091273Y-73519430D01*
X139027191Y-73491587D01*
X139018964Y-73484068D01*
X138871404Y-73336508D01*
X138871401Y-73336505D01*
X138677830Y-73200965D01*
X138463663Y-73101097D01*
X138402502Y-73084709D01*
X138235407Y-73039936D01*
X137999999Y-73019340D01*
X137764592Y-73039936D01*
X137536336Y-73101097D01*
X137322170Y-73200965D01*
X137128598Y-73336505D01*
X136961505Y-73503598D01*
X136851575Y-73660596D01*
X136796998Y-73704221D01*
X136727500Y-73711415D01*
X136665145Y-73679892D01*
X136648425Y-73660596D01*
X136584592Y-73569433D01*
X136538495Y-73503599D01*
X136371401Y-73336505D01*
X136177830Y-73200965D01*
X135963663Y-73101097D01*
X135902502Y-73084709D01*
X135735407Y-73039936D01*
X135500000Y-73019340D01*
X135264592Y-73039936D01*
X135036336Y-73101097D01*
X134822170Y-73200965D01*
X134628598Y-73336505D01*
X134461505Y-73503598D01*
X134325965Y-73697170D01*
X134226097Y-73911336D01*
X134164936Y-74139592D01*
X134150846Y-74300649D01*
X134149500Y-74316034D01*
X134149500Y-74318742D01*
X134149500Y-74667059D01*
X134129815Y-74734098D01*
X134113181Y-74754740D01*
X129997738Y-78870184D01*
X129870184Y-78997737D01*
X129849817Y-79030151D01*
X129841772Y-79041489D01*
X129817908Y-79071413D01*
X129801300Y-79105899D01*
X129794576Y-79118064D01*
X129774211Y-79150475D01*
X129761565Y-79186613D01*
X129756246Y-79199453D01*
X129739639Y-79233938D01*
X129731118Y-79271268D01*
X129727270Y-79284623D01*
X129714630Y-79320747D01*
X129713612Y-79329781D01*
X129686542Y-79394194D01*
X129628944Y-79433745D01*
X129559107Y-79435878D01*
X129499203Y-79399916D01*
X129470618Y-79347982D01*
X129466739Y-79333504D01*
X129370568Y-79127266D01*
X129359999Y-79112171D01*
X129240046Y-78940859D01*
X129079140Y-78779953D01*
X128892733Y-78649431D01*
X128834725Y-78622382D01*
X128782285Y-78576210D01*
X128763133Y-78509017D01*
X128783348Y-78442135D01*
X128834725Y-78397618D01*
X128892734Y-78370568D01*
X129079139Y-78240047D01*
X129240047Y-78079139D01*
X129370568Y-77892734D01*
X129466739Y-77686496D01*
X129525635Y-77466692D01*
X129545468Y-77240000D01*
X129525635Y-77013308D01*
X129466739Y-76793504D01*
X129370568Y-76587266D01*
X129256032Y-76423689D01*
X129240046Y-76400859D01*
X129079140Y-76239953D01*
X128892733Y-76109431D01*
X128834725Y-76082382D01*
X128782285Y-76036210D01*
X128763133Y-75969017D01*
X128783348Y-75902135D01*
X128834725Y-75857618D01*
X128892734Y-75830568D01*
X129079139Y-75700047D01*
X129240047Y-75539139D01*
X129370568Y-75352734D01*
X129466739Y-75146496D01*
X129525635Y-74926692D01*
X129545468Y-74700000D01*
X129525635Y-74473308D01*
X129466739Y-74253504D01*
X129370568Y-74047266D01*
X129354978Y-74025000D01*
X129240046Y-73860859D01*
X129079140Y-73699953D01*
X128892733Y-73569431D01*
X128834725Y-73542382D01*
X128782285Y-73496210D01*
X128763133Y-73429017D01*
X128783348Y-73362135D01*
X128834725Y-73317618D01*
X128892734Y-73290568D01*
X129079139Y-73160047D01*
X129240047Y-72999139D01*
X129370568Y-72812734D01*
X129466739Y-72606496D01*
X129525635Y-72386692D01*
X129545468Y-72160000D01*
X129525635Y-71933308D01*
X129466739Y-71713504D01*
X129370568Y-71507266D01*
X129256032Y-71343689D01*
X129240046Y-71320859D01*
X129079140Y-71159953D01*
X128892733Y-71029431D01*
X128834725Y-71002382D01*
X128782285Y-70956210D01*
X128763133Y-70889017D01*
X128783348Y-70822135D01*
X128834725Y-70777618D01*
X128835317Y-70777342D01*
X128892734Y-70750568D01*
X129079139Y-70620047D01*
X129240047Y-70459139D01*
X129370568Y-70272734D01*
X129466739Y-70066496D01*
X129525635Y-69846692D01*
X129545468Y-69620000D01*
X129525635Y-69393308D01*
X129466739Y-69173504D01*
X129370568Y-68967266D01*
X129369762Y-68966114D01*
X129240046Y-68780859D01*
X129079140Y-68619953D01*
X128892733Y-68489431D01*
X128834725Y-68462382D01*
X128782285Y-68416210D01*
X128763133Y-68349017D01*
X128783348Y-68282135D01*
X128834725Y-68237618D01*
X128892734Y-68210568D01*
X129079139Y-68080047D01*
X129240047Y-67919139D01*
X129370568Y-67732734D01*
X129466739Y-67526496D01*
X129525635Y-67306692D01*
X129545468Y-67080000D01*
X129525635Y-66853308D01*
X129466739Y-66633504D01*
X129370568Y-66427266D01*
X129240047Y-66240861D01*
X129240046Y-66240859D01*
X129079140Y-66079953D01*
X128892736Y-65949433D01*
X128834725Y-65922382D01*
X128834132Y-65922105D01*
X128781695Y-65875933D01*
X128762543Y-65808739D01*
X128782759Y-65741858D01*
X128834135Y-65697342D01*
X128892479Y-65670135D01*
X129078819Y-65539658D01*
X129239658Y-65378819D01*
X129370134Y-65192480D01*
X129466266Y-64986326D01*
X129518872Y-64790000D01*
X128673686Y-64790000D01*
X128699493Y-64749844D01*
X128740000Y-64611889D01*
X128740000Y-64468111D01*
X128699493Y-64330156D01*
X128673686Y-64290000D01*
X129518872Y-64290000D01*
X129518871Y-64289999D01*
X129466266Y-64093673D01*
X129370134Y-63887519D01*
X129239658Y-63701180D01*
X129078819Y-63540341D01*
X128892482Y-63409866D01*
X128834133Y-63382657D01*
X128781694Y-63336484D01*
X128762543Y-63269290D01*
X128782759Y-63202409D01*
X128834134Y-63157893D01*
X128892734Y-63130568D01*
X129079139Y-63000047D01*
X129240047Y-62839139D01*
X129331194Y-62708966D01*
X136649500Y-62708966D01*
X136649735Y-62711659D01*
X136649736Y-62711667D01*
X136664936Y-62885407D01*
X136706984Y-63042331D01*
X136726097Y-63113663D01*
X136825965Y-63327829D01*
X136961505Y-63521401D01*
X137128599Y-63688495D01*
X137322170Y-63824035D01*
X137536337Y-63923903D01*
X137764591Y-63985063D01*
X137764592Y-63985063D01*
X137999999Y-64005659D01*
X137999999Y-64005658D01*
X138000000Y-64005659D01*
X138235408Y-63985063D01*
X138463663Y-63923903D01*
X138677829Y-63824035D01*
X138871401Y-63688495D01*
X139018967Y-63540928D01*
X139080287Y-63507446D01*
X139149978Y-63512430D01*
X139205912Y-63554301D01*
X139212184Y-63563515D01*
X139307684Y-63718346D01*
X139431654Y-63842316D01*
X139580877Y-63934357D01*
X139747303Y-63989506D01*
X139846890Y-63999680D01*
X139853168Y-63999999D01*
X140249999Y-63999999D01*
X140250000Y-63999998D01*
X140250000Y-62935501D01*
X140357685Y-62984680D01*
X140464237Y-63000000D01*
X140535763Y-63000000D01*
X140642315Y-62984680D01*
X140750000Y-62935501D01*
X140750000Y-63999999D01*
X141146829Y-63999999D01*
X141153111Y-63999678D01*
X141252695Y-63989506D01*
X141419122Y-63934357D01*
X141568345Y-63842316D01*
X141692316Y-63718345D01*
X141784357Y-63569122D01*
X141839506Y-63402696D01*
X141849680Y-63303109D01*
X141850000Y-63296831D01*
X141850000Y-62750000D01*
X140933686Y-62750000D01*
X140959493Y-62709844D01*
X141000000Y-62571889D01*
X141000000Y-62428111D01*
X140959493Y-62290156D01*
X140933686Y-62250000D01*
X141849999Y-62250000D01*
X141849999Y-61703170D01*
X141849678Y-61696888D01*
X141839506Y-61597304D01*
X141784357Y-61430877D01*
X141692316Y-61281654D01*
X141568345Y-61157683D01*
X141419122Y-61065642D01*
X141252696Y-61010493D01*
X141153109Y-61000319D01*
X141146832Y-61000000D01*
X140750000Y-61000000D01*
X140750000Y-62064498D01*
X140642315Y-62015320D01*
X140535763Y-62000000D01*
X140464237Y-62000000D01*
X140357685Y-62015320D01*
X140250000Y-62064498D01*
X140250000Y-61000000D01*
X139853171Y-61000000D01*
X139846888Y-61000321D01*
X139747304Y-61010493D01*
X139580877Y-61065642D01*
X139431654Y-61157683D01*
X139307684Y-61281653D01*
X139212184Y-61436484D01*
X139160236Y-61483208D01*
X139091273Y-61494430D01*
X139027191Y-61466587D01*
X139018964Y-61459068D01*
X138871404Y-61311508D01*
X138871401Y-61311505D01*
X138677830Y-61175965D01*
X138463663Y-61076097D01*
X138402502Y-61059709D01*
X138235407Y-61014936D01*
X137999999Y-60994340D01*
X137764592Y-61014936D01*
X137536336Y-61076097D01*
X137322170Y-61175965D01*
X137128598Y-61311505D01*
X136961505Y-61478598D01*
X136825965Y-61672170D01*
X136726097Y-61886336D01*
X136664936Y-62114592D01*
X136655129Y-62226692D01*
X136649500Y-62291034D01*
X136649500Y-62708966D01*
X129331194Y-62708966D01*
X129370568Y-62652734D01*
X129466739Y-62446496D01*
X129525635Y-62226692D01*
X129545468Y-62000000D01*
X129525635Y-61773308D01*
X129466739Y-61553504D01*
X129370568Y-61347266D01*
X129345531Y-61311508D01*
X129240046Y-61160859D01*
X129079140Y-60999953D01*
X128892735Y-60869432D01*
X128686497Y-60773261D01*
X128466689Y-60714364D01*
X128240000Y-60694531D01*
X128013310Y-60714364D01*
X127793502Y-60773261D01*
X127587264Y-60869432D01*
X127400859Y-60999953D01*
X127239953Y-61160859D01*
X127109432Y-61347264D01*
X127013261Y-61553502D01*
X126954364Y-61773310D01*
X126934531Y-62000000D01*
X126954364Y-62226689D01*
X127013261Y-62446497D01*
X127109432Y-62652735D01*
X127239953Y-62839140D01*
X127400859Y-63000046D01*
X127587264Y-63130567D01*
X127587265Y-63130567D01*
X127587266Y-63130568D01*
X127645865Y-63157893D01*
X127698304Y-63204065D01*
X127717456Y-63271259D01*
X127697240Y-63338140D01*
X127645866Y-63382656D01*
X127587522Y-63409863D01*
X127401180Y-63540341D01*
X127240341Y-63701180D01*
X127109865Y-63887519D01*
X127013733Y-64093673D01*
X126961128Y-64289999D01*
X126961128Y-64290000D01*
X127806314Y-64290000D01*
X127780507Y-64330156D01*
X127740000Y-64468111D01*
X127740000Y-64611889D01*
X127780507Y-64749844D01*
X127806314Y-64790000D01*
X126961128Y-64790000D01*
X127013733Y-64986326D01*
X127109865Y-65192480D01*
X127240341Y-65378819D01*
X127401180Y-65539658D01*
X127587519Y-65670134D01*
X127645865Y-65697342D01*
X127698304Y-65743514D01*
X127717456Y-65810708D01*
X127697240Y-65877589D01*
X127645866Y-65922105D01*
X127587267Y-65949430D01*
X127400859Y-66079953D01*
X127239953Y-66240859D01*
X127109432Y-66427264D01*
X127013261Y-66633502D01*
X126954364Y-66853310D01*
X126934531Y-67080000D01*
X126954364Y-67306689D01*
X127013261Y-67526497D01*
X127109432Y-67732735D01*
X127239953Y-67919140D01*
X127400859Y-68080046D01*
X127587263Y-68210566D01*
X127587266Y-68210568D01*
X127645275Y-68237618D01*
X127697714Y-68283791D01*
X127716865Y-68350985D01*
X127696649Y-68417866D01*
X127645275Y-68462382D01*
X127587263Y-68489433D01*
X127400859Y-68619953D01*
X127237632Y-68783181D01*
X127176309Y-68816666D01*
X127149951Y-68819500D01*
X122924500Y-68819500D01*
X122857461Y-68799815D01*
X122811706Y-68747011D01*
X122800500Y-68695500D01*
X122800500Y-54777690D01*
X122820185Y-54710651D01*
X122853380Y-54676113D01*
X122871401Y-54663495D01*
X123018966Y-54515929D01*
X123080288Y-54482446D01*
X123149979Y-54487430D01*
X123205913Y-54529301D01*
X123212185Y-54538516D01*
X123307683Y-54693345D01*
X123431654Y-54817316D01*
X123580877Y-54909357D01*
X123747303Y-54964506D01*
X123846890Y-54974680D01*
X123853168Y-54974999D01*
X124249999Y-54974999D01*
X124250000Y-54974998D01*
X124250000Y-53908018D01*
X124364801Y-53960446D01*
X124466025Y-53975000D01*
X124533975Y-53975000D01*
X124635199Y-53960446D01*
X124750000Y-53908018D01*
X124750000Y-54974999D01*
X125146829Y-54974999D01*
X125153111Y-54974678D01*
X125252695Y-54964506D01*
X125419122Y-54909357D01*
X125568345Y-54817316D01*
X125692316Y-54693345D01*
X125784357Y-54544122D01*
X125839506Y-54377696D01*
X125849680Y-54278109D01*
X125850000Y-54271831D01*
X125850000Y-53750000D01*
X124903969Y-53750000D01*
X124936519Y-53699351D01*
X124975000Y-53568295D01*
X124975000Y-53431705D01*
X124936519Y-53300649D01*
X124903969Y-53250000D01*
X125849999Y-53250000D01*
X125849999Y-53067764D01*
X138145787Y-53067764D01*
X138175413Y-53337016D01*
X138175414Y-53337018D01*
X138243928Y-53599088D01*
X138349870Y-53848390D01*
X138349871Y-53848392D01*
X138490982Y-54079611D01*
X138580253Y-54186881D01*
X138664255Y-54287820D01*
X138865998Y-54468582D01*
X139091910Y-54618044D01*
X139188857Y-54663491D01*
X139337177Y-54733021D01*
X139596562Y-54811058D01*
X139596569Y-54811060D01*
X139864561Y-54850500D01*
X139864564Y-54850500D01*
X140065369Y-54850500D01*
X140067631Y-54850500D01*
X140270156Y-54835677D01*
X140534553Y-54776780D01*
X140787558Y-54680014D01*
X141023777Y-54547441D01*
X141238177Y-54381888D01*
X141426186Y-54186881D01*
X141583799Y-53966579D01*
X141707656Y-53725675D01*
X141795118Y-53469305D01*
X141844319Y-53202933D01*
X141854212Y-52932235D01*
X141824586Y-52662982D01*
X141756072Y-52400912D01*
X141650130Y-52151610D01*
X141573057Y-52025321D01*
X141509017Y-51920388D01*
X141335746Y-51712181D01*
X141230759Y-51618112D01*
X141134002Y-51531418D01*
X140908090Y-51381956D01*
X140908086Y-51381954D01*
X140662822Y-51266978D01*
X140403437Y-51188941D01*
X140403431Y-51188940D01*
X140135439Y-51149500D01*
X139932369Y-51149500D01*
X139930120Y-51149664D01*
X139930109Y-51149665D01*
X139729843Y-51164322D01*
X139465449Y-51223219D01*
X139212441Y-51319986D01*
X138976223Y-51452559D01*
X138761825Y-51618109D01*
X138573813Y-51813120D01*
X138416201Y-52033420D01*
X138292342Y-52274329D01*
X138204881Y-52530695D01*
X138155680Y-52797066D01*
X138145787Y-53067764D01*
X125849999Y-53067764D01*
X125849999Y-52728170D01*
X125849678Y-52721888D01*
X125839506Y-52622304D01*
X125784357Y-52455877D01*
X125692316Y-52306654D01*
X125568345Y-52182683D01*
X125419122Y-52090642D01*
X125252696Y-52035493D01*
X125153109Y-52025319D01*
X125146832Y-52025000D01*
X124750000Y-52025000D01*
X124749999Y-53091981D01*
X124635199Y-53039554D01*
X124533975Y-53025000D01*
X124466025Y-53025000D01*
X124364801Y-53039554D01*
X124250000Y-53091981D01*
X124250000Y-52025000D01*
X123853171Y-52025000D01*
X123846888Y-52025321D01*
X123747304Y-52035493D01*
X123580877Y-52090642D01*
X123431654Y-52182683D01*
X123307684Y-52306653D01*
X123212184Y-52461484D01*
X123160236Y-52508208D01*
X123091273Y-52519430D01*
X123027191Y-52491587D01*
X123018964Y-52484068D01*
X122871404Y-52336508D01*
X122871404Y-52336507D01*
X122871401Y-52336505D01*
X122677830Y-52200965D01*
X122463663Y-52101097D01*
X122402502Y-52084709D01*
X122235407Y-52039936D01*
X121999999Y-52019340D01*
X121764592Y-52039936D01*
X121536336Y-52101097D01*
X121322170Y-52200965D01*
X121128598Y-52336505D01*
X120961505Y-52503598D01*
X120851575Y-52660596D01*
X120796998Y-52704221D01*
X120727500Y-52711415D01*
X120665145Y-52679892D01*
X120648425Y-52660596D01*
X120589640Y-52576642D01*
X120538495Y-52503599D01*
X120371401Y-52336505D01*
X120177830Y-52200965D01*
X119963663Y-52101097D01*
X119902502Y-52084709D01*
X119735407Y-52039936D01*
X119500000Y-52019340D01*
X119264592Y-52039936D01*
X119036336Y-52101097D01*
X118822170Y-52200965D01*
X118628598Y-52336505D01*
X118461505Y-52503598D01*
X118351575Y-52660596D01*
X118296998Y-52704221D01*
X118227500Y-52711415D01*
X118165145Y-52679892D01*
X118148425Y-52660596D01*
X118089640Y-52576642D01*
X118038495Y-52503599D01*
X117871401Y-52336505D01*
X117677830Y-52200965D01*
X117463663Y-52101097D01*
X117402502Y-52084709D01*
X117235407Y-52039936D01*
X117000000Y-52019340D01*
X116764592Y-52039936D01*
X116536336Y-52101097D01*
X116322170Y-52200965D01*
X116128598Y-52336505D01*
X115961505Y-52503598D01*
X115825965Y-52697170D01*
X115726097Y-52911336D01*
X115664936Y-53139592D01*
X115655277Y-53249999D01*
X115649500Y-53316034D01*
X115649500Y-53683966D01*
X115649735Y-53686659D01*
X115649736Y-53686667D01*
X115664936Y-53860407D01*
X115693385Y-53966579D01*
X115726097Y-54088663D01*
X115825965Y-54302829D01*
X115955223Y-54487430D01*
X115961506Y-54496402D01*
X116128597Y-54663494D01*
X116146620Y-54676113D01*
X116190247Y-54730688D01*
X116199500Y-54777690D01*
X116199499Y-67117060D01*
X116179814Y-67184099D01*
X116163180Y-67204741D01*
X114497738Y-68870184D01*
X114370181Y-68997740D01*
X114361624Y-69011359D01*
X114309289Y-69057649D01*
X114240235Y-69068296D01*
X114176387Y-69039920D01*
X114144250Y-68997789D01*
X114130135Y-68967520D01*
X113999658Y-68781180D01*
X113838819Y-68620341D01*
X113652482Y-68489866D01*
X113594133Y-68462657D01*
X113541694Y-68416484D01*
X113522543Y-68349290D01*
X113542759Y-68282409D01*
X113594134Y-68237893D01*
X113652734Y-68210568D01*
X113839139Y-68080047D01*
X114000047Y-67919139D01*
X114130568Y-67732734D01*
X114226739Y-67526496D01*
X114285635Y-67306692D01*
X114305468Y-67080000D01*
X114285635Y-66853308D01*
X114226739Y-66633504D01*
X114130568Y-66427266D01*
X114000047Y-66240861D01*
X114000046Y-66240859D01*
X113839140Y-66079953D01*
X113652733Y-65949431D01*
X113594725Y-65922382D01*
X113542285Y-65876210D01*
X113523133Y-65809017D01*
X113543348Y-65742135D01*
X113594725Y-65697618D01*
X113595317Y-65697342D01*
X113652734Y-65670568D01*
X113839139Y-65540047D01*
X114000047Y-65379139D01*
X114130568Y-65192734D01*
X114226739Y-64986496D01*
X114285635Y-64766692D01*
X114305468Y-64540000D01*
X114285635Y-64313308D01*
X114226739Y-64093504D01*
X114130568Y-63887266D01*
X114012290Y-63718345D01*
X114000046Y-63700859D01*
X113839140Y-63539953D01*
X113814537Y-63522726D01*
X113770912Y-63468150D01*
X113763718Y-63398651D01*
X113795241Y-63336296D01*
X113855470Y-63300882D01*
X113872401Y-63297862D01*
X113907483Y-63294091D01*
X114042331Y-63243796D01*
X114157546Y-63157546D01*
X114243796Y-63042331D01*
X114294091Y-62907483D01*
X114300500Y-62847873D01*
X114300499Y-61152128D01*
X114294091Y-61092517D01*
X114243796Y-60957669D01*
X114157546Y-60842454D01*
X114042331Y-60756204D01*
X113907483Y-60705909D01*
X113847873Y-60699500D01*
X113844550Y-60699500D01*
X112155439Y-60699500D01*
X112155420Y-60699500D01*
X112152128Y-60699501D01*
X112148848Y-60699853D01*
X112148840Y-60699854D01*
X112092515Y-60705909D01*
X111957669Y-60756204D01*
X111842454Y-60842454D01*
X111756204Y-60957668D01*
X111705910Y-61092515D01*
X111705909Y-61092517D01*
X111699500Y-61152127D01*
X111699500Y-61155448D01*
X111699500Y-61155449D01*
X111699500Y-62844560D01*
X111699500Y-62844578D01*
X111699501Y-62847872D01*
X111699853Y-62851152D01*
X111699854Y-62851159D01*
X111705909Y-62907484D01*
X111731056Y-62974906D01*
X111756204Y-63042331D01*
X111842454Y-63157546D01*
X111957669Y-63243796D01*
X112092517Y-63294091D01*
X112127594Y-63297862D01*
X112192143Y-63324598D01*
X112231993Y-63381989D01*
X112234488Y-63451814D01*
X112198837Y-63511904D01*
X112185463Y-63522725D01*
X112160861Y-63539951D01*
X111999953Y-63700859D01*
X111869432Y-63887264D01*
X111773261Y-64093502D01*
X111714364Y-64313310D01*
X111694531Y-64540000D01*
X111714364Y-64766689D01*
X111773261Y-64986497D01*
X111869432Y-65192735D01*
X111999953Y-65379140D01*
X112160859Y-65540046D01*
X112347263Y-65670566D01*
X112347266Y-65670568D01*
X112404683Y-65697342D01*
X112405275Y-65697618D01*
X112457714Y-65743791D01*
X112476865Y-65810985D01*
X112456649Y-65877866D01*
X112405275Y-65922382D01*
X112347263Y-65949433D01*
X112160859Y-66079953D01*
X111999953Y-66240859D01*
X111869432Y-66427264D01*
X111773261Y-66633502D01*
X111714364Y-66853310D01*
X111694531Y-67079999D01*
X111714364Y-67306689D01*
X111773261Y-67526497D01*
X111869432Y-67732735D01*
X111999953Y-67919140D01*
X112160859Y-68080046D01*
X112347264Y-68210567D01*
X112347265Y-68210567D01*
X112347266Y-68210568D01*
X112405865Y-68237893D01*
X112458304Y-68284065D01*
X112477456Y-68351259D01*
X112457240Y-68418140D01*
X112405866Y-68462656D01*
X112347522Y-68489863D01*
X112161180Y-68620341D01*
X112000341Y-68781180D01*
X111869865Y-68967519D01*
X111773733Y-69173673D01*
X111721128Y-69369999D01*
X111721128Y-69370000D01*
X112566314Y-69370000D01*
X112540507Y-69410156D01*
X112500000Y-69548111D01*
X112500000Y-69691889D01*
X112540507Y-69829844D01*
X112566314Y-69870000D01*
X111721128Y-69870000D01*
X111773733Y-70066326D01*
X111869865Y-70272480D01*
X112000341Y-70458819D01*
X112161180Y-70619658D01*
X112347519Y-70750134D01*
X112405865Y-70777342D01*
X112458304Y-70823514D01*
X112477456Y-70890708D01*
X112457240Y-70957589D01*
X112405866Y-71002105D01*
X112347267Y-71029430D01*
X112160859Y-71159953D01*
X111999953Y-71320859D01*
X111869432Y-71507264D01*
X111773261Y-71713502D01*
X111714364Y-71933310D01*
X111694531Y-72160000D01*
X111714364Y-72386689D01*
X111773261Y-72606497D01*
X111869432Y-72812735D01*
X111999953Y-72999140D01*
X112160859Y-73160046D01*
X112219297Y-73200964D01*
X112347266Y-73290568D01*
X112405275Y-73317618D01*
X112457714Y-73363791D01*
X112476865Y-73430985D01*
X112456649Y-73497866D01*
X112405275Y-73542382D01*
X112347263Y-73569433D01*
X112160859Y-73699953D01*
X111999953Y-73860859D01*
X111869432Y-74047264D01*
X111773261Y-74253502D01*
X111714364Y-74473310D01*
X111694531Y-74699999D01*
X111714364Y-74926689D01*
X111773261Y-75146497D01*
X111869432Y-75352735D01*
X111999953Y-75539140D01*
X112160859Y-75700046D01*
X112189621Y-75720185D01*
X112347266Y-75830568D01*
X112405273Y-75857617D01*
X112457713Y-75903789D01*
X112476865Y-75970982D01*
X112456650Y-76037864D01*
X112405276Y-76082380D01*
X112347266Y-76109431D01*
X112160859Y-76239953D01*
X111999953Y-76400859D01*
X111869432Y-76587264D01*
X111773261Y-76793502D01*
X111714364Y-77013310D01*
X111694531Y-77240000D01*
X111714364Y-77466689D01*
X111773261Y-77686497D01*
X111869432Y-77892735D01*
X111999953Y-78079140D01*
X112160859Y-78240046D01*
X112347263Y-78370566D01*
X112347266Y-78370568D01*
X112405275Y-78397618D01*
X112457714Y-78443791D01*
X112476865Y-78510985D01*
X112456649Y-78577866D01*
X112405275Y-78622382D01*
X112347263Y-78649433D01*
X112160859Y-78779953D01*
X111999953Y-78940859D01*
X111869432Y-79127264D01*
X111773261Y-79333502D01*
X111714364Y-79553310D01*
X111694531Y-79779999D01*
X111714364Y-80006689D01*
X111773261Y-80226497D01*
X111869432Y-80432735D01*
X111999953Y-80619140D01*
X112160859Y-80780046D01*
X112347263Y-80910566D01*
X112347266Y-80910568D01*
X112405275Y-80937618D01*
X112457714Y-80983791D01*
X112476865Y-81050985D01*
X112456649Y-81117866D01*
X112405275Y-81162382D01*
X112347263Y-81189433D01*
X112160859Y-81319953D01*
X111999953Y-81480859D01*
X111869432Y-81667264D01*
X111773261Y-81873502D01*
X111714364Y-82093310D01*
X111694531Y-82320000D01*
X111714364Y-82546689D01*
X111773261Y-82766497D01*
X111869432Y-82972735D01*
X111999953Y-83159140D01*
X112160859Y-83320046D01*
X112267506Y-83394720D01*
X112347266Y-83450568D01*
X112371184Y-83461721D01*
X112405275Y-83477618D01*
X112457714Y-83523791D01*
X112476865Y-83590985D01*
X112456649Y-83657866D01*
X112405275Y-83702381D01*
X112388198Y-83710345D01*
X112347263Y-83729433D01*
X112160859Y-83859953D01*
X111999953Y-84020859D01*
X111869432Y-84207264D01*
X111773261Y-84413502D01*
X111714364Y-84633310D01*
X111694531Y-84860000D01*
X111714364Y-85086689D01*
X111773261Y-85306497D01*
X111869432Y-85512735D01*
X111999953Y-85699140D01*
X112160859Y-85860046D01*
X112304247Y-85960446D01*
X112347266Y-85990568D01*
X112405275Y-86017618D01*
X112457714Y-86063791D01*
X112476865Y-86130985D01*
X112456649Y-86197866D01*
X112405275Y-86242382D01*
X112347263Y-86269433D01*
X112160859Y-86399953D01*
X111999953Y-86560859D01*
X111869432Y-86747264D01*
X111773261Y-86953502D01*
X111714364Y-87173310D01*
X111694531Y-87399999D01*
X111714364Y-87626689D01*
X111773261Y-87846497D01*
X111869432Y-88052735D01*
X111999953Y-88239140D01*
X112160859Y-88400046D01*
X112300379Y-88497738D01*
X112347266Y-88530568D01*
X112405275Y-88557618D01*
X112457714Y-88603791D01*
X112476865Y-88670985D01*
X112456649Y-88737866D01*
X112405275Y-88782382D01*
X112347263Y-88809433D01*
X112160859Y-88939953D01*
X111999953Y-89100859D01*
X111869432Y-89287264D01*
X111773261Y-89493502D01*
X111714364Y-89713310D01*
X111694531Y-89940000D01*
X111714364Y-90166689D01*
X111773261Y-90386497D01*
X111869432Y-90592735D01*
X111999953Y-90779140D01*
X112160859Y-90940046D01*
X112297960Y-91036044D01*
X112347266Y-91070568D01*
X112405275Y-91097618D01*
X112457714Y-91143791D01*
X112476865Y-91210985D01*
X112456649Y-91277866D01*
X112405275Y-91322382D01*
X112347263Y-91349433D01*
X112160859Y-91479953D01*
X111999953Y-91640859D01*
X111869432Y-91827264D01*
X111773261Y-92033502D01*
X111714364Y-92253310D01*
X111694531Y-92480000D01*
X111714364Y-92706689D01*
X111773261Y-92926497D01*
X111869432Y-93132735D01*
X111999953Y-93319140D01*
X112160859Y-93480046D01*
X112347263Y-93610566D01*
X112347266Y-93610568D01*
X112405275Y-93637618D01*
X112457714Y-93683791D01*
X112476865Y-93750985D01*
X112456649Y-93817866D01*
X112405275Y-93862382D01*
X112347263Y-93889433D01*
X112160859Y-94019953D01*
X111999953Y-94180859D01*
X111869432Y-94367264D01*
X111773261Y-94573502D01*
X111714364Y-94793310D01*
X111694531Y-95019999D01*
X111714364Y-95246689D01*
X111773261Y-95466497D01*
X111869432Y-95672735D01*
X111999953Y-95859140D01*
X112160859Y-96020046D01*
X112179961Y-96033421D01*
X112347266Y-96150568D01*
X112405275Y-96177618D01*
X112457714Y-96223791D01*
X112476865Y-96290985D01*
X112456649Y-96357866D01*
X112405275Y-96402382D01*
X112347263Y-96429433D01*
X112160859Y-96559953D01*
X111999953Y-96720859D01*
X111869432Y-96907264D01*
X111773261Y-97113502D01*
X111714364Y-97333310D01*
X111694531Y-97560000D01*
X110000500Y-97560000D01*
X110000500Y-53002561D01*
X110000606Y-52997437D01*
X110008893Y-52797067D01*
X110009493Y-52782569D01*
X110018052Y-52586542D01*
X110018881Y-52576671D01*
X110045487Y-52363223D01*
X110071581Y-52165024D01*
X110073146Y-52155842D01*
X110117195Y-51945759D01*
X110160687Y-51749586D01*
X110162882Y-51741124D01*
X110224112Y-51535457D01*
X110284708Y-51343273D01*
X110287421Y-51335571D01*
X110365074Y-51136564D01*
X110365883Y-51134553D01*
X110442762Y-50948951D01*
X110445874Y-50942051D01*
X110539587Y-50750357D01*
X110540945Y-50747667D01*
X110633667Y-50569551D01*
X110637118Y-50563362D01*
X110746295Y-50380139D01*
X110748150Y-50377129D01*
X110856090Y-50207697D01*
X110859721Y-50202316D01*
X110983635Y-50028764D01*
X110986102Y-50025433D01*
X111108401Y-49866048D01*
X111112114Y-49861445D01*
X111249903Y-49698758D01*
X111253027Y-49695211D01*
X111388811Y-49547028D01*
X111392440Y-49543238D01*
X111543238Y-49392440D01*
X111547028Y-49388811D01*
X111695211Y-49253027D01*
X111698758Y-49249903D01*
X111861445Y-49112114D01*
X111866048Y-49108401D01*
X112025433Y-48986102D01*
X112028764Y-48983635D01*
X112202316Y-48859721D01*
X112207697Y-48856090D01*
X112377129Y-48748150D01*
X112380139Y-48746295D01*
X112563373Y-48637111D01*
X112569551Y-48633667D01*
X112747667Y-48540945D01*
X112750357Y-48539587D01*
X112942051Y-48445874D01*
X112948951Y-48442762D01*
X113134553Y-48365883D01*
X113136564Y-48365074D01*
X113335565Y-48287423D01*
X113343293Y-48284701D01*
X113535437Y-48224118D01*
X113741104Y-48162888D01*
X113749605Y-48160682D01*
X113945797Y-48117187D01*
X114155833Y-48073148D01*
X114165041Y-48071579D01*
X114363223Y-48045487D01*
X114576669Y-48018881D01*
X114586540Y-48018052D01*
X114782569Y-48009493D01*
X114997437Y-48000605D01*
X115002561Y-48000500D01*
X139997439Y-48000500D01*
X140002562Y-48000605D01*
G37*
%TD.AperFunction*%
%TD*%
M02*
