M48
; DRILL file {KiCad 7.0.2} date Mon May 20 21:15:07 2024
; FORMAT={-:-/ absolute / metric / decimal}
; #@! TF.CreationDate,2024-05-20T21:15:07+02:00
; #@! TF.GenerationSoftware,Kicad,Pcbnew,7.0.2
; #@! TF.FileFunction,Plated,1,2,PTH
FMAT,2
METRIC
; #@! TA.AperFunction,Plated,PTH,ComponentDrill
T1C0.700
; #@! TA.AperFunction,Plated,PTH,ComponentDrill
T2C0.950
; #@! TA.AperFunction,Plated,PTH,ComponentDrill
T3C1.000
; #@! TA.AperFunction,Plated,PTH,ComponentDrill
T4C1.520
%
G90
G05
T1
X117.0Y-74.5
X117.0Y-78.5
X117.0Y-82.5
X117.0Y-86.5
X124.62Y-74.5
X124.62Y-78.5
X124.62Y-82.5
X124.62Y-86.5
T2
X117.0Y-53.5
X119.5Y-53.5
X122.0Y-53.5
X124.5Y-53.5
X135.5Y-74.5
X135.5Y-85.5
X138.0Y-74.5
X138.0Y-85.5
X140.5Y-74.5
X140.5Y-85.5
T3
X113.0Y-62.0
X113.0Y-64.54
X113.0Y-67.08
X113.0Y-69.62
X113.0Y-72.16
X113.0Y-74.7
X113.0Y-77.24
X113.0Y-79.78
X113.0Y-82.32
X113.0Y-84.86
X113.0Y-87.4
X113.0Y-89.94
X113.0Y-92.48
X113.0Y-95.02
X113.0Y-97.56
X128.24Y-62.0
X128.24Y-64.54
X128.24Y-67.08
X128.24Y-69.62
X128.24Y-72.16
X128.24Y-74.7
X128.24Y-77.24
X128.24Y-79.78
X128.24Y-82.32
X128.24Y-84.86
X128.24Y-87.4
X128.24Y-89.94
X128.24Y-92.48
X128.24Y-95.02
X128.24Y-97.56
X138.0Y-62.5
X140.5Y-62.5
T4
X135.5Y-98.0
X140.58Y-98.0
T0
M30
