%TF.GenerationSoftware,KiCad,Pcbnew,7.0.2*%
%TF.CreationDate,2024-05-20T21:15:04+02:00*%
%TF.ProjectId,aux_axis,6175785f-6178-4697-932e-6b696361645f,rev?*%
%TF.SameCoordinates,Original*%
%TF.FileFunction,Copper,L1,Top*%
%TF.FilePolarity,Positive*%
%FSLAX46Y46*%
G04 Gerber Fmt 4.6, Leading zero omitted, Abs format (unit mm)*
G04 Created by KiCad (PCBNEW 7.0.2) date 2024-05-20 21:15:04*
%MOMM*%
%LPD*%
G01*
G04 APERTURE LIST*
G04 Aperture macros list*
%AMRoundRect*
0 Rectangle with rounded corners*
0 $1 Rounding radius*
0 $2 $3 $4 $5 $6 $7 $8 $9 X,Y pos of 4 corners*
0 Add a 4 corners polygon primitive as box body*
4,1,4,$2,$3,$4,$5,$6,$7,$8,$9,$2,$3,0*
0 Add four circle primitives for the rounded corners*
1,1,$1+$1,$2,$3*
1,1,$1+$1,$4,$5*
1,1,$1+$1,$6,$7*
1,1,$1+$1,$8,$9*
0 Add four rect primitives between the rounded corners*
20,1,$1+$1,$2,$3,$4,$5,0*
20,1,$1+$1,$4,$5,$6,$7,0*
20,1,$1+$1,$6,$7,$8,$9,0*
20,1,$1+$1,$8,$9,$2,$3,0*%
G04 Aperture macros list end*
%TA.AperFunction,ComponentPad*%
%ADD10RoundRect,0.250000X0.600000X0.750000X-0.600000X0.750000X-0.600000X-0.750000X0.600000X-0.750000X0*%
%TD*%
%TA.AperFunction,ComponentPad*%
%ADD11O,1.700000X2.000000*%
%TD*%
%TA.AperFunction,ComponentPad*%
%ADD12C,1.400000*%
%TD*%
%TA.AperFunction,ComponentPad*%
%ADD13O,1.400000X1.400000*%
%TD*%
%TA.AperFunction,ComponentPad*%
%ADD14RoundRect,0.250000X0.600000X0.725000X-0.600000X0.725000X-0.600000X-0.725000X0.600000X-0.725000X0*%
%TD*%
%TA.AperFunction,ComponentPad*%
%ADD15O,1.700000X1.950000*%
%TD*%
%TA.AperFunction,ComponentPad*%
%ADD16R,3.000000X3.000000*%
%TD*%
%TA.AperFunction,ComponentPad*%
%ADD17C,3.000000*%
%TD*%
%TA.AperFunction,ComponentPad*%
%ADD18R,1.600000X1.600000*%
%TD*%
%TA.AperFunction,ComponentPad*%
%ADD19O,1.600000X1.600000*%
%TD*%
%TA.AperFunction,Conductor*%
%ADD20C,0.600000*%
%TD*%
G04 APERTURE END LIST*
D10*
%TO.P,J4,1,Pin_1*%
%TO.N,GND*%
X140500000Y-62500000D03*
D11*
%TO.P,J4,2,Pin_2*%
%TO.N,Net-(J4-Pin_2)*%
X138000000Y-62500000D03*
%TD*%
D12*
%TO.P,R2,1*%
%TO.N,+5V*%
X117000000Y-78500000D03*
D13*
%TO.P,R2,2*%
%TO.N,i2c_data*%
X124620000Y-78500000D03*
%TD*%
D14*
%TO.P,J2,1,Pin_1*%
%TO.N,GND*%
X140500000Y-85500000D03*
D15*
%TO.P,J2,2,Pin_2*%
%TO.N,+6V*%
X138000000Y-85500000D03*
%TO.P,J2,3,Pin_3*%
%TO.N,servo_signal*%
X135500000Y-85500000D03*
%TD*%
D16*
%TO.P,J1,1,Pin_1*%
%TO.N,+6V*%
X135500000Y-98000000D03*
D17*
%TO.P,J1,2,Pin_2*%
%TO.N,GND*%
X140580000Y-98000000D03*
%TD*%
D12*
%TO.P,R4,1*%
%TO.N,input_signal*%
X117000000Y-82500000D03*
D13*
%TO.P,R4,2*%
%TO.N,GND*%
X124620000Y-82500000D03*
%TD*%
D14*
%TO.P,J5,1,Pin_1*%
%TO.N,GND*%
X124500000Y-53500000D03*
D15*
%TO.P,J5,2,Pin_2*%
%TO.N,+5V*%
X122000000Y-53500000D03*
%TO.P,J5,3,Pin_3*%
%TO.N,i2c_data*%
X119500000Y-53500000D03*
%TO.P,J5,4,Pin_4*%
%TO.N,i2c_clock*%
X117000000Y-53500000D03*
%TD*%
D14*
%TO.P,J3,1,Pin_1*%
%TO.N,GND*%
X140500000Y-74500000D03*
D15*
%TO.P,J3,2,Pin_2*%
%TO.N,+5V*%
X138000000Y-74500000D03*
%TO.P,J3,3,Pin_3*%
%TO.N,input_signal*%
X135500000Y-74500000D03*
%TD*%
D12*
%TO.P,R3,1*%
%TO.N,+5V*%
X117000000Y-74500000D03*
D13*
%TO.P,R3,2*%
%TO.N,i2c_clock*%
X124620000Y-74500000D03*
%TD*%
D18*
%TO.P,A1,1,D1/TX*%
%TO.N,unconnected-(A1-D1{slash}TX-Pad1)*%
X113000000Y-62000000D03*
D19*
%TO.P,A1,2,D0/RX*%
%TO.N,unconnected-(A1-D0{slash}RX-Pad2)*%
X113000000Y-64540000D03*
%TO.P,A1,3,~{RESET}*%
%TO.N,unconnected-(A1-~{RESET}-Pad3)*%
X113000000Y-67080000D03*
%TO.P,A1,4,GND*%
%TO.N,GND*%
X113000000Y-69620000D03*
%TO.P,A1,5,D2*%
%TO.N,input_signal*%
X113000000Y-72160000D03*
%TO.P,A1,6,D3*%
%TO.N,unconnected-(A1-D3-Pad6)*%
X113000000Y-74700000D03*
%TO.P,A1,7,D4*%
%TO.N,unconnected-(A1-D4-Pad7)*%
X113000000Y-77240000D03*
%TO.P,A1,8,D5*%
%TO.N,unconnected-(A1-D5-Pad8)*%
X113000000Y-79780000D03*
%TO.P,A1,9,D6*%
%TO.N,unconnected-(A1-D6-Pad9)*%
X113000000Y-82320000D03*
%TO.P,A1,10,D7*%
%TO.N,unconnected-(A1-D7-Pad10)*%
X113000000Y-84860000D03*
%TO.P,A1,11,D8*%
%TO.N,unconnected-(A1-D8-Pad11)*%
X113000000Y-87400000D03*
%TO.P,A1,12,D9*%
%TO.N,servo_signal*%
X113000000Y-89940000D03*
%TO.P,A1,13,D10*%
%TO.N,unconnected-(A1-D10-Pad13)*%
X113000000Y-92480000D03*
%TO.P,A1,14,D11*%
%TO.N,unconnected-(A1-D11-Pad14)*%
X113000000Y-95020000D03*
%TO.P,A1,15,D12*%
%TO.N,unconnected-(A1-D12-Pad15)*%
X113000000Y-97560000D03*
%TO.P,A1,16,D13*%
%TO.N,Net-(A1-D13)*%
X128240000Y-97560000D03*
%TO.P,A1,17,3V3*%
%TO.N,unconnected-(A1-3V3-Pad17)*%
X128240000Y-95020000D03*
%TO.P,A1,18,AREF*%
%TO.N,unconnected-(A1-AREF-Pad18)*%
X128240000Y-92480000D03*
%TO.P,A1,19,A0*%
%TO.N,unconnected-(A1-A0-Pad19)*%
X128240000Y-89940000D03*
%TO.P,A1,20,A1*%
%TO.N,unconnected-(A1-A1-Pad20)*%
X128240000Y-87400000D03*
%TO.P,A1,21,A2*%
%TO.N,unconnected-(A1-A2-Pad21)*%
X128240000Y-84860000D03*
%TO.P,A1,22,A3*%
%TO.N,unconnected-(A1-A3-Pad22)*%
X128240000Y-82320000D03*
%TO.P,A1,23,A4*%
%TO.N,i2c_data*%
X128240000Y-79780000D03*
%TO.P,A1,24,A5*%
%TO.N,i2c_clock*%
X128240000Y-77240000D03*
%TO.P,A1,25,A6*%
%TO.N,unconnected-(A1-A6-Pad25)*%
X128240000Y-74700000D03*
%TO.P,A1,26,A7*%
%TO.N,unconnected-(A1-A7-Pad26)*%
X128240000Y-72160000D03*
%TO.P,A1,27,+5V*%
%TO.N,+5V*%
X128240000Y-69620000D03*
%TO.P,A1,28,~{RESET}*%
%TO.N,unconnected-(A1-~{RESET}-Pad28)*%
X128240000Y-67080000D03*
%TO.P,A1,29,GND*%
%TO.N,GND*%
X128240000Y-64540000D03*
%TO.P,A1,30,VIN*%
%TO.N,unconnected-(A1-VIN-Pad30)*%
X128240000Y-62000000D03*
%TD*%
D12*
%TO.P,R1,1*%
%TO.N,Net-(A1-D13)*%
X117000000Y-86500000D03*
D13*
%TO.P,R1,2*%
%TO.N,Net-(J4-Pin_2)*%
X124620000Y-86500000D03*
%TD*%
D20*
%TO.N,GND*%
X115500000Y-51000000D02*
X124000000Y-51000000D01*
X124000000Y-51000000D02*
X124500000Y-51500000D01*
X120880000Y-69620000D02*
X121000000Y-69500000D01*
X121000000Y-69500000D02*
X121000000Y-61500000D01*
X113000000Y-69620000D02*
X120880000Y-69620000D01*
X124620000Y-82500000D02*
X121500000Y-82500000D01*
X121500000Y-82500000D02*
X121000000Y-82000000D01*
X124500000Y-51500000D02*
X124500000Y-53500000D01*
X114500000Y-52000000D02*
X115500000Y-51000000D01*
X121000000Y-82000000D02*
X121000000Y-69500000D01*
X121000000Y-61500000D02*
X114500000Y-55000000D01*
X114500000Y-55000000D02*
X114500000Y-52000000D01*
%TO.N,input_signal*%
X117000000Y-82500000D02*
X115500000Y-82500000D01*
X114660000Y-72160000D02*
X115000000Y-72500000D01*
X115000000Y-72500000D02*
X115000000Y-82000000D01*
X113000000Y-72160000D02*
X114660000Y-72160000D01*
X115500000Y-82500000D02*
X115000000Y-82000000D01*
%TO.N,i2c_data*%
X119500000Y-57000000D02*
X119500000Y-53500000D01*
X122500000Y-78000000D02*
X122500000Y-60000000D01*
X123000000Y-78500000D02*
X122500000Y-78000000D01*
X122500000Y-60000000D02*
X119500000Y-57000000D01*
X124620000Y-78500000D02*
X123000000Y-78500000D01*
%TO.N,+5V*%
X138000000Y-70000000D02*
X138000000Y-74000000D01*
X137620000Y-69620000D02*
X138000000Y-70000000D01*
X128240000Y-69620000D02*
X137620000Y-69620000D01*
%TO.N,Net-(J4-Pin_2)*%
X127000000Y-59500000D02*
X135000000Y-59500000D01*
X124620000Y-86500000D02*
X126500000Y-84620000D01*
X135000000Y-59500000D02*
X138000000Y-62500000D01*
X126500000Y-60000000D02*
X127000000Y-59500000D01*
X126500000Y-84620000D02*
X126500000Y-60000000D01*
%TD*%
%TA.AperFunction,Conductor*%
%TO.N,GND*%
G36*
X140002562Y-48000605D02*
G01*
X140217318Y-48009488D01*
X140413453Y-48018052D01*
X140423332Y-48018882D01*
X140636792Y-48045489D01*
X140834966Y-48071580D01*
X140844166Y-48073147D01*
X141054202Y-48117187D01*
X141250400Y-48160684D01*
X141258889Y-48162886D01*
X141464544Y-48224112D01*
X141656707Y-48284702D01*
X141664446Y-48287428D01*
X141863363Y-48365046D01*
X141865513Y-48365911D01*
X142051024Y-48442752D01*
X142057972Y-48445886D01*
X142225903Y-48527982D01*
X142249587Y-48539561D01*
X142252383Y-48540972D01*
X142430420Y-48633652D01*
X142436636Y-48637118D01*
X142619793Y-48746255D01*
X142622929Y-48748187D01*
X142686491Y-48788681D01*
X142792282Y-48856078D01*
X142797710Y-48859741D01*
X142971184Y-48983599D01*
X142974616Y-48986140D01*
X143133912Y-49108372D01*
X143138567Y-49112126D01*
X143301226Y-49249891D01*
X143304838Y-49253072D01*
X143452925Y-49388769D01*
X143456807Y-49392486D01*
X143607512Y-49543191D01*
X143611232Y-49547076D01*
X143746921Y-49695155D01*
X143750107Y-49698772D01*
X143887872Y-49861431D01*
X143891626Y-49866086D01*
X144013858Y-50025382D01*
X144016399Y-50028814D01*
X144140257Y-50202288D01*
X144143920Y-50207716D01*
X144251800Y-50377052D01*
X144253743Y-50380205D01*
X144362880Y-50563362D01*
X144366346Y-50569578D01*
X144459026Y-50747615D01*
X144460437Y-50750411D01*
X144554099Y-50941997D01*
X144557260Y-50949005D01*
X144634051Y-51134395D01*
X144634991Y-51136734D01*
X144652157Y-51180724D01*
X144712559Y-51335523D01*
X144715302Y-51343309D01*
X144775899Y-51535496D01*
X144837107Y-51741089D01*
X144839320Y-51749623D01*
X144882818Y-51945826D01*
X144926845Y-52155804D01*
X144928422Y-52165060D01*
X144954524Y-52363318D01*
X144981114Y-52576643D01*
X144981948Y-52586570D01*
X144990513Y-52782728D01*
X144999394Y-52997438D01*
X144999500Y-53002562D01*
X144999500Y-100997437D01*
X144999394Y-101002562D01*
X144990513Y-101217271D01*
X144981948Y-101413427D01*
X144981114Y-101423355D01*
X144954524Y-101636679D01*
X144928423Y-101834936D01*
X144926845Y-101844195D01*
X144882818Y-102054173D01*
X144839320Y-102250374D01*
X144837106Y-102258912D01*
X144775899Y-102464503D01*
X144715301Y-102656693D01*
X144712561Y-102664470D01*
X144635008Y-102863224D01*
X144634051Y-102865603D01*
X144557260Y-103050993D01*
X144554099Y-103058001D01*
X144460437Y-103249587D01*
X144459026Y-103252383D01*
X144366346Y-103430420D01*
X144362880Y-103436636D01*
X144253743Y-103619793D01*
X144251800Y-103622946D01*
X144143920Y-103792282D01*
X144140257Y-103797710D01*
X144016399Y-103971184D01*
X144013858Y-103974616D01*
X143891626Y-104133912D01*
X143887872Y-104138567D01*
X143750107Y-104301226D01*
X143746908Y-104304858D01*
X143611254Y-104452899D01*
X143607512Y-104456807D01*
X143456807Y-104607512D01*
X143452899Y-104611254D01*
X143304858Y-104746908D01*
X143301226Y-104750107D01*
X143138567Y-104887872D01*
X143133912Y-104891626D01*
X142974616Y-105013858D01*
X142971184Y-105016399D01*
X142797710Y-105140257D01*
X142792282Y-105143920D01*
X142622946Y-105251800D01*
X142619793Y-105253743D01*
X142436636Y-105362880D01*
X142430420Y-105366346D01*
X142252383Y-105459026D01*
X142249587Y-105460437D01*
X142058001Y-105554099D01*
X142050993Y-105557260D01*
X141865603Y-105634051D01*
X141863224Y-105635008D01*
X141664475Y-105712559D01*
X141656689Y-105715302D01*
X141464503Y-105775899D01*
X141258909Y-105837107D01*
X141250375Y-105839320D01*
X141054173Y-105882818D01*
X140844194Y-105926845D01*
X140834938Y-105928422D01*
X140636681Y-105954524D01*
X140423355Y-105981114D01*
X140413428Y-105981948D01*
X140217271Y-105990513D01*
X140002563Y-105999394D01*
X139997438Y-105999500D01*
X115002562Y-105999500D01*
X114997437Y-105999394D01*
X114782728Y-105990513D01*
X114586571Y-105981948D01*
X114576643Y-105981114D01*
X114363320Y-105954524D01*
X114165062Y-105928423D01*
X114155803Y-105926845D01*
X113945826Y-105882818D01*
X113749624Y-105839321D01*
X113741086Y-105837106D01*
X113535496Y-105775899D01*
X113343305Y-105715301D01*
X113335528Y-105712561D01*
X113206985Y-105662404D01*
X113136734Y-105634991D01*
X113134395Y-105634051D01*
X112949005Y-105557260D01*
X112941997Y-105554099D01*
X112750411Y-105460437D01*
X112747615Y-105459026D01*
X112569578Y-105366346D01*
X112563362Y-105362880D01*
X112380205Y-105253743D01*
X112377052Y-105251800D01*
X112207716Y-105143920D01*
X112202288Y-105140257D01*
X112028814Y-105016399D01*
X112025382Y-105013858D01*
X111866086Y-104891626D01*
X111861431Y-104887872D01*
X111698772Y-104750107D01*
X111695155Y-104746921D01*
X111547076Y-104611232D01*
X111543191Y-104607512D01*
X111392486Y-104456807D01*
X111388769Y-104452925D01*
X111253072Y-104304838D01*
X111249891Y-104301226D01*
X111112126Y-104138567D01*
X111108372Y-104133912D01*
X110986140Y-103974616D01*
X110983599Y-103971184D01*
X110859741Y-103797710D01*
X110856078Y-103792282D01*
X110748198Y-103622946D01*
X110746255Y-103619793D01*
X110637118Y-103436636D01*
X110633652Y-103430420D01*
X110540972Y-103252383D01*
X110539561Y-103249587D01*
X110527982Y-103225903D01*
X110445886Y-103057972D01*
X110442752Y-103051024D01*
X110365911Y-102865513D01*
X110365046Y-102863363D01*
X110287431Y-102664453D01*
X110284698Y-102656696D01*
X110224100Y-102464503D01*
X110162884Y-102258883D01*
X110160678Y-102250375D01*
X110117181Y-102054173D01*
X110073149Y-101844175D01*
X110071576Y-101834937D01*
X110071576Y-101834936D01*
X110045489Y-101636792D01*
X110018882Y-101423334D01*
X110018052Y-101413455D01*
X110009486Y-101217271D01*
X110000605Y-101002562D01*
X110000500Y-100997439D01*
X110000500Y-99544578D01*
X133499500Y-99544578D01*
X133499501Y-99547872D01*
X133505909Y-99607483D01*
X133556204Y-99742331D01*
X133642454Y-99857546D01*
X133757669Y-99943796D01*
X133892517Y-99994091D01*
X133952127Y-100000500D01*
X137047872Y-100000499D01*
X137107483Y-99994091D01*
X137242331Y-99943796D01*
X137357546Y-99857546D01*
X137443796Y-99742331D01*
X137494091Y-99607483D01*
X137500500Y-99547873D01*
X137500499Y-97999999D01*
X138574890Y-97999999D01*
X138595300Y-98285357D01*
X138656111Y-98564902D01*
X138756088Y-98832952D01*
X138893193Y-99084042D01*
X138999883Y-99226562D01*
X139895195Y-98331250D01*
X139917340Y-98382587D01*
X140023433Y-98525094D01*
X140159530Y-98639294D01*
X140249216Y-98684335D01*
X139353436Y-99580115D01*
X139495958Y-99686806D01*
X139747047Y-99823911D01*
X140015097Y-99923888D01*
X140294642Y-99984699D01*
X140579999Y-100005109D01*
X140865357Y-99984699D01*
X141144902Y-99923888D01*
X141412952Y-99823911D01*
X141664041Y-99686806D01*
X141806562Y-99580115D01*
X140913748Y-98687300D01*
X140923409Y-98683784D01*
X141071844Y-98586157D01*
X141193764Y-98456930D01*
X141265768Y-98332215D01*
X142160115Y-99226562D01*
X142266806Y-99084041D01*
X142403911Y-98832952D01*
X142503888Y-98564902D01*
X142564699Y-98285357D01*
X142585109Y-98000000D01*
X142564699Y-97714642D01*
X142503888Y-97435097D01*
X142403911Y-97167047D01*
X142266806Y-96915958D01*
X142160115Y-96773436D01*
X141264803Y-97668747D01*
X141242660Y-97617413D01*
X141136567Y-97474906D01*
X141000470Y-97360706D01*
X140910782Y-97315663D01*
X141806562Y-96419883D01*
X141664042Y-96313193D01*
X141412952Y-96176088D01*
X141144902Y-96076111D01*
X140865357Y-96015300D01*
X140580000Y-95994890D01*
X140294642Y-96015300D01*
X140015097Y-96076111D01*
X139747047Y-96176088D01*
X139495954Y-96313195D01*
X139353437Y-96419882D01*
X139353436Y-96419883D01*
X140246252Y-97312699D01*
X140236591Y-97316216D01*
X140088156Y-97413843D01*
X139966236Y-97543070D01*
X139894231Y-97667784D01*
X138999883Y-96773436D01*
X138999882Y-96773437D01*
X138893195Y-96915954D01*
X138756088Y-97167047D01*
X138656111Y-97435097D01*
X138595300Y-97714642D01*
X138574890Y-97999999D01*
X137500499Y-97999999D01*
X137500499Y-96452128D01*
X137494091Y-96392517D01*
X137443796Y-96257669D01*
X137357546Y-96142454D01*
X137242331Y-96056204D01*
X137107483Y-96005909D01*
X137047873Y-95999500D01*
X137044550Y-95999500D01*
X133955439Y-95999500D01*
X133955420Y-95999500D01*
X133952128Y-95999501D01*
X133948848Y-95999853D01*
X133948840Y-95999854D01*
X133892515Y-96005909D01*
X133757669Y-96056204D01*
X133642454Y-96142454D01*
X133556204Y-96257668D01*
X133505910Y-96392515D01*
X133505909Y-96392517D01*
X133499500Y-96452127D01*
X133499500Y-96455448D01*
X133499500Y-96455449D01*
X133499500Y-99544560D01*
X133499500Y-99544578D01*
X110000500Y-99544578D01*
X110000500Y-97560000D01*
X111694531Y-97560000D01*
X111714364Y-97786689D01*
X111773261Y-98006497D01*
X111869432Y-98212735D01*
X111999953Y-98399140D01*
X112160859Y-98560046D01*
X112347264Y-98690567D01*
X112347265Y-98690567D01*
X112347266Y-98690568D01*
X112553504Y-98786739D01*
X112773308Y-98845635D01*
X112924435Y-98858857D01*
X112999999Y-98865468D01*
X112999999Y-98865467D01*
X113000000Y-98865468D01*
X113226692Y-98845635D01*
X113446496Y-98786739D01*
X113652734Y-98690568D01*
X113839139Y-98560047D01*
X114000047Y-98399139D01*
X114130568Y-98212734D01*
X114226739Y-98006496D01*
X114285635Y-97786692D01*
X114305468Y-97560000D01*
X114285635Y-97333308D01*
X114226739Y-97113504D01*
X114205410Y-97067764D01*
X118145787Y-97067764D01*
X118175413Y-97337016D01*
X118201055Y-97435097D01*
X118243928Y-97599088D01*
X118323650Y-97786689D01*
X118349871Y-97848392D01*
X118490982Y-98079611D01*
X118662205Y-98285357D01*
X118664255Y-98287820D01*
X118865998Y-98468582D01*
X119091910Y-98618044D01*
X119198211Y-98667876D01*
X119337177Y-98733021D01*
X119596562Y-98811058D01*
X119596569Y-98811060D01*
X119864561Y-98850500D01*
X119864564Y-98850500D01*
X120065369Y-98850500D01*
X120067631Y-98850500D01*
X120270156Y-98835677D01*
X120534553Y-98776780D01*
X120787558Y-98680014D01*
X121023777Y-98547441D01*
X121238177Y-98381888D01*
X121426186Y-98186881D01*
X121583799Y-97966579D01*
X121707656Y-97725675D01*
X121795118Y-97469305D01*
X121844319Y-97202933D01*
X121854212Y-96932235D01*
X121824586Y-96662982D01*
X121756072Y-96400912D01*
X121650130Y-96151610D01*
X121509018Y-95920390D01*
X121509017Y-95920388D01*
X121335746Y-95712181D01*
X121291721Y-95672734D01*
X121134002Y-95531418D01*
X120908090Y-95381956D01*
X120908086Y-95381954D01*
X120662822Y-95266978D01*
X120403437Y-95188941D01*
X120403431Y-95188940D01*
X120135439Y-95149500D01*
X119932369Y-95149500D01*
X119930120Y-95149664D01*
X119930109Y-95149665D01*
X119729843Y-95164322D01*
X119465449Y-95223219D01*
X119212441Y-95319986D01*
X118976223Y-95452559D01*
X118761825Y-95618109D01*
X118573813Y-95813120D01*
X118416201Y-96033420D01*
X118292342Y-96274329D01*
X118204881Y-96530695D01*
X118155680Y-96797066D01*
X118145787Y-97067764D01*
X114205410Y-97067764D01*
X114130568Y-96907266D01*
X114000047Y-96720861D01*
X114000046Y-96720859D01*
X113839140Y-96559953D01*
X113652733Y-96429431D01*
X113594725Y-96402382D01*
X113542285Y-96356210D01*
X113523133Y-96289017D01*
X113543348Y-96222135D01*
X113594725Y-96177618D01*
X113652734Y-96150568D01*
X113839139Y-96020047D01*
X114000047Y-95859139D01*
X114130568Y-95672734D01*
X114226739Y-95466496D01*
X114285635Y-95246692D01*
X114305468Y-95020000D01*
X114285635Y-94793308D01*
X114226739Y-94573504D01*
X114130568Y-94367266D01*
X114000047Y-94180861D01*
X114000046Y-94180859D01*
X113839140Y-94019953D01*
X113652733Y-93889431D01*
X113594725Y-93862382D01*
X113542285Y-93816210D01*
X113523133Y-93749017D01*
X113543348Y-93682135D01*
X113594725Y-93637618D01*
X113652734Y-93610568D01*
X113839139Y-93480047D01*
X114000047Y-93319139D01*
X114130568Y-93132734D01*
X114226739Y-92926496D01*
X114285635Y-92706692D01*
X114305468Y-92480000D01*
X114285635Y-92253308D01*
X114226739Y-92033504D01*
X114130568Y-91827266D01*
X114000047Y-91640861D01*
X114000046Y-91640859D01*
X113839140Y-91479953D01*
X113652733Y-91349431D01*
X113594725Y-91322382D01*
X113542285Y-91276210D01*
X113523133Y-91209017D01*
X113543348Y-91142135D01*
X113594725Y-91097618D01*
X113652734Y-91070568D01*
X113839139Y-90940047D01*
X114000047Y-90779139D01*
X114130568Y-90592734D01*
X114226739Y-90386496D01*
X114285635Y-90166692D01*
X114305468Y-89940000D01*
X114285635Y-89713308D01*
X114226739Y-89493504D01*
X114130568Y-89287266D01*
X114000047Y-89100861D01*
X114000046Y-89100859D01*
X113839140Y-88939953D01*
X113652733Y-88809431D01*
X113594725Y-88782382D01*
X113542285Y-88736210D01*
X113523133Y-88669017D01*
X113543348Y-88602135D01*
X113594725Y-88557618D01*
X113652734Y-88530568D01*
X113839139Y-88400047D01*
X114000047Y-88239139D01*
X114130568Y-88052734D01*
X114226739Y-87846496D01*
X114285635Y-87626692D01*
X114305468Y-87400000D01*
X114285635Y-87173308D01*
X114226739Y-86953504D01*
X114130568Y-86747266D01*
X114092814Y-86693346D01*
X114000046Y-86560859D01*
X113939187Y-86500000D01*
X115794357Y-86500000D01*
X115814885Y-86721537D01*
X115875769Y-86935526D01*
X115974941Y-87134688D01*
X116109019Y-87312237D01*
X116273437Y-87462124D01*
X116462595Y-87579245D01*
X116462597Y-87579245D01*
X116462599Y-87579247D01*
X116670060Y-87659618D01*
X116888757Y-87700500D01*
X116888759Y-87700500D01*
X117111241Y-87700500D01*
X117111243Y-87700500D01*
X117329940Y-87659618D01*
X117537401Y-87579247D01*
X117726562Y-87462124D01*
X117890981Y-87312236D01*
X118025058Y-87134689D01*
X118124229Y-86935528D01*
X118131676Y-86909357D01*
X118157863Y-86817316D01*
X118185115Y-86721536D01*
X118205643Y-86500000D01*
X118185115Y-86278464D01*
X118155182Y-86173261D01*
X118124230Y-86064473D01*
X118025058Y-85865311D01*
X117890980Y-85687762D01*
X117726562Y-85537875D01*
X117537404Y-85420754D01*
X117476174Y-85397033D01*
X117329940Y-85340382D01*
X117111243Y-85299500D01*
X116888757Y-85299500D01*
X116670060Y-85340381D01*
X116670060Y-85340382D01*
X116462595Y-85420754D01*
X116273437Y-85537875D01*
X116109019Y-85687762D01*
X115974941Y-85865311D01*
X115875769Y-86064473D01*
X115814885Y-86278462D01*
X115794357Y-86500000D01*
X113939187Y-86500000D01*
X113839140Y-86399953D01*
X113652733Y-86269431D01*
X113594725Y-86242382D01*
X113542285Y-86196210D01*
X113523133Y-86129017D01*
X113543348Y-86062135D01*
X113594725Y-86017618D01*
X113652734Y-85990568D01*
X113839139Y-85860047D01*
X114000047Y-85699139D01*
X114130568Y-85512734D01*
X114226739Y-85306496D01*
X114285635Y-85086692D01*
X114305468Y-84860000D01*
X114285635Y-84633308D01*
X114226739Y-84413504D01*
X114130568Y-84207266D01*
X114126156Y-84200964D01*
X114000046Y-84020859D01*
X113839140Y-83859953D01*
X113652733Y-83729431D01*
X113594725Y-83702382D01*
X113542285Y-83656210D01*
X113523133Y-83589017D01*
X113543348Y-83522135D01*
X113594725Y-83477618D01*
X113652734Y-83450568D01*
X113839139Y-83320047D01*
X114000047Y-83159139D01*
X114130568Y-82972734D01*
X114226739Y-82766496D01*
X114257304Y-82652423D01*
X114293667Y-82592765D01*
X114356514Y-82562235D01*
X114425889Y-82570529D01*
X114464759Y-82596837D01*
X114870184Y-83002262D01*
X114997738Y-83129816D01*
X115028767Y-83149313D01*
X115030145Y-83150179D01*
X115041483Y-83158224D01*
X115071411Y-83182090D01*
X115071414Y-83182092D01*
X115105899Y-83198699D01*
X115118069Y-83205425D01*
X115150480Y-83225790D01*
X115186597Y-83238428D01*
X115199441Y-83243748D01*
X115230499Y-83258703D01*
X115233939Y-83260360D01*
X115271276Y-83268881D01*
X115284613Y-83272725D01*
X115320745Y-83285368D01*
X115358776Y-83289653D01*
X115372481Y-83291981D01*
X115409806Y-83300500D01*
X115455046Y-83300500D01*
X116048107Y-83300500D01*
X116115146Y-83320185D01*
X116131645Y-83332863D01*
X116273437Y-83462124D01*
X116462595Y-83579245D01*
X116462597Y-83579245D01*
X116462599Y-83579247D01*
X116670060Y-83659618D01*
X116888757Y-83700500D01*
X116888759Y-83700500D01*
X117111241Y-83700500D01*
X117111243Y-83700500D01*
X117329940Y-83659618D01*
X117537401Y-83579247D01*
X117726562Y-83462124D01*
X117739238Y-83450568D01*
X117890980Y-83312237D01*
X117895329Y-83306478D01*
X118025058Y-83134689D01*
X118124229Y-82935528D01*
X118124280Y-82935351D01*
X118172322Y-82766497D01*
X118177016Y-82750000D01*
X123443505Y-82750000D01*
X123496240Y-82935351D01*
X123595365Y-83134422D01*
X123729390Y-83311899D01*
X123893737Y-83461721D01*
X124082821Y-83578797D01*
X124290199Y-83659135D01*
X124370000Y-83674052D01*
X124370000Y-82750000D01*
X123443505Y-82750000D01*
X118177016Y-82750000D01*
X118185115Y-82721536D01*
X118205643Y-82500000D01*
X118185115Y-82278464D01*
X118177016Y-82250000D01*
X123443505Y-82250000D01*
X124370000Y-82250000D01*
X124370000Y-81325946D01*
X124290197Y-81340864D01*
X124082821Y-81421202D01*
X123893737Y-81538278D01*
X123729390Y-81688100D01*
X123595365Y-81865577D01*
X123496240Y-82064648D01*
X123443505Y-82250000D01*
X118177016Y-82250000D01*
X118148564Y-82150000D01*
X118124230Y-82064473D01*
X118025058Y-81865311D01*
X117890980Y-81687762D01*
X117726562Y-81537875D01*
X117537404Y-81420754D01*
X117434658Y-81380950D01*
X117329940Y-81340382D01*
X117111243Y-81299500D01*
X116888757Y-81299500D01*
X116670059Y-81340381D01*
X116670060Y-81340382D01*
X116462595Y-81420754D01*
X116273437Y-81537875D01*
X116131645Y-81667137D01*
X116068841Y-81697754D01*
X116048107Y-81699500D01*
X115924500Y-81699500D01*
X115857461Y-81679815D01*
X115811706Y-81627011D01*
X115800500Y-81575500D01*
X115800500Y-79273656D01*
X115820185Y-79206617D01*
X115872989Y-79160862D01*
X115942147Y-79150918D01*
X116005703Y-79179943D01*
X116023454Y-79198930D01*
X116109017Y-79312235D01*
X116273437Y-79462124D01*
X116462595Y-79579245D01*
X116462597Y-79579245D01*
X116462599Y-79579247D01*
X116670060Y-79659618D01*
X116888757Y-79700500D01*
X116888759Y-79700500D01*
X117111241Y-79700500D01*
X117111243Y-79700500D01*
X117329940Y-79659618D01*
X117537401Y-79579247D01*
X117726562Y-79462124D01*
X117890981Y-79312236D01*
X118025058Y-79134689D01*
X118124229Y-78935528D01*
X118124476Y-78934663D01*
X118181020Y-78735927D01*
X118185115Y-78721536D01*
X118205643Y-78500000D01*
X118185115Y-78278464D01*
X118154312Y-78170203D01*
X118124230Y-78064473D01*
X118025058Y-77865311D01*
X117890980Y-77687762D01*
X117726562Y-77537875D01*
X117537404Y-77420754D01*
X117476174Y-77397033D01*
X117329940Y-77340382D01*
X117111243Y-77299500D01*
X116888757Y-77299500D01*
X116670059Y-77340381D01*
X116670060Y-77340382D01*
X116462595Y-77420754D01*
X116273437Y-77537875D01*
X116109019Y-77687762D01*
X116023454Y-77801070D01*
X115967345Y-77842706D01*
X115897633Y-77847397D01*
X115836451Y-77813655D01*
X115803224Y-77752192D01*
X115800500Y-77726343D01*
X115800500Y-75273656D01*
X115820185Y-75206617D01*
X115872989Y-75160862D01*
X115942147Y-75150918D01*
X116005703Y-75179943D01*
X116023454Y-75198930D01*
X116109017Y-75312235D01*
X116273437Y-75462124D01*
X116462595Y-75579245D01*
X116462597Y-75579245D01*
X116462599Y-75579247D01*
X116670060Y-75659618D01*
X116888757Y-75700500D01*
X116888759Y-75700500D01*
X117111241Y-75700500D01*
X117111243Y-75700500D01*
X117329940Y-75659618D01*
X117537401Y-75579247D01*
X117726562Y-75462124D01*
X117890981Y-75312236D01*
X118025058Y-75134689D01*
X118124229Y-74935528D01*
X118133284Y-74903705D01*
X118177016Y-74750000D01*
X118185115Y-74721536D01*
X118205643Y-74500000D01*
X118185115Y-74278464D01*
X118158733Y-74185742D01*
X118124230Y-74064473D01*
X118025058Y-73865311D01*
X117890980Y-73687762D01*
X117726562Y-73537875D01*
X117537404Y-73420754D01*
X117390365Y-73363791D01*
X117329940Y-73340382D01*
X117111243Y-73299500D01*
X116888757Y-73299500D01*
X116690800Y-73336505D01*
X116670060Y-73340382D01*
X116462595Y-73420754D01*
X116273437Y-73537875D01*
X116109019Y-73687762D01*
X116023454Y-73801070D01*
X115967345Y-73842706D01*
X115897633Y-73847397D01*
X115836451Y-73813655D01*
X115803224Y-73752192D01*
X115800500Y-73726343D01*
X115800500Y-72409806D01*
X115791982Y-72372487D01*
X115789653Y-72358776D01*
X115785368Y-72320745D01*
X115772725Y-72284613D01*
X115768881Y-72271276D01*
X115760360Y-72233939D01*
X115758703Y-72230499D01*
X115743748Y-72199441D01*
X115738428Y-72186597D01*
X115725790Y-72150480D01*
X115705425Y-72118069D01*
X115698699Y-72105898D01*
X115682092Y-72071414D01*
X115658229Y-72041491D01*
X115650181Y-72030149D01*
X115629815Y-71997737D01*
X115484822Y-71852744D01*
X115484819Y-71852742D01*
X115345581Y-71713504D01*
X115194252Y-71562174D01*
X115176811Y-71544733D01*
X115162263Y-71530185D01*
X115162262Y-71530184D01*
X115129851Y-71509818D01*
X115118509Y-71501771D01*
X115088586Y-71477908D01*
X115054095Y-71461298D01*
X115041933Y-71454576D01*
X115026327Y-71444770D01*
X115009520Y-71434209D01*
X114973398Y-71421570D01*
X114960553Y-71416250D01*
X114926058Y-71399638D01*
X114888736Y-71391119D01*
X114875380Y-71387272D01*
X114839252Y-71374631D01*
X114801219Y-71370345D01*
X114787518Y-71368017D01*
X114750196Y-71359500D01*
X114750194Y-71359500D01*
X114704954Y-71359500D01*
X114090049Y-71359500D01*
X114023010Y-71339815D01*
X114002368Y-71323181D01*
X113839140Y-71159953D01*
X113652736Y-71029433D01*
X113594725Y-71002382D01*
X113594132Y-71002105D01*
X113541695Y-70955933D01*
X113522543Y-70888739D01*
X113542759Y-70821858D01*
X113594135Y-70777342D01*
X113652479Y-70750135D01*
X113838819Y-70619658D01*
X113999658Y-70458819D01*
X114130134Y-70272480D01*
X114226266Y-70066326D01*
X114278872Y-69870000D01*
X113433686Y-69870000D01*
X113459493Y-69829844D01*
X113500000Y-69691889D01*
X113500000Y-69548111D01*
X113459493Y-69410156D01*
X113433686Y-69370000D01*
X114278872Y-69370000D01*
X114278871Y-69369999D01*
X114226266Y-69173673D01*
X114130134Y-68967519D01*
X113999658Y-68781180D01*
X113838819Y-68620341D01*
X113652482Y-68489866D01*
X113594133Y-68462657D01*
X113541694Y-68416484D01*
X113522543Y-68349290D01*
X113542759Y-68282409D01*
X113594134Y-68237893D01*
X113652734Y-68210568D01*
X113839139Y-68080047D01*
X114000047Y-67919139D01*
X114130568Y-67732734D01*
X114226739Y-67526496D01*
X114285635Y-67306692D01*
X114305468Y-67080000D01*
X114285635Y-66853308D01*
X114226739Y-66633504D01*
X114130568Y-66427266D01*
X114000047Y-66240861D01*
X114000046Y-66240859D01*
X113839140Y-66079953D01*
X113652733Y-65949431D01*
X113594725Y-65922382D01*
X113542285Y-65876210D01*
X113523133Y-65809017D01*
X113543348Y-65742135D01*
X113594725Y-65697618D01*
X113595317Y-65697342D01*
X113652734Y-65670568D01*
X113839139Y-65540047D01*
X114000047Y-65379139D01*
X114130568Y-65192734D01*
X114226739Y-64986496D01*
X114285635Y-64766692D01*
X114305468Y-64540000D01*
X114285635Y-64313308D01*
X114226739Y-64093504D01*
X114130568Y-63887266D01*
X114012290Y-63718345D01*
X114000046Y-63700859D01*
X113839140Y-63539953D01*
X113814537Y-63522726D01*
X113770912Y-63468150D01*
X113763718Y-63398651D01*
X113795241Y-63336296D01*
X113855470Y-63300882D01*
X113872401Y-63297862D01*
X113907483Y-63294091D01*
X114042331Y-63243796D01*
X114157546Y-63157546D01*
X114243796Y-63042331D01*
X114294091Y-62907483D01*
X114300500Y-62847873D01*
X114300499Y-61152128D01*
X114294091Y-61092517D01*
X114243796Y-60957669D01*
X114157546Y-60842454D01*
X114042331Y-60756204D01*
X113907483Y-60705909D01*
X113847873Y-60699500D01*
X113844550Y-60699500D01*
X112155439Y-60699500D01*
X112155420Y-60699500D01*
X112152128Y-60699501D01*
X112148848Y-60699853D01*
X112148840Y-60699854D01*
X112092515Y-60705909D01*
X111957669Y-60756204D01*
X111842454Y-60842454D01*
X111756204Y-60957668D01*
X111705910Y-61092515D01*
X111705909Y-61092517D01*
X111699500Y-61152127D01*
X111699500Y-61155448D01*
X111699500Y-61155449D01*
X111699500Y-62844560D01*
X111699500Y-62844578D01*
X111699501Y-62847872D01*
X111699853Y-62851152D01*
X111699854Y-62851159D01*
X111705909Y-62907484D01*
X111731056Y-62974906D01*
X111756204Y-63042331D01*
X111842454Y-63157546D01*
X111957669Y-63243796D01*
X112092517Y-63294091D01*
X112127594Y-63297862D01*
X112192143Y-63324598D01*
X112231993Y-63381989D01*
X112234488Y-63451814D01*
X112198837Y-63511904D01*
X112185463Y-63522725D01*
X112160861Y-63539951D01*
X111999953Y-63700859D01*
X111869432Y-63887264D01*
X111773261Y-64093502D01*
X111714364Y-64313310D01*
X111694531Y-64540000D01*
X111714364Y-64766689D01*
X111773261Y-64986497D01*
X111869432Y-65192735D01*
X111999953Y-65379140D01*
X112160859Y-65540046D01*
X112347263Y-65670566D01*
X112347266Y-65670568D01*
X112404683Y-65697342D01*
X112405275Y-65697618D01*
X112457714Y-65743791D01*
X112476865Y-65810985D01*
X112456649Y-65877866D01*
X112405275Y-65922382D01*
X112347263Y-65949433D01*
X112160859Y-66079953D01*
X111999953Y-66240859D01*
X111869432Y-66427264D01*
X111773261Y-66633502D01*
X111714364Y-66853310D01*
X111694531Y-67079999D01*
X111714364Y-67306689D01*
X111773261Y-67526497D01*
X111869432Y-67732735D01*
X111999953Y-67919140D01*
X112160859Y-68080046D01*
X112347264Y-68210567D01*
X112347265Y-68210567D01*
X112347266Y-68210568D01*
X112405865Y-68237893D01*
X112458304Y-68284065D01*
X112477456Y-68351259D01*
X112457240Y-68418140D01*
X112405866Y-68462656D01*
X112347522Y-68489863D01*
X112161180Y-68620341D01*
X112000341Y-68781180D01*
X111869865Y-68967519D01*
X111773733Y-69173673D01*
X111721128Y-69369999D01*
X111721128Y-69370000D01*
X112566314Y-69370000D01*
X112540507Y-69410156D01*
X112500000Y-69548111D01*
X112500000Y-69691889D01*
X112540507Y-69829844D01*
X112566314Y-69870000D01*
X111721128Y-69870000D01*
X111773733Y-70066326D01*
X111869865Y-70272480D01*
X112000341Y-70458819D01*
X112161180Y-70619658D01*
X112347519Y-70750134D01*
X112405865Y-70777342D01*
X112458304Y-70823514D01*
X112477456Y-70890708D01*
X112457240Y-70957589D01*
X112405866Y-71002105D01*
X112347267Y-71029430D01*
X112160859Y-71159953D01*
X111999953Y-71320859D01*
X111869432Y-71507264D01*
X111773261Y-71713502D01*
X111714364Y-71933310D01*
X111694531Y-72160000D01*
X111714364Y-72386689D01*
X111773261Y-72606497D01*
X111869432Y-72812735D01*
X111999953Y-72999140D01*
X112160859Y-73160046D01*
X112347263Y-73290566D01*
X112347266Y-73290568D01*
X112405275Y-73317618D01*
X112457714Y-73363791D01*
X112476865Y-73430985D01*
X112456649Y-73497866D01*
X112405275Y-73542382D01*
X112347263Y-73569433D01*
X112160859Y-73699953D01*
X111999953Y-73860859D01*
X111869432Y-74047264D01*
X111773261Y-74253502D01*
X111714364Y-74473310D01*
X111694531Y-74699999D01*
X111714364Y-74926689D01*
X111773261Y-75146497D01*
X111869432Y-75352735D01*
X111999953Y-75539140D01*
X112160859Y-75700046D01*
X112255622Y-75766399D01*
X112347266Y-75830568D01*
X112405273Y-75857617D01*
X112457713Y-75903789D01*
X112476865Y-75970982D01*
X112456650Y-76037864D01*
X112405276Y-76082380D01*
X112347266Y-76109431D01*
X112160859Y-76239953D01*
X111999953Y-76400859D01*
X111869432Y-76587264D01*
X111773261Y-76793502D01*
X111714364Y-77013310D01*
X111694531Y-77240000D01*
X111714364Y-77466689D01*
X111773261Y-77686497D01*
X111869432Y-77892735D01*
X111999953Y-78079140D01*
X112160859Y-78240046D01*
X112247273Y-78300553D01*
X112347266Y-78370568D01*
X112405275Y-78397618D01*
X112457714Y-78443791D01*
X112476865Y-78510985D01*
X112456649Y-78577866D01*
X112405275Y-78622382D01*
X112347263Y-78649433D01*
X112160859Y-78779953D01*
X111999953Y-78940859D01*
X111869432Y-79127264D01*
X111773261Y-79333502D01*
X111714364Y-79553310D01*
X111694531Y-79779999D01*
X111714364Y-80006689D01*
X111773261Y-80226497D01*
X111869432Y-80432735D01*
X111999953Y-80619140D01*
X112160859Y-80780046D01*
X112255622Y-80846399D01*
X112347266Y-80910568D01*
X112405275Y-80937618D01*
X112457714Y-80983791D01*
X112476865Y-81050985D01*
X112456649Y-81117866D01*
X112405275Y-81162382D01*
X112347263Y-81189433D01*
X112160859Y-81319953D01*
X111999953Y-81480859D01*
X111869432Y-81667264D01*
X111773261Y-81873502D01*
X111714364Y-82093310D01*
X111694531Y-82320000D01*
X111714364Y-82546689D01*
X111773261Y-82766497D01*
X111869432Y-82972735D01*
X111999953Y-83159140D01*
X112160859Y-83320046D01*
X112255622Y-83386399D01*
X112347266Y-83450568D01*
X112405275Y-83477618D01*
X112457714Y-83523791D01*
X112476865Y-83590985D01*
X112456649Y-83657866D01*
X112405275Y-83702382D01*
X112347263Y-83729433D01*
X112160859Y-83859953D01*
X111999953Y-84020859D01*
X111869432Y-84207264D01*
X111773261Y-84413502D01*
X111714364Y-84633310D01*
X111694531Y-84860000D01*
X111714364Y-85086689D01*
X111773261Y-85306497D01*
X111869432Y-85512735D01*
X111999953Y-85699140D01*
X112160859Y-85860046D01*
X112304247Y-85960446D01*
X112347266Y-85990568D01*
X112405275Y-86017618D01*
X112457714Y-86063791D01*
X112476865Y-86130985D01*
X112456649Y-86197866D01*
X112405275Y-86242382D01*
X112347263Y-86269433D01*
X112160859Y-86399953D01*
X111999953Y-86560859D01*
X111869432Y-86747264D01*
X111773261Y-86953502D01*
X111714364Y-87173310D01*
X111694531Y-87399999D01*
X111714364Y-87626689D01*
X111773261Y-87846497D01*
X111869432Y-88052735D01*
X111999953Y-88239140D01*
X112160859Y-88400046D01*
X112347263Y-88530566D01*
X112347266Y-88530568D01*
X112405275Y-88557618D01*
X112457714Y-88603791D01*
X112476865Y-88670985D01*
X112456649Y-88737866D01*
X112405275Y-88782382D01*
X112347263Y-88809433D01*
X112160859Y-88939953D01*
X111999953Y-89100859D01*
X111869432Y-89287264D01*
X111773261Y-89493502D01*
X111714364Y-89713310D01*
X111694531Y-89940000D01*
X111714364Y-90166689D01*
X111773261Y-90386497D01*
X111869432Y-90592735D01*
X111999953Y-90779140D01*
X112160859Y-90940046D01*
X112347263Y-91070566D01*
X112347266Y-91070568D01*
X112405275Y-91097618D01*
X112457714Y-91143791D01*
X112476865Y-91210985D01*
X112456649Y-91277866D01*
X112405275Y-91322382D01*
X112347263Y-91349433D01*
X112160859Y-91479953D01*
X111999953Y-91640859D01*
X111869432Y-91827264D01*
X111773261Y-92033502D01*
X111714364Y-92253310D01*
X111694531Y-92480000D01*
X111714364Y-92706689D01*
X111773261Y-92926497D01*
X111869432Y-93132735D01*
X111999953Y-93319140D01*
X112160859Y-93480046D01*
X112347263Y-93610566D01*
X112347266Y-93610568D01*
X112405275Y-93637618D01*
X112457714Y-93683791D01*
X112476865Y-93750985D01*
X112456649Y-93817866D01*
X112405275Y-93862382D01*
X112347263Y-93889433D01*
X112160859Y-94019953D01*
X111999953Y-94180859D01*
X111869432Y-94367264D01*
X111773261Y-94573502D01*
X111714364Y-94793310D01*
X111694531Y-95019999D01*
X111714364Y-95246689D01*
X111773261Y-95466497D01*
X111869432Y-95672735D01*
X111999953Y-95859140D01*
X112160859Y-96020046D01*
X112179961Y-96033421D01*
X112347266Y-96150568D01*
X112405275Y-96177618D01*
X112457714Y-96223791D01*
X112476865Y-96290985D01*
X112456649Y-96357866D01*
X112405275Y-96402382D01*
X112347263Y-96429433D01*
X112160859Y-96559953D01*
X111999953Y-96720859D01*
X111869432Y-96907264D01*
X111773261Y-97113502D01*
X111714364Y-97333310D01*
X111694531Y-97560000D01*
X110000500Y-97560000D01*
X110000500Y-53683966D01*
X115649500Y-53683966D01*
X115649735Y-53686659D01*
X115649736Y-53686667D01*
X115664936Y-53860407D01*
X115693385Y-53966579D01*
X115726097Y-54088663D01*
X115825965Y-54302829D01*
X115961505Y-54496401D01*
X116128599Y-54663495D01*
X116322170Y-54799035D01*
X116536337Y-54898903D01*
X116764591Y-54960062D01*
X116764592Y-54960063D01*
X116999999Y-54980659D01*
X116999999Y-54980658D01*
X117000000Y-54980659D01*
X117235408Y-54960063D01*
X117463663Y-54898903D01*
X117677829Y-54799035D01*
X117871401Y-54663495D01*
X118038495Y-54496401D01*
X118148426Y-54339401D01*
X118203002Y-54295778D01*
X118272500Y-54288584D01*
X118334855Y-54320107D01*
X118351571Y-54339398D01*
X118461505Y-54496401D01*
X118461506Y-54496402D01*
X118628597Y-54663494D01*
X118646620Y-54676113D01*
X118690247Y-54730688D01*
X118699500Y-54777690D01*
X118699499Y-57090195D01*
X118708017Y-57127518D01*
X118710345Y-57141219D01*
X118714631Y-57179252D01*
X118727272Y-57215380D01*
X118731119Y-57228736D01*
X118739638Y-57266058D01*
X118756250Y-57300553D01*
X118761570Y-57313398D01*
X118774209Y-57349520D01*
X118784770Y-57366327D01*
X118794576Y-57381933D01*
X118801298Y-57394095D01*
X118817908Y-57428586D01*
X118841772Y-57458510D01*
X118849818Y-57469850D01*
X118870184Y-57502262D01*
X118902174Y-57534252D01*
X121663181Y-60295258D01*
X121696666Y-60356581D01*
X121699500Y-60382939D01*
X121699500Y-78090195D01*
X121708017Y-78127518D01*
X121710345Y-78141219D01*
X121714631Y-78179252D01*
X121727272Y-78215380D01*
X121731119Y-78228736D01*
X121739638Y-78266058D01*
X121756250Y-78300553D01*
X121761570Y-78313398D01*
X121774209Y-78349520D01*
X121784770Y-78366327D01*
X121794576Y-78381933D01*
X121801298Y-78394095D01*
X121817908Y-78428586D01*
X121841772Y-78458510D01*
X121849818Y-78469850D01*
X121870184Y-78502262D01*
X121902173Y-78534251D01*
X121902174Y-78534252D01*
X122370183Y-79002261D01*
X122370184Y-79002262D01*
X122497738Y-79129816D01*
X122528767Y-79149313D01*
X122530145Y-79150179D01*
X122541483Y-79158224D01*
X122568719Y-79179943D01*
X122571414Y-79182092D01*
X122605899Y-79198699D01*
X122618069Y-79205425D01*
X122650480Y-79225790D01*
X122686597Y-79238428D01*
X122699441Y-79243748D01*
X122730499Y-79258703D01*
X122733939Y-79260360D01*
X122771276Y-79268881D01*
X122784613Y-79272725D01*
X122820745Y-79285368D01*
X122858776Y-79289653D01*
X122872481Y-79291981D01*
X122909806Y-79300500D01*
X122955046Y-79300500D01*
X123668107Y-79300500D01*
X123735146Y-79320185D01*
X123751645Y-79332863D01*
X123893437Y-79462124D01*
X124082595Y-79579245D01*
X124082597Y-79579245D01*
X124082599Y-79579247D01*
X124290060Y-79659618D01*
X124508757Y-79700500D01*
X124508759Y-79700500D01*
X124731241Y-79700500D01*
X124731243Y-79700500D01*
X124949940Y-79659618D01*
X125157401Y-79579247D01*
X125346562Y-79462124D01*
X125491963Y-79329572D01*
X125554766Y-79298957D01*
X125624153Y-79307154D01*
X125678093Y-79351564D01*
X125699461Y-79418086D01*
X125699500Y-79421211D01*
X125699500Y-81579464D01*
X125679815Y-81646503D01*
X125627011Y-81692258D01*
X125557853Y-81702202D01*
X125494297Y-81673177D01*
X125491962Y-81671101D01*
X125346262Y-81538278D01*
X125157178Y-81421202D01*
X124949802Y-81340864D01*
X124869999Y-81325946D01*
X124870000Y-82250000D01*
X124869999Y-82251061D01*
X124788885Y-82187928D01*
X124678405Y-82150000D01*
X124590995Y-82150000D01*
X124504784Y-82164386D01*
X124402053Y-82219981D01*
X124322940Y-82305921D01*
X124276018Y-82412892D01*
X124266372Y-82529302D01*
X124295047Y-82642538D01*
X124358936Y-82740327D01*
X124451115Y-82812072D01*
X124561595Y-82850000D01*
X124649005Y-82850000D01*
X124735216Y-82835614D01*
X124837947Y-82780019D01*
X124869999Y-82745200D01*
X124869999Y-83674052D01*
X124949804Y-83659135D01*
X125157173Y-83578800D01*
X125346262Y-83461721D01*
X125491962Y-83328898D01*
X125554766Y-83298281D01*
X125624153Y-83306478D01*
X125678093Y-83350888D01*
X125699461Y-83417410D01*
X125699500Y-83420535D01*
X125699500Y-84237059D01*
X125679815Y-84304098D01*
X125663181Y-84324740D01*
X124724741Y-85263181D01*
X124663418Y-85296666D01*
X124637060Y-85299500D01*
X124508757Y-85299500D01*
X124290059Y-85340381D01*
X124290060Y-85340382D01*
X124082595Y-85420754D01*
X123893437Y-85537875D01*
X123729019Y-85687762D01*
X123594941Y-85865311D01*
X123495769Y-86064473D01*
X123434885Y-86278462D01*
X123414357Y-86500000D01*
X123434885Y-86721537D01*
X123495769Y-86935526D01*
X123594941Y-87134688D01*
X123729019Y-87312237D01*
X123893437Y-87462124D01*
X124082595Y-87579245D01*
X124082597Y-87579245D01*
X124082599Y-87579247D01*
X124290060Y-87659618D01*
X124508757Y-87700500D01*
X124508759Y-87700500D01*
X124731241Y-87700500D01*
X124731243Y-87700500D01*
X124949940Y-87659618D01*
X125157401Y-87579247D01*
X125346562Y-87462124D01*
X125510981Y-87312236D01*
X125645058Y-87134689D01*
X125744229Y-86935528D01*
X125751676Y-86909357D01*
X125777863Y-86817316D01*
X125805115Y-86721536D01*
X125825643Y-86500000D01*
X125824775Y-86490634D01*
X125838186Y-86422070D01*
X125860561Y-86391515D01*
X126866518Y-85385558D01*
X126927839Y-85352075D01*
X126997531Y-85357059D01*
X127053464Y-85398931D01*
X127066579Y-85420836D01*
X127109432Y-85512735D01*
X127239953Y-85699140D01*
X127400859Y-85860046D01*
X127544247Y-85960446D01*
X127587266Y-85990568D01*
X127645275Y-86017618D01*
X127697714Y-86063791D01*
X127716865Y-86130985D01*
X127696649Y-86197866D01*
X127645275Y-86242382D01*
X127587263Y-86269433D01*
X127400859Y-86399953D01*
X127239953Y-86560859D01*
X127109432Y-86747264D01*
X127013261Y-86953502D01*
X126954364Y-87173310D01*
X126934531Y-87400000D01*
X126954364Y-87626689D01*
X127013261Y-87846497D01*
X127109432Y-88052735D01*
X127239953Y-88239140D01*
X127400859Y-88400046D01*
X127587263Y-88530566D01*
X127587266Y-88530568D01*
X127645275Y-88557618D01*
X127697714Y-88603791D01*
X127716865Y-88670985D01*
X127696649Y-88737866D01*
X127645275Y-88782382D01*
X127587263Y-88809433D01*
X127400859Y-88939953D01*
X127239953Y-89100859D01*
X127109432Y-89287264D01*
X127013261Y-89493502D01*
X126954364Y-89713310D01*
X126934531Y-89939999D01*
X126954364Y-90166689D01*
X127013261Y-90386497D01*
X127109432Y-90592735D01*
X127239953Y-90779140D01*
X127400859Y-90940046D01*
X127587263Y-91070566D01*
X127587266Y-91070568D01*
X127645275Y-91097618D01*
X127697714Y-91143791D01*
X127716865Y-91210985D01*
X127696649Y-91277866D01*
X127645275Y-91322382D01*
X127587263Y-91349433D01*
X127400859Y-91479953D01*
X127239953Y-91640859D01*
X127109432Y-91827264D01*
X127013261Y-92033502D01*
X126954364Y-92253310D01*
X126934531Y-92480000D01*
X126954364Y-92706689D01*
X127013261Y-92926497D01*
X127109432Y-93132735D01*
X127239953Y-93319140D01*
X127400859Y-93480046D01*
X127587263Y-93610566D01*
X127587266Y-93610568D01*
X127645275Y-93637618D01*
X127697714Y-93683791D01*
X127716865Y-93750985D01*
X127696649Y-93817866D01*
X127645275Y-93862382D01*
X127587263Y-93889433D01*
X127400859Y-94019953D01*
X127239953Y-94180859D01*
X127109432Y-94367264D01*
X127013261Y-94573502D01*
X126954364Y-94793310D01*
X126934531Y-95020000D01*
X126954364Y-95246689D01*
X127013261Y-95466497D01*
X127109432Y-95672735D01*
X127239953Y-95859140D01*
X127400859Y-96020046D01*
X127419961Y-96033421D01*
X127587266Y-96150568D01*
X127645275Y-96177618D01*
X127697714Y-96223791D01*
X127716865Y-96290985D01*
X127696649Y-96357866D01*
X127645275Y-96402382D01*
X127587263Y-96429433D01*
X127400859Y-96559953D01*
X127239953Y-96720859D01*
X127109432Y-96907264D01*
X127013261Y-97113502D01*
X126954364Y-97333310D01*
X126934531Y-97559999D01*
X126954364Y-97786689D01*
X127013261Y-98006497D01*
X127109432Y-98212735D01*
X127239953Y-98399140D01*
X127400859Y-98560046D01*
X127587264Y-98690567D01*
X127587265Y-98690567D01*
X127587266Y-98690568D01*
X127793504Y-98786739D01*
X128013308Y-98845635D01*
X128240000Y-98865468D01*
X128466692Y-98845635D01*
X128686496Y-98786739D01*
X128892734Y-98690568D01*
X129079139Y-98560047D01*
X129240047Y-98399139D01*
X129370568Y-98212734D01*
X129466739Y-98006496D01*
X129525635Y-97786692D01*
X129545468Y-97560000D01*
X129525635Y-97333308D01*
X129466739Y-97113504D01*
X129370568Y-96907266D01*
X129240047Y-96720861D01*
X129240046Y-96720859D01*
X129079140Y-96559953D01*
X128892733Y-96429431D01*
X128834725Y-96402382D01*
X128782285Y-96356210D01*
X128763133Y-96289017D01*
X128783348Y-96222135D01*
X128834725Y-96177618D01*
X128892734Y-96150568D01*
X129079139Y-96020047D01*
X129240047Y-95859139D01*
X129370568Y-95672734D01*
X129466739Y-95466496D01*
X129525635Y-95246692D01*
X129545468Y-95020000D01*
X129525635Y-94793308D01*
X129466739Y-94573504D01*
X129370568Y-94367266D01*
X129240047Y-94180861D01*
X129240046Y-94180859D01*
X129079140Y-94019953D01*
X128892733Y-93889431D01*
X128834725Y-93862382D01*
X128782285Y-93816210D01*
X128763133Y-93749017D01*
X128783348Y-93682135D01*
X128834725Y-93637618D01*
X128892734Y-93610568D01*
X129079139Y-93480047D01*
X129240047Y-93319139D01*
X129370568Y-93132734D01*
X129466739Y-92926496D01*
X129525635Y-92706692D01*
X129545468Y-92480000D01*
X129525635Y-92253308D01*
X129466739Y-92033504D01*
X129370568Y-91827266D01*
X129240047Y-91640861D01*
X129240046Y-91640859D01*
X129079140Y-91479953D01*
X128892733Y-91349431D01*
X128834725Y-91322382D01*
X128782285Y-91276210D01*
X128763133Y-91209017D01*
X128783348Y-91142135D01*
X128834725Y-91097618D01*
X128892734Y-91070568D01*
X129079139Y-90940047D01*
X129240047Y-90779139D01*
X129370568Y-90592734D01*
X129466739Y-90386496D01*
X129525635Y-90166692D01*
X129545468Y-89940000D01*
X129525635Y-89713308D01*
X129466739Y-89493504D01*
X129370568Y-89287266D01*
X129240047Y-89100861D01*
X129240046Y-89100859D01*
X129079140Y-88939953D01*
X128892733Y-88809431D01*
X128834725Y-88782382D01*
X128782285Y-88736210D01*
X128763133Y-88669017D01*
X128783348Y-88602135D01*
X128834725Y-88557618D01*
X128892734Y-88530568D01*
X129079139Y-88400047D01*
X129240047Y-88239139D01*
X129370568Y-88052734D01*
X129466739Y-87846496D01*
X129525635Y-87626692D01*
X129545468Y-87400000D01*
X129525635Y-87173308D01*
X129466739Y-86953504D01*
X129370568Y-86747266D01*
X129332814Y-86693346D01*
X129240046Y-86560859D01*
X129079140Y-86399953D01*
X128892733Y-86269431D01*
X128834725Y-86242382D01*
X128782285Y-86196210D01*
X128763133Y-86129017D01*
X128783348Y-86062135D01*
X128834725Y-86017618D01*
X128892734Y-85990568D01*
X129079139Y-85860047D01*
X129240047Y-85699139D01*
X129250671Y-85683966D01*
X134149500Y-85683966D01*
X134149735Y-85686659D01*
X134149736Y-85686667D01*
X134164936Y-85860407D01*
X134195641Y-85975000D01*
X134226097Y-86088663D01*
X134325965Y-86302829D01*
X134461505Y-86496401D01*
X134628599Y-86663495D01*
X134822170Y-86799035D01*
X135036337Y-86898903D01*
X135264592Y-86960063D01*
X135500000Y-86980659D01*
X135735408Y-86960063D01*
X135963663Y-86898903D01*
X136177829Y-86799035D01*
X136371401Y-86663495D01*
X136538495Y-86496401D01*
X136648426Y-86339401D01*
X136703002Y-86295778D01*
X136772500Y-86288584D01*
X136834855Y-86320107D01*
X136851571Y-86339398D01*
X136961505Y-86496401D01*
X137128599Y-86663495D01*
X137322170Y-86799035D01*
X137536337Y-86898903D01*
X137764591Y-86960062D01*
X137764592Y-86960063D01*
X137999999Y-86980659D01*
X137999999Y-86980658D01*
X138000000Y-86980659D01*
X138235408Y-86960063D01*
X138463663Y-86898903D01*
X138677829Y-86799035D01*
X138871401Y-86663495D01*
X139018967Y-86515928D01*
X139080287Y-86482446D01*
X139149978Y-86487430D01*
X139205912Y-86529301D01*
X139212184Y-86538515D01*
X139307684Y-86693346D01*
X139431654Y-86817316D01*
X139580877Y-86909357D01*
X139747303Y-86964506D01*
X139846890Y-86974680D01*
X139853168Y-86974999D01*
X140249999Y-86974999D01*
X140250000Y-86974998D01*
X140250000Y-85908018D01*
X140364801Y-85960446D01*
X140466025Y-85975000D01*
X140533975Y-85975000D01*
X140635199Y-85960446D01*
X140750000Y-85908018D01*
X140750000Y-86974999D01*
X141146829Y-86974999D01*
X141153111Y-86974678D01*
X141252695Y-86964506D01*
X141419122Y-86909357D01*
X141568345Y-86817316D01*
X141692316Y-86693345D01*
X141784357Y-86544122D01*
X141839506Y-86377696D01*
X141849680Y-86278109D01*
X141850000Y-86271831D01*
X141850000Y-85750000D01*
X140903969Y-85750000D01*
X140936519Y-85699351D01*
X140975000Y-85568295D01*
X140975000Y-85431705D01*
X140936519Y-85300649D01*
X140903969Y-85250000D01*
X141849999Y-85250000D01*
X141849999Y-84728170D01*
X141849678Y-84721888D01*
X141839506Y-84622304D01*
X141784357Y-84455877D01*
X141692316Y-84306654D01*
X141568345Y-84182683D01*
X141419122Y-84090642D01*
X141252696Y-84035493D01*
X141153109Y-84025319D01*
X141146832Y-84025000D01*
X140750000Y-84025000D01*
X140750000Y-85091981D01*
X140635199Y-85039554D01*
X140533975Y-85025000D01*
X140466025Y-85025000D01*
X140364801Y-85039554D01*
X140250000Y-85091981D01*
X140250000Y-84025000D01*
X139853171Y-84025000D01*
X139846888Y-84025321D01*
X139747304Y-84035493D01*
X139580877Y-84090642D01*
X139431654Y-84182683D01*
X139307684Y-84306653D01*
X139212184Y-84461484D01*
X139160236Y-84508208D01*
X139091273Y-84519430D01*
X139027191Y-84491587D01*
X139018964Y-84484068D01*
X138871404Y-84336508D01*
X138871401Y-84336505D01*
X138677830Y-84200965D01*
X138463663Y-84101097D01*
X138402501Y-84084709D01*
X138235407Y-84039936D01*
X138000000Y-84019340D01*
X137764592Y-84039936D01*
X137536336Y-84101097D01*
X137322170Y-84200965D01*
X137128598Y-84336505D01*
X136961505Y-84503598D01*
X136851575Y-84660596D01*
X136796998Y-84704221D01*
X136727500Y-84711415D01*
X136665145Y-84679892D01*
X136648425Y-84660596D01*
X136538494Y-84503598D01*
X136371404Y-84336508D01*
X136371401Y-84336505D01*
X136177830Y-84200965D01*
X135963663Y-84101097D01*
X135902502Y-84084709D01*
X135735407Y-84039936D01*
X135500000Y-84019340D01*
X135264592Y-84039936D01*
X135036336Y-84101097D01*
X134822170Y-84200965D01*
X134628598Y-84336505D01*
X134461505Y-84503598D01*
X134325965Y-84697170D01*
X134226097Y-84911336D01*
X134164936Y-85139592D01*
X134150846Y-85300649D01*
X134149500Y-85316034D01*
X134149500Y-85683966D01*
X129250671Y-85683966D01*
X129370568Y-85512734D01*
X129466739Y-85306496D01*
X129525635Y-85086692D01*
X129545468Y-84860000D01*
X129525635Y-84633308D01*
X129466739Y-84413504D01*
X129370568Y-84207266D01*
X129366156Y-84200964D01*
X129240046Y-84020859D01*
X129079140Y-83859953D01*
X128892733Y-83729431D01*
X128834725Y-83702382D01*
X128782285Y-83656210D01*
X128763133Y-83589017D01*
X128783348Y-83522135D01*
X128834725Y-83477618D01*
X128892734Y-83450568D01*
X129079139Y-83320047D01*
X129240047Y-83159139D01*
X129370568Y-82972734D01*
X129466739Y-82766496D01*
X129525635Y-82546692D01*
X129545468Y-82320000D01*
X129525635Y-82093308D01*
X129466739Y-81873504D01*
X129370568Y-81667266D01*
X129342382Y-81627011D01*
X129240046Y-81480859D01*
X129079140Y-81319953D01*
X128892733Y-81189431D01*
X128834725Y-81162382D01*
X128782285Y-81116210D01*
X128763133Y-81049017D01*
X128783348Y-80982135D01*
X128834725Y-80937618D01*
X128892734Y-80910568D01*
X129079139Y-80780047D01*
X129240047Y-80619139D01*
X129370568Y-80432734D01*
X129466739Y-80226496D01*
X129525635Y-80006692D01*
X129545468Y-79780000D01*
X129525635Y-79553308D01*
X129466739Y-79333504D01*
X129370568Y-79127266D01*
X129283040Y-79002261D01*
X129240046Y-78940859D01*
X129079140Y-78779953D01*
X128892733Y-78649431D01*
X128834725Y-78622382D01*
X128782285Y-78576210D01*
X128763133Y-78509017D01*
X128783348Y-78442135D01*
X128834725Y-78397618D01*
X128892734Y-78370568D01*
X129079139Y-78240047D01*
X129240047Y-78079139D01*
X129370568Y-77892734D01*
X129466739Y-77686496D01*
X129525635Y-77466692D01*
X129545468Y-77240000D01*
X129525635Y-77013308D01*
X129466739Y-76793504D01*
X129370568Y-76587266D01*
X129256031Y-76423688D01*
X129240046Y-76400859D01*
X129079140Y-76239953D01*
X128892733Y-76109431D01*
X128834725Y-76082382D01*
X128782285Y-76036210D01*
X128763133Y-75969017D01*
X128783348Y-75902135D01*
X128834725Y-75857618D01*
X128892734Y-75830568D01*
X129079139Y-75700047D01*
X129240047Y-75539139D01*
X129370568Y-75352734D01*
X129466739Y-75146496D01*
X129525635Y-74926692D01*
X129545468Y-74700000D01*
X129525635Y-74473308D01*
X129466739Y-74253504D01*
X129370568Y-74047266D01*
X129362627Y-74035924D01*
X129240046Y-73860859D01*
X129079140Y-73699953D01*
X128892733Y-73569431D01*
X128834725Y-73542382D01*
X128782285Y-73496210D01*
X128763133Y-73429017D01*
X128783348Y-73362135D01*
X128834725Y-73317618D01*
X128892734Y-73290568D01*
X129079139Y-73160047D01*
X129240047Y-72999139D01*
X129370568Y-72812734D01*
X129466739Y-72606496D01*
X129525635Y-72386692D01*
X129545468Y-72160000D01*
X129525635Y-71933308D01*
X129466739Y-71713504D01*
X129370568Y-71507266D01*
X129369762Y-71506114D01*
X129240046Y-71320859D01*
X129079140Y-71159953D01*
X128892733Y-71029431D01*
X128834725Y-71002382D01*
X128782285Y-70956210D01*
X128763133Y-70889017D01*
X128783348Y-70822135D01*
X128834725Y-70777618D01*
X128835317Y-70777342D01*
X128892734Y-70750568D01*
X129079139Y-70620047D01*
X129154686Y-70544500D01*
X129242368Y-70456819D01*
X129303691Y-70423334D01*
X129330049Y-70420500D01*
X137075500Y-70420500D01*
X137142539Y-70440185D01*
X137188294Y-70492989D01*
X137199500Y-70544500D01*
X137199500Y-73222309D01*
X137179815Y-73289348D01*
X137146625Y-73323883D01*
X137128597Y-73336506D01*
X136961505Y-73503598D01*
X136851575Y-73660596D01*
X136796998Y-73704221D01*
X136727500Y-73711415D01*
X136665145Y-73679892D01*
X136648425Y-73660596D01*
X136621613Y-73622304D01*
X136538495Y-73503599D01*
X136371401Y-73336505D01*
X136177830Y-73200965D01*
X135963663Y-73101097D01*
X135902502Y-73084709D01*
X135735407Y-73039936D01*
X135500000Y-73019340D01*
X135264592Y-73039936D01*
X135036336Y-73101097D01*
X134822170Y-73200965D01*
X134628598Y-73336505D01*
X134461505Y-73503598D01*
X134325965Y-73697170D01*
X134226097Y-73911336D01*
X134164936Y-74139592D01*
X134150846Y-74300649D01*
X134149500Y-74316034D01*
X134149500Y-74683966D01*
X134149735Y-74686659D01*
X134149736Y-74686667D01*
X134164936Y-74860407D01*
X134203290Y-75003545D01*
X134226097Y-75088663D01*
X134325965Y-75302829D01*
X134461505Y-75496401D01*
X134628599Y-75663495D01*
X134822170Y-75799035D01*
X135036337Y-75898903D01*
X135264592Y-75960063D01*
X135500000Y-75980659D01*
X135735408Y-75960063D01*
X135963663Y-75898903D01*
X136177829Y-75799035D01*
X136371401Y-75663495D01*
X136538495Y-75496401D01*
X136648426Y-75339401D01*
X136703002Y-75295778D01*
X136772500Y-75288584D01*
X136834855Y-75320107D01*
X136851571Y-75339398D01*
X136961505Y-75496401D01*
X137128599Y-75663495D01*
X137322170Y-75799035D01*
X137536337Y-75898903D01*
X137764592Y-75960063D01*
X138000000Y-75980659D01*
X138235408Y-75960063D01*
X138463663Y-75898903D01*
X138677829Y-75799035D01*
X138871401Y-75663495D01*
X139018967Y-75515928D01*
X139080287Y-75482446D01*
X139149978Y-75487430D01*
X139205912Y-75529301D01*
X139212184Y-75538515D01*
X139307684Y-75693346D01*
X139431654Y-75817316D01*
X139580877Y-75909357D01*
X139747303Y-75964506D01*
X139846890Y-75974680D01*
X139853168Y-75974999D01*
X140249999Y-75974999D01*
X140250000Y-75974998D01*
X140250000Y-74908018D01*
X140364801Y-74960446D01*
X140466025Y-74975000D01*
X140533975Y-74975000D01*
X140635199Y-74960446D01*
X140750000Y-74908018D01*
X140750000Y-75974999D01*
X141146829Y-75974999D01*
X141153111Y-75974678D01*
X141252695Y-75964506D01*
X141419122Y-75909357D01*
X141568345Y-75817316D01*
X141692316Y-75693345D01*
X141784357Y-75544122D01*
X141839506Y-75377696D01*
X141849680Y-75278109D01*
X141850000Y-75271831D01*
X141850000Y-74750000D01*
X140903969Y-74750000D01*
X140936519Y-74699351D01*
X140975000Y-74568295D01*
X140975000Y-74431705D01*
X140936519Y-74300649D01*
X140903969Y-74250000D01*
X141849999Y-74250000D01*
X141849999Y-73728170D01*
X141849678Y-73721888D01*
X141839506Y-73622304D01*
X141784357Y-73455877D01*
X141692316Y-73306654D01*
X141568345Y-73182683D01*
X141419122Y-73090642D01*
X141252696Y-73035493D01*
X141153109Y-73025319D01*
X141146832Y-73025000D01*
X140750000Y-73025000D01*
X140750000Y-74091981D01*
X140635199Y-74039554D01*
X140533975Y-74025000D01*
X140466025Y-74025000D01*
X140364801Y-74039554D01*
X140250000Y-74091981D01*
X140250000Y-73025000D01*
X139853171Y-73025000D01*
X139846888Y-73025321D01*
X139747304Y-73035493D01*
X139580877Y-73090642D01*
X139431654Y-73182683D01*
X139307684Y-73306653D01*
X139212184Y-73461484D01*
X139160236Y-73508208D01*
X139091273Y-73519430D01*
X139027191Y-73491587D01*
X139018964Y-73484068D01*
X138871402Y-73336506D01*
X138859217Y-73327974D01*
X138853374Y-73323882D01*
X138809751Y-73269305D01*
X138800500Y-73222309D01*
X138800500Y-69909806D01*
X138791982Y-69872487D01*
X138789653Y-69858776D01*
X138785368Y-69820745D01*
X138772725Y-69784611D01*
X138768876Y-69771250D01*
X138760360Y-69733939D01*
X138743753Y-69699455D01*
X138738432Y-69686608D01*
X138725790Y-69650480D01*
X138705423Y-69618066D01*
X138698697Y-69605895D01*
X138682092Y-69571414D01*
X138658225Y-69541486D01*
X138650177Y-69530143D01*
X138629816Y-69497738D01*
X138629815Y-69497737D01*
X138502262Y-69370184D01*
X138171693Y-69039615D01*
X138171691Y-69039612D01*
X138154252Y-69022173D01*
X138122262Y-68990184D01*
X138110709Y-68982925D01*
X138089849Y-68969817D01*
X138078511Y-68961772D01*
X138048586Y-68937908D01*
X138014095Y-68921298D01*
X138001933Y-68914576D01*
X137986327Y-68904770D01*
X137969520Y-68894209D01*
X137933398Y-68881570D01*
X137920553Y-68876250D01*
X137886058Y-68859638D01*
X137848736Y-68851119D01*
X137835380Y-68847272D01*
X137799252Y-68834631D01*
X137761219Y-68830345D01*
X137747518Y-68828017D01*
X137710196Y-68819500D01*
X137710194Y-68819500D01*
X137664954Y-68819500D01*
X129330049Y-68819500D01*
X129263010Y-68799815D01*
X129242368Y-68783181D01*
X129079140Y-68619953D01*
X128892733Y-68489431D01*
X128834725Y-68462382D01*
X128782285Y-68416210D01*
X128763133Y-68349017D01*
X128783348Y-68282135D01*
X128834725Y-68237618D01*
X128892734Y-68210568D01*
X129079139Y-68080047D01*
X129240047Y-67919139D01*
X129370568Y-67732734D01*
X129466739Y-67526496D01*
X129525635Y-67306692D01*
X129545468Y-67080000D01*
X129525635Y-66853308D01*
X129466739Y-66633504D01*
X129370568Y-66427266D01*
X129240047Y-66240861D01*
X129240046Y-66240859D01*
X129079140Y-66079953D01*
X128892736Y-65949433D01*
X128834725Y-65922382D01*
X128834132Y-65922105D01*
X128781695Y-65875933D01*
X128762543Y-65808739D01*
X128782759Y-65741858D01*
X128834135Y-65697342D01*
X128892479Y-65670135D01*
X129078819Y-65539658D01*
X129239658Y-65378819D01*
X129370134Y-65192480D01*
X129466266Y-64986326D01*
X129518872Y-64790000D01*
X128673686Y-64790000D01*
X128699493Y-64749844D01*
X128740000Y-64611889D01*
X128740000Y-64468111D01*
X128699493Y-64330156D01*
X128673686Y-64290000D01*
X129518872Y-64290000D01*
X129518871Y-64289999D01*
X129466266Y-64093673D01*
X129370134Y-63887519D01*
X129239658Y-63701180D01*
X129078819Y-63540341D01*
X128892482Y-63409866D01*
X128834133Y-63382657D01*
X128781694Y-63336484D01*
X128762543Y-63269290D01*
X128782759Y-63202409D01*
X128834134Y-63157893D01*
X128892734Y-63130568D01*
X129079139Y-63000047D01*
X129240047Y-62839139D01*
X129370568Y-62652734D01*
X129466739Y-62446496D01*
X129525635Y-62226692D01*
X129545468Y-62000000D01*
X129525635Y-61773308D01*
X129466739Y-61553504D01*
X129370568Y-61347266D01*
X129345531Y-61311508D01*
X129240046Y-61160859D01*
X129079140Y-60999953D01*
X128892735Y-60869432D01*
X128686497Y-60773261D01*
X128466689Y-60714364D01*
X128240000Y-60694531D01*
X128013310Y-60714364D01*
X127793502Y-60773261D01*
X127587264Y-60869432D01*
X127495623Y-60933600D01*
X127429416Y-60955927D01*
X127361649Y-60938916D01*
X127313837Y-60887968D01*
X127300500Y-60832025D01*
X127300500Y-60424500D01*
X127320185Y-60357461D01*
X127372989Y-60311706D01*
X127424500Y-60300500D01*
X134617060Y-60300500D01*
X134684099Y-60320185D01*
X134704740Y-60336819D01*
X136613182Y-62245260D01*
X136646666Y-62306581D01*
X136649500Y-62332938D01*
X136649500Y-62708966D01*
X136649735Y-62711659D01*
X136649736Y-62711667D01*
X136664936Y-62885407D01*
X136706984Y-63042331D01*
X136726097Y-63113663D01*
X136825965Y-63327829D01*
X136961505Y-63521401D01*
X137128599Y-63688495D01*
X137322170Y-63824035D01*
X137536337Y-63923903D01*
X137764591Y-63985063D01*
X137764592Y-63985063D01*
X137999999Y-64005659D01*
X137999999Y-64005658D01*
X138000000Y-64005659D01*
X138235408Y-63985063D01*
X138463663Y-63923903D01*
X138677829Y-63824035D01*
X138871401Y-63688495D01*
X139018967Y-63540928D01*
X139080287Y-63507446D01*
X139149978Y-63512430D01*
X139205912Y-63554301D01*
X139212184Y-63563515D01*
X139307684Y-63718346D01*
X139431654Y-63842316D01*
X139580877Y-63934357D01*
X139747303Y-63989506D01*
X139846890Y-63999680D01*
X139853168Y-63999999D01*
X140249999Y-63999999D01*
X140250000Y-63999998D01*
X140250000Y-62935501D01*
X140357685Y-62984680D01*
X140464237Y-63000000D01*
X140535763Y-63000000D01*
X140642315Y-62984680D01*
X140750000Y-62935501D01*
X140750000Y-63999999D01*
X141146829Y-63999999D01*
X141153111Y-63999678D01*
X141252695Y-63989506D01*
X141419122Y-63934357D01*
X141568345Y-63842316D01*
X141692316Y-63718345D01*
X141784357Y-63569122D01*
X141839506Y-63402696D01*
X141849680Y-63303109D01*
X141850000Y-63296831D01*
X141850000Y-62750000D01*
X140933686Y-62750000D01*
X140959493Y-62709844D01*
X141000000Y-62571889D01*
X141000000Y-62428111D01*
X140959493Y-62290156D01*
X140933686Y-62250000D01*
X141849999Y-62250000D01*
X141849999Y-61703170D01*
X141849678Y-61696888D01*
X141839506Y-61597304D01*
X141784357Y-61430877D01*
X141692316Y-61281654D01*
X141568345Y-61157683D01*
X141419122Y-61065642D01*
X141252696Y-61010493D01*
X141153109Y-61000319D01*
X141146832Y-61000000D01*
X140750000Y-61000000D01*
X140750000Y-62064498D01*
X140642315Y-62015320D01*
X140535763Y-62000000D01*
X140464237Y-62000000D01*
X140357685Y-62015320D01*
X140250000Y-62064498D01*
X140250000Y-61000000D01*
X139853171Y-61000000D01*
X139846888Y-61000321D01*
X139747304Y-61010493D01*
X139580877Y-61065642D01*
X139431654Y-61157683D01*
X139307684Y-61281653D01*
X139212184Y-61436484D01*
X139160236Y-61483208D01*
X139091273Y-61494430D01*
X139027191Y-61466587D01*
X139018964Y-61459068D01*
X138871404Y-61311508D01*
X138871401Y-61311505D01*
X138677830Y-61175965D01*
X138463663Y-61076097D01*
X138402502Y-61059709D01*
X138235407Y-61014936D01*
X138000000Y-60994340D01*
X137764592Y-61014936D01*
X137741009Y-61021255D01*
X137671159Y-61019590D01*
X137621238Y-60989160D01*
X135502262Y-58870184D01*
X135469850Y-58849818D01*
X135458512Y-58841773D01*
X135428587Y-58817909D01*
X135428586Y-58817908D01*
X135394095Y-58801298D01*
X135381933Y-58794576D01*
X135366327Y-58784770D01*
X135349520Y-58774209D01*
X135313398Y-58761570D01*
X135300553Y-58756250D01*
X135266058Y-58739638D01*
X135228736Y-58731119D01*
X135215380Y-58727272D01*
X135179252Y-58714631D01*
X135141219Y-58710345D01*
X135127518Y-58708017D01*
X135090196Y-58699500D01*
X135090194Y-58699500D01*
X135044954Y-58699500D01*
X127090194Y-58699500D01*
X126909806Y-58699500D01*
X126909803Y-58699500D01*
X126872480Y-58708017D01*
X126858780Y-58710345D01*
X126820743Y-58714631D01*
X126784623Y-58727270D01*
X126771268Y-58731118D01*
X126733939Y-58739639D01*
X126699441Y-58756251D01*
X126686604Y-58761568D01*
X126650476Y-58774211D01*
X126618067Y-58794574D01*
X126605903Y-58801297D01*
X126571414Y-58817906D01*
X126541486Y-58841773D01*
X126530152Y-58849815D01*
X126497738Y-58870183D01*
X126465748Y-58902174D01*
X125939154Y-59428765D01*
X125939150Y-59428771D01*
X125870185Y-59497735D01*
X125849817Y-59530151D01*
X125841772Y-59541489D01*
X125817908Y-59571413D01*
X125801300Y-59605899D01*
X125794576Y-59618064D01*
X125774211Y-59650475D01*
X125761565Y-59686613D01*
X125756246Y-59699453D01*
X125739639Y-59733938D01*
X125731118Y-59771268D01*
X125727270Y-59784623D01*
X125714631Y-59820743D01*
X125710345Y-59858780D01*
X125708017Y-59872480D01*
X125699500Y-59909803D01*
X125699500Y-73578788D01*
X125679815Y-73645827D01*
X125627011Y-73691582D01*
X125557853Y-73701526D01*
X125494297Y-73672501D01*
X125491962Y-73670425D01*
X125346562Y-73537875D01*
X125157404Y-73420754D01*
X125010365Y-73363791D01*
X124949940Y-73340382D01*
X124731243Y-73299500D01*
X124508757Y-73299500D01*
X124310800Y-73336505D01*
X124290060Y-73340382D01*
X124082595Y-73420754D01*
X123893437Y-73537875D01*
X123729019Y-73687762D01*
X123594941Y-73865311D01*
X123535499Y-73984687D01*
X123487996Y-74035924D01*
X123420333Y-74053345D01*
X123353993Y-74031419D01*
X123310038Y-73977108D01*
X123300499Y-73929415D01*
X123300500Y-68799815D01*
X123300500Y-59955046D01*
X123300500Y-59955045D01*
X123300500Y-59909806D01*
X123291981Y-59872480D01*
X123289653Y-59858776D01*
X123285368Y-59820745D01*
X123272725Y-59784613D01*
X123268881Y-59771276D01*
X123260360Y-59733939D01*
X123258703Y-59730499D01*
X123243748Y-59699441D01*
X123238428Y-59686597D01*
X123225790Y-59650480D01*
X123205425Y-59618069D01*
X123198699Y-59605898D01*
X123182092Y-59571414D01*
X123158228Y-59541490D01*
X123150185Y-59530156D01*
X123129816Y-59497738D01*
X123002262Y-59370184D01*
X122993582Y-59361504D01*
X122993577Y-59361500D01*
X120336819Y-56704741D01*
X120303334Y-56643418D01*
X120300500Y-56617060D01*
X120300500Y-54777690D01*
X120320185Y-54710651D01*
X120353380Y-54676113D01*
X120371400Y-54663496D01*
X120371401Y-54663495D01*
X120538495Y-54496401D01*
X120648426Y-54339401D01*
X120703002Y-54295778D01*
X120772500Y-54288584D01*
X120834855Y-54320107D01*
X120851571Y-54339398D01*
X120961505Y-54496401D01*
X121128599Y-54663495D01*
X121322170Y-54799035D01*
X121536337Y-54898903D01*
X121764592Y-54960063D01*
X122000000Y-54980659D01*
X122235408Y-54960063D01*
X122463663Y-54898903D01*
X122677829Y-54799035D01*
X122871401Y-54663495D01*
X123018967Y-54515928D01*
X123080287Y-54482446D01*
X123149978Y-54487430D01*
X123205912Y-54529301D01*
X123212184Y-54538515D01*
X123307684Y-54693346D01*
X123431654Y-54817316D01*
X123580877Y-54909357D01*
X123747303Y-54964506D01*
X123846890Y-54974680D01*
X123853168Y-54974999D01*
X124249999Y-54974999D01*
X124250000Y-54974998D01*
X124250000Y-53908018D01*
X124364801Y-53960446D01*
X124466025Y-53975000D01*
X124533975Y-53975000D01*
X124635199Y-53960446D01*
X124750000Y-53908018D01*
X124750000Y-54974999D01*
X125146829Y-54974999D01*
X125153111Y-54974678D01*
X125252695Y-54964506D01*
X125419122Y-54909357D01*
X125568345Y-54817316D01*
X125692316Y-54693345D01*
X125784357Y-54544122D01*
X125839506Y-54377696D01*
X125849680Y-54278109D01*
X125850000Y-54271831D01*
X125850000Y-53750000D01*
X124903969Y-53750000D01*
X124936519Y-53699351D01*
X124975000Y-53568295D01*
X124975000Y-53431705D01*
X124936519Y-53300649D01*
X124903969Y-53250000D01*
X125849999Y-53250000D01*
X125849999Y-53067764D01*
X138145787Y-53067764D01*
X138175413Y-53337016D01*
X138175414Y-53337018D01*
X138243928Y-53599088D01*
X138349870Y-53848390D01*
X138349871Y-53848392D01*
X138490982Y-54079611D01*
X138580253Y-54186881D01*
X138664255Y-54287820D01*
X138865998Y-54468582D01*
X139091910Y-54618044D01*
X139188857Y-54663491D01*
X139337177Y-54733021D01*
X139596562Y-54811058D01*
X139596569Y-54811060D01*
X139864561Y-54850500D01*
X139864564Y-54850500D01*
X140065369Y-54850500D01*
X140067631Y-54850500D01*
X140270156Y-54835677D01*
X140534553Y-54776780D01*
X140787558Y-54680014D01*
X141023777Y-54547441D01*
X141238177Y-54381888D01*
X141426186Y-54186881D01*
X141583799Y-53966579D01*
X141707656Y-53725675D01*
X141795118Y-53469305D01*
X141844319Y-53202933D01*
X141854212Y-52932235D01*
X141824586Y-52662982D01*
X141756072Y-52400912D01*
X141650130Y-52151610D01*
X141573057Y-52025321D01*
X141509017Y-51920388D01*
X141335746Y-51712181D01*
X141230759Y-51618112D01*
X141134002Y-51531418D01*
X140908090Y-51381956D01*
X140908086Y-51381954D01*
X140662822Y-51266978D01*
X140403437Y-51188941D01*
X140403431Y-51188940D01*
X140135439Y-51149500D01*
X139932369Y-51149500D01*
X139930120Y-51149664D01*
X139930109Y-51149665D01*
X139729843Y-51164322D01*
X139465449Y-51223219D01*
X139212441Y-51319986D01*
X138976223Y-51452559D01*
X138761825Y-51618109D01*
X138573813Y-51813120D01*
X138416201Y-52033420D01*
X138292342Y-52274329D01*
X138204881Y-52530695D01*
X138155680Y-52797066D01*
X138145787Y-53067764D01*
X125849999Y-53067764D01*
X125849999Y-52728170D01*
X125849678Y-52721888D01*
X125839506Y-52622304D01*
X125784357Y-52455877D01*
X125692316Y-52306654D01*
X125568345Y-52182683D01*
X125419122Y-52090642D01*
X125252696Y-52035493D01*
X125153109Y-52025319D01*
X125146832Y-52025000D01*
X124750000Y-52025000D01*
X124749999Y-53091981D01*
X124635199Y-53039554D01*
X124533975Y-53025000D01*
X124466025Y-53025000D01*
X124364801Y-53039554D01*
X124250000Y-53091981D01*
X124250000Y-52025000D01*
X123853171Y-52025000D01*
X123846888Y-52025321D01*
X123747304Y-52035493D01*
X123580877Y-52090642D01*
X123431654Y-52182683D01*
X123307684Y-52306653D01*
X123212184Y-52461484D01*
X123160236Y-52508208D01*
X123091273Y-52519430D01*
X123027191Y-52491587D01*
X123018964Y-52484068D01*
X122871404Y-52336508D01*
X122871404Y-52336507D01*
X122871401Y-52336505D01*
X122677830Y-52200965D01*
X122463663Y-52101097D01*
X122402502Y-52084709D01*
X122235407Y-52039936D01*
X121999999Y-52019340D01*
X121764592Y-52039936D01*
X121536336Y-52101097D01*
X121322170Y-52200965D01*
X121128598Y-52336505D01*
X120961505Y-52503598D01*
X120851575Y-52660596D01*
X120796998Y-52704221D01*
X120727500Y-52711415D01*
X120665145Y-52679892D01*
X120648425Y-52660596D01*
X120589640Y-52576642D01*
X120538495Y-52503599D01*
X120371401Y-52336505D01*
X120177830Y-52200965D01*
X119963663Y-52101097D01*
X119902502Y-52084709D01*
X119735407Y-52039936D01*
X119500000Y-52019340D01*
X119264592Y-52039936D01*
X119036336Y-52101097D01*
X118822170Y-52200965D01*
X118628598Y-52336505D01*
X118461505Y-52503598D01*
X118351575Y-52660596D01*
X118296998Y-52704221D01*
X118227500Y-52711415D01*
X118165145Y-52679892D01*
X118148425Y-52660596D01*
X118089640Y-52576642D01*
X118038495Y-52503599D01*
X117871401Y-52336505D01*
X117677830Y-52200965D01*
X117463663Y-52101097D01*
X117402502Y-52084709D01*
X117235407Y-52039936D01*
X117000000Y-52019340D01*
X116764592Y-52039936D01*
X116536336Y-52101097D01*
X116322170Y-52200965D01*
X116128598Y-52336505D01*
X115961505Y-52503598D01*
X115825965Y-52697170D01*
X115726097Y-52911336D01*
X115664936Y-53139592D01*
X115655277Y-53249999D01*
X115649500Y-53316034D01*
X115649500Y-53683966D01*
X110000500Y-53683966D01*
X110000500Y-53002561D01*
X110000606Y-52997437D01*
X110008893Y-52797067D01*
X110009493Y-52782569D01*
X110018052Y-52586542D01*
X110018881Y-52576671D01*
X110045487Y-52363223D01*
X110071581Y-52165024D01*
X110073146Y-52155842D01*
X110117195Y-51945759D01*
X110160687Y-51749586D01*
X110162882Y-51741124D01*
X110224112Y-51535457D01*
X110284708Y-51343273D01*
X110287421Y-51335571D01*
X110365074Y-51136564D01*
X110365883Y-51134553D01*
X110442762Y-50948951D01*
X110445874Y-50942051D01*
X110539587Y-50750357D01*
X110540945Y-50747667D01*
X110633667Y-50569551D01*
X110637118Y-50563362D01*
X110746295Y-50380139D01*
X110748150Y-50377129D01*
X110856090Y-50207697D01*
X110859721Y-50202316D01*
X110983635Y-50028764D01*
X110986102Y-50025433D01*
X111108401Y-49866048D01*
X111112114Y-49861445D01*
X111249903Y-49698758D01*
X111253027Y-49695211D01*
X111388811Y-49547028D01*
X111392440Y-49543238D01*
X111543238Y-49392440D01*
X111547028Y-49388811D01*
X111695211Y-49253027D01*
X111698758Y-49249903D01*
X111861445Y-49112114D01*
X111866048Y-49108401D01*
X112025433Y-48986102D01*
X112028764Y-48983635D01*
X112202316Y-48859721D01*
X112207697Y-48856090D01*
X112377129Y-48748150D01*
X112380139Y-48746295D01*
X112563373Y-48637111D01*
X112569551Y-48633667D01*
X112747667Y-48540945D01*
X112750357Y-48539587D01*
X112942051Y-48445874D01*
X112948951Y-48442762D01*
X113134553Y-48365883D01*
X113136564Y-48365074D01*
X113335565Y-48287423D01*
X113343293Y-48284701D01*
X113535437Y-48224118D01*
X113741104Y-48162888D01*
X113749605Y-48160682D01*
X113945797Y-48117187D01*
X114155833Y-48073148D01*
X114165041Y-48071579D01*
X114363223Y-48045487D01*
X114576669Y-48018881D01*
X114586540Y-48018052D01*
X114782569Y-48009493D01*
X114997437Y-48000605D01*
X115002561Y-48000500D01*
X139997439Y-48000500D01*
X140002562Y-48000605D01*
G37*
%TD.AperFunction*%
%TD*%
M02*
