%TF.GenerationSoftware,KiCad,Pcbnew,7.0.2*%
%TF.CreationDate,2024-05-20T21:15:08+02:00*%
%TF.ProjectId,aux_axis,6175785f-6178-4697-932e-6b696361645f,rev?*%
%TF.SameCoordinates,Original*%
%TF.FileFunction,Drillmap*%
%TF.FilePolarity,Positive*%
%FSLAX45Y45*%
G04 Gerber Fmt 4.5, Leading zero omitted, Abs format (unit mm)*
G04 Created by KiCad (PCBNEW 7.0.2) date 2024-05-20 21:15:08*
%MOMM*%
%LPD*%
G01*
G04 APERTURE LIST*
%ADD10C,0.100000*%
%ADD11C,0.200000*%
%ADD12C,0.070000*%
%ADD13C,0.095000*%
%ADD14C,0.152000*%
G04 APERTURE END LIST*
D10*
X11000000Y-5300000D02*
X11000000Y-10100000D01*
X14500000Y-10100000D02*
X14500000Y-5300000D01*
X14000000Y-4800000D02*
X11500000Y-4800000D01*
X11500000Y-4800000D02*
G75*
G03*
X11000000Y-5300000I0J-500000D01*
G01*
X14000000Y-10600000D02*
G75*
G03*
X14500000Y-10100000I0J500000D01*
G01*
X14500000Y-5300000D02*
G75*
G03*
X14000000Y-4800000I-500000J0D01*
G01*
X11000000Y-10100000D02*
G75*
G03*
X11500000Y-10600000I500000J0D01*
G01*
X11500000Y-10600000D02*
X14000000Y-10600000D01*
D11*
D12*
X11665000Y-7415000D02*
X11735000Y-7485000D01*
X11735000Y-7415000D02*
X11665000Y-7485000D01*
X11665000Y-7815000D02*
X11735000Y-7885000D01*
X11735000Y-7815000D02*
X11665000Y-7885000D01*
X11665000Y-8215000D02*
X11735000Y-8285000D01*
X11735000Y-8215000D02*
X11665000Y-8285000D01*
X11665000Y-8615000D02*
X11735000Y-8685000D01*
X11735000Y-8615000D02*
X11665000Y-8685000D01*
X12427000Y-7415000D02*
X12497000Y-7485000D01*
X12497000Y-7415000D02*
X12427000Y-7485000D01*
X12427000Y-7815000D02*
X12497000Y-7885000D01*
X12497000Y-7815000D02*
X12427000Y-7885000D01*
X12427000Y-8215000D02*
X12497000Y-8285000D01*
X12497000Y-8215000D02*
X12427000Y-8285000D01*
X12427000Y-8615000D02*
X12497000Y-8685000D01*
X12497000Y-8615000D02*
X12427000Y-8685000D01*
D13*
X11747500Y-5350000D02*
G75*
G03*
X11747500Y-5350000I-47500J0D01*
G01*
X11997500Y-5350000D02*
G75*
G03*
X11997500Y-5350000I-47500J0D01*
G01*
X12247500Y-5350000D02*
G75*
G03*
X12247500Y-5350000I-47500J0D01*
G01*
X12497500Y-5350000D02*
G75*
G03*
X12497500Y-5350000I-47500J0D01*
G01*
X13597500Y-7450000D02*
G75*
G03*
X13597500Y-7450000I-47500J0D01*
G01*
X13597500Y-8550000D02*
G75*
G03*
X13597500Y-8550000I-47500J0D01*
G01*
X13847500Y-7450000D02*
G75*
G03*
X13847500Y-7450000I-47500J0D01*
G01*
X13847500Y-8550000D02*
G75*
G03*
X13847500Y-8550000I-47500J0D01*
G01*
X14097500Y-7450000D02*
G75*
G03*
X14097500Y-7450000I-47500J0D01*
G01*
X14097500Y-8550000D02*
G75*
G03*
X14097500Y-8550000I-47500J0D01*
G01*
D10*
X11300000Y-6150000D02*
X11300000Y-6250000D01*
X11250000Y-6200000D02*
X11350000Y-6200000D01*
X11300000Y-6404000D02*
X11300000Y-6504000D01*
X11250000Y-6454000D02*
X11350000Y-6454000D01*
X11300000Y-6658000D02*
X11300000Y-6758000D01*
X11250000Y-6708000D02*
X11350000Y-6708000D01*
X11300000Y-6912000D02*
X11300000Y-7012000D01*
X11250000Y-6962000D02*
X11350000Y-6962000D01*
X11300000Y-7166000D02*
X11300000Y-7266000D01*
X11250000Y-7216000D02*
X11350000Y-7216000D01*
X11300000Y-7420000D02*
X11300000Y-7520000D01*
X11250000Y-7470000D02*
X11350000Y-7470000D01*
X11300000Y-7674000D02*
X11300000Y-7774000D01*
X11250000Y-7724000D02*
X11350000Y-7724000D01*
X11300000Y-7928000D02*
X11300000Y-8028000D01*
X11250000Y-7978000D02*
X11350000Y-7978000D01*
X11300000Y-8182000D02*
X11300000Y-8282000D01*
X11250000Y-8232000D02*
X11350000Y-8232000D01*
X11300000Y-8436000D02*
X11300000Y-8536000D01*
X11250000Y-8486000D02*
X11350000Y-8486000D01*
X11300000Y-8690000D02*
X11300000Y-8790000D01*
X11250000Y-8740000D02*
X11350000Y-8740000D01*
X11300000Y-8944000D02*
X11300000Y-9044000D01*
X11250000Y-8994000D02*
X11350000Y-8994000D01*
X11300000Y-9198000D02*
X11300000Y-9298000D01*
X11250000Y-9248000D02*
X11350000Y-9248000D01*
X11300000Y-9452000D02*
X11300000Y-9552000D01*
X11250000Y-9502000D02*
X11350000Y-9502000D01*
X11300000Y-9706000D02*
X11300000Y-9806000D01*
X11250000Y-9756000D02*
X11350000Y-9756000D01*
X12824000Y-6150000D02*
X12824000Y-6250000D01*
X12774000Y-6200000D02*
X12874000Y-6200000D01*
X12824000Y-6404000D02*
X12824000Y-6504000D01*
X12774000Y-6454000D02*
X12874000Y-6454000D01*
X12824000Y-6658000D02*
X12824000Y-6758000D01*
X12774000Y-6708000D02*
X12874000Y-6708000D01*
X12824000Y-6912000D02*
X12824000Y-7012000D01*
X12774000Y-6962000D02*
X12874000Y-6962000D01*
X12824000Y-7166000D02*
X12824000Y-7266000D01*
X12774000Y-7216000D02*
X12874000Y-7216000D01*
X12824000Y-7420000D02*
X12824000Y-7520000D01*
X12774000Y-7470000D02*
X12874000Y-7470000D01*
X12824000Y-7674000D02*
X12824000Y-7774000D01*
X12774000Y-7724000D02*
X12874000Y-7724000D01*
X12824000Y-7928000D02*
X12824000Y-8028000D01*
X12774000Y-7978000D02*
X12874000Y-7978000D01*
X12824000Y-8182000D02*
X12824000Y-8282000D01*
X12774000Y-8232000D02*
X12874000Y-8232000D01*
X12824000Y-8436000D02*
X12824000Y-8536000D01*
X12774000Y-8486000D02*
X12874000Y-8486000D01*
X12824000Y-8690000D02*
X12824000Y-8790000D01*
X12774000Y-8740000D02*
X12874000Y-8740000D01*
X12824000Y-8944000D02*
X12824000Y-9044000D01*
X12774000Y-8994000D02*
X12874000Y-8994000D01*
X12824000Y-9198000D02*
X12824000Y-9298000D01*
X12774000Y-9248000D02*
X12874000Y-9248000D01*
X12824000Y-9452000D02*
X12824000Y-9552000D01*
X12774000Y-9502000D02*
X12874000Y-9502000D01*
X12824000Y-9706000D02*
X12824000Y-9806000D01*
X12774000Y-9756000D02*
X12874000Y-9756000D01*
X13800000Y-6200000D02*
X13800000Y-6300000D01*
X13750000Y-6250000D02*
X13850000Y-6250000D01*
X14050000Y-6200000D02*
X14050000Y-6300000D01*
X14000000Y-6250000D02*
X14100000Y-6250000D01*
D14*
X13603741Y-9853741D02*
X13603741Y-9746259D01*
X13496259Y-9746259D01*
X13496259Y-9853741D01*
X13603741Y-9853741D01*
X14111741Y-9853741D02*
X14111741Y-9746259D01*
X14004259Y-9746259D01*
X14004259Y-9853741D01*
X14111741Y-9853741D01*
D11*
X11242619Y-10917524D02*
X11242619Y-10717524D01*
X11242619Y-10717524D02*
X11290238Y-10717524D01*
X11290238Y-10717524D02*
X11318809Y-10727048D01*
X11318809Y-10727048D02*
X11337857Y-10746095D01*
X11337857Y-10746095D02*
X11347381Y-10765143D01*
X11347381Y-10765143D02*
X11356905Y-10803238D01*
X11356905Y-10803238D02*
X11356905Y-10831810D01*
X11356905Y-10831810D02*
X11347381Y-10869905D01*
X11347381Y-10869905D02*
X11337857Y-10888952D01*
X11337857Y-10888952D02*
X11318809Y-10908000D01*
X11318809Y-10908000D02*
X11290238Y-10917524D01*
X11290238Y-10917524D02*
X11242619Y-10917524D01*
X11442619Y-10917524D02*
X11442619Y-10784190D01*
X11442619Y-10822286D02*
X11452143Y-10803238D01*
X11452143Y-10803238D02*
X11461667Y-10793714D01*
X11461667Y-10793714D02*
X11480714Y-10784190D01*
X11480714Y-10784190D02*
X11499762Y-10784190D01*
X11566428Y-10917524D02*
X11566428Y-10784190D01*
X11566428Y-10717524D02*
X11556905Y-10727048D01*
X11556905Y-10727048D02*
X11566428Y-10736571D01*
X11566428Y-10736571D02*
X11575952Y-10727048D01*
X11575952Y-10727048D02*
X11566428Y-10717524D01*
X11566428Y-10717524D02*
X11566428Y-10736571D01*
X11690238Y-10917524D02*
X11671190Y-10908000D01*
X11671190Y-10908000D02*
X11661667Y-10888952D01*
X11661667Y-10888952D02*
X11661667Y-10717524D01*
X11795000Y-10917524D02*
X11775952Y-10908000D01*
X11775952Y-10908000D02*
X11766428Y-10888952D01*
X11766428Y-10888952D02*
X11766428Y-10717524D01*
X12023571Y-10917524D02*
X12023571Y-10717524D01*
X12023571Y-10717524D02*
X12090238Y-10860381D01*
X12090238Y-10860381D02*
X12156905Y-10717524D01*
X12156905Y-10717524D02*
X12156905Y-10917524D01*
X12337857Y-10917524D02*
X12337857Y-10812762D01*
X12337857Y-10812762D02*
X12328333Y-10793714D01*
X12328333Y-10793714D02*
X12309286Y-10784190D01*
X12309286Y-10784190D02*
X12271190Y-10784190D01*
X12271190Y-10784190D02*
X12252143Y-10793714D01*
X12337857Y-10908000D02*
X12318809Y-10917524D01*
X12318809Y-10917524D02*
X12271190Y-10917524D01*
X12271190Y-10917524D02*
X12252143Y-10908000D01*
X12252143Y-10908000D02*
X12242619Y-10888952D01*
X12242619Y-10888952D02*
X12242619Y-10869905D01*
X12242619Y-10869905D02*
X12252143Y-10850857D01*
X12252143Y-10850857D02*
X12271190Y-10841333D01*
X12271190Y-10841333D02*
X12318809Y-10841333D01*
X12318809Y-10841333D02*
X12337857Y-10831810D01*
X12433095Y-10784190D02*
X12433095Y-10984190D01*
X12433095Y-10793714D02*
X12452143Y-10784190D01*
X12452143Y-10784190D02*
X12490238Y-10784190D01*
X12490238Y-10784190D02*
X12509286Y-10793714D01*
X12509286Y-10793714D02*
X12518809Y-10803238D01*
X12518809Y-10803238D02*
X12528333Y-10822286D01*
X12528333Y-10822286D02*
X12528333Y-10879429D01*
X12528333Y-10879429D02*
X12518809Y-10898476D01*
X12518809Y-10898476D02*
X12509286Y-10908000D01*
X12509286Y-10908000D02*
X12490238Y-10917524D01*
X12490238Y-10917524D02*
X12452143Y-10917524D01*
X12452143Y-10917524D02*
X12433095Y-10908000D01*
X12614048Y-10898476D02*
X12623571Y-10908000D01*
X12623571Y-10908000D02*
X12614048Y-10917524D01*
X12614048Y-10917524D02*
X12604524Y-10908000D01*
X12604524Y-10908000D02*
X12614048Y-10898476D01*
X12614048Y-10898476D02*
X12614048Y-10917524D01*
X12614048Y-10793714D02*
X12623571Y-10803238D01*
X12623571Y-10803238D02*
X12614048Y-10812762D01*
X12614048Y-10812762D02*
X12604524Y-10803238D01*
X12604524Y-10803238D02*
X12614048Y-10793714D01*
X12614048Y-10793714D02*
X12614048Y-10812762D01*
D12*
X10925000Y-11210000D02*
X10995000Y-11280000D01*
X10995000Y-11210000D02*
X10925000Y-11280000D01*
D11*
X11280714Y-11137524D02*
X11299762Y-11137524D01*
X11299762Y-11137524D02*
X11318809Y-11147048D01*
X11318809Y-11147048D02*
X11328333Y-11156571D01*
X11328333Y-11156571D02*
X11337857Y-11175619D01*
X11337857Y-11175619D02*
X11347381Y-11213714D01*
X11347381Y-11213714D02*
X11347381Y-11261333D01*
X11347381Y-11261333D02*
X11337857Y-11299428D01*
X11337857Y-11299428D02*
X11328333Y-11318476D01*
X11328333Y-11318476D02*
X11318809Y-11328000D01*
X11318809Y-11328000D02*
X11299762Y-11337524D01*
X11299762Y-11337524D02*
X11280714Y-11337524D01*
X11280714Y-11337524D02*
X11261667Y-11328000D01*
X11261667Y-11328000D02*
X11252143Y-11318476D01*
X11252143Y-11318476D02*
X11242619Y-11299428D01*
X11242619Y-11299428D02*
X11233095Y-11261333D01*
X11233095Y-11261333D02*
X11233095Y-11213714D01*
X11233095Y-11213714D02*
X11242619Y-11175619D01*
X11242619Y-11175619D02*
X11252143Y-11156571D01*
X11252143Y-11156571D02*
X11261667Y-11147048D01*
X11261667Y-11147048D02*
X11280714Y-11137524D01*
X11433095Y-11318476D02*
X11442619Y-11328000D01*
X11442619Y-11328000D02*
X11433095Y-11337524D01*
X11433095Y-11337524D02*
X11423571Y-11328000D01*
X11423571Y-11328000D02*
X11433095Y-11318476D01*
X11433095Y-11318476D02*
X11433095Y-11337524D01*
X11509286Y-11137524D02*
X11642619Y-11137524D01*
X11642619Y-11137524D02*
X11556905Y-11337524D01*
X11756905Y-11137524D02*
X11775952Y-11137524D01*
X11775952Y-11137524D02*
X11795000Y-11147048D01*
X11795000Y-11147048D02*
X11804524Y-11156571D01*
X11804524Y-11156571D02*
X11814048Y-11175619D01*
X11814048Y-11175619D02*
X11823571Y-11213714D01*
X11823571Y-11213714D02*
X11823571Y-11261333D01*
X11823571Y-11261333D02*
X11814048Y-11299428D01*
X11814048Y-11299428D02*
X11804524Y-11318476D01*
X11804524Y-11318476D02*
X11795000Y-11328000D01*
X11795000Y-11328000D02*
X11775952Y-11337524D01*
X11775952Y-11337524D02*
X11756905Y-11337524D01*
X11756905Y-11337524D02*
X11737857Y-11328000D01*
X11737857Y-11328000D02*
X11728333Y-11318476D01*
X11728333Y-11318476D02*
X11718809Y-11299428D01*
X11718809Y-11299428D02*
X11709286Y-11261333D01*
X11709286Y-11261333D02*
X11709286Y-11213714D01*
X11709286Y-11213714D02*
X11718809Y-11175619D01*
X11718809Y-11175619D02*
X11728333Y-11156571D01*
X11728333Y-11156571D02*
X11737857Y-11147048D01*
X11737857Y-11147048D02*
X11756905Y-11137524D01*
X11947381Y-11137524D02*
X11966429Y-11137524D01*
X11966429Y-11137524D02*
X11985476Y-11147048D01*
X11985476Y-11147048D02*
X11995000Y-11156571D01*
X11995000Y-11156571D02*
X12004524Y-11175619D01*
X12004524Y-11175619D02*
X12014048Y-11213714D01*
X12014048Y-11213714D02*
X12014048Y-11261333D01*
X12014048Y-11261333D02*
X12004524Y-11299428D01*
X12004524Y-11299428D02*
X11995000Y-11318476D01*
X11995000Y-11318476D02*
X11985476Y-11328000D01*
X11985476Y-11328000D02*
X11966429Y-11337524D01*
X11966429Y-11337524D02*
X11947381Y-11337524D01*
X11947381Y-11337524D02*
X11928333Y-11328000D01*
X11928333Y-11328000D02*
X11918809Y-11318476D01*
X11918809Y-11318476D02*
X11909286Y-11299428D01*
X11909286Y-11299428D02*
X11899762Y-11261333D01*
X11899762Y-11261333D02*
X11899762Y-11213714D01*
X11899762Y-11213714D02*
X11909286Y-11175619D01*
X11909286Y-11175619D02*
X11918809Y-11156571D01*
X11918809Y-11156571D02*
X11928333Y-11147048D01*
X11928333Y-11147048D02*
X11947381Y-11137524D01*
X12099762Y-11337524D02*
X12099762Y-11204190D01*
X12099762Y-11223238D02*
X12109286Y-11213714D01*
X12109286Y-11213714D02*
X12128333Y-11204190D01*
X12128333Y-11204190D02*
X12156905Y-11204190D01*
X12156905Y-11204190D02*
X12175952Y-11213714D01*
X12175952Y-11213714D02*
X12185476Y-11232762D01*
X12185476Y-11232762D02*
X12185476Y-11337524D01*
X12185476Y-11232762D02*
X12195000Y-11213714D01*
X12195000Y-11213714D02*
X12214048Y-11204190D01*
X12214048Y-11204190D02*
X12242619Y-11204190D01*
X12242619Y-11204190D02*
X12261667Y-11213714D01*
X12261667Y-11213714D02*
X12271190Y-11232762D01*
X12271190Y-11232762D02*
X12271190Y-11337524D01*
X12366429Y-11337524D02*
X12366429Y-11204190D01*
X12366429Y-11223238D02*
X12375952Y-11213714D01*
X12375952Y-11213714D02*
X12395000Y-11204190D01*
X12395000Y-11204190D02*
X12423571Y-11204190D01*
X12423571Y-11204190D02*
X12442619Y-11213714D01*
X12442619Y-11213714D02*
X12452143Y-11232762D01*
X12452143Y-11232762D02*
X12452143Y-11337524D01*
X12452143Y-11232762D02*
X12461667Y-11213714D01*
X12461667Y-11213714D02*
X12480714Y-11204190D01*
X12480714Y-11204190D02*
X12509286Y-11204190D01*
X12509286Y-11204190D02*
X12528333Y-11213714D01*
X12528333Y-11213714D02*
X12537857Y-11232762D01*
X12537857Y-11232762D02*
X12537857Y-11337524D01*
X12928333Y-11128000D02*
X12756905Y-11385143D01*
X13185476Y-11137524D02*
X13204524Y-11137524D01*
X13204524Y-11137524D02*
X13223572Y-11147048D01*
X13223572Y-11147048D02*
X13233095Y-11156571D01*
X13233095Y-11156571D02*
X13242619Y-11175619D01*
X13242619Y-11175619D02*
X13252143Y-11213714D01*
X13252143Y-11213714D02*
X13252143Y-11261333D01*
X13252143Y-11261333D02*
X13242619Y-11299428D01*
X13242619Y-11299428D02*
X13233095Y-11318476D01*
X13233095Y-11318476D02*
X13223572Y-11328000D01*
X13223572Y-11328000D02*
X13204524Y-11337524D01*
X13204524Y-11337524D02*
X13185476Y-11337524D01*
X13185476Y-11337524D02*
X13166429Y-11328000D01*
X13166429Y-11328000D02*
X13156905Y-11318476D01*
X13156905Y-11318476D02*
X13147381Y-11299428D01*
X13147381Y-11299428D02*
X13137857Y-11261333D01*
X13137857Y-11261333D02*
X13137857Y-11213714D01*
X13137857Y-11213714D02*
X13147381Y-11175619D01*
X13147381Y-11175619D02*
X13156905Y-11156571D01*
X13156905Y-11156571D02*
X13166429Y-11147048D01*
X13166429Y-11147048D02*
X13185476Y-11137524D01*
X13337857Y-11318476D02*
X13347381Y-11328000D01*
X13347381Y-11328000D02*
X13337857Y-11337524D01*
X13337857Y-11337524D02*
X13328333Y-11328000D01*
X13328333Y-11328000D02*
X13337857Y-11318476D01*
X13337857Y-11318476D02*
X13337857Y-11337524D01*
X13471191Y-11137524D02*
X13490238Y-11137524D01*
X13490238Y-11137524D02*
X13509286Y-11147048D01*
X13509286Y-11147048D02*
X13518810Y-11156571D01*
X13518810Y-11156571D02*
X13528333Y-11175619D01*
X13528333Y-11175619D02*
X13537857Y-11213714D01*
X13537857Y-11213714D02*
X13537857Y-11261333D01*
X13537857Y-11261333D02*
X13528333Y-11299428D01*
X13528333Y-11299428D02*
X13518810Y-11318476D01*
X13518810Y-11318476D02*
X13509286Y-11328000D01*
X13509286Y-11328000D02*
X13490238Y-11337524D01*
X13490238Y-11337524D02*
X13471191Y-11337524D01*
X13471191Y-11337524D02*
X13452143Y-11328000D01*
X13452143Y-11328000D02*
X13442619Y-11318476D01*
X13442619Y-11318476D02*
X13433095Y-11299428D01*
X13433095Y-11299428D02*
X13423572Y-11261333D01*
X13423572Y-11261333D02*
X13423572Y-11213714D01*
X13423572Y-11213714D02*
X13433095Y-11175619D01*
X13433095Y-11175619D02*
X13442619Y-11156571D01*
X13442619Y-11156571D02*
X13452143Y-11147048D01*
X13452143Y-11147048D02*
X13471191Y-11137524D01*
X13614048Y-11156571D02*
X13623572Y-11147048D01*
X13623572Y-11147048D02*
X13642619Y-11137524D01*
X13642619Y-11137524D02*
X13690238Y-11137524D01*
X13690238Y-11137524D02*
X13709286Y-11147048D01*
X13709286Y-11147048D02*
X13718810Y-11156571D01*
X13718810Y-11156571D02*
X13728333Y-11175619D01*
X13728333Y-11175619D02*
X13728333Y-11194667D01*
X13728333Y-11194667D02*
X13718810Y-11223238D01*
X13718810Y-11223238D02*
X13604524Y-11337524D01*
X13604524Y-11337524D02*
X13728333Y-11337524D01*
X13795000Y-11137524D02*
X13928333Y-11137524D01*
X13928333Y-11137524D02*
X13842619Y-11337524D01*
X14090238Y-11137524D02*
X14052143Y-11137524D01*
X14052143Y-11137524D02*
X14033095Y-11147048D01*
X14033095Y-11147048D02*
X14023572Y-11156571D01*
X14023572Y-11156571D02*
X14004524Y-11185143D01*
X14004524Y-11185143D02*
X13995000Y-11223238D01*
X13995000Y-11223238D02*
X13995000Y-11299428D01*
X13995000Y-11299428D02*
X14004524Y-11318476D01*
X14004524Y-11318476D02*
X14014048Y-11328000D01*
X14014048Y-11328000D02*
X14033095Y-11337524D01*
X14033095Y-11337524D02*
X14071191Y-11337524D01*
X14071191Y-11337524D02*
X14090238Y-11328000D01*
X14090238Y-11328000D02*
X14099762Y-11318476D01*
X14099762Y-11318476D02*
X14109286Y-11299428D01*
X14109286Y-11299428D02*
X14109286Y-11251809D01*
X14109286Y-11251809D02*
X14099762Y-11232762D01*
X14099762Y-11232762D02*
X14090238Y-11223238D01*
X14090238Y-11223238D02*
X14071191Y-11213714D01*
X14071191Y-11213714D02*
X14033095Y-11213714D01*
X14033095Y-11213714D02*
X14014048Y-11223238D01*
X14014048Y-11223238D02*
X14004524Y-11232762D01*
X14004524Y-11232762D02*
X13995000Y-11251809D01*
X14185476Y-11137524D02*
X14185476Y-11175619D01*
X14261667Y-11137524D02*
X14261667Y-11175619D01*
X14556905Y-11413714D02*
X14547381Y-11404190D01*
X14547381Y-11404190D02*
X14528334Y-11375619D01*
X14528334Y-11375619D02*
X14518810Y-11356571D01*
X14518810Y-11356571D02*
X14509286Y-11328000D01*
X14509286Y-11328000D02*
X14499762Y-11280381D01*
X14499762Y-11280381D02*
X14499762Y-11242286D01*
X14499762Y-11242286D02*
X14509286Y-11194667D01*
X14509286Y-11194667D02*
X14518810Y-11166095D01*
X14518810Y-11166095D02*
X14528334Y-11147048D01*
X14528334Y-11147048D02*
X14547381Y-11118476D01*
X14547381Y-11118476D02*
X14556905Y-11108952D01*
X14661667Y-11223238D02*
X14642619Y-11213714D01*
X14642619Y-11213714D02*
X14633095Y-11204190D01*
X14633095Y-11204190D02*
X14623572Y-11185143D01*
X14623572Y-11185143D02*
X14623572Y-11175619D01*
X14623572Y-11175619D02*
X14633095Y-11156571D01*
X14633095Y-11156571D02*
X14642619Y-11147048D01*
X14642619Y-11147048D02*
X14661667Y-11137524D01*
X14661667Y-11137524D02*
X14699762Y-11137524D01*
X14699762Y-11137524D02*
X14718810Y-11147048D01*
X14718810Y-11147048D02*
X14728334Y-11156571D01*
X14728334Y-11156571D02*
X14737857Y-11175619D01*
X14737857Y-11175619D02*
X14737857Y-11185143D01*
X14737857Y-11185143D02*
X14728334Y-11204190D01*
X14728334Y-11204190D02*
X14718810Y-11213714D01*
X14718810Y-11213714D02*
X14699762Y-11223238D01*
X14699762Y-11223238D02*
X14661667Y-11223238D01*
X14661667Y-11223238D02*
X14642619Y-11232762D01*
X14642619Y-11232762D02*
X14633095Y-11242286D01*
X14633095Y-11242286D02*
X14623572Y-11261333D01*
X14623572Y-11261333D02*
X14623572Y-11299428D01*
X14623572Y-11299428D02*
X14633095Y-11318476D01*
X14633095Y-11318476D02*
X14642619Y-11328000D01*
X14642619Y-11328000D02*
X14661667Y-11337524D01*
X14661667Y-11337524D02*
X14699762Y-11337524D01*
X14699762Y-11337524D02*
X14718810Y-11328000D01*
X14718810Y-11328000D02*
X14728334Y-11318476D01*
X14728334Y-11318476D02*
X14737857Y-11299428D01*
X14737857Y-11299428D02*
X14737857Y-11261333D01*
X14737857Y-11261333D02*
X14728334Y-11242286D01*
X14728334Y-11242286D02*
X14718810Y-11232762D01*
X14718810Y-11232762D02*
X14699762Y-11223238D01*
X14975953Y-11337524D02*
X14975953Y-11137524D01*
X15061667Y-11337524D02*
X15061667Y-11232762D01*
X15061667Y-11232762D02*
X15052143Y-11213714D01*
X15052143Y-11213714D02*
X15033096Y-11204190D01*
X15033096Y-11204190D02*
X15004524Y-11204190D01*
X15004524Y-11204190D02*
X14985476Y-11213714D01*
X14985476Y-11213714D02*
X14975953Y-11223238D01*
X15185476Y-11337524D02*
X15166429Y-11328000D01*
X15166429Y-11328000D02*
X15156905Y-11318476D01*
X15156905Y-11318476D02*
X15147381Y-11299428D01*
X15147381Y-11299428D02*
X15147381Y-11242286D01*
X15147381Y-11242286D02*
X15156905Y-11223238D01*
X15156905Y-11223238D02*
X15166429Y-11213714D01*
X15166429Y-11213714D02*
X15185476Y-11204190D01*
X15185476Y-11204190D02*
X15214048Y-11204190D01*
X15214048Y-11204190D02*
X15233096Y-11213714D01*
X15233096Y-11213714D02*
X15242619Y-11223238D01*
X15242619Y-11223238D02*
X15252143Y-11242286D01*
X15252143Y-11242286D02*
X15252143Y-11299428D01*
X15252143Y-11299428D02*
X15242619Y-11318476D01*
X15242619Y-11318476D02*
X15233096Y-11328000D01*
X15233096Y-11328000D02*
X15214048Y-11337524D01*
X15214048Y-11337524D02*
X15185476Y-11337524D01*
X15366429Y-11337524D02*
X15347381Y-11328000D01*
X15347381Y-11328000D02*
X15337857Y-11308952D01*
X15337857Y-11308952D02*
X15337857Y-11137524D01*
X15518810Y-11328000D02*
X15499762Y-11337524D01*
X15499762Y-11337524D02*
X15461667Y-11337524D01*
X15461667Y-11337524D02*
X15442619Y-11328000D01*
X15442619Y-11328000D02*
X15433096Y-11308952D01*
X15433096Y-11308952D02*
X15433096Y-11232762D01*
X15433096Y-11232762D02*
X15442619Y-11213714D01*
X15442619Y-11213714D02*
X15461667Y-11204190D01*
X15461667Y-11204190D02*
X15499762Y-11204190D01*
X15499762Y-11204190D02*
X15518810Y-11213714D01*
X15518810Y-11213714D02*
X15528334Y-11232762D01*
X15528334Y-11232762D02*
X15528334Y-11251809D01*
X15528334Y-11251809D02*
X15433096Y-11270857D01*
X15604524Y-11328000D02*
X15623572Y-11337524D01*
X15623572Y-11337524D02*
X15661667Y-11337524D01*
X15661667Y-11337524D02*
X15680715Y-11328000D01*
X15680715Y-11328000D02*
X15690238Y-11308952D01*
X15690238Y-11308952D02*
X15690238Y-11299428D01*
X15690238Y-11299428D02*
X15680715Y-11280381D01*
X15680715Y-11280381D02*
X15661667Y-11270857D01*
X15661667Y-11270857D02*
X15633096Y-11270857D01*
X15633096Y-11270857D02*
X15614048Y-11261333D01*
X15614048Y-11261333D02*
X15604524Y-11242286D01*
X15604524Y-11242286D02*
X15604524Y-11232762D01*
X15604524Y-11232762D02*
X15614048Y-11213714D01*
X15614048Y-11213714D02*
X15633096Y-11204190D01*
X15633096Y-11204190D02*
X15661667Y-11204190D01*
X15661667Y-11204190D02*
X15680715Y-11213714D01*
X15756905Y-11413714D02*
X15766429Y-11404190D01*
X15766429Y-11404190D02*
X15785477Y-11375619D01*
X15785477Y-11375619D02*
X15795000Y-11356571D01*
X15795000Y-11356571D02*
X15804524Y-11328000D01*
X15804524Y-11328000D02*
X15814048Y-11280381D01*
X15814048Y-11280381D02*
X15814048Y-11242286D01*
X15814048Y-11242286D02*
X15804524Y-11194667D01*
X15804524Y-11194667D02*
X15795000Y-11166095D01*
X15795000Y-11166095D02*
X15785477Y-11147048D01*
X15785477Y-11147048D02*
X15766429Y-11118476D01*
X15766429Y-11118476D02*
X15756905Y-11108952D01*
D13*
X10995000Y-11509000D02*
G75*
G03*
X10995000Y-11509000I-47500J0D01*
G01*
D11*
X11280714Y-11401524D02*
X11299762Y-11401524D01*
X11299762Y-11401524D02*
X11318809Y-11411048D01*
X11318809Y-11411048D02*
X11328333Y-11420571D01*
X11328333Y-11420571D02*
X11337857Y-11439619D01*
X11337857Y-11439619D02*
X11347381Y-11477714D01*
X11347381Y-11477714D02*
X11347381Y-11525333D01*
X11347381Y-11525333D02*
X11337857Y-11563428D01*
X11337857Y-11563428D02*
X11328333Y-11582476D01*
X11328333Y-11582476D02*
X11318809Y-11592000D01*
X11318809Y-11592000D02*
X11299762Y-11601524D01*
X11299762Y-11601524D02*
X11280714Y-11601524D01*
X11280714Y-11601524D02*
X11261667Y-11592000D01*
X11261667Y-11592000D02*
X11252143Y-11582476D01*
X11252143Y-11582476D02*
X11242619Y-11563428D01*
X11242619Y-11563428D02*
X11233095Y-11525333D01*
X11233095Y-11525333D02*
X11233095Y-11477714D01*
X11233095Y-11477714D02*
X11242619Y-11439619D01*
X11242619Y-11439619D02*
X11252143Y-11420571D01*
X11252143Y-11420571D02*
X11261667Y-11411048D01*
X11261667Y-11411048D02*
X11280714Y-11401524D01*
X11433095Y-11582476D02*
X11442619Y-11592000D01*
X11442619Y-11592000D02*
X11433095Y-11601524D01*
X11433095Y-11601524D02*
X11423571Y-11592000D01*
X11423571Y-11592000D02*
X11433095Y-11582476D01*
X11433095Y-11582476D02*
X11433095Y-11601524D01*
X11537857Y-11601524D02*
X11575952Y-11601524D01*
X11575952Y-11601524D02*
X11595000Y-11592000D01*
X11595000Y-11592000D02*
X11604524Y-11582476D01*
X11604524Y-11582476D02*
X11623571Y-11553905D01*
X11623571Y-11553905D02*
X11633095Y-11515809D01*
X11633095Y-11515809D02*
X11633095Y-11439619D01*
X11633095Y-11439619D02*
X11623571Y-11420571D01*
X11623571Y-11420571D02*
X11614048Y-11411048D01*
X11614048Y-11411048D02*
X11595000Y-11401524D01*
X11595000Y-11401524D02*
X11556905Y-11401524D01*
X11556905Y-11401524D02*
X11537857Y-11411048D01*
X11537857Y-11411048D02*
X11528333Y-11420571D01*
X11528333Y-11420571D02*
X11518809Y-11439619D01*
X11518809Y-11439619D02*
X11518809Y-11487238D01*
X11518809Y-11487238D02*
X11528333Y-11506286D01*
X11528333Y-11506286D02*
X11537857Y-11515809D01*
X11537857Y-11515809D02*
X11556905Y-11525333D01*
X11556905Y-11525333D02*
X11595000Y-11525333D01*
X11595000Y-11525333D02*
X11614048Y-11515809D01*
X11614048Y-11515809D02*
X11623571Y-11506286D01*
X11623571Y-11506286D02*
X11633095Y-11487238D01*
X11814048Y-11401524D02*
X11718809Y-11401524D01*
X11718809Y-11401524D02*
X11709286Y-11496762D01*
X11709286Y-11496762D02*
X11718809Y-11487238D01*
X11718809Y-11487238D02*
X11737857Y-11477714D01*
X11737857Y-11477714D02*
X11785476Y-11477714D01*
X11785476Y-11477714D02*
X11804524Y-11487238D01*
X11804524Y-11487238D02*
X11814048Y-11496762D01*
X11814048Y-11496762D02*
X11823571Y-11515809D01*
X11823571Y-11515809D02*
X11823571Y-11563428D01*
X11823571Y-11563428D02*
X11814048Y-11582476D01*
X11814048Y-11582476D02*
X11804524Y-11592000D01*
X11804524Y-11592000D02*
X11785476Y-11601524D01*
X11785476Y-11601524D02*
X11737857Y-11601524D01*
X11737857Y-11601524D02*
X11718809Y-11592000D01*
X11718809Y-11592000D02*
X11709286Y-11582476D01*
X11947381Y-11401524D02*
X11966429Y-11401524D01*
X11966429Y-11401524D02*
X11985476Y-11411048D01*
X11985476Y-11411048D02*
X11995000Y-11420571D01*
X11995000Y-11420571D02*
X12004524Y-11439619D01*
X12004524Y-11439619D02*
X12014048Y-11477714D01*
X12014048Y-11477714D02*
X12014048Y-11525333D01*
X12014048Y-11525333D02*
X12004524Y-11563428D01*
X12004524Y-11563428D02*
X11995000Y-11582476D01*
X11995000Y-11582476D02*
X11985476Y-11592000D01*
X11985476Y-11592000D02*
X11966429Y-11601524D01*
X11966429Y-11601524D02*
X11947381Y-11601524D01*
X11947381Y-11601524D02*
X11928333Y-11592000D01*
X11928333Y-11592000D02*
X11918809Y-11582476D01*
X11918809Y-11582476D02*
X11909286Y-11563428D01*
X11909286Y-11563428D02*
X11899762Y-11525333D01*
X11899762Y-11525333D02*
X11899762Y-11477714D01*
X11899762Y-11477714D02*
X11909286Y-11439619D01*
X11909286Y-11439619D02*
X11918809Y-11420571D01*
X11918809Y-11420571D02*
X11928333Y-11411048D01*
X11928333Y-11411048D02*
X11947381Y-11401524D01*
X12099762Y-11601524D02*
X12099762Y-11468190D01*
X12099762Y-11487238D02*
X12109286Y-11477714D01*
X12109286Y-11477714D02*
X12128333Y-11468190D01*
X12128333Y-11468190D02*
X12156905Y-11468190D01*
X12156905Y-11468190D02*
X12175952Y-11477714D01*
X12175952Y-11477714D02*
X12185476Y-11496762D01*
X12185476Y-11496762D02*
X12185476Y-11601524D01*
X12185476Y-11496762D02*
X12195000Y-11477714D01*
X12195000Y-11477714D02*
X12214048Y-11468190D01*
X12214048Y-11468190D02*
X12242619Y-11468190D01*
X12242619Y-11468190D02*
X12261667Y-11477714D01*
X12261667Y-11477714D02*
X12271190Y-11496762D01*
X12271190Y-11496762D02*
X12271190Y-11601524D01*
X12366429Y-11601524D02*
X12366429Y-11468190D01*
X12366429Y-11487238D02*
X12375952Y-11477714D01*
X12375952Y-11477714D02*
X12395000Y-11468190D01*
X12395000Y-11468190D02*
X12423571Y-11468190D01*
X12423571Y-11468190D02*
X12442619Y-11477714D01*
X12442619Y-11477714D02*
X12452143Y-11496762D01*
X12452143Y-11496762D02*
X12452143Y-11601524D01*
X12452143Y-11496762D02*
X12461667Y-11477714D01*
X12461667Y-11477714D02*
X12480714Y-11468190D01*
X12480714Y-11468190D02*
X12509286Y-11468190D01*
X12509286Y-11468190D02*
X12528333Y-11477714D01*
X12528333Y-11477714D02*
X12537857Y-11496762D01*
X12537857Y-11496762D02*
X12537857Y-11601524D01*
X12928333Y-11392000D02*
X12756905Y-11649143D01*
X13185476Y-11401524D02*
X13204524Y-11401524D01*
X13204524Y-11401524D02*
X13223572Y-11411048D01*
X13223572Y-11411048D02*
X13233095Y-11420571D01*
X13233095Y-11420571D02*
X13242619Y-11439619D01*
X13242619Y-11439619D02*
X13252143Y-11477714D01*
X13252143Y-11477714D02*
X13252143Y-11525333D01*
X13252143Y-11525333D02*
X13242619Y-11563428D01*
X13242619Y-11563428D02*
X13233095Y-11582476D01*
X13233095Y-11582476D02*
X13223572Y-11592000D01*
X13223572Y-11592000D02*
X13204524Y-11601524D01*
X13204524Y-11601524D02*
X13185476Y-11601524D01*
X13185476Y-11601524D02*
X13166429Y-11592000D01*
X13166429Y-11592000D02*
X13156905Y-11582476D01*
X13156905Y-11582476D02*
X13147381Y-11563428D01*
X13147381Y-11563428D02*
X13137857Y-11525333D01*
X13137857Y-11525333D02*
X13137857Y-11477714D01*
X13137857Y-11477714D02*
X13147381Y-11439619D01*
X13147381Y-11439619D02*
X13156905Y-11420571D01*
X13156905Y-11420571D02*
X13166429Y-11411048D01*
X13166429Y-11411048D02*
X13185476Y-11401524D01*
X13337857Y-11582476D02*
X13347381Y-11592000D01*
X13347381Y-11592000D02*
X13337857Y-11601524D01*
X13337857Y-11601524D02*
X13328333Y-11592000D01*
X13328333Y-11592000D02*
X13337857Y-11582476D01*
X13337857Y-11582476D02*
X13337857Y-11601524D01*
X13471191Y-11401524D02*
X13490238Y-11401524D01*
X13490238Y-11401524D02*
X13509286Y-11411048D01*
X13509286Y-11411048D02*
X13518810Y-11420571D01*
X13518810Y-11420571D02*
X13528333Y-11439619D01*
X13528333Y-11439619D02*
X13537857Y-11477714D01*
X13537857Y-11477714D02*
X13537857Y-11525333D01*
X13537857Y-11525333D02*
X13528333Y-11563428D01*
X13528333Y-11563428D02*
X13518810Y-11582476D01*
X13518810Y-11582476D02*
X13509286Y-11592000D01*
X13509286Y-11592000D02*
X13490238Y-11601524D01*
X13490238Y-11601524D02*
X13471191Y-11601524D01*
X13471191Y-11601524D02*
X13452143Y-11592000D01*
X13452143Y-11592000D02*
X13442619Y-11582476D01*
X13442619Y-11582476D02*
X13433095Y-11563428D01*
X13433095Y-11563428D02*
X13423572Y-11525333D01*
X13423572Y-11525333D02*
X13423572Y-11477714D01*
X13423572Y-11477714D02*
X13433095Y-11439619D01*
X13433095Y-11439619D02*
X13442619Y-11420571D01*
X13442619Y-11420571D02*
X13452143Y-11411048D01*
X13452143Y-11411048D02*
X13471191Y-11401524D01*
X13604524Y-11401524D02*
X13728333Y-11401524D01*
X13728333Y-11401524D02*
X13661667Y-11477714D01*
X13661667Y-11477714D02*
X13690238Y-11477714D01*
X13690238Y-11477714D02*
X13709286Y-11487238D01*
X13709286Y-11487238D02*
X13718810Y-11496762D01*
X13718810Y-11496762D02*
X13728333Y-11515809D01*
X13728333Y-11515809D02*
X13728333Y-11563428D01*
X13728333Y-11563428D02*
X13718810Y-11582476D01*
X13718810Y-11582476D02*
X13709286Y-11592000D01*
X13709286Y-11592000D02*
X13690238Y-11601524D01*
X13690238Y-11601524D02*
X13633095Y-11601524D01*
X13633095Y-11601524D02*
X13614048Y-11592000D01*
X13614048Y-11592000D02*
X13604524Y-11582476D01*
X13795000Y-11401524D02*
X13928333Y-11401524D01*
X13928333Y-11401524D02*
X13842619Y-11601524D01*
X14090238Y-11468190D02*
X14090238Y-11601524D01*
X14042619Y-11392000D02*
X13995000Y-11534857D01*
X13995000Y-11534857D02*
X14118810Y-11534857D01*
X14185476Y-11401524D02*
X14185476Y-11439619D01*
X14261667Y-11401524D02*
X14261667Y-11439619D01*
X14556905Y-11677714D02*
X14547381Y-11668190D01*
X14547381Y-11668190D02*
X14528334Y-11639619D01*
X14528334Y-11639619D02*
X14518810Y-11620571D01*
X14518810Y-11620571D02*
X14509286Y-11592000D01*
X14509286Y-11592000D02*
X14499762Y-11544381D01*
X14499762Y-11544381D02*
X14499762Y-11506286D01*
X14499762Y-11506286D02*
X14509286Y-11458667D01*
X14509286Y-11458667D02*
X14518810Y-11430095D01*
X14518810Y-11430095D02*
X14528334Y-11411048D01*
X14528334Y-11411048D02*
X14547381Y-11382476D01*
X14547381Y-11382476D02*
X14556905Y-11372952D01*
X14737857Y-11601524D02*
X14623572Y-11601524D01*
X14680714Y-11601524D02*
X14680714Y-11401524D01*
X14680714Y-11401524D02*
X14661667Y-11430095D01*
X14661667Y-11430095D02*
X14642619Y-11449143D01*
X14642619Y-11449143D02*
X14623572Y-11458667D01*
X14861667Y-11401524D02*
X14880715Y-11401524D01*
X14880715Y-11401524D02*
X14899762Y-11411048D01*
X14899762Y-11411048D02*
X14909286Y-11420571D01*
X14909286Y-11420571D02*
X14918810Y-11439619D01*
X14918810Y-11439619D02*
X14928334Y-11477714D01*
X14928334Y-11477714D02*
X14928334Y-11525333D01*
X14928334Y-11525333D02*
X14918810Y-11563428D01*
X14918810Y-11563428D02*
X14909286Y-11582476D01*
X14909286Y-11582476D02*
X14899762Y-11592000D01*
X14899762Y-11592000D02*
X14880715Y-11601524D01*
X14880715Y-11601524D02*
X14861667Y-11601524D01*
X14861667Y-11601524D02*
X14842619Y-11592000D01*
X14842619Y-11592000D02*
X14833095Y-11582476D01*
X14833095Y-11582476D02*
X14823572Y-11563428D01*
X14823572Y-11563428D02*
X14814048Y-11525333D01*
X14814048Y-11525333D02*
X14814048Y-11477714D01*
X14814048Y-11477714D02*
X14823572Y-11439619D01*
X14823572Y-11439619D02*
X14833095Y-11420571D01*
X14833095Y-11420571D02*
X14842619Y-11411048D01*
X14842619Y-11411048D02*
X14861667Y-11401524D01*
X15166429Y-11601524D02*
X15166429Y-11401524D01*
X15252143Y-11601524D02*
X15252143Y-11496762D01*
X15252143Y-11496762D02*
X15242619Y-11477714D01*
X15242619Y-11477714D02*
X15223572Y-11468190D01*
X15223572Y-11468190D02*
X15195000Y-11468190D01*
X15195000Y-11468190D02*
X15175953Y-11477714D01*
X15175953Y-11477714D02*
X15166429Y-11487238D01*
X15375953Y-11601524D02*
X15356905Y-11592000D01*
X15356905Y-11592000D02*
X15347381Y-11582476D01*
X15347381Y-11582476D02*
X15337857Y-11563428D01*
X15337857Y-11563428D02*
X15337857Y-11506286D01*
X15337857Y-11506286D02*
X15347381Y-11487238D01*
X15347381Y-11487238D02*
X15356905Y-11477714D01*
X15356905Y-11477714D02*
X15375953Y-11468190D01*
X15375953Y-11468190D02*
X15404524Y-11468190D01*
X15404524Y-11468190D02*
X15423572Y-11477714D01*
X15423572Y-11477714D02*
X15433096Y-11487238D01*
X15433096Y-11487238D02*
X15442619Y-11506286D01*
X15442619Y-11506286D02*
X15442619Y-11563428D01*
X15442619Y-11563428D02*
X15433096Y-11582476D01*
X15433096Y-11582476D02*
X15423572Y-11592000D01*
X15423572Y-11592000D02*
X15404524Y-11601524D01*
X15404524Y-11601524D02*
X15375953Y-11601524D01*
X15556905Y-11601524D02*
X15537857Y-11592000D01*
X15537857Y-11592000D02*
X15528334Y-11572952D01*
X15528334Y-11572952D02*
X15528334Y-11401524D01*
X15709286Y-11592000D02*
X15690238Y-11601524D01*
X15690238Y-11601524D02*
X15652143Y-11601524D01*
X15652143Y-11601524D02*
X15633096Y-11592000D01*
X15633096Y-11592000D02*
X15623572Y-11572952D01*
X15623572Y-11572952D02*
X15623572Y-11496762D01*
X15623572Y-11496762D02*
X15633096Y-11477714D01*
X15633096Y-11477714D02*
X15652143Y-11468190D01*
X15652143Y-11468190D02*
X15690238Y-11468190D01*
X15690238Y-11468190D02*
X15709286Y-11477714D01*
X15709286Y-11477714D02*
X15718810Y-11496762D01*
X15718810Y-11496762D02*
X15718810Y-11515809D01*
X15718810Y-11515809D02*
X15623572Y-11534857D01*
X15795000Y-11592000D02*
X15814048Y-11601524D01*
X15814048Y-11601524D02*
X15852143Y-11601524D01*
X15852143Y-11601524D02*
X15871191Y-11592000D01*
X15871191Y-11592000D02*
X15880715Y-11572952D01*
X15880715Y-11572952D02*
X15880715Y-11563428D01*
X15880715Y-11563428D02*
X15871191Y-11544381D01*
X15871191Y-11544381D02*
X15852143Y-11534857D01*
X15852143Y-11534857D02*
X15823572Y-11534857D01*
X15823572Y-11534857D02*
X15804524Y-11525333D01*
X15804524Y-11525333D02*
X15795000Y-11506286D01*
X15795000Y-11506286D02*
X15795000Y-11496762D01*
X15795000Y-11496762D02*
X15804524Y-11477714D01*
X15804524Y-11477714D02*
X15823572Y-11468190D01*
X15823572Y-11468190D02*
X15852143Y-11468190D01*
X15852143Y-11468190D02*
X15871191Y-11477714D01*
X15947381Y-11677714D02*
X15956905Y-11668190D01*
X15956905Y-11668190D02*
X15975953Y-11639619D01*
X15975953Y-11639619D02*
X15985477Y-11620571D01*
X15985477Y-11620571D02*
X15995000Y-11592000D01*
X15995000Y-11592000D02*
X16004524Y-11544381D01*
X16004524Y-11544381D02*
X16004524Y-11506286D01*
X16004524Y-11506286D02*
X15995000Y-11458667D01*
X15995000Y-11458667D02*
X15985477Y-11430095D01*
X15985477Y-11430095D02*
X15975953Y-11411048D01*
X15975953Y-11411048D02*
X15956905Y-11382476D01*
X15956905Y-11382476D02*
X15947381Y-11372952D01*
D10*
X10945000Y-11723000D02*
X10945000Y-11823000D01*
X10895000Y-11773000D02*
X10995000Y-11773000D01*
D11*
X11347381Y-11865524D02*
X11233095Y-11865524D01*
X11290238Y-11865524D02*
X11290238Y-11665524D01*
X11290238Y-11665524D02*
X11271190Y-11694095D01*
X11271190Y-11694095D02*
X11252143Y-11713143D01*
X11252143Y-11713143D02*
X11233095Y-11722667D01*
X11433095Y-11846476D02*
X11442619Y-11856000D01*
X11442619Y-11856000D02*
X11433095Y-11865524D01*
X11433095Y-11865524D02*
X11423571Y-11856000D01*
X11423571Y-11856000D02*
X11433095Y-11846476D01*
X11433095Y-11846476D02*
X11433095Y-11865524D01*
X11566428Y-11665524D02*
X11585476Y-11665524D01*
X11585476Y-11665524D02*
X11604524Y-11675048D01*
X11604524Y-11675048D02*
X11614048Y-11684571D01*
X11614048Y-11684571D02*
X11623571Y-11703619D01*
X11623571Y-11703619D02*
X11633095Y-11741714D01*
X11633095Y-11741714D02*
X11633095Y-11789333D01*
X11633095Y-11789333D02*
X11623571Y-11827428D01*
X11623571Y-11827428D02*
X11614048Y-11846476D01*
X11614048Y-11846476D02*
X11604524Y-11856000D01*
X11604524Y-11856000D02*
X11585476Y-11865524D01*
X11585476Y-11865524D02*
X11566428Y-11865524D01*
X11566428Y-11865524D02*
X11547381Y-11856000D01*
X11547381Y-11856000D02*
X11537857Y-11846476D01*
X11537857Y-11846476D02*
X11528333Y-11827428D01*
X11528333Y-11827428D02*
X11518809Y-11789333D01*
X11518809Y-11789333D02*
X11518809Y-11741714D01*
X11518809Y-11741714D02*
X11528333Y-11703619D01*
X11528333Y-11703619D02*
X11537857Y-11684571D01*
X11537857Y-11684571D02*
X11547381Y-11675048D01*
X11547381Y-11675048D02*
X11566428Y-11665524D01*
X11756905Y-11665524D02*
X11775952Y-11665524D01*
X11775952Y-11665524D02*
X11795000Y-11675048D01*
X11795000Y-11675048D02*
X11804524Y-11684571D01*
X11804524Y-11684571D02*
X11814048Y-11703619D01*
X11814048Y-11703619D02*
X11823571Y-11741714D01*
X11823571Y-11741714D02*
X11823571Y-11789333D01*
X11823571Y-11789333D02*
X11814048Y-11827428D01*
X11814048Y-11827428D02*
X11804524Y-11846476D01*
X11804524Y-11846476D02*
X11795000Y-11856000D01*
X11795000Y-11856000D02*
X11775952Y-11865524D01*
X11775952Y-11865524D02*
X11756905Y-11865524D01*
X11756905Y-11865524D02*
X11737857Y-11856000D01*
X11737857Y-11856000D02*
X11728333Y-11846476D01*
X11728333Y-11846476D02*
X11718809Y-11827428D01*
X11718809Y-11827428D02*
X11709286Y-11789333D01*
X11709286Y-11789333D02*
X11709286Y-11741714D01*
X11709286Y-11741714D02*
X11718809Y-11703619D01*
X11718809Y-11703619D02*
X11728333Y-11684571D01*
X11728333Y-11684571D02*
X11737857Y-11675048D01*
X11737857Y-11675048D02*
X11756905Y-11665524D01*
X11947381Y-11665524D02*
X11966429Y-11665524D01*
X11966429Y-11665524D02*
X11985476Y-11675048D01*
X11985476Y-11675048D02*
X11995000Y-11684571D01*
X11995000Y-11684571D02*
X12004524Y-11703619D01*
X12004524Y-11703619D02*
X12014048Y-11741714D01*
X12014048Y-11741714D02*
X12014048Y-11789333D01*
X12014048Y-11789333D02*
X12004524Y-11827428D01*
X12004524Y-11827428D02*
X11995000Y-11846476D01*
X11995000Y-11846476D02*
X11985476Y-11856000D01*
X11985476Y-11856000D02*
X11966429Y-11865524D01*
X11966429Y-11865524D02*
X11947381Y-11865524D01*
X11947381Y-11865524D02*
X11928333Y-11856000D01*
X11928333Y-11856000D02*
X11918809Y-11846476D01*
X11918809Y-11846476D02*
X11909286Y-11827428D01*
X11909286Y-11827428D02*
X11899762Y-11789333D01*
X11899762Y-11789333D02*
X11899762Y-11741714D01*
X11899762Y-11741714D02*
X11909286Y-11703619D01*
X11909286Y-11703619D02*
X11918809Y-11684571D01*
X11918809Y-11684571D02*
X11928333Y-11675048D01*
X11928333Y-11675048D02*
X11947381Y-11665524D01*
X12099762Y-11865524D02*
X12099762Y-11732190D01*
X12099762Y-11751238D02*
X12109286Y-11741714D01*
X12109286Y-11741714D02*
X12128333Y-11732190D01*
X12128333Y-11732190D02*
X12156905Y-11732190D01*
X12156905Y-11732190D02*
X12175952Y-11741714D01*
X12175952Y-11741714D02*
X12185476Y-11760762D01*
X12185476Y-11760762D02*
X12185476Y-11865524D01*
X12185476Y-11760762D02*
X12195000Y-11741714D01*
X12195000Y-11741714D02*
X12214048Y-11732190D01*
X12214048Y-11732190D02*
X12242619Y-11732190D01*
X12242619Y-11732190D02*
X12261667Y-11741714D01*
X12261667Y-11741714D02*
X12271190Y-11760762D01*
X12271190Y-11760762D02*
X12271190Y-11865524D01*
X12366429Y-11865524D02*
X12366429Y-11732190D01*
X12366429Y-11751238D02*
X12375952Y-11741714D01*
X12375952Y-11741714D02*
X12395000Y-11732190D01*
X12395000Y-11732190D02*
X12423571Y-11732190D01*
X12423571Y-11732190D02*
X12442619Y-11741714D01*
X12442619Y-11741714D02*
X12452143Y-11760762D01*
X12452143Y-11760762D02*
X12452143Y-11865524D01*
X12452143Y-11760762D02*
X12461667Y-11741714D01*
X12461667Y-11741714D02*
X12480714Y-11732190D01*
X12480714Y-11732190D02*
X12509286Y-11732190D01*
X12509286Y-11732190D02*
X12528333Y-11741714D01*
X12528333Y-11741714D02*
X12537857Y-11760762D01*
X12537857Y-11760762D02*
X12537857Y-11865524D01*
X12928333Y-11656000D02*
X12756905Y-11913143D01*
X13185476Y-11665524D02*
X13204524Y-11665524D01*
X13204524Y-11665524D02*
X13223572Y-11675048D01*
X13223572Y-11675048D02*
X13233095Y-11684571D01*
X13233095Y-11684571D02*
X13242619Y-11703619D01*
X13242619Y-11703619D02*
X13252143Y-11741714D01*
X13252143Y-11741714D02*
X13252143Y-11789333D01*
X13252143Y-11789333D02*
X13242619Y-11827428D01*
X13242619Y-11827428D02*
X13233095Y-11846476D01*
X13233095Y-11846476D02*
X13223572Y-11856000D01*
X13223572Y-11856000D02*
X13204524Y-11865524D01*
X13204524Y-11865524D02*
X13185476Y-11865524D01*
X13185476Y-11865524D02*
X13166429Y-11856000D01*
X13166429Y-11856000D02*
X13156905Y-11846476D01*
X13156905Y-11846476D02*
X13147381Y-11827428D01*
X13147381Y-11827428D02*
X13137857Y-11789333D01*
X13137857Y-11789333D02*
X13137857Y-11741714D01*
X13137857Y-11741714D02*
X13147381Y-11703619D01*
X13147381Y-11703619D02*
X13156905Y-11684571D01*
X13156905Y-11684571D02*
X13166429Y-11675048D01*
X13166429Y-11675048D02*
X13185476Y-11665524D01*
X13337857Y-11846476D02*
X13347381Y-11856000D01*
X13347381Y-11856000D02*
X13337857Y-11865524D01*
X13337857Y-11865524D02*
X13328333Y-11856000D01*
X13328333Y-11856000D02*
X13337857Y-11846476D01*
X13337857Y-11846476D02*
X13337857Y-11865524D01*
X13471191Y-11665524D02*
X13490238Y-11665524D01*
X13490238Y-11665524D02*
X13509286Y-11675048D01*
X13509286Y-11675048D02*
X13518810Y-11684571D01*
X13518810Y-11684571D02*
X13528333Y-11703619D01*
X13528333Y-11703619D02*
X13537857Y-11741714D01*
X13537857Y-11741714D02*
X13537857Y-11789333D01*
X13537857Y-11789333D02*
X13528333Y-11827428D01*
X13528333Y-11827428D02*
X13518810Y-11846476D01*
X13518810Y-11846476D02*
X13509286Y-11856000D01*
X13509286Y-11856000D02*
X13490238Y-11865524D01*
X13490238Y-11865524D02*
X13471191Y-11865524D01*
X13471191Y-11865524D02*
X13452143Y-11856000D01*
X13452143Y-11856000D02*
X13442619Y-11846476D01*
X13442619Y-11846476D02*
X13433095Y-11827428D01*
X13433095Y-11827428D02*
X13423572Y-11789333D01*
X13423572Y-11789333D02*
X13423572Y-11741714D01*
X13423572Y-11741714D02*
X13433095Y-11703619D01*
X13433095Y-11703619D02*
X13442619Y-11684571D01*
X13442619Y-11684571D02*
X13452143Y-11675048D01*
X13452143Y-11675048D02*
X13471191Y-11665524D01*
X13604524Y-11665524D02*
X13728333Y-11665524D01*
X13728333Y-11665524D02*
X13661667Y-11741714D01*
X13661667Y-11741714D02*
X13690238Y-11741714D01*
X13690238Y-11741714D02*
X13709286Y-11751238D01*
X13709286Y-11751238D02*
X13718810Y-11760762D01*
X13718810Y-11760762D02*
X13728333Y-11779809D01*
X13728333Y-11779809D02*
X13728333Y-11827428D01*
X13728333Y-11827428D02*
X13718810Y-11846476D01*
X13718810Y-11846476D02*
X13709286Y-11856000D01*
X13709286Y-11856000D02*
X13690238Y-11865524D01*
X13690238Y-11865524D02*
X13633095Y-11865524D01*
X13633095Y-11865524D02*
X13614048Y-11856000D01*
X13614048Y-11856000D02*
X13604524Y-11846476D01*
X13823572Y-11865524D02*
X13861667Y-11865524D01*
X13861667Y-11865524D02*
X13880714Y-11856000D01*
X13880714Y-11856000D02*
X13890238Y-11846476D01*
X13890238Y-11846476D02*
X13909286Y-11817905D01*
X13909286Y-11817905D02*
X13918810Y-11779809D01*
X13918810Y-11779809D02*
X13918810Y-11703619D01*
X13918810Y-11703619D02*
X13909286Y-11684571D01*
X13909286Y-11684571D02*
X13899762Y-11675048D01*
X13899762Y-11675048D02*
X13880714Y-11665524D01*
X13880714Y-11665524D02*
X13842619Y-11665524D01*
X13842619Y-11665524D02*
X13823572Y-11675048D01*
X13823572Y-11675048D02*
X13814048Y-11684571D01*
X13814048Y-11684571D02*
X13804524Y-11703619D01*
X13804524Y-11703619D02*
X13804524Y-11751238D01*
X13804524Y-11751238D02*
X13814048Y-11770286D01*
X13814048Y-11770286D02*
X13823572Y-11779809D01*
X13823572Y-11779809D02*
X13842619Y-11789333D01*
X13842619Y-11789333D02*
X13880714Y-11789333D01*
X13880714Y-11789333D02*
X13899762Y-11779809D01*
X13899762Y-11779809D02*
X13909286Y-11770286D01*
X13909286Y-11770286D02*
X13918810Y-11751238D01*
X14090238Y-11732190D02*
X14090238Y-11865524D01*
X14042619Y-11656000D02*
X13995000Y-11798857D01*
X13995000Y-11798857D02*
X14118810Y-11798857D01*
X14185476Y-11665524D02*
X14185476Y-11703619D01*
X14261667Y-11665524D02*
X14261667Y-11703619D01*
X14556905Y-11941714D02*
X14547381Y-11932190D01*
X14547381Y-11932190D02*
X14528334Y-11903619D01*
X14528334Y-11903619D02*
X14518810Y-11884571D01*
X14518810Y-11884571D02*
X14509286Y-11856000D01*
X14509286Y-11856000D02*
X14499762Y-11808381D01*
X14499762Y-11808381D02*
X14499762Y-11770286D01*
X14499762Y-11770286D02*
X14509286Y-11722667D01*
X14509286Y-11722667D02*
X14518810Y-11694095D01*
X14518810Y-11694095D02*
X14528334Y-11675048D01*
X14528334Y-11675048D02*
X14547381Y-11646476D01*
X14547381Y-11646476D02*
X14556905Y-11636952D01*
X14614048Y-11665524D02*
X14737857Y-11665524D01*
X14737857Y-11665524D02*
X14671191Y-11741714D01*
X14671191Y-11741714D02*
X14699762Y-11741714D01*
X14699762Y-11741714D02*
X14718810Y-11751238D01*
X14718810Y-11751238D02*
X14728334Y-11760762D01*
X14728334Y-11760762D02*
X14737857Y-11779809D01*
X14737857Y-11779809D02*
X14737857Y-11827428D01*
X14737857Y-11827428D02*
X14728334Y-11846476D01*
X14728334Y-11846476D02*
X14718810Y-11856000D01*
X14718810Y-11856000D02*
X14699762Y-11865524D01*
X14699762Y-11865524D02*
X14642619Y-11865524D01*
X14642619Y-11865524D02*
X14623572Y-11856000D01*
X14623572Y-11856000D02*
X14614048Y-11846476D01*
X14814048Y-11684571D02*
X14823572Y-11675048D01*
X14823572Y-11675048D02*
X14842619Y-11665524D01*
X14842619Y-11665524D02*
X14890238Y-11665524D01*
X14890238Y-11665524D02*
X14909286Y-11675048D01*
X14909286Y-11675048D02*
X14918810Y-11684571D01*
X14918810Y-11684571D02*
X14928334Y-11703619D01*
X14928334Y-11703619D02*
X14928334Y-11722667D01*
X14928334Y-11722667D02*
X14918810Y-11751238D01*
X14918810Y-11751238D02*
X14804524Y-11865524D01*
X14804524Y-11865524D02*
X14928334Y-11865524D01*
X15166429Y-11865524D02*
X15166429Y-11665524D01*
X15252143Y-11865524D02*
X15252143Y-11760762D01*
X15252143Y-11760762D02*
X15242619Y-11741714D01*
X15242619Y-11741714D02*
X15223572Y-11732190D01*
X15223572Y-11732190D02*
X15195000Y-11732190D01*
X15195000Y-11732190D02*
X15175953Y-11741714D01*
X15175953Y-11741714D02*
X15166429Y-11751238D01*
X15375953Y-11865524D02*
X15356905Y-11856000D01*
X15356905Y-11856000D02*
X15347381Y-11846476D01*
X15347381Y-11846476D02*
X15337857Y-11827428D01*
X15337857Y-11827428D02*
X15337857Y-11770286D01*
X15337857Y-11770286D02*
X15347381Y-11751238D01*
X15347381Y-11751238D02*
X15356905Y-11741714D01*
X15356905Y-11741714D02*
X15375953Y-11732190D01*
X15375953Y-11732190D02*
X15404524Y-11732190D01*
X15404524Y-11732190D02*
X15423572Y-11741714D01*
X15423572Y-11741714D02*
X15433096Y-11751238D01*
X15433096Y-11751238D02*
X15442619Y-11770286D01*
X15442619Y-11770286D02*
X15442619Y-11827428D01*
X15442619Y-11827428D02*
X15433096Y-11846476D01*
X15433096Y-11846476D02*
X15423572Y-11856000D01*
X15423572Y-11856000D02*
X15404524Y-11865524D01*
X15404524Y-11865524D02*
X15375953Y-11865524D01*
X15556905Y-11865524D02*
X15537857Y-11856000D01*
X15537857Y-11856000D02*
X15528334Y-11836952D01*
X15528334Y-11836952D02*
X15528334Y-11665524D01*
X15709286Y-11856000D02*
X15690238Y-11865524D01*
X15690238Y-11865524D02*
X15652143Y-11865524D01*
X15652143Y-11865524D02*
X15633096Y-11856000D01*
X15633096Y-11856000D02*
X15623572Y-11836952D01*
X15623572Y-11836952D02*
X15623572Y-11760762D01*
X15623572Y-11760762D02*
X15633096Y-11741714D01*
X15633096Y-11741714D02*
X15652143Y-11732190D01*
X15652143Y-11732190D02*
X15690238Y-11732190D01*
X15690238Y-11732190D02*
X15709286Y-11741714D01*
X15709286Y-11741714D02*
X15718810Y-11760762D01*
X15718810Y-11760762D02*
X15718810Y-11779809D01*
X15718810Y-11779809D02*
X15623572Y-11798857D01*
X15795000Y-11856000D02*
X15814048Y-11865524D01*
X15814048Y-11865524D02*
X15852143Y-11865524D01*
X15852143Y-11865524D02*
X15871191Y-11856000D01*
X15871191Y-11856000D02*
X15880715Y-11836952D01*
X15880715Y-11836952D02*
X15880715Y-11827428D01*
X15880715Y-11827428D02*
X15871191Y-11808381D01*
X15871191Y-11808381D02*
X15852143Y-11798857D01*
X15852143Y-11798857D02*
X15823572Y-11798857D01*
X15823572Y-11798857D02*
X15804524Y-11789333D01*
X15804524Y-11789333D02*
X15795000Y-11770286D01*
X15795000Y-11770286D02*
X15795000Y-11760762D01*
X15795000Y-11760762D02*
X15804524Y-11741714D01*
X15804524Y-11741714D02*
X15823572Y-11732190D01*
X15823572Y-11732190D02*
X15852143Y-11732190D01*
X15852143Y-11732190D02*
X15871191Y-11741714D01*
X15947381Y-11941714D02*
X15956905Y-11932190D01*
X15956905Y-11932190D02*
X15975953Y-11903619D01*
X15975953Y-11903619D02*
X15985477Y-11884571D01*
X15985477Y-11884571D02*
X15995000Y-11856000D01*
X15995000Y-11856000D02*
X16004524Y-11808381D01*
X16004524Y-11808381D02*
X16004524Y-11770286D01*
X16004524Y-11770286D02*
X15995000Y-11722667D01*
X15995000Y-11722667D02*
X15985477Y-11694095D01*
X15985477Y-11694095D02*
X15975953Y-11675048D01*
X15975953Y-11675048D02*
X15956905Y-11646476D01*
X15956905Y-11646476D02*
X15947381Y-11636952D01*
D14*
X10972741Y-12090741D02*
X10972741Y-11983259D01*
X10865259Y-11983259D01*
X10865259Y-12090741D01*
X10972741Y-12090741D01*
D11*
X11347381Y-12129524D02*
X11233095Y-12129524D01*
X11290238Y-12129524D02*
X11290238Y-11929524D01*
X11290238Y-11929524D02*
X11271190Y-11958095D01*
X11271190Y-11958095D02*
X11252143Y-11977143D01*
X11252143Y-11977143D02*
X11233095Y-11986667D01*
X11433095Y-12110476D02*
X11442619Y-12120000D01*
X11442619Y-12120000D02*
X11433095Y-12129524D01*
X11433095Y-12129524D02*
X11423571Y-12120000D01*
X11423571Y-12120000D02*
X11433095Y-12110476D01*
X11433095Y-12110476D02*
X11433095Y-12129524D01*
X11623571Y-11929524D02*
X11528333Y-11929524D01*
X11528333Y-11929524D02*
X11518809Y-12024762D01*
X11518809Y-12024762D02*
X11528333Y-12015238D01*
X11528333Y-12015238D02*
X11547381Y-12005714D01*
X11547381Y-12005714D02*
X11595000Y-12005714D01*
X11595000Y-12005714D02*
X11614048Y-12015238D01*
X11614048Y-12015238D02*
X11623571Y-12024762D01*
X11623571Y-12024762D02*
X11633095Y-12043809D01*
X11633095Y-12043809D02*
X11633095Y-12091428D01*
X11633095Y-12091428D02*
X11623571Y-12110476D01*
X11623571Y-12110476D02*
X11614048Y-12120000D01*
X11614048Y-12120000D02*
X11595000Y-12129524D01*
X11595000Y-12129524D02*
X11547381Y-12129524D01*
X11547381Y-12129524D02*
X11528333Y-12120000D01*
X11528333Y-12120000D02*
X11518809Y-12110476D01*
X11709286Y-11948571D02*
X11718809Y-11939048D01*
X11718809Y-11939048D02*
X11737857Y-11929524D01*
X11737857Y-11929524D02*
X11785476Y-11929524D01*
X11785476Y-11929524D02*
X11804524Y-11939048D01*
X11804524Y-11939048D02*
X11814048Y-11948571D01*
X11814048Y-11948571D02*
X11823571Y-11967619D01*
X11823571Y-11967619D02*
X11823571Y-11986667D01*
X11823571Y-11986667D02*
X11814048Y-12015238D01*
X11814048Y-12015238D02*
X11699762Y-12129524D01*
X11699762Y-12129524D02*
X11823571Y-12129524D01*
X11947381Y-11929524D02*
X11966429Y-11929524D01*
X11966429Y-11929524D02*
X11985476Y-11939048D01*
X11985476Y-11939048D02*
X11995000Y-11948571D01*
X11995000Y-11948571D02*
X12004524Y-11967619D01*
X12004524Y-11967619D02*
X12014048Y-12005714D01*
X12014048Y-12005714D02*
X12014048Y-12053333D01*
X12014048Y-12053333D02*
X12004524Y-12091428D01*
X12004524Y-12091428D02*
X11995000Y-12110476D01*
X11995000Y-12110476D02*
X11985476Y-12120000D01*
X11985476Y-12120000D02*
X11966429Y-12129524D01*
X11966429Y-12129524D02*
X11947381Y-12129524D01*
X11947381Y-12129524D02*
X11928333Y-12120000D01*
X11928333Y-12120000D02*
X11918809Y-12110476D01*
X11918809Y-12110476D02*
X11909286Y-12091428D01*
X11909286Y-12091428D02*
X11899762Y-12053333D01*
X11899762Y-12053333D02*
X11899762Y-12005714D01*
X11899762Y-12005714D02*
X11909286Y-11967619D01*
X11909286Y-11967619D02*
X11918809Y-11948571D01*
X11918809Y-11948571D02*
X11928333Y-11939048D01*
X11928333Y-11939048D02*
X11947381Y-11929524D01*
X12099762Y-12129524D02*
X12099762Y-11996190D01*
X12099762Y-12015238D02*
X12109286Y-12005714D01*
X12109286Y-12005714D02*
X12128333Y-11996190D01*
X12128333Y-11996190D02*
X12156905Y-11996190D01*
X12156905Y-11996190D02*
X12175952Y-12005714D01*
X12175952Y-12005714D02*
X12185476Y-12024762D01*
X12185476Y-12024762D02*
X12185476Y-12129524D01*
X12185476Y-12024762D02*
X12195000Y-12005714D01*
X12195000Y-12005714D02*
X12214048Y-11996190D01*
X12214048Y-11996190D02*
X12242619Y-11996190D01*
X12242619Y-11996190D02*
X12261667Y-12005714D01*
X12261667Y-12005714D02*
X12271190Y-12024762D01*
X12271190Y-12024762D02*
X12271190Y-12129524D01*
X12366429Y-12129524D02*
X12366429Y-11996190D01*
X12366429Y-12015238D02*
X12375952Y-12005714D01*
X12375952Y-12005714D02*
X12395000Y-11996190D01*
X12395000Y-11996190D02*
X12423571Y-11996190D01*
X12423571Y-11996190D02*
X12442619Y-12005714D01*
X12442619Y-12005714D02*
X12452143Y-12024762D01*
X12452143Y-12024762D02*
X12452143Y-12129524D01*
X12452143Y-12024762D02*
X12461667Y-12005714D01*
X12461667Y-12005714D02*
X12480714Y-11996190D01*
X12480714Y-11996190D02*
X12509286Y-11996190D01*
X12509286Y-11996190D02*
X12528333Y-12005714D01*
X12528333Y-12005714D02*
X12537857Y-12024762D01*
X12537857Y-12024762D02*
X12537857Y-12129524D01*
X12928333Y-11920000D02*
X12756905Y-12177143D01*
X13185476Y-11929524D02*
X13204524Y-11929524D01*
X13204524Y-11929524D02*
X13223572Y-11939048D01*
X13223572Y-11939048D02*
X13233095Y-11948571D01*
X13233095Y-11948571D02*
X13242619Y-11967619D01*
X13242619Y-11967619D02*
X13252143Y-12005714D01*
X13252143Y-12005714D02*
X13252143Y-12053333D01*
X13252143Y-12053333D02*
X13242619Y-12091428D01*
X13242619Y-12091428D02*
X13233095Y-12110476D01*
X13233095Y-12110476D02*
X13223572Y-12120000D01*
X13223572Y-12120000D02*
X13204524Y-12129524D01*
X13204524Y-12129524D02*
X13185476Y-12129524D01*
X13185476Y-12129524D02*
X13166429Y-12120000D01*
X13166429Y-12120000D02*
X13156905Y-12110476D01*
X13156905Y-12110476D02*
X13147381Y-12091428D01*
X13147381Y-12091428D02*
X13137857Y-12053333D01*
X13137857Y-12053333D02*
X13137857Y-12005714D01*
X13137857Y-12005714D02*
X13147381Y-11967619D01*
X13147381Y-11967619D02*
X13156905Y-11948571D01*
X13156905Y-11948571D02*
X13166429Y-11939048D01*
X13166429Y-11939048D02*
X13185476Y-11929524D01*
X13337857Y-12110476D02*
X13347381Y-12120000D01*
X13347381Y-12120000D02*
X13337857Y-12129524D01*
X13337857Y-12129524D02*
X13328333Y-12120000D01*
X13328333Y-12120000D02*
X13337857Y-12110476D01*
X13337857Y-12110476D02*
X13337857Y-12129524D01*
X13471191Y-11929524D02*
X13490238Y-11929524D01*
X13490238Y-11929524D02*
X13509286Y-11939048D01*
X13509286Y-11939048D02*
X13518810Y-11948571D01*
X13518810Y-11948571D02*
X13528333Y-11967619D01*
X13528333Y-11967619D02*
X13537857Y-12005714D01*
X13537857Y-12005714D02*
X13537857Y-12053333D01*
X13537857Y-12053333D02*
X13528333Y-12091428D01*
X13528333Y-12091428D02*
X13518810Y-12110476D01*
X13518810Y-12110476D02*
X13509286Y-12120000D01*
X13509286Y-12120000D02*
X13490238Y-12129524D01*
X13490238Y-12129524D02*
X13471191Y-12129524D01*
X13471191Y-12129524D02*
X13452143Y-12120000D01*
X13452143Y-12120000D02*
X13442619Y-12110476D01*
X13442619Y-12110476D02*
X13433095Y-12091428D01*
X13433095Y-12091428D02*
X13423572Y-12053333D01*
X13423572Y-12053333D02*
X13423572Y-12005714D01*
X13423572Y-12005714D02*
X13433095Y-11967619D01*
X13433095Y-11967619D02*
X13442619Y-11948571D01*
X13442619Y-11948571D02*
X13452143Y-11939048D01*
X13452143Y-11939048D02*
X13471191Y-11929524D01*
X13718810Y-11929524D02*
X13623572Y-11929524D01*
X13623572Y-11929524D02*
X13614048Y-12024762D01*
X13614048Y-12024762D02*
X13623572Y-12015238D01*
X13623572Y-12015238D02*
X13642619Y-12005714D01*
X13642619Y-12005714D02*
X13690238Y-12005714D01*
X13690238Y-12005714D02*
X13709286Y-12015238D01*
X13709286Y-12015238D02*
X13718810Y-12024762D01*
X13718810Y-12024762D02*
X13728333Y-12043809D01*
X13728333Y-12043809D02*
X13728333Y-12091428D01*
X13728333Y-12091428D02*
X13718810Y-12110476D01*
X13718810Y-12110476D02*
X13709286Y-12120000D01*
X13709286Y-12120000D02*
X13690238Y-12129524D01*
X13690238Y-12129524D02*
X13642619Y-12129524D01*
X13642619Y-12129524D02*
X13623572Y-12120000D01*
X13623572Y-12120000D02*
X13614048Y-12110476D01*
X13823572Y-12129524D02*
X13861667Y-12129524D01*
X13861667Y-12129524D02*
X13880714Y-12120000D01*
X13880714Y-12120000D02*
X13890238Y-12110476D01*
X13890238Y-12110476D02*
X13909286Y-12081905D01*
X13909286Y-12081905D02*
X13918810Y-12043809D01*
X13918810Y-12043809D02*
X13918810Y-11967619D01*
X13918810Y-11967619D02*
X13909286Y-11948571D01*
X13909286Y-11948571D02*
X13899762Y-11939048D01*
X13899762Y-11939048D02*
X13880714Y-11929524D01*
X13880714Y-11929524D02*
X13842619Y-11929524D01*
X13842619Y-11929524D02*
X13823572Y-11939048D01*
X13823572Y-11939048D02*
X13814048Y-11948571D01*
X13814048Y-11948571D02*
X13804524Y-11967619D01*
X13804524Y-11967619D02*
X13804524Y-12015238D01*
X13804524Y-12015238D02*
X13814048Y-12034286D01*
X13814048Y-12034286D02*
X13823572Y-12043809D01*
X13823572Y-12043809D02*
X13842619Y-12053333D01*
X13842619Y-12053333D02*
X13880714Y-12053333D01*
X13880714Y-12053333D02*
X13899762Y-12043809D01*
X13899762Y-12043809D02*
X13909286Y-12034286D01*
X13909286Y-12034286D02*
X13918810Y-12015238D01*
X14033095Y-12015238D02*
X14014048Y-12005714D01*
X14014048Y-12005714D02*
X14004524Y-11996190D01*
X14004524Y-11996190D02*
X13995000Y-11977143D01*
X13995000Y-11977143D02*
X13995000Y-11967619D01*
X13995000Y-11967619D02*
X14004524Y-11948571D01*
X14004524Y-11948571D02*
X14014048Y-11939048D01*
X14014048Y-11939048D02*
X14033095Y-11929524D01*
X14033095Y-11929524D02*
X14071191Y-11929524D01*
X14071191Y-11929524D02*
X14090238Y-11939048D01*
X14090238Y-11939048D02*
X14099762Y-11948571D01*
X14099762Y-11948571D02*
X14109286Y-11967619D01*
X14109286Y-11967619D02*
X14109286Y-11977143D01*
X14109286Y-11977143D02*
X14099762Y-11996190D01*
X14099762Y-11996190D02*
X14090238Y-12005714D01*
X14090238Y-12005714D02*
X14071191Y-12015238D01*
X14071191Y-12015238D02*
X14033095Y-12015238D01*
X14033095Y-12015238D02*
X14014048Y-12024762D01*
X14014048Y-12024762D02*
X14004524Y-12034286D01*
X14004524Y-12034286D02*
X13995000Y-12053333D01*
X13995000Y-12053333D02*
X13995000Y-12091428D01*
X13995000Y-12091428D02*
X14004524Y-12110476D01*
X14004524Y-12110476D02*
X14014048Y-12120000D01*
X14014048Y-12120000D02*
X14033095Y-12129524D01*
X14033095Y-12129524D02*
X14071191Y-12129524D01*
X14071191Y-12129524D02*
X14090238Y-12120000D01*
X14090238Y-12120000D02*
X14099762Y-12110476D01*
X14099762Y-12110476D02*
X14109286Y-12091428D01*
X14109286Y-12091428D02*
X14109286Y-12053333D01*
X14109286Y-12053333D02*
X14099762Y-12034286D01*
X14099762Y-12034286D02*
X14090238Y-12024762D01*
X14090238Y-12024762D02*
X14071191Y-12015238D01*
X14185476Y-11929524D02*
X14185476Y-11967619D01*
X14261667Y-11929524D02*
X14261667Y-11967619D01*
X14556905Y-12205714D02*
X14547381Y-12196190D01*
X14547381Y-12196190D02*
X14528334Y-12167619D01*
X14528334Y-12167619D02*
X14518810Y-12148571D01*
X14518810Y-12148571D02*
X14509286Y-12120000D01*
X14509286Y-12120000D02*
X14499762Y-12072381D01*
X14499762Y-12072381D02*
X14499762Y-12034286D01*
X14499762Y-12034286D02*
X14509286Y-11986667D01*
X14509286Y-11986667D02*
X14518810Y-11958095D01*
X14518810Y-11958095D02*
X14528334Y-11939048D01*
X14528334Y-11939048D02*
X14547381Y-11910476D01*
X14547381Y-11910476D02*
X14556905Y-11900952D01*
X14623572Y-11948571D02*
X14633095Y-11939048D01*
X14633095Y-11939048D02*
X14652143Y-11929524D01*
X14652143Y-11929524D02*
X14699762Y-11929524D01*
X14699762Y-11929524D02*
X14718810Y-11939048D01*
X14718810Y-11939048D02*
X14728334Y-11948571D01*
X14728334Y-11948571D02*
X14737857Y-11967619D01*
X14737857Y-11967619D02*
X14737857Y-11986667D01*
X14737857Y-11986667D02*
X14728334Y-12015238D01*
X14728334Y-12015238D02*
X14614048Y-12129524D01*
X14614048Y-12129524D02*
X14737857Y-12129524D01*
X14975953Y-12129524D02*
X14975953Y-11929524D01*
X15061667Y-12129524D02*
X15061667Y-12024762D01*
X15061667Y-12024762D02*
X15052143Y-12005714D01*
X15052143Y-12005714D02*
X15033096Y-11996190D01*
X15033096Y-11996190D02*
X15004524Y-11996190D01*
X15004524Y-11996190D02*
X14985476Y-12005714D01*
X14985476Y-12005714D02*
X14975953Y-12015238D01*
X15185476Y-12129524D02*
X15166429Y-12120000D01*
X15166429Y-12120000D02*
X15156905Y-12110476D01*
X15156905Y-12110476D02*
X15147381Y-12091428D01*
X15147381Y-12091428D02*
X15147381Y-12034286D01*
X15147381Y-12034286D02*
X15156905Y-12015238D01*
X15156905Y-12015238D02*
X15166429Y-12005714D01*
X15166429Y-12005714D02*
X15185476Y-11996190D01*
X15185476Y-11996190D02*
X15214048Y-11996190D01*
X15214048Y-11996190D02*
X15233096Y-12005714D01*
X15233096Y-12005714D02*
X15242619Y-12015238D01*
X15242619Y-12015238D02*
X15252143Y-12034286D01*
X15252143Y-12034286D02*
X15252143Y-12091428D01*
X15252143Y-12091428D02*
X15242619Y-12110476D01*
X15242619Y-12110476D02*
X15233096Y-12120000D01*
X15233096Y-12120000D02*
X15214048Y-12129524D01*
X15214048Y-12129524D02*
X15185476Y-12129524D01*
X15366429Y-12129524D02*
X15347381Y-12120000D01*
X15347381Y-12120000D02*
X15337857Y-12100952D01*
X15337857Y-12100952D02*
X15337857Y-11929524D01*
X15518810Y-12120000D02*
X15499762Y-12129524D01*
X15499762Y-12129524D02*
X15461667Y-12129524D01*
X15461667Y-12129524D02*
X15442619Y-12120000D01*
X15442619Y-12120000D02*
X15433096Y-12100952D01*
X15433096Y-12100952D02*
X15433096Y-12024762D01*
X15433096Y-12024762D02*
X15442619Y-12005714D01*
X15442619Y-12005714D02*
X15461667Y-11996190D01*
X15461667Y-11996190D02*
X15499762Y-11996190D01*
X15499762Y-11996190D02*
X15518810Y-12005714D01*
X15518810Y-12005714D02*
X15528334Y-12024762D01*
X15528334Y-12024762D02*
X15528334Y-12043809D01*
X15528334Y-12043809D02*
X15433096Y-12062857D01*
X15604524Y-12120000D02*
X15623572Y-12129524D01*
X15623572Y-12129524D02*
X15661667Y-12129524D01*
X15661667Y-12129524D02*
X15680715Y-12120000D01*
X15680715Y-12120000D02*
X15690238Y-12100952D01*
X15690238Y-12100952D02*
X15690238Y-12091428D01*
X15690238Y-12091428D02*
X15680715Y-12072381D01*
X15680715Y-12072381D02*
X15661667Y-12062857D01*
X15661667Y-12062857D02*
X15633096Y-12062857D01*
X15633096Y-12062857D02*
X15614048Y-12053333D01*
X15614048Y-12053333D02*
X15604524Y-12034286D01*
X15604524Y-12034286D02*
X15604524Y-12024762D01*
X15604524Y-12024762D02*
X15614048Y-12005714D01*
X15614048Y-12005714D02*
X15633096Y-11996190D01*
X15633096Y-11996190D02*
X15661667Y-11996190D01*
X15661667Y-11996190D02*
X15680715Y-12005714D01*
X15756905Y-12205714D02*
X15766429Y-12196190D01*
X15766429Y-12196190D02*
X15785477Y-12167619D01*
X15785477Y-12167619D02*
X15795000Y-12148571D01*
X15795000Y-12148571D02*
X15804524Y-12120000D01*
X15804524Y-12120000D02*
X15814048Y-12072381D01*
X15814048Y-12072381D02*
X15814048Y-12034286D01*
X15814048Y-12034286D02*
X15804524Y-11986667D01*
X15804524Y-11986667D02*
X15795000Y-11958095D01*
X15795000Y-11958095D02*
X15785477Y-11939048D01*
X15785477Y-11939048D02*
X15766429Y-11910476D01*
X15766429Y-11910476D02*
X15756905Y-11900952D01*
M02*
