%TF.GenerationSoftware,KiCad,Pcbnew,7.0.2*%
%TF.CreationDate,2024-05-20T21:15:05+02:00*%
%TF.ProjectId,aux_axis,6175785f-6178-4697-932e-6b696361645f,rev?*%
%TF.SameCoordinates,Original*%
%TF.FileFunction,Legend,Top*%
%TF.FilePolarity,Positive*%
%FSLAX46Y46*%
G04 Gerber Fmt 4.6, Leading zero omitted, Abs format (unit mm)*
G04 Created by KiCad (PCBNEW 7.0.2) date 2024-05-20 21:15:05*
%MOMM*%
%LPD*%
G01*
G04 APERTURE LIST*
%ADD10C,0.150000*%
%ADD11C,0.250000*%
%ADD12C,0.120000*%
G04 APERTURE END LIST*
D10*
X115591904Y-71059523D02*
X115591904Y-70583333D01*
X115877619Y-71154761D02*
X114877619Y-70821428D01*
X114877619Y-70821428D02*
X115877619Y-70488095D01*
X115877619Y-70154761D02*
X115210952Y-70154761D01*
X115401428Y-70154761D02*
X115306190Y-70107142D01*
X115306190Y-70107142D02*
X115258571Y-70059523D01*
X115258571Y-70059523D02*
X115210952Y-69964285D01*
X115210952Y-69964285D02*
X115210952Y-69869047D01*
X115877619Y-69107142D02*
X114877619Y-69107142D01*
X115830000Y-69107142D02*
X115877619Y-69202380D01*
X115877619Y-69202380D02*
X115877619Y-69392856D01*
X115877619Y-69392856D02*
X115830000Y-69488094D01*
X115830000Y-69488094D02*
X115782380Y-69535713D01*
X115782380Y-69535713D02*
X115687142Y-69583332D01*
X115687142Y-69583332D02*
X115401428Y-69583332D01*
X115401428Y-69583332D02*
X115306190Y-69535713D01*
X115306190Y-69535713D02*
X115258571Y-69488094D01*
X115258571Y-69488094D02*
X115210952Y-69392856D01*
X115210952Y-69392856D02*
X115210952Y-69202380D01*
X115210952Y-69202380D02*
X115258571Y-69107142D01*
X115210952Y-68202380D02*
X115877619Y-68202380D01*
X115210952Y-68630951D02*
X115734761Y-68630951D01*
X115734761Y-68630951D02*
X115830000Y-68583332D01*
X115830000Y-68583332D02*
X115877619Y-68488094D01*
X115877619Y-68488094D02*
X115877619Y-68345237D01*
X115877619Y-68345237D02*
X115830000Y-68249999D01*
X115830000Y-68249999D02*
X115782380Y-68202380D01*
X115877619Y-67726189D02*
X115210952Y-67726189D01*
X114877619Y-67726189D02*
X114925238Y-67773808D01*
X114925238Y-67773808D02*
X114972857Y-67726189D01*
X114972857Y-67726189D02*
X114925238Y-67678570D01*
X114925238Y-67678570D02*
X114877619Y-67726189D01*
X114877619Y-67726189D02*
X114972857Y-67726189D01*
X115210952Y-67249999D02*
X115877619Y-67249999D01*
X115306190Y-67249999D02*
X115258571Y-67202380D01*
X115258571Y-67202380D02*
X115210952Y-67107142D01*
X115210952Y-67107142D02*
X115210952Y-66964285D01*
X115210952Y-66964285D02*
X115258571Y-66869047D01*
X115258571Y-66869047D02*
X115353809Y-66821428D01*
X115353809Y-66821428D02*
X115877619Y-66821428D01*
X115877619Y-66202380D02*
X115830000Y-66297618D01*
X115830000Y-66297618D02*
X115782380Y-66345237D01*
X115782380Y-66345237D02*
X115687142Y-66392856D01*
X115687142Y-66392856D02*
X115401428Y-66392856D01*
X115401428Y-66392856D02*
X115306190Y-66345237D01*
X115306190Y-66345237D02*
X115258571Y-66297618D01*
X115258571Y-66297618D02*
X115210952Y-66202380D01*
X115210952Y-66202380D02*
X115210952Y-66059523D01*
X115210952Y-66059523D02*
X115258571Y-65964285D01*
X115258571Y-65964285D02*
X115306190Y-65916666D01*
X115306190Y-65916666D02*
X115401428Y-65869047D01*
X115401428Y-65869047D02*
X115687142Y-65869047D01*
X115687142Y-65869047D02*
X115782380Y-65916666D01*
X115782380Y-65916666D02*
X115830000Y-65964285D01*
X115830000Y-65964285D02*
X115877619Y-66059523D01*
X115877619Y-66059523D02*
X115877619Y-66202380D01*
X115877619Y-64678570D02*
X114877619Y-64678570D01*
X114877619Y-64678570D02*
X115877619Y-64107142D01*
X115877619Y-64107142D02*
X114877619Y-64107142D01*
X115877619Y-63202380D02*
X115353809Y-63202380D01*
X115353809Y-63202380D02*
X115258571Y-63249999D01*
X115258571Y-63249999D02*
X115210952Y-63345237D01*
X115210952Y-63345237D02*
X115210952Y-63535713D01*
X115210952Y-63535713D02*
X115258571Y-63630951D01*
X115830000Y-63202380D02*
X115877619Y-63297618D01*
X115877619Y-63297618D02*
X115877619Y-63535713D01*
X115877619Y-63535713D02*
X115830000Y-63630951D01*
X115830000Y-63630951D02*
X115734761Y-63678570D01*
X115734761Y-63678570D02*
X115639523Y-63678570D01*
X115639523Y-63678570D02*
X115544285Y-63630951D01*
X115544285Y-63630951D02*
X115496666Y-63535713D01*
X115496666Y-63535713D02*
X115496666Y-63297618D01*
X115496666Y-63297618D02*
X115449047Y-63202380D01*
X115210952Y-62726189D02*
X115877619Y-62726189D01*
X115306190Y-62726189D02*
X115258571Y-62678570D01*
X115258571Y-62678570D02*
X115210952Y-62583332D01*
X115210952Y-62583332D02*
X115210952Y-62440475D01*
X115210952Y-62440475D02*
X115258571Y-62345237D01*
X115258571Y-62345237D02*
X115353809Y-62297618D01*
X115353809Y-62297618D02*
X115877619Y-62297618D01*
X115877619Y-61678570D02*
X115830000Y-61773808D01*
X115830000Y-61773808D02*
X115782380Y-61821427D01*
X115782380Y-61821427D02*
X115687142Y-61869046D01*
X115687142Y-61869046D02*
X115401428Y-61869046D01*
X115401428Y-61869046D02*
X115306190Y-61821427D01*
X115306190Y-61821427D02*
X115258571Y-61773808D01*
X115258571Y-61773808D02*
X115210952Y-61678570D01*
X115210952Y-61678570D02*
X115210952Y-61535713D01*
X115210952Y-61535713D02*
X115258571Y-61440475D01*
X115258571Y-61440475D02*
X115306190Y-61392856D01*
X115306190Y-61392856D02*
X115401428Y-61345237D01*
X115401428Y-61345237D02*
X115687142Y-61345237D01*
X115687142Y-61345237D02*
X115782380Y-61392856D01*
X115782380Y-61392856D02*
X115830000Y-61440475D01*
X115830000Y-61440475D02*
X115877619Y-61535713D01*
X115877619Y-61535713D02*
X115877619Y-61678570D01*
X137714285Y-92127619D02*
X137238095Y-92127619D01*
X137238095Y-92127619D02*
X137190476Y-92603809D01*
X137190476Y-92603809D02*
X137238095Y-92556190D01*
X137238095Y-92556190D02*
X137333333Y-92508571D01*
X137333333Y-92508571D02*
X137571428Y-92508571D01*
X137571428Y-92508571D02*
X137666666Y-92556190D01*
X137666666Y-92556190D02*
X137714285Y-92603809D01*
X137714285Y-92603809D02*
X137761904Y-92699047D01*
X137761904Y-92699047D02*
X137761904Y-92937142D01*
X137761904Y-92937142D02*
X137714285Y-93032380D01*
X137714285Y-93032380D02*
X137666666Y-93080000D01*
X137666666Y-93080000D02*
X137571428Y-93127619D01*
X137571428Y-93127619D02*
X137333333Y-93127619D01*
X137333333Y-93127619D02*
X137238095Y-93080000D01*
X137238095Y-93080000D02*
X137190476Y-93032380D01*
X138047619Y-92127619D02*
X138380952Y-93127619D01*
X138380952Y-93127619D02*
X138714285Y-92127619D01*
D11*
X129035714Y-51385000D02*
X129250000Y-51456428D01*
X129250000Y-51456428D02*
X129607142Y-51456428D01*
X129607142Y-51456428D02*
X129750000Y-51385000D01*
X129750000Y-51385000D02*
X129821428Y-51313571D01*
X129821428Y-51313571D02*
X129892857Y-51170714D01*
X129892857Y-51170714D02*
X129892857Y-51027857D01*
X129892857Y-51027857D02*
X129821428Y-50885000D01*
X129821428Y-50885000D02*
X129750000Y-50813571D01*
X129750000Y-50813571D02*
X129607142Y-50742142D01*
X129607142Y-50742142D02*
X129321428Y-50670714D01*
X129321428Y-50670714D02*
X129178571Y-50599285D01*
X129178571Y-50599285D02*
X129107142Y-50527857D01*
X129107142Y-50527857D02*
X129035714Y-50385000D01*
X129035714Y-50385000D02*
X129035714Y-50242142D01*
X129035714Y-50242142D02*
X129107142Y-50099285D01*
X129107142Y-50099285D02*
X129178571Y-50027857D01*
X129178571Y-50027857D02*
X129321428Y-49956428D01*
X129321428Y-49956428D02*
X129678571Y-49956428D01*
X129678571Y-49956428D02*
X129892857Y-50027857D01*
X131107142Y-51385000D02*
X130964285Y-51456428D01*
X130964285Y-51456428D02*
X130678571Y-51456428D01*
X130678571Y-51456428D02*
X130535713Y-51385000D01*
X130535713Y-51385000D02*
X130464285Y-51242142D01*
X130464285Y-51242142D02*
X130464285Y-50670714D01*
X130464285Y-50670714D02*
X130535713Y-50527857D01*
X130535713Y-50527857D02*
X130678571Y-50456428D01*
X130678571Y-50456428D02*
X130964285Y-50456428D01*
X130964285Y-50456428D02*
X131107142Y-50527857D01*
X131107142Y-50527857D02*
X131178571Y-50670714D01*
X131178571Y-50670714D02*
X131178571Y-50813571D01*
X131178571Y-50813571D02*
X130464285Y-50956428D01*
X131821427Y-51456428D02*
X131821427Y-50456428D01*
X131821427Y-50742142D02*
X131892856Y-50599285D01*
X131892856Y-50599285D02*
X131964285Y-50527857D01*
X131964285Y-50527857D02*
X132107142Y-50456428D01*
X132107142Y-50456428D02*
X132249999Y-50456428D01*
X132607141Y-50456428D02*
X132964284Y-51456428D01*
X132964284Y-51456428D02*
X133321427Y-50456428D01*
X134107141Y-51456428D02*
X133964284Y-51385000D01*
X133964284Y-51385000D02*
X133892855Y-51313571D01*
X133892855Y-51313571D02*
X133821427Y-51170714D01*
X133821427Y-51170714D02*
X133821427Y-50742142D01*
X133821427Y-50742142D02*
X133892855Y-50599285D01*
X133892855Y-50599285D02*
X133964284Y-50527857D01*
X133964284Y-50527857D02*
X134107141Y-50456428D01*
X134107141Y-50456428D02*
X134321427Y-50456428D01*
X134321427Y-50456428D02*
X134464284Y-50527857D01*
X134464284Y-50527857D02*
X134535713Y-50599285D01*
X134535713Y-50599285D02*
X134607141Y-50742142D01*
X134607141Y-50742142D02*
X134607141Y-51170714D01*
X134607141Y-51170714D02*
X134535713Y-51313571D01*
X134535713Y-51313571D02*
X134464284Y-51385000D01*
X134464284Y-51385000D02*
X134321427Y-51456428D01*
X134321427Y-51456428D02*
X134107141Y-51456428D01*
X129035714Y-53457857D02*
X129750000Y-53457857D01*
X128892857Y-53886428D02*
X129392857Y-52386428D01*
X129392857Y-52386428D02*
X129892857Y-53886428D01*
X130249999Y-53886428D02*
X131035714Y-52886428D01*
X130249999Y-52886428D02*
X131035714Y-53886428D01*
X131607142Y-53886428D02*
X131607142Y-52886428D01*
X131607142Y-52386428D02*
X131535714Y-52457857D01*
X131535714Y-52457857D02*
X131607142Y-52529285D01*
X131607142Y-52529285D02*
X131678571Y-52457857D01*
X131678571Y-52457857D02*
X131607142Y-52386428D01*
X131607142Y-52386428D02*
X131607142Y-52529285D01*
X132250000Y-53815000D02*
X132392857Y-53886428D01*
X132392857Y-53886428D02*
X132678571Y-53886428D01*
X132678571Y-53886428D02*
X132821428Y-53815000D01*
X132821428Y-53815000D02*
X132892857Y-53672142D01*
X132892857Y-53672142D02*
X132892857Y-53600714D01*
X132892857Y-53600714D02*
X132821428Y-53457857D01*
X132821428Y-53457857D02*
X132678571Y-53386428D01*
X132678571Y-53386428D02*
X132464286Y-53386428D01*
X132464286Y-53386428D02*
X132321428Y-53315000D01*
X132321428Y-53315000D02*
X132250000Y-53172142D01*
X132250000Y-53172142D02*
X132250000Y-53100714D01*
X132250000Y-53100714D02*
X132321428Y-52957857D01*
X132321428Y-52957857D02*
X132464286Y-52886428D01*
X132464286Y-52886428D02*
X132678571Y-52886428D01*
X132678571Y-52886428D02*
X132821428Y-52957857D01*
X129107142Y-56316428D02*
X129107142Y-54816428D01*
X129107142Y-54816428D02*
X129464285Y-54816428D01*
X129464285Y-54816428D02*
X129678571Y-54887857D01*
X129678571Y-54887857D02*
X129821428Y-55030714D01*
X129821428Y-55030714D02*
X129892857Y-55173571D01*
X129892857Y-55173571D02*
X129964285Y-55459285D01*
X129964285Y-55459285D02*
X129964285Y-55673571D01*
X129964285Y-55673571D02*
X129892857Y-55959285D01*
X129892857Y-55959285D02*
X129821428Y-56102142D01*
X129821428Y-56102142D02*
X129678571Y-56245000D01*
X129678571Y-56245000D02*
X129464285Y-56316428D01*
X129464285Y-56316428D02*
X129107142Y-56316428D01*
X130607142Y-56316428D02*
X130607142Y-55316428D01*
X130607142Y-55602142D02*
X130678571Y-55459285D01*
X130678571Y-55459285D02*
X130750000Y-55387857D01*
X130750000Y-55387857D02*
X130892857Y-55316428D01*
X130892857Y-55316428D02*
X131035714Y-55316428D01*
X131535713Y-56316428D02*
X131535713Y-55316428D01*
X131535713Y-54816428D02*
X131464285Y-54887857D01*
X131464285Y-54887857D02*
X131535713Y-54959285D01*
X131535713Y-54959285D02*
X131607142Y-54887857D01*
X131607142Y-54887857D02*
X131535713Y-54816428D01*
X131535713Y-54816428D02*
X131535713Y-54959285D01*
X132107142Y-55316428D02*
X132464285Y-56316428D01*
X132464285Y-56316428D02*
X132821428Y-55316428D01*
X133964285Y-56245000D02*
X133821428Y-56316428D01*
X133821428Y-56316428D02*
X133535714Y-56316428D01*
X133535714Y-56316428D02*
X133392856Y-56245000D01*
X133392856Y-56245000D02*
X133321428Y-56102142D01*
X133321428Y-56102142D02*
X133321428Y-55530714D01*
X133321428Y-55530714D02*
X133392856Y-55387857D01*
X133392856Y-55387857D02*
X133535714Y-55316428D01*
X133535714Y-55316428D02*
X133821428Y-55316428D01*
X133821428Y-55316428D02*
X133964285Y-55387857D01*
X133964285Y-55387857D02*
X134035714Y-55530714D01*
X134035714Y-55530714D02*
X134035714Y-55673571D01*
X134035714Y-55673571D02*
X133321428Y-55816428D01*
X134678570Y-56316428D02*
X134678570Y-55316428D01*
X134678570Y-55602142D02*
X134749999Y-55459285D01*
X134749999Y-55459285D02*
X134821428Y-55387857D01*
X134821428Y-55387857D02*
X134964285Y-55316428D01*
X134964285Y-55316428D02*
X135107142Y-55316428D01*
D10*
X134988095Y-92996666D02*
X135750000Y-92996666D01*
X135369047Y-93377619D02*
X135369047Y-92615714D01*
X140035715Y-92996666D02*
X140797620Y-92996666D01*
X135190476Y-78580000D02*
X135333333Y-78627619D01*
X135333333Y-78627619D02*
X135571428Y-78627619D01*
X135571428Y-78627619D02*
X135666666Y-78580000D01*
X135666666Y-78580000D02*
X135714285Y-78532380D01*
X135714285Y-78532380D02*
X135761904Y-78437142D01*
X135761904Y-78437142D02*
X135761904Y-78341904D01*
X135761904Y-78341904D02*
X135714285Y-78246666D01*
X135714285Y-78246666D02*
X135666666Y-78199047D01*
X135666666Y-78199047D02*
X135571428Y-78151428D01*
X135571428Y-78151428D02*
X135380952Y-78103809D01*
X135380952Y-78103809D02*
X135285714Y-78056190D01*
X135285714Y-78056190D02*
X135238095Y-78008571D01*
X135238095Y-78008571D02*
X135190476Y-77913333D01*
X135190476Y-77913333D02*
X135190476Y-77818095D01*
X135190476Y-77818095D02*
X135238095Y-77722857D01*
X135238095Y-77722857D02*
X135285714Y-77675238D01*
X135285714Y-77675238D02*
X135380952Y-77627619D01*
X135380952Y-77627619D02*
X135619047Y-77627619D01*
X135619047Y-77627619D02*
X135761904Y-77675238D01*
X137714286Y-78246666D02*
X138476191Y-78246666D01*
X138095238Y-78627619D02*
X138095238Y-77865714D01*
X140476191Y-78246666D02*
X141238096Y-78246666D01*
X135190476Y-89580000D02*
X135333333Y-89627619D01*
X135333333Y-89627619D02*
X135571428Y-89627619D01*
X135571428Y-89627619D02*
X135666666Y-89580000D01*
X135666666Y-89580000D02*
X135714285Y-89532380D01*
X135714285Y-89532380D02*
X135761904Y-89437142D01*
X135761904Y-89437142D02*
X135761904Y-89341904D01*
X135761904Y-89341904D02*
X135714285Y-89246666D01*
X135714285Y-89246666D02*
X135666666Y-89199047D01*
X135666666Y-89199047D02*
X135571428Y-89151428D01*
X135571428Y-89151428D02*
X135380952Y-89103809D01*
X135380952Y-89103809D02*
X135285714Y-89056190D01*
X135285714Y-89056190D02*
X135238095Y-89008571D01*
X135238095Y-89008571D02*
X135190476Y-88913333D01*
X135190476Y-88913333D02*
X135190476Y-88818095D01*
X135190476Y-88818095D02*
X135238095Y-88722857D01*
X135238095Y-88722857D02*
X135285714Y-88675238D01*
X135285714Y-88675238D02*
X135380952Y-88627619D01*
X135380952Y-88627619D02*
X135619047Y-88627619D01*
X135619047Y-88627619D02*
X135761904Y-88675238D01*
X137714286Y-89246666D02*
X138476191Y-89246666D01*
X138095238Y-89627619D02*
X138095238Y-88865714D01*
X140476191Y-89246666D02*
X141238096Y-89246666D01*
X137488095Y-66496666D02*
X138250000Y-66496666D01*
X137869047Y-66877619D02*
X137869047Y-66115714D01*
X140250000Y-66496666D02*
X141011905Y-66496666D01*
%TO.C,J4*%
X134462619Y-62761904D02*
X134415000Y-62857142D01*
X134415000Y-62857142D02*
X134319761Y-62904761D01*
X134319761Y-62904761D02*
X133462619Y-62904761D01*
X134415000Y-61999999D02*
X134462619Y-62095237D01*
X134462619Y-62095237D02*
X134462619Y-62285713D01*
X134462619Y-62285713D02*
X134415000Y-62380951D01*
X134415000Y-62380951D02*
X134319761Y-62428570D01*
X134319761Y-62428570D02*
X133938809Y-62428570D01*
X133938809Y-62428570D02*
X133843571Y-62380951D01*
X133843571Y-62380951D02*
X133795952Y-62285713D01*
X133795952Y-62285713D02*
X133795952Y-62095237D01*
X133795952Y-62095237D02*
X133843571Y-61999999D01*
X133843571Y-61999999D02*
X133938809Y-61952380D01*
X133938809Y-61952380D02*
X134034047Y-61952380D01*
X134034047Y-61952380D02*
X134129285Y-62428570D01*
X134462619Y-61095237D02*
X133462619Y-61095237D01*
X134415000Y-61095237D02*
X134462619Y-61190475D01*
X134462619Y-61190475D02*
X134462619Y-61380951D01*
X134462619Y-61380951D02*
X134415000Y-61476189D01*
X134415000Y-61476189D02*
X134367380Y-61523808D01*
X134367380Y-61523808D02*
X134272142Y-61571427D01*
X134272142Y-61571427D02*
X133986428Y-61571427D01*
X133986428Y-61571427D02*
X133891190Y-61523808D01*
X133891190Y-61523808D02*
X133843571Y-61476189D01*
X133843571Y-61476189D02*
X133795952Y-61380951D01*
X133795952Y-61380951D02*
X133795952Y-61190475D01*
X133795952Y-61190475D02*
X133843571Y-61095237D01*
%TO.C,R2*%
X119333333Y-80962619D02*
X119000000Y-80486428D01*
X118761905Y-80962619D02*
X118761905Y-79962619D01*
X118761905Y-79962619D02*
X119142857Y-79962619D01*
X119142857Y-79962619D02*
X119238095Y-80010238D01*
X119238095Y-80010238D02*
X119285714Y-80057857D01*
X119285714Y-80057857D02*
X119333333Y-80153095D01*
X119333333Y-80153095D02*
X119333333Y-80295952D01*
X119333333Y-80295952D02*
X119285714Y-80391190D01*
X119285714Y-80391190D02*
X119238095Y-80438809D01*
X119238095Y-80438809D02*
X119142857Y-80486428D01*
X119142857Y-80486428D02*
X118761905Y-80486428D01*
X119714286Y-80057857D02*
X119761905Y-80010238D01*
X119761905Y-80010238D02*
X119857143Y-79962619D01*
X119857143Y-79962619D02*
X120095238Y-79962619D01*
X120095238Y-79962619D02*
X120190476Y-80010238D01*
X120190476Y-80010238D02*
X120238095Y-80057857D01*
X120238095Y-80057857D02*
X120285714Y-80153095D01*
X120285714Y-80153095D02*
X120285714Y-80248333D01*
X120285714Y-80248333D02*
X120238095Y-80391190D01*
X120238095Y-80391190D02*
X119666667Y-80962619D01*
X119666667Y-80962619D02*
X120285714Y-80962619D01*
X121904761Y-80962619D02*
X121333333Y-80962619D01*
X121619047Y-80962619D02*
X121619047Y-79962619D01*
X121619047Y-79962619D02*
X121523809Y-80105476D01*
X121523809Y-80105476D02*
X121428571Y-80200714D01*
X121428571Y-80200714D02*
X121333333Y-80248333D01*
X122523809Y-79962619D02*
X122619047Y-79962619D01*
X122619047Y-79962619D02*
X122714285Y-80010238D01*
X122714285Y-80010238D02*
X122761904Y-80057857D01*
X122761904Y-80057857D02*
X122809523Y-80153095D01*
X122809523Y-80153095D02*
X122857142Y-80343571D01*
X122857142Y-80343571D02*
X122857142Y-80581666D01*
X122857142Y-80581666D02*
X122809523Y-80772142D01*
X122809523Y-80772142D02*
X122761904Y-80867380D01*
X122761904Y-80867380D02*
X122714285Y-80915000D01*
X122714285Y-80915000D02*
X122619047Y-80962619D01*
X122619047Y-80962619D02*
X122523809Y-80962619D01*
X122523809Y-80962619D02*
X122428571Y-80915000D01*
X122428571Y-80915000D02*
X122380952Y-80867380D01*
X122380952Y-80867380D02*
X122333333Y-80772142D01*
X122333333Y-80772142D02*
X122285714Y-80581666D01*
X122285714Y-80581666D02*
X122285714Y-80343571D01*
X122285714Y-80343571D02*
X122333333Y-80153095D01*
X122333333Y-80153095D02*
X122380952Y-80057857D01*
X122380952Y-80057857D02*
X122428571Y-80010238D01*
X122428571Y-80010238D02*
X122523809Y-79962619D01*
X123285714Y-80962619D02*
X123285714Y-79962619D01*
X123380952Y-80581666D02*
X123666666Y-80962619D01*
X123666666Y-80295952D02*
X123285714Y-80676904D01*
%TO.C,J2*%
X131915000Y-86857142D02*
X131962619Y-86714285D01*
X131962619Y-86714285D02*
X131962619Y-86476190D01*
X131962619Y-86476190D02*
X131915000Y-86380952D01*
X131915000Y-86380952D02*
X131867380Y-86333333D01*
X131867380Y-86333333D02*
X131772142Y-86285714D01*
X131772142Y-86285714D02*
X131676904Y-86285714D01*
X131676904Y-86285714D02*
X131581666Y-86333333D01*
X131581666Y-86333333D02*
X131534047Y-86380952D01*
X131534047Y-86380952D02*
X131486428Y-86476190D01*
X131486428Y-86476190D02*
X131438809Y-86666666D01*
X131438809Y-86666666D02*
X131391190Y-86761904D01*
X131391190Y-86761904D02*
X131343571Y-86809523D01*
X131343571Y-86809523D02*
X131248333Y-86857142D01*
X131248333Y-86857142D02*
X131153095Y-86857142D01*
X131153095Y-86857142D02*
X131057857Y-86809523D01*
X131057857Y-86809523D02*
X131010238Y-86761904D01*
X131010238Y-86761904D02*
X130962619Y-86666666D01*
X130962619Y-86666666D02*
X130962619Y-86428571D01*
X130962619Y-86428571D02*
X131010238Y-86285714D01*
X131915000Y-85476190D02*
X131962619Y-85571428D01*
X131962619Y-85571428D02*
X131962619Y-85761904D01*
X131962619Y-85761904D02*
X131915000Y-85857142D01*
X131915000Y-85857142D02*
X131819761Y-85904761D01*
X131819761Y-85904761D02*
X131438809Y-85904761D01*
X131438809Y-85904761D02*
X131343571Y-85857142D01*
X131343571Y-85857142D02*
X131295952Y-85761904D01*
X131295952Y-85761904D02*
X131295952Y-85571428D01*
X131295952Y-85571428D02*
X131343571Y-85476190D01*
X131343571Y-85476190D02*
X131438809Y-85428571D01*
X131438809Y-85428571D02*
X131534047Y-85428571D01*
X131534047Y-85428571D02*
X131629285Y-85904761D01*
X131962619Y-84999999D02*
X131295952Y-84999999D01*
X131486428Y-84999999D02*
X131391190Y-84952380D01*
X131391190Y-84952380D02*
X131343571Y-84904761D01*
X131343571Y-84904761D02*
X131295952Y-84809523D01*
X131295952Y-84809523D02*
X131295952Y-84714285D01*
X131295952Y-84476189D02*
X131962619Y-84238094D01*
X131962619Y-84238094D02*
X131295952Y-83999999D01*
X131962619Y-83476189D02*
X131915000Y-83571427D01*
X131915000Y-83571427D02*
X131867380Y-83619046D01*
X131867380Y-83619046D02*
X131772142Y-83666665D01*
X131772142Y-83666665D02*
X131486428Y-83666665D01*
X131486428Y-83666665D02*
X131391190Y-83619046D01*
X131391190Y-83619046D02*
X131343571Y-83571427D01*
X131343571Y-83571427D02*
X131295952Y-83476189D01*
X131295952Y-83476189D02*
X131295952Y-83333332D01*
X131295952Y-83333332D02*
X131343571Y-83238094D01*
X131343571Y-83238094D02*
X131391190Y-83190475D01*
X131391190Y-83190475D02*
X131486428Y-83142856D01*
X131486428Y-83142856D02*
X131772142Y-83142856D01*
X131772142Y-83142856D02*
X131867380Y-83190475D01*
X131867380Y-83190475D02*
X131915000Y-83238094D01*
X131915000Y-83238094D02*
X131962619Y-83333332D01*
X131962619Y-83333332D02*
X131962619Y-83476189D01*
%TO.C,J1*%
X131915000Y-102202381D02*
X131962619Y-102059524D01*
X131962619Y-102059524D02*
X131962619Y-101821429D01*
X131962619Y-101821429D02*
X131915000Y-101726191D01*
X131915000Y-101726191D02*
X131867380Y-101678572D01*
X131867380Y-101678572D02*
X131772142Y-101630953D01*
X131772142Y-101630953D02*
X131676904Y-101630953D01*
X131676904Y-101630953D02*
X131581666Y-101678572D01*
X131581666Y-101678572D02*
X131534047Y-101726191D01*
X131534047Y-101726191D02*
X131486428Y-101821429D01*
X131486428Y-101821429D02*
X131438809Y-102011905D01*
X131438809Y-102011905D02*
X131391190Y-102107143D01*
X131391190Y-102107143D02*
X131343571Y-102154762D01*
X131343571Y-102154762D02*
X131248333Y-102202381D01*
X131248333Y-102202381D02*
X131153095Y-102202381D01*
X131153095Y-102202381D02*
X131057857Y-102154762D01*
X131057857Y-102154762D02*
X131010238Y-102107143D01*
X131010238Y-102107143D02*
X130962619Y-102011905D01*
X130962619Y-102011905D02*
X130962619Y-101773810D01*
X130962619Y-101773810D02*
X131010238Y-101630953D01*
X131915000Y-100821429D02*
X131962619Y-100916667D01*
X131962619Y-100916667D02*
X131962619Y-101107143D01*
X131962619Y-101107143D02*
X131915000Y-101202381D01*
X131915000Y-101202381D02*
X131819761Y-101250000D01*
X131819761Y-101250000D02*
X131438809Y-101250000D01*
X131438809Y-101250000D02*
X131343571Y-101202381D01*
X131343571Y-101202381D02*
X131295952Y-101107143D01*
X131295952Y-101107143D02*
X131295952Y-100916667D01*
X131295952Y-100916667D02*
X131343571Y-100821429D01*
X131343571Y-100821429D02*
X131438809Y-100773810D01*
X131438809Y-100773810D02*
X131534047Y-100773810D01*
X131534047Y-100773810D02*
X131629285Y-101250000D01*
X131962619Y-100345238D02*
X131295952Y-100345238D01*
X131486428Y-100345238D02*
X131391190Y-100297619D01*
X131391190Y-100297619D02*
X131343571Y-100250000D01*
X131343571Y-100250000D02*
X131295952Y-100154762D01*
X131295952Y-100154762D02*
X131295952Y-100059524D01*
X131295952Y-99821428D02*
X131962619Y-99583333D01*
X131962619Y-99583333D02*
X131295952Y-99345238D01*
X131962619Y-98821428D02*
X131915000Y-98916666D01*
X131915000Y-98916666D02*
X131867380Y-98964285D01*
X131867380Y-98964285D02*
X131772142Y-99011904D01*
X131772142Y-99011904D02*
X131486428Y-99011904D01*
X131486428Y-99011904D02*
X131391190Y-98964285D01*
X131391190Y-98964285D02*
X131343571Y-98916666D01*
X131343571Y-98916666D02*
X131295952Y-98821428D01*
X131295952Y-98821428D02*
X131295952Y-98678571D01*
X131295952Y-98678571D02*
X131343571Y-98583333D01*
X131343571Y-98583333D02*
X131391190Y-98535714D01*
X131391190Y-98535714D02*
X131486428Y-98488095D01*
X131486428Y-98488095D02*
X131772142Y-98488095D01*
X131772142Y-98488095D02*
X131867380Y-98535714D01*
X131867380Y-98535714D02*
X131915000Y-98583333D01*
X131915000Y-98583333D02*
X131962619Y-98678571D01*
X131962619Y-98678571D02*
X131962619Y-98821428D01*
X131962619Y-97297618D02*
X130962619Y-97297618D01*
X130962619Y-97297618D02*
X130962619Y-96916666D01*
X130962619Y-96916666D02*
X131010238Y-96821428D01*
X131010238Y-96821428D02*
X131057857Y-96773809D01*
X131057857Y-96773809D02*
X131153095Y-96726190D01*
X131153095Y-96726190D02*
X131295952Y-96726190D01*
X131295952Y-96726190D02*
X131391190Y-96773809D01*
X131391190Y-96773809D02*
X131438809Y-96821428D01*
X131438809Y-96821428D02*
X131486428Y-96916666D01*
X131486428Y-96916666D02*
X131486428Y-97297618D01*
X131962619Y-96154761D02*
X131915000Y-96249999D01*
X131915000Y-96249999D02*
X131867380Y-96297618D01*
X131867380Y-96297618D02*
X131772142Y-96345237D01*
X131772142Y-96345237D02*
X131486428Y-96345237D01*
X131486428Y-96345237D02*
X131391190Y-96297618D01*
X131391190Y-96297618D02*
X131343571Y-96249999D01*
X131343571Y-96249999D02*
X131295952Y-96154761D01*
X131295952Y-96154761D02*
X131295952Y-96011904D01*
X131295952Y-96011904D02*
X131343571Y-95916666D01*
X131343571Y-95916666D02*
X131391190Y-95869047D01*
X131391190Y-95869047D02*
X131486428Y-95821428D01*
X131486428Y-95821428D02*
X131772142Y-95821428D01*
X131772142Y-95821428D02*
X131867380Y-95869047D01*
X131867380Y-95869047D02*
X131915000Y-95916666D01*
X131915000Y-95916666D02*
X131962619Y-96011904D01*
X131962619Y-96011904D02*
X131962619Y-96154761D01*
X131295952Y-95488094D02*
X131962619Y-95297618D01*
X131962619Y-95297618D02*
X131486428Y-95107142D01*
X131486428Y-95107142D02*
X131962619Y-94916666D01*
X131962619Y-94916666D02*
X131295952Y-94726190D01*
X131915000Y-93964285D02*
X131962619Y-94059523D01*
X131962619Y-94059523D02*
X131962619Y-94249999D01*
X131962619Y-94249999D02*
X131915000Y-94345237D01*
X131915000Y-94345237D02*
X131819761Y-94392856D01*
X131819761Y-94392856D02*
X131438809Y-94392856D01*
X131438809Y-94392856D02*
X131343571Y-94345237D01*
X131343571Y-94345237D02*
X131295952Y-94249999D01*
X131295952Y-94249999D02*
X131295952Y-94059523D01*
X131295952Y-94059523D02*
X131343571Y-93964285D01*
X131343571Y-93964285D02*
X131438809Y-93916666D01*
X131438809Y-93916666D02*
X131534047Y-93916666D01*
X131534047Y-93916666D02*
X131629285Y-94392856D01*
X131962619Y-93488094D02*
X131295952Y-93488094D01*
X131486428Y-93488094D02*
X131391190Y-93440475D01*
X131391190Y-93440475D02*
X131343571Y-93392856D01*
X131343571Y-93392856D02*
X131295952Y-93297618D01*
X131295952Y-93297618D02*
X131295952Y-93202380D01*
%TO.C,R4*%
X119333333Y-84962619D02*
X119000000Y-84486428D01*
X118761905Y-84962619D02*
X118761905Y-83962619D01*
X118761905Y-83962619D02*
X119142857Y-83962619D01*
X119142857Y-83962619D02*
X119238095Y-84010238D01*
X119238095Y-84010238D02*
X119285714Y-84057857D01*
X119285714Y-84057857D02*
X119333333Y-84153095D01*
X119333333Y-84153095D02*
X119333333Y-84295952D01*
X119333333Y-84295952D02*
X119285714Y-84391190D01*
X119285714Y-84391190D02*
X119238095Y-84438809D01*
X119238095Y-84438809D02*
X119142857Y-84486428D01*
X119142857Y-84486428D02*
X118761905Y-84486428D01*
X120190476Y-84295952D02*
X120190476Y-84962619D01*
X119952381Y-83915000D02*
X119714286Y-84629285D01*
X119714286Y-84629285D02*
X120333333Y-84629285D01*
X121904761Y-84882619D02*
X121333333Y-84882619D01*
X121619047Y-84882619D02*
X121619047Y-83882619D01*
X121619047Y-83882619D02*
X121523809Y-84025476D01*
X121523809Y-84025476D02*
X121428571Y-84120714D01*
X121428571Y-84120714D02*
X121333333Y-84168333D01*
X122523809Y-83882619D02*
X122619047Y-83882619D01*
X122619047Y-83882619D02*
X122714285Y-83930238D01*
X122714285Y-83930238D02*
X122761904Y-83977857D01*
X122761904Y-83977857D02*
X122809523Y-84073095D01*
X122809523Y-84073095D02*
X122857142Y-84263571D01*
X122857142Y-84263571D02*
X122857142Y-84501666D01*
X122857142Y-84501666D02*
X122809523Y-84692142D01*
X122809523Y-84692142D02*
X122761904Y-84787380D01*
X122761904Y-84787380D02*
X122714285Y-84835000D01*
X122714285Y-84835000D02*
X122619047Y-84882619D01*
X122619047Y-84882619D02*
X122523809Y-84882619D01*
X122523809Y-84882619D02*
X122428571Y-84835000D01*
X122428571Y-84835000D02*
X122380952Y-84787380D01*
X122380952Y-84787380D02*
X122333333Y-84692142D01*
X122333333Y-84692142D02*
X122285714Y-84501666D01*
X122285714Y-84501666D02*
X122285714Y-84263571D01*
X122285714Y-84263571D02*
X122333333Y-84073095D01*
X122333333Y-84073095D02*
X122380952Y-83977857D01*
X122380952Y-83977857D02*
X122428571Y-83930238D01*
X122428571Y-83930238D02*
X122523809Y-83882619D01*
X123285714Y-84882619D02*
X123285714Y-83882619D01*
X123380952Y-84501666D02*
X123666666Y-84882619D01*
X123666666Y-84215952D02*
X123285714Y-84596904D01*
%TO.C,J5*%
X113462619Y-53976189D02*
X112462619Y-53976189D01*
X112557857Y-53547618D02*
X112510238Y-53499999D01*
X112510238Y-53499999D02*
X112462619Y-53404761D01*
X112462619Y-53404761D02*
X112462619Y-53166666D01*
X112462619Y-53166666D02*
X112510238Y-53071428D01*
X112510238Y-53071428D02*
X112557857Y-53023809D01*
X112557857Y-53023809D02*
X112653095Y-52976190D01*
X112653095Y-52976190D02*
X112748333Y-52976190D01*
X112748333Y-52976190D02*
X112891190Y-53023809D01*
X112891190Y-53023809D02*
X113462619Y-53595237D01*
X113462619Y-53595237D02*
X113462619Y-52976190D01*
X113367380Y-51976190D02*
X113415000Y-52023809D01*
X113415000Y-52023809D02*
X113462619Y-52166666D01*
X113462619Y-52166666D02*
X113462619Y-52261904D01*
X113462619Y-52261904D02*
X113415000Y-52404761D01*
X113415000Y-52404761D02*
X113319761Y-52499999D01*
X113319761Y-52499999D02*
X113224523Y-52547618D01*
X113224523Y-52547618D02*
X113034047Y-52595237D01*
X113034047Y-52595237D02*
X112891190Y-52595237D01*
X112891190Y-52595237D02*
X112700714Y-52547618D01*
X112700714Y-52547618D02*
X112605476Y-52499999D01*
X112605476Y-52499999D02*
X112510238Y-52404761D01*
X112510238Y-52404761D02*
X112462619Y-52261904D01*
X112462619Y-52261904D02*
X112462619Y-52166666D01*
X112462619Y-52166666D02*
X112510238Y-52023809D01*
X112510238Y-52023809D02*
X112557857Y-51976190D01*
%TO.C,J3*%
X131962619Y-75642856D02*
X130962619Y-75642856D01*
X131295952Y-75166666D02*
X131962619Y-75166666D01*
X131391190Y-75166666D02*
X131343571Y-75119047D01*
X131343571Y-75119047D02*
X131295952Y-75023809D01*
X131295952Y-75023809D02*
X131295952Y-74880952D01*
X131295952Y-74880952D02*
X131343571Y-74785714D01*
X131343571Y-74785714D02*
X131438809Y-74738095D01*
X131438809Y-74738095D02*
X131962619Y-74738095D01*
X131295952Y-74261904D02*
X132295952Y-74261904D01*
X131343571Y-74261904D02*
X131295952Y-74166666D01*
X131295952Y-74166666D02*
X131295952Y-73976190D01*
X131295952Y-73976190D02*
X131343571Y-73880952D01*
X131343571Y-73880952D02*
X131391190Y-73833333D01*
X131391190Y-73833333D02*
X131486428Y-73785714D01*
X131486428Y-73785714D02*
X131772142Y-73785714D01*
X131772142Y-73785714D02*
X131867380Y-73833333D01*
X131867380Y-73833333D02*
X131915000Y-73880952D01*
X131915000Y-73880952D02*
X131962619Y-73976190D01*
X131962619Y-73976190D02*
X131962619Y-74166666D01*
X131962619Y-74166666D02*
X131915000Y-74261904D01*
X131295952Y-72928571D02*
X131962619Y-72928571D01*
X131295952Y-73357142D02*
X131819761Y-73357142D01*
X131819761Y-73357142D02*
X131915000Y-73309523D01*
X131915000Y-73309523D02*
X131962619Y-73214285D01*
X131962619Y-73214285D02*
X131962619Y-73071428D01*
X131962619Y-73071428D02*
X131915000Y-72976190D01*
X131915000Y-72976190D02*
X131867380Y-72928571D01*
X131295952Y-72595237D02*
X131295952Y-72214285D01*
X130962619Y-72452380D02*
X131819761Y-72452380D01*
X131819761Y-72452380D02*
X131915000Y-72404761D01*
X131915000Y-72404761D02*
X131962619Y-72309523D01*
X131962619Y-72309523D02*
X131962619Y-72214285D01*
%TO.C,R3*%
X119333333Y-76962619D02*
X119000000Y-76486428D01*
X118761905Y-76962619D02*
X118761905Y-75962619D01*
X118761905Y-75962619D02*
X119142857Y-75962619D01*
X119142857Y-75962619D02*
X119238095Y-76010238D01*
X119238095Y-76010238D02*
X119285714Y-76057857D01*
X119285714Y-76057857D02*
X119333333Y-76153095D01*
X119333333Y-76153095D02*
X119333333Y-76295952D01*
X119333333Y-76295952D02*
X119285714Y-76391190D01*
X119285714Y-76391190D02*
X119238095Y-76438809D01*
X119238095Y-76438809D02*
X119142857Y-76486428D01*
X119142857Y-76486428D02*
X118761905Y-76486428D01*
X119666667Y-75962619D02*
X120285714Y-75962619D01*
X120285714Y-75962619D02*
X119952381Y-76343571D01*
X119952381Y-76343571D02*
X120095238Y-76343571D01*
X120095238Y-76343571D02*
X120190476Y-76391190D01*
X120190476Y-76391190D02*
X120238095Y-76438809D01*
X120238095Y-76438809D02*
X120285714Y-76534047D01*
X120285714Y-76534047D02*
X120285714Y-76772142D01*
X120285714Y-76772142D02*
X120238095Y-76867380D01*
X120238095Y-76867380D02*
X120190476Y-76915000D01*
X120190476Y-76915000D02*
X120095238Y-76962619D01*
X120095238Y-76962619D02*
X119809524Y-76962619D01*
X119809524Y-76962619D02*
X119714286Y-76915000D01*
X119714286Y-76915000D02*
X119666667Y-76867380D01*
X121904761Y-76882619D02*
X121333333Y-76882619D01*
X121619047Y-76882619D02*
X121619047Y-75882619D01*
X121619047Y-75882619D02*
X121523809Y-76025476D01*
X121523809Y-76025476D02*
X121428571Y-76120714D01*
X121428571Y-76120714D02*
X121333333Y-76168333D01*
X122523809Y-75882619D02*
X122619047Y-75882619D01*
X122619047Y-75882619D02*
X122714285Y-75930238D01*
X122714285Y-75930238D02*
X122761904Y-75977857D01*
X122761904Y-75977857D02*
X122809523Y-76073095D01*
X122809523Y-76073095D02*
X122857142Y-76263571D01*
X122857142Y-76263571D02*
X122857142Y-76501666D01*
X122857142Y-76501666D02*
X122809523Y-76692142D01*
X122809523Y-76692142D02*
X122761904Y-76787380D01*
X122761904Y-76787380D02*
X122714285Y-76835000D01*
X122714285Y-76835000D02*
X122619047Y-76882619D01*
X122619047Y-76882619D02*
X122523809Y-76882619D01*
X122523809Y-76882619D02*
X122428571Y-76835000D01*
X122428571Y-76835000D02*
X122380952Y-76787380D01*
X122380952Y-76787380D02*
X122333333Y-76692142D01*
X122333333Y-76692142D02*
X122285714Y-76501666D01*
X122285714Y-76501666D02*
X122285714Y-76263571D01*
X122285714Y-76263571D02*
X122333333Y-76073095D01*
X122333333Y-76073095D02*
X122380952Y-75977857D01*
X122380952Y-75977857D02*
X122428571Y-75930238D01*
X122428571Y-75930238D02*
X122523809Y-75882619D01*
X123285714Y-76882619D02*
X123285714Y-75882619D01*
X123380952Y-76501666D02*
X123666666Y-76882619D01*
X123666666Y-76215952D02*
X123285714Y-76596904D01*
%TO.C,R1*%
X119333333Y-88962619D02*
X119000000Y-88486428D01*
X118761905Y-88962619D02*
X118761905Y-87962619D01*
X118761905Y-87962619D02*
X119142857Y-87962619D01*
X119142857Y-87962619D02*
X119238095Y-88010238D01*
X119238095Y-88010238D02*
X119285714Y-88057857D01*
X119285714Y-88057857D02*
X119333333Y-88153095D01*
X119333333Y-88153095D02*
X119333333Y-88295952D01*
X119333333Y-88295952D02*
X119285714Y-88391190D01*
X119285714Y-88391190D02*
X119238095Y-88438809D01*
X119238095Y-88438809D02*
X119142857Y-88486428D01*
X119142857Y-88486428D02*
X118761905Y-88486428D01*
X120285714Y-88962619D02*
X119714286Y-88962619D01*
X120000000Y-88962619D02*
X120000000Y-87962619D01*
X120000000Y-87962619D02*
X119904762Y-88105476D01*
X119904762Y-88105476D02*
X119809524Y-88200714D01*
X119809524Y-88200714D02*
X119714286Y-88248333D01*
X121738095Y-88295952D02*
X121738095Y-88962619D01*
X121500000Y-87915000D02*
X121261905Y-88629285D01*
X121261905Y-88629285D02*
X121880952Y-88629285D01*
X122166667Y-87962619D02*
X122833333Y-87962619D01*
X122833333Y-87962619D02*
X122404762Y-88962619D01*
X123404762Y-87962619D02*
X123500000Y-87962619D01*
X123500000Y-87962619D02*
X123595238Y-88010238D01*
X123595238Y-88010238D02*
X123642857Y-88057857D01*
X123642857Y-88057857D02*
X123690476Y-88153095D01*
X123690476Y-88153095D02*
X123738095Y-88343571D01*
X123738095Y-88343571D02*
X123738095Y-88581666D01*
X123738095Y-88581666D02*
X123690476Y-88772142D01*
X123690476Y-88772142D02*
X123642857Y-88867380D01*
X123642857Y-88867380D02*
X123595238Y-88915000D01*
X123595238Y-88915000D02*
X123500000Y-88962619D01*
X123500000Y-88962619D02*
X123404762Y-88962619D01*
X123404762Y-88962619D02*
X123309524Y-88915000D01*
X123309524Y-88915000D02*
X123261905Y-88867380D01*
X123261905Y-88867380D02*
X123214286Y-88772142D01*
X123214286Y-88772142D02*
X123166667Y-88581666D01*
X123166667Y-88581666D02*
X123166667Y-88343571D01*
X123166667Y-88343571D02*
X123214286Y-88153095D01*
X123214286Y-88153095D02*
X123261905Y-88057857D01*
X123261905Y-88057857D02*
X123309524Y-88010238D01*
X123309524Y-88010238D02*
X123404762Y-87962619D01*
D12*
%TO.C,J4*%
X143350000Y-65250000D02*
X143350000Y-64000000D01*
X143060000Y-64960000D02*
X143060000Y-58990000D01*
X143060000Y-58990000D02*
X135440000Y-58990000D01*
X143050000Y-64950000D02*
X143050000Y-64200000D01*
X143050000Y-64200000D02*
X141250000Y-64200000D01*
X143050000Y-62700000D02*
X142300000Y-62700000D01*
X142300000Y-62700000D02*
X142300000Y-59750000D01*
X142300000Y-59750000D02*
X139250000Y-59750000D01*
X142100000Y-65250000D02*
X143350000Y-65250000D01*
X141250000Y-64950000D02*
X143050000Y-64950000D01*
X141250000Y-64200000D02*
X141250000Y-64950000D01*
X139750000Y-64950000D02*
X139750000Y-64200000D01*
X139750000Y-64200000D02*
X138750000Y-64200000D01*
X138750000Y-64950000D02*
X139750000Y-64950000D01*
X138750000Y-64200000D02*
X138750000Y-64950000D01*
X137250000Y-64950000D02*
X137250000Y-64200000D01*
X137250000Y-64200000D02*
X135450000Y-64200000D01*
X136200000Y-62700000D02*
X136200000Y-59750000D01*
X136200000Y-59750000D02*
X139250000Y-59750000D01*
X135450000Y-64950000D02*
X137250000Y-64950000D01*
X135450000Y-64200000D02*
X135450000Y-64950000D01*
X135450000Y-62700000D02*
X136200000Y-62700000D01*
X135440000Y-64960000D02*
X143060000Y-64960000D01*
X135440000Y-58990000D02*
X135440000Y-64960000D01*
%TO.C,R2*%
X117940000Y-78500000D02*
X118890000Y-78500000D01*
X118890000Y-77580000D02*
X118890000Y-79420000D01*
X118890000Y-79420000D02*
X122730000Y-79420000D01*
X122730000Y-77580000D02*
X118890000Y-77580000D01*
X122730000Y-79420000D02*
X122730000Y-77580000D01*
X123680000Y-78500000D02*
X122730000Y-78500000D01*
%TO.C,J2*%
X143350000Y-88250000D02*
X143350000Y-87000000D01*
X143060000Y-87960000D02*
X143060000Y-81990000D01*
X143060000Y-81990000D02*
X132940000Y-81990000D01*
X143050000Y-87950000D02*
X143050000Y-87200000D01*
X143050000Y-87200000D02*
X141250000Y-87200000D01*
X143050000Y-85700000D02*
X142300000Y-85700000D01*
X142300000Y-85700000D02*
X142300000Y-82750000D01*
X142300000Y-82750000D02*
X138000000Y-82750000D01*
X142100000Y-88250000D02*
X143350000Y-88250000D01*
X141250000Y-87950000D02*
X143050000Y-87950000D01*
X141250000Y-87200000D02*
X141250000Y-87950000D01*
X139750000Y-87950000D02*
X139750000Y-87200000D01*
X139750000Y-87200000D02*
X136250000Y-87200000D01*
X136250000Y-87950000D02*
X139750000Y-87950000D01*
X136250000Y-87200000D02*
X136250000Y-87950000D01*
X134750000Y-87950000D02*
X134750000Y-87200000D01*
X134750000Y-87200000D02*
X132950000Y-87200000D01*
X133700000Y-85700000D02*
X133700000Y-82750000D01*
X133700000Y-82750000D02*
X138000000Y-82750000D01*
X132950000Y-87950000D02*
X134750000Y-87950000D01*
X132950000Y-87200000D02*
X132950000Y-87950000D01*
X132950000Y-85700000D02*
X133700000Y-85700000D01*
X132940000Y-87960000D02*
X143060000Y-87960000D01*
X132940000Y-81990000D02*
X132940000Y-87960000D01*
%TO.C,J1*%
X132960000Y-94190000D02*
X132960000Y-101810000D01*
X132960000Y-101810000D02*
X143120000Y-101810000D01*
X143120000Y-94190000D02*
X132960000Y-94190000D01*
X143120000Y-100540000D02*
X132960000Y-100540000D01*
X143120000Y-101810000D02*
X143120000Y-94190000D01*
%TO.C,R4*%
X117940000Y-82500000D02*
X118890000Y-82500000D01*
X118890000Y-81580000D02*
X118890000Y-83420000D01*
X118890000Y-83420000D02*
X122730000Y-83420000D01*
X122730000Y-81580000D02*
X118890000Y-81580000D01*
X122730000Y-83420000D02*
X122730000Y-81580000D01*
X123680000Y-82500000D02*
X122730000Y-82500000D01*
%TO.C,J5*%
X127350000Y-56250000D02*
X127350000Y-55000000D01*
X127060000Y-55960000D02*
X127060000Y-49990000D01*
X127060000Y-49990000D02*
X114440000Y-49990000D01*
X127050000Y-55950000D02*
X127050000Y-55200000D01*
X127050000Y-55200000D02*
X125250000Y-55200000D01*
X127050000Y-53700000D02*
X126300000Y-53700000D01*
X126300000Y-53700000D02*
X126300000Y-50750000D01*
X126300000Y-50750000D02*
X120750000Y-50750000D01*
X126100000Y-56250000D02*
X127350000Y-56250000D01*
X125250000Y-55950000D02*
X127050000Y-55950000D01*
X125250000Y-55200000D02*
X125250000Y-55950000D01*
X123750000Y-55950000D02*
X123750000Y-55200000D01*
X123750000Y-55200000D02*
X117750000Y-55200000D01*
X117750000Y-55950000D02*
X123750000Y-55950000D01*
X117750000Y-55200000D02*
X117750000Y-55950000D01*
X116250000Y-55950000D02*
X116250000Y-55200000D01*
X116250000Y-55200000D02*
X114450000Y-55200000D01*
X115200000Y-53700000D02*
X115200000Y-50750000D01*
X115200000Y-50750000D02*
X120750000Y-50750000D01*
X114450000Y-55950000D02*
X116250000Y-55950000D01*
X114450000Y-55200000D02*
X114450000Y-55950000D01*
X114450000Y-53700000D02*
X115200000Y-53700000D01*
X114440000Y-55960000D02*
X127060000Y-55960000D01*
X114440000Y-49990000D02*
X114440000Y-55960000D01*
%TO.C,J3*%
X143350000Y-77250000D02*
X143350000Y-76000000D01*
X143060000Y-76960000D02*
X143060000Y-70990000D01*
X143060000Y-70990000D02*
X132940000Y-70990000D01*
X143050000Y-76950000D02*
X143050000Y-76200000D01*
X143050000Y-76200000D02*
X141250000Y-76200000D01*
X143050000Y-74700000D02*
X142300000Y-74700000D01*
X142300000Y-74700000D02*
X142300000Y-71750000D01*
X142300000Y-71750000D02*
X138000000Y-71750000D01*
X142100000Y-77250000D02*
X143350000Y-77250000D01*
X141250000Y-76950000D02*
X143050000Y-76950000D01*
X141250000Y-76200000D02*
X141250000Y-76950000D01*
X139750000Y-76950000D02*
X139750000Y-76200000D01*
X139750000Y-76200000D02*
X136250000Y-76200000D01*
X136250000Y-76950000D02*
X139750000Y-76950000D01*
X136250000Y-76200000D02*
X136250000Y-76950000D01*
X134750000Y-76950000D02*
X134750000Y-76200000D01*
X134750000Y-76200000D02*
X132950000Y-76200000D01*
X133700000Y-74700000D02*
X133700000Y-71750000D01*
X133700000Y-71750000D02*
X138000000Y-71750000D01*
X132950000Y-76950000D02*
X134750000Y-76950000D01*
X132950000Y-76200000D02*
X132950000Y-76950000D01*
X132950000Y-74700000D02*
X133700000Y-74700000D01*
X132940000Y-76960000D02*
X143060000Y-76960000D01*
X132940000Y-70990000D02*
X132940000Y-76960000D01*
%TO.C,R3*%
X117940000Y-74500000D02*
X118890000Y-74500000D01*
X118890000Y-73580000D02*
X118890000Y-75420000D01*
X118890000Y-75420000D02*
X122730000Y-75420000D01*
X122730000Y-73580000D02*
X118890000Y-73580000D01*
X122730000Y-75420000D02*
X122730000Y-73580000D01*
X123680000Y-74500000D02*
X122730000Y-74500000D01*
%TO.C,A1*%
X111600000Y-58060000D02*
X111600000Y-60730000D01*
X111600000Y-63270000D02*
X111600000Y-101500000D01*
X111600000Y-101500000D02*
X116680000Y-101500000D01*
X114270000Y-60730000D02*
X111600000Y-60730000D01*
X114270000Y-63270000D02*
X111600000Y-63270000D01*
X114270000Y-63270000D02*
X114270000Y-60730000D01*
X114270000Y-63270000D02*
X114270000Y-98830000D01*
X114270000Y-98830000D02*
X111600000Y-98830000D01*
X116680000Y-93620000D02*
X124560000Y-93620000D01*
X116680000Y-104040000D02*
X116680000Y-93620000D01*
X124560000Y-93620000D02*
X124560000Y-104040000D01*
X124560000Y-104040000D02*
X116680000Y-104040000D01*
X126970000Y-60730000D02*
X126970000Y-98830000D01*
X126970000Y-60730000D02*
X129640000Y-60730000D01*
X126970000Y-98830000D02*
X129640000Y-98830000D01*
X129640000Y-58060000D02*
X111600000Y-58060000D01*
X129640000Y-101500000D02*
X124560000Y-101500000D01*
X129640000Y-101500000D02*
X129640000Y-58060000D01*
%TO.C,R1*%
X117940000Y-86500000D02*
X118890000Y-86500000D01*
X118890000Y-85580000D02*
X118890000Y-87420000D01*
X118890000Y-87420000D02*
X122730000Y-87420000D01*
X122730000Y-85580000D02*
X118890000Y-85580000D01*
X122730000Y-87420000D02*
X122730000Y-85580000D01*
X123680000Y-86500000D02*
X122730000Y-86500000D01*
%TD*%
M02*
