%TF.GenerationSoftware,KiCad,Pcbnew,7.0.2*%
%TF.CreationDate,2024-05-20T21:15:08+02:00*%
%TF.ProjectId,aux_axis,6175785f-6178-4697-932e-6b696361645f,rev?*%
%TF.SameCoordinates,Original*%
%TF.FileFunction,Drillmap*%
%TF.FilePolarity,Positive*%
%FSLAX45Y45*%
G04 Gerber Fmt 4.5, Leading zero omitted, Abs format (unit mm)*
G04 Created by KiCad (PCBNEW 7.0.2) date 2024-05-20 21:15:08*
%MOMM*%
%LPD*%
G01*
G04 APERTURE LIST*
%ADD10C,0.100000*%
%ADD11C,0.200000*%
%ADD12C,0.320000*%
G04 APERTURE END LIST*
D10*
X11000000Y-5300000D02*
X11000000Y-10100000D01*
X14500000Y-10100000D02*
X14500000Y-5300000D01*
X14000000Y-4800000D02*
X11500000Y-4800000D01*
X11500000Y-4800000D02*
G75*
G03*
X11000000Y-5300000I0J-500000D01*
G01*
X14000000Y-10600000D02*
G75*
G03*
X14500000Y-10100000I0J500000D01*
G01*
X14500000Y-5300000D02*
G75*
G03*
X14000000Y-4800000I-500000J0D01*
G01*
X11000000Y-10100000D02*
G75*
G03*
X11500000Y-10600000I500000J0D01*
G01*
X11500000Y-10600000D02*
X14000000Y-10600000D01*
D11*
D12*
X11840000Y-9540000D02*
X12160000Y-9860000D01*
X12160000Y-9540000D02*
X11840000Y-9860000D01*
X13840000Y-5140000D02*
X14160000Y-5460000D01*
X14160000Y-5140000D02*
X13840000Y-5460000D01*
D11*
X11242619Y-10917524D02*
X11242619Y-10717524D01*
X11242619Y-10717524D02*
X11290238Y-10717524D01*
X11290238Y-10717524D02*
X11318809Y-10727048D01*
X11318809Y-10727048D02*
X11337857Y-10746095D01*
X11337857Y-10746095D02*
X11347381Y-10765143D01*
X11347381Y-10765143D02*
X11356905Y-10803238D01*
X11356905Y-10803238D02*
X11356905Y-10831810D01*
X11356905Y-10831810D02*
X11347381Y-10869905D01*
X11347381Y-10869905D02*
X11337857Y-10888952D01*
X11337857Y-10888952D02*
X11318809Y-10908000D01*
X11318809Y-10908000D02*
X11290238Y-10917524D01*
X11290238Y-10917524D02*
X11242619Y-10917524D01*
X11442619Y-10917524D02*
X11442619Y-10784190D01*
X11442619Y-10822286D02*
X11452143Y-10803238D01*
X11452143Y-10803238D02*
X11461667Y-10793714D01*
X11461667Y-10793714D02*
X11480714Y-10784190D01*
X11480714Y-10784190D02*
X11499762Y-10784190D01*
X11566428Y-10917524D02*
X11566428Y-10784190D01*
X11566428Y-10717524D02*
X11556905Y-10727048D01*
X11556905Y-10727048D02*
X11566428Y-10736571D01*
X11566428Y-10736571D02*
X11575952Y-10727048D01*
X11575952Y-10727048D02*
X11566428Y-10717524D01*
X11566428Y-10717524D02*
X11566428Y-10736571D01*
X11690238Y-10917524D02*
X11671190Y-10908000D01*
X11671190Y-10908000D02*
X11661667Y-10888952D01*
X11661667Y-10888952D02*
X11661667Y-10717524D01*
X11795000Y-10917524D02*
X11775952Y-10908000D01*
X11775952Y-10908000D02*
X11766428Y-10888952D01*
X11766428Y-10888952D02*
X11766428Y-10717524D01*
X12023571Y-10917524D02*
X12023571Y-10717524D01*
X12023571Y-10717524D02*
X12090238Y-10860381D01*
X12090238Y-10860381D02*
X12156905Y-10717524D01*
X12156905Y-10717524D02*
X12156905Y-10917524D01*
X12337857Y-10917524D02*
X12337857Y-10812762D01*
X12337857Y-10812762D02*
X12328333Y-10793714D01*
X12328333Y-10793714D02*
X12309286Y-10784190D01*
X12309286Y-10784190D02*
X12271190Y-10784190D01*
X12271190Y-10784190D02*
X12252143Y-10793714D01*
X12337857Y-10908000D02*
X12318809Y-10917524D01*
X12318809Y-10917524D02*
X12271190Y-10917524D01*
X12271190Y-10917524D02*
X12252143Y-10908000D01*
X12252143Y-10908000D02*
X12242619Y-10888952D01*
X12242619Y-10888952D02*
X12242619Y-10869905D01*
X12242619Y-10869905D02*
X12252143Y-10850857D01*
X12252143Y-10850857D02*
X12271190Y-10841333D01*
X12271190Y-10841333D02*
X12318809Y-10841333D01*
X12318809Y-10841333D02*
X12337857Y-10831810D01*
X12433095Y-10784190D02*
X12433095Y-10984190D01*
X12433095Y-10793714D02*
X12452143Y-10784190D01*
X12452143Y-10784190D02*
X12490238Y-10784190D01*
X12490238Y-10784190D02*
X12509286Y-10793714D01*
X12509286Y-10793714D02*
X12518809Y-10803238D01*
X12518809Y-10803238D02*
X12528333Y-10822286D01*
X12528333Y-10822286D02*
X12528333Y-10879429D01*
X12528333Y-10879429D02*
X12518809Y-10898476D01*
X12518809Y-10898476D02*
X12509286Y-10908000D01*
X12509286Y-10908000D02*
X12490238Y-10917524D01*
X12490238Y-10917524D02*
X12452143Y-10917524D01*
X12452143Y-10917524D02*
X12433095Y-10908000D01*
X12614048Y-10898476D02*
X12623571Y-10908000D01*
X12623571Y-10908000D02*
X12614048Y-10917524D01*
X12614048Y-10917524D02*
X12604524Y-10908000D01*
X12604524Y-10908000D02*
X12614048Y-10898476D01*
X12614048Y-10898476D02*
X12614048Y-10917524D01*
X12614048Y-10793714D02*
X12623571Y-10803238D01*
X12623571Y-10803238D02*
X12614048Y-10812762D01*
X12614048Y-10812762D02*
X12604524Y-10803238D01*
X12604524Y-10803238D02*
X12614048Y-10793714D01*
X12614048Y-10793714D02*
X12614048Y-10812762D01*
X10795000Y-11145000D02*
X10995000Y-11345000D01*
X10995000Y-11145000D02*
X10795000Y-11345000D01*
X11223571Y-11137524D02*
X11347381Y-11137524D01*
X11347381Y-11137524D02*
X11280714Y-11213714D01*
X11280714Y-11213714D02*
X11309286Y-11213714D01*
X11309286Y-11213714D02*
X11328333Y-11223238D01*
X11328333Y-11223238D02*
X11337857Y-11232762D01*
X11337857Y-11232762D02*
X11347381Y-11251809D01*
X11347381Y-11251809D02*
X11347381Y-11299428D01*
X11347381Y-11299428D02*
X11337857Y-11318476D01*
X11337857Y-11318476D02*
X11328333Y-11328000D01*
X11328333Y-11328000D02*
X11309286Y-11337524D01*
X11309286Y-11337524D02*
X11252143Y-11337524D01*
X11252143Y-11337524D02*
X11233095Y-11328000D01*
X11233095Y-11328000D02*
X11223571Y-11318476D01*
X11433095Y-11318476D02*
X11442619Y-11328000D01*
X11442619Y-11328000D02*
X11433095Y-11337524D01*
X11433095Y-11337524D02*
X11423571Y-11328000D01*
X11423571Y-11328000D02*
X11433095Y-11318476D01*
X11433095Y-11318476D02*
X11433095Y-11337524D01*
X11518809Y-11156571D02*
X11528333Y-11147048D01*
X11528333Y-11147048D02*
X11547381Y-11137524D01*
X11547381Y-11137524D02*
X11595000Y-11137524D01*
X11595000Y-11137524D02*
X11614048Y-11147048D01*
X11614048Y-11147048D02*
X11623571Y-11156571D01*
X11623571Y-11156571D02*
X11633095Y-11175619D01*
X11633095Y-11175619D02*
X11633095Y-11194667D01*
X11633095Y-11194667D02*
X11623571Y-11223238D01*
X11623571Y-11223238D02*
X11509286Y-11337524D01*
X11509286Y-11337524D02*
X11633095Y-11337524D01*
X11756905Y-11137524D02*
X11775952Y-11137524D01*
X11775952Y-11137524D02*
X11795000Y-11147048D01*
X11795000Y-11147048D02*
X11804524Y-11156571D01*
X11804524Y-11156571D02*
X11814048Y-11175619D01*
X11814048Y-11175619D02*
X11823571Y-11213714D01*
X11823571Y-11213714D02*
X11823571Y-11261333D01*
X11823571Y-11261333D02*
X11814048Y-11299428D01*
X11814048Y-11299428D02*
X11804524Y-11318476D01*
X11804524Y-11318476D02*
X11795000Y-11328000D01*
X11795000Y-11328000D02*
X11775952Y-11337524D01*
X11775952Y-11337524D02*
X11756905Y-11337524D01*
X11756905Y-11337524D02*
X11737857Y-11328000D01*
X11737857Y-11328000D02*
X11728333Y-11318476D01*
X11728333Y-11318476D02*
X11718809Y-11299428D01*
X11718809Y-11299428D02*
X11709286Y-11261333D01*
X11709286Y-11261333D02*
X11709286Y-11213714D01*
X11709286Y-11213714D02*
X11718809Y-11175619D01*
X11718809Y-11175619D02*
X11728333Y-11156571D01*
X11728333Y-11156571D02*
X11737857Y-11147048D01*
X11737857Y-11147048D02*
X11756905Y-11137524D01*
X11947381Y-11137524D02*
X11966429Y-11137524D01*
X11966429Y-11137524D02*
X11985476Y-11147048D01*
X11985476Y-11147048D02*
X11995000Y-11156571D01*
X11995000Y-11156571D02*
X12004524Y-11175619D01*
X12004524Y-11175619D02*
X12014048Y-11213714D01*
X12014048Y-11213714D02*
X12014048Y-11261333D01*
X12014048Y-11261333D02*
X12004524Y-11299428D01*
X12004524Y-11299428D02*
X11995000Y-11318476D01*
X11995000Y-11318476D02*
X11985476Y-11328000D01*
X11985476Y-11328000D02*
X11966429Y-11337524D01*
X11966429Y-11337524D02*
X11947381Y-11337524D01*
X11947381Y-11337524D02*
X11928333Y-11328000D01*
X11928333Y-11328000D02*
X11918809Y-11318476D01*
X11918809Y-11318476D02*
X11909286Y-11299428D01*
X11909286Y-11299428D02*
X11899762Y-11261333D01*
X11899762Y-11261333D02*
X11899762Y-11213714D01*
X11899762Y-11213714D02*
X11909286Y-11175619D01*
X11909286Y-11175619D02*
X11918809Y-11156571D01*
X11918809Y-11156571D02*
X11928333Y-11147048D01*
X11928333Y-11147048D02*
X11947381Y-11137524D01*
X12099762Y-11337524D02*
X12099762Y-11204190D01*
X12099762Y-11223238D02*
X12109286Y-11213714D01*
X12109286Y-11213714D02*
X12128333Y-11204190D01*
X12128333Y-11204190D02*
X12156905Y-11204190D01*
X12156905Y-11204190D02*
X12175952Y-11213714D01*
X12175952Y-11213714D02*
X12185476Y-11232762D01*
X12185476Y-11232762D02*
X12185476Y-11337524D01*
X12185476Y-11232762D02*
X12195000Y-11213714D01*
X12195000Y-11213714D02*
X12214048Y-11204190D01*
X12214048Y-11204190D02*
X12242619Y-11204190D01*
X12242619Y-11204190D02*
X12261667Y-11213714D01*
X12261667Y-11213714D02*
X12271190Y-11232762D01*
X12271190Y-11232762D02*
X12271190Y-11337524D01*
X12366429Y-11337524D02*
X12366429Y-11204190D01*
X12366429Y-11223238D02*
X12375952Y-11213714D01*
X12375952Y-11213714D02*
X12395000Y-11204190D01*
X12395000Y-11204190D02*
X12423571Y-11204190D01*
X12423571Y-11204190D02*
X12442619Y-11213714D01*
X12442619Y-11213714D02*
X12452143Y-11232762D01*
X12452143Y-11232762D02*
X12452143Y-11337524D01*
X12452143Y-11232762D02*
X12461667Y-11213714D01*
X12461667Y-11213714D02*
X12480714Y-11204190D01*
X12480714Y-11204190D02*
X12509286Y-11204190D01*
X12509286Y-11204190D02*
X12528333Y-11213714D01*
X12528333Y-11213714D02*
X12537857Y-11232762D01*
X12537857Y-11232762D02*
X12537857Y-11337524D01*
X12928333Y-11128000D02*
X12756905Y-11385143D01*
X13185476Y-11137524D02*
X13204524Y-11137524D01*
X13204524Y-11137524D02*
X13223572Y-11147048D01*
X13223572Y-11147048D02*
X13233095Y-11156571D01*
X13233095Y-11156571D02*
X13242619Y-11175619D01*
X13242619Y-11175619D02*
X13252143Y-11213714D01*
X13252143Y-11213714D02*
X13252143Y-11261333D01*
X13252143Y-11261333D02*
X13242619Y-11299428D01*
X13242619Y-11299428D02*
X13233095Y-11318476D01*
X13233095Y-11318476D02*
X13223572Y-11328000D01*
X13223572Y-11328000D02*
X13204524Y-11337524D01*
X13204524Y-11337524D02*
X13185476Y-11337524D01*
X13185476Y-11337524D02*
X13166429Y-11328000D01*
X13166429Y-11328000D02*
X13156905Y-11318476D01*
X13156905Y-11318476D02*
X13147381Y-11299428D01*
X13147381Y-11299428D02*
X13137857Y-11261333D01*
X13137857Y-11261333D02*
X13137857Y-11213714D01*
X13137857Y-11213714D02*
X13147381Y-11175619D01*
X13147381Y-11175619D02*
X13156905Y-11156571D01*
X13156905Y-11156571D02*
X13166429Y-11147048D01*
X13166429Y-11147048D02*
X13185476Y-11137524D01*
X13337857Y-11318476D02*
X13347381Y-11328000D01*
X13347381Y-11328000D02*
X13337857Y-11337524D01*
X13337857Y-11337524D02*
X13328333Y-11328000D01*
X13328333Y-11328000D02*
X13337857Y-11318476D01*
X13337857Y-11318476D02*
X13337857Y-11337524D01*
X13537857Y-11337524D02*
X13423572Y-11337524D01*
X13480714Y-11337524D02*
X13480714Y-11137524D01*
X13480714Y-11137524D02*
X13461667Y-11166095D01*
X13461667Y-11166095D02*
X13442619Y-11185143D01*
X13442619Y-11185143D02*
X13423572Y-11194667D01*
X13614048Y-11156571D02*
X13623572Y-11147048D01*
X13623572Y-11147048D02*
X13642619Y-11137524D01*
X13642619Y-11137524D02*
X13690238Y-11137524D01*
X13690238Y-11137524D02*
X13709286Y-11147048D01*
X13709286Y-11147048D02*
X13718810Y-11156571D01*
X13718810Y-11156571D02*
X13728333Y-11175619D01*
X13728333Y-11175619D02*
X13728333Y-11194667D01*
X13728333Y-11194667D02*
X13718810Y-11223238D01*
X13718810Y-11223238D02*
X13604524Y-11337524D01*
X13604524Y-11337524D02*
X13728333Y-11337524D01*
X13899762Y-11137524D02*
X13861667Y-11137524D01*
X13861667Y-11137524D02*
X13842619Y-11147048D01*
X13842619Y-11147048D02*
X13833095Y-11156571D01*
X13833095Y-11156571D02*
X13814048Y-11185143D01*
X13814048Y-11185143D02*
X13804524Y-11223238D01*
X13804524Y-11223238D02*
X13804524Y-11299428D01*
X13804524Y-11299428D02*
X13814048Y-11318476D01*
X13814048Y-11318476D02*
X13823572Y-11328000D01*
X13823572Y-11328000D02*
X13842619Y-11337524D01*
X13842619Y-11337524D02*
X13880714Y-11337524D01*
X13880714Y-11337524D02*
X13899762Y-11328000D01*
X13899762Y-11328000D02*
X13909286Y-11318476D01*
X13909286Y-11318476D02*
X13918810Y-11299428D01*
X13918810Y-11299428D02*
X13918810Y-11251809D01*
X13918810Y-11251809D02*
X13909286Y-11232762D01*
X13909286Y-11232762D02*
X13899762Y-11223238D01*
X13899762Y-11223238D02*
X13880714Y-11213714D01*
X13880714Y-11213714D02*
X13842619Y-11213714D01*
X13842619Y-11213714D02*
X13823572Y-11223238D01*
X13823572Y-11223238D02*
X13814048Y-11232762D01*
X13814048Y-11232762D02*
X13804524Y-11251809D01*
X14042619Y-11137524D02*
X14061667Y-11137524D01*
X14061667Y-11137524D02*
X14080714Y-11147048D01*
X14080714Y-11147048D02*
X14090238Y-11156571D01*
X14090238Y-11156571D02*
X14099762Y-11175619D01*
X14099762Y-11175619D02*
X14109286Y-11213714D01*
X14109286Y-11213714D02*
X14109286Y-11261333D01*
X14109286Y-11261333D02*
X14099762Y-11299428D01*
X14099762Y-11299428D02*
X14090238Y-11318476D01*
X14090238Y-11318476D02*
X14080714Y-11328000D01*
X14080714Y-11328000D02*
X14061667Y-11337524D01*
X14061667Y-11337524D02*
X14042619Y-11337524D01*
X14042619Y-11337524D02*
X14023572Y-11328000D01*
X14023572Y-11328000D02*
X14014048Y-11318476D01*
X14014048Y-11318476D02*
X14004524Y-11299428D01*
X14004524Y-11299428D02*
X13995000Y-11261333D01*
X13995000Y-11261333D02*
X13995000Y-11213714D01*
X13995000Y-11213714D02*
X14004524Y-11175619D01*
X14004524Y-11175619D02*
X14014048Y-11156571D01*
X14014048Y-11156571D02*
X14023572Y-11147048D01*
X14023572Y-11147048D02*
X14042619Y-11137524D01*
X14185476Y-11137524D02*
X14185476Y-11175619D01*
X14261667Y-11137524D02*
X14261667Y-11175619D01*
X14556905Y-11413714D02*
X14547381Y-11404190D01*
X14547381Y-11404190D02*
X14528334Y-11375619D01*
X14528334Y-11375619D02*
X14518810Y-11356571D01*
X14518810Y-11356571D02*
X14509286Y-11328000D01*
X14509286Y-11328000D02*
X14499762Y-11280381D01*
X14499762Y-11280381D02*
X14499762Y-11242286D01*
X14499762Y-11242286D02*
X14509286Y-11194667D01*
X14509286Y-11194667D02*
X14518810Y-11166095D01*
X14518810Y-11166095D02*
X14528334Y-11147048D01*
X14528334Y-11147048D02*
X14547381Y-11118476D01*
X14547381Y-11118476D02*
X14556905Y-11108952D01*
X14623572Y-11156571D02*
X14633095Y-11147048D01*
X14633095Y-11147048D02*
X14652143Y-11137524D01*
X14652143Y-11137524D02*
X14699762Y-11137524D01*
X14699762Y-11137524D02*
X14718810Y-11147048D01*
X14718810Y-11147048D02*
X14728334Y-11156571D01*
X14728334Y-11156571D02*
X14737857Y-11175619D01*
X14737857Y-11175619D02*
X14737857Y-11194667D01*
X14737857Y-11194667D02*
X14728334Y-11223238D01*
X14728334Y-11223238D02*
X14614048Y-11337524D01*
X14614048Y-11337524D02*
X14737857Y-11337524D01*
X14975953Y-11337524D02*
X14975953Y-11137524D01*
X15061667Y-11337524D02*
X15061667Y-11232762D01*
X15061667Y-11232762D02*
X15052143Y-11213714D01*
X15052143Y-11213714D02*
X15033096Y-11204190D01*
X15033096Y-11204190D02*
X15004524Y-11204190D01*
X15004524Y-11204190D02*
X14985476Y-11213714D01*
X14985476Y-11213714D02*
X14975953Y-11223238D01*
X15185476Y-11337524D02*
X15166429Y-11328000D01*
X15166429Y-11328000D02*
X15156905Y-11318476D01*
X15156905Y-11318476D02*
X15147381Y-11299428D01*
X15147381Y-11299428D02*
X15147381Y-11242286D01*
X15147381Y-11242286D02*
X15156905Y-11223238D01*
X15156905Y-11223238D02*
X15166429Y-11213714D01*
X15166429Y-11213714D02*
X15185476Y-11204190D01*
X15185476Y-11204190D02*
X15214048Y-11204190D01*
X15214048Y-11204190D02*
X15233096Y-11213714D01*
X15233096Y-11213714D02*
X15242619Y-11223238D01*
X15242619Y-11223238D02*
X15252143Y-11242286D01*
X15252143Y-11242286D02*
X15252143Y-11299428D01*
X15252143Y-11299428D02*
X15242619Y-11318476D01*
X15242619Y-11318476D02*
X15233096Y-11328000D01*
X15233096Y-11328000D02*
X15214048Y-11337524D01*
X15214048Y-11337524D02*
X15185476Y-11337524D01*
X15366429Y-11337524D02*
X15347381Y-11328000D01*
X15347381Y-11328000D02*
X15337857Y-11308952D01*
X15337857Y-11308952D02*
X15337857Y-11137524D01*
X15518810Y-11328000D02*
X15499762Y-11337524D01*
X15499762Y-11337524D02*
X15461667Y-11337524D01*
X15461667Y-11337524D02*
X15442619Y-11328000D01*
X15442619Y-11328000D02*
X15433096Y-11308952D01*
X15433096Y-11308952D02*
X15433096Y-11232762D01*
X15433096Y-11232762D02*
X15442619Y-11213714D01*
X15442619Y-11213714D02*
X15461667Y-11204190D01*
X15461667Y-11204190D02*
X15499762Y-11204190D01*
X15499762Y-11204190D02*
X15518810Y-11213714D01*
X15518810Y-11213714D02*
X15528334Y-11232762D01*
X15528334Y-11232762D02*
X15528334Y-11251809D01*
X15528334Y-11251809D02*
X15433096Y-11270857D01*
X15604524Y-11328000D02*
X15623572Y-11337524D01*
X15623572Y-11337524D02*
X15661667Y-11337524D01*
X15661667Y-11337524D02*
X15680715Y-11328000D01*
X15680715Y-11328000D02*
X15690238Y-11308952D01*
X15690238Y-11308952D02*
X15690238Y-11299428D01*
X15690238Y-11299428D02*
X15680715Y-11280381D01*
X15680715Y-11280381D02*
X15661667Y-11270857D01*
X15661667Y-11270857D02*
X15633096Y-11270857D01*
X15633096Y-11270857D02*
X15614048Y-11261333D01*
X15614048Y-11261333D02*
X15604524Y-11242286D01*
X15604524Y-11242286D02*
X15604524Y-11232762D01*
X15604524Y-11232762D02*
X15614048Y-11213714D01*
X15614048Y-11213714D02*
X15633096Y-11204190D01*
X15633096Y-11204190D02*
X15661667Y-11204190D01*
X15661667Y-11204190D02*
X15680715Y-11213714D01*
X15756905Y-11413714D02*
X15766429Y-11404190D01*
X15766429Y-11404190D02*
X15785477Y-11375619D01*
X15785477Y-11375619D02*
X15795000Y-11356571D01*
X15795000Y-11356571D02*
X15804524Y-11328000D01*
X15804524Y-11328000D02*
X15814048Y-11280381D01*
X15814048Y-11280381D02*
X15814048Y-11242286D01*
X15814048Y-11242286D02*
X15804524Y-11194667D01*
X15804524Y-11194667D02*
X15795000Y-11166095D01*
X15795000Y-11166095D02*
X15785477Y-11147048D01*
X15785477Y-11147048D02*
X15766429Y-11118476D01*
X15766429Y-11118476D02*
X15756905Y-11108952D01*
X16118810Y-11413714D02*
X16109286Y-11404190D01*
X16109286Y-11404190D02*
X16090238Y-11375619D01*
X16090238Y-11375619D02*
X16080715Y-11356571D01*
X16080715Y-11356571D02*
X16071191Y-11328000D01*
X16071191Y-11328000D02*
X16061667Y-11280381D01*
X16061667Y-11280381D02*
X16061667Y-11242286D01*
X16061667Y-11242286D02*
X16071191Y-11194667D01*
X16071191Y-11194667D02*
X16080715Y-11166095D01*
X16080715Y-11166095D02*
X16090238Y-11147048D01*
X16090238Y-11147048D02*
X16109286Y-11118476D01*
X16109286Y-11118476D02*
X16118810Y-11108952D01*
X16195000Y-11204190D02*
X16195000Y-11337524D01*
X16195000Y-11223238D02*
X16204524Y-11213714D01*
X16204524Y-11213714D02*
X16223572Y-11204190D01*
X16223572Y-11204190D02*
X16252143Y-11204190D01*
X16252143Y-11204190D02*
X16271191Y-11213714D01*
X16271191Y-11213714D02*
X16280715Y-11232762D01*
X16280715Y-11232762D02*
X16280715Y-11337524D01*
X16404524Y-11337524D02*
X16385477Y-11328000D01*
X16385477Y-11328000D02*
X16375953Y-11318476D01*
X16375953Y-11318476D02*
X16366429Y-11299428D01*
X16366429Y-11299428D02*
X16366429Y-11242286D01*
X16366429Y-11242286D02*
X16375953Y-11223238D01*
X16375953Y-11223238D02*
X16385477Y-11213714D01*
X16385477Y-11213714D02*
X16404524Y-11204190D01*
X16404524Y-11204190D02*
X16433096Y-11204190D01*
X16433096Y-11204190D02*
X16452143Y-11213714D01*
X16452143Y-11213714D02*
X16461667Y-11223238D01*
X16461667Y-11223238D02*
X16471191Y-11242286D01*
X16471191Y-11242286D02*
X16471191Y-11299428D01*
X16471191Y-11299428D02*
X16461667Y-11318476D01*
X16461667Y-11318476D02*
X16452143Y-11328000D01*
X16452143Y-11328000D02*
X16433096Y-11337524D01*
X16433096Y-11337524D02*
X16404524Y-11337524D01*
X16528334Y-11204190D02*
X16604524Y-11204190D01*
X16556905Y-11137524D02*
X16556905Y-11308952D01*
X16556905Y-11308952D02*
X16566429Y-11328000D01*
X16566429Y-11328000D02*
X16585477Y-11337524D01*
X16585477Y-11337524D02*
X16604524Y-11337524D01*
X16823572Y-11204190D02*
X16823572Y-11404190D01*
X16823572Y-11213714D02*
X16842620Y-11204190D01*
X16842620Y-11204190D02*
X16880715Y-11204190D01*
X16880715Y-11204190D02*
X16899762Y-11213714D01*
X16899762Y-11213714D02*
X16909286Y-11223238D01*
X16909286Y-11223238D02*
X16918810Y-11242286D01*
X16918810Y-11242286D02*
X16918810Y-11299428D01*
X16918810Y-11299428D02*
X16909286Y-11318476D01*
X16909286Y-11318476D02*
X16899762Y-11328000D01*
X16899762Y-11328000D02*
X16880715Y-11337524D01*
X16880715Y-11337524D02*
X16842620Y-11337524D01*
X16842620Y-11337524D02*
X16823572Y-11328000D01*
X17033096Y-11337524D02*
X17014048Y-11328000D01*
X17014048Y-11328000D02*
X17004524Y-11308952D01*
X17004524Y-11308952D02*
X17004524Y-11137524D01*
X17195001Y-11337524D02*
X17195001Y-11232762D01*
X17195001Y-11232762D02*
X17185477Y-11213714D01*
X17185477Y-11213714D02*
X17166429Y-11204190D01*
X17166429Y-11204190D02*
X17128334Y-11204190D01*
X17128334Y-11204190D02*
X17109286Y-11213714D01*
X17195001Y-11328000D02*
X17175953Y-11337524D01*
X17175953Y-11337524D02*
X17128334Y-11337524D01*
X17128334Y-11337524D02*
X17109286Y-11328000D01*
X17109286Y-11328000D02*
X17099762Y-11308952D01*
X17099762Y-11308952D02*
X17099762Y-11289905D01*
X17099762Y-11289905D02*
X17109286Y-11270857D01*
X17109286Y-11270857D02*
X17128334Y-11261333D01*
X17128334Y-11261333D02*
X17175953Y-11261333D01*
X17175953Y-11261333D02*
X17195001Y-11251809D01*
X17261667Y-11204190D02*
X17337858Y-11204190D01*
X17290239Y-11137524D02*
X17290239Y-11308952D01*
X17290239Y-11308952D02*
X17299762Y-11328000D01*
X17299762Y-11328000D02*
X17318810Y-11337524D01*
X17318810Y-11337524D02*
X17337858Y-11337524D01*
X17480715Y-11328000D02*
X17461667Y-11337524D01*
X17461667Y-11337524D02*
X17423572Y-11337524D01*
X17423572Y-11337524D02*
X17404524Y-11328000D01*
X17404524Y-11328000D02*
X17395001Y-11308952D01*
X17395001Y-11308952D02*
X17395001Y-11232762D01*
X17395001Y-11232762D02*
X17404524Y-11213714D01*
X17404524Y-11213714D02*
X17423572Y-11204190D01*
X17423572Y-11204190D02*
X17461667Y-11204190D01*
X17461667Y-11204190D02*
X17480715Y-11213714D01*
X17480715Y-11213714D02*
X17490239Y-11232762D01*
X17490239Y-11232762D02*
X17490239Y-11251809D01*
X17490239Y-11251809D02*
X17395001Y-11270857D01*
X17661667Y-11337524D02*
X17661667Y-11137524D01*
X17661667Y-11328000D02*
X17642620Y-11337524D01*
X17642620Y-11337524D02*
X17604524Y-11337524D01*
X17604524Y-11337524D02*
X17585477Y-11328000D01*
X17585477Y-11328000D02*
X17575953Y-11318476D01*
X17575953Y-11318476D02*
X17566429Y-11299428D01*
X17566429Y-11299428D02*
X17566429Y-11242286D01*
X17566429Y-11242286D02*
X17575953Y-11223238D01*
X17575953Y-11223238D02*
X17585477Y-11213714D01*
X17585477Y-11213714D02*
X17604524Y-11204190D01*
X17604524Y-11204190D02*
X17642620Y-11204190D01*
X17642620Y-11204190D02*
X17661667Y-11213714D01*
X17737858Y-11413714D02*
X17747382Y-11404190D01*
X17747382Y-11404190D02*
X17766429Y-11375619D01*
X17766429Y-11375619D02*
X17775953Y-11356571D01*
X17775953Y-11356571D02*
X17785477Y-11328000D01*
X17785477Y-11328000D02*
X17795001Y-11280381D01*
X17795001Y-11280381D02*
X17795001Y-11242286D01*
X17795001Y-11242286D02*
X17785477Y-11194667D01*
X17785477Y-11194667D02*
X17775953Y-11166095D01*
X17775953Y-11166095D02*
X17766429Y-11147048D01*
X17766429Y-11147048D02*
X17747382Y-11118476D01*
X17747382Y-11118476D02*
X17737858Y-11108952D01*
M02*
