%TF.GenerationSoftware,KiCad,Pcbnew,7.0.2*%
%TF.CreationDate,2024-05-20T21:15:05+02:00*%
%TF.ProjectId,aux_axis,6175785f-6178-4697-932e-6b696361645f,rev?*%
%TF.SameCoordinates,Original*%
%TF.FileFunction,Legend,Bot*%
%TF.FilePolarity,Positive*%
%FSLAX46Y46*%
G04 Gerber Fmt 4.6, Leading zero omitted, Abs format (unit mm)*
G04 Created by KiCad (PCBNEW 7.0.2) date 2024-05-20 21:15:05*
%MOMM*%
%LPD*%
G01*
G04 APERTURE LIST*
%ADD10C,0.150000*%
G04 APERTURE END LIST*
D10*
X131507619Y-50666666D02*
X130507619Y-50666666D01*
X131460000Y-50666666D02*
X131507619Y-50571428D01*
X131507619Y-50571428D02*
X131507619Y-50380952D01*
X131507619Y-50380952D02*
X131460000Y-50285714D01*
X131460000Y-50285714D02*
X131412380Y-50238095D01*
X131412380Y-50238095D02*
X131317142Y-50190476D01*
X131317142Y-50190476D02*
X131031428Y-50190476D01*
X131031428Y-50190476D02*
X130936190Y-50238095D01*
X130936190Y-50238095D02*
X130888571Y-50285714D01*
X130888571Y-50285714D02*
X130840952Y-50380952D01*
X130840952Y-50380952D02*
X130840952Y-50571428D01*
X130840952Y-50571428D02*
X130888571Y-50666666D01*
X131460000Y-51523809D02*
X131507619Y-51428571D01*
X131507619Y-51428571D02*
X131507619Y-51238095D01*
X131507619Y-51238095D02*
X131460000Y-51142857D01*
X131460000Y-51142857D02*
X131364761Y-51095238D01*
X131364761Y-51095238D02*
X130983809Y-51095238D01*
X130983809Y-51095238D02*
X130888571Y-51142857D01*
X130888571Y-51142857D02*
X130840952Y-51238095D01*
X130840952Y-51238095D02*
X130840952Y-51428571D01*
X130840952Y-51428571D02*
X130888571Y-51523809D01*
X130888571Y-51523809D02*
X130983809Y-51571428D01*
X130983809Y-51571428D02*
X131079047Y-51571428D01*
X131079047Y-51571428D02*
X131174285Y-51095238D01*
X131460000Y-51952381D02*
X131507619Y-52047619D01*
X131507619Y-52047619D02*
X131507619Y-52238095D01*
X131507619Y-52238095D02*
X131460000Y-52333333D01*
X131460000Y-52333333D02*
X131364761Y-52380952D01*
X131364761Y-52380952D02*
X131317142Y-52380952D01*
X131317142Y-52380952D02*
X131221904Y-52333333D01*
X131221904Y-52333333D02*
X131174285Y-52238095D01*
X131174285Y-52238095D02*
X131174285Y-52095238D01*
X131174285Y-52095238D02*
X131126666Y-52000000D01*
X131126666Y-52000000D02*
X131031428Y-51952381D01*
X131031428Y-51952381D02*
X130983809Y-51952381D01*
X130983809Y-51952381D02*
X130888571Y-52000000D01*
X130888571Y-52000000D02*
X130840952Y-52095238D01*
X130840952Y-52095238D02*
X130840952Y-52238095D01*
X130840952Y-52238095D02*
X130888571Y-52333333D01*
X131507619Y-52809524D02*
X130840952Y-52809524D01*
X130507619Y-52809524D02*
X130555238Y-52761905D01*
X130555238Y-52761905D02*
X130602857Y-52809524D01*
X130602857Y-52809524D02*
X130555238Y-52857143D01*
X130555238Y-52857143D02*
X130507619Y-52809524D01*
X130507619Y-52809524D02*
X130602857Y-52809524D01*
X130840952Y-53714285D02*
X131650476Y-53714285D01*
X131650476Y-53714285D02*
X131745714Y-53666666D01*
X131745714Y-53666666D02*
X131793333Y-53619047D01*
X131793333Y-53619047D02*
X131840952Y-53523809D01*
X131840952Y-53523809D02*
X131840952Y-53380952D01*
X131840952Y-53380952D02*
X131793333Y-53285714D01*
X131460000Y-53714285D02*
X131507619Y-53619047D01*
X131507619Y-53619047D02*
X131507619Y-53428571D01*
X131507619Y-53428571D02*
X131460000Y-53333333D01*
X131460000Y-53333333D02*
X131412380Y-53285714D01*
X131412380Y-53285714D02*
X131317142Y-53238095D01*
X131317142Y-53238095D02*
X131031428Y-53238095D01*
X131031428Y-53238095D02*
X130936190Y-53285714D01*
X130936190Y-53285714D02*
X130888571Y-53333333D01*
X130888571Y-53333333D02*
X130840952Y-53428571D01*
X130840952Y-53428571D02*
X130840952Y-53619047D01*
X130840952Y-53619047D02*
X130888571Y-53714285D01*
X130840952Y-54190476D02*
X131507619Y-54190476D01*
X130936190Y-54190476D02*
X130888571Y-54238095D01*
X130888571Y-54238095D02*
X130840952Y-54333333D01*
X130840952Y-54333333D02*
X130840952Y-54476190D01*
X130840952Y-54476190D02*
X130888571Y-54571428D01*
X130888571Y-54571428D02*
X130983809Y-54619047D01*
X130983809Y-54619047D02*
X131507619Y-54619047D01*
X131507619Y-55857143D02*
X130507619Y-55857143D01*
X130888571Y-55857143D02*
X130840952Y-55952381D01*
X130840952Y-55952381D02*
X130840952Y-56142857D01*
X130840952Y-56142857D02*
X130888571Y-56238095D01*
X130888571Y-56238095D02*
X130936190Y-56285714D01*
X130936190Y-56285714D02*
X131031428Y-56333333D01*
X131031428Y-56333333D02*
X131317142Y-56333333D01*
X131317142Y-56333333D02*
X131412380Y-56285714D01*
X131412380Y-56285714D02*
X131460000Y-56238095D01*
X131460000Y-56238095D02*
X131507619Y-56142857D01*
X131507619Y-56142857D02*
X131507619Y-55952381D01*
X131507619Y-55952381D02*
X131460000Y-55857143D01*
X130840952Y-56666667D02*
X131507619Y-56904762D01*
X130840952Y-57142857D02*
X131507619Y-56904762D01*
X131507619Y-56904762D02*
X131745714Y-56809524D01*
X131745714Y-56809524D02*
X131793333Y-56761905D01*
X131793333Y-56761905D02*
X131840952Y-56666667D01*
X131460000Y-58238096D02*
X131507619Y-58380953D01*
X131507619Y-58380953D02*
X131507619Y-58619048D01*
X131507619Y-58619048D02*
X131460000Y-58714286D01*
X131460000Y-58714286D02*
X131412380Y-58761905D01*
X131412380Y-58761905D02*
X131317142Y-58809524D01*
X131317142Y-58809524D02*
X131221904Y-58809524D01*
X131221904Y-58809524D02*
X131126666Y-58761905D01*
X131126666Y-58761905D02*
X131079047Y-58714286D01*
X131079047Y-58714286D02*
X131031428Y-58619048D01*
X131031428Y-58619048D02*
X130983809Y-58428572D01*
X130983809Y-58428572D02*
X130936190Y-58333334D01*
X130936190Y-58333334D02*
X130888571Y-58285715D01*
X130888571Y-58285715D02*
X130793333Y-58238096D01*
X130793333Y-58238096D02*
X130698095Y-58238096D01*
X130698095Y-58238096D02*
X130602857Y-58285715D01*
X130602857Y-58285715D02*
X130555238Y-58333334D01*
X130555238Y-58333334D02*
X130507619Y-58428572D01*
X130507619Y-58428572D02*
X130507619Y-58666667D01*
X130507619Y-58666667D02*
X130555238Y-58809524D01*
X131507619Y-59238096D02*
X130840952Y-59238096D01*
X130507619Y-59238096D02*
X130555238Y-59190477D01*
X130555238Y-59190477D02*
X130602857Y-59238096D01*
X130602857Y-59238096D02*
X130555238Y-59285715D01*
X130555238Y-59285715D02*
X130507619Y-59238096D01*
X130507619Y-59238096D02*
X130602857Y-59238096D01*
X131507619Y-59714286D02*
X130840952Y-59714286D01*
X130936190Y-59714286D02*
X130888571Y-59761905D01*
X130888571Y-59761905D02*
X130840952Y-59857143D01*
X130840952Y-59857143D02*
X130840952Y-60000000D01*
X130840952Y-60000000D02*
X130888571Y-60095238D01*
X130888571Y-60095238D02*
X130983809Y-60142857D01*
X130983809Y-60142857D02*
X131507619Y-60142857D01*
X130983809Y-60142857D02*
X130888571Y-60190476D01*
X130888571Y-60190476D02*
X130840952Y-60285714D01*
X130840952Y-60285714D02*
X130840952Y-60428571D01*
X130840952Y-60428571D02*
X130888571Y-60523810D01*
X130888571Y-60523810D02*
X130983809Y-60571429D01*
X130983809Y-60571429D02*
X131507619Y-60571429D01*
X131507619Y-61190476D02*
X131460000Y-61095238D01*
X131460000Y-61095238D02*
X131412380Y-61047619D01*
X131412380Y-61047619D02*
X131317142Y-61000000D01*
X131317142Y-61000000D02*
X131031428Y-61000000D01*
X131031428Y-61000000D02*
X130936190Y-61047619D01*
X130936190Y-61047619D02*
X130888571Y-61095238D01*
X130888571Y-61095238D02*
X130840952Y-61190476D01*
X130840952Y-61190476D02*
X130840952Y-61333333D01*
X130840952Y-61333333D02*
X130888571Y-61428571D01*
X130888571Y-61428571D02*
X130936190Y-61476190D01*
X130936190Y-61476190D02*
X131031428Y-61523809D01*
X131031428Y-61523809D02*
X131317142Y-61523809D01*
X131317142Y-61523809D02*
X131412380Y-61476190D01*
X131412380Y-61476190D02*
X131460000Y-61428571D01*
X131460000Y-61428571D02*
X131507619Y-61333333D01*
X131507619Y-61333333D02*
X131507619Y-61190476D01*
X130840952Y-61952381D02*
X131507619Y-61952381D01*
X130936190Y-61952381D02*
X130888571Y-62000000D01*
X130888571Y-62000000D02*
X130840952Y-62095238D01*
X130840952Y-62095238D02*
X130840952Y-62238095D01*
X130840952Y-62238095D02*
X130888571Y-62333333D01*
X130888571Y-62333333D02*
X130983809Y-62380952D01*
X130983809Y-62380952D02*
X131507619Y-62380952D01*
X131460000Y-63238095D02*
X131507619Y-63142857D01*
X131507619Y-63142857D02*
X131507619Y-62952381D01*
X131507619Y-62952381D02*
X131460000Y-62857143D01*
X131460000Y-62857143D02*
X131364761Y-62809524D01*
X131364761Y-62809524D02*
X130983809Y-62809524D01*
X130983809Y-62809524D02*
X130888571Y-62857143D01*
X130888571Y-62857143D02*
X130840952Y-62952381D01*
X130840952Y-62952381D02*
X130840952Y-63142857D01*
X130840952Y-63142857D02*
X130888571Y-63238095D01*
X130888571Y-63238095D02*
X130983809Y-63285714D01*
X130983809Y-63285714D02*
X131079047Y-63285714D01*
X131079047Y-63285714D02*
X131174285Y-62809524D01*
X131507619Y-64476191D02*
X130507619Y-64476191D01*
X130507619Y-64476191D02*
X130507619Y-64857143D01*
X130507619Y-64857143D02*
X130555238Y-64952381D01*
X130555238Y-64952381D02*
X130602857Y-65000000D01*
X130602857Y-65000000D02*
X130698095Y-65047619D01*
X130698095Y-65047619D02*
X130840952Y-65047619D01*
X130840952Y-65047619D02*
X130936190Y-65000000D01*
X130936190Y-65000000D02*
X130983809Y-64952381D01*
X130983809Y-64952381D02*
X131031428Y-64857143D01*
X131031428Y-64857143D02*
X131031428Y-64476191D01*
X131507619Y-65476191D02*
X130840952Y-65476191D01*
X130507619Y-65476191D02*
X130555238Y-65428572D01*
X130555238Y-65428572D02*
X130602857Y-65476191D01*
X130602857Y-65476191D02*
X130555238Y-65523810D01*
X130555238Y-65523810D02*
X130507619Y-65476191D01*
X130507619Y-65476191D02*
X130602857Y-65476191D01*
X131507619Y-66095238D02*
X131460000Y-66000000D01*
X131460000Y-66000000D02*
X131364761Y-65952381D01*
X131364761Y-65952381D02*
X130507619Y-65952381D01*
X131507619Y-66619048D02*
X131460000Y-66523810D01*
X131460000Y-66523810D02*
X131412380Y-66476191D01*
X131412380Y-66476191D02*
X131317142Y-66428572D01*
X131317142Y-66428572D02*
X131031428Y-66428572D01*
X131031428Y-66428572D02*
X130936190Y-66476191D01*
X130936190Y-66476191D02*
X130888571Y-66523810D01*
X130888571Y-66523810D02*
X130840952Y-66619048D01*
X130840952Y-66619048D02*
X130840952Y-66761905D01*
X130840952Y-66761905D02*
X130888571Y-66857143D01*
X130888571Y-66857143D02*
X130936190Y-66904762D01*
X130936190Y-66904762D02*
X131031428Y-66952381D01*
X131031428Y-66952381D02*
X131317142Y-66952381D01*
X131317142Y-66952381D02*
X131412380Y-66904762D01*
X131412380Y-66904762D02*
X131460000Y-66857143D01*
X131460000Y-66857143D02*
X131507619Y-66761905D01*
X131507619Y-66761905D02*
X131507619Y-66619048D01*
X130840952Y-67380953D02*
X131507619Y-67380953D01*
X130936190Y-67380953D02*
X130888571Y-67428572D01*
X130888571Y-67428572D02*
X130840952Y-67523810D01*
X130840952Y-67523810D02*
X130840952Y-67666667D01*
X130840952Y-67666667D02*
X130888571Y-67761905D01*
X130888571Y-67761905D02*
X130983809Y-67809524D01*
X130983809Y-67809524D02*
X131507619Y-67809524D01*
X133127619Y-50238095D02*
X132127619Y-50238095D01*
X132127619Y-50238095D02*
X133127619Y-50809523D01*
X133127619Y-50809523D02*
X132127619Y-50809523D01*
X133127619Y-51428571D02*
X133080000Y-51333333D01*
X133080000Y-51333333D02*
X133032380Y-51285714D01*
X133032380Y-51285714D02*
X132937142Y-51238095D01*
X132937142Y-51238095D02*
X132651428Y-51238095D01*
X132651428Y-51238095D02*
X132556190Y-51285714D01*
X132556190Y-51285714D02*
X132508571Y-51333333D01*
X132508571Y-51333333D02*
X132460952Y-51428571D01*
X132460952Y-51428571D02*
X132460952Y-51571428D01*
X132460952Y-51571428D02*
X132508571Y-51666666D01*
X132508571Y-51666666D02*
X132556190Y-51714285D01*
X132556190Y-51714285D02*
X132651428Y-51761904D01*
X132651428Y-51761904D02*
X132937142Y-51761904D01*
X132937142Y-51761904D02*
X133032380Y-51714285D01*
X133032380Y-51714285D02*
X133080000Y-51666666D01*
X133080000Y-51666666D02*
X133127619Y-51571428D01*
X133127619Y-51571428D02*
X133127619Y-51428571D01*
X133080000Y-52571428D02*
X133127619Y-52476190D01*
X133127619Y-52476190D02*
X133127619Y-52285714D01*
X133127619Y-52285714D02*
X133080000Y-52190476D01*
X133080000Y-52190476D02*
X132984761Y-52142857D01*
X132984761Y-52142857D02*
X132603809Y-52142857D01*
X132603809Y-52142857D02*
X132508571Y-52190476D01*
X132508571Y-52190476D02*
X132460952Y-52285714D01*
X132460952Y-52285714D02*
X132460952Y-52476190D01*
X132460952Y-52476190D02*
X132508571Y-52571428D01*
X132508571Y-52571428D02*
X132603809Y-52619047D01*
X132603809Y-52619047D02*
X132699047Y-52619047D01*
X132699047Y-52619047D02*
X132794285Y-52142857D01*
X132127619Y-52190476D02*
X132175238Y-52238095D01*
X132175238Y-52238095D02*
X132222857Y-52190476D01*
X132222857Y-52190476D02*
X132175238Y-52142857D01*
X132175238Y-52142857D02*
X132127619Y-52190476D01*
X132127619Y-52190476D02*
X132222857Y-52190476D01*
X132127619Y-52571428D02*
X132175238Y-52619047D01*
X132175238Y-52619047D02*
X132222857Y-52571428D01*
X132222857Y-52571428D02*
X132175238Y-52523809D01*
X132175238Y-52523809D02*
X132127619Y-52571428D01*
X132127619Y-52571428D02*
X132222857Y-52571428D01*
X133127619Y-53190476D02*
X133080000Y-53095238D01*
X133080000Y-53095238D02*
X132984761Y-53047619D01*
X132984761Y-53047619D02*
X132127619Y-53047619D01*
X133127619Y-54904762D02*
X132651428Y-54571429D01*
X133127619Y-54333334D02*
X132127619Y-54333334D01*
X132127619Y-54333334D02*
X132127619Y-54714286D01*
X132127619Y-54714286D02*
X132175238Y-54809524D01*
X132175238Y-54809524D02*
X132222857Y-54857143D01*
X132222857Y-54857143D02*
X132318095Y-54904762D01*
X132318095Y-54904762D02*
X132460952Y-54904762D01*
X132460952Y-54904762D02*
X132556190Y-54857143D01*
X132556190Y-54857143D02*
X132603809Y-54809524D01*
X132603809Y-54809524D02*
X132651428Y-54714286D01*
X132651428Y-54714286D02*
X132651428Y-54333334D01*
X133080000Y-55714286D02*
X133127619Y-55619048D01*
X133127619Y-55619048D02*
X133127619Y-55428572D01*
X133127619Y-55428572D02*
X133080000Y-55333334D01*
X133080000Y-55333334D02*
X132984761Y-55285715D01*
X132984761Y-55285715D02*
X132603809Y-55285715D01*
X132603809Y-55285715D02*
X132508571Y-55333334D01*
X132508571Y-55333334D02*
X132460952Y-55428572D01*
X132460952Y-55428572D02*
X132460952Y-55619048D01*
X132460952Y-55619048D02*
X132508571Y-55714286D01*
X132508571Y-55714286D02*
X132603809Y-55761905D01*
X132603809Y-55761905D02*
X132699047Y-55761905D01*
X132699047Y-55761905D02*
X132794285Y-55285715D01*
X133080000Y-56142858D02*
X133127619Y-56238096D01*
X133127619Y-56238096D02*
X133127619Y-56428572D01*
X133127619Y-56428572D02*
X133080000Y-56523810D01*
X133080000Y-56523810D02*
X132984761Y-56571429D01*
X132984761Y-56571429D02*
X132937142Y-56571429D01*
X132937142Y-56571429D02*
X132841904Y-56523810D01*
X132841904Y-56523810D02*
X132794285Y-56428572D01*
X132794285Y-56428572D02*
X132794285Y-56285715D01*
X132794285Y-56285715D02*
X132746666Y-56190477D01*
X132746666Y-56190477D02*
X132651428Y-56142858D01*
X132651428Y-56142858D02*
X132603809Y-56142858D01*
X132603809Y-56142858D02*
X132508571Y-56190477D01*
X132508571Y-56190477D02*
X132460952Y-56285715D01*
X132460952Y-56285715D02*
X132460952Y-56428572D01*
X132460952Y-56428572D02*
X132508571Y-56523810D01*
X133080000Y-57380953D02*
X133127619Y-57285715D01*
X133127619Y-57285715D02*
X133127619Y-57095239D01*
X133127619Y-57095239D02*
X133080000Y-57000001D01*
X133080000Y-57000001D02*
X132984761Y-56952382D01*
X132984761Y-56952382D02*
X132603809Y-56952382D01*
X132603809Y-56952382D02*
X132508571Y-57000001D01*
X132508571Y-57000001D02*
X132460952Y-57095239D01*
X132460952Y-57095239D02*
X132460952Y-57285715D01*
X132460952Y-57285715D02*
X132508571Y-57380953D01*
X132508571Y-57380953D02*
X132603809Y-57428572D01*
X132603809Y-57428572D02*
X132699047Y-57428572D01*
X132699047Y-57428572D02*
X132794285Y-56952382D01*
X133127619Y-58285715D02*
X132603809Y-58285715D01*
X132603809Y-58285715D02*
X132508571Y-58238096D01*
X132508571Y-58238096D02*
X132460952Y-58142858D01*
X132460952Y-58142858D02*
X132460952Y-57952382D01*
X132460952Y-57952382D02*
X132508571Y-57857144D01*
X133080000Y-58285715D02*
X133127619Y-58190477D01*
X133127619Y-58190477D02*
X133127619Y-57952382D01*
X133127619Y-57952382D02*
X133080000Y-57857144D01*
X133080000Y-57857144D02*
X132984761Y-57809525D01*
X132984761Y-57809525D02*
X132889523Y-57809525D01*
X132889523Y-57809525D02*
X132794285Y-57857144D01*
X132794285Y-57857144D02*
X132746666Y-57952382D01*
X132746666Y-57952382D02*
X132746666Y-58190477D01*
X132746666Y-58190477D02*
X132699047Y-58285715D01*
X133127619Y-58761906D02*
X132460952Y-58761906D01*
X132651428Y-58761906D02*
X132556190Y-58809525D01*
X132556190Y-58809525D02*
X132508571Y-58857144D01*
X132508571Y-58857144D02*
X132460952Y-58952382D01*
X132460952Y-58952382D02*
X132460952Y-59047620D01*
X133080000Y-59809525D02*
X133127619Y-59714287D01*
X133127619Y-59714287D02*
X133127619Y-59523811D01*
X133127619Y-59523811D02*
X133080000Y-59428573D01*
X133080000Y-59428573D02*
X133032380Y-59380954D01*
X133032380Y-59380954D02*
X132937142Y-59333335D01*
X132937142Y-59333335D02*
X132651428Y-59333335D01*
X132651428Y-59333335D02*
X132556190Y-59380954D01*
X132556190Y-59380954D02*
X132508571Y-59428573D01*
X132508571Y-59428573D02*
X132460952Y-59523811D01*
X132460952Y-59523811D02*
X132460952Y-59714287D01*
X132460952Y-59714287D02*
X132508571Y-59809525D01*
X133127619Y-60238097D02*
X132127619Y-60238097D01*
X133127619Y-60666668D02*
X132603809Y-60666668D01*
X132603809Y-60666668D02*
X132508571Y-60619049D01*
X132508571Y-60619049D02*
X132460952Y-60523811D01*
X132460952Y-60523811D02*
X132460952Y-60380954D01*
X132460952Y-60380954D02*
X132508571Y-60285716D01*
X132508571Y-60285716D02*
X132556190Y-60238097D01*
X132175238Y-62428573D02*
X132127619Y-62333335D01*
X132127619Y-62333335D02*
X132127619Y-62190478D01*
X132127619Y-62190478D02*
X132175238Y-62047621D01*
X132175238Y-62047621D02*
X132270476Y-61952383D01*
X132270476Y-61952383D02*
X132365714Y-61904764D01*
X132365714Y-61904764D02*
X132556190Y-61857145D01*
X132556190Y-61857145D02*
X132699047Y-61857145D01*
X132699047Y-61857145D02*
X132889523Y-61904764D01*
X132889523Y-61904764D02*
X132984761Y-61952383D01*
X132984761Y-61952383D02*
X133080000Y-62047621D01*
X133080000Y-62047621D02*
X133127619Y-62190478D01*
X133127619Y-62190478D02*
X133127619Y-62285716D01*
X133127619Y-62285716D02*
X133080000Y-62428573D01*
X133080000Y-62428573D02*
X133032380Y-62476192D01*
X133032380Y-62476192D02*
X132699047Y-62476192D01*
X132699047Y-62476192D02*
X132699047Y-62285716D01*
X133127619Y-62904764D02*
X132460952Y-62904764D01*
X132651428Y-62904764D02*
X132556190Y-62952383D01*
X132556190Y-62952383D02*
X132508571Y-63000002D01*
X132508571Y-63000002D02*
X132460952Y-63095240D01*
X132460952Y-63095240D02*
X132460952Y-63190478D01*
X133127619Y-63666669D02*
X133080000Y-63571431D01*
X133080000Y-63571431D02*
X133032380Y-63523812D01*
X133032380Y-63523812D02*
X132937142Y-63476193D01*
X132937142Y-63476193D02*
X132651428Y-63476193D01*
X132651428Y-63476193D02*
X132556190Y-63523812D01*
X132556190Y-63523812D02*
X132508571Y-63571431D01*
X132508571Y-63571431D02*
X132460952Y-63666669D01*
X132460952Y-63666669D02*
X132460952Y-63809526D01*
X132460952Y-63809526D02*
X132508571Y-63904764D01*
X132508571Y-63904764D02*
X132556190Y-63952383D01*
X132556190Y-63952383D02*
X132651428Y-64000002D01*
X132651428Y-64000002D02*
X132937142Y-64000002D01*
X132937142Y-64000002D02*
X133032380Y-63952383D01*
X133032380Y-63952383D02*
X133080000Y-63904764D01*
X133080000Y-63904764D02*
X133127619Y-63809526D01*
X133127619Y-63809526D02*
X133127619Y-63666669D01*
X132460952Y-64857145D02*
X133127619Y-64857145D01*
X132460952Y-64428574D02*
X132984761Y-64428574D01*
X132984761Y-64428574D02*
X133080000Y-64476193D01*
X133080000Y-64476193D02*
X133127619Y-64571431D01*
X133127619Y-64571431D02*
X133127619Y-64714288D01*
X133127619Y-64714288D02*
X133080000Y-64809526D01*
X133080000Y-64809526D02*
X133032380Y-64857145D01*
X132460952Y-65333336D02*
X133460952Y-65333336D01*
X132508571Y-65333336D02*
X132460952Y-65428574D01*
X132460952Y-65428574D02*
X132460952Y-65619050D01*
X132460952Y-65619050D02*
X132508571Y-65714288D01*
X132508571Y-65714288D02*
X132556190Y-65761907D01*
X132556190Y-65761907D02*
X132651428Y-65809526D01*
X132651428Y-65809526D02*
X132937142Y-65809526D01*
X132937142Y-65809526D02*
X133032380Y-65761907D01*
X133032380Y-65761907D02*
X133080000Y-65714288D01*
X133080000Y-65714288D02*
X133127619Y-65619050D01*
X133127619Y-65619050D02*
X133127619Y-65428574D01*
X133127619Y-65428574D02*
X133080000Y-65333336D01*
X132746666Y-67000003D02*
X132746666Y-67761908D01*
X132222857Y-68952384D02*
X132175238Y-69000003D01*
X132175238Y-69000003D02*
X132127619Y-69095241D01*
X132127619Y-69095241D02*
X132127619Y-69333336D01*
X132127619Y-69333336D02*
X132175238Y-69428574D01*
X132175238Y-69428574D02*
X132222857Y-69476193D01*
X132222857Y-69476193D02*
X132318095Y-69523812D01*
X132318095Y-69523812D02*
X132413333Y-69523812D01*
X132413333Y-69523812D02*
X132556190Y-69476193D01*
X132556190Y-69476193D02*
X133127619Y-68904765D01*
X133127619Y-68904765D02*
X133127619Y-69523812D01*
X132127619Y-70142860D02*
X132127619Y-70238098D01*
X132127619Y-70238098D02*
X132175238Y-70333336D01*
X132175238Y-70333336D02*
X132222857Y-70380955D01*
X132222857Y-70380955D02*
X132318095Y-70428574D01*
X132318095Y-70428574D02*
X132508571Y-70476193D01*
X132508571Y-70476193D02*
X132746666Y-70476193D01*
X132746666Y-70476193D02*
X132937142Y-70428574D01*
X132937142Y-70428574D02*
X133032380Y-70380955D01*
X133032380Y-70380955D02*
X133080000Y-70333336D01*
X133080000Y-70333336D02*
X133127619Y-70238098D01*
X133127619Y-70238098D02*
X133127619Y-70142860D01*
X133127619Y-70142860D02*
X133080000Y-70047622D01*
X133080000Y-70047622D02*
X133032380Y-70000003D01*
X133032380Y-70000003D02*
X132937142Y-69952384D01*
X132937142Y-69952384D02*
X132746666Y-69904765D01*
X132746666Y-69904765D02*
X132508571Y-69904765D01*
X132508571Y-69904765D02*
X132318095Y-69952384D01*
X132318095Y-69952384D02*
X132222857Y-70000003D01*
X132222857Y-70000003D02*
X132175238Y-70047622D01*
X132175238Y-70047622D02*
X132127619Y-70142860D01*
X132222857Y-70857146D02*
X132175238Y-70904765D01*
X132175238Y-70904765D02*
X132127619Y-71000003D01*
X132127619Y-71000003D02*
X132127619Y-71238098D01*
X132127619Y-71238098D02*
X132175238Y-71333336D01*
X132175238Y-71333336D02*
X132222857Y-71380955D01*
X132222857Y-71380955D02*
X132318095Y-71428574D01*
X132318095Y-71428574D02*
X132413333Y-71428574D01*
X132413333Y-71428574D02*
X132556190Y-71380955D01*
X132556190Y-71380955D02*
X133127619Y-70809527D01*
X133127619Y-70809527D02*
X133127619Y-71428574D01*
X132460952Y-72285717D02*
X133127619Y-72285717D01*
X132080000Y-72047622D02*
X132794285Y-71809527D01*
X132794285Y-71809527D02*
X132794285Y-72428574D01*
%TO.C,G\u002A\u002A\u002A*%
G36*
X123335486Y-57729906D02*
G01*
X123374156Y-57744394D01*
X123387558Y-57774442D01*
X123363627Y-57808243D01*
X123302617Y-57827876D01*
X123284277Y-57829555D01*
X123242103Y-57820860D01*
X123231303Y-57781184D01*
X123243869Y-57740173D01*
X123293558Y-57726051D01*
X123335486Y-57729906D01*
G37*
G36*
X123335486Y-57943352D02*
G01*
X123374156Y-57957839D01*
X123387558Y-57987888D01*
X123363627Y-58021688D01*
X123302617Y-58041321D01*
X123284277Y-58043001D01*
X123242103Y-58034305D01*
X123231303Y-57994630D01*
X123243869Y-57953619D01*
X123293558Y-57939496D01*
X123335486Y-57943352D01*
G37*
G36*
X124325210Y-58406408D02*
G01*
X124325127Y-58442428D01*
X124322822Y-58530803D01*
X124315140Y-58580236D01*
X124299132Y-58601787D01*
X124271849Y-58606513D01*
X124253128Y-58604948D01*
X124230818Y-58588750D01*
X124220804Y-58544572D01*
X124218488Y-58459769D01*
X124218488Y-58313026D01*
X123831618Y-58313026D01*
X123783548Y-58313006D01*
X123646442Y-58312325D01*
X123552338Y-58309842D01*
X123493177Y-58304447D01*
X123460899Y-58295026D01*
X123447442Y-58280469D01*
X123444748Y-58259664D01*
X123445922Y-58244422D01*
X123455024Y-58228955D01*
X123479671Y-58218356D01*
X123527427Y-58211708D01*
X123605856Y-58208094D01*
X123722519Y-58206598D01*
X123884979Y-58206303D01*
X124325210Y-58206303D01*
X124325210Y-58406408D01*
G37*
G36*
X122777731Y-56605318D02*
G01*
X122777731Y-56791939D01*
X120420628Y-56798753D01*
X118063525Y-56805568D01*
X120434759Y-58058267D01*
X120609523Y-58150640D01*
X121014111Y-58364915D01*
X121373245Y-58555795D01*
X121688331Y-58724049D01*
X121960774Y-58870447D01*
X122191977Y-58995756D01*
X122383347Y-59100745D01*
X122536288Y-59186183D01*
X122652206Y-59252838D01*
X122732504Y-59301478D01*
X122778588Y-59332874D01*
X122791862Y-59347792D01*
X122786605Y-59371928D01*
X122780223Y-59440970D01*
X122777731Y-59529178D01*
X122777731Y-59673740D01*
X119989601Y-59673740D01*
X117201471Y-59673740D01*
X117201471Y-59473781D01*
X117201471Y-59273821D01*
X119538661Y-59267005D01*
X121875851Y-59260190D01*
X119525775Y-58019538D01*
X117175700Y-56778887D01*
X117175245Y-56598792D01*
X117174790Y-56418698D01*
X119976261Y-56418698D01*
X122777731Y-56418698D01*
X122777731Y-56605318D01*
G37*
G36*
X123548090Y-66050421D02*
G01*
X123884979Y-66050421D01*
X124325210Y-66050421D01*
X124325210Y-66117122D01*
X124325110Y-66128016D01*
X124319618Y-66159387D01*
X124296937Y-66176054D01*
X124245011Y-66182654D01*
X124151786Y-66183824D01*
X123978362Y-66183824D01*
X123978362Y-66299752D01*
X123972564Y-66368595D01*
X123936525Y-66449712D01*
X123862609Y-66499285D01*
X123745176Y-66522708D01*
X123711368Y-66524872D01*
X123614660Y-66516549D01*
X123531460Y-66479189D01*
X123508453Y-66464417D01*
X123472409Y-66434603D01*
X123453409Y-66396980D01*
X123446005Y-66336366D01*
X123444748Y-66237577D01*
X123444748Y-66183824D01*
X123548090Y-66183824D01*
X123556451Y-66269704D01*
X123576718Y-66339734D01*
X123638183Y-66396437D01*
X123679226Y-66416908D01*
X123726729Y-66422271D01*
X123784927Y-66396437D01*
X123839613Y-66350245D01*
X123866659Y-66269704D01*
X123875020Y-66183824D01*
X123711555Y-66183824D01*
X123548090Y-66183824D01*
X123444748Y-66183824D01*
X123444748Y-66050421D01*
X123548090Y-66050421D01*
G37*
G36*
X124325210Y-57886135D02*
G01*
X124325014Y-57942411D01*
X124322335Y-58027273D01*
X124314370Y-58074600D01*
X124298436Y-58095124D01*
X124271849Y-58099580D01*
X124248214Y-58096637D01*
X124228988Y-58077219D01*
X124220435Y-58028906D01*
X124218488Y-57939496D01*
X124218488Y-57779412D01*
X124071744Y-57779412D01*
X123925000Y-57779412D01*
X123925000Y-57912816D01*
X123924772Y-57943672D01*
X123919608Y-58009384D01*
X123903645Y-58039195D01*
X123871639Y-58046219D01*
X123859297Y-58045648D01*
X123833012Y-58032738D01*
X123821087Y-57992831D01*
X123818278Y-57912816D01*
X123818278Y-57779412D01*
X123684874Y-57779412D01*
X123551471Y-57779412D01*
X123551471Y-57926156D01*
X123550902Y-57977638D01*
X123545012Y-58038992D01*
X123528947Y-58066530D01*
X123498110Y-58072900D01*
X123488504Y-58072586D01*
X123464938Y-58063943D01*
X123451755Y-58035136D01*
X123446009Y-57975106D01*
X123444748Y-57872795D01*
X123444748Y-57672690D01*
X123884979Y-57672690D01*
X124325210Y-57672690D01*
X124325210Y-57886135D01*
G37*
G36*
X124325210Y-59687080D02*
G01*
X124325127Y-59723101D01*
X124322822Y-59811475D01*
X124315140Y-59860908D01*
X124299132Y-59882459D01*
X124271849Y-59887185D01*
X124253128Y-59885620D01*
X124230818Y-59869422D01*
X124220804Y-59825245D01*
X124218488Y-59740442D01*
X124218488Y-59593698D01*
X124071744Y-59593698D01*
X123925000Y-59593698D01*
X123925000Y-59727101D01*
X123924772Y-59757957D01*
X123919608Y-59823669D01*
X123903645Y-59853481D01*
X123871639Y-59860505D01*
X123859297Y-59859934D01*
X123833012Y-59847024D01*
X123821087Y-59807117D01*
X123818278Y-59727101D01*
X123818278Y-59593698D01*
X123684874Y-59593698D01*
X123551471Y-59593698D01*
X123551471Y-59740442D01*
X123550902Y-59791923D01*
X123545012Y-59853277D01*
X123528947Y-59880816D01*
X123498110Y-59887185D01*
X123488504Y-59886871D01*
X123464938Y-59878229D01*
X123451755Y-59849422D01*
X123446009Y-59789391D01*
X123444748Y-59687080D01*
X123444748Y-59486975D01*
X123884979Y-59486975D01*
X124325210Y-59486975D01*
X124325210Y-59687080D01*
G37*
G36*
X124325210Y-60754307D02*
G01*
X124325127Y-60790327D01*
X124322822Y-60878702D01*
X124315140Y-60928135D01*
X124299132Y-60949686D01*
X124271849Y-60954412D01*
X124253128Y-60952847D01*
X124230818Y-60936649D01*
X124220804Y-60892471D01*
X124218488Y-60807669D01*
X124218488Y-60660925D01*
X124071744Y-60660925D01*
X123925000Y-60660925D01*
X123925000Y-60794328D01*
X123924772Y-60825184D01*
X123919608Y-60890896D01*
X123903645Y-60920708D01*
X123871639Y-60927732D01*
X123859297Y-60927161D01*
X123833012Y-60914251D01*
X123821087Y-60874344D01*
X123818278Y-60794328D01*
X123818278Y-60660925D01*
X123684874Y-60660925D01*
X123551471Y-60660925D01*
X123551471Y-60807669D01*
X123550902Y-60859150D01*
X123545012Y-60920504D01*
X123528947Y-60948043D01*
X123498110Y-60954412D01*
X123488504Y-60954098D01*
X123464938Y-60945456D01*
X123451755Y-60916649D01*
X123446009Y-60856618D01*
X123444748Y-60754307D01*
X123444748Y-60554202D01*
X123884979Y-60554202D01*
X124325210Y-60554202D01*
X124325210Y-60754307D01*
G37*
G36*
X124004783Y-56418831D02*
G01*
X124134176Y-56419910D01*
X124223099Y-56422849D01*
X124279107Y-56428546D01*
X124309757Y-56437905D01*
X124322607Y-56451827D01*
X124325210Y-56471213D01*
X124324566Y-56482846D01*
X124315698Y-56501824D01*
X124289260Y-56514421D01*
X124236306Y-56522368D01*
X124147888Y-56527399D01*
X124015058Y-56531244D01*
X123704906Y-56538761D01*
X124015058Y-56669159D01*
X124058521Y-56687514D01*
X124175419Y-56738573D01*
X124252703Y-56776726D01*
X124298207Y-56806856D01*
X124319765Y-56833851D01*
X124325210Y-56862594D01*
X124325210Y-56925631D01*
X123884979Y-56925631D01*
X123444748Y-56925631D01*
X123444748Y-56859832D01*
X123445188Y-56840536D01*
X123451876Y-56817793D01*
X123474184Y-56803448D01*
X123521542Y-56795066D01*
X123603383Y-56790214D01*
X123729136Y-56786460D01*
X124013524Y-56778887D01*
X123729136Y-56660458D01*
X123607520Y-56608564D01*
X123524107Y-56568800D01*
X123474596Y-56537613D01*
X123450855Y-56509851D01*
X123444748Y-56480364D01*
X123444748Y-56418698D01*
X123884979Y-56418698D01*
X124004783Y-56418831D01*
G37*
G36*
X124053185Y-62206136D02*
G01*
X124185149Y-62233257D01*
X124274412Y-62280718D01*
X124324896Y-62349874D01*
X124339102Y-62394047D01*
X124341255Y-62500104D01*
X124295916Y-62587998D01*
X124206174Y-62649925D01*
X124178196Y-62661166D01*
X124093740Y-62685395D01*
X124046457Y-62677572D01*
X124031723Y-62637364D01*
X124053709Y-62591819D01*
X124125105Y-62555253D01*
X124169516Y-62538022D01*
X124208696Y-62504655D01*
X124218488Y-62450743D01*
X124205232Y-62390753D01*
X124150531Y-62346090D01*
X124118164Y-62335906D01*
X124029491Y-62322848D01*
X123917011Y-62316481D01*
X123799406Y-62317028D01*
X123695357Y-62324714D01*
X123623548Y-62339763D01*
X123584379Y-62360291D01*
X123541306Y-62414465D01*
X123540477Y-62475766D01*
X123579816Y-62530358D01*
X123657246Y-62564401D01*
X123665898Y-62566244D01*
X123722042Y-62591439D01*
X123738236Y-62637597D01*
X123738231Y-62639501D01*
X123731895Y-62674644D01*
X123703501Y-62685211D01*
X123638183Y-62677066D01*
X123593352Y-62665699D01*
X123499766Y-62612391D01*
X123439633Y-62532873D01*
X123419407Y-62438425D01*
X123445539Y-62340329D01*
X123493766Y-62281392D01*
X123582218Y-62233926D01*
X123710886Y-62206684D01*
X123884979Y-62197978D01*
X124053185Y-62206136D01*
G37*
G36*
X124325210Y-62862080D02*
G01*
X124324475Y-62885508D01*
X124315332Y-62910060D01*
X124286549Y-62922959D01*
X124226887Y-62927951D01*
X124125105Y-62928782D01*
X123925000Y-62928782D01*
X123925000Y-63062185D01*
X123925000Y-63195589D01*
X124125105Y-63195589D01*
X124161126Y-63195672D01*
X124249500Y-63197977D01*
X124298933Y-63205659D01*
X124320484Y-63221667D01*
X124325210Y-63248950D01*
X124324037Y-63264192D01*
X124314935Y-63279659D01*
X124290288Y-63290259D01*
X124242531Y-63296907D01*
X124164103Y-63300520D01*
X124047440Y-63302016D01*
X123884979Y-63302311D01*
X123759233Y-63302169D01*
X123631628Y-63301066D01*
X123544184Y-63298078D01*
X123489336Y-63292290D01*
X123459523Y-63282783D01*
X123447181Y-63268642D01*
X123444748Y-63248950D01*
X123444800Y-63244702D01*
X123451416Y-63218325D01*
X123477133Y-63203521D01*
X123533362Y-63197028D01*
X123631513Y-63195589D01*
X123818278Y-63195589D01*
X123818278Y-63062185D01*
X123818278Y-62928782D01*
X123631513Y-62928782D01*
X123581712Y-62928661D01*
X123504349Y-62926066D01*
X123463486Y-62916872D01*
X123447495Y-62896928D01*
X123444748Y-62862080D01*
X123444748Y-62795379D01*
X123884979Y-62795379D01*
X124325210Y-62795379D01*
X124325210Y-62862080D01*
G37*
G36*
X124051804Y-57052865D02*
G01*
X124177419Y-57085673D01*
X124271912Y-57135681D01*
X124324896Y-57200505D01*
X124344534Y-57273726D01*
X124334195Y-57371278D01*
X124279765Y-57451015D01*
X124185754Y-57510431D01*
X124056670Y-57547018D01*
X123897022Y-57558268D01*
X123711319Y-57541676D01*
X123627821Y-57523857D01*
X123510901Y-57472968D01*
X123441178Y-57398231D01*
X123418068Y-57299160D01*
X123524790Y-57299160D01*
X123538979Y-57331419D01*
X123578152Y-57379202D01*
X123587165Y-57387714D01*
X123622897Y-57410754D01*
X123674108Y-57424389D01*
X123753404Y-57430900D01*
X123873393Y-57432563D01*
X123921672Y-57432030D01*
X124030960Y-57426849D01*
X124117854Y-57417335D01*
X124166880Y-57404944D01*
X124188579Y-57388907D01*
X124215957Y-57331327D01*
X124205906Y-57264258D01*
X124159190Y-57207291D01*
X124153320Y-57203447D01*
X124094945Y-57181637D01*
X124002151Y-57169509D01*
X123865702Y-57165757D01*
X123841314Y-57165802D01*
X123731227Y-57168336D01*
X123659263Y-57176472D01*
X123612534Y-57192602D01*
X123578152Y-57219118D01*
X123542012Y-57262353D01*
X123524790Y-57299160D01*
X123418068Y-57299160D01*
X123422825Y-57252978D01*
X123468228Y-57163952D01*
X123560241Y-57097912D01*
X123697103Y-57056392D01*
X123748746Y-57048384D01*
X123865702Y-57041859D01*
X123905451Y-57039641D01*
X124051804Y-57052865D01*
G37*
G36*
X124051804Y-64843621D02*
G01*
X124177419Y-64876429D01*
X124271912Y-64926437D01*
X124324896Y-64991261D01*
X124344534Y-65064482D01*
X124334195Y-65162034D01*
X124279765Y-65241772D01*
X124185754Y-65301187D01*
X124056670Y-65337774D01*
X123897022Y-65349025D01*
X123711319Y-65332432D01*
X123627821Y-65314614D01*
X123510901Y-65263725D01*
X123441178Y-65188987D01*
X123418068Y-65089916D01*
X123524790Y-65089916D01*
X123538979Y-65122175D01*
X123578152Y-65169958D01*
X123587165Y-65178471D01*
X123622897Y-65201510D01*
X123674108Y-65215146D01*
X123753404Y-65221656D01*
X123873393Y-65223320D01*
X123921672Y-65222786D01*
X124030960Y-65217606D01*
X124117854Y-65208092D01*
X124166880Y-65195700D01*
X124188579Y-65179663D01*
X124215957Y-65122084D01*
X124205906Y-65055014D01*
X124159190Y-64998047D01*
X124153320Y-64994203D01*
X124094945Y-64972393D01*
X124002151Y-64960265D01*
X123865702Y-64956513D01*
X123841314Y-64956559D01*
X123731227Y-64959093D01*
X123659263Y-64967229D01*
X123612534Y-64983359D01*
X123578152Y-65009874D01*
X123542012Y-65053109D01*
X123524790Y-65089916D01*
X123418068Y-65089916D01*
X123422825Y-65043734D01*
X123468228Y-64954708D01*
X123560241Y-64888669D01*
X123697103Y-64847149D01*
X123748746Y-64839140D01*
X123865702Y-64832615D01*
X123905451Y-64830397D01*
X124051804Y-64843621D01*
G37*
G36*
X124168157Y-59982081D02*
G01*
X124252769Y-60032054D01*
X124315744Y-60103567D01*
X124326008Y-60124100D01*
X124342614Y-60220830D01*
X124316355Y-60314643D01*
X124254033Y-60390841D01*
X124162452Y-60434726D01*
X124126804Y-60440643D01*
X124009425Y-60429237D01*
X123909787Y-60368525D01*
X123831449Y-60260381D01*
X123822125Y-60242556D01*
X123757223Y-60150467D01*
X123687121Y-60108335D01*
X123607297Y-60113189D01*
X123586864Y-60121413D01*
X123541093Y-60165691D01*
X123535341Y-60221580D01*
X123567355Y-60273385D01*
X123634882Y-60305412D01*
X123646598Y-60307980D01*
X123697579Y-60333612D01*
X123711555Y-60384113D01*
X123709284Y-60415577D01*
X123691413Y-60442131D01*
X123647088Y-60439579D01*
X123566102Y-60409717D01*
X123520500Y-60385537D01*
X123452070Y-60315917D01*
X123422076Y-60232022D01*
X123428314Y-60145863D01*
X123468580Y-60069451D01*
X123540672Y-60014795D01*
X123642385Y-59993908D01*
X123678026Y-59995002D01*
X123783383Y-60018663D01*
X123865938Y-60079373D01*
X123938264Y-60185262D01*
X123976051Y-60251533D01*
X124011087Y-60294653D01*
X124049946Y-60310131D01*
X124107557Y-60308870D01*
X124164345Y-60300666D01*
X124200226Y-60277332D01*
X124213610Y-60227152D01*
X124215029Y-60199936D01*
X124197497Y-60149997D01*
X124140407Y-60107089D01*
X124090049Y-60067600D01*
X124061469Y-60020428D01*
X124065358Y-59982856D01*
X124105095Y-59968173D01*
X124168157Y-59982081D01*
G37*
G36*
X124319556Y-61017727D02*
G01*
X124320884Y-61063185D01*
X124316072Y-61083927D01*
X124283665Y-61123689D01*
X124211818Y-61149602D01*
X124178728Y-61157826D01*
X124132815Y-61177967D01*
X124114850Y-61215311D01*
X124111765Y-61287921D01*
X124112143Y-61325964D01*
X124120278Y-61380542D01*
X124149148Y-61407946D01*
X124211818Y-61426239D01*
X124244290Y-61435039D01*
X124299710Y-61464865D01*
X124320884Y-61512656D01*
X124322359Y-61524475D01*
X124316491Y-61561945D01*
X124280863Y-61562669D01*
X124146534Y-61527444D01*
X123943434Y-61473902D01*
X123783823Y-61431104D01*
X123662470Y-61397331D01*
X123574142Y-61370862D01*
X123513607Y-61349980D01*
X123475633Y-61332964D01*
X123454986Y-61318095D01*
X123446436Y-61303654D01*
X123444987Y-61290153D01*
X123649773Y-61290153D01*
X123789422Y-61322387D01*
X123844102Y-61334584D01*
X123915501Y-61349001D01*
X123953716Y-61354622D01*
X123969921Y-61338072D01*
X123978362Y-61287921D01*
X123977854Y-61269222D01*
X123968622Y-61236975D01*
X123939656Y-61225174D01*
X123880504Y-61232142D01*
X123780717Y-61256200D01*
X123649773Y-61290153D01*
X123444987Y-61290153D01*
X123444748Y-61287921D01*
X123445155Y-61278871D01*
X123450031Y-61264072D01*
X123464693Y-61249603D01*
X123494374Y-61233747D01*
X123544306Y-61214783D01*
X123619721Y-61190992D01*
X123725852Y-61160655D01*
X123867931Y-61122052D01*
X123939656Y-61103036D01*
X124051191Y-61073465D01*
X124280863Y-61013173D01*
X124290087Y-61011038D01*
X124319556Y-61017727D01*
G37*
G36*
X123926641Y-65464417D02*
G01*
X124069874Y-65470271D01*
X124173037Y-65482975D01*
X124243988Y-65504299D01*
X124290585Y-65536011D01*
X124320686Y-65579882D01*
X124340247Y-65635594D01*
X124341905Y-65737678D01*
X124302867Y-65826566D01*
X124227631Y-65887394D01*
X124227321Y-65887534D01*
X124174005Y-65899291D01*
X124078365Y-65908632D01*
X123951293Y-65914794D01*
X123803682Y-65917017D01*
X123798626Y-65917017D01*
X123655653Y-65916559D01*
X123557428Y-65914385D01*
X123495587Y-65909251D01*
X123461768Y-65899913D01*
X123447610Y-65885129D01*
X123444748Y-65863656D01*
X123447577Y-65842227D01*
X123461719Y-65827359D01*
X123495583Y-65817997D01*
X123557579Y-65812875D01*
X123656115Y-65810729D01*
X123799601Y-65810295D01*
X123809958Y-65810291D01*
X123966238Y-65808653D01*
X124077177Y-65802552D01*
X124150323Y-65789822D01*
X124193225Y-65768301D01*
X124213430Y-65735826D01*
X124218488Y-65690232D01*
X124218475Y-65687263D01*
X124212762Y-65642469D01*
X124191473Y-65610672D01*
X124147061Y-65589706D01*
X124071977Y-65577410D01*
X123958674Y-65571618D01*
X123799601Y-65570169D01*
X123657101Y-65569743D01*
X123558229Y-65567616D01*
X123495967Y-65562524D01*
X123461906Y-65553202D01*
X123447636Y-65538384D01*
X123444748Y-65516807D01*
X123444750Y-65516056D01*
X123447828Y-65494800D01*
X123462453Y-65480198D01*
X123496989Y-65471004D01*
X123559798Y-65465976D01*
X123659241Y-65463871D01*
X123803682Y-65463446D01*
X123926641Y-65464417D01*
G37*
G36*
X124127677Y-63691506D02*
G01*
X124221315Y-63719711D01*
X124284030Y-63766087D01*
X124323091Y-63832916D01*
X124339448Y-63918000D01*
X124326081Y-64022851D01*
X124280737Y-64107651D01*
X124272779Y-64115676D01*
X124230241Y-64140073D01*
X124161948Y-64152574D01*
X124054269Y-64156093D01*
X123871639Y-64156093D01*
X123871639Y-64036030D01*
X123871659Y-64027405D01*
X123875885Y-63956442D01*
X123891654Y-63923823D01*
X123925000Y-63915967D01*
X123965855Y-63930364D01*
X123978362Y-63982669D01*
X123978369Y-63985258D01*
X123985077Y-64027364D01*
X124014645Y-64045491D01*
X124082230Y-64049370D01*
X124085389Y-64049361D01*
X124165952Y-64037329D01*
X124207009Y-63995897D01*
X124218488Y-63915298D01*
X124200336Y-63857485D01*
X124140081Y-63815083D01*
X124034701Y-63790498D01*
X123881225Y-63782563D01*
X123778953Y-63783618D01*
X123680696Y-63789709D01*
X123616922Y-63803627D01*
X123576872Y-63828072D01*
X123549791Y-63865744D01*
X123549162Y-63866937D01*
X123539085Y-63935275D01*
X123573501Y-63995680D01*
X123644150Y-64033469D01*
X123689130Y-64054587D01*
X123711555Y-64106575D01*
X123707964Y-64137463D01*
X123684256Y-64153029D01*
X123624843Y-64146116D01*
X123593806Y-64137744D01*
X123505591Y-64085618D01*
X123442303Y-64006452D01*
X123418068Y-63915967D01*
X123418119Y-63912745D01*
X123437652Y-63837517D01*
X123482410Y-63764041D01*
X123497322Y-63747128D01*
X123527710Y-63719506D01*
X123565170Y-63701727D01*
X123621271Y-63691036D01*
X123707583Y-63684679D01*
X123835673Y-63679898D01*
X123995851Y-63679190D01*
X124127677Y-63691506D01*
G37*
G36*
X123711555Y-58953362D02*
G01*
X123884979Y-58953362D01*
X124010726Y-58953504D01*
X124138331Y-58954607D01*
X124225775Y-58957595D01*
X124280622Y-58963384D01*
X124310435Y-58972890D01*
X124322777Y-58987031D01*
X124325210Y-59006723D01*
X124320556Y-59034232D01*
X124297967Y-59051013D01*
X124245641Y-59058421D01*
X124151786Y-59060084D01*
X124068041Y-59061347D01*
X124010440Y-59067963D01*
X123984436Y-59083385D01*
X123978362Y-59111042D01*
X123978869Y-59118159D01*
X123998648Y-59151386D01*
X124053434Y-59184870D01*
X124151786Y-59224196D01*
X124218235Y-59249169D01*
X124284650Y-59280857D01*
X124316816Y-59310889D01*
X124325210Y-59346663D01*
X124322415Y-59384236D01*
X124312479Y-59406933D01*
X124311697Y-59406861D01*
X124278551Y-59396696D01*
X124210423Y-59372690D01*
X124120981Y-59339646D01*
X124111633Y-59336166D01*
X124023579Y-59307456D01*
X123957448Y-59292908D01*
X123926937Y-59295630D01*
X123888130Y-59332982D01*
X123803329Y-59367604D01*
X123700679Y-59378676D01*
X123598483Y-59364894D01*
X123515048Y-59324955D01*
X123489184Y-59302712D01*
X123460569Y-59262371D01*
X123447721Y-59204600D01*
X123445632Y-59139188D01*
X123551471Y-59139188D01*
X123558477Y-59183693D01*
X123600330Y-59242879D01*
X123667326Y-59271645D01*
X123744848Y-59265554D01*
X123818278Y-59220169D01*
X123853531Y-59171528D01*
X123871639Y-59113446D01*
X123868696Y-59089811D01*
X123849278Y-59070584D01*
X123800965Y-59062032D01*
X123711555Y-59060084D01*
X123686760Y-59060099D01*
X123608705Y-59062072D01*
X123568524Y-59071767D01*
X123553638Y-59095401D01*
X123551471Y-59139188D01*
X123445632Y-59139188D01*
X123444748Y-59111509D01*
X123444748Y-58953362D01*
X123711555Y-58953362D01*
G37*
G36*
X123711555Y-61674790D02*
G01*
X123884979Y-61674790D01*
X124010726Y-61674933D01*
X124138331Y-61676036D01*
X124225775Y-61679023D01*
X124280622Y-61684812D01*
X124310435Y-61694319D01*
X124322777Y-61708460D01*
X124325210Y-61728152D01*
X124320556Y-61755661D01*
X124297967Y-61772442D01*
X124245641Y-61779850D01*
X124151786Y-61781513D01*
X124068041Y-61782775D01*
X124010440Y-61789392D01*
X123984436Y-61804814D01*
X123978362Y-61832471D01*
X123978869Y-61839588D01*
X123998648Y-61872814D01*
X124053434Y-61906299D01*
X124151786Y-61945625D01*
X124218235Y-61970597D01*
X124284650Y-62002286D01*
X124316816Y-62032318D01*
X124325210Y-62068092D01*
X124322415Y-62105665D01*
X124312479Y-62128362D01*
X124311697Y-62128290D01*
X124278551Y-62118124D01*
X124210423Y-62094118D01*
X124120981Y-62061074D01*
X124111633Y-62057595D01*
X124023579Y-62028885D01*
X123957448Y-62014337D01*
X123926937Y-62017059D01*
X123888130Y-62054410D01*
X123803329Y-62089033D01*
X123700679Y-62100105D01*
X123598483Y-62086323D01*
X123515048Y-62046383D01*
X123489184Y-62024141D01*
X123460569Y-61983799D01*
X123447721Y-61926029D01*
X123445632Y-61860616D01*
X123551471Y-61860616D01*
X123558477Y-61905122D01*
X123600330Y-61964308D01*
X123667326Y-61993074D01*
X123744848Y-61986982D01*
X123818278Y-61941597D01*
X123853531Y-61892956D01*
X123871639Y-61834874D01*
X123868696Y-61811240D01*
X123849278Y-61792013D01*
X123800965Y-61783460D01*
X123711555Y-61781513D01*
X123686760Y-61781528D01*
X123608705Y-61783500D01*
X123568524Y-61793196D01*
X123553638Y-61816830D01*
X123551471Y-61860616D01*
X123445632Y-61860616D01*
X123444748Y-61832938D01*
X123444748Y-61674790D01*
X123711555Y-61674790D01*
G37*
G36*
X117516497Y-70280558D02*
G01*
X117565564Y-70326427D01*
X117626114Y-70392700D01*
X117647710Y-70418358D01*
X117702053Y-70493445D01*
X117728128Y-70558330D01*
X117734912Y-70632826D01*
X117733106Y-70695732D01*
X117720725Y-70737397D01*
X117689982Y-70732886D01*
X117633284Y-70686187D01*
X117568066Y-70626156D01*
X117586904Y-70919643D01*
X117622961Y-71267229D01*
X117708129Y-71688563D01*
X117836703Y-72079735D01*
X118008471Y-72440241D01*
X118223224Y-72769573D01*
X118480750Y-73067229D01*
X118664435Y-73238089D01*
X118973397Y-73471457D01*
X119306985Y-73665431D01*
X119659357Y-73818379D01*
X120024670Y-73928668D01*
X120397085Y-73994666D01*
X120770758Y-74014740D01*
X121139848Y-73987257D01*
X121498513Y-73910586D01*
X121708251Y-73849837D01*
X121746663Y-73945559D01*
X121760546Y-73981035D01*
X121769983Y-74020909D01*
X121758623Y-74049629D01*
X121718826Y-74073605D01*
X121642952Y-74099250D01*
X121523362Y-74132976D01*
X121237199Y-74194378D01*
X120874443Y-74228357D01*
X120498545Y-74220056D01*
X120118974Y-74170290D01*
X119745199Y-74079870D01*
X119386688Y-73949608D01*
X119322433Y-73921188D01*
X118947013Y-73723339D01*
X118608966Y-73488025D01*
X118309262Y-73216708D01*
X118048873Y-72910852D01*
X117828771Y-72571918D01*
X117649927Y-72201370D01*
X117513314Y-71800669D01*
X117419901Y-71371278D01*
X117370662Y-70914661D01*
X117353332Y-70611239D01*
X117290847Y-70669940D01*
X117250278Y-70703661D01*
X117218359Y-70711425D01*
X117208322Y-70674579D01*
X117217289Y-70589996D01*
X117231503Y-70531969D01*
X117273509Y-70455228D01*
X117350981Y-70372988D01*
X117404035Y-70326414D01*
X117460494Y-70282804D01*
X117492286Y-70265967D01*
X117516497Y-70280558D01*
G37*
G36*
X123711555Y-64289496D02*
G01*
X123884979Y-64289496D01*
X124010726Y-64289639D01*
X124138331Y-64290742D01*
X124225775Y-64293729D01*
X124280622Y-64299518D01*
X124310435Y-64309024D01*
X124322777Y-64323165D01*
X124325210Y-64342858D01*
X124320556Y-64370367D01*
X124297967Y-64387148D01*
X124245641Y-64394556D01*
X124151786Y-64396219D01*
X124133997Y-64396237D01*
X124047897Y-64398141D01*
X124001262Y-64406216D01*
X123982086Y-64424739D01*
X123978362Y-64457987D01*
X123982046Y-64484768D01*
X124004854Y-64515507D01*
X124057885Y-64545060D01*
X124151786Y-64580978D01*
X124235338Y-64612258D01*
X124292544Y-64641343D01*
X124318863Y-64670851D01*
X124325210Y-64708830D01*
X124324911Y-64723165D01*
X124313499Y-64760055D01*
X124278519Y-64756965D01*
X124245635Y-64743946D01*
X124122515Y-64695815D01*
X124037612Y-64665176D01*
X123981607Y-64650175D01*
X123945180Y-64648958D01*
X123919013Y-64659675D01*
X123893784Y-64680470D01*
X123865094Y-64699751D01*
X123777552Y-64725986D01*
X123673068Y-64731198D01*
X123573551Y-64715474D01*
X123500911Y-64678901D01*
X123488439Y-64666649D01*
X123461421Y-64623534D01*
X123448230Y-64559625D01*
X123445239Y-64472994D01*
X123551471Y-64472994D01*
X123562224Y-64533376D01*
X123592914Y-64584164D01*
X123622624Y-64602095D01*
X123700219Y-64617930D01*
X123779308Y-64606384D01*
X123835395Y-64568991D01*
X123855801Y-64530319D01*
X123871639Y-64457821D01*
X123868000Y-64424888D01*
X123848417Y-64405763D01*
X123800423Y-64397806D01*
X123711555Y-64396219D01*
X123689723Y-64396232D01*
X123610375Y-64398144D01*
X123569267Y-64407555D01*
X123553824Y-64430494D01*
X123551471Y-64472994D01*
X123445239Y-64472994D01*
X123444748Y-64458785D01*
X123444748Y-64289496D01*
X123711555Y-64289496D01*
G37*
G36*
X121081883Y-67325135D02*
G01*
X121495092Y-67400355D01*
X121907127Y-67526962D01*
X122315474Y-67704729D01*
X122618543Y-67856593D01*
X122601259Y-67764457D01*
X122600974Y-67762939D01*
X122592543Y-67704185D01*
X122601821Y-67686662D01*
X122634161Y-67699857D01*
X122659981Y-67714475D01*
X122741823Y-67774300D01*
X122790608Y-67845839D01*
X122821429Y-67949192D01*
X122838982Y-68033323D01*
X122850375Y-68103636D01*
X122848119Y-68142314D01*
X122830985Y-68160869D01*
X122797742Y-68170810D01*
X122703445Y-68192022D01*
X122604726Y-68212311D01*
X122537964Y-68221057D01*
X122491376Y-68218575D01*
X122453180Y-68205183D01*
X122411595Y-68181199D01*
X122382036Y-68161736D01*
X122333659Y-68117773D01*
X122331201Y-68088675D01*
X122375947Y-68078152D01*
X122418126Y-68074421D01*
X122439191Y-68054831D01*
X122409612Y-68018450D01*
X122329387Y-67965275D01*
X122198514Y-67895305D01*
X122109770Y-67852116D01*
X121713801Y-67691646D01*
X121317843Y-67583232D01*
X120923637Y-67526921D01*
X120532928Y-67522756D01*
X120147456Y-67570781D01*
X119768965Y-67671043D01*
X119399197Y-67823585D01*
X119298543Y-67875548D01*
X119148579Y-67960450D01*
X119005967Y-68048706D01*
X118891448Y-68127886D01*
X118786706Y-68211395D01*
X118610966Y-68368878D01*
X118439144Y-68541872D01*
X118285177Y-68716043D01*
X118163005Y-68877055D01*
X118162432Y-68877899D01*
X118039729Y-69076821D01*
X117927671Y-69292782D01*
X117832458Y-69511549D01*
X117760286Y-69718888D01*
X117717354Y-69900564D01*
X117711438Y-69932063D01*
X117691726Y-69981437D01*
X117662558Y-69987276D01*
X117624366Y-69978160D01*
X117556448Y-69972479D01*
X117528347Y-69971551D01*
X117503131Y-69960016D01*
X117498003Y-69923866D01*
X117507400Y-69849107D01*
X117516651Y-69797785D01*
X117555654Y-69645440D01*
X117612579Y-69471820D01*
X117681261Y-69294746D01*
X117755533Y-69132038D01*
X117840171Y-68974950D01*
X118062341Y-68640219D01*
X118325416Y-68332086D01*
X118623536Y-68055649D01*
X118950839Y-67816006D01*
X119301464Y-67618254D01*
X119669550Y-67467489D01*
X119860363Y-67410047D01*
X120262004Y-67329755D01*
X120670016Y-67301526D01*
X121081883Y-67325135D01*
G37*
G36*
X117548320Y-60100631D02*
G01*
X119976261Y-60100631D01*
X122777731Y-60100631D01*
X122777731Y-60287395D01*
X122777731Y-60474160D01*
X121550421Y-60474160D01*
X120323110Y-60474160D01*
X120323110Y-60764121D01*
X120323110Y-61054081D01*
X121563761Y-61848072D01*
X122804412Y-62642062D01*
X122804412Y-62865464D01*
X122804100Y-62904322D01*
X122800348Y-62998620D01*
X122793246Y-63064248D01*
X122783925Y-63088866D01*
X122771843Y-63085094D01*
X122723766Y-63059229D01*
X122657554Y-63016916D01*
X122611133Y-62986088D01*
X122525124Y-62929981D01*
X122407629Y-62853902D01*
X122263739Y-62761107D01*
X122098546Y-62654852D01*
X121917142Y-62538390D01*
X121724617Y-62414978D01*
X121526064Y-62287871D01*
X121326573Y-62160323D01*
X121131236Y-62035591D01*
X120945146Y-61916928D01*
X120773392Y-61807590D01*
X120621068Y-61710832D01*
X120493263Y-61629910D01*
X120395070Y-61568078D01*
X120331581Y-61528592D01*
X120307886Y-61514706D01*
X120300531Y-61529667D01*
X120296429Y-61578423D01*
X120296232Y-61586291D01*
X120283843Y-61668045D01*
X120255485Y-61782284D01*
X120215774Y-61914514D01*
X120169329Y-62050244D01*
X120120766Y-62174983D01*
X120074705Y-62274240D01*
X120027542Y-62353432D01*
X119911287Y-62506606D01*
X119770928Y-62653822D01*
X119621036Y-62780522D01*
X119476182Y-62872151D01*
X119451835Y-62884150D01*
X119190418Y-62982197D01*
X118922447Y-63030740D01*
X118653900Y-63031811D01*
X118390756Y-62987440D01*
X118138993Y-62899658D01*
X117904589Y-62770497D01*
X117693522Y-62601986D01*
X117511770Y-62396158D01*
X117365311Y-62155042D01*
X117319533Y-62058357D01*
X117276808Y-61955508D01*
X117243359Y-61853600D01*
X117218073Y-61744880D01*
X117199842Y-61621593D01*
X117187555Y-61475984D01*
X117180102Y-61300298D01*
X117176371Y-61086781D01*
X117175254Y-60827679D01*
X117175028Y-60474160D01*
X117548320Y-60474160D01*
X117548783Y-60961082D01*
X117549374Y-61060510D01*
X117557524Y-61320981D01*
X117576987Y-61539282D01*
X117610004Y-61723279D01*
X117658815Y-61880840D01*
X117725657Y-62019833D01*
X117812772Y-62148125D01*
X117922399Y-62273583D01*
X118049495Y-62390416D01*
X118256697Y-62526792D01*
X118479123Y-62615527D01*
X118711342Y-62655291D01*
X118947922Y-62644753D01*
X119183433Y-62582582D01*
X119223709Y-62565923D01*
X119397396Y-62461711D01*
X119556880Y-62314618D01*
X119695603Y-62132911D01*
X119807008Y-61924856D01*
X119884538Y-61698720D01*
X119899186Y-61624901D01*
X119917651Y-61469910D01*
X119931896Y-61261935D01*
X119941909Y-61001103D01*
X119956391Y-60474160D01*
X118752355Y-60474160D01*
X117548320Y-60474160D01*
X117175028Y-60474160D01*
X117174790Y-60100631D01*
X117548320Y-60100631D01*
G37*
G36*
X120178729Y-63426369D02*
G01*
X120420472Y-63434653D01*
X120637891Y-63450031D01*
X120816702Y-63472481D01*
X120831647Y-63475009D01*
X121234794Y-63559370D01*
X121594599Y-63667311D01*
X121910151Y-63798230D01*
X122180539Y-63951527D01*
X122404851Y-64126599D01*
X122582176Y-64322844D01*
X122711601Y-64539662D01*
X122792216Y-64776449D01*
X122801159Y-64820468D01*
X122820402Y-65049232D01*
X122802231Y-65294530D01*
X122749558Y-65541704D01*
X122665299Y-65776095D01*
X122552367Y-65983044D01*
X122435621Y-66157143D01*
X122606676Y-66157143D01*
X122777731Y-66157143D01*
X122777731Y-66357248D01*
X122777731Y-66557353D01*
X121363656Y-66557353D01*
X119949580Y-66557353D01*
X119949580Y-65823635D01*
X119949580Y-65089916D01*
X120136345Y-65089916D01*
X120323110Y-65089916D01*
X120323110Y-65623530D01*
X120323110Y-66157143D01*
X121051605Y-66157143D01*
X121780099Y-66157143D01*
X121898716Y-66081183D01*
X122064450Y-65952841D01*
X122221529Y-65771349D01*
X122336418Y-65560367D01*
X122406866Y-65324185D01*
X122430622Y-65067096D01*
X122430578Y-65054978D01*
X122424321Y-64925879D01*
X122404437Y-64824050D01*
X122366513Y-64726004D01*
X122287192Y-64588647D01*
X122136882Y-64415656D01*
X121941502Y-64261672D01*
X121704269Y-64127945D01*
X121428402Y-64015726D01*
X121117118Y-63926266D01*
X120773635Y-63860818D01*
X120401170Y-63820631D01*
X120002942Y-63806957D01*
X119743312Y-63812918D01*
X119378130Y-63842622D01*
X119035897Y-63895910D01*
X118720256Y-63971279D01*
X118434849Y-64067226D01*
X118183321Y-64182247D01*
X117969315Y-64314840D01*
X117796473Y-64463501D01*
X117668439Y-64626727D01*
X117588857Y-64803015D01*
X117548921Y-65009287D01*
X117550775Y-65245521D01*
X117599653Y-65478157D01*
X117692902Y-65699031D01*
X117827866Y-65899984D01*
X118001891Y-66072854D01*
X118006239Y-66076383D01*
X118079374Y-66137752D01*
X118133453Y-66186741D01*
X118157048Y-66213025D01*
X118148596Y-66243279D01*
X118117261Y-66304842D01*
X118069876Y-66383723D01*
X117974291Y-66533146D01*
X117890389Y-66485218D01*
X117782863Y-66409011D01*
X117657599Y-66292984D01*
X117533829Y-66154752D01*
X117423711Y-66007974D01*
X117339405Y-65866309D01*
X117270012Y-65714765D01*
X117219698Y-65566336D01*
X117189937Y-65414011D01*
X117177646Y-65241705D01*
X117179743Y-65033334D01*
X117182542Y-64959736D01*
X117189161Y-64843114D01*
X117199862Y-64756514D01*
X117218002Y-64684328D01*
X117246941Y-64610948D01*
X117290037Y-64520766D01*
X117416509Y-64315715D01*
X117599796Y-64115124D01*
X117830332Y-63938069D01*
X118107662Y-63784797D01*
X118431330Y-63655557D01*
X118800882Y-63550597D01*
X119215862Y-63470166D01*
X119254226Y-63464576D01*
X119450412Y-63444281D01*
X119679415Y-63431162D01*
X119926949Y-63425198D01*
X120178729Y-63426369D01*
G37*
G36*
X123097900Y-62345074D02*
G01*
X123097901Y-62490314D01*
X123097936Y-63145359D01*
X123098033Y-63749480D01*
X123098206Y-64304691D01*
X123098469Y-64813003D01*
X123098836Y-65276431D01*
X123099321Y-65696985D01*
X123099938Y-66076679D01*
X123100702Y-66417525D01*
X123101627Y-66721536D01*
X123102726Y-66990725D01*
X123104015Y-67227103D01*
X123105506Y-67432684D01*
X123107215Y-67609479D01*
X123109156Y-67759503D01*
X123111342Y-67884766D01*
X123113788Y-67987282D01*
X123116508Y-68069064D01*
X123119516Y-68132123D01*
X123122827Y-68178473D01*
X123126454Y-68210126D01*
X123130412Y-68229094D01*
X123134715Y-68237390D01*
X123139377Y-68237027D01*
X123159770Y-68226988D01*
X123189106Y-68233423D01*
X123232422Y-68263551D01*
X123297060Y-68322601D01*
X123390363Y-68415803D01*
X123605913Y-68661213D01*
X123830409Y-68989025D01*
X124014859Y-69348466D01*
X124157221Y-69735453D01*
X124255453Y-70145904D01*
X124268844Y-70230458D01*
X124293435Y-70509464D01*
X124295322Y-70811815D01*
X124275471Y-71119267D01*
X124234847Y-71413576D01*
X124174417Y-71676496D01*
X124105964Y-71882540D01*
X123945587Y-72239782D01*
X123739243Y-72581634D01*
X123491380Y-72902614D01*
X123206446Y-73197246D01*
X122888890Y-73460050D01*
X122543160Y-73685547D01*
X122391101Y-73772547D01*
X122477694Y-73797381D01*
X122485874Y-73799807D01*
X122541515Y-73821512D01*
X122564286Y-73840095D01*
X122562031Y-73845008D01*
X122528532Y-73871006D01*
X122467684Y-73904041D01*
X122450262Y-73912246D01*
X122400092Y-73931599D01*
X122353868Y-73935399D01*
X122293494Y-73922927D01*
X122200877Y-73893467D01*
X122200719Y-73893414D01*
X122115059Y-73862254D01*
X122053972Y-73834984D01*
X122030673Y-73817502D01*
X122037115Y-73789321D01*
X122056746Y-73723802D01*
X122084964Y-73637410D01*
X122100018Y-73594565D01*
X122135377Y-73515627D01*
X122175766Y-73466777D01*
X122232613Y-73432124D01*
X122274691Y-73412495D01*
X122328518Y-73391586D01*
X122348670Y-73394703D01*
X122344016Y-73420956D01*
X122327076Y-73466409D01*
X122307184Y-73530171D01*
X122314533Y-73552300D01*
X122355239Y-73537428D01*
X122435416Y-73490187D01*
X122531443Y-73430160D01*
X122885479Y-73174528D01*
X123196344Y-72892038D01*
X123462791Y-72584767D01*
X123683567Y-72254792D01*
X123857424Y-71904190D01*
X123983112Y-71535039D01*
X124059379Y-71149414D01*
X124084977Y-70749394D01*
X124084933Y-70733500D01*
X124058928Y-70333697D01*
X123986458Y-69945550D01*
X123869649Y-69574632D01*
X123710621Y-69226517D01*
X123511499Y-68906780D01*
X123274405Y-68620994D01*
X123099674Y-68438341D01*
X123098393Y-70532774D01*
X123098349Y-70598011D01*
X123097854Y-70996407D01*
X123096971Y-71344700D01*
X123095654Y-71645719D01*
X123093860Y-71902292D01*
X123091543Y-72117247D01*
X123088659Y-72293410D01*
X123085163Y-72433610D01*
X123081009Y-72540675D01*
X123076153Y-72617433D01*
X123070550Y-72666710D01*
X123064155Y-72691336D01*
X123002536Y-72771195D01*
X122903959Y-72833182D01*
X122787334Y-72863985D01*
X122665080Y-72863818D01*
X122549620Y-72832897D01*
X122453373Y-72771437D01*
X122388760Y-72679653D01*
X122383640Y-72664232D01*
X122376763Y-72629334D01*
X122370872Y-72577306D01*
X122365896Y-72504526D01*
X122361763Y-72407369D01*
X122358402Y-72282214D01*
X122355741Y-72125436D01*
X122353709Y-71933413D01*
X122352234Y-71702521D01*
X122351243Y-71429138D01*
X122350667Y-71109641D01*
X122350432Y-70740406D01*
X122350268Y-70536334D01*
X122349579Y-70236257D01*
X122348402Y-69954479D01*
X122346783Y-69695382D01*
X122344770Y-69463350D01*
X122342409Y-69262765D01*
X122339748Y-69098011D01*
X122336831Y-68973469D01*
X122333707Y-68893523D01*
X122330422Y-68862556D01*
X122302563Y-68835555D01*
X122247456Y-68799802D01*
X122216230Y-68785719D01*
X122170198Y-68784891D01*
X122114053Y-68818690D01*
X122044013Y-68870975D01*
X122030673Y-70762431D01*
X122028330Y-71075917D01*
X122025369Y-71417352D01*
X122022261Y-71711038D01*
X122018931Y-71960080D01*
X122015303Y-72167579D01*
X122011302Y-72336638D01*
X122006851Y-72470360D01*
X122001876Y-72571846D01*
X121996300Y-72644200D01*
X121990047Y-72690523D01*
X121983043Y-72713919D01*
X121982430Y-72714985D01*
X121905897Y-72798313D01*
X121799553Y-72850612D01*
X121677238Y-72871339D01*
X121552792Y-72859951D01*
X121440054Y-72815904D01*
X121352864Y-72738656D01*
X121348208Y-72732282D01*
X121338095Y-72716372D01*
X121329361Y-72696521D01*
X121321875Y-72668927D01*
X121315502Y-72629789D01*
X121310108Y-72575305D01*
X121305560Y-72501674D01*
X121301725Y-72405094D01*
X121298469Y-72281765D01*
X121295658Y-72127884D01*
X121293160Y-71939651D01*
X121290839Y-71713263D01*
X121288564Y-71444919D01*
X121286200Y-71130818D01*
X121283614Y-70767158D01*
X121270273Y-68870975D01*
X121200233Y-68818690D01*
X121166091Y-68795351D01*
X121118902Y-68781325D01*
X121066830Y-68799802D01*
X121021116Y-68828451D01*
X120983865Y-68862556D01*
X120981752Y-68876293D01*
X120978510Y-68938840D01*
X120975422Y-69047571D01*
X120972537Y-69198093D01*
X120969908Y-69386014D01*
X120967583Y-69606942D01*
X120965615Y-69856484D01*
X120964052Y-70130249D01*
X120962947Y-70423845D01*
X120962348Y-70732879D01*
X120961909Y-71019625D01*
X120960855Y-71374123D01*
X120959244Y-71679702D01*
X120957031Y-71938944D01*
X120954172Y-72154431D01*
X120950620Y-72328744D01*
X120946330Y-72464467D01*
X120941259Y-72564180D01*
X120935360Y-72630467D01*
X120928589Y-72665910D01*
X120926193Y-72672539D01*
X120865692Y-72765222D01*
X120773053Y-72828659D01*
X120660344Y-72862399D01*
X120539631Y-72865988D01*
X120422980Y-72838976D01*
X120322458Y-72780909D01*
X120250131Y-72691336D01*
X120246715Y-72681768D01*
X120240412Y-72644281D01*
X120234982Y-72580248D01*
X120230372Y-72486691D01*
X120226532Y-72360629D01*
X120223410Y-72199084D01*
X120220955Y-71999076D01*
X120219116Y-71757625D01*
X120217842Y-71471753D01*
X120217080Y-71138479D01*
X120216780Y-70754826D01*
X120216387Y-68882445D01*
X120146087Y-68827147D01*
X120131644Y-68816096D01*
X120061404Y-68778081D01*
X120001552Y-68784887D01*
X119935027Y-68837338D01*
X119869538Y-68902827D01*
X119869538Y-70773012D01*
X119869542Y-70908332D01*
X119869519Y-71263624D01*
X119869230Y-71570496D01*
X119868402Y-71832616D01*
X119866765Y-72053653D01*
X119864044Y-72237274D01*
X119859969Y-72387148D01*
X119854266Y-72506943D01*
X119846663Y-72600327D01*
X119836889Y-72670969D01*
X119824670Y-72722535D01*
X119809735Y-72758696D01*
X119791811Y-72783117D01*
X119770626Y-72799469D01*
X119745907Y-72811419D01*
X119717383Y-72822635D01*
X119597364Y-72858906D01*
X119449055Y-72867332D01*
X119321337Y-72829082D01*
X119217809Y-72744718D01*
X119149160Y-72663133D01*
X119149160Y-70782980D01*
X119149160Y-68902827D01*
X119083671Y-68837338D01*
X119079028Y-68832797D01*
X119022473Y-68789602D01*
X118975736Y-68771849D01*
X118972635Y-68772006D01*
X118924026Y-68792619D01*
X118867800Y-68837338D01*
X118802311Y-68902827D01*
X118802311Y-70891750D01*
X118802311Y-72880673D01*
X118695589Y-72880673D01*
X118588866Y-72880673D01*
X118588966Y-70859612D01*
X118588995Y-70569201D01*
X118589129Y-70230825D01*
X118589456Y-69939306D01*
X118590071Y-69690948D01*
X118591070Y-69482054D01*
X118592545Y-69308925D01*
X118594593Y-69167867D01*
X118597307Y-69055180D01*
X118600782Y-68967168D01*
X118605113Y-68900134D01*
X118610394Y-68850381D01*
X118616720Y-68814211D01*
X118624185Y-68787928D01*
X118632884Y-68767835D01*
X118642911Y-68750233D01*
X118658042Y-68727836D01*
X118748029Y-68646786D01*
X118863051Y-68599649D01*
X118989863Y-68586425D01*
X119115216Y-68607115D01*
X119225864Y-68661717D01*
X119308560Y-68750233D01*
X119310216Y-68752966D01*
X119320404Y-68771415D01*
X119329172Y-68793018D01*
X119336627Y-68821638D01*
X119342877Y-68861136D01*
X119348027Y-68915375D01*
X119352185Y-68988217D01*
X119355457Y-69083524D01*
X119357949Y-69205157D01*
X119359768Y-69356979D01*
X119361022Y-69542853D01*
X119361815Y-69766639D01*
X119362256Y-70032200D01*
X119362451Y-70343399D01*
X119362506Y-70704097D01*
X119362509Y-70743749D01*
X119362630Y-71101285D01*
X119362982Y-71409577D01*
X119363652Y-71672357D01*
X119364724Y-71893361D01*
X119366286Y-72076320D01*
X119368424Y-72224970D01*
X119371224Y-72343042D01*
X119374772Y-72434271D01*
X119379155Y-72502390D01*
X119384459Y-72551132D01*
X119390771Y-72584231D01*
X119398176Y-72605421D01*
X119406762Y-72618435D01*
X119464276Y-72656753D01*
X119543445Y-72662670D01*
X119614166Y-72625301D01*
X119620752Y-72616027D01*
X119628020Y-72595822D01*
X119634235Y-72562674D01*
X119639477Y-72512908D01*
X119643827Y-72442850D01*
X119647366Y-72348827D01*
X119650174Y-72227162D01*
X119652332Y-72074183D01*
X119653920Y-71886215D01*
X119655020Y-71659583D01*
X119655711Y-71390613D01*
X119656075Y-71075631D01*
X119656193Y-70710962D01*
X119656240Y-70417524D01*
X119656440Y-70095420D01*
X119656889Y-69819772D01*
X119657684Y-69586744D01*
X119658925Y-69392499D01*
X119660710Y-69233199D01*
X119663138Y-69105008D01*
X119666306Y-69004087D01*
X119670315Y-68926601D01*
X119675262Y-68868711D01*
X119681245Y-68826580D01*
X119688365Y-68796372D01*
X119696718Y-68774249D01*
X119706404Y-68756373D01*
X119786476Y-68667830D01*
X119898125Y-68609087D01*
X120025406Y-68586013D01*
X120155627Y-68599018D01*
X120276094Y-68648508D01*
X120374115Y-68734893D01*
X120378544Y-68740593D01*
X120388695Y-68755488D01*
X120397410Y-68774097D01*
X120404798Y-68800238D01*
X120410969Y-68837730D01*
X120416032Y-68890393D01*
X120420097Y-68962045D01*
X120423273Y-69056506D01*
X120425671Y-69177595D01*
X120427399Y-69329131D01*
X120428567Y-69514932D01*
X120429285Y-69738818D01*
X120429662Y-70004609D01*
X120429808Y-70316123D01*
X120429832Y-70677179D01*
X120429875Y-70919992D01*
X120430141Y-71252805D01*
X120430723Y-71538354D01*
X120431700Y-71780336D01*
X120433150Y-71982451D01*
X120435154Y-72148397D01*
X120437791Y-72281871D01*
X120441141Y-72386572D01*
X120445283Y-72466199D01*
X120450297Y-72524450D01*
X120456263Y-72565023D01*
X120463259Y-72591617D01*
X120471366Y-72607929D01*
X120506251Y-72643505D01*
X120581662Y-72665847D01*
X120671712Y-72639608D01*
X120673102Y-72638850D01*
X120682870Y-72631816D01*
X120691283Y-72619892D01*
X120698440Y-72599350D01*
X120704445Y-72566461D01*
X120709397Y-72517496D01*
X120713399Y-72448726D01*
X120716550Y-72356424D01*
X120718954Y-72236861D01*
X120720709Y-72086308D01*
X120721919Y-71901036D01*
X120722684Y-71677318D01*
X120723104Y-71411423D01*
X120723283Y-71099625D01*
X120723320Y-70738194D01*
X120723341Y-70509284D01*
X120723507Y-70177547D01*
X120723921Y-69892958D01*
X120724676Y-69651667D01*
X120725870Y-69449827D01*
X120727597Y-69283588D01*
X120729953Y-69149103D01*
X120733033Y-69042521D01*
X120736933Y-68959995D01*
X120741748Y-68897676D01*
X120747574Y-68851715D01*
X120754506Y-68818263D01*
X120762641Y-68793473D01*
X120772072Y-68773494D01*
X120775939Y-68766491D01*
X120858259Y-68670537D01*
X120968271Y-68609920D01*
X121093779Y-68585344D01*
X121222590Y-68597512D01*
X121342509Y-68647127D01*
X121441342Y-68734893D01*
X121445771Y-68740593D01*
X121455922Y-68755488D01*
X121464637Y-68774097D01*
X121472025Y-68800238D01*
X121478195Y-68837730D01*
X121483259Y-68890393D01*
X121487324Y-68962045D01*
X121490500Y-69056506D01*
X121492898Y-69177595D01*
X121494626Y-69329131D01*
X121495794Y-69514932D01*
X121496512Y-69738818D01*
X121496889Y-70004609D01*
X121497035Y-70316123D01*
X121497059Y-70677179D01*
X121497124Y-70981713D01*
X121497420Y-71305172D01*
X121498034Y-71582068D01*
X121499046Y-71816124D01*
X121500539Y-72011066D01*
X121502594Y-72170618D01*
X121505295Y-72298504D01*
X121508723Y-72398450D01*
X121512961Y-72474180D01*
X121518089Y-72529418D01*
X121524191Y-72567889D01*
X121531348Y-72593318D01*
X121539643Y-72609429D01*
X121582510Y-72648005D01*
X121655757Y-72665340D01*
X121729013Y-72644475D01*
X121782875Y-72587185D01*
X121787292Y-72573898D01*
X121793569Y-72534303D01*
X121798961Y-72469339D01*
X121803523Y-72375895D01*
X121807310Y-72250860D01*
X121810377Y-72091126D01*
X121812779Y-71893582D01*
X121814571Y-71655117D01*
X121815807Y-71372623D01*
X121816543Y-71042989D01*
X121816834Y-70663105D01*
X121816862Y-70536550D01*
X121816989Y-70194010D01*
X121817266Y-69899708D01*
X121817805Y-69649811D01*
X121818717Y-69440483D01*
X121820115Y-69267889D01*
X121822110Y-69128196D01*
X121824813Y-69017568D01*
X121828336Y-68932171D01*
X121832791Y-68868170D01*
X121838289Y-68821730D01*
X121844942Y-68789017D01*
X121852861Y-68766197D01*
X121862158Y-68749433D01*
X121872944Y-68734893D01*
X121948097Y-68663693D01*
X122065197Y-68606413D01*
X122194863Y-68585600D01*
X122324107Y-68601137D01*
X122439940Y-68652909D01*
X122529373Y-68740797D01*
X122535479Y-68750724D01*
X122543968Y-68770037D01*
X122551283Y-68797337D01*
X122557530Y-68836405D01*
X122562815Y-68891023D01*
X122567246Y-68964971D01*
X122570929Y-69062031D01*
X122573969Y-69185983D01*
X122576474Y-69340610D01*
X122578549Y-69529692D01*
X122580302Y-69757011D01*
X122581838Y-70026347D01*
X122583264Y-70341483D01*
X122584687Y-70706198D01*
X122585138Y-70825291D01*
X122586574Y-71174742D01*
X122588066Y-71475652D01*
X122589714Y-71731700D01*
X122591617Y-71946563D01*
X122593872Y-72123920D01*
X122596579Y-72267448D01*
X122599836Y-72380825D01*
X122603743Y-72467729D01*
X122608399Y-72531838D01*
X122613901Y-72576829D01*
X122620349Y-72606381D01*
X122627842Y-72624170D01*
X122636478Y-72633876D01*
X122700735Y-72662901D01*
X122779878Y-72656950D01*
X122842920Y-72607929D01*
X122846609Y-72599652D01*
X122850395Y-72582978D01*
X122853924Y-72556652D01*
X122857203Y-72518927D01*
X122860242Y-72468054D01*
X122863050Y-72402285D01*
X122865636Y-72319871D01*
X122868008Y-72219064D01*
X122870177Y-72098116D01*
X122872150Y-71955278D01*
X122873936Y-71788801D01*
X122875545Y-71596938D01*
X122876985Y-71377940D01*
X122878266Y-71130058D01*
X122879396Y-70851545D01*
X122880384Y-70540650D01*
X122881239Y-70195628D01*
X122881971Y-69814727D01*
X122882587Y-69396202D01*
X122883098Y-68938302D01*
X122883511Y-68439280D01*
X122883837Y-67897387D01*
X122884083Y-67310875D01*
X122884259Y-66677995D01*
X122884373Y-65996999D01*
X122884435Y-65266138D01*
X122884454Y-64483665D01*
X122884454Y-56418698D01*
X122991177Y-56418698D01*
X123097900Y-56418698D01*
X123097900Y-62345074D01*
G37*
%TD*%
M02*
